<svg width="576" height="424" viewBox="0 0 576 424" fill="none" xmlns="http://www.w3.org/2000/svg">
<ellipse cx="288" cy="212" rx="288" ry="212" fill="white"/>
<path d="M152.3 167H146.675L156.917 137.909H163.423L173.678 167H168.053L160.283 143.875H160.056L152.3 167ZM152.485 155.594H167.826V159.827H152.485V155.594ZM177.283 175.182V145.182H182.339V148.79H182.638C182.903 148.259 183.277 147.696 183.76 147.099C184.243 146.493 184.896 145.977 185.72 145.551C186.544 145.116 187.595 144.898 188.874 144.898C190.559 144.898 192.079 145.329 193.433 146.19C194.797 147.043 195.876 148.307 196.672 149.983C197.477 151.65 197.879 153.695 197.879 156.119C197.879 158.515 197.486 160.551 196.7 162.227C195.914 163.903 194.844 165.182 193.49 166.062C192.136 166.943 190.602 167.384 188.888 167.384C187.638 167.384 186.601 167.175 185.777 166.759C184.953 166.342 184.29 165.84 183.788 165.253C183.296 164.656 182.912 164.093 182.638 163.562H182.425V175.182H177.283ZM182.325 156.091C182.325 157.502 182.524 158.738 182.922 159.798C183.329 160.859 183.911 161.687 184.669 162.284C185.436 162.871 186.364 163.165 187.453 163.165C188.589 163.165 189.541 162.862 190.308 162.256C191.075 161.64 191.653 160.802 192.041 159.741C192.439 158.671 192.638 157.455 192.638 156.091C192.638 154.737 192.444 153.534 192.055 152.483C191.667 151.432 191.089 150.608 190.322 150.011C189.555 149.415 188.599 149.116 187.453 149.116C186.355 149.116 185.422 149.405 184.655 149.983C183.888 150.561 183.305 151.37 182.908 152.412C182.519 153.454 182.325 154.68 182.325 156.091ZM208.561 167.44C207.179 167.44 205.933 167.194 204.825 166.702C203.727 166.2 202.856 165.461 202.212 164.486C201.577 163.51 201.26 162.308 201.26 160.878C201.26 159.647 201.487 158.629 201.942 157.824C202.396 157.019 203.017 156.375 203.803 155.892C204.589 155.409 205.474 155.045 206.459 154.798C207.453 154.543 208.481 154.358 209.541 154.244C210.82 154.112 211.857 153.993 212.652 153.889C213.447 153.776 214.025 153.605 214.385 153.378C214.754 153.141 214.939 152.777 214.939 152.284V152.199C214.939 151.129 214.622 150.3 213.987 149.713C213.353 149.126 212.439 148.832 211.246 148.832C209.986 148.832 208.987 149.107 208.249 149.656C207.519 150.205 207.027 150.854 206.771 151.602L201.97 150.92C202.349 149.595 202.974 148.487 203.845 147.597C204.716 146.697 205.782 146.025 207.041 145.58C208.301 145.125 209.693 144.898 211.217 144.898C212.268 144.898 213.315 145.021 214.357 145.267C215.398 145.513 216.35 145.92 217.212 146.489C218.073 147.047 218.765 147.81 219.286 148.776C219.816 149.741 220.081 150.949 220.081 152.398V167H215.138V164.003H214.967C214.655 164.609 214.214 165.177 213.646 165.707C213.088 166.228 212.382 166.65 211.53 166.972C210.687 167.284 209.697 167.44 208.561 167.44ZM209.896 163.662C210.929 163.662 211.823 163.458 212.581 163.051C213.339 162.634 213.921 162.085 214.328 161.403C214.745 160.722 214.953 159.978 214.953 159.173V156.602C214.792 156.735 214.518 156.858 214.129 156.972C213.75 157.085 213.324 157.185 212.851 157.27C212.377 157.355 211.909 157.431 211.445 157.497C210.981 157.563 210.578 157.62 210.237 157.668C209.47 157.772 208.784 157.942 208.178 158.179C207.571 158.416 207.093 158.747 206.743 159.173C206.393 159.59 206.217 160.13 206.217 160.793C206.217 161.74 206.563 162.455 207.254 162.938C207.946 163.42 208.826 163.662 209.896 163.662ZM238.369 175.182C237.669 175.182 237.02 175.125 236.423 175.011C235.836 174.907 235.367 174.784 235.017 174.642L236.21 170.636C236.958 170.854 237.626 170.958 238.213 170.949C238.8 170.939 239.316 170.755 239.761 170.395C240.216 170.045 240.599 169.457 240.912 168.634L241.352 167.455L233.44 145.182H238.895L243.923 161.659H244.151L249.193 145.182H254.662L245.926 169.642C245.519 170.797 244.979 171.787 244.307 172.611C243.634 173.444 242.811 174.079 241.835 174.514C240.869 174.959 239.714 175.182 238.369 175.182ZM263.874 167.44C262.491 167.44 261.246 167.194 260.138 166.702C259.039 166.2 258.168 165.461 257.524 164.486C256.89 163.51 256.572 162.308 256.572 160.878C256.572 159.647 256.8 158.629 257.254 157.824C257.709 157.019 258.329 156.375 259.115 155.892C259.901 155.409 260.786 155.045 261.771 154.798C262.766 154.543 263.793 154.358 264.854 154.244C266.132 154.112 267.169 153.993 267.964 153.889C268.76 153.776 269.338 153.605 269.697 153.378C270.067 153.141 270.251 152.777 270.251 152.284V152.199C270.251 151.129 269.934 150.3 269.3 149.713C268.665 149.126 267.751 148.832 266.558 148.832C265.299 148.832 264.3 149.107 263.561 149.656C262.832 150.205 262.339 150.854 262.084 151.602L257.283 150.92C257.661 149.595 258.286 148.487 259.158 147.597C260.029 146.697 261.094 146.025 262.354 145.58C263.613 145.125 265.005 144.898 266.53 144.898C267.581 144.898 268.627 145.021 269.669 145.267C270.711 145.513 271.662 145.92 272.524 146.489C273.386 147.047 274.077 147.81 274.598 148.776C275.128 149.741 275.393 150.949 275.393 152.398V167H270.45V164.003H270.28C269.967 164.609 269.527 165.177 268.959 165.707C268.4 166.228 267.695 166.65 266.842 166.972C266 167.284 265.01 167.44 263.874 167.44ZM265.209 163.662C266.241 163.662 267.136 163.458 267.893 163.051C268.651 162.634 269.233 162.085 269.641 161.403C270.057 160.722 270.266 159.978 270.266 159.173V156.602C270.105 156.735 269.83 156.858 269.442 156.972C269.063 157.085 268.637 157.185 268.163 157.27C267.69 157.355 267.221 157.431 266.757 157.497C266.293 157.563 265.891 157.62 265.55 157.668C264.783 157.772 264.096 157.942 263.49 158.179C262.884 158.416 262.406 158.747 262.055 159.173C261.705 159.59 261.53 160.13 261.53 160.793C261.53 161.74 261.875 162.455 262.567 162.938C263.258 163.42 264.139 163.662 265.209 163.662ZM285.706 154.216V167H280.564V145.182H285.479V148.889H285.734C286.236 147.668 287.036 146.697 288.135 145.977C289.243 145.258 290.611 144.898 292.24 144.898C293.746 144.898 295.057 145.22 296.175 145.864C297.302 146.508 298.173 147.44 298.788 148.662C299.413 149.884 299.721 151.366 299.712 153.108V167H294.57V153.903C294.57 152.445 294.191 151.304 293.433 150.48C292.685 149.656 291.648 149.244 290.322 149.244C289.423 149.244 288.623 149.443 287.922 149.841C287.231 150.229 286.686 150.793 286.288 151.531C285.9 152.27 285.706 153.165 285.706 154.216ZM314.428 175.636C312.581 175.636 310.995 175.385 309.669 174.884C308.343 174.391 307.278 173.728 306.473 172.895C305.668 172.062 305.109 171.138 304.797 170.125L309.428 169.003C309.636 169.429 309.939 169.85 310.337 170.267C310.734 170.693 311.269 171.044 311.942 171.318C312.624 171.602 313.481 171.744 314.513 171.744C315.971 171.744 317.179 171.389 318.135 170.679C319.091 169.978 319.57 168.823 319.57 167.213V163.08H319.314C319.049 163.61 318.661 164.154 318.149 164.713C317.647 165.272 316.98 165.741 316.146 166.119C315.322 166.498 314.286 166.688 313.036 166.688C311.359 166.688 309.839 166.295 308.476 165.509C307.122 164.713 306.042 163.529 305.237 161.957C304.442 160.376 304.044 158.397 304.044 156.02C304.044 153.624 304.442 151.602 305.237 149.955C306.042 148.297 307.126 147.043 308.49 146.19C309.854 145.329 311.374 144.898 313.05 144.898C314.328 144.898 315.379 145.116 316.203 145.551C317.036 145.977 317.699 146.493 318.192 147.099C318.684 147.696 319.058 148.259 319.314 148.79H319.598V145.182H324.669V167.355C324.669 169.221 324.224 170.764 323.334 171.986C322.444 173.207 321.227 174.121 319.683 174.727C318.14 175.333 316.388 175.636 314.428 175.636ZM314.47 162.653C315.559 162.653 316.487 162.388 317.254 161.858C318.021 161.328 318.604 160.565 319.001 159.571C319.399 158.577 319.598 157.384 319.598 155.991C319.598 154.618 319.399 153.416 319.001 152.384C318.613 151.351 318.036 150.551 317.268 149.983C316.511 149.405 315.578 149.116 314.47 149.116C313.324 149.116 312.368 149.415 311.601 150.011C310.834 150.608 310.256 151.427 309.868 152.469C309.48 153.501 309.286 154.675 309.286 155.991C309.286 157.327 309.48 158.496 309.868 159.5C310.266 160.494 310.848 161.271 311.615 161.83C312.392 162.379 313.343 162.653 314.47 162.653ZM346.139 167.44C344.757 167.44 343.511 167.194 342.403 166.702C341.305 166.2 340.434 165.461 339.79 164.486C339.155 163.51 338.838 162.308 338.838 160.878C338.838 159.647 339.065 158.629 339.52 157.824C339.974 157.019 340.595 156.375 341.381 155.892C342.167 155.409 343.052 155.045 344.037 154.798C345.031 154.543 346.059 154.358 347.119 154.244C348.398 154.112 349.435 153.993 350.23 153.889C351.026 153.776 351.603 153.605 351.963 153.378C352.332 153.141 352.517 152.777 352.517 152.284V152.199C352.517 151.129 352.2 150.3 351.565 149.713C350.931 149.126 350.017 148.832 348.824 148.832C347.564 148.832 346.565 149.107 345.827 149.656C345.098 150.205 344.605 150.854 344.349 151.602L339.548 150.92C339.927 149.595 340.552 148.487 341.423 147.597C342.295 146.697 343.36 146.025 344.619 145.58C345.879 145.125 347.271 144.898 348.795 144.898C349.847 144.898 350.893 145.021 351.935 145.267C352.976 145.513 353.928 145.92 354.79 146.489C355.652 147.047 356.343 147.81 356.864 148.776C357.394 149.741 357.659 150.949 357.659 152.398V167H352.716V164.003H352.545C352.233 164.609 351.793 165.177 351.224 165.707C350.666 166.228 349.96 166.65 349.108 166.972C348.265 167.284 347.276 167.44 346.139 167.44ZM347.474 163.662C348.507 163.662 349.402 163.458 350.159 163.051C350.917 162.634 351.499 162.085 351.906 161.403C352.323 160.722 352.531 159.978 352.531 159.173V156.602C352.37 156.735 352.096 156.858 351.707 156.972C351.329 157.085 350.902 157.185 350.429 157.27C349.955 157.355 349.487 157.431 349.023 157.497C348.559 157.563 348.156 157.62 347.815 157.668C347.048 157.772 346.362 157.942 345.756 158.179C345.15 158.416 344.671 158.747 344.321 159.173C343.971 159.59 343.795 160.13 343.795 160.793C343.795 161.74 344.141 162.455 344.832 162.938C345.524 163.42 346.404 163.662 347.474 163.662ZM367.517 160.153L367.503 153.946H368.327L376.168 145.182H382.176L372.531 155.92H371.466L367.517 160.153ZM362.83 167V137.909H367.972V167H362.83ZM376.523 167L369.42 157.071L372.886 153.449L382.673 167H376.523ZM391.881 167.44C390.499 167.44 389.254 167.194 388.146 166.702C387.047 166.2 386.176 165.461 385.532 164.486C384.897 163.51 384.58 162.308 384.58 160.878C384.58 159.647 384.808 158.629 385.262 157.824C385.717 157.019 386.337 156.375 387.123 155.892C387.909 155.409 388.794 155.045 389.779 154.798C390.773 154.543 391.801 154.358 392.862 154.244C394.14 154.112 395.177 153.993 395.972 153.889C396.768 153.776 397.345 153.605 397.705 153.378C398.075 153.141 398.259 152.777 398.259 152.284V152.199C398.259 151.129 397.942 150.3 397.308 149.713C396.673 149.126 395.759 148.832 394.566 148.832C393.307 148.832 392.308 149.107 391.569 149.656C390.84 150.205 390.347 150.854 390.092 151.602L385.29 150.92C385.669 149.595 386.294 148.487 387.165 147.597C388.037 146.697 389.102 146.025 390.362 145.58C391.621 145.125 393.013 144.898 394.538 144.898C395.589 144.898 396.635 145.021 397.677 145.267C398.719 145.513 399.67 145.92 400.532 146.489C401.394 147.047 402.085 147.81 402.606 148.776C403.136 149.741 403.401 150.949 403.401 152.398V167H398.458V164.003H398.288C397.975 164.609 397.535 165.177 396.967 165.707C396.408 166.228 395.702 166.65 394.85 166.972C394.007 167.284 393.018 167.44 391.881 167.44ZM393.217 163.662C394.249 163.662 395.144 163.458 395.901 163.051C396.659 162.634 397.241 162.085 397.648 161.403C398.065 160.722 398.273 159.978 398.273 159.173V156.602C398.112 156.735 397.838 156.858 397.45 156.972C397.071 157.085 396.645 157.185 396.171 157.27C395.698 157.355 395.229 157.431 394.765 157.497C394.301 157.563 393.898 157.62 393.558 157.668C392.79 157.772 392.104 157.942 391.498 158.179C390.892 158.416 390.414 158.747 390.063 159.173C389.713 159.59 389.538 160.13 389.538 160.793C389.538 161.74 389.883 162.455 390.575 162.938C391.266 163.42 392.147 163.662 393.217 163.662ZM413.714 154.216V167H408.572V145.182H413.487V148.889H413.742C414.244 147.668 415.044 146.697 416.143 145.977C417.251 145.258 418.619 144.898 420.248 144.898C421.754 144.898 423.065 145.22 424.183 145.864C425.309 146.508 426.181 147.44 426.796 148.662C427.421 149.884 427.729 151.366 427.719 153.108V167H422.577V153.903C422.577 152.445 422.199 151.304 421.441 150.48C420.693 149.656 419.656 149.244 418.33 149.244C417.431 149.244 416.63 149.443 415.93 149.841C415.238 150.229 414.694 150.793 414.296 151.531C413.908 152.27 413.714 153.165 413.714 154.216ZM183.787 220.153L183.772 213.946H184.596L192.437 205.182H198.446L188.801 215.92H187.735L183.787 220.153ZM179.099 227V197.909H184.241V227H179.099ZM192.792 227L185.69 217.071L189.156 213.449L198.943 227H192.792ZM201.873 227V205.182H207.015V227H201.873ZM204.458 202.085C203.643 202.085 202.943 201.815 202.355 201.276C201.768 200.726 201.475 200.068 201.475 199.301C201.475 198.525 201.768 197.866 202.355 197.327C202.943 196.777 203.643 196.503 204.458 196.503C205.282 196.503 205.982 196.777 206.56 197.327C207.147 197.866 207.441 198.525 207.441 199.301C207.441 200.068 207.147 200.726 206.56 201.276C205.982 201.815 205.282 202.085 204.458 202.085ZM223.197 205.182V209.159H210.654V205.182H223.197ZM213.751 199.955H218.893V220.438C218.893 221.129 218.997 221.659 219.206 222.028C219.423 222.388 219.708 222.634 220.058 222.767C220.408 222.9 220.797 222.966 221.223 222.966C221.545 222.966 221.838 222.942 222.103 222.895C222.378 222.848 222.586 222.805 222.728 222.767L223.595 226.787C223.32 226.882 222.927 226.986 222.416 227.099C221.914 227.213 221.298 227.279 220.569 227.298C219.281 227.336 218.121 227.142 217.089 226.716C216.057 226.28 215.238 225.608 214.632 224.699C214.035 223.79 213.742 222.653 213.751 221.29V199.955ZM233.776 227.44C232.393 227.44 231.148 227.194 230.04 226.702C228.942 226.2 228.07 225.461 227.426 224.486C226.792 223.51 226.475 222.308 226.475 220.878C226.475 219.647 226.702 218.629 227.157 217.824C227.611 217.019 228.231 216.375 229.017 215.892C229.803 215.409 230.689 215.045 231.674 214.798C232.668 214.543 233.695 214.358 234.756 214.244C236.034 214.112 237.071 213.993 237.867 213.889C238.662 213.776 239.24 213.605 239.6 213.378C239.969 213.141 240.154 212.777 240.154 212.284V212.199C240.154 211.129 239.837 210.3 239.202 209.713C238.568 209.126 237.654 208.832 236.461 208.832C235.201 208.832 234.202 209.107 233.463 209.656C232.734 210.205 232.242 210.854 231.986 211.602L227.185 210.92C227.564 209.595 228.189 208.487 229.06 207.597C229.931 206.697 230.997 206.025 232.256 205.58C233.516 205.125 234.908 204.898 236.432 204.898C237.483 204.898 238.53 205.021 239.571 205.267C240.613 205.513 241.565 205.92 242.426 206.489C243.288 207.047 243.98 207.81 244.5 208.776C245.031 209.741 245.296 210.949 245.296 212.398V227H240.353V224.003H240.182C239.87 224.609 239.429 225.177 238.861 225.707C238.302 226.228 237.597 226.65 236.745 226.972C235.902 227.284 234.912 227.44 233.776 227.44ZM235.111 223.662C236.143 223.662 237.038 223.458 237.796 223.051C238.553 222.634 239.136 222.085 239.543 221.403C239.96 220.722 240.168 219.978 240.168 219.173V216.602C240.007 216.735 239.732 216.858 239.344 216.972C238.965 217.085 238.539 217.185 238.066 217.27C237.592 217.355 237.123 217.431 236.659 217.497C236.195 217.563 235.793 217.62 235.452 217.668C234.685 217.772 233.998 217.942 233.392 218.179C232.786 218.416 232.308 218.747 231.958 219.173C231.607 219.59 231.432 220.13 231.432 220.793C231.432 221.74 231.778 222.455 232.469 222.938C233.16 223.42 234.041 223.662 235.111 223.662ZM260.388 235.182V205.182H265.445V208.79H265.743C266.008 208.259 266.382 207.696 266.865 207.099C267.348 206.493 268.002 205.977 268.826 205.551C269.65 205.116 270.701 204.898 271.979 204.898C273.665 204.898 275.185 205.329 276.539 206.19C277.902 207.043 278.982 208.307 279.777 209.983C280.582 211.65 280.985 213.695 280.985 216.119C280.985 218.515 280.592 220.551 279.806 222.227C279.02 223.903 277.95 225.182 276.596 226.062C275.241 226.943 273.707 227.384 271.993 227.384C270.743 227.384 269.706 227.175 268.882 226.759C268.059 226.342 267.396 225.84 266.894 225.253C266.401 224.656 266.018 224.093 265.743 223.562H265.53V235.182H260.388ZM265.431 216.091C265.431 217.502 265.63 218.738 266.027 219.798C266.435 220.859 267.017 221.687 267.775 222.284C268.542 222.871 269.47 223.165 270.559 223.165C271.695 223.165 272.647 222.862 273.414 222.256C274.181 221.64 274.758 220.802 275.147 219.741C275.544 218.671 275.743 217.455 275.743 216.091C275.743 214.737 275.549 213.534 275.161 212.483C274.773 211.432 274.195 210.608 273.428 210.011C272.661 209.415 271.704 209.116 270.559 209.116C269.46 209.116 268.527 209.405 267.76 209.983C266.993 210.561 266.411 211.37 266.013 212.412C265.625 213.454 265.431 214.68 265.431 216.091ZM295.047 227.426C292.86 227.426 290.971 226.972 289.38 226.062C287.798 225.144 286.581 223.847 285.729 222.17C284.877 220.485 284.451 218.501 284.451 216.219C284.451 213.974 284.877 212.005 285.729 210.31C286.591 208.605 287.793 207.279 289.337 206.332C290.881 205.376 292.694 204.898 294.777 204.898C296.122 204.898 297.391 205.116 298.584 205.551C299.787 205.977 300.847 206.64 301.766 207.54C302.694 208.439 303.423 209.585 303.953 210.977C304.484 212.36 304.749 214.008 304.749 215.92V217.497H286.865V214.031H299.82C299.81 213.046 299.597 212.17 299.181 211.403C298.764 210.627 298.182 210.016 297.434 209.571C296.695 209.126 295.833 208.903 294.848 208.903C293.797 208.903 292.874 209.159 292.078 209.67C291.283 210.172 290.663 210.835 290.218 211.659C289.782 212.473 289.56 213.368 289.55 214.344V217.369C289.55 218.638 289.782 219.727 290.246 220.636C290.71 221.536 291.359 222.227 292.192 222.71C293.025 223.184 294.001 223.42 295.118 223.42C295.866 223.42 296.543 223.316 297.15 223.108C297.756 222.89 298.281 222.573 298.726 222.156C299.171 221.74 299.507 221.223 299.735 220.608L304.536 221.148C304.233 222.417 303.655 223.525 302.803 224.472C301.96 225.409 300.881 226.138 299.564 226.659C298.248 227.17 296.742 227.426 295.047 227.426ZM314.241 197.909V227H309.099V197.909H314.241ZM325.807 227.44C324.425 227.44 323.179 227.194 322.071 226.702C320.973 226.2 320.102 225.461 319.458 224.486C318.823 223.51 318.506 222.308 318.506 220.878C318.506 219.647 318.733 218.629 319.188 217.824C319.642 217.019 320.263 216.375 321.049 215.892C321.835 215.409 322.72 215.045 323.705 214.798C324.699 214.543 325.727 214.358 326.787 214.244C328.066 214.112 329.103 213.993 329.898 213.889C330.694 213.776 331.271 213.605 331.631 213.378C332 213.141 332.185 212.777 332.185 212.284V212.199C332.185 211.129 331.868 210.3 331.233 209.713C330.599 209.126 329.685 208.832 328.492 208.832C327.232 208.832 326.233 209.107 325.495 209.656C324.766 210.205 324.273 210.854 324.017 211.602L319.216 210.92C319.595 209.595 320.22 208.487 321.091 207.597C321.962 206.697 323.028 206.025 324.287 205.58C325.547 205.125 326.939 204.898 328.463 204.898C329.515 204.898 330.561 205.021 331.603 205.267C332.644 205.513 333.596 205.92 334.458 206.489C335.319 207.047 336.011 207.81 336.532 208.776C337.062 209.741 337.327 210.949 337.327 212.398V227H332.384V224.003H332.213C331.901 224.609 331.461 225.177 330.892 225.707C330.334 226.228 329.628 226.65 328.776 226.972C327.933 227.284 326.944 227.44 325.807 227.44ZM327.142 223.662C328.175 223.662 329.069 223.458 329.827 223.051C330.585 222.634 331.167 222.085 331.574 221.403C331.991 220.722 332.199 219.978 332.199 219.173V216.602C332.038 216.735 331.764 216.858 331.375 216.972C330.997 217.085 330.57 217.185 330.097 217.27C329.623 217.355 329.155 217.431 328.691 217.497C328.227 217.563 327.824 217.62 327.483 217.668C326.716 217.772 326.03 217.942 325.424 218.179C324.818 218.416 324.339 218.747 323.989 219.173C323.639 219.59 323.463 220.13 323.463 220.793C323.463 221.74 323.809 222.455 324.5 222.938C325.192 223.42 326.072 223.662 327.142 223.662ZM342.498 205.182H347.64V228.25C347.64 229.822 347.341 231.119 346.745 232.142C346.148 233.165 345.286 233.927 344.159 234.429C343.033 234.931 341.664 235.182 340.054 235.182C339.865 235.182 339.69 235.177 339.529 235.168C339.368 235.168 339.193 235.163 339.003 235.153V230.963C339.145 230.973 339.273 230.977 339.387 230.977C339.5 230.987 339.619 230.991 339.742 230.991C340.727 230.991 341.432 230.75 341.858 230.267C342.284 229.794 342.498 229.098 342.498 228.179V205.182ZM345.054 202.085C344.23 202.085 343.525 201.815 342.938 201.276C342.36 200.726 342.071 200.068 342.071 199.301C342.071 198.525 342.36 197.866 342.938 197.327C343.525 196.777 344.23 196.503 345.054 196.503C345.869 196.503 346.565 196.777 347.142 197.327C347.73 197.866 348.023 198.525 348.023 199.301C348.023 200.068 347.73 200.726 347.142 201.276C346.565 201.815 345.869 202.085 345.054 202.085ZM359.206 227.44C357.823 227.44 356.578 227.194 355.47 226.702C354.371 226.2 353.5 225.461 352.856 224.486C352.222 223.51 351.904 222.308 351.904 220.878C351.904 219.647 352.132 218.629 352.586 217.824C353.041 217.019 353.661 216.375 354.447 215.892C355.233 215.409 356.118 215.045 357.103 214.798C358.098 214.543 359.125 214.358 360.186 214.244C361.464 214.112 362.501 213.993 363.297 213.889C364.092 213.776 364.67 213.605 365.029 213.378C365.399 213.141 365.583 212.777 365.583 212.284V212.199C365.583 211.129 365.266 210.3 364.632 209.713C363.997 209.126 363.083 208.832 361.89 208.832C360.631 208.832 359.632 209.107 358.893 209.656C358.164 210.205 357.672 210.854 357.416 211.602L352.615 210.92C352.993 209.595 353.618 208.487 354.49 207.597C355.361 206.697 356.426 206.025 357.686 205.58C358.945 205.125 360.337 204.898 361.862 204.898C362.913 204.898 363.959 205.021 365.001 205.267C366.043 205.513 366.994 205.92 367.856 206.489C368.718 207.047 369.409 207.81 369.93 208.776C370.46 209.741 370.725 210.949 370.725 212.398V227H365.782V224.003H365.612C365.299 224.609 364.859 225.177 364.291 225.707C363.732 226.228 363.027 226.65 362.174 226.972C361.332 227.284 360.342 227.44 359.206 227.44ZM360.541 223.662C361.573 223.662 362.468 223.458 363.225 223.051C363.983 222.634 364.565 222.085 364.973 221.403C365.389 220.722 365.598 219.978 365.598 219.173V216.602C365.437 216.735 365.162 216.858 364.774 216.972C364.395 217.085 363.969 217.185 363.495 217.27C363.022 217.355 362.553 217.431 362.089 217.497C361.625 217.563 361.223 217.62 360.882 217.668C360.115 217.772 359.428 217.942 358.822 218.179C358.216 218.416 357.738 218.747 357.387 219.173C357.037 219.59 356.862 220.13 356.862 220.793C356.862 221.74 357.208 222.455 357.899 222.938C358.59 223.42 359.471 223.662 360.541 223.662ZM375.896 227V205.182H380.882V208.818H381.109C381.507 207.559 382.189 206.588 383.154 205.906C384.13 205.215 385.243 204.869 386.493 204.869C386.777 204.869 387.094 204.884 387.444 204.912C387.804 204.931 388.102 204.964 388.339 205.011V209.741C388.121 209.666 387.776 209.599 387.302 209.543C386.838 209.476 386.388 209.443 385.953 209.443C385.015 209.443 384.172 209.647 383.424 210.054C382.686 210.452 382.103 211.006 381.677 211.716C381.251 212.426 381.038 213.245 381.038 214.173V227H375.896ZM391.755 227V205.182H396.897V227H391.755ZM394.341 202.085C393.526 202.085 392.825 201.815 392.238 201.276C391.651 200.726 391.358 200.068 391.358 199.301C391.358 198.525 391.651 197.866 392.238 197.327C392.825 196.777 393.526 196.503 394.341 196.503C395.164 196.503 395.865 196.777 396.443 197.327C397.03 197.866 397.324 198.525 397.324 199.301C397.324 200.068 397.03 200.726 396.443 201.276C395.865 201.815 395.164 202.085 394.341 202.085ZM220.433 274.216V287H215.29V257.909H220.319V268.889H220.575C221.086 267.658 221.877 266.687 222.947 265.977C224.026 265.258 225.399 264.898 227.066 264.898C228.581 264.898 229.902 265.215 231.029 265.849C232.156 266.484 233.027 267.412 233.643 268.634C234.268 269.855 234.58 271.347 234.58 273.108V287H229.438V273.903C229.438 272.436 229.059 271.295 228.302 270.48C227.554 269.656 226.503 269.244 225.148 269.244C224.239 269.244 223.425 269.443 222.705 269.841C221.995 270.229 221.436 270.793 221.029 271.531C220.631 272.27 220.433 273.165 220.433 274.216ZM246.1 287.44C244.718 287.44 243.472 287.194 242.364 286.702C241.266 286.2 240.395 285.461 239.751 284.486C239.116 283.51 238.799 282.308 238.799 280.878C238.799 279.647 239.026 278.629 239.481 277.824C239.935 277.019 240.556 276.375 241.342 275.892C242.128 275.409 243.013 275.045 243.998 274.798C244.992 274.543 246.02 274.358 247.08 274.244C248.359 274.112 249.396 273.993 250.191 273.889C250.987 273.776 251.564 273.605 251.924 273.378C252.293 273.141 252.478 272.777 252.478 272.284V272.199C252.478 271.129 252.161 270.3 251.526 269.713C250.892 269.126 249.978 268.832 248.785 268.832C247.525 268.832 246.526 269.107 245.788 269.656C245.058 270.205 244.566 270.854 244.31 271.602L239.509 270.92C239.888 269.595 240.513 268.487 241.384 267.597C242.255 266.697 243.321 266.025 244.58 265.58C245.84 265.125 247.232 264.898 248.756 264.898C249.808 264.898 250.854 265.021 251.896 265.267C252.937 265.513 253.889 265.92 254.751 266.489C255.612 267.047 256.304 267.81 256.825 268.776C257.355 269.741 257.62 270.949 257.62 272.398V287H252.677V284.003H252.506C252.194 284.609 251.754 285.177 251.185 285.707C250.627 286.228 249.921 286.65 249.069 286.972C248.226 287.284 247.237 287.44 246.1 287.44ZM247.435 283.662C248.468 283.662 249.362 283.458 250.12 283.051C250.878 282.634 251.46 282.085 251.867 281.403C252.284 280.722 252.492 279.978 252.492 279.173V276.602C252.331 276.735 252.057 276.858 251.668 276.972C251.29 277.085 250.863 277.185 250.39 277.27C249.916 277.355 249.448 277.431 248.984 277.497C248.52 277.563 248.117 277.62 247.776 277.668C247.009 277.772 246.323 277.942 245.717 278.179C245.111 278.416 244.632 278.747 244.282 279.173C243.932 279.59 243.756 280.13 243.756 280.793C243.756 281.74 244.102 282.455 244.793 282.938C245.485 283.42 246.365 283.662 247.435 283.662ZM262.79 287V265.182H267.776V268.818H268.004C268.401 267.559 269.083 266.588 270.049 265.906C271.024 265.215 272.137 264.869 273.387 264.869C273.671 264.869 273.988 264.884 274.339 264.912C274.699 264.931 274.997 264.964 275.234 265.011V269.741C275.016 269.666 274.67 269.599 274.197 269.543C273.733 269.476 273.283 269.443 272.847 269.443C271.91 269.443 271.067 269.647 270.319 270.054C269.58 270.452 268.998 271.006 268.572 271.716C268.146 272.426 267.933 273.245 267.933 274.173V287H262.79ZM278.65 287V265.182H283.792V287H278.65ZM281.235 262.085C280.421 262.085 279.72 261.815 279.133 261.276C278.546 260.726 278.252 260.068 278.252 259.301C278.252 258.525 278.546 257.866 279.133 257.327C279.72 256.777 280.421 256.503 281.235 256.503C282.059 256.503 282.76 256.777 283.337 257.327C283.924 257.866 284.218 258.525 284.218 259.301C284.218 260.068 283.924 260.726 283.337 261.276C282.76 261.815 282.059 262.085 281.235 262.085ZM299.001 287V265.182H304.143V287H299.001ZM301.587 262.085C300.772 262.085 300.071 261.815 299.484 261.276C298.897 260.726 298.604 260.068 298.604 259.301C298.604 258.525 298.897 257.866 299.484 257.327C300.071 256.777 300.772 256.503 301.587 256.503C302.411 256.503 303.111 256.777 303.689 257.327C304.276 257.866 304.57 258.525 304.57 259.301C304.57 260.068 304.276 260.726 303.689 261.276C303.111 261.815 302.411 262.085 301.587 262.085ZM314.573 274.216V287H309.431V265.182H314.346V268.889H314.602C315.103 267.668 315.904 266.697 317.002 265.977C318.11 265.258 319.478 264.898 321.107 264.898C322.613 264.898 323.924 265.22 325.042 265.864C326.169 266.508 327.04 267.44 327.656 268.662C328.281 269.884 328.588 271.366 328.579 273.108V287H323.437V273.903C323.437 272.445 323.058 271.304 322.3 270.48C321.552 269.656 320.515 269.244 319.19 269.244C318.29 269.244 317.49 269.443 316.789 269.841C316.098 270.229 315.553 270.793 315.156 271.531C314.767 272.27 314.573 273.165 314.573 274.216ZM333.806 287V265.182H338.948V287H333.806ZM336.391 262.085C335.577 262.085 334.876 261.815 334.289 261.276C333.702 260.726 333.408 260.068 333.408 259.301C333.408 258.525 333.702 257.866 334.289 257.327C334.876 256.777 335.577 256.503 336.391 256.503C337.215 256.503 337.916 256.777 338.494 257.327C339.081 257.866 339.374 258.525 339.374 259.301C339.374 260.068 339.081 260.726 338.494 261.276C337.916 261.815 337.215 262.085 336.391 262.085ZM349.151 278.449V278.08C349.16 276.366 349.321 275.002 349.634 273.989C349.955 272.975 350.41 272.161 350.997 271.545C351.584 270.92 352.299 270.348 353.142 269.827C353.72 269.467 354.236 269.074 354.69 268.648C355.154 268.212 355.519 267.729 355.784 267.199C356.049 266.659 356.182 266.058 356.182 265.395C356.182 264.647 356.007 263.998 355.656 263.449C355.306 262.9 354.832 262.473 354.236 262.17C353.649 261.867 352.991 261.716 352.261 261.716C351.589 261.716 350.95 261.863 350.344 262.156C349.747 262.44 349.25 262.876 348.852 263.463C348.464 264.041 348.246 264.775 348.199 265.665H343.142C343.189 263.866 343.625 262.36 344.449 261.148C345.282 259.936 346.381 259.027 347.744 258.42C349.117 257.814 350.633 257.511 352.29 257.511C354.098 257.511 355.689 257.829 357.062 258.463C358.445 259.098 359.52 260.002 360.287 261.176C361.063 262.341 361.452 263.723 361.452 265.324C361.452 266.403 361.277 267.369 360.926 268.222C360.585 269.074 360.098 269.831 359.463 270.494C358.829 271.157 358.076 271.749 357.205 272.27C356.438 272.743 355.808 273.236 355.315 273.747C354.832 274.259 354.473 274.86 354.236 275.551C354.009 276.233 353.89 277.076 353.881 278.08V278.449H349.151ZM351.622 287.312C350.77 287.312 350.036 287.009 349.42 286.403C348.805 285.797 348.497 285.059 348.497 284.188C348.497 283.335 348.805 282.606 349.42 282C350.036 281.394 350.77 281.091 351.622 281.091C352.465 281.091 353.194 281.394 353.81 282C354.435 282.606 354.747 283.335 354.747 284.188C354.747 284.765 354.6 285.291 354.307 285.764C354.023 286.238 353.644 286.616 353.17 286.901C352.706 287.175 352.19 287.312 351.622 287.312Z" fill="black"/>
</svg>
