<svg width="507" height="323" viewBox="0 0 507 323" fill="none" xmlns="http://www.w3.org/2000/svg">
<path d="M506.629 161.5C506.629 250.694 393.989 323 255.041 323C116.092 323 3.45241 250.694 3.45241 161.5C3.45241 132.405 15.4376 105.108 36.4116 81.5305C40.4759 76.9618 -4.36933 31.6084 0.348222 27.3331C3.8403 24.1683 76.0315 47.7175 79.8607 44.7268C126.003 8.68992 176.701 0 255.041 0C393.989 0 506.629 72.306 506.629 161.5Z" fill="white"/>
<path d="M60.3871 177.756H54.5986L67.6051 141.613H73.9054L86.9119 177.756H81.1234L70.9053 148.178H70.6229L60.3871 177.756ZM61.3577 163.603H80.1351V168.191H61.3577V163.603ZM85.6545 141.613H91.8489L101.291 158.044H101.679L111.12 141.613H117.315L104.202 163.567V177.756H98.7669V163.567L85.6545 141.613ZM152.015 159.685C152.015 163.544 151.309 166.862 149.897 169.638C148.485 172.403 146.55 174.533 144.091 176.027C141.644 177.509 138.861 178.25 135.744 178.25C132.614 178.25 129.82 177.509 127.361 176.027C124.914 174.533 122.984 172.397 121.572 169.621C120.161 166.844 119.455 163.532 119.455 159.685C119.455 155.826 120.161 152.514 121.572 149.749C122.984 146.973 124.914 144.843 127.361 143.361C129.82 141.866 132.614 141.119 135.744 141.119C138.861 141.119 141.644 141.866 144.091 143.361C146.55 144.843 148.485 146.973 149.897 149.749C151.309 152.514 152.015 155.826 152.015 159.685ZM146.615 159.685C146.615 156.744 146.138 154.267 145.185 152.255C144.244 150.232 142.95 148.702 141.303 147.667C139.667 146.62 137.814 146.096 135.744 146.096C133.661 146.096 131.802 146.62 130.167 147.667C128.532 148.702 127.237 150.232 126.284 152.255C125.343 154.267 124.873 156.744 124.873 159.685C124.873 162.626 125.343 165.109 126.284 167.132C127.237 169.144 128.532 170.674 130.167 171.721C131.802 172.756 133.661 173.274 135.744 173.274C137.814 173.274 139.667 172.756 141.303 171.721C142.95 170.674 144.244 169.144 145.185 167.132C146.138 165.109 146.615 162.626 146.615 159.685ZM171.966 177.756V141.613H185.202C187.767 141.613 189.89 142.037 191.573 142.884C193.255 143.719 194.514 144.855 195.349 146.29C196.185 147.714 196.602 149.32 196.602 151.108C196.602 152.614 196.326 153.885 195.773 154.92C195.22 155.944 194.479 156.767 193.549 157.391C192.632 158.002 191.62 158.45 190.514 158.732V159.085C191.714 159.144 192.885 159.532 194.026 160.25C195.179 160.956 196.132 161.961 196.885 163.267C197.638 164.573 198.014 166.162 198.014 168.032C198.014 169.88 197.579 171.538 196.708 173.009C195.849 174.468 194.52 175.627 192.72 176.486C190.92 177.333 188.62 177.756 185.82 177.756H171.966ZM177.419 173.08H185.29C187.902 173.08 189.773 172.574 190.902 171.562C192.032 170.55 192.596 169.285 192.596 167.768C192.596 166.626 192.308 165.579 191.732 164.626C191.155 163.673 190.332 162.914 189.261 162.35C188.202 161.785 186.943 161.503 185.484 161.503H177.419V173.08ZM177.419 157.249H184.725C185.949 157.249 187.049 157.014 188.026 156.544C189.014 156.073 189.796 155.414 190.373 154.567C190.961 153.708 191.255 152.696 191.255 151.532C191.255 150.037 190.732 148.784 189.684 147.773C188.637 146.761 187.031 146.255 184.867 146.255H177.419V157.249ZM204.482 177.756V141.613H227.142V146.308H209.935V157.32H225.96V161.997H209.935V173.062H227.354V177.756H204.482ZM234.426 177.756V141.613H247.309C250.109 141.613 252.433 142.096 254.28 143.061C256.139 144.025 257.527 145.361 258.445 147.067C259.363 148.761 259.822 150.72 259.822 152.943C259.822 155.155 259.357 157.102 258.427 158.785C257.51 160.456 256.121 161.756 254.263 162.685C252.415 163.614 250.092 164.079 247.292 164.079H237.532V159.385H246.797C248.562 159.385 249.998 159.132 251.104 158.626C252.221 158.12 253.039 157.385 253.557 156.42C254.074 155.455 254.333 154.296 254.333 152.943C254.333 151.579 254.068 150.396 253.539 149.396C253.021 148.396 252.204 147.631 251.086 147.102C249.98 146.561 248.527 146.29 246.727 146.29H239.879V177.756H234.426ZM252.268 161.45L261.198 177.756H254.986L246.233 161.45H252.268ZM278.158 177.756H266.457V141.613H278.528C282.07 141.613 285.111 142.337 287.652 143.784C290.194 145.22 292.141 147.284 293.494 149.979C294.859 152.661 295.541 155.879 295.541 159.632C295.541 163.397 294.853 166.632 293.476 169.338C292.111 172.044 290.135 174.127 287.546 175.586C284.958 177.033 281.829 177.756 278.158 177.756ZM271.91 172.991H277.858C280.611 172.991 282.899 172.474 284.723 171.438C286.546 170.391 287.911 168.879 288.817 166.903C289.723 164.915 290.176 162.491 290.176 159.632C290.176 156.797 289.723 154.391 288.817 152.414C287.923 150.437 286.588 148.937 284.811 147.914C283.034 146.89 280.828 146.378 278.193 146.378H271.91V172.991ZM307.775 141.613V177.756H302.322V141.613H307.775ZM335.43 151.108C335.241 149.437 334.465 148.143 333.1 147.225C331.735 146.296 330.018 145.831 327.947 145.831C326.464 145.831 325.182 146.067 324.1 146.537C323.017 146.996 322.176 147.631 321.576 148.443C320.988 149.243 320.694 150.155 320.694 151.179C320.694 152.037 320.894 152.779 321.294 153.402C321.705 154.026 322.241 154.549 322.9 154.973C323.57 155.385 324.288 155.732 325.053 156.014C325.817 156.285 326.553 156.508 327.259 156.685L330.788 157.602C331.941 157.885 333.124 158.267 334.335 158.75C335.547 159.232 336.671 159.867 337.706 160.656C338.742 161.444 339.577 162.42 340.212 163.585C340.859 164.75 341.183 166.144 341.183 167.768C341.183 169.815 340.653 171.633 339.595 173.221C338.547 174.809 337.024 176.062 335.024 176.98C333.035 177.898 330.629 178.356 327.806 178.356C325.1 178.356 322.758 177.927 320.782 177.068C318.805 176.209 317.258 174.992 316.14 173.415C315.023 171.827 314.405 169.944 314.287 167.768H319.758C319.864 169.074 320.288 170.162 321.029 171.032C321.782 171.891 322.741 172.533 323.906 172.956C325.082 173.368 326.37 173.574 327.77 173.574C329.312 173.574 330.682 173.333 331.882 172.85C333.094 172.356 334.047 171.674 334.741 170.803C335.435 169.921 335.783 168.891 335.783 167.715C335.783 166.644 335.477 165.768 334.865 165.085C334.265 164.403 333.447 163.838 332.412 163.391C331.388 162.944 330.229 162.55 328.935 162.209L324.664 161.044C321.77 160.256 319.476 159.097 317.782 157.567C316.099 156.038 315.258 154.014 315.258 151.496C315.258 149.414 315.823 147.596 316.952 146.043C318.082 144.49 319.611 143.284 321.541 142.425C323.47 141.555 325.647 141.119 328.07 141.119C330.518 141.119 332.677 141.549 334.547 142.408C336.43 143.266 337.912 144.449 338.994 145.955C340.077 147.449 340.642 149.167 340.689 151.108H335.43ZM347.699 177.756V141.613H353.152V158.873H353.594L368.753 141.613H375.618L361.041 157.885L375.671 177.756H369.106L357.423 161.609L353.152 166.515V177.756H347.699ZM403.943 141.613H409.414V165.385C409.414 167.915 408.82 170.156 407.632 172.109C406.443 174.05 404.773 175.58 402.62 176.697C400.467 177.803 397.943 178.356 395.049 178.356C392.166 178.356 389.648 177.803 387.495 176.697C385.342 175.58 383.672 174.05 382.483 172.109C381.295 170.156 380.701 167.915 380.701 165.385V141.613H386.154V164.944C386.154 166.579 386.513 168.032 387.231 169.303C387.96 170.574 388.99 171.574 390.319 172.303C391.648 173.021 393.225 173.38 395.049 173.38C396.884 173.38 398.466 173.021 399.796 172.303C401.137 171.574 402.161 170.574 402.867 169.303C403.584 168.032 403.943 166.579 403.943 164.944V141.613ZM437.055 151.108C436.867 149.437 436.09 148.143 434.726 147.225C433.361 146.296 431.643 145.831 429.572 145.831C428.09 145.831 426.807 146.067 425.725 146.537C424.643 146.996 423.801 147.631 423.201 148.443C422.613 149.243 422.319 150.155 422.319 151.179C422.319 152.037 422.519 152.779 422.919 153.402C423.331 154.026 423.866 154.549 424.525 154.973C425.196 155.385 425.913 155.732 426.678 156.014C427.443 156.285 428.178 156.508 428.884 156.685L432.414 157.602C433.567 157.885 434.749 158.267 435.961 158.75C437.173 159.232 438.296 159.867 439.332 160.656C440.367 161.444 441.202 162.42 441.838 163.585C442.485 164.75 442.808 166.144 442.808 167.768C442.808 169.815 442.279 171.633 441.22 173.221C440.173 174.809 438.649 176.062 436.649 176.98C434.661 177.898 432.255 178.356 429.431 178.356C426.725 178.356 424.384 177.927 422.407 177.068C420.431 176.209 418.884 174.992 417.766 173.415C416.648 171.827 416.031 169.944 415.913 167.768H421.384C421.49 169.074 421.913 170.162 422.654 171.032C423.407 171.891 424.366 172.533 425.531 172.956C426.707 173.368 427.996 173.574 429.396 173.574C430.937 173.574 432.308 173.333 433.508 172.85C434.72 172.356 435.673 171.674 436.367 170.803C437.061 169.921 437.408 168.891 437.408 167.715C437.408 166.644 437.102 165.768 436.49 165.085C435.89 164.403 435.073 163.838 434.037 163.391C433.014 162.944 431.855 162.55 430.561 162.209L426.29 161.044C423.396 160.256 421.101 159.097 419.407 157.567C417.725 156.038 416.883 154.014 416.883 151.496C416.883 149.414 417.448 147.596 418.578 146.043C419.707 144.49 421.237 143.284 423.166 142.425C425.096 141.555 427.272 141.119 429.696 141.119C432.143 141.119 434.302 141.549 436.173 142.408C438.055 143.266 439.538 144.449 440.62 145.955C441.702 147.449 442.267 149.167 442.314 151.108H437.055ZM454.778 141.613V177.756H449.325V141.613H454.778Z" fill="black"/>
</svg>
