<svg width="264" height="246" viewBox="0 0 264 246" fill="none" xmlns="http://www.w3.org/2000/svg">
<path d="M264 111.696C264 173.383 193.56 223.029 120.659 223.029C109.801 223.029 102.086 247.967 91.9905 245.875C80.5116 243.497 89.4693 218.695 79.389 213.962C38.8076 194.908 0 153.75 0 111.696C0 50.0078 59.0984 0 132 0C204.902 0 264 50.0078 264 111.696Z" fill="white"/>
<path d="M61.7536 61V43.5455H64.3871V51.8807H64.6001L71.9212 43.5455H75.2365L68.1967 51.4034L75.2621 61H72.0916L66.4496 53.2017L64.3871 55.571V61H61.7536ZM82.1676 61.2642C80.8778 61.2642 79.767 60.9886 78.8352 60.4375C77.9091 59.8807 77.1932 59.0994 76.6875 58.0938C76.1875 57.0824 75.9375 55.8977 75.9375 54.5398C75.9375 53.1989 76.1875 52.017 76.6875 50.9943C77.1932 49.9716 77.8977 49.1733 78.8011 48.5994C79.7102 48.0256 80.7727 47.7386 81.9886 47.7386C82.7273 47.7386 83.4432 47.8608 84.1364 48.1051C84.8295 48.3494 85.4517 48.733 86.0028 49.2557C86.554 49.7784 86.9886 50.4574 87.3068 51.2926C87.625 52.1222 87.7841 53.1307 87.7841 54.3182V55.2216H77.3778V53.3125H85.2869C85.2869 52.642 85.1506 52.0483 84.8778 51.5312C84.6051 51.0085 84.2216 50.5966 83.7273 50.2955C83.2386 49.9943 82.6648 49.8438 82.0057 49.8438C81.2898 49.8438 80.6648 50.0199 80.1307 50.3722C79.6023 50.7187 79.1932 51.1733 78.9034 51.7358C78.6193 52.2926 78.4773 52.8977 78.4773 53.5511V55.0426C78.4773 55.9176 78.6307 56.6619 78.9375 57.2756C79.25 57.8892 79.6847 58.358 80.2415 58.6818C80.7983 59 81.4489 59.1591 82.1932 59.1591C82.6761 59.1591 83.1165 59.0909 83.5142 58.9545C83.9119 58.8125 84.2557 58.6023 84.5455 58.3239C84.8352 58.0455 85.0568 57.7017 85.2102 57.2926L87.6222 57.7273C87.429 58.4375 87.0824 59.0597 86.5824 59.5938C86.0881 60.1222 85.4659 60.5341 84.7159 60.8295C83.9716 61.1193 83.1222 61.2642 82.1676 61.2642ZM96.7223 47.9091V49.9545H89.5717V47.9091H96.7223ZM91.4893 44.7727H94.0376V57.1562C94.0376 57.6506 94.1115 58.0227 94.2592 58.2727C94.407 58.517 94.5973 58.6847 94.8303 58.7756C95.0689 58.8608 95.3274 58.9034 95.6058 58.9034C95.8104 58.9034 95.9893 58.8892 96.1428 58.8608C96.2962 58.8324 96.4155 58.8097 96.5007 58.7926L96.9609 60.8977C96.8132 60.9545 96.603 61.0114 96.3303 61.0682C96.0575 61.1307 95.7166 61.1648 95.3075 61.1705C94.6371 61.1818 94.0121 61.0625 93.4325 60.8125C92.853 60.5625 92.3842 60.1761 92.0263 59.6534C91.6683 59.1307 91.4893 58.4744 91.4893 57.6847V44.7727ZM99.5412 61V47.9091H102.089V61H99.5412ZM100.828 45.8892C100.385 45.8892 100.004 45.7415 99.6861 45.446C99.3736 45.1449 99.2173 44.7869 99.2173 44.3722C99.2173 43.9517 99.3736 43.5937 99.6861 43.2983C100.004 42.9972 100.385 42.8466 100.828 42.8466C101.271 42.8466 101.649 42.9972 101.962 43.2983C102.28 43.5937 102.439 43.9517 102.439 44.3722C102.439 44.7869 102.28 45.1449 101.962 45.446C101.649 45.7415 101.271 45.8892 100.828 45.8892ZM107.862 56.5597L107.844 53.4489H108.288L113.504 47.9091H116.555L110.606 54.2159H110.205L107.862 56.5597ZM105.518 61V43.5455H108.066V61H105.518ZM113.785 61L109.097 54.7784L110.853 52.9972L116.913 61H113.785ZM122.687 61.2898C121.857 61.2898 121.107 61.1364 120.437 60.8295C119.766 60.517 119.235 60.0653 118.843 59.4744C118.457 58.8835 118.263 58.1591 118.263 57.3011C118.263 56.5625 118.406 55.9545 118.69 55.4773C118.974 55 119.357 54.6222 119.84 54.3438C120.323 54.0653 120.863 53.8551 121.46 53.7131C122.056 53.571 122.664 53.4631 123.283 53.3892C124.067 53.2983 124.704 53.2244 125.192 53.1676C125.681 53.1051 126.036 53.0057 126.258 52.8693C126.479 52.733 126.59 52.5114 126.59 52.2045V52.1449C126.59 51.4006 126.38 50.8239 125.96 50.4148C125.545 50.0057 124.925 49.8011 124.102 49.8011C123.244 49.8011 122.567 49.9915 122.073 50.3722C121.585 50.7472 121.246 51.1648 121.059 51.625L118.664 51.0795C118.948 50.2841 119.363 49.642 119.908 49.1534C120.46 48.6591 121.093 48.3011 121.809 48.0795C122.525 47.8523 123.278 47.7386 124.067 47.7386C124.59 47.7386 125.144 47.8011 125.729 47.9261C126.32 48.0455 126.871 48.267 127.383 48.5909C127.9 48.9148 128.323 49.3778 128.653 49.9801C128.982 50.5767 129.147 51.3523 129.147 52.3068V61H126.658V59.2102H126.556C126.391 59.5398 126.144 59.8636 125.815 60.1818C125.485 60.5 125.062 60.7642 124.545 60.9744C124.028 61.1847 123.408 61.2898 122.687 61.2898ZM123.241 59.2443C123.945 59.2443 124.548 59.1051 125.048 58.8267C125.553 58.5483 125.937 58.1847 126.198 57.7358C126.465 57.2812 126.599 56.7955 126.599 56.2784V54.5909C126.508 54.6818 126.332 54.767 126.07 54.8466C125.815 54.9205 125.522 54.9858 125.192 55.0426C124.863 55.0937 124.542 55.142 124.229 55.1875C123.917 55.2273 123.656 55.2614 123.445 55.2898C122.951 55.3523 122.499 55.4574 122.09 55.6051C121.687 55.7528 121.363 55.9659 121.119 56.2443C120.88 56.517 120.761 56.8807 120.761 57.3352C120.761 57.9659 120.994 58.4432 121.46 58.767C121.925 59.0852 122.519 59.2443 123.241 59.2443ZM141.237 56.5597L141.219 53.4489H141.663L146.879 47.9091H149.93L143.981 54.2159H143.58L141.237 56.5597ZM138.893 61V43.5455H141.441V61H138.893ZM147.16 61L142.472 54.7784L144.228 52.9972L150.288 61H147.16ZM156.062 61.2898C155.232 61.2898 154.482 61.1364 153.812 60.8295C153.141 60.517 152.61 60.0653 152.218 59.4744C151.832 58.8835 151.638 58.1591 151.638 57.3011C151.638 56.5625 151.781 55.9545 152.065 55.4773C152.349 55 152.732 54.6222 153.215 54.3438C153.698 54.0653 154.238 53.8551 154.835 53.7131C155.431 53.571 156.039 53.4631 156.658 53.3892C157.442 53.2983 158.079 53.2244 158.567 53.1676C159.056 53.1051 159.411 53.0057 159.633 52.8693C159.854 52.733 159.965 52.5114 159.965 52.2045V52.1449C159.965 51.4006 159.755 50.8239 159.335 50.4148C158.92 50.0057 158.3 49.8011 157.477 49.8011C156.619 49.8011 155.942 49.9915 155.448 50.3722C154.96 50.7472 154.621 51.1648 154.434 51.625L152.039 51.0795C152.323 50.2841 152.738 49.642 153.283 49.1534C153.835 48.6591 154.468 48.3011 155.184 48.0795C155.9 47.8523 156.653 47.7386 157.442 47.7386C157.965 47.7386 158.519 47.8011 159.104 47.9261C159.695 48.0455 160.246 48.267 160.758 48.5909C161.275 48.9148 161.698 49.3778 162.028 49.9801C162.357 50.5767 162.522 51.3523 162.522 52.3068V61H160.033V59.2102H159.931C159.766 59.5398 159.519 59.8636 159.19 60.1818C158.86 60.5 158.437 60.7642 157.92 60.9744C157.403 61.1847 156.783 61.2898 156.062 61.2898ZM156.616 59.2443C157.32 59.2443 157.923 59.1051 158.423 58.8267C158.928 58.5483 159.312 58.1847 159.573 57.7358C159.84 57.2812 159.974 56.7955 159.974 56.2784V54.5909C159.883 54.6818 159.707 54.767 159.445 54.8466C159.19 54.9205 158.897 54.9858 158.567 55.0426C158.238 55.0937 157.917 55.142 157.604 55.1875C157.292 55.2273 157.031 55.2614 156.82 55.2898C156.326 55.3523 155.874 55.4574 155.465 55.6051C155.062 55.7528 154.738 55.9659 154.494 56.2443C154.255 56.517 154.136 56.8807 154.136 57.3352C154.136 57.9659 154.369 58.4432 154.835 58.767C155.3 59.0852 155.894 59.2443 156.616 59.2443ZM168.464 43.5455V61H165.916V43.5455H168.464ZM171.893 61V47.9091H174.441V61H171.893ZM173.18 45.8892C172.737 45.8892 172.356 45.7415 172.038 45.446C171.725 45.1449 171.569 44.7869 171.569 44.3722C171.569 43.9517 171.725 43.5937 172.038 43.2983C172.356 42.9972 172.737 42.8466 173.18 42.8466C173.623 42.8466 174.001 42.9972 174.313 43.2983C174.631 43.5937 174.79 43.9517 174.79 44.3722C174.79 44.7869 174.631 45.1449 174.313 45.446C174.001 45.7415 173.623 45.8892 173.18 45.8892ZM181.679 61.2898C180.849 61.2898 180.099 61.1364 179.429 60.8295C178.759 60.517 178.227 60.0653 177.835 59.4744C177.449 58.8835 177.256 58.1591 177.256 57.3011C177.256 56.5625 177.398 55.9545 177.682 55.4773C177.966 55 178.349 54.6222 178.832 54.3438C179.315 54.0653 179.855 53.8551 180.452 53.7131C181.048 53.571 181.656 53.4631 182.276 53.3892C183.06 53.2983 183.696 53.2244 184.185 53.1676C184.673 53.1051 185.028 53.0057 185.25 52.8693C185.472 52.733 185.582 52.5114 185.582 52.2045V52.1449C185.582 51.4006 185.372 50.8239 184.952 50.4148C184.537 50.0057 183.918 49.8011 183.094 49.8011C182.236 49.8011 181.56 49.9915 181.065 50.3722C180.577 50.7472 180.239 51.1648 180.051 51.625L177.656 51.0795C177.94 50.2841 178.355 49.642 178.901 49.1534C179.452 48.6591 180.085 48.3011 180.801 48.0795C181.517 47.8523 182.27 47.7386 183.06 47.7386C183.582 47.7386 184.136 47.8011 184.722 47.9261C185.313 48.0455 185.864 48.267 186.375 48.5909C186.892 48.9148 187.315 49.3778 187.645 49.9801C187.974 50.5767 188.139 51.3523 188.139 52.3068V61H185.651V59.2102H185.548C185.384 59.5398 185.136 59.8636 184.807 60.1818C184.477 60.5 184.054 60.7642 183.537 60.9744C183.02 61.1847 182.401 61.2898 181.679 61.2898ZM182.233 59.2443C182.938 59.2443 183.54 59.1051 184.04 58.8267C184.545 58.5483 184.929 58.1847 185.19 57.7358C185.457 57.2812 185.591 56.7955 185.591 56.2784V54.5909C185.5 54.6818 185.324 54.767 185.062 54.8466C184.807 54.9205 184.514 54.9858 184.185 55.0426C183.855 55.0937 183.534 55.142 183.222 55.1875C182.909 55.2273 182.648 55.2614 182.438 55.2898C181.943 55.3523 181.491 55.4574 181.082 55.6051C180.679 55.7528 180.355 55.9659 180.111 56.2443C179.872 56.517 179.753 56.8807 179.753 57.3352C179.753 57.9659 179.986 58.4432 180.452 58.767C180.918 59.0852 181.511 59.2443 182.233 59.2443ZM194.082 53.2273V61H191.533V47.9091H193.979V50.0398H194.141C194.442 49.3466 194.914 48.7898 195.556 48.3693C196.204 47.9489 197.019 47.7386 198.002 47.7386C198.894 47.7386 199.675 47.9261 200.346 48.3011C201.016 48.6705 201.536 49.2216 201.906 49.9545C202.275 50.6875 202.46 51.5937 202.46 52.6733V61H199.911V52.9801C199.911 52.0312 199.664 51.2898 199.17 50.7557C198.675 50.2159 197.996 49.946 197.133 49.946C196.542 49.946 196.016 50.0739 195.556 50.3295C195.102 50.5852 194.741 50.9602 194.474 51.4545C194.212 51.9432 194.082 52.5341 194.082 53.2273ZM46.679 87.1051L44.3693 87.5142C44.2727 87.2187 44.1193 86.9375 43.9091 86.6705C43.7045 86.4034 43.4261 86.1847 43.0739 86.0142C42.7216 85.8437 42.2813 85.7585 41.7528 85.7585C41.0313 85.7585 40.429 85.9205 39.946 86.2443C39.4631 86.5625 39.2216 86.9744 39.2216 87.4801C39.2216 87.9176 39.3835 88.2699 39.7074 88.5369C40.0313 88.804 40.554 89.0227 41.2756 89.1932L43.3551 89.6705C44.5597 89.9489 45.4574 90.3778 46.0483 90.9574C46.6392 91.5369 46.9347 92.2898 46.9347 93.2159C46.9347 94 46.7074 94.6989 46.2528 95.3125C45.804 95.9205 45.1761 96.3977 44.3693 96.7443C43.5682 97.0909 42.6392 97.2642 41.5824 97.2642C40.1165 97.2642 38.9205 96.9517 37.9943 96.3267C37.0682 95.696 36.5 94.8011 36.2898 93.642L38.7528 93.267C38.9063 93.9091 39.2216 94.3949 39.6989 94.7244C40.1761 95.0483 40.7983 95.2102 41.5653 95.2102C42.4006 95.2102 43.0682 95.0369 43.5682 94.6903C44.0682 94.3381 44.3182 93.9091 44.3182 93.4034C44.3182 92.9943 44.1648 92.6506 43.858 92.3722C43.5568 92.0937 43.0938 91.8835 42.4688 91.7415L40.2528 91.2557C39.0313 90.9773 38.1278 90.5341 37.5426 89.9261C36.9631 89.3182 36.6733 88.5483 36.6733 87.6165C36.6733 86.8437 36.8892 86.1676 37.321 85.5881C37.7528 85.0085 38.3494 84.5568 39.1108 84.233C39.8722 83.9034 40.7443 83.7386 41.7273 83.7386C43.142 83.7386 44.2557 84.0455 45.0682 84.6591C45.8807 85.267 46.4176 86.0824 46.679 87.1051ZM55.3786 97.2642C54.0888 97.2642 52.978 96.9886 52.0462 96.4375C51.12 95.8807 50.4041 95.0994 49.8984 94.0938C49.3984 93.0824 49.1484 91.8977 49.1484 90.5398C49.1484 89.1989 49.3984 88.017 49.8984 86.9943C50.4041 85.9716 51.1087 85.1733 52.0121 84.5994C52.9212 84.0256 53.9837 83.7386 55.1996 83.7386C55.9382 83.7386 56.6541 83.8608 57.3473 84.1051C58.0405 84.3494 58.6626 84.733 59.2138 85.2557C59.7649 85.7784 60.1996 86.4574 60.5178 87.2926C60.8359 88.1222 60.995 89.1307 60.995 90.3182V91.2216H50.5888V89.3125H58.4979C58.4979 88.642 58.3615 88.0483 58.0888 87.5312C57.8161 87.0085 57.4325 86.5966 56.9382 86.2955C56.4496 85.9943 55.8757 85.8438 55.2166 85.8438C54.5007 85.8438 53.8757 86.0199 53.3416 86.3722C52.8132 86.7187 52.4041 87.1733 52.1143 87.7358C51.8303 88.2926 51.6882 88.8977 51.6882 89.5511V91.0426C51.6882 91.9176 51.8416 92.6619 52.1484 93.2756C52.4609 93.8892 52.8956 94.358 53.4524 94.6818C54.0092 95 54.6598 95.1591 55.4041 95.1591C55.8871 95.1591 56.3274 95.0909 56.7251 94.9545C57.1229 94.8125 57.4666 94.6023 57.7564 94.3239C58.0462 94.0455 58.2678 93.7017 58.4212 93.2926L60.8331 93.7273C60.6399 94.4375 60.2933 95.0597 59.7933 95.5938C59.299 96.1222 58.6768 96.5341 57.9268 96.8295C57.1825 97.1193 56.3331 97.2642 55.3786 97.2642ZM66.3707 89.2273V97H63.8224V83.9091H66.2685V86.0398H66.4304C66.7315 85.3466 67.2031 84.7898 67.8452 84.3693C68.4929 83.9489 69.3082 83.7386 70.2912 83.7386C71.1832 83.7386 71.9645 83.9261 72.6349 84.3011C73.3054 84.6705 73.8253 85.2216 74.1946 85.9545C74.5639 86.6875 74.7486 87.5937 74.7486 88.6733V97H72.2003V88.9801C72.2003 88.0312 71.9531 87.2898 71.4588 86.7557C70.9645 86.2159 70.2855 85.946 69.4219 85.946C68.831 85.946 68.3054 86.0739 67.8452 86.3295C67.3906 86.5852 67.0298 86.9602 66.7628 87.4545C66.5014 87.9432 66.3707 88.5341 66.3707 89.2273ZM81.9759 97.2898C81.1463 97.2898 80.3963 97.1364 79.7259 96.8295C79.0554 96.517 78.5241 96.0653 78.1321 95.4744C77.7457 94.8835 77.5526 94.1591 77.5526 93.3011C77.5526 92.5625 77.6946 91.9545 77.9787 91.4773C78.2628 91 78.6463 90.6222 79.1293 90.3438C79.6122 90.0653 80.152 89.8551 80.7486 89.7131C81.3452 89.571 81.9531 89.4631 82.5724 89.3892C83.3565 89.2983 83.9929 89.2244 84.4815 89.1676C84.9702 89.1051 85.3253 89.0057 85.5469 88.8693C85.7685 88.733 85.8793 88.5114 85.8793 88.2045V88.1449C85.8793 87.4006 85.669 86.8239 85.2486 86.4148C84.8338 86.0057 84.2145 85.8011 83.3906 85.8011C82.5327 85.8011 81.8565 85.9915 81.3622 86.3722C80.8736 86.7472 80.5355 87.1648 80.348 87.625L77.9531 87.0795C78.2372 86.2841 78.652 85.642 79.1974 85.1534C79.7486 84.6591 80.3821 84.3011 81.098 84.0795C81.8139 83.8523 82.5668 83.7386 83.3565 83.7386C83.8793 83.7386 84.4332 83.8011 85.0185 83.9261C85.6094 84.0455 86.1605 84.267 86.6719 84.5909C87.1889 84.9148 87.6122 85.3778 87.9418 85.9801C88.2713 86.5767 88.4361 87.3523 88.4361 88.3068V97H85.9474V95.2102H85.8452C85.6804 95.5398 85.4332 95.8636 85.1037 96.1818C84.7741 96.5 84.3509 96.7642 83.8338 96.9744C83.3168 97.1847 82.6974 97.2898 81.9759 97.2898ZM82.5298 95.2443C83.2344 95.2443 83.8366 95.1051 84.3366 94.8267C84.8423 94.5483 85.2259 94.1847 85.4872 93.7358C85.7543 93.2812 85.8878 92.7955 85.8878 92.2784V90.5909C85.7969 90.6818 85.6207 90.767 85.3594 90.8466C85.1037 90.9205 84.8111 90.9858 84.4815 91.0426C84.152 91.0937 83.831 91.142 83.5185 91.1875C83.206 91.2273 82.9446 91.2614 82.7344 91.2898C82.2401 91.3523 81.7884 91.4574 81.3793 91.6051C80.9759 91.7528 80.652 91.9659 80.4077 92.2443C80.169 92.517 80.0497 92.8807 80.0497 93.3352C80.0497 93.9659 80.2827 94.4432 80.7486 94.767C81.2145 95.0852 81.8082 95.2443 82.5298 95.2443ZM91.8303 97V83.9091H94.2763V86.0398H94.4382C94.7109 85.3182 95.157 84.7557 95.7763 84.3523C96.3956 83.9432 97.1371 83.7386 98.0007 83.7386C98.8757 83.7386 99.6087 83.9432 100.2 84.3523C100.796 84.7614 101.237 85.3239 101.521 86.0398H101.657C101.969 85.3409 102.467 84.7841 103.148 84.3693C103.83 83.9489 104.643 83.7386 105.586 83.7386C106.773 83.7386 107.742 84.1108 108.492 84.8551C109.248 85.5994 109.626 86.7216 109.626 88.2216V97H107.077V88.4602C107.077 87.5739 106.836 86.9318 106.353 86.5341C105.87 86.1364 105.293 85.9375 104.623 85.9375C103.793 85.9375 103.148 86.1932 102.688 86.7045C102.228 87.2102 101.998 87.8608 101.998 88.6562V97H99.4581V88.2983C99.4581 87.5881 99.2365 87.017 98.7933 86.5852C98.3501 86.1534 97.7734 85.9375 97.0632 85.9375C96.5803 85.9375 96.1342 86.0653 95.7251 86.321C95.3217 86.571 94.995 86.9205 94.745 87.3693C94.5007 87.8182 94.3786 88.3381 94.3786 88.929V97H91.8303ZM116.357 94.6136L116.229 95.5426C116.143 96.2244 115.999 96.9347 115.794 97.6733C115.595 98.4176 115.388 99.108 115.172 99.7443C114.962 100.381 114.788 100.886 114.652 101.261H112.845C112.919 100.909 113.021 100.432 113.152 99.8295C113.283 99.233 113.411 98.5653 113.536 97.8267C113.661 97.0881 113.754 96.3352 113.817 95.5682L113.902 94.6136H116.357ZM129.835 97.2898C129.006 97.2898 128.256 97.1364 127.585 96.8295C126.915 96.517 126.384 96.0653 125.991 95.4744C125.605 94.8835 125.412 94.1591 125.412 93.3011C125.412 92.5625 125.554 91.9545 125.838 91.4773C126.122 91 126.506 90.6222 126.989 90.3438C127.472 90.0653 128.011 89.8551 128.608 89.7131C129.205 89.571 129.813 89.4631 130.432 89.3892C131.216 89.2983 131.852 89.2244 132.341 89.1676C132.83 89.1051 133.185 89.0057 133.406 88.8693C133.628 88.733 133.739 88.5114 133.739 88.2045V88.1449C133.739 87.4006 133.528 86.8239 133.108 86.4148C132.693 86.0057 132.074 85.8011 131.25 85.8011C130.392 85.8011 129.716 85.9915 129.222 86.3722C128.733 86.7472 128.395 87.1648 128.207 87.625L125.812 87.0795C126.097 86.2841 126.511 85.642 127.057 85.1534C127.608 84.6591 128.241 84.3011 128.957 84.0795C129.673 83.8523 130.426 83.7386 131.216 83.7386C131.739 83.7386 132.293 83.8011 132.878 83.9261C133.469 84.0455 134.02 84.267 134.531 84.5909C135.048 84.9148 135.472 85.3778 135.801 85.9801C136.131 86.5767 136.295 87.3523 136.295 88.3068V97H133.807V95.2102H133.705C133.54 95.5398 133.293 95.8636 132.963 96.1818C132.634 96.5 132.21 96.7642 131.693 96.9744C131.176 97.1847 130.557 97.2898 129.835 97.2898ZM130.389 95.2443C131.094 95.2443 131.696 95.1051 132.196 94.8267C132.702 94.5483 133.085 94.1847 133.347 93.7358C133.614 93.2812 133.747 92.7955 133.747 92.2784V90.5909C133.656 90.6818 133.48 90.767 133.219 90.8466C132.963 90.9205 132.67 90.9858 132.341 91.0426C132.011 91.0937 131.69 91.142 131.378 91.1875C131.065 91.2273 130.804 91.2614 130.594 91.2898C130.099 91.3523 129.648 91.4574 129.239 91.6051C128.835 91.7528 128.511 91.9659 128.267 92.2443C128.028 92.517 127.909 92.8807 127.909 93.3352C127.909 93.9659 128.142 94.4432 128.608 94.767C129.074 95.0852 129.668 95.2443 130.389 95.2443ZM139.69 101.909V83.9091H142.178V86.0312H142.391C142.539 85.7585 142.752 85.4432 143.031 85.0852C143.309 84.7273 143.695 84.4148 144.19 84.1477C144.684 83.875 145.337 83.7386 146.15 83.7386C147.207 83.7386 148.15 84.0057 148.979 84.5398C149.809 85.0739 150.46 85.8437 150.931 86.8494C151.408 87.8551 151.647 89.0653 151.647 90.4801C151.647 91.8949 151.411 93.108 150.94 94.1193C150.468 95.125 149.82 95.9006 148.996 96.446C148.173 96.9858 147.232 97.2557 146.175 97.2557C145.38 97.2557 144.729 97.1222 144.224 96.8551C143.724 96.5881 143.332 96.2756 143.048 95.9176C142.763 95.5597 142.545 95.2415 142.391 94.9631H142.238V101.909H139.69ZM142.187 90.4545C142.187 91.375 142.32 92.1818 142.587 92.875C142.854 93.5682 143.241 94.1108 143.746 94.5028C144.252 94.8892 144.871 95.0824 145.604 95.0824C146.366 95.0824 147.002 94.8807 147.513 94.4773C148.025 94.0682 148.411 93.5142 148.673 92.8153C148.94 92.1165 149.073 91.3295 149.073 90.4545C149.073 89.5909 148.942 88.8153 148.681 88.1278C148.425 87.4403 148.039 86.8977 147.522 86.5C147.011 86.1023 146.371 85.9034 145.604 85.9034C144.866 85.9034 144.241 86.0937 143.729 86.4744C143.224 86.8551 142.84 87.3864 142.579 88.0682C142.317 88.75 142.187 89.5455 142.187 90.4545ZM158.312 97.2898C157.482 97.2898 156.732 97.1364 156.062 96.8295C155.391 96.517 154.86 96.0653 154.468 95.4744C154.082 94.8835 153.888 94.1591 153.888 93.3011C153.888 92.5625 154.031 91.9545 154.315 91.4773C154.599 91 154.982 90.6222 155.465 90.3438C155.948 90.0653 156.488 89.8551 157.085 89.7131C157.681 89.571 158.289 89.4631 158.908 89.3892C159.692 89.2983 160.329 89.2244 160.817 89.1676C161.306 89.1051 161.661 89.0057 161.883 88.8693C162.104 88.733 162.215 88.5114 162.215 88.2045V88.1449C162.215 87.4006 162.005 86.8239 161.585 86.4148C161.17 86.0057 160.55 85.8011 159.727 85.8011C158.869 85.8011 158.192 85.9915 157.698 86.3722C157.21 86.7472 156.871 87.1648 156.684 87.625L154.289 87.0795C154.573 86.2841 154.988 85.642 155.533 85.1534C156.085 84.6591 156.718 84.3011 157.434 84.0795C158.15 83.8523 158.903 83.7386 159.692 83.7386C160.215 83.7386 160.769 83.8011 161.354 83.9261C161.945 84.0455 162.496 84.267 163.008 84.5909C163.525 84.9148 163.948 85.3778 164.278 85.9801C164.607 86.5767 164.772 87.3523 164.772 88.3068V97H162.283V95.2102H162.181C162.016 95.5398 161.769 95.8636 161.44 96.1818C161.11 96.5 160.687 96.7642 160.17 96.9744C159.653 97.1847 159.033 97.2898 158.312 97.2898ZM158.866 95.2443C159.57 95.2443 160.173 95.1051 160.673 94.8267C161.178 94.5483 161.562 94.1847 161.823 93.7358C162.09 93.2812 162.224 92.7955 162.224 92.2784V90.5909C162.133 90.6818 161.957 90.767 161.695 90.8466C161.44 90.9205 161.147 90.9858 160.817 91.0426C160.488 91.0937 160.167 91.142 159.854 91.1875C159.542 91.2273 159.281 91.2614 159.07 91.2898C158.576 91.3523 158.124 91.4574 157.715 91.6051C157.312 91.7528 156.988 91.9659 156.744 92.2443C156.505 92.517 156.386 92.8807 156.386 93.3352C156.386 93.9659 156.619 94.4432 157.085 94.767C157.55 95.0852 158.144 95.2443 158.866 95.2443ZM176.129 101.909C175.748 101.909 175.401 101.878 175.089 101.815C174.776 101.759 174.543 101.696 174.39 101.628L175.004 99.5398C175.469 99.6648 175.884 99.7188 176.248 99.7017C176.612 99.6847 176.933 99.5483 177.211 99.2926C177.495 99.0369 177.745 98.6193 177.961 98.0398L178.276 97.1705L173.487 83.9091H176.214L179.529 94.0682H179.665L182.981 83.9091H185.717L180.322 98.7472C180.072 99.429 179.754 100.006 179.367 100.477C178.981 100.955 178.521 101.313 177.987 101.551C177.452 101.79 176.833 101.909 176.129 101.909ZM191.546 97.2898C190.717 97.2898 189.967 97.1364 189.296 96.8295C188.626 96.517 188.094 96.0653 187.702 95.4744C187.316 94.8835 187.123 94.1591 187.123 93.3011C187.123 92.5625 187.265 91.9545 187.549 91.4773C187.833 91 188.217 90.6222 188.7 90.3438C189.183 90.0653 189.722 89.8551 190.319 89.7131C190.915 89.571 191.523 89.4631 192.143 89.3892C192.927 89.2983 193.563 89.2244 194.052 89.1676C194.54 89.1051 194.896 89.0057 195.117 88.8693C195.339 88.733 195.45 88.5114 195.45 88.2045V88.1449C195.45 87.4006 195.239 86.8239 194.819 86.4148C194.404 86.0057 193.785 85.8011 192.961 85.8011C192.103 85.8011 191.427 85.9915 190.933 86.3722C190.444 86.7472 190.106 87.1648 189.918 87.625L187.523 87.0795C187.808 86.2841 188.222 85.642 188.768 85.1534C189.319 84.6591 189.952 84.3011 190.668 84.0795C191.384 83.8523 192.137 83.7386 192.927 83.7386C193.45 83.7386 194.004 83.8011 194.589 83.9261C195.18 84.0455 195.731 84.267 196.242 84.5909C196.759 84.9148 197.183 85.3778 197.512 85.9801C197.842 86.5767 198.006 87.3523 198.006 88.3068V97H195.518V95.2102H195.415C195.251 95.5398 195.004 95.8636 194.674 96.1818C194.344 96.5 193.921 96.7642 193.404 96.9744C192.887 97.1847 192.268 97.2898 191.546 97.2898ZM192.1 95.2443C192.805 95.2443 193.407 95.1051 193.907 94.8267C194.413 94.5483 194.796 94.1847 195.058 93.7358C195.325 93.2812 195.458 92.7955 195.458 92.2784V90.5909C195.367 90.6818 195.191 90.767 194.93 90.8466C194.674 90.9205 194.381 90.9858 194.052 91.0426C193.722 91.0937 193.401 91.142 193.089 91.1875C192.776 91.2273 192.515 91.2614 192.305 91.2898C191.81 91.3523 191.359 91.4574 190.95 91.6051C190.546 91.7528 190.222 91.9659 189.978 92.2443C189.739 92.517 189.62 92.8807 189.62 93.3352C189.62 93.9659 189.853 94.4432 190.319 94.767C190.785 95.0852 191.379 95.2443 192.1 95.2443ZM203.949 89.2273V97H201.401V83.9091H203.847V86.0398H204.009C204.31 85.3466 204.781 84.7898 205.423 84.3693C206.071 83.9489 206.886 83.7386 207.869 83.7386C208.761 83.7386 209.543 83.9261 210.213 84.3011C210.884 84.6705 211.403 85.2216 211.773 85.9545C212.142 86.6875 212.327 87.5937 212.327 88.6733V97H209.778V88.9801C209.778 88.0312 209.531 87.2898 209.037 86.7557C208.543 86.2159 207.864 85.946 207 85.946C206.409 85.946 205.884 86.0739 205.423 86.3295C204.969 86.5852 204.608 86.9602 204.341 87.4545C204.08 87.9432 203.949 88.5341 203.949 89.2273ZM221.233 102.182C220.193 102.182 219.298 102.045 218.548 101.773C217.804 101.5 217.196 101.139 216.724 100.69C216.253 100.241 215.901 99.75 215.668 99.2159L217.858 98.3125C218.011 98.5625 218.216 98.8267 218.472 99.1051C218.733 99.3892 219.085 99.6307 219.528 99.8295C219.977 100.028 220.554 100.128 221.259 100.128C222.224 100.128 223.023 99.892 223.653 99.4205C224.284 98.9545 224.599 98.2102 224.599 97.1875V94.6136H224.438C224.284 94.892 224.063 95.2017 223.773 95.5426C223.489 95.8835 223.097 96.179 222.597 96.429C222.097 96.679 221.446 96.804 220.645 96.804C219.611 96.804 218.679 96.5625 217.849 96.0795C217.026 95.5909 216.372 94.8722 215.889 93.9233C215.412 92.9687 215.173 91.7955 215.173 90.4034C215.173 89.0114 215.409 87.8182 215.881 86.8239C216.358 85.8295 217.011 85.0682 217.841 84.5398C218.67 84.0057 219.611 83.7386 220.662 83.7386C221.474 83.7386 222.131 83.875 222.631 84.1477C223.131 84.4148 223.52 84.7273 223.798 85.0852C224.082 85.4432 224.301 85.7585 224.455 86.0312H224.642V83.9091H227.139V97.2898C227.139 98.4148 226.878 99.3381 226.355 100.06C225.832 100.781 225.125 101.315 224.233 101.662C223.347 102.009 222.347 102.182 221.233 102.182ZM221.207 94.6903C221.94 94.6903 222.56 94.5199 223.065 94.179C223.577 93.8324 223.963 93.3381 224.224 92.696C224.491 92.0483 224.625 91.2727 224.625 90.3693C224.625 89.4886 224.494 88.7131 224.233 88.0426C223.972 87.3722 223.588 86.8494 223.082 86.4744C222.577 86.0937 221.952 85.9034 221.207 85.9034C220.44 85.9034 219.801 86.1023 219.29 86.5C218.778 86.892 218.392 87.4261 218.131 88.1023C217.875 88.7784 217.747 89.5341 217.747 90.3693C217.747 91.2273 217.878 91.9801 218.139 92.6278C218.401 93.2756 218.787 93.7812 219.298 94.1449C219.815 94.5085 220.452 94.6903 221.207 94.6903ZM45.2365 128.56L45.2195 125.449H45.6626L50.8786 119.909H53.9297L47.9808 126.216H47.5803L45.2365 128.56ZM42.8928 133V115.545H45.4411V133H42.8928ZM51.1598 133L46.4723 126.778L48.228 124.997L54.2876 133H51.1598ZM60.0618 133.29C59.2322 133.29 58.4822 133.136 57.8118 132.83C57.1413 132.517 56.6101 132.065 56.218 131.474C55.8317 130.884 55.6385 130.159 55.6385 129.301C55.6385 128.562 55.7805 127.955 56.0646 127.477C56.3487 127 56.7322 126.622 57.2152 126.344C57.6982 126.065 58.2379 125.855 58.8345 125.713C59.4311 125.571 60.0391 125.463 60.6584 125.389C61.4425 125.298 62.0788 125.224 62.5675 125.168C63.0561 125.105 63.4112 125.006 63.6328 124.869C63.8544 124.733 63.9652 124.511 63.9652 124.205V124.145C63.9652 123.401 63.755 122.824 63.3345 122.415C62.9197 122.006 62.3004 121.801 61.4766 121.801C60.6186 121.801 59.9425 121.991 59.4482 122.372C58.9595 122.747 58.6214 123.165 58.4339 123.625L56.0391 123.08C56.3232 122.284 56.7379 121.642 57.2834 121.153C57.8345 120.659 58.468 120.301 59.1839 120.08C59.8999 119.852 60.6527 119.739 61.4425 119.739C61.9652 119.739 62.5192 119.801 63.1044 119.926C63.6953 120.045 64.2464 120.267 64.7578 120.591C65.2749 120.915 65.6982 121.378 66.0277 121.98C66.3572 122.577 66.522 123.352 66.522 124.307V133H64.0334V131.21H63.9311C63.7663 131.54 63.5192 131.864 63.1896 132.182C62.8601 132.5 62.4368 132.764 61.9197 132.974C61.4027 133.185 60.7834 133.29 60.0618 133.29ZM60.6158 131.244C61.3203 131.244 61.9226 131.105 62.4226 130.827C62.9283 130.548 63.3118 130.185 63.5732 129.736C63.8402 129.281 63.9737 128.795 63.9737 128.278V126.591C63.8828 126.682 63.7067 126.767 63.4453 126.847C63.1896 126.92 62.897 126.986 62.5675 127.043C62.2379 127.094 61.9169 127.142 61.6044 127.188C61.2919 127.227 61.0305 127.261 60.8203 127.29C60.326 127.352 59.8743 127.457 59.4652 127.605C59.0618 127.753 58.7379 127.966 58.4936 128.244C58.255 128.517 58.1357 128.881 58.1357 129.335C58.1357 129.966 58.3686 130.443 58.8345 130.767C59.3004 131.085 59.8942 131.244 60.6158 131.244ZM72.4645 115.545V133H69.9162V115.545H72.4645ZM75.8928 133V119.909H78.4411V133H75.8928ZM77.1797 117.889C76.7365 117.889 76.3558 117.741 76.0376 117.446C75.7251 117.145 75.5689 116.787 75.5689 116.372C75.5689 115.952 75.7251 115.594 76.0376 115.298C76.3558 114.997 76.7365 114.847 77.1797 114.847C77.6229 114.847 78.0007 114.997 78.3132 115.298C78.6314 115.594 78.7905 115.952 78.7905 116.372C78.7905 116.787 78.6314 117.145 78.3132 117.446C78.0007 117.741 77.6229 117.889 77.1797 117.889ZM85.679 133.29C84.8494 133.29 84.0994 133.136 83.429 132.83C82.7585 132.517 82.2273 132.065 81.8352 131.474C81.4489 130.884 81.2557 130.159 81.2557 129.301C81.2557 128.562 81.3977 127.955 81.6818 127.477C81.9659 127 82.3494 126.622 82.8324 126.344C83.3153 126.065 83.8551 125.855 84.4517 125.713C85.0483 125.571 85.6563 125.463 86.2756 125.389C87.0597 125.298 87.696 125.224 88.1847 125.168C88.6733 125.105 89.0284 125.006 89.25 124.869C89.4716 124.733 89.5824 124.511 89.5824 124.205V124.145C89.5824 123.401 89.3722 122.824 88.9517 122.415C88.5369 122.006 87.9176 121.801 87.0938 121.801C86.2358 121.801 85.5597 121.991 85.0653 122.372C84.5767 122.747 84.2386 123.165 84.0511 123.625L81.6562 123.08C81.9403 122.284 82.3551 121.642 82.9006 121.153C83.4517 120.659 84.0852 120.301 84.8011 120.08C85.517 119.852 86.2699 119.739 87.0597 119.739C87.5824 119.739 88.1364 119.801 88.7216 119.926C89.3125 120.045 89.8636 120.267 90.375 120.591C90.892 120.915 91.3153 121.378 91.6449 121.98C91.9744 122.577 92.1392 123.352 92.1392 124.307V133H89.6506V131.21H89.5483C89.3835 131.54 89.1364 131.864 88.8068 132.182C88.4773 132.5 88.054 132.764 87.5369 132.974C87.0199 133.185 86.4006 133.29 85.679 133.29ZM86.233 131.244C86.9375 131.244 87.5398 131.105 88.0398 130.827C88.5455 130.548 88.929 130.185 89.1903 129.736C89.4574 129.281 89.5909 128.795 89.5909 128.278V126.591C89.5 126.682 89.3239 126.767 89.0625 126.847C88.8068 126.92 88.5142 126.986 88.1847 127.043C87.8551 127.094 87.5341 127.142 87.2216 127.188C86.9091 127.227 86.6477 127.261 86.4375 127.29C85.9432 127.352 85.4915 127.457 85.0824 127.605C84.679 127.753 84.3551 127.966 84.1108 128.244C83.8722 128.517 83.7528 128.881 83.7528 129.335C83.7528 129.966 83.9858 130.443 84.4517 130.767C84.9176 131.085 85.5114 131.244 86.233 131.244ZM98.0817 125.227V133H95.5334V119.909H97.9794V122.04H98.1413C98.4425 121.347 98.9141 120.79 99.5561 120.369C100.204 119.949 101.019 119.739 102.002 119.739C102.894 119.739 103.675 119.926 104.346 120.301C105.016 120.67 105.536 121.222 105.906 121.955C106.275 122.687 106.46 123.594 106.46 124.673V133H103.911V124.98C103.911 124.031 103.664 123.29 103.17 122.756C102.675 122.216 101.996 121.946 101.133 121.946C100.542 121.946 100.016 122.074 99.5561 122.33C99.1016 122.585 98.7408 122.96 98.4737 123.455C98.2124 123.943 98.0817 124.534 98.0817 125.227ZM116.433 133V115.545H118.982V122.031H119.135C119.283 121.759 119.496 121.443 119.774 121.085C120.053 120.727 120.439 120.415 120.933 120.148C121.428 119.875 122.081 119.739 122.893 119.739C123.95 119.739 124.893 120.006 125.723 120.54C126.553 121.074 127.203 121.844 127.675 122.849C128.152 123.855 128.391 125.065 128.391 126.48C128.391 127.895 128.155 129.108 127.683 130.119C127.212 131.125 126.564 131.901 125.74 132.446C124.916 132.986 123.976 133.256 122.919 133.256C122.124 133.256 121.473 133.122 120.967 132.855C120.467 132.588 120.075 132.276 119.791 131.918C119.507 131.56 119.288 131.241 119.135 130.963H118.922V133H116.433ZM118.93 126.455C118.93 127.375 119.064 128.182 119.331 128.875C119.598 129.568 119.984 130.111 120.49 130.503C120.996 130.889 121.615 131.082 122.348 131.082C123.109 131.082 123.746 130.881 124.257 130.477C124.768 130.068 125.155 129.514 125.416 128.815C125.683 128.116 125.817 127.33 125.817 126.455C125.817 125.591 125.686 124.815 125.425 124.128C125.169 123.44 124.783 122.898 124.266 122.5C123.754 122.102 123.115 121.903 122.348 121.903C121.609 121.903 120.984 122.094 120.473 122.474C119.967 122.855 119.584 123.386 119.322 124.068C119.061 124.75 118.93 125.545 118.93 126.455ZM139.545 127.571V119.909H142.102V133H139.596V130.733H139.46C139.158 131.432 138.675 132.014 138.011 132.48C137.352 132.94 136.531 133.17 135.548 133.17C134.707 133.17 133.962 132.986 133.315 132.616C132.673 132.241 132.167 131.688 131.798 130.955C131.434 130.222 131.252 129.315 131.252 128.236V119.909H133.8V127.929C133.8 128.821 134.048 129.531 134.542 130.06C135.036 130.588 135.678 130.852 136.468 130.852C136.945 130.852 137.42 130.733 137.891 130.494C138.369 130.256 138.763 129.895 139.076 129.412C139.394 128.929 139.55 128.315 139.545 127.571ZM151.636 119.909V121.955H144.486V119.909H151.636ZM146.403 116.773H148.952V129.156C148.952 129.651 149.026 130.023 149.173 130.273C149.321 130.517 149.511 130.685 149.744 130.776C149.983 130.861 150.241 130.903 150.52 130.903C150.724 130.903 150.903 130.889 151.057 130.861C151.21 130.832 151.33 130.81 151.415 130.793L151.875 132.898C151.727 132.955 151.517 133.011 151.244 133.068C150.972 133.131 150.631 133.165 150.222 133.17C149.551 133.182 148.926 133.062 148.347 132.812C147.767 132.562 147.298 132.176 146.94 131.653C146.582 131.131 146.403 130.474 146.403 129.685V116.773ZM162.748 127.571V119.909H165.305V133H162.799V130.733H162.663C162.362 131.432 161.879 132.014 161.214 132.48C160.555 132.94 159.734 133.17 158.751 133.17C157.91 133.17 157.165 132.986 156.518 132.616C155.876 132.241 155.37 131.688 155.001 130.955C154.637 130.222 154.455 129.315 154.455 128.236V119.909H157.004V127.929C157.004 128.821 157.251 129.531 157.745 130.06C158.239 130.588 158.881 130.852 159.671 130.852C160.148 130.852 160.623 130.733 161.094 130.494C161.572 130.256 161.967 129.895 162.279 129.412C162.597 128.929 162.754 128.315 162.748 127.571ZM171.277 125.227V133H168.729V115.545H171.243V122.04H171.405C171.712 121.335 172.18 120.776 172.811 120.361C173.442 119.946 174.266 119.739 175.283 119.739C176.18 119.739 176.964 119.923 177.635 120.293C178.311 120.662 178.834 121.213 179.203 121.946C179.578 122.673 179.766 123.582 179.766 124.673V133H177.217V124.98C177.217 124.02 176.97 123.276 176.476 122.747C175.982 122.213 175.294 121.946 174.413 121.946C173.811 121.946 173.271 122.074 172.794 122.33C172.322 122.585 171.95 122.96 171.678 123.455C171.411 123.943 171.277 124.534 171.277 125.227ZM185.51 128.56L185.493 125.449H185.936L191.152 119.909H194.203L188.254 126.216H187.854L185.51 128.56ZM183.166 133V115.545H185.714V133H183.166ZM191.433 133L186.746 126.778L188.501 124.997L194.561 133H191.433ZM200.335 133.29C199.506 133.29 198.756 133.136 198.085 132.83C197.415 132.517 196.884 132.065 196.491 131.474C196.105 130.884 195.912 130.159 195.912 129.301C195.912 128.562 196.054 127.955 196.338 127.477C196.622 127 197.006 126.622 197.489 126.344C197.972 126.065 198.511 125.855 199.108 125.713C199.705 125.571 200.313 125.463 200.932 125.389C201.716 125.298 202.352 125.224 202.841 125.168C203.33 125.105 203.685 125.006 203.906 124.869C204.128 124.733 204.239 124.511 204.239 124.205V124.145C204.239 123.401 204.028 122.824 203.608 122.415C203.193 122.006 202.574 121.801 201.75 121.801C200.892 121.801 200.216 121.991 199.722 122.372C199.233 122.747 198.895 123.165 198.707 123.625L196.312 123.08C196.597 122.284 197.011 121.642 197.557 121.153C198.108 120.659 198.741 120.301 199.457 120.08C200.173 119.852 200.926 119.739 201.716 119.739C202.239 119.739 202.793 119.801 203.378 119.926C203.969 120.045 204.52 120.267 205.031 120.591C205.548 120.915 205.972 121.378 206.301 121.98C206.631 122.577 206.795 123.352 206.795 124.307V133H204.307V131.21H204.205C204.04 131.54 203.793 131.864 203.463 132.182C203.134 132.5 202.71 132.764 202.193 132.974C201.676 133.185 201.057 133.29 200.335 133.29ZM200.889 131.244C201.594 131.244 202.196 131.105 202.696 130.827C203.202 130.548 203.585 130.185 203.847 129.736C204.114 129.281 204.247 128.795 204.247 128.278V126.591C204.156 126.682 203.98 126.767 203.719 126.847C203.463 126.92 203.17 126.986 202.841 127.043C202.511 127.094 202.19 127.142 201.878 127.188C201.565 127.227 201.304 127.261 201.094 127.29C200.599 127.352 200.148 127.457 199.739 127.605C199.335 127.753 199.011 127.966 198.767 128.244C198.528 128.517 198.409 128.881 198.409 129.335C198.409 129.966 198.642 130.443 199.108 130.767C199.574 131.085 200.168 131.244 200.889 131.244ZM212.738 125.227V133H210.19V119.909H212.636V122.04H212.798C213.099 121.347 213.57 120.79 214.212 120.369C214.86 119.949 215.675 119.739 216.658 119.739C217.55 119.739 218.332 119.926 219.002 120.301C219.673 120.67 220.192 121.222 220.562 121.955C220.931 122.687 221.116 123.594 221.116 124.673V133H218.567V124.98C218.567 124.031 218.32 123.29 217.826 122.756C217.332 122.216 216.653 121.946 215.789 121.946C215.198 121.946 214.673 122.074 214.212 122.33C213.758 122.585 213.397 122.96 213.13 123.455C212.869 123.943 212.738 124.534 212.738 125.227ZM48.5018 163.571V155.909H51.0586V169H48.5529V166.733H48.4165C48.1154 167.432 47.6325 168.014 46.9677 168.48C46.3086 168.94 45.4876 169.17 44.5046 169.17C43.6637 169.17 42.9194 168.986 42.2717 168.616C41.6296 168.241 41.1239 167.688 40.7546 166.955C40.391 166.222 40.2092 165.315 40.2092 164.236V155.909H42.7575V163.929C42.7575 164.821 43.0046 165.531 43.4989 166.06C43.9933 166.588 44.6353 166.852 45.4251 166.852C45.9023 166.852 46.3768 166.733 46.8484 166.494C47.3256 166.256 47.7205 165.895 48.033 165.412C48.3512 164.929 48.5075 164.315 48.5018 163.571ZM57.0309 161.227V169H54.4826V155.909H56.9286V158.04H57.0906C57.3917 157.347 57.8633 156.79 58.5053 156.369C59.1531 155.949 59.9684 155.739 60.9513 155.739C61.8434 155.739 62.6246 155.926 63.2951 156.301C63.9656 156.67 64.4854 157.222 64.8548 157.955C65.2241 158.687 65.4087 159.594 65.4087 160.673V169H62.8604V160.98C62.8604 160.031 62.6133 159.29 62.119 158.756C61.6246 158.216 60.9457 157.946 60.082 157.946C59.4911 157.946 58.9656 158.074 58.5053 158.33C58.0508 158.585 57.69 158.96 57.4229 159.455C57.1616 159.943 57.0309 160.534 57.0309 161.227ZM74.9371 155.909V157.955H67.7866V155.909H74.9371ZM69.7042 152.773H72.2525V165.156C72.2525 165.651 72.3263 166.023 72.4741 166.273C72.6218 166.517 72.8121 166.685 73.0451 166.776C73.2837 166.861 73.5423 166.903 73.8207 166.903C74.0252 166.903 74.2042 166.889 74.3576 166.861C74.511 166.832 74.6303 166.81 74.7156 166.793L75.1758 168.898C75.0281 168.955 74.8178 169.011 74.5451 169.068C74.2724 169.131 73.9315 169.165 73.5224 169.17C72.8519 169.182 72.2269 169.062 71.6474 168.812C71.0678 168.562 70.5991 168.176 70.2411 167.653C69.8832 167.131 69.7042 166.474 69.7042 165.685V152.773ZM86.0487 163.571V155.909H88.6055V169H86.0998V166.733H85.9634C85.6623 167.432 85.1793 168.014 84.5146 168.48C83.8555 168.94 83.0344 169.17 82.0515 169.17C81.2106 169.17 80.4663 168.986 79.8185 168.616C79.1765 168.241 78.6708 167.688 78.3015 166.955C77.9379 166.222 77.756 165.315 77.756 164.236V155.909H80.3043V163.929C80.3043 164.821 80.5515 165.531 81.0458 166.06C81.5401 166.588 82.1822 166.852 82.9719 166.852C83.4492 166.852 83.9237 166.733 84.3952 166.494C84.8725 166.256 85.2674 165.895 85.5799 165.412C85.8981 164.929 86.0543 164.315 86.0487 163.571ZM94.3732 164.56L94.3562 161.449H94.7994L100.015 155.909H103.066L97.1175 162.216H96.717L94.3732 164.56ZM92.0295 169V151.545H94.5778V169H92.0295ZM100.297 169L95.609 162.778L97.3647 160.997L103.424 169H100.297ZM111.945 169V151.545H114.493V158.031H114.647C114.794 157.759 115.007 157.443 115.286 157.085C115.564 156.727 115.951 156.415 116.445 156.148C116.939 155.875 117.593 155.739 118.405 155.739C119.462 155.739 120.405 156.006 121.235 156.54C122.064 157.074 122.715 157.844 123.186 158.849C123.664 159.855 123.902 161.065 123.902 162.48C123.902 163.895 123.667 165.108 123.195 166.119C122.723 167.125 122.076 167.901 121.252 168.446C120.428 168.986 119.488 169.256 118.431 169.256C117.635 169.256 116.985 169.122 116.479 168.855C115.979 168.588 115.587 168.276 115.303 167.918C115.019 167.56 114.8 167.241 114.647 166.963H114.434V169H111.945ZM114.442 162.455C114.442 163.375 114.576 164.182 114.843 164.875C115.11 165.568 115.496 166.111 116.002 166.503C116.507 166.889 117.127 167.082 117.86 167.082C118.621 167.082 119.257 166.881 119.769 166.477C120.28 166.068 120.667 165.514 120.928 164.815C121.195 164.116 121.328 163.33 121.328 162.455C121.328 161.591 121.198 160.815 120.936 160.128C120.681 159.44 120.294 158.898 119.777 158.5C119.266 158.102 118.627 157.903 117.86 157.903C117.121 157.903 116.496 158.094 115.985 158.474C115.479 158.855 115.096 159.386 114.834 160.068C114.573 160.75 114.442 161.545 114.442 162.455ZM132.406 169.264C131.116 169.264 130.005 168.989 129.074 168.438C128.147 167.881 127.431 167.099 126.926 166.094C126.426 165.082 126.176 163.898 126.176 162.54C126.176 161.199 126.426 160.017 126.926 158.994C127.431 157.972 128.136 157.173 129.039 156.599C129.949 156.026 131.011 155.739 132.227 155.739C132.966 155.739 133.681 155.861 134.375 156.105C135.068 156.349 135.69 156.733 136.241 157.256C136.792 157.778 137.227 158.457 137.545 159.293C137.863 160.122 138.022 161.131 138.022 162.318V163.222H127.616V161.312H135.525C135.525 160.642 135.389 160.048 135.116 159.531C134.843 159.009 134.46 158.597 133.966 158.295C133.477 157.994 132.903 157.844 132.244 157.844C131.528 157.844 130.903 158.02 130.369 158.372C129.841 158.719 129.431 159.173 129.142 159.736C128.858 160.293 128.716 160.898 128.716 161.551V163.043C128.716 163.918 128.869 164.662 129.176 165.276C129.488 165.889 129.923 166.358 130.48 166.682C131.037 167 131.687 167.159 132.431 167.159C132.914 167.159 133.355 167.091 133.752 166.955C134.15 166.812 134.494 166.602 134.784 166.324C135.074 166.045 135.295 165.702 135.449 165.293L137.86 165.727C137.667 166.437 137.321 167.06 136.821 167.594C136.326 168.122 135.704 168.534 134.954 168.83C134.21 169.119 133.36 169.264 132.406 169.264ZM140.85 169V155.909H143.313V157.989H143.449C143.688 157.284 144.108 156.73 144.711 156.327C145.319 155.918 146.006 155.713 146.773 155.713C146.932 155.713 147.12 155.719 147.336 155.73C147.557 155.741 147.73 155.756 147.855 155.773V158.21C147.753 158.182 147.571 158.151 147.31 158.116C147.049 158.077 146.787 158.057 146.526 158.057C145.924 158.057 145.387 158.185 144.915 158.44C144.449 158.69 144.08 159.04 143.807 159.489C143.534 159.932 143.398 160.437 143.398 161.006V169H140.85ZM155.081 174.182C154.041 174.182 153.146 174.045 152.396 173.773C151.652 173.5 151.044 173.139 150.572 172.69C150.1 172.241 149.748 171.75 149.515 171.216L151.706 170.312C151.859 170.562 152.064 170.827 152.319 171.105C152.581 171.389 152.933 171.631 153.376 171.83C153.825 172.028 154.402 172.128 155.106 172.128C156.072 172.128 156.87 171.892 157.501 171.42C158.132 170.955 158.447 170.21 158.447 169.188V166.614H158.285C158.132 166.892 157.91 167.202 157.62 167.543C157.336 167.884 156.944 168.179 156.444 168.429C155.944 168.679 155.294 168.804 154.493 168.804C153.458 168.804 152.527 168.562 151.697 168.08C150.873 167.591 150.22 166.872 149.737 165.923C149.26 164.969 149.021 163.795 149.021 162.403C149.021 161.011 149.257 159.818 149.728 158.824C150.206 157.83 150.859 157.068 151.689 156.54C152.518 156.006 153.458 155.739 154.51 155.739C155.322 155.739 155.978 155.875 156.478 156.148C156.978 156.415 157.368 156.727 157.646 157.085C157.93 157.443 158.149 157.759 158.302 158.031H158.49V155.909H160.987V169.29C160.987 170.415 160.725 171.338 160.203 172.06C159.68 172.781 158.973 173.315 158.081 173.662C157.194 174.009 156.194 174.182 155.081 174.182ZM155.055 166.69C155.788 166.69 156.407 166.52 156.913 166.179C157.424 165.832 157.811 165.338 158.072 164.696C158.339 164.048 158.473 163.273 158.473 162.369C158.473 161.489 158.342 160.713 158.081 160.043C157.819 159.372 157.436 158.849 156.93 158.474C156.424 158.094 155.799 157.903 155.055 157.903C154.288 157.903 153.649 158.102 153.137 158.5C152.626 158.892 152.24 159.426 151.978 160.102C151.723 160.778 151.595 161.534 151.595 162.369C151.595 163.227 151.725 163.98 151.987 164.628C152.248 165.276 152.635 165.781 153.146 166.145C153.663 166.509 154.299 166.69 155.055 166.69ZM170.047 169.264C168.757 169.264 167.646 168.989 166.714 168.438C165.788 167.881 165.072 167.099 164.566 166.094C164.066 165.082 163.816 163.898 163.816 162.54C163.816 161.199 164.066 160.017 164.566 158.994C165.072 157.972 165.777 157.173 166.68 156.599C167.589 156.026 168.652 155.739 169.868 155.739C170.606 155.739 171.322 155.861 172.015 156.105C172.708 156.349 173.331 156.733 173.882 157.256C174.433 157.778 174.868 158.457 175.186 159.293C175.504 160.122 175.663 161.131 175.663 162.318V163.222H165.257V161.312H173.166C173.166 160.642 173.029 160.048 172.757 159.531C172.484 159.009 172.1 158.597 171.606 158.295C171.118 157.994 170.544 157.844 169.885 157.844C169.169 157.844 168.544 158.02 168.01 158.372C167.481 158.719 167.072 159.173 166.782 159.736C166.498 160.293 166.356 160.898 166.356 161.551V163.043C166.356 163.918 166.51 164.662 166.816 165.276C167.129 165.889 167.564 166.358 168.12 166.682C168.677 167 169.328 167.159 170.072 167.159C170.555 167.159 170.995 167.091 171.393 166.955C171.791 166.812 172.135 166.602 172.424 166.324C172.714 166.045 172.936 165.702 173.089 165.293L175.501 165.727C175.308 166.437 174.961 167.06 174.461 167.594C173.967 168.122 173.345 168.534 172.595 168.83C171.85 169.119 171.001 169.264 170.047 169.264ZM178.49 169V155.909H180.953V157.989H181.09C181.328 157.284 181.749 156.73 182.351 156.327C182.959 155.918 183.647 155.713 184.414 155.713C184.573 155.713 184.76 155.719 184.976 155.73C185.198 155.741 185.371 155.756 185.496 155.773V158.21C185.394 158.182 185.212 158.151 184.951 158.116C184.689 158.077 184.428 158.057 184.167 158.057C183.564 158.057 183.027 158.185 182.556 158.44C182.09 158.69 181.721 159.04 181.448 159.489C181.175 159.932 181.039 160.437 181.039 161.006V169H178.49ZM191.394 169.29C190.564 169.29 189.814 169.136 189.144 168.83C188.473 168.517 187.942 168.065 187.55 167.474C187.164 166.884 186.971 166.159 186.971 165.301C186.971 164.562 187.113 163.955 187.397 163.477C187.681 163 188.064 162.622 188.547 162.344C189.03 162.065 189.57 161.855 190.167 161.713C190.763 161.571 191.371 161.463 191.99 161.389C192.775 161.298 193.411 161.224 193.9 161.168C194.388 161.105 194.743 161.006 194.965 160.869C195.186 160.733 195.297 160.511 195.297 160.205V160.145C195.297 159.401 195.087 158.824 194.667 158.415C194.252 158.006 193.632 157.801 192.809 157.801C191.951 157.801 191.275 157.991 190.78 158.372C190.292 158.747 189.953 159.165 189.766 159.625L187.371 159.08C187.655 158.284 188.07 157.642 188.615 157.153C189.167 156.659 189.8 156.301 190.516 156.08C191.232 155.852 191.985 155.739 192.775 155.739C193.297 155.739 193.851 155.801 194.436 155.926C195.027 156.045 195.578 156.267 196.09 156.591C196.607 156.915 197.03 157.378 197.36 157.98C197.689 158.577 197.854 159.352 197.854 160.307V169H195.365V167.21H195.263C195.098 167.54 194.851 167.864 194.522 168.182C194.192 168.5 193.769 168.764 193.252 168.974C192.735 169.185 192.115 169.29 191.394 169.29ZM191.948 167.244C192.652 167.244 193.255 167.105 193.755 166.827C194.26 166.548 194.644 166.185 194.905 165.736C195.172 165.281 195.306 164.795 195.306 164.278V162.591C195.215 162.682 195.039 162.767 194.777 162.847C194.522 162.92 194.229 162.986 193.9 163.043C193.57 163.094 193.249 163.142 192.936 163.188C192.624 163.227 192.363 163.261 192.152 163.29C191.658 163.352 191.206 163.457 190.797 163.605C190.394 163.753 190.07 163.966 189.826 164.244C189.587 164.517 189.468 164.881 189.468 165.335C189.468 165.966 189.701 166.443 190.167 166.767C190.632 167.085 191.226 167.244 191.948 167.244ZM203.592 164.56L203.575 161.449H204.018L209.234 155.909H212.285L206.336 162.216H205.936L203.592 164.56ZM201.248 169V151.545H203.797V169H201.248ZM209.515 169L204.828 162.778L206.583 160.997L212.643 169H209.515ZM217.395 163.98V163.818C217.406 162.761 217.511 161.92 217.71 161.295C217.914 160.67 218.204 160.165 218.579 159.778C218.954 159.392 219.406 159.04 219.934 158.722C220.275 158.506 220.582 158.264 220.855 157.997C221.127 157.73 221.343 157.423 221.502 157.077C221.662 156.73 221.741 156.347 221.741 155.926C221.741 155.42 221.622 154.983 221.383 154.614C221.145 154.244 220.826 153.96 220.429 153.761C220.037 153.557 219.599 153.455 219.116 153.455C218.679 153.455 218.261 153.545 217.863 153.727C217.466 153.909 217.136 154.193 216.875 154.58C216.613 154.96 216.463 155.452 216.423 156.054H213.832C213.872 155.031 214.13 154.168 214.608 153.463C215.085 152.753 215.716 152.216 216.5 151.852C217.289 151.489 218.162 151.307 219.116 151.307C220.162 151.307 221.076 151.503 221.86 151.895C222.645 152.281 223.252 152.824 223.684 153.523C224.122 154.216 224.341 155.026 224.341 155.952C224.341 156.588 224.241 157.162 224.042 157.673C223.843 158.179 223.559 158.631 223.19 159.028C222.826 159.426 222.389 159.778 221.877 160.085C221.395 160.386 221.002 160.699 220.701 161.023C220.406 161.347 220.19 161.73 220.054 162.173C219.917 162.616 219.843 163.165 219.832 163.818V163.98H217.395ZM218.681 169.162C218.216 169.162 217.815 168.997 217.48 168.668C217.145 168.332 216.977 167.929 216.977 167.457C216.977 166.991 217.145 166.594 217.48 166.264C217.815 165.929 218.216 165.761 218.681 165.761C219.142 165.761 219.539 165.929 219.875 166.264C220.216 166.594 220.386 166.991 220.386 167.457C220.386 167.77 220.306 168.057 220.147 168.318C219.994 168.574 219.789 168.778 219.534 168.932C219.278 169.085 218.994 169.162 218.681 169.162Z" fill="black"/>
</svg>
