<svg width="576" height="424" viewBox="0 0 576 424" fill="none" xmlns="http://www.w3.org/2000/svg">
<ellipse cx="288" cy="212" rx="288" ry="212" fill="white"/>
<path d="M142.818 158V123.091H156.182C158.705 123.091 160.801 123.489 162.472 124.284C164.153 125.068 165.409 126.142 166.239 127.506C167.08 128.869 167.5 130.415 167.5 132.142C167.5 133.562 167.227 134.778 166.682 135.79C166.136 136.79 165.403 137.602 164.483 138.227C163.562 138.852 162.534 139.301 161.398 139.574V139.915C162.636 139.983 163.824 140.364 164.96 141.057C166.108 141.739 167.045 142.705 167.773 143.955C168.5 145.205 168.864 146.716 168.864 148.489C168.864 150.295 168.426 151.92 167.551 153.364C166.676 154.795 165.358 155.926 163.597 156.756C161.835 157.585 159.619 158 156.949 158H142.818ZM149.142 152.716H155.943C158.239 152.716 159.892 152.278 160.903 151.403C161.926 150.517 162.438 149.381 162.438 147.994C162.438 146.96 162.182 146.028 161.67 145.199C161.159 144.358 160.432 143.699 159.489 143.222C158.545 142.733 157.42 142.489 156.114 142.489H149.142V152.716ZM149.142 137.938H155.398C156.489 137.938 157.472 137.739 158.347 137.341C159.222 136.932 159.909 136.358 160.409 135.619C160.92 134.869 161.176 133.983 161.176 132.96C161.176 131.608 160.699 130.494 159.744 129.619C158.801 128.744 157.398 128.307 155.534 128.307H149.142V137.938ZM178.848 158H172.098L184.388 123.091H192.195L204.501 158H197.751L188.428 130.25H188.155L178.848 158ZM179.07 144.312H197.479V149.392H179.07V144.312ZM230.845 134.239C230.561 133.318 230.169 132.494 229.669 131.767C229.18 131.028 228.589 130.398 227.896 129.875C227.214 129.352 226.43 128.96 225.544 128.699C224.658 128.426 223.692 128.29 222.646 128.29C220.771 128.29 219.101 128.761 217.635 129.705C216.169 130.648 215.016 132.034 214.175 133.864C213.345 135.682 212.93 137.898 212.93 140.511C212.93 143.148 213.345 145.381 214.175 147.21C215.004 149.04 216.158 150.432 217.635 151.386C219.112 152.33 220.828 152.801 222.783 152.801C224.555 152.801 226.089 152.46 227.385 151.778C228.692 151.097 229.697 150.131 230.402 148.881C231.107 147.619 231.459 146.142 231.459 144.449L232.891 144.67H223.413V139.727H237.578V143.92C237.578 146.909 236.942 149.494 235.669 151.676C234.396 153.858 232.646 155.54 230.419 156.722C228.192 157.892 225.635 158.477 222.749 158.477C219.533 158.477 216.709 157.756 214.277 156.312C211.857 154.858 209.964 152.795 208.601 150.125C207.249 147.443 206.572 144.261 206.572 140.58C206.572 137.761 206.97 135.244 207.766 133.028C208.572 130.812 209.697 128.932 211.141 127.386C212.584 125.83 214.277 124.648 216.22 123.841C218.163 123.023 220.277 122.614 222.561 122.614C224.493 122.614 226.294 122.898 227.964 123.466C229.635 124.023 231.118 124.818 232.413 125.852C233.72 126.886 234.794 128.114 235.635 129.534C236.476 130.955 237.027 132.523 237.288 134.239H230.845ZM247.098 158H240.348L252.638 123.091H260.445L272.751 158H266.001L256.678 130.25H256.405L247.098 158ZM247.32 144.312H265.729V149.392H247.32V144.312ZM283.673 123.091V158H277.349V123.091H283.673ZM290.521 123.091H298.26L308.624 148.386H309.033L319.396 123.091H327.135V158H321.067V134.017H320.743L311.095 157.898H306.561L296.913 133.966H296.589V158H290.521V123.091ZM338.504 158H331.754L344.044 123.091H351.851L364.158 158H357.408L348.084 130.25H347.811L338.504 158ZM338.726 144.312H357.135V149.392H338.726V144.312ZM397.443 123.091V158H391.818L375.369 134.222H375.08V158H368.756V123.091H374.415L390.847 146.886H391.153V123.091H397.443ZM408.817 158H402.067L414.357 123.091H422.163L434.47 158H427.72L418.396 130.25H418.124L408.817 158ZM409.038 144.312H427.447V149.392H409.038V144.312ZM177.763 230V195.091H190.854C193.536 195.091 195.786 195.591 197.604 196.591C199.434 197.591 200.815 198.966 201.746 200.716C202.69 202.455 203.161 204.432 203.161 206.648C203.161 208.886 202.69 210.875 201.746 212.614C200.803 214.352 199.411 215.722 197.57 216.722C195.729 217.71 193.462 218.205 190.769 218.205H182.093V213.006H189.917C191.485 213.006 192.769 212.733 193.769 212.188C194.769 211.642 195.508 210.892 195.985 209.938C196.474 208.983 196.718 207.886 196.718 206.648C196.718 205.409 196.474 204.318 195.985 203.375C195.508 202.432 194.763 201.699 193.752 201.176C192.752 200.642 191.462 200.375 189.883 200.375H184.087V230H177.763ZM208.654 230V195.091H231.359V200.392H214.978V209.869H230.183V215.17H214.978V224.699H231.495V230H208.654ZM237.81 230V195.091H250.901C253.583 195.091 255.833 195.557 257.651 196.489C259.481 197.42 260.862 198.727 261.793 200.409C262.737 202.08 263.208 204.028 263.208 206.256C263.208 208.494 262.731 210.437 261.776 212.085C260.833 213.722 259.441 214.989 257.6 215.886C255.759 216.773 253.498 217.216 250.816 217.216H241.492V211.966H249.964C251.532 211.966 252.816 211.75 253.816 211.318C254.816 210.875 255.555 210.233 256.032 209.392C256.521 208.54 256.765 207.494 256.765 206.256C256.765 205.017 256.521 203.96 256.032 203.085C255.543 202.199 254.799 201.528 253.799 201.074C252.799 200.608 251.509 200.375 249.93 200.375H244.134V230H237.81ZM255.844 214.182L264.487 230H257.43L248.941 214.182H255.844ZM273.512 230H266.762L279.052 195.091H286.859L299.165 230H292.415L283.092 202.25H282.819L273.512 230ZM273.734 216.312H292.143V221.392H273.734V216.312ZM322.173 204.688C322.013 203.199 321.343 202.04 320.161 201.21C318.991 200.381 317.468 199.966 315.593 199.966C314.275 199.966 313.144 200.165 312.201 200.562C311.258 200.96 310.536 201.5 310.036 202.182C309.536 202.864 309.281 203.642 309.269 204.517C309.269 205.244 309.434 205.875 309.763 206.409C310.104 206.943 310.565 207.398 311.144 207.773C311.724 208.136 312.366 208.443 313.07 208.693C313.775 208.943 314.485 209.153 315.201 209.324L318.474 210.142C319.792 210.449 321.059 210.864 322.275 211.386C323.502 211.909 324.599 212.568 325.565 213.364C326.542 214.159 327.315 215.119 327.883 216.244C328.451 217.369 328.735 218.687 328.735 220.199C328.735 222.244 328.212 224.045 327.167 225.602C326.121 227.148 324.61 228.358 322.633 229.233C320.667 230.097 318.286 230.528 315.491 230.528C312.775 230.528 310.417 230.108 308.417 229.267C306.428 228.426 304.871 227.199 303.746 225.585C302.633 223.972 302.031 222.006 301.94 219.688H308.161C308.252 220.903 308.627 221.915 309.286 222.722C309.945 223.528 310.803 224.131 311.86 224.528C312.928 224.926 314.121 225.125 315.44 225.125C316.815 225.125 318.019 224.92 319.053 224.511C320.099 224.091 320.917 223.511 321.508 222.773C322.099 222.023 322.4 221.148 322.411 220.148C322.4 219.239 322.133 218.489 321.61 217.898C321.087 217.295 320.354 216.795 319.411 216.398C318.479 215.989 317.388 215.625 316.138 215.307L312.167 214.284C309.292 213.545 307.019 212.426 305.349 210.926C303.69 209.415 302.86 207.409 302.86 204.909C302.86 202.852 303.417 201.051 304.531 199.506C305.656 197.96 307.184 196.761 309.116 195.909C311.048 195.045 313.235 194.614 315.678 194.614C318.156 194.614 320.326 195.045 322.19 195.909C324.065 196.761 325.536 197.949 326.604 199.472C327.673 200.983 328.224 202.722 328.258 204.688H322.173ZM338.293 230H331.543L343.833 195.091H351.64L363.947 230H357.197L347.873 202.25H347.6L338.293 230ZM338.515 216.312H356.924V221.392H338.515V216.312ZM397.232 195.091V230H391.607L375.158 206.222H374.869V230H368.545V195.091H374.204L390.636 218.886H390.942V195.091H397.232ZM182.99 302V267.091H189.314V283.131H189.74L203.359 267.091H211.081L197.581 282.756L211.2 302H203.598L193.183 287.034L189.314 291.602V302H182.99ZM219.957 302H213.207L225.497 267.091H233.304L245.611 302H238.861L229.537 274.25H229.264L219.957 302ZM220.179 288.312H238.588V293.392H220.179V288.312ZM250.209 302V267.091H256.533V296.699H271.908V302H250.209ZM283.72 267.091V302H277.396V267.091H283.72ZM295.051 302H288.301L300.591 267.091H308.398L320.705 302H313.955L304.631 274.25H304.358L295.051 302ZM295.273 288.312H313.682V293.392H295.273V288.312ZM353.99 267.091V302H348.365L331.916 278.222H331.626V302H325.303V267.091H330.962L347.393 290.886H347.7V267.091H353.99ZM378.412 291.739V291.295C378.423 289.239 378.616 287.602 378.991 286.386C379.378 285.17 379.923 284.193 380.628 283.455C381.332 282.705 382.19 282.017 383.202 281.392C383.895 280.96 384.514 280.489 385.06 279.977C385.616 279.455 386.054 278.875 386.372 278.239C386.69 277.591 386.849 276.869 386.849 276.074C386.849 275.176 386.639 274.398 386.219 273.739C385.798 273.08 385.23 272.568 384.514 272.205C383.81 271.841 383.02 271.659 382.145 271.659C381.338 271.659 380.571 271.835 379.844 272.188C379.128 272.528 378.531 273.051 378.054 273.756C377.588 274.449 377.327 275.33 377.27 276.398H371.202C371.259 274.239 371.781 272.432 372.77 270.977C373.77 269.523 375.088 268.432 376.724 267.705C378.372 266.977 380.19 266.614 382.179 266.614C384.349 266.614 386.259 266.994 387.906 267.756C389.565 268.517 390.855 269.602 391.776 271.011C392.707 272.409 393.173 274.068 393.173 275.989C393.173 277.284 392.963 278.443 392.543 279.466C392.134 280.489 391.548 281.398 390.787 282.193C390.026 282.989 389.122 283.699 388.077 284.324C387.156 284.892 386.401 285.483 385.81 286.097C385.23 286.71 384.798 287.432 384.514 288.261C384.241 289.08 384.099 290.091 384.088 291.295V291.739H378.412ZM381.378 302.375C380.355 302.375 379.474 302.011 378.736 301.284C377.997 300.557 377.628 299.67 377.628 298.625C377.628 297.602 377.997 296.727 378.736 296C379.474 295.273 380.355 294.909 381.378 294.909C382.389 294.909 383.264 295.273 384.003 296C384.753 296.727 385.128 297.602 385.128 298.625C385.128 299.318 384.952 299.949 384.599 300.517C384.259 301.085 383.804 301.54 383.236 301.881C382.679 302.21 382.06 302.375 381.378 302.375Z" fill="black"/>
</svg>

