<svg width="576" height="424" viewBox="0 0 576 424" fill="none" xmlns="http://www.w3.org/2000/svg">
<ellipse cx="288" cy="212" rx="288" ry="212" fill="white"/>
<path d="M142.818 158V123.091H156.182C158.705 123.091 160.801 123.489 162.472 124.284C164.153 125.068 165.409 126.142 166.239 127.506C167.08 128.869 167.5 130.415 167.5 132.142C167.5 133.562 167.227 134.778 166.682 135.79C166.136 136.79 165.403 137.602 164.483 138.227C163.562 138.852 162.534 139.301 161.398 139.574V139.915C162.636 139.983 163.824 140.364 164.96 141.057C166.108 141.739 167.045 142.705 167.773 143.955C168.5 145.205 168.864 146.716 168.864 148.489C168.864 150.295 168.426 151.92 167.551 153.364C166.676 154.795 165.358 155.926 163.597 156.756C161.835 157.585 159.619 158 156.949 158H142.818ZM149.142 152.716H155.943C158.239 152.716 159.892 152.278 160.903 151.403C161.926 150.517 162.438 149.381 162.438 147.994C162.438 146.96 162.182 146.028 161.67 145.199C161.159 144.358 160.432 143.699 159.489 143.222C158.545 142.733 157.42 142.489 156.114 142.489H149.142V152.716ZM149.142 137.938H155.398C156.489 137.938 157.472 137.739 158.347 137.341C159.222 136.932 159.909 136.358 160.409 135.619C160.92 134.869 161.176 133.983 161.176 132.96C161.176 131.608 160.699 130.494 159.744 129.619C158.801 128.744 157.398 128.307 155.534 128.307H149.142V137.938ZM178.848 158H172.098L184.388 123.091H192.195L204.501 158H197.751L188.428 130.25H188.155L178.848 158ZM179.07 144.312H197.479V149.392H179.07V144.312ZM230.845 134.239C230.561 133.318 230.169 132.494 229.669 131.767C229.18 131.028 228.589 130.398 227.896 129.875C227.214 129.352 226.43 128.96 225.544 128.699C224.658 128.426 223.692 128.29 222.646 128.29C220.771 128.29 219.101 128.761 217.635 129.705C216.169 130.648 215.016 132.034 214.175 133.864C213.345 135.682 212.93 137.898 212.93 140.511C212.93 143.148 213.345 145.381 214.175 147.21C215.004 149.04 216.158 150.432 217.635 151.386C219.112 152.33 220.828 152.801 222.783 152.801C224.555 152.801 226.089 152.46 227.385 151.778C228.692 151.097 229.697 150.131 230.402 148.881C231.107 147.619 231.459 146.142 231.459 144.449L232.891 144.67H223.413V139.727H237.578V143.92C237.578 146.909 236.942 149.494 235.669 151.676C234.396 153.858 232.646 155.54 230.419 156.722C228.192 157.892 225.635 158.477 222.749 158.477C219.533 158.477 216.709 157.756 214.277 156.312C211.857 154.858 209.964 152.795 208.601 150.125C207.249 147.443 206.572 144.261 206.572 140.58C206.572 137.761 206.97 135.244 207.766 133.028C208.572 130.812 209.697 128.932 211.141 127.386C212.584 125.83 214.277 124.648 216.22 123.841C218.163 123.023 220.277 122.614 222.561 122.614C224.493 122.614 226.294 122.898 227.964 123.466C229.635 124.023 231.118 124.818 232.413 125.852C233.72 126.886 234.794 128.114 235.635 129.534C236.476 130.955 237.027 132.523 237.288 134.239H230.845ZM247.098 158H240.348L252.638 123.091H260.445L272.751 158H266.001L256.678 130.25H256.405L247.098 158ZM247.32 144.312H265.729V149.392H247.32V144.312ZM283.673 123.091V158H277.349V123.091H283.673ZM290.521 123.091H298.26L308.624 148.386H309.033L319.396 123.091H327.135V158H321.067V134.017H320.743L311.095 157.898H306.561L296.913 133.966H296.589V158H290.521V123.091ZM338.504 158H331.754L344.044 123.091H351.851L364.158 158H357.408L348.084 130.25H347.811L338.504 158ZM338.726 144.312H357.135V149.392H338.726V144.312ZM397.443 123.091V158H391.818L375.369 134.222H375.08V158H368.756V123.091H374.415L390.847 146.886H391.153V123.091H397.443ZM408.817 158H402.067L414.357 123.091H422.163L434.47 158H427.72L418.396 130.25H418.124L408.817 158ZM409.038 144.312H427.447V149.392H409.038V144.312ZM177.482 230V195.091H190.573C193.255 195.091 195.505 195.591 197.323 196.591C199.153 197.591 200.533 198.966 201.465 200.716C202.408 202.455 202.88 204.432 202.88 206.648C202.88 208.886 202.408 210.875 201.465 212.614C200.522 214.352 199.13 215.722 197.289 216.722C195.448 217.71 193.181 218.205 190.488 218.205H181.812V213.006H189.636C191.204 213.006 192.488 212.733 193.488 212.188C194.488 211.642 195.227 210.892 195.704 209.938C196.192 208.983 196.437 207.886 196.437 206.648C196.437 205.409 196.192 204.318 195.704 203.375C195.227 202.432 194.482 201.699 193.471 201.176C192.471 200.642 191.181 200.375 189.602 200.375H183.806V230H177.482ZM208.373 230V195.091H231.077V200.392H214.697V209.869H229.901V215.17H214.697V224.699H231.214V230H208.373ZM237.529 230V195.091H250.62C253.302 195.091 255.552 195.557 257.37 196.489C259.2 197.42 260.58 198.727 261.512 200.409C262.455 202.08 262.927 204.028 262.927 206.256C262.927 208.494 262.45 210.437 261.495 212.085C260.552 213.722 259.16 214.989 257.319 215.886C255.478 216.773 253.217 217.216 250.535 217.216H241.211V211.966H249.683C251.251 211.966 252.535 211.75 253.535 211.318C254.535 210.875 255.273 210.233 255.751 209.392C256.239 208.54 256.484 207.494 256.484 206.256C256.484 205.017 256.239 203.96 255.751 203.085C255.262 202.199 254.518 201.528 253.518 201.074C252.518 200.608 251.228 200.375 249.648 200.375H243.853V230H237.529ZM255.563 214.182L264.205 230H257.148L248.66 214.182H255.563ZM287.719 204.688C287.56 203.199 286.89 202.04 285.708 201.21C284.538 200.381 283.015 199.966 281.14 199.966C279.822 199.966 278.691 200.165 277.748 200.562C276.805 200.96 276.083 201.5 275.583 202.182C275.083 202.864 274.827 203.642 274.816 204.517C274.816 205.244 274.981 205.875 275.31 206.409C275.651 206.943 276.112 207.398 276.691 207.773C277.271 208.136 277.913 208.443 278.617 208.693C279.322 208.943 280.032 209.153 280.748 209.324L284.021 210.142C285.339 210.449 286.606 210.864 287.822 211.386C289.049 211.909 290.146 212.568 291.112 213.364C292.089 214.159 292.862 215.119 293.43 216.244C293.998 217.369 294.282 218.687 294.282 220.199C294.282 222.244 293.759 224.045 292.714 225.602C291.668 227.148 290.157 228.358 288.18 229.233C286.214 230.097 283.833 230.528 281.038 230.528C278.322 230.528 275.964 230.108 273.964 229.267C271.975 228.426 270.418 227.199 269.293 225.585C268.18 223.972 267.577 222.006 267.487 219.688H273.708C273.799 220.903 274.174 221.915 274.833 222.722C275.492 223.528 276.35 224.131 277.407 224.528C278.475 224.926 279.668 225.125 280.987 225.125C282.362 225.125 283.566 224.92 284.6 224.511C285.646 224.091 286.464 223.511 287.055 222.773C287.646 222.023 287.947 221.148 287.958 220.148C287.947 219.239 287.68 218.489 287.157 217.898C286.634 217.295 285.901 216.795 284.958 216.398C284.026 215.989 282.935 215.625 281.685 215.307L277.714 214.284C274.839 213.545 272.566 212.426 270.896 210.926C269.237 209.415 268.407 207.409 268.407 204.909C268.407 202.852 268.964 201.051 270.077 199.506C271.202 197.96 272.731 196.761 274.663 195.909C276.594 195.045 278.782 194.614 281.225 194.614C283.702 194.614 285.873 195.045 287.737 195.909C289.612 196.761 291.083 197.949 292.151 199.472C293.219 200.983 293.771 202.722 293.805 204.688H287.719ZM303.84 230H297.09L309.38 195.091H317.187L329.494 230H322.744L313.42 202.25H313.147L303.84 230ZM304.062 216.312H322.471V221.392H304.062V216.312ZM338.575 230H331.825L344.114 195.091H351.921L364.228 230H357.478L348.154 202.25H347.881L338.575 230ZM338.796 216.312H357.205V221.392H338.796V216.312ZM397.513 195.091V230H391.888L375.44 206.222H375.15V230H368.826V195.091H374.485L390.917 218.886H391.224V195.091H397.513ZM182.99 302V267.091H189.314V283.131H189.74L203.359 267.091H211.081L197.581 282.756L211.2 302H203.598L193.183 287.034L189.314 291.602V302H182.99ZM219.957 302H213.207L225.497 267.091H233.304L245.611 302H238.861L229.537 274.25H229.264L219.957 302ZM220.179 288.312H238.588V293.392H220.179V288.312ZM250.209 302V267.091H256.533V296.699H271.908V302H250.209ZM283.72 267.091V302H277.396V267.091H283.72ZM295.051 302H288.301L300.591 267.091H308.398L320.705 302H313.955L304.631 274.25H304.358L295.051 302ZM295.273 288.312H313.682V293.392H295.273V288.312ZM353.99 267.091V302H348.365L331.916 278.222H331.626V302H325.303V267.091H330.962L347.393 290.886H347.7V267.091H353.99ZM378.412 291.739V291.295C378.423 289.239 378.616 287.602 378.991 286.386C379.378 285.17 379.923 284.193 380.628 283.455C381.332 282.705 382.19 282.017 383.202 281.392C383.895 280.96 384.514 280.489 385.06 279.977C385.616 279.455 386.054 278.875 386.372 278.239C386.69 277.591 386.849 276.869 386.849 276.074C386.849 275.176 386.639 274.398 386.219 273.739C385.798 273.08 385.23 272.568 384.514 272.205C383.81 271.841 383.02 271.659 382.145 271.659C381.338 271.659 380.571 271.835 379.844 272.188C379.128 272.528 378.531 273.051 378.054 273.756C377.588 274.449 377.327 275.33 377.27 276.398H371.202C371.259 274.239 371.781 272.432 372.77 270.977C373.77 269.523 375.088 268.432 376.724 267.705C378.372 266.977 380.19 266.614 382.179 266.614C384.349 266.614 386.259 266.994 387.906 267.756C389.565 268.517 390.855 269.602 391.776 271.011C392.707 272.409 393.173 274.068 393.173 275.989C393.173 277.284 392.963 278.443 392.543 279.466C392.134 280.489 391.548 281.398 390.787 282.193C390.026 282.989 389.122 283.699 388.077 284.324C387.156 284.892 386.401 285.483 385.81 286.097C385.23 286.71 384.798 287.432 384.514 288.261C384.241 289.08 384.099 290.091 384.088 291.295V291.739H378.412ZM381.378 302.375C380.355 302.375 379.474 302.011 378.736 301.284C377.997 300.557 377.628 299.67 377.628 298.625C377.628 297.602 377.997 296.727 378.736 296C379.474 295.273 380.355 294.909 381.378 294.909C382.389 294.909 383.264 295.273 384.003 296C384.753 296.727 385.128 297.602 385.128 298.625C385.128 299.318 384.952 299.949 384.599 300.517C384.259 301.085 383.804 301.54 383.236 301.881C382.679 302.21 382.06 302.375 381.378 302.375Z" fill="black"/>
</svg>
