<svg width="749" height="467" viewBox="0 0 749 467" fill="none" xmlns="http://www.w3.org/2000/svg">
<rect width="749" height="467" fill="white"/>
<path d="M41.7216 67V49.5455H48.267C49.608 49.5455 50.733 49.7955 51.642 50.2955C52.5568 50.7955 53.2472 51.483 53.7131 52.358C54.1847 53.2273 54.4205 54.2159 54.4205 55.3239C54.4205 56.4432 54.1847 57.4375 53.7131 58.3068C53.2415 59.1761 52.5455 59.8608 51.625 60.3608C50.7045 60.8551 49.571 61.1023 48.2244 61.1023H43.8864V58.5028H47.7983C48.5824 58.5028 49.2244 58.3665 49.7244 58.0938C50.2244 57.821 50.5938 57.446 50.8324 56.9688C51.0767 56.4915 51.1989 55.9432 51.1989 55.3239C51.1989 54.7045 51.0767 54.1591 50.8324 53.6875C50.5938 53.2159 50.2216 52.8494 49.7159 52.5881C49.2159 52.321 48.571 52.1875 47.7812 52.1875H44.8835V67H41.7216ZM57.1669 67V49.5455H68.5192V52.196H60.3288V56.9347H67.9311V59.5852H60.3288V64.3494H68.5874V67H57.1669ZM71.745 67V49.5455H78.2905C79.6314 49.5455 80.7564 49.7784 81.6655 50.2443C82.5803 50.7102 83.2706 51.3636 83.7365 52.2045C84.2081 53.0398 84.4439 54.0142 84.4439 55.1278C84.4439 56.2472 84.2053 57.2187 83.728 58.0426C83.2564 58.8608 82.5604 59.4943 81.6399 59.9432C80.7195 60.3864 79.5888 60.608 78.2479 60.608H73.5859V57.983H77.8217C78.6058 57.983 79.2479 57.875 79.7479 57.6591C80.2479 57.4375 80.6172 57.1165 80.8558 56.696C81.1001 56.2699 81.2223 55.7472 81.2223 55.1278C81.2223 54.5085 81.1001 53.9801 80.8558 53.5426C80.6115 53.0994 80.2393 52.7642 79.7393 52.5369C79.2393 52.304 78.5945 52.1875 77.8047 52.1875H74.907V67H71.745ZM80.7621 59.0909L85.0831 67H81.5547L77.3104 59.0909H80.7621ZM87.3544 67V49.5455H90.5163V56.9347H98.6044V49.5455H101.775V67H98.6044V59.5852H90.5163V67H87.3544ZM107.455 67H104.08L110.225 49.5455H114.129L120.282 67H116.907L112.245 53.125H112.109L107.455 67ZM107.566 60.1562H116.771V62.696H107.566V60.1562ZM119.705 52.196V49.5455H133.631V52.196H128.236V67H125.099V52.196H119.705ZM139.477 49.5455V67H136.315V49.5455H139.477ZM142.901 67V49.5455H146.063V57.5653H146.276L153.086 49.5455H156.947L150.197 57.3778L157.006 67H153.205L147.998 59.517L146.063 61.8011V67H142.901ZM161.385 67H158.01L164.155 49.5455H168.058L174.212 67H170.837L166.175 53.125H166.038L161.385 67ZM161.496 60.1562H170.7V62.696H161.496V60.1562ZM190.854 49.5455V67H188.042L179.817 55.1108H179.673V67H176.511V49.5455H179.34L187.556 61.4432H187.71V49.5455H190.854ZM203.892 49.5455L203.611 61.8693H200.866L200.594 49.5455H203.892ZM202.239 67.1875C201.722 67.1875 201.278 67.0057 200.909 66.642C200.545 66.2784 200.364 65.8352 200.364 65.3125C200.364 64.8011 200.545 64.3636 200.909 64C201.278 63.6364 201.722 63.4545 202.239 63.4545C202.744 63.4545 203.182 63.6364 203.551 64C203.926 64.3636 204.114 64.8011 204.114 65.3125C204.114 65.6591 204.026 65.9744 203.849 66.2585C203.679 66.5426 203.452 66.7699 203.168 66.9403C202.889 67.1051 202.58 67.1875 202.239 67.1875Z" fill="black"/>
</svg>
