<svg width="570" height="96" viewBox="0 0 570 96" fill="none" xmlns="http://www.w3.org/2000/svg">
<rect width="570" height="96" rx="12" fill="white"/>
<path d="M38.1168 42.6307C38.0221 41.589 37.6007 40.7794 36.8525 40.2017C36.1139 39.6146 35.058 39.321 33.6849 39.321C32.7758 39.321 32.0183 39.4394 31.4122 39.6761C30.8061 39.9129 30.3516 40.2396 30.0486 40.6562C29.7455 41.0634 29.5893 41.5322 29.5798 42.0625C29.5609 42.4981 29.6461 42.8816 29.8355 43.2131C30.0344 43.5445 30.3185 43.8381 30.6878 44.0938C31.0666 44.34 31.5211 44.5578 32.0514 44.7472C32.5817 44.9366 33.1783 45.1023 33.8412 45.2443L36.3412 45.8125C37.7806 46.125 39.0495 46.5417 40.148 47.0625C41.256 47.5833 42.184 48.2036 42.9321 48.9233C43.6897 49.643 44.2626 50.4716 44.6508 51.4091C45.0391 52.3466 45.238 53.3977 45.2474 54.5625C45.238 56.3996 44.7739 57.9763 43.8554 59.2926C42.9368 60.6089 41.6158 61.6174 39.8923 62.3182C38.1783 63.0189 36.1092 63.3693 33.6849 63.3693C31.2512 63.3693 29.13 63.0047 27.3213 62.2756C25.5126 61.5464 24.1063 60.4384 23.1025 58.9517C22.0988 57.465 21.5827 55.5852 21.5542 53.3125H28.2872C28.344 54.25 28.595 55.0312 29.04 55.6562C29.4851 56.2812 30.0959 56.7547 30.8724 57.0767C31.6584 57.3987 32.5675 57.5597 33.5997 57.5597C34.5467 57.5597 35.3516 57.4318 36.0145 57.1761C36.6868 56.9205 37.2029 56.5653 37.5628 56.1108C37.9226 55.6562 38.1073 55.1354 38.1168 54.5483C38.1073 53.9991 37.9368 53.5303 37.6054 53.142C37.2739 52.7443 36.7626 52.4034 36.0713 52.1193C35.3895 51.8258 34.5183 51.5559 33.4577 51.3097L30.4179 50.5994C27.8989 50.0218 25.915 49.089 24.4662 47.8011C23.0173 46.5038 22.2976 44.7519 22.3071 42.5455C22.2976 40.7462 22.7806 39.1695 23.756 37.8153C24.7313 36.4612 26.0808 35.4053 27.8042 34.6477C29.5277 33.8902 31.4927 33.5114 33.6991 33.5114C35.9529 33.5114 37.9084 33.8949 39.5656 34.6619C41.2323 35.4195 42.5249 36.4848 43.4435 37.858C44.362 39.2311 44.8308 40.822 44.8497 42.6307H38.1168ZM55.7927 63H48.2359L58.0513 33.9091H67.4121L77.2274 63H69.6706L62.8382 41.2386H62.6109L55.7927 63ZM54.7842 51.5511H70.5797V56.892H54.7842V51.5511ZM81.9595 33.9091H90.6669L98.0533 51.9205H98.3942L105.781 33.9091H114.488V63H107.641V45.1307H107.4L100.411 62.8153H96.0362L89.0476 45.0312H88.8061V63H81.9595V33.9091ZM120.474 63V33.9091H132.491C134.669 33.9091 136.548 34.3352 138.13 35.1875C139.721 36.0303 140.947 37.2093 141.809 38.7244C142.671 40.2301 143.101 41.982 143.101 43.9801C143.101 45.9877 142.661 47.7443 141.78 49.25C140.909 50.7462 139.664 51.9062 138.045 52.7301C136.425 53.554 134.503 53.9659 132.278 53.9659H124.863V48.4261H130.971C132.031 48.4261 132.917 48.2415 133.627 47.8722C134.347 47.5028 134.891 46.9867 135.261 46.3239C135.63 45.6515 135.814 44.8703 135.814 43.9801C135.814 43.0805 135.63 42.304 135.261 41.6506C134.891 40.9877 134.347 40.4763 133.627 40.1165C132.907 39.7566 132.022 39.5767 130.971 39.5767H127.505V63H120.474ZM150.944 63H143.387L153.203 33.9091H162.564L172.379 63H164.822L157.99 41.2386H157.762L150.944 63ZM149.936 51.5511H165.731V56.892H149.936V51.5511ZM184.142 33.9091V63H177.111V33.9091H184.142ZM212.168 33.9091H219.1V54.0227C219.091 55.9072 218.641 57.5549 217.751 58.9659C216.861 60.3674 215.629 61.4564 214.058 62.233C212.495 63.0095 210.686 63.3977 208.631 63.3977C206.813 63.3977 205.161 63.0805 203.674 62.446C202.197 61.8116 201.018 60.8267 200.137 59.4915C199.266 58.1562 198.835 56.447 198.844 54.3636H205.847C205.876 55.1117 206.018 55.7509 206.273 56.2812C206.539 56.8021 206.903 57.1951 207.367 57.4602C207.831 57.7254 208.385 57.858 209.029 57.858C209.701 57.858 210.27 57.7159 210.734 57.4318C211.198 57.1383 211.548 56.7074 211.785 56.1392C212.031 55.571 212.159 54.8655 212.168 54.0227V33.9091ZM242.714 33.9091H249.731V52.6733C249.731 54.8419 249.215 56.7311 248.182 58.3409C247.15 59.9413 245.711 61.1818 243.864 62.0625C242.018 62.9337 239.873 63.3693 237.43 63.3693C234.958 63.3693 232.799 62.9337 230.952 62.0625C229.106 61.1818 227.671 59.9413 226.648 58.3409C225.626 56.7311 225.114 54.8419 225.114 52.6733V33.9091H232.145V52.0625C232.145 53.0663 232.363 53.9612 232.799 54.7472C233.244 55.5331 233.864 56.1487 234.66 56.5938C235.455 57.0388 236.378 57.2614 237.43 57.2614C238.481 57.2614 239.399 57.0388 240.185 56.5938C240.981 56.1487 241.601 55.5331 242.046 54.7472C242.491 53.9612 242.714 53.0663 242.714 52.0625V33.9091ZM255.738 33.9091H264.445L271.831 51.9205H272.172L279.559 33.9091H288.266V63H281.419V45.1307H281.178L274.189 62.8153H269.814L262.826 45.0312H262.584V63H255.738V33.9091ZM294.252 63V33.9091H306.269C308.447 33.9091 310.327 34.3352 311.908 35.1875C313.499 36.0303 314.725 37.2093 315.587 38.7244C316.449 40.2301 316.88 41.982 316.88 43.9801C316.88 45.9877 316.439 47.7443 315.559 49.25C314.687 50.7462 313.442 51.9062 311.823 52.7301C310.203 53.554 308.281 53.9659 306.056 53.9659H298.641V48.4261H304.749C305.809 48.4261 306.695 48.2415 307.405 47.8722C308.125 47.5028 308.669 46.9867 309.039 46.3239C309.408 45.6515 309.593 44.8703 309.593 43.9801C309.593 43.0805 309.408 42.304 309.039 41.6506C308.669 40.9877 308.125 40.4763 307.405 40.1165C306.685 39.7566 305.8 39.5767 304.749 39.5767H301.283V63H294.252ZM324.722 63H317.166L326.981 33.9091H336.342L346.157 63H338.6L331.768 41.2386H331.541L324.722 63ZM323.714 51.5511H339.509V56.892H323.714V51.5511ZM361.083 63V33.9091H368.114V46.2102H368.498L378.114 33.9091H386.395L376.083 46.892L386.58 63H378.171L370.927 51.5653L368.114 55.1165V63H361.083ZM390.769 63V33.9091H411.053V39.6193H397.8V45.5852H410.016V51.3097H397.8V57.2898H411.053V63H390.769ZM417.056 33.9091H425.764L433.15 51.9205H433.491L440.877 33.9091H449.585V63H442.738V45.1307H442.497L435.508 62.8153H431.133L424.144 45.0312H423.903V63H417.056V33.9091ZM455.57 63V33.9091H467.701C469.879 33.9091 471.702 34.2169 473.17 34.8324C474.647 35.4479 475.755 36.3097 476.494 37.4176C477.242 38.5256 477.616 39.8087 477.616 41.267C477.616 42.375 477.384 43.3646 476.92 44.2358C476.456 45.0975 475.817 45.8125 475.002 46.3807C474.188 46.9489 473.246 47.3466 472.176 47.5739V47.858C473.35 47.9148 474.434 48.232 475.428 48.8097C476.432 49.3873 477.237 50.1922 477.843 51.2244C478.449 52.2472 478.752 53.4593 478.752 54.8608C478.752 56.4233 478.355 57.8201 477.559 59.0511C476.764 60.2727 475.613 61.2386 474.107 61.9489C472.602 62.6496 470.774 63 468.624 63H455.57ZM462.602 57.3324H466.948C468.473 57.3324 469.595 57.0436 470.315 56.4659C471.044 55.8883 471.409 55.0833 471.409 54.0511C471.409 53.303 471.233 52.6591 470.883 52.1193C470.533 51.5701 470.035 51.1487 469.391 50.8551C468.748 50.5521 467.976 50.4006 467.076 50.4006H462.602V57.3324ZM462.602 45.8693H466.494C467.261 45.8693 467.943 45.7415 468.539 45.4858C469.136 45.2301 469.6 44.8608 469.931 44.3778C470.272 43.8949 470.443 43.3125 470.443 42.6307C470.443 41.6553 470.097 40.8883 469.406 40.3295C468.714 39.7708 467.782 39.4915 466.607 39.4915H462.602V45.8693ZM490.026 63H482.469L492.284 33.9091H501.645L511.46 63H503.903L497.071 41.2386H496.844L490.026 63ZM489.017 51.5511H504.812V56.892H489.017V51.5511ZM516.192 63V33.9091H523.224V57.2898H535.326V63H516.192ZM547.597 33.9091V63H540.566V33.9091H547.597Z" fill="black"/>
</svg>
