<svg width="264" height="214" viewBox="0 0 264 214" fill="none" xmlns="http://www.w3.org/2000/svg">
<path d="M264 97.1661C264 150.829 193.56 194.017 120.659 194.017C109.801 194.017 102.086 215.711 91.9905 213.892C80.5116 211.823 89.4693 190.247 79.389 186.13C38.8076 169.554 0 133.75 0 97.1661C0 43.5027 59.0984 0 132 0C204.902 0 264 43.5027 264 97.1661Z" fill="white"/>
<path d="M55.353 82H52.5575L58.8388 64.5455H61.8814L68.1626 82H65.3672L60.4325 67.7159H60.2962L55.353 82ZM55.8217 75.1648H64.8899V77.3807H55.8217V75.1648ZM70.4787 86.9091V68.9091H72.9673V71.0312H73.1804C73.3281 70.7585 73.5412 70.4432 73.8196 70.0852C74.098 69.7273 74.4844 69.4148 74.9787 69.1477C75.473 68.875 76.1264 68.7386 76.9389 68.7386C77.9957 68.7386 78.9389 69.0057 79.7685 69.5398C80.598 70.0739 81.2486 70.8437 81.7202 71.8494C82.1974 72.8551 82.4361 74.0653 82.4361 75.4801C82.4361 76.8949 82.2003 78.108 81.7287 79.1193C81.2571 80.125 80.6094 80.9006 79.7855 81.446C78.9616 81.9858 78.0213 82.2557 76.9645 82.2557C76.169 82.2557 75.5185 82.1222 75.0128 81.8551C74.5128 81.5881 74.1207 81.2756 73.8366 80.9176C73.5526 80.5597 73.3338 80.2415 73.1804 79.9631H73.027V86.9091H70.4787ZM72.9759 75.4545C72.9759 76.375 73.1094 77.1818 73.3764 77.875C73.6435 78.5682 74.0298 79.1108 74.5355 79.5028C75.0412 79.8892 75.6605 80.0824 76.3935 80.0824C77.1548 80.0824 77.7912 79.8807 78.3026 79.4773C78.8139 79.0682 79.2003 78.5142 79.4616 77.8153C79.7287 77.1165 79.8622 76.3295 79.8622 75.4545C79.8622 74.5909 79.7315 73.8153 79.4702 73.1278C79.2145 72.4403 78.8281 71.8977 78.3111 71.5C77.7997 71.1023 77.1605 70.9034 76.3935 70.9034C75.6548 70.9034 75.0298 71.0937 74.5185 71.4744C74.0128 71.8551 73.6293 72.3864 73.3679 73.0682C73.1065 73.75 72.9759 74.5455 72.9759 75.4545ZM89.1009 82.2898C88.2713 82.2898 87.5213 82.1364 86.8509 81.8295C86.1804 81.517 85.6491 81.0653 85.2571 80.4744C84.8707 79.8835 84.6776 79.1591 84.6776 78.3011C84.6776 77.5625 84.8196 76.9545 85.1037 76.4773C85.3878 76 85.7713 75.6222 86.2543 75.3438C86.7372 75.0653 87.277 74.8551 87.8736 74.7131C88.4702 74.571 89.0781 74.4631 89.6974 74.3892C90.4815 74.2983 91.1179 74.2244 91.6065 74.1676C92.0952 74.1051 92.4503 74.0057 92.6719 73.8693C92.8935 73.733 93.0043 73.5114 93.0043 73.2045V73.1449C93.0043 72.4006 92.794 71.8239 92.3736 71.4148C91.9588 71.0057 91.3395 70.8011 90.5156 70.8011C89.6577 70.8011 88.9815 70.9915 88.4872 71.3722C87.9986 71.7472 87.6605 72.1648 87.473 72.625L85.0781 72.0795C85.3622 71.2841 85.777 70.642 86.3224 70.1534C86.8736 69.6591 87.5071 69.3011 88.223 69.0795C88.9389 68.8523 89.6918 68.7386 90.4815 68.7386C91.0043 68.7386 91.5582 68.8011 92.1435 68.9261C92.7344 69.0455 93.2855 69.267 93.7969 69.5909C94.3139 69.9148 94.7372 70.3778 95.0668 70.9801C95.3963 71.5767 95.5611 72.3523 95.5611 73.3068V82H93.0724V80.2102H92.9702C92.8054 80.5398 92.5582 80.8636 92.2287 81.1818C91.8991 81.5 91.4759 81.7642 90.9588 81.9744C90.4418 82.1847 89.8224 82.2898 89.1009 82.2898ZM89.6548 80.2443C90.3594 80.2443 90.9616 80.1051 91.4616 79.8267C91.9673 79.5483 92.3509 79.1847 92.6122 78.7358C92.8793 78.2812 93.0128 77.7955 93.0128 77.2784V75.5909C92.9219 75.6818 92.7457 75.767 92.4844 75.8466C92.2287 75.9205 91.9361 75.9858 91.6065 76.0426C91.277 76.0937 90.956 76.142 90.6435 76.1875C90.331 76.2273 90.0696 76.2614 89.8594 76.2898C89.3651 76.3523 88.9134 76.4574 88.5043 76.6051C88.1009 76.7528 87.777 76.9659 87.5327 77.2443C87.294 77.517 87.1747 77.8807 87.1747 78.3352C87.1747 78.9659 87.4077 79.4432 87.8736 79.767C88.3395 80.0852 88.9332 80.2443 89.6548 80.2443ZM101.299 77.5597L101.282 74.4489H101.725L106.941 68.9091H109.992L104.043 75.2159H103.643L101.299 77.5597ZM98.9553 82V64.5455H101.504V82H98.9553ZM107.222 82L102.535 75.7784L104.29 73.9972L110.35 82H107.222ZM116.124 82.2898C115.295 82.2898 114.545 82.1364 113.874 81.8295C113.204 81.517 112.673 81.0653 112.281 80.4744C111.894 79.8835 111.701 79.1591 111.701 78.3011C111.701 77.5625 111.843 76.9545 112.127 76.4773C112.411 76 112.795 75.6222 113.278 75.3438C113.761 75.0653 114.3 74.8551 114.897 74.7131C115.494 74.571 116.102 74.4631 116.721 74.3892C117.505 74.2983 118.141 74.2244 118.63 74.1676C119.119 74.1051 119.474 74.0057 119.695 73.8693C119.917 73.733 120.028 73.5114 120.028 73.2045V73.1449C120.028 72.4006 119.817 71.8239 119.397 71.4148C118.982 71.0057 118.363 70.8011 117.539 70.8011C116.681 70.8011 116.005 70.9915 115.511 71.3722C115.022 71.7472 114.684 72.1648 114.496 72.625L112.102 72.0795C112.386 71.2841 112.8 70.642 113.346 70.1534C113.897 69.6591 114.531 69.3011 115.246 69.0795C115.962 68.8523 116.715 68.7386 117.505 68.7386C118.028 68.7386 118.582 68.8011 119.167 68.9261C119.758 69.0455 120.309 69.267 120.82 69.5909C121.337 69.9148 121.761 70.3778 122.09 70.9801C122.42 71.5767 122.585 72.3523 122.585 73.3068V82H120.096V80.2102H119.994C119.829 80.5398 119.582 80.8636 119.252 81.1818C118.923 81.5 118.499 81.7642 117.982 81.9744C117.465 82.1847 116.846 82.2898 116.124 82.2898ZM116.678 80.2443C117.383 80.2443 117.985 80.1051 118.485 79.8267C118.991 79.5483 119.374 79.1847 119.636 78.7358C119.903 78.2812 120.036 77.7955 120.036 77.2784V75.5909C119.945 75.6818 119.769 75.767 119.508 75.8466C119.252 75.9205 118.96 75.9858 118.63 76.0426C118.3 76.0937 117.979 76.142 117.667 76.1875C117.354 76.2273 117.093 76.2614 116.883 76.2898C116.388 76.3523 115.937 76.4574 115.528 76.6051C115.124 76.7528 114.8 76.9659 114.556 77.2443C114.317 77.517 114.198 77.8807 114.198 78.3352C114.198 78.9659 114.431 79.4432 114.897 79.767C115.363 80.0852 115.957 80.2443 116.678 80.2443ZM128.527 74.2273V82H125.979V64.5455H128.493V71.0398H128.655C128.962 70.3352 129.43 69.7756 130.061 69.3608C130.692 68.946 131.516 68.7386 132.533 68.7386C133.43 68.7386 134.214 68.9233 134.885 69.2926C135.561 69.6619 136.084 70.2131 136.453 70.946C136.828 71.6733 137.016 72.5824 137.016 73.6733V82H134.467V73.9801C134.467 73.0199 134.22 72.2756 133.726 71.7472C133.232 71.2131 132.544 70.946 131.663 70.946C131.061 70.946 130.521 71.0739 130.044 71.3295C129.572 71.5852 129.2 71.9602 128.928 72.4545C128.661 72.9432 128.527 73.5341 128.527 74.2273ZM149.112 77.5597L149.094 74.4489H149.538L154.754 68.9091H157.805L151.856 75.2159H151.455L149.112 77.5597ZM146.768 82V64.5455H149.316V82H146.768ZM155.035 82L150.347 75.7784L152.103 73.9972L158.163 82H155.035ZM163.937 82.2898C163.107 82.2898 162.357 82.1364 161.687 81.8295C161.016 81.517 160.485 81.0653 160.093 80.4744C159.707 79.8835 159.513 79.1591 159.513 78.3011C159.513 77.5625 159.656 76.9545 159.94 76.4773C160.224 76 160.607 75.6222 161.09 75.3438C161.573 75.0653 162.113 74.8551 162.71 74.7131C163.306 74.571 163.914 74.4631 164.533 74.3892C165.317 74.2983 165.954 74.2244 166.442 74.1676C166.931 74.1051 167.286 74.0057 167.508 73.8693C167.729 73.733 167.84 73.5114 167.84 73.2045V73.1449C167.84 72.4006 167.63 71.8239 167.21 71.4148C166.795 71.0057 166.175 70.8011 165.352 70.8011C164.494 70.8011 163.817 70.9915 163.323 71.3722C162.835 71.7472 162.496 72.1648 162.309 72.625L159.914 72.0795C160.198 71.2841 160.613 70.642 161.158 70.1534C161.71 69.6591 162.343 69.3011 163.059 69.0795C163.775 68.8523 164.528 68.7386 165.317 68.7386C165.84 68.7386 166.394 68.8011 166.979 68.9261C167.57 69.0455 168.121 69.267 168.633 69.5909C169.15 69.9148 169.573 70.3778 169.903 70.9801C170.232 71.5767 170.397 72.3523 170.397 73.3068V82H167.908V80.2102H167.806C167.641 80.5398 167.394 80.8636 167.065 81.1818C166.735 81.5 166.312 81.7642 165.795 81.9744C165.278 82.1847 164.658 82.2898 163.937 82.2898ZM164.491 80.2443C165.195 80.2443 165.798 80.1051 166.298 79.8267C166.803 79.5483 167.187 79.1847 167.448 78.7358C167.715 78.2812 167.849 77.7955 167.849 77.2784V75.5909C167.758 75.6818 167.582 75.767 167.32 75.8466C167.065 75.9205 166.772 75.9858 166.442 76.0426C166.113 76.0937 165.792 76.142 165.479 76.1875C165.167 76.2273 164.906 76.2614 164.695 76.2898C164.201 76.3523 163.749 76.4574 163.34 76.6051C162.937 76.7528 162.613 76.9659 162.369 77.2443C162.13 77.517 162.011 77.8807 162.011 78.3352C162.011 78.9659 162.244 79.4432 162.71 79.767C163.175 80.0852 163.769 80.2443 164.491 80.2443ZM176.339 64.5455V82H173.791V64.5455H176.339ZM179.768 82V68.9091H182.316V82H179.768ZM181.055 66.8892C180.612 66.8892 180.231 66.7415 179.913 66.446C179.6 66.1449 179.444 65.7869 179.444 65.3722C179.444 64.9517 179.6 64.5937 179.913 64.2983C180.231 63.9972 180.612 63.8466 181.055 63.8466C181.498 63.8466 181.876 63.9972 182.188 64.2983C182.506 64.5937 182.665 64.9517 182.665 65.3722C182.665 65.7869 182.506 66.1449 182.188 66.446C181.876 66.7415 181.498 66.8892 181.055 66.8892ZM189.554 82.2898C188.724 82.2898 187.974 82.1364 187.304 81.8295C186.634 81.517 186.102 81.0653 185.71 80.4744C185.324 79.8835 185.131 79.1591 185.131 78.3011C185.131 77.5625 185.273 76.9545 185.557 76.4773C185.841 76 186.224 75.6222 186.707 75.3438C187.19 75.0653 187.73 74.8551 188.327 74.7131C188.923 74.571 189.531 74.4631 190.151 74.3892C190.935 74.2983 191.571 74.2244 192.06 74.1676C192.548 74.1051 192.903 74.0057 193.125 73.8693C193.347 73.733 193.457 73.5114 193.457 73.2045V73.1449C193.457 72.4006 193.247 71.8239 192.827 71.4148C192.412 71.0057 191.793 70.8011 190.969 70.8011C190.111 70.8011 189.435 70.9915 188.94 71.3722C188.452 71.7472 188.114 72.1648 187.926 72.625L185.531 72.0795C185.815 71.2841 186.23 70.642 186.776 70.1534C187.327 69.6591 187.96 69.3011 188.676 69.0795C189.392 68.8523 190.145 68.7386 190.935 68.7386C191.457 68.7386 192.011 68.8011 192.597 68.9261C193.188 69.0455 193.739 69.267 194.25 69.5909C194.767 69.9148 195.19 70.3778 195.52 70.9801C195.849 71.5767 196.014 72.3523 196.014 73.3068V82H193.526V80.2102H193.423C193.259 80.5398 193.011 80.8636 192.682 81.1818C192.352 81.5 191.929 81.7642 191.412 81.9744C190.895 82.1847 190.276 82.2898 189.554 82.2898ZM190.108 80.2443C190.813 80.2443 191.415 80.1051 191.915 79.8267C192.42 79.5483 192.804 79.1847 193.065 78.7358C193.332 78.2812 193.466 77.7955 193.466 77.2784V75.5909C193.375 75.6818 193.199 75.767 192.938 75.8466C192.682 75.9205 192.389 75.9858 192.06 76.0426C191.73 76.0937 191.409 76.142 191.097 76.1875C190.784 76.2273 190.523 76.2614 190.312 76.2898C189.818 76.3523 189.366 76.4574 188.957 76.6051C188.554 76.7528 188.23 76.9659 187.986 77.2443C187.747 77.517 187.628 77.8807 187.628 78.3352C187.628 78.9659 187.861 79.4432 188.327 79.767C188.793 80.0852 189.386 80.2443 190.108 80.2443ZM201.957 74.2273V82H199.408V68.9091H201.854V71.0398H202.016C202.317 70.3466 202.789 69.7898 203.431 69.3693C204.079 68.9489 204.894 68.7386 205.877 68.7386C206.769 68.7386 207.55 68.9261 208.221 69.3011C208.891 69.6705 209.411 70.2216 209.781 70.9545C210.15 71.6875 210.335 72.5937 210.335 73.6733V82H207.786V73.9801C207.786 73.0312 207.539 72.2898 207.045 71.7557C206.55 71.2159 205.871 70.946 205.008 70.946C204.417 70.946 203.891 71.0739 203.431 71.3295C202.977 71.5852 202.616 71.9602 202.349 72.4545C202.087 72.9432 201.957 73.5341 201.957 74.2273ZM49.679 108.105L47.3693 108.514C47.2727 108.219 47.1193 107.937 46.9091 107.67C46.7045 107.403 46.4261 107.185 46.0739 107.014C45.7216 106.844 45.2813 106.759 44.7528 106.759C44.0313 106.759 43.429 106.92 42.946 107.244C42.4631 107.562 42.2216 107.974 42.2216 108.48C42.2216 108.918 42.3835 109.27 42.7074 109.537C43.0313 109.804 43.554 110.023 44.2756 110.193L46.3551 110.67C47.5597 110.949 48.4574 111.378 49.0483 111.957C49.6392 112.537 49.9347 113.29 49.9347 114.216C49.9347 115 49.7074 115.699 49.2528 116.312C48.804 116.92 48.1761 117.398 47.3693 117.744C46.5682 118.091 45.6392 118.264 44.5824 118.264C43.1165 118.264 41.9205 117.952 40.9943 117.327C40.0682 116.696 39.5 115.801 39.2898 114.642L41.7528 114.267C41.9063 114.909 42.2216 115.395 42.6989 115.724C43.1761 116.048 43.7983 116.21 44.5653 116.21C45.4006 116.21 46.0682 116.037 46.5682 115.69C47.0682 115.338 47.3182 114.909 47.3182 114.403C47.3182 113.994 47.1648 113.651 46.858 113.372C46.5568 113.094 46.0938 112.884 45.4688 112.741L43.2528 112.256C42.0313 111.977 41.1278 111.534 40.5426 110.926C39.9631 110.318 39.6733 109.548 39.6733 108.616C39.6733 107.844 39.8892 107.168 40.321 106.588C40.7528 106.009 41.3494 105.557 42.1108 105.233C42.8722 104.903 43.7443 104.739 44.7273 104.739C46.142 104.739 47.2557 105.045 48.0682 105.659C48.8807 106.267 49.4176 107.082 49.679 108.105ZM61.0291 112.571V104.909H63.5859V118H61.0803V115.733H60.9439C60.6428 116.432 60.1598 117.014 59.495 117.48C58.8359 117.94 58.0149 118.17 57.032 118.17C56.1911 118.17 55.4467 117.986 54.799 117.616C54.157 117.241 53.6513 116.688 53.282 115.955C52.9183 115.222 52.7365 114.315 52.7365 113.236V104.909H55.2848V112.929C55.2848 113.821 55.532 114.531 56.0263 115.06C56.5206 115.588 57.1626 115.852 57.9524 115.852C58.4297 115.852 58.9041 115.733 59.3757 115.494C59.853 115.256 60.2479 114.895 60.5604 114.412C60.8786 113.929 61.0348 113.315 61.0291 112.571ZM71.9105 118.256C70.8537 118.256 69.9105 117.986 69.081 117.446C68.2571 116.901 67.6094 116.125 67.1378 115.119C66.6719 114.108 66.4389 112.895 66.4389 111.48C66.4389 110.065 66.6747 108.855 67.1463 107.849C67.6236 106.844 68.277 106.074 69.1065 105.54C69.9361 105.006 70.8764 104.739 71.9276 104.739C72.7401 104.739 73.3935 104.875 73.8878 105.148C74.3878 105.415 74.7741 105.727 75.0469 106.085C75.3253 106.443 75.5412 106.759 75.6946 107.031H75.848V100.545H78.3963V118H75.9077V115.963H75.6946C75.5412 116.241 75.3196 116.56 75.0298 116.918C74.7457 117.276 74.3537 117.588 73.8537 117.855C73.3537 118.122 72.706 118.256 71.9105 118.256ZM72.473 116.082C73.206 116.082 73.8253 115.889 74.331 115.503C74.8423 115.111 75.2287 114.568 75.4901 113.875C75.7571 113.182 75.8906 112.375 75.8906 111.455C75.8906 110.545 75.7599 109.75 75.4986 109.068C75.2372 108.386 74.8537 107.855 74.348 107.474C73.8423 107.094 73.2173 106.903 72.473 106.903C71.706 106.903 71.0668 107.102 70.5554 107.5C70.044 107.898 69.6577 108.44 69.3963 109.128C69.1406 109.815 69.0128 110.591 69.0128 111.455C69.0128 112.33 69.1435 113.116 69.4048 113.815C69.6662 114.514 70.0526 115.068 70.5639 115.477C71.081 115.881 71.7173 116.082 72.473 116.082ZM85.843 118.29C85.0135 118.29 84.2635 118.136 83.593 117.83C82.9226 117.517 82.3913 117.065 81.9993 116.474C81.6129 115.884 81.4197 115.159 81.4197 114.301C81.4197 113.562 81.5618 112.955 81.8459 112.477C82.13 112 82.5135 111.622 82.9964 111.344C83.4794 111.065 84.0192 110.855 84.6158 110.713C85.2124 110.571 85.8203 110.463 86.4396 110.389C87.2237 110.298 87.8601 110.224 88.3487 110.168C88.8374 110.105 89.1925 110.006 89.4141 109.869C89.6357 109.733 89.7464 109.511 89.7464 109.205V109.145C89.7464 108.401 89.5362 107.824 89.1158 107.415C88.701 107.006 88.0817 106.801 87.2578 106.801C86.3999 106.801 85.7237 106.991 85.2294 107.372C84.7408 107.747 84.4027 108.165 84.2152 108.625L81.8203 108.08C82.1044 107.284 82.5192 106.642 83.0646 106.153C83.6158 105.659 84.2493 105.301 84.9652 105.08C85.6811 104.852 86.4339 104.739 87.2237 104.739C87.7464 104.739 88.3004 104.801 88.8857 104.926C89.4766 105.045 90.0277 105.267 90.5391 105.591C91.0561 105.915 91.4794 106.378 91.8089 106.98C92.1385 107.577 92.3033 108.352 92.3033 109.307V118H89.8146V116.21H89.7124C89.5476 116.54 89.3004 116.864 88.9709 117.182C88.6413 117.5 88.218 117.764 87.701 117.974C87.1839 118.185 86.5646 118.29 85.843 118.29ZM86.397 116.244C87.1016 116.244 87.7038 116.105 88.2038 115.827C88.7095 115.548 89.093 115.185 89.3544 114.736C89.6214 114.281 89.755 113.795 89.755 113.278V111.591C89.6641 111.682 89.4879 111.767 89.2266 111.847C88.9709 111.92 88.6783 111.986 88.3487 112.043C88.0192 112.094 87.6982 112.142 87.3857 112.188C87.0732 112.227 86.8118 112.261 86.6016 112.29C86.1072 112.352 85.6555 112.457 85.2464 112.605C84.843 112.753 84.5192 112.966 84.2749 113.244C84.0362 113.517 83.9169 113.881 83.9169 114.335C83.9169 114.966 84.1499 115.443 84.6158 115.767C85.0817 116.085 85.6754 116.244 86.397 116.244ZM98.2457 110.227V118H95.6974V100.545H98.2116V107.04H98.3736C98.6804 106.335 99.1491 105.776 99.7798 105.361C100.411 104.946 101.234 104.739 102.251 104.739C103.149 104.739 103.933 104.923 104.604 105.293C105.28 105.662 105.803 106.213 106.172 106.946C106.547 107.673 106.734 108.582 106.734 109.673V118H104.186V109.98C104.186 109.02 103.939 108.276 103.445 107.747C102.95 107.213 102.263 106.946 101.382 106.946C100.78 106.946 100.24 107.074 99.7628 107.33C99.2912 107.585 98.919 107.96 98.6463 108.455C98.3793 108.943 98.2457 109.534 98.2457 110.227ZM126.296 108.105L123.987 108.514C123.89 108.219 123.737 107.937 123.526 107.67C123.322 107.403 123.043 107.185 122.691 107.014C122.339 106.844 121.898 106.759 121.37 106.759C120.648 106.759 120.046 106.92 119.563 107.244C119.08 107.562 118.839 107.974 118.839 108.48C118.839 108.918 119.001 109.27 119.325 109.537C119.648 109.804 120.171 110.023 120.893 110.193L122.972 110.67C124.177 110.949 125.075 111.378 125.665 111.957C126.256 112.537 126.552 113.29 126.552 114.216C126.552 115 126.325 115.699 125.87 116.312C125.421 116.92 124.793 117.398 123.987 117.744C123.185 118.091 122.256 118.264 121.2 118.264C119.734 118.264 118.538 117.952 117.612 117.327C116.685 116.696 116.117 115.801 115.907 114.642L118.37 114.267C118.523 114.909 118.839 115.395 119.316 115.724C119.793 116.048 120.415 116.21 121.183 116.21C122.018 116.21 122.685 116.037 123.185 115.69C123.685 115.338 123.935 114.909 123.935 114.403C123.935 113.994 123.782 113.651 123.475 113.372C123.174 113.094 122.711 112.884 122.086 112.741L119.87 112.256C118.648 111.977 117.745 111.534 117.16 110.926C116.58 110.318 116.29 109.548 116.29 108.616C116.29 107.844 116.506 107.168 116.938 106.588C117.37 106.009 117.967 105.557 118.728 105.233C119.489 104.903 120.362 104.739 121.344 104.739C122.759 104.739 123.873 105.045 124.685 105.659C125.498 106.267 126.035 107.082 126.296 108.105ZM133.163 118.29C132.334 118.29 131.584 118.136 130.913 117.83C130.243 117.517 129.712 117.065 129.32 116.474C128.933 115.884 128.74 115.159 128.74 114.301C128.74 113.562 128.882 112.955 129.166 112.477C129.45 112 129.834 111.622 130.317 111.344C130.8 111.065 131.339 110.855 131.936 110.713C132.533 110.571 133.141 110.463 133.76 110.389C134.544 110.298 135.18 110.224 135.669 110.168C136.158 110.105 136.513 110.006 136.734 109.869C136.956 109.733 137.067 109.511 137.067 109.205V109.145C137.067 108.401 136.857 107.824 136.436 107.415C136.021 107.006 135.402 106.801 134.578 106.801C133.72 106.801 133.044 106.991 132.55 107.372C132.061 107.747 131.723 108.165 131.536 108.625L129.141 108.08C129.425 107.284 129.839 106.642 130.385 106.153C130.936 105.659 131.57 105.301 132.286 105.08C133.001 104.852 133.754 104.739 134.544 104.739C135.067 104.739 135.621 104.801 136.206 104.926C136.797 105.045 137.348 105.267 137.859 105.591C138.376 105.915 138.8 106.378 139.129 106.98C139.459 107.577 139.624 108.352 139.624 109.307V118H137.135V116.21H137.033C136.868 116.54 136.621 116.864 136.291 117.182C135.962 117.5 135.538 117.764 135.021 117.974C134.504 118.185 133.885 118.29 133.163 118.29ZM133.717 116.244C134.422 116.244 135.024 116.105 135.524 115.827C136.03 115.548 136.413 115.185 136.675 114.736C136.942 114.281 137.075 113.795 137.075 113.278V111.591C136.984 111.682 136.808 111.767 136.547 111.847C136.291 111.92 135.999 111.986 135.669 112.043C135.339 112.094 135.018 112.142 134.706 112.188C134.393 112.227 134.132 112.261 133.922 112.29C133.428 112.352 132.976 112.457 132.567 112.605C132.163 112.753 131.839 112.966 131.595 113.244C131.357 113.517 131.237 113.881 131.237 114.335C131.237 114.966 131.47 115.443 131.936 115.767C132.402 116.085 132.996 116.244 133.717 116.244ZM143.018 118V104.909H145.481V106.989H145.617C145.856 106.284 146.276 105.73 146.879 105.327C147.487 104.918 148.174 104.713 148.941 104.713C149.1 104.713 149.288 104.719 149.504 104.73C149.725 104.741 149.898 104.756 150.023 104.773V107.21C149.921 107.182 149.739 107.151 149.478 107.116C149.217 107.077 148.955 107.057 148.694 107.057C148.092 107.057 147.555 107.185 147.083 107.44C146.617 107.69 146.248 108.04 145.975 108.489C145.702 108.932 145.566 109.437 145.566 110.006V118H143.018ZM155.921 118.29C155.092 118.29 154.342 118.136 153.671 117.83C153.001 117.517 152.469 117.065 152.077 116.474C151.691 115.884 151.498 115.159 151.498 114.301C151.498 113.562 151.64 112.955 151.924 112.477C152.208 112 152.592 111.622 153.075 111.344C153.558 111.065 154.097 110.855 154.694 110.713C155.29 110.571 155.898 110.463 156.518 110.389C157.302 110.298 157.938 110.224 158.427 110.168C158.915 110.105 159.271 110.006 159.492 109.869C159.714 109.733 159.825 109.511 159.825 109.205V109.145C159.825 108.401 159.614 107.824 159.194 107.415C158.779 107.006 158.16 106.801 157.336 106.801C156.478 106.801 155.802 106.991 155.308 107.372C154.819 107.747 154.481 108.165 154.293 108.625L151.898 108.08C152.183 107.284 152.597 106.642 153.143 106.153C153.694 105.659 154.327 105.301 155.043 105.08C155.759 104.852 156.512 104.739 157.302 104.739C157.825 104.739 158.379 104.801 158.964 104.926C159.555 105.045 160.106 105.267 160.617 105.591C161.134 105.915 161.558 106.378 161.887 106.98C162.217 107.577 162.381 108.352 162.381 109.307V118H159.893V116.21H159.79C159.626 116.54 159.379 116.864 159.049 117.182C158.719 117.5 158.296 117.764 157.779 117.974C157.262 118.185 156.643 118.29 155.921 118.29ZM156.475 116.244C157.18 116.244 157.782 116.105 158.282 115.827C158.788 115.548 159.171 115.185 159.433 114.736C159.7 114.281 159.833 113.795 159.833 113.278V111.591C159.742 111.682 159.566 111.767 159.305 111.847C159.049 111.92 158.756 111.986 158.427 112.043C158.097 112.094 157.776 112.142 157.464 112.188C157.151 112.227 156.89 112.261 156.68 112.29C156.185 112.352 155.734 112.457 155.325 112.605C154.921 112.753 154.597 112.966 154.353 113.244C154.114 113.517 153.995 113.881 153.995 114.335C153.995 114.966 154.228 115.443 154.694 115.767C155.16 116.085 155.754 116.244 156.475 116.244ZM165.776 122.909V104.909H168.264V107.031H168.477C168.625 106.759 168.838 106.443 169.116 106.085C169.395 105.727 169.781 105.415 170.276 105.148C170.77 104.875 171.423 104.739 172.236 104.739C173.293 104.739 174.236 105.006 175.065 105.54C175.895 106.074 176.545 106.844 177.017 107.849C177.494 108.855 177.733 110.065 177.733 111.48C177.733 112.895 177.497 114.108 177.026 115.119C176.554 116.125 175.906 116.901 175.082 117.446C174.259 117.986 173.318 118.256 172.261 118.256C171.466 118.256 170.815 118.122 170.31 117.855C169.81 117.588 169.418 117.276 169.134 116.918C168.849 116.56 168.631 116.241 168.477 115.963H168.324V122.909H165.776ZM168.273 111.455C168.273 112.375 168.406 113.182 168.673 113.875C168.94 114.568 169.327 115.111 169.832 115.503C170.338 115.889 170.957 116.082 171.69 116.082C172.452 116.082 173.088 115.881 173.599 115.477C174.111 115.068 174.497 114.514 174.759 113.815C175.026 113.116 175.159 112.33 175.159 111.455C175.159 110.591 175.028 109.815 174.767 109.128C174.511 108.44 174.125 107.898 173.608 107.5C173.097 107.102 172.457 106.903 171.69 106.903C170.952 106.903 170.327 107.094 169.815 107.474C169.31 107.855 168.926 108.386 168.665 109.068C168.403 109.75 168.273 110.545 168.273 111.455ZM184.398 118.29C183.568 118.29 182.818 118.136 182.148 117.83C181.477 117.517 180.946 117.065 180.554 116.474C180.168 115.884 179.974 115.159 179.974 114.301C179.974 113.562 180.116 112.955 180.401 112.477C180.685 112 181.068 111.622 181.551 111.344C182.034 111.065 182.574 110.855 183.17 110.713C183.767 110.571 184.375 110.463 184.994 110.389C185.778 110.298 186.415 110.224 186.903 110.168C187.392 110.105 187.747 110.006 187.969 109.869C188.19 109.733 188.301 109.511 188.301 109.205V109.145C188.301 108.401 188.091 107.824 187.67 107.415C187.256 107.006 186.636 106.801 185.812 106.801C184.955 106.801 184.278 106.991 183.784 107.372C183.295 107.747 182.957 108.165 182.77 108.625L180.375 108.08C180.659 107.284 181.074 106.642 181.619 106.153C182.17 105.659 182.804 105.301 183.52 105.08C184.236 104.852 184.989 104.739 185.778 104.739C186.301 104.739 186.855 104.801 187.44 104.926C188.031 105.045 188.582 105.267 189.094 105.591C189.611 105.915 190.034 106.378 190.364 106.98C190.693 107.577 190.858 108.352 190.858 109.307V118H188.369V116.21H188.267C188.102 116.54 187.855 116.864 187.526 117.182C187.196 117.5 186.773 117.764 186.256 117.974C185.739 118.185 185.119 118.29 184.398 118.29ZM184.952 116.244C185.656 116.244 186.259 116.105 186.759 115.827C187.264 115.548 187.648 115.185 187.909 114.736C188.176 114.281 188.31 113.795 188.31 113.278V111.591C188.219 111.682 188.043 111.767 187.781 111.847C187.526 111.92 187.233 111.986 186.903 112.043C186.574 112.094 186.253 112.142 185.94 112.188C185.628 112.227 185.366 112.261 185.156 112.29C184.662 112.352 184.21 112.457 183.801 112.605C183.398 112.753 183.074 112.966 182.83 113.244C182.591 113.517 182.472 113.881 182.472 114.335C182.472 114.966 182.705 115.443 183.17 115.767C183.636 116.085 184.23 116.244 184.952 116.244ZM196.8 110.227V118H194.252V104.909H196.698V107.04H196.86C197.161 106.347 197.633 105.79 198.275 105.369C198.923 104.949 199.738 104.739 200.721 104.739C201.613 104.739 202.394 104.926 203.065 105.301C203.735 105.67 204.255 106.222 204.624 106.955C204.994 107.687 205.178 108.594 205.178 109.673V118H202.63V109.98C202.63 109.031 202.383 108.29 201.888 107.756C201.394 107.216 200.715 106.946 199.852 106.946C199.261 106.946 198.735 107.074 198.275 107.33C197.82 107.585 197.46 107.96 197.192 108.455C196.931 108.943 196.8 109.534 196.8 110.227ZM217.734 112.98V112.818C217.746 111.761 217.851 110.92 218.05 110.295C218.254 109.67 218.544 109.165 218.919 108.778C219.294 108.392 219.746 108.04 220.274 107.722C220.615 107.506 220.922 107.264 221.195 106.997C221.467 106.73 221.683 106.423 221.842 106.077C222.001 105.73 222.081 105.347 222.081 104.926C222.081 104.42 221.962 103.983 221.723 103.614C221.484 103.244 221.166 102.96 220.768 102.761C220.376 102.557 219.939 102.455 219.456 102.455C219.018 102.455 218.601 102.545 218.203 102.727C217.805 102.909 217.476 103.193 217.214 103.58C216.953 103.96 216.803 104.452 216.763 105.054H214.172C214.212 104.031 214.47 103.168 214.947 102.463C215.425 101.753 216.055 101.216 216.839 100.852C217.629 100.489 218.501 100.307 219.456 100.307C220.501 100.307 221.416 100.503 222.2 100.895C222.984 101.281 223.592 101.824 224.024 102.523C224.462 103.216 224.68 104.026 224.68 104.952C224.68 105.588 224.581 106.162 224.382 106.673C224.183 107.179 223.899 107.631 223.53 108.028C223.166 108.426 222.729 108.778 222.217 109.085C221.734 109.386 221.342 109.699 221.041 110.023C220.746 110.347 220.53 110.73 220.393 111.173C220.257 111.616 220.183 112.165 220.172 112.818V112.98H217.734ZM219.021 118.162C218.555 118.162 218.155 117.997 217.82 117.668C217.484 117.332 217.317 116.929 217.317 116.457C217.317 115.991 217.484 115.594 217.82 115.264C218.155 114.929 218.555 114.761 219.021 114.761C219.482 114.761 219.879 114.929 220.214 115.264C220.555 115.594 220.726 115.991 220.726 116.457C220.726 116.77 220.646 117.057 220.487 117.318C220.334 117.574 220.129 117.778 219.874 117.932C219.618 118.085 219.334 118.162 219.021 118.162Z" fill="black"/>
</svg>
