<svg width="206" height="213" viewBox="0 0 206 213" fill="none" xmlns="http://www.w3.org/2000/svg">
<g filter="url(#filter0_d_34_30)">
<rect x="20" y="16" width="166" height="173" rx="83" fill="#E8E8E8" fill-opacity="0.2" shape-rendering="crispEdges"/>
<path d="M94.4043 110.32V101.147C94.4043 98.8052 96.3165 96.9069 98.6753 96.9069H107.298C108.431 96.9069 109.517 97.3536 110.318 98.1488C111.119 98.9439 111.569 100.022 111.569 101.147V110.32C111.562 111.294 111.946 112.23 112.637 112.921C113.328 113.611 114.268 114 115.249 114H121.131C123.879 114.007 126.516 112.929 128.462 111.002C130.407 109.076 131.5 106.461 131.5 103.733V77.6006C131.5 75.3974 130.516 73.3075 128.814 71.894L108.802 56.0276C105.321 53.2457 100.333 53.3355 96.9562 56.2409L77.401 71.894C75.6182 73.2659 74.5527 75.3619 74.5 77.6006V103.707C74.5 109.392 79.1421 114 84.8685 114H90.6169C92.6537 114 94.309 112.369 94.3238 110.347L94.4043 110.32Z" fill="#8E8E8E"/>
<path d="M62.8594 150V127.094H65.8906V136.5H77.7969V127.094H80.8281V150H77.7969V139.203H65.8906V150H62.8594ZM84.4844 141.703C84.4844 138.63 85.3385 136.354 87.0469 134.875C88.474 133.646 90.2135 133.031 92.2656 133.031C94.5469 133.031 96.4115 133.781 97.8594 135.281C99.3073 136.771 100.031 138.833 100.031 141.469C100.031 143.604 99.7083 145.286 99.0625 146.516C98.4271 147.734 97.4948 148.682 96.2656 149.359C95.0469 150.036 93.7135 150.375 92.2656 150.375C89.9427 150.375 88.0625 149.63 86.625 148.141C85.1979 146.651 84.4844 144.505 84.4844 141.703ZM87.375 141.703C87.375 143.828 87.8385 145.422 88.7656 146.484C89.6927 147.536 90.8594 148.062 92.2656 148.062C93.6615 148.062 94.8229 147.531 95.75 146.469C96.6771 145.406 97.1406 143.786 97.1406 141.609C97.1406 139.557 96.6719 138.005 95.7344 136.953C94.8073 135.891 93.651 135.359 92.2656 135.359C90.8594 135.359 89.6927 135.885 88.7656 136.938C87.8385 137.99 87.375 139.578 87.375 141.703ZM103.344 150V133.406H105.859V135.734C106.38 134.922 107.073 134.271 107.938 133.781C108.802 133.281 109.786 133.031 110.891 133.031C112.12 133.031 113.125 133.286 113.906 133.797C114.698 134.307 115.255 135.021 115.578 135.938C116.891 134 118.599 133.031 120.703 133.031C122.349 133.031 123.615 133.49 124.5 134.406C125.385 135.312 125.828 136.714 125.828 138.609V150H123.031V139.547C123.031 138.422 122.938 137.615 122.75 137.125C122.573 136.625 122.245 136.224 121.766 135.922C121.286 135.62 120.724 135.469 120.078 135.469C118.911 135.469 117.943 135.859 117.172 136.641C116.401 137.411 116.016 138.651 116.016 140.359V150H113.203V139.219C113.203 137.969 112.974 137.031 112.516 136.406C112.057 135.781 111.307 135.469 110.266 135.469C109.474 135.469 108.74 135.677 108.062 136.094C107.396 136.51 106.911 137.12 106.609 137.922C106.307 138.724 106.156 139.88 106.156 141.391V150H103.344ZM141.359 144.656L144.266 145.016C143.807 146.714 142.958 148.031 141.719 148.969C140.479 149.906 138.896 150.375 136.969 150.375C134.542 150.375 132.615 149.63 131.188 148.141C129.771 146.641 129.062 144.542 129.062 141.844C129.062 139.052 129.781 136.885 131.219 135.344C132.656 133.802 134.521 133.031 136.812 133.031C139.031 133.031 140.844 133.786 142.25 135.297C143.656 136.807 144.359 138.932 144.359 141.672C144.359 141.839 144.354 142.089 144.344 142.422H131.969C132.073 144.245 132.589 145.641 133.516 146.609C134.443 147.578 135.599 148.062 136.984 148.062C138.016 148.062 138.896 147.792 139.625 147.25C140.354 146.708 140.932 145.844 141.359 144.656ZM132.125 140.109H141.391C141.266 138.714 140.911 137.667 140.328 136.969C139.432 135.885 138.271 135.344 136.844 135.344C135.552 135.344 134.464 135.776 133.578 136.641C132.703 137.505 132.219 138.661 132.125 140.109Z" fill="#8E8E8E"/>
</g>
<defs>
<filter id="filter0_d_34_30" x="0" y="0" width="206" height="213" filterUnits="userSpaceOnUse" color-interpolation-filters="sRGB">
<feFlood flood-opacity="0" result="BackgroundImageFix"/>
<feColorMatrix in="SourceAlpha" type="matrix" values="0 0 0 0 0 0 0 0 0 0 0 0 0 0 0 0 0 0 127 0" result="hardAlpha"/>
<feOffset dy="4"/>
<feGaussianBlur stdDeviation="10"/>
<feComposite in2="hardAlpha" operator="out"/>
<feColorMatrix type="matrix" values="0 0 0 0 0 0 0 0 0 0 0 0 0 0 0 0 0 0 0.12 0"/>
<feBlend mode="normal" in2="BackgroundImageFix" result="effect1_dropShadow_34_30"/>
<feBlend mode="normal" in="SourceGraphic" in2="effect1_dropShadow_34_30" result="shape"/>
</filter>
</defs>
</svg>
