<svg width="147" height="48" viewBox="0 0 147 48" fill="none" xmlns="http://www.w3.org/2000/svg">
<path d="M32.0607 8.93934C32.5932 9.47187 32.6416 10.3052 32.2059 10.8924L32.0607 11.0607L19.122 24L32.0607 36.9393C32.5932 37.4719 32.6416 38.3052 32.2059 38.8924L32.0607 39.0607C31.5281 39.5932 30.6948 39.6416 30.1076 39.2059L29.9393 39.0607L15.9393 25.0607C15.4068 24.5281 15.3584 23.6948 15.7941 23.1076L15.9393 22.9393L29.9393 8.93934C30.5251 8.35355 31.4749 8.35355 32.0607 8.93934Z" fill="black"/>
<path d="M52.2898 33V14.0909H54.5795V23.4716H54.8011L63.2955 14.0909H66.2869L58.3466 22.6222L66.2869 33H63.517L56.9432 24.2102L54.5795 26.8693V33H52.2898ZM73.8603 33.2955C72.4938 33.2955 71.315 32.9938 70.324 32.3906C69.3392 31.7812 68.579 30.9318 68.0435 29.8423C67.5141 28.7467 67.2495 27.4725 67.2495 26.0199C67.2495 24.5672 67.5141 23.2869 68.0435 22.179C68.579 21.0649 69.3238 20.197 70.2779 19.5753C71.2381 18.9474 72.3584 18.6335 73.6387 18.6335C74.3773 18.6335 75.1067 18.7566 75.8269 19.0028C76.5471 19.2491 77.2026 19.6491 77.7935 20.2031C78.3844 20.7509 78.8553 21.4773 79.2061 22.3821C79.557 23.2869 79.7324 24.401 79.7324 25.7244V26.6477H68.8006V24.7642H77.5165C77.5165 23.964 77.3565 23.25 77.0364 22.6222C76.7225 21.9943 76.2731 21.4988 75.6884 21.1357C75.1098 20.7725 74.4266 20.5909 73.6387 20.5909C72.7708 20.5909 72.0198 20.8063 71.3858 21.2372C70.758 21.6619 70.2748 22.2159 69.9363 22.8991C69.5977 23.5824 69.4284 24.3149 69.4284 25.0966V26.3523C69.4284 27.4233 69.6131 28.3312 69.9824 29.076C70.3579 29.8146 70.878 30.3778 71.5428 30.7656C72.2076 31.1473 72.9801 31.3381 73.8603 31.3381C74.4327 31.3381 74.9498 31.258 75.4114 31.098C75.8792 30.9318 76.2824 30.6856 76.6209 30.3594C76.9595 30.027 77.2211 29.6146 77.4057 29.1222L79.5108 29.7131C79.2892 30.4271 78.9168 31.0549 78.3936 31.5966C77.8704 32.1321 77.2241 32.5507 76.4547 32.8523C75.6853 33.1477 74.8205 33.2955 73.8603 33.2955ZM83.0471 33V18.8182H85.1522V21.0341H85.3368C85.6323 20.277 86.1093 19.6892 86.7679 19.2706C87.4266 18.8459 88.2175 18.6335 89.1408 18.6335C90.0764 18.6335 90.8551 18.8459 91.4767 19.2706C92.1046 19.6892 92.5939 20.277 92.9448 21.0341H93.0925C93.4557 20.3016 94.0004 19.7199 94.7267 19.2891C95.4531 18.852 96.324 18.6335 97.3397 18.6335C98.6077 18.6335 99.6448 19.0305 100.451 19.8246C101.258 20.6125 101.661 21.8404 101.661 23.5085V33H99.4817V23.5085C99.4817 22.4621 99.1955 21.7143 98.623 21.2649C98.0506 20.8156 97.3766 20.5909 96.601 20.5909C95.6039 20.5909 94.8314 20.8925 94.2836 21.4957C93.7357 22.0928 93.4618 22.8499 93.4618 23.767V33H91.2459V23.2869C91.2459 22.4806 90.9843 21.8312 90.4611 21.3388C89.9379 20.8402 89.2639 20.5909 88.4391 20.5909C87.8728 20.5909 87.3435 20.7417 86.851 21.0433C86.3648 21.3449 85.9708 21.7635 85.6692 22.299C85.3738 22.8284 85.226 23.4408 85.226 24.1364V33H83.0471ZM105.94 33V14.0909H108.119V21.071H108.304C108.464 20.8248 108.685 20.5109 108.969 20.1293C109.258 19.7415 109.67 19.3968 110.206 19.0952C110.747 18.7874 111.48 18.6335 112.403 18.6335C113.597 18.6335 114.65 18.9321 115.561 19.5291C116.472 20.1262 117.183 20.9725 117.694 22.0682C118.205 23.1638 118.46 24.4564 118.46 25.946C118.46 27.4479 118.205 28.7498 117.694 29.8516C117.183 30.9472 116.475 31.7966 115.57 32.3999C114.665 32.9969 113.622 33.2955 112.44 33.2955C111.529 33.2955 110.8 33.1446 110.252 32.843C109.704 32.5353 109.282 32.1875 108.987 31.7997C108.692 31.4058 108.464 31.0795 108.304 30.821H108.045V33H105.94ZM108.082 25.9091C108.082 26.9801 108.239 27.925 108.553 28.7436C108.867 29.5561 109.326 30.1932 109.929 30.6548C110.532 31.1103 111.271 31.3381 112.145 31.3381C113.056 31.3381 113.816 31.098 114.425 30.6179C115.041 30.1316 115.502 29.4792 115.81 28.6605C116.124 27.8357 116.281 26.9186 116.281 25.9091C116.281 24.9119 116.127 24.0133 115.819 23.2131C115.518 22.4067 115.059 21.7696 114.444 21.3018C113.834 20.8279 113.068 20.5909 112.145 20.5909C111.258 20.5909 110.514 20.8156 109.91 21.2649C109.307 21.7081 108.852 22.3298 108.544 23.13C108.236 23.924 108.082 24.8504 108.082 25.9091ZM125.966 33.3324C125.068 33.3324 124.252 33.1631 123.52 32.8246C122.787 32.4799 122.206 31.9844 121.775 31.3381C121.344 30.6856 121.128 29.8977 121.128 28.9744C121.128 28.1619 121.288 27.5033 121.608 26.9986C121.929 26.4877 122.356 26.0876 122.892 25.7983C123.427 25.509 124.018 25.2936 124.665 25.152C125.317 25.0043 125.973 24.8873 126.631 24.8011C127.493 24.6903 128.192 24.6072 128.727 24.5518C129.269 24.4903 129.663 24.3887 129.909 24.2472C130.161 24.1056 130.287 23.8594 130.287 23.5085V23.4347C130.287 22.5237 130.038 21.8158 129.54 21.3111C129.047 20.8063 128.299 20.554 127.296 20.554C126.256 20.554 125.44 20.7817 124.849 21.2372C124.258 21.6927 123.843 22.179 123.603 22.696L121.535 21.9574C121.904 21.0956 122.396 20.4247 123.012 19.9446C123.634 19.4583 124.311 19.1198 125.043 18.929C125.782 18.732 126.508 18.6335 127.222 18.6335C127.678 18.6335 128.201 18.6889 128.792 18.7997C129.389 18.9044 129.964 19.1229 130.518 19.4553C131.078 19.7876 131.543 20.2893 131.912 20.9602C132.282 21.6312 132.466 22.5298 132.466 23.6562V33H130.287V31.0795H130.177C130.029 31.3873 129.783 31.7166 129.438 32.0675C129.093 32.4183 128.635 32.7169 128.062 32.9631C127.49 33.2093 126.791 33.3324 125.966 33.3324ZM126.299 31.375C127.161 31.375 127.887 31.2057 128.478 30.8672C129.075 30.5286 129.524 30.0916 129.826 29.5561C130.134 29.0206 130.287 28.4574 130.287 27.8665V25.8722C130.195 25.983 129.992 26.0845 129.678 26.1768C129.37 26.263 129.013 26.34 128.607 26.4077C128.207 26.4692 127.816 26.5246 127.434 26.5739C127.059 26.617 126.754 26.6539 126.52 26.6847C125.954 26.7585 125.425 26.8786 124.932 27.0447C124.446 27.2048 124.052 27.4479 123.751 27.7741C123.455 28.0942 123.307 28.5312 123.307 29.0852C123.307 29.8423 123.587 30.4148 124.148 30.8026C124.714 31.1842 125.431 31.375 126.299 31.375ZM138.623 14.0909V33H136.444V14.0909H138.623ZM142.613 33V18.8182H144.792V33H142.613ZM143.721 16.4545C143.297 16.4545 142.93 16.3099 142.623 16.0206C142.321 15.7313 142.17 15.3835 142.17 14.9773C142.17 14.571 142.321 14.2232 142.623 13.9339C142.93 13.6446 143.297 13.5 143.721 13.5C144.146 13.5 144.509 13.6446 144.811 13.9339C145.119 14.2232 145.273 14.571 145.273 14.9773C145.273 15.3835 145.119 15.7313 144.811 16.0206C144.509 16.3099 144.146 16.4545 143.721 16.4545Z" fill="black"/>
</svg>
