<svg width="124" height="48" viewBox="0 0 124 48" fill="none" xmlns="http://www.w3.org/2000/svg">
<path d="M91.9393 39.0607C91.4068 38.5281 91.3584 37.6948 91.7941 37.1076L91.9393 36.9393L104.878 24L91.9393 11.0607C91.4068 10.5281 91.3584 9.6948 91.7941 9.10758L91.9393 8.93934C92.4719 8.40681 93.3052 8.35839 93.8924 8.7941L94.0607 8.93934L108.061 22.9393C108.593 23.4719 108.642 24.3052 108.206 24.8924L108.061 25.0607L94.0607 39.0607C93.4749 39.6464 92.5251 39.6464 91.9393 39.0607Z" fill="black"/>
<path d="M2.28977 33V14.0909H4.57955V30.9688H13.3693V33H2.28977ZM20.7926 33.3324C19.8939 33.3324 19.0784 33.1631 18.3459 32.8246C17.6134 32.4799 17.0317 31.9844 16.6009 31.3381C16.17 30.6856 15.9545 29.8977 15.9545 28.9744C15.9545 28.1619 16.1146 27.5033 16.4347 26.9986C16.7547 26.4877 17.1825 26.0876 17.718 25.7983C18.2536 25.509 18.8445 25.2936 19.4908 25.152C20.1432 25.0043 20.7988 24.8873 21.4574 24.8011C22.3191 24.6903 23.0178 24.6072 23.5533 24.5518C24.0949 24.4903 24.4889 24.3887 24.7351 24.2472C24.9875 24.1056 25.1136 23.8594 25.1136 23.5085V23.4347C25.1136 22.5237 24.8643 21.8158 24.3658 21.3111C23.8733 20.8063 23.1255 20.554 22.1222 20.554C21.0819 20.554 20.2663 20.7817 19.6754 21.2372C19.0845 21.6927 18.669 22.179 18.429 22.696L16.3608 21.9574C16.7301 21.0956 17.2225 20.4247 17.8381 19.9446C18.4598 19.4583 19.1368 19.1198 19.8693 18.929C20.608 18.732 21.3343 18.6335 22.0483 18.6335C22.5038 18.6335 23.027 18.6889 23.6179 18.7997C24.215 18.9044 24.7905 19.1229 25.3445 19.4553C25.9046 19.7876 26.3693 20.2893 26.7386 20.9602C27.108 21.6312 27.2926 22.5298 27.2926 23.6562V33H25.1136V31.0795H25.0028C24.8551 31.3873 24.6089 31.7166 24.2642 32.0675C23.9195 32.4183 23.4609 32.7169 22.8885 32.9631C22.3161 33.2093 21.6174 33.3324 20.7926 33.3324ZM21.125 31.375C21.9867 31.375 22.7131 31.2057 23.304 30.8672C23.901 30.5286 24.3504 30.0916 24.652 29.5561C24.9598 29.0206 25.1136 28.4574 25.1136 27.8665V25.8722C25.0213 25.983 24.8182 26.0845 24.5043 26.1768C24.1965 26.263 23.8395 26.34 23.4332 26.4077C23.0331 26.4692 22.6423 26.5246 22.2607 26.5739C21.8852 26.617 21.5805 26.6539 21.3466 26.6847C20.7803 26.7585 20.2509 26.8786 19.7585 27.0447C19.2723 27.2048 18.8783 27.4479 18.5767 27.7741C18.2813 28.0942 18.1335 28.5312 18.1335 29.0852C18.1335 29.8423 18.4136 30.4148 18.9737 30.8026C19.54 31.1842 20.2571 31.375 21.125 31.375ZM33.4487 24.4688V33H31.2697V18.8182H33.3748V21.0341H33.5595C33.8919 20.3139 34.3966 19.7353 35.0737 19.2983C35.7508 18.8551 36.6248 18.6335 37.6958 18.6335C38.6561 18.6335 39.4963 18.8305 40.2164 19.2244C40.9366 19.6122 41.4967 20.2031 41.8968 20.9972C42.2969 21.785 42.497 22.7822 42.497 23.9886V33H40.318V24.1364C40.318 23.0223 40.0287 22.1544 39.4501 21.5327C38.8715 20.9048 38.0775 20.5909 37.068 20.5909C36.3725 20.5909 35.7508 20.7417 35.2029 21.0433C34.6613 21.3449 34.2335 21.785 33.9196 22.3636C33.6056 22.9422 33.4487 23.6439 33.4487 24.4688ZM46.4787 18.8182H48.6577V34.0341C48.6577 34.9081 48.5069 35.6652 48.2053 36.3054C47.9098 36.9455 47.4605 37.4411 46.8572 37.7919C46.2602 38.1428 45.5062 38.3182 44.5952 38.3182C44.5213 38.3182 44.4474 38.3182 44.3736 38.3182C44.2997 38.3182 44.2259 38.3182 44.152 38.3182V36.2869C44.2259 36.2869 44.2936 36.2869 44.3551 36.2869C44.4167 36.2869 44.4844 36.2869 44.5582 36.2869C45.223 36.2869 45.7093 36.09 46.017 35.696C46.3248 35.3082 46.4787 34.7543 46.4787 34.0341V18.8182ZM47.5497 16.4545C47.125 16.4545 46.7588 16.3099 46.451 16.0206C46.1494 15.7313 45.9986 15.3835 45.9986 14.9773C45.9986 14.571 46.1494 14.2232 46.451 13.9339C46.7588 13.6446 47.125 13.5 47.5497 13.5C47.9744 13.5 48.3376 13.6446 48.6392 13.9339C48.947 14.2232 49.1009 14.571 49.1009 14.9773C49.1009 15.3835 48.947 15.7313 48.6392 16.0206C48.3376 16.3099 47.9744 16.4545 47.5497 16.4545ZM61.5861 27.2017V18.8182H63.7651V33H61.5861V30.5994H61.4384C61.106 31.3196 60.589 31.9321 59.8873 32.4368C59.1855 32.9354 58.2992 33.1847 57.2282 33.1847C56.3418 33.1847 55.5539 32.9908 54.8645 32.603C54.1751 32.209 53.6335 31.6181 53.2395 30.8303C52.8456 30.0362 52.6486 29.036 52.6486 27.8295V18.8182H54.8276V27.6818C54.8276 28.7159 55.1169 29.5407 55.6955 30.1562C56.2802 30.7718 57.025 31.0795 57.9299 31.0795C58.4715 31.0795 59.0224 30.9411 59.5826 30.6641C60.1489 30.3871 60.6228 29.9624 61.0044 29.3899C61.3922 28.8175 61.5861 28.0881 61.5861 27.2017ZM73.9237 18.8182V20.6648H66.5742V18.8182H73.9237ZM68.7163 15.4205H70.8952V28.9375C70.8952 29.553 70.9845 30.0147 71.163 30.3224C71.3477 30.6241 71.5816 30.8272 71.8647 30.9318C72.154 31.0303 72.4587 31.0795 72.7788 31.0795C73.0188 31.0795 73.2158 31.0672 73.3697 31.0426C73.5236 31.0118 73.6467 30.9872 73.739 30.9688L74.1822 32.9261C74.0344 32.9815 73.8282 33.0369 73.5636 33.0923C73.2989 33.1539 72.9634 33.1847 72.5572 33.1847C71.9416 33.1847 71.3384 33.0523 70.7475 32.7876C70.1628 32.523 69.6765 32.1198 69.2887 31.5781C68.9071 31.0365 68.7163 30.3532 68.7163 29.5284V15.4205Z" fill="black"/>
</svg>
