<svg width="477" height="136" viewBox="0 0 477 136" fill="none" xmlns="http://www.w3.org/2000/svg">
<rect x="41" width="436" height="136" rx="8" fill="white"/>
<path d="M80.6364 59H74.7216V41.5455H80.7557C82.4886 41.5455 83.9773 41.8949 85.2216 42.5938C86.4716 43.2869 87.4318 44.2841 88.1023 45.5852C88.7727 46.8864 89.108 48.4432 89.108 50.2557C89.108 52.0739 88.7699 53.6364 88.0938 54.9432C87.4233 56.25 86.4545 57.2528 85.1875 57.9517C83.9261 58.6506 82.4091 59 80.6364 59ZM77.8835 56.2642H80.483C81.6989 56.2642 82.7131 56.0426 83.5256 55.5994C84.3381 55.1506 84.9489 54.483 85.358 53.5966C85.767 52.7045 85.9716 51.5909 85.9716 50.2557C85.9716 48.9205 85.767 47.8125 85.358 46.9318C84.9489 46.0455 84.3438 45.3835 83.5426 44.946C82.7472 44.5028 81.7585 44.2812 80.5767 44.2812H77.8835V56.2642ZM98.4913 59.2557C97.1788 59.2557 96.0453 58.983 95.0907 58.4375C94.1419 57.8864 93.4118 57.108 92.9004 56.1023C92.389 55.0909 92.1334 53.9006 92.1334 52.5312C92.1334 51.1847 92.389 50.0028 92.9004 48.9858C93.4174 47.9631 94.139 47.1676 95.0652 46.5994C95.9913 46.0256 97.0794 45.7386 98.3294 45.7386C99.1362 45.7386 99.8976 45.8693 100.613 46.1307C101.335 46.3864 101.971 46.7841 102.523 47.3239C103.079 47.8636 103.517 48.5511 103.835 49.3864C104.153 50.2159 104.312 51.2045 104.312 52.3523V53.2983H93.5822V51.2188H101.355C101.349 50.6278 101.221 50.1023 100.971 49.642C100.721 49.1761 100.372 48.8097 99.9231 48.5426C99.4799 48.2756 98.9629 48.142 98.372 48.142C97.7413 48.142 97.1873 48.2955 96.7101 48.6023C96.2328 48.9034 95.8606 49.3011 95.5936 49.7955C95.3322 50.2841 95.1987 50.821 95.193 51.4062V53.2216C95.193 53.983 95.3322 54.6364 95.6106 55.1818C95.889 55.7216 96.2782 56.1364 96.7782 56.4261C97.2782 56.7102 97.8635 56.8523 98.5339 56.8523C98.9828 56.8523 99.389 56.7898 99.7527 56.6648C100.116 56.5341 100.432 56.3438 100.699 56.0938C100.966 55.8438 101.167 55.5341 101.304 55.1648L104.184 55.4886C104.003 56.25 103.656 56.9148 103.145 57.483C102.639 58.0455 101.991 58.483 101.202 58.7955C100.412 59.1023 99.5084 59.2557 98.4913 59.2557ZM117.989 49.3693L115.177 49.6761C115.097 49.392 114.958 49.125 114.759 48.875C114.566 48.625 114.304 48.4233 113.975 48.2699C113.645 48.1165 113.242 48.0398 112.765 48.0398C112.123 48.0398 111.583 48.179 111.145 48.4574C110.713 48.7358 110.5 49.0966 110.506 49.5398C110.5 49.9205 110.64 50.2301 110.924 50.4688C111.213 50.7074 111.691 50.9034 112.355 51.0568L114.588 51.5341C115.827 51.8011 116.748 52.2244 117.35 52.804C117.958 53.3835 118.265 54.142 118.27 55.0795C118.265 55.9034 118.023 56.6307 117.546 57.2614C117.074 57.8864 116.418 58.375 115.577 58.7273C114.736 59.0795 113.77 59.2557 112.679 59.2557C111.077 59.2557 109.787 58.9205 108.81 58.25C107.833 57.5739 107.25 56.6335 107.063 55.429L110.071 55.1392C110.208 55.7301 110.498 56.1761 110.941 56.4773C111.384 56.7784 111.961 56.929 112.671 56.929C113.404 56.929 113.992 56.7784 114.435 56.4773C114.884 56.1761 115.108 55.804 115.108 55.3608C115.108 54.9858 114.963 54.6761 114.674 54.4318C114.39 54.1875 113.946 54 113.344 53.8693L111.111 53.4006C109.855 53.1392 108.927 52.6989 108.324 52.0795C107.722 51.4545 107.424 50.6648 107.429 49.7102C107.424 48.9034 107.642 48.2045 108.086 47.6136C108.534 47.017 109.157 46.5568 109.952 46.233C110.753 45.9034 111.677 45.7386 112.722 45.7386C114.256 45.7386 115.463 46.0653 116.344 46.7188C117.23 47.3722 117.779 48.2557 117.989 49.3693ZM124.347 54.892L124.338 51.1676H124.833L129.537 45.9091H133.142L127.355 52.3523H126.716L124.347 54.892ZM121.534 59V41.5455H124.62V59H121.534ZM129.75 59L125.489 53.0426L127.568 50.8693L133.441 59H129.75ZM135.918 59V45.9091H138.91V48.0909H139.046C139.285 47.3352 139.694 46.7528 140.273 46.3438C140.859 45.929 141.526 45.7216 142.276 45.7216C142.447 45.7216 142.637 45.7301 142.847 45.7472C143.063 45.7585 143.242 45.7784 143.384 45.8068V48.6449C143.254 48.5994 143.046 48.5597 142.762 48.5256C142.484 48.4858 142.214 48.4659 141.952 48.4659C141.39 48.4659 140.884 48.5881 140.435 48.8324C139.992 49.071 139.643 49.4034 139.387 49.8295C139.131 50.2557 139.004 50.7472 139.004 51.304V59H135.918ZM146.154 59V45.9091H149.239V59H146.154ZM147.705 44.0511C147.216 44.0511 146.796 43.8892 146.444 43.5653C146.091 43.2358 145.915 42.8409 145.915 42.3807C145.915 41.9148 146.091 41.5199 146.444 41.196C146.796 40.8665 147.216 40.7017 147.705 40.7017C148.199 40.7017 148.62 40.8665 148.966 41.196C149.319 41.5199 149.495 41.9148 149.495 42.3807C149.495 42.8409 149.319 43.2358 148.966 43.5653C148.62 43.8892 148.199 44.0511 147.705 44.0511ZM153.132 63.9091V45.9091H156.166V48.0739H156.345C156.504 47.7557 156.728 47.4176 157.018 47.0597C157.308 46.696 157.7 46.3864 158.194 46.1307C158.689 45.8693 159.319 45.7386 160.086 45.7386C161.098 45.7386 162.01 45.9972 162.822 46.5142C163.64 47.0256 164.288 47.7841 164.765 48.7898C165.248 49.7898 165.49 51.017 165.49 52.4716C165.49 53.9091 165.254 55.1307 164.782 56.1364C164.311 57.142 163.669 57.9091 162.856 58.4375C162.044 58.9659 161.123 59.2301 160.095 59.2301C159.345 59.2301 158.723 59.1051 158.228 58.8551C157.734 58.6051 157.336 58.304 157.035 57.9517C156.74 57.5937 156.51 57.2557 156.345 56.9375H156.217V63.9091H153.132ZM156.157 52.4545C156.157 53.3011 156.277 54.0426 156.515 54.679C156.76 55.3153 157.109 55.8125 157.564 56.1705C158.024 56.5227 158.581 56.6989 159.234 56.6989C159.916 56.6989 160.487 56.517 160.947 56.1534C161.407 55.7841 161.754 55.2812 161.987 54.6449C162.226 54.0028 162.345 53.2727 162.345 52.4545C162.345 51.642 162.228 50.9205 161.995 50.2898C161.762 49.6591 161.416 49.1648 160.956 48.8068C160.495 48.4489 159.922 48.2699 159.234 48.2699C158.575 48.2699 158.015 48.4432 157.555 48.7898C157.095 49.1364 156.745 49.6222 156.507 50.2472C156.274 50.8722 156.157 51.608 156.157 52.4545ZM179.198 49.3693L176.386 49.6761C176.306 49.392 176.167 49.125 175.968 48.875C175.775 48.625 175.514 48.4233 175.184 48.2699C174.855 48.1165 174.451 48.0398 173.974 48.0398C173.332 48.0398 172.792 48.179 172.355 48.4574C171.923 48.7358 171.71 49.0966 171.715 49.5398C171.71 49.9205 171.849 50.2301 172.133 50.4688C172.423 50.7074 172.9 50.9034 173.565 51.0568L175.798 51.5341C177.036 51.8011 177.957 52.2244 178.559 52.804C179.167 53.3835 179.474 54.142 179.48 55.0795C179.474 55.9034 179.232 56.6307 178.755 57.2614C178.284 57.8864 177.627 58.375 176.786 58.7273C175.946 59.0795 174.98 59.2557 173.889 59.2557C172.286 59.2557 170.997 58.9205 170.019 58.25C169.042 57.5739 168.46 56.6335 168.272 55.429L171.281 55.1392C171.417 55.7301 171.707 56.1761 172.15 56.4773C172.593 56.7784 173.17 56.929 173.88 56.929C174.613 56.929 175.201 56.7784 175.644 56.4773C176.093 56.1761 176.318 55.804 176.318 55.3608C176.318 54.9858 176.173 54.6761 175.883 54.4318C175.599 54.1875 175.156 54 174.553 53.8693L172.321 53.4006C171.065 53.1392 170.136 52.6989 169.534 52.0795C168.931 51.4545 168.633 50.6648 168.639 49.7102C168.633 48.9034 168.852 48.2045 169.295 47.6136C169.744 47.017 170.366 46.5568 171.161 46.233C171.963 45.9034 172.886 45.7386 173.931 45.7386C175.465 45.7386 176.673 46.0653 177.553 46.7188C178.44 47.3722 178.988 48.2557 179.198 49.3693ZM182.744 59V45.9091H185.829V59H182.744ZM184.295 44.0511C183.806 44.0511 183.386 43.8892 183.033 43.5653C182.681 43.2358 182.505 42.8409 182.505 42.3807C182.505 41.9148 182.681 41.5199 183.033 41.196C183.386 40.8665 183.806 40.7017 184.295 40.7017C184.789 40.7017 185.21 40.8665 185.556 41.196C185.908 41.5199 186.085 41.9148 186.085 42.3807C186.085 42.8409 185.908 43.2358 185.556 43.5653C185.21 43.8892 184.789 44.0511 184.295 44.0511ZM202.088 64.1818C200.98 64.1818 200.028 64.0313 199.233 63.7301C198.437 63.4347 197.798 63.0369 197.315 62.5369C196.832 62.0369 196.497 61.483 196.309 60.875L199.088 60.2017C199.213 60.4574 199.395 60.7102 199.633 60.9602C199.872 61.2159 200.193 61.4261 200.596 61.5909C201.005 61.7614 201.52 61.8466 202.139 61.8466C203.014 61.8466 203.738 61.6335 204.312 61.2074C204.886 60.7869 205.173 60.0938 205.173 59.1278V56.6477H205.02C204.861 56.9659 204.628 57.2926 204.321 57.6278C204.02 57.9631 203.619 58.2443 203.119 58.4716C202.625 58.6989 202.003 58.8125 201.253 58.8125C200.247 58.8125 199.335 58.5767 198.517 58.1051C197.704 57.6278 197.057 56.9176 196.574 55.9744C196.096 55.0256 195.858 53.8381 195.858 52.4119C195.858 50.9744 196.096 49.7614 196.574 48.7727C197.057 47.7784 197.707 47.0256 198.525 46.5142C199.343 45.9972 200.255 45.7386 201.261 45.7386C202.028 45.7386 202.659 45.8693 203.153 46.1307C203.653 46.3864 204.051 46.696 204.346 47.0597C204.642 47.4176 204.866 47.7557 205.02 48.0739H205.19V45.9091H208.233V59.2131C208.233 60.3324 207.966 61.2585 207.432 61.9915C206.897 62.7244 206.167 63.2727 205.241 63.6364C204.315 64 203.264 64.1818 202.088 64.1818ZM202.113 56.392C202.767 56.392 203.324 56.233 203.784 55.9148C204.244 55.5966 204.593 55.1392 204.832 54.5426C205.071 53.946 205.19 53.2301 205.19 52.3949C205.19 51.571 205.071 50.8494 204.832 50.2301C204.599 49.6108 204.253 49.1307 203.792 48.7898C203.338 48.4432 202.778 48.2699 202.113 48.2699C201.426 48.2699 200.852 48.4489 200.392 48.8068C199.932 49.1648 199.585 49.6562 199.352 50.2812C199.119 50.9006 199.003 51.6051 199.003 52.3949C199.003 53.196 199.119 53.8977 199.352 54.5C199.591 55.0966 199.94 55.5625 200.4 55.8977C200.866 56.2273 201.437 56.392 202.113 56.392ZM215.882 59.2642C215.052 59.2642 214.305 59.1165 213.64 58.821C212.981 58.5199 212.458 58.0767 212.072 57.4915C211.691 56.9062 211.501 56.1847 211.501 55.3267C211.501 54.5881 211.637 53.9773 211.91 53.4943C212.183 53.0114 212.555 52.625 213.027 52.3352C213.498 52.0455 214.029 51.8267 214.62 51.679C215.217 51.5256 215.833 51.4148 216.47 51.3466C217.237 51.267 217.859 51.196 218.336 51.1335C218.813 51.0653 219.16 50.9631 219.376 50.8267C219.598 50.6847 219.708 50.4659 219.708 50.1705V50.1193C219.708 49.4773 219.518 48.9801 219.137 48.6278C218.757 48.2756 218.208 48.0994 217.492 48.0994C216.737 48.0994 216.137 48.2642 215.694 48.5938C215.257 48.9233 214.961 49.3125 214.808 49.7614L211.927 49.3523C212.154 48.5568 212.529 47.892 213.052 47.358C213.575 46.8182 214.214 46.4148 214.97 46.1477C215.725 45.875 216.561 45.7386 217.475 45.7386C218.106 45.7386 218.734 45.8125 219.359 45.9602C219.984 46.108 220.555 46.3523 221.072 46.6932C221.589 47.0284 222.004 47.4858 222.316 48.0653C222.634 48.6449 222.794 49.3693 222.794 50.2386V59H219.828V57.2017H219.725C219.538 57.5653 219.274 57.9062 218.933 58.2244C218.598 58.5369 218.174 58.7898 217.663 58.983C217.157 59.1705 216.563 59.2642 215.882 59.2642ZM216.683 56.9972C217.302 56.9972 217.839 56.875 218.294 56.6307C218.748 56.3807 219.098 56.0511 219.342 55.642C219.592 55.233 219.717 54.7869 219.717 54.304V52.7614C219.62 52.8409 219.456 52.9148 219.223 52.983C218.995 53.0511 218.74 53.1108 218.456 53.1619C218.171 53.2131 217.89 53.2585 217.612 53.2983C217.333 53.3381 217.092 53.3722 216.887 53.4006C216.427 53.4631 216.015 53.5653 215.652 53.7074C215.288 53.8494 215.001 54.0483 214.791 54.304C214.581 54.554 214.475 54.8778 214.475 55.2756C214.475 55.8438 214.683 56.2727 215.098 56.5625C215.512 56.8523 216.041 56.9972 216.683 56.9972ZM226.616 59V45.9091H229.565V48.1335H229.718C229.991 47.3835 230.443 46.7983 231.073 46.3778C231.704 45.9517 232.457 45.7386 233.332 45.7386C234.218 45.7386 234.965 45.9545 235.573 46.3864C236.187 46.8125 236.619 47.3949 236.869 48.1335H237.005C237.295 47.4062 237.783 46.8267 238.471 46.3949C239.164 45.9574 239.985 45.7386 240.934 45.7386C242.139 45.7386 243.122 46.1193 243.883 46.8807C244.644 47.642 245.025 48.7528 245.025 50.2131V59H241.931V50.6903C241.931 49.8778 241.715 49.2841 241.283 48.9091C240.852 48.5284 240.323 48.3381 239.698 48.3381C238.954 48.3381 238.372 48.571 237.951 49.0369C237.536 49.4972 237.329 50.0966 237.329 50.8352V59H234.303V50.5625C234.303 49.8864 234.099 49.3466 233.69 48.9432C233.286 48.5398 232.758 48.3381 232.104 48.3381C231.661 48.3381 231.258 48.4517 230.894 48.679C230.531 48.9006 230.241 49.2159 230.025 49.625C229.809 50.0284 229.701 50.5 229.701 51.0398V59H226.616ZM249.011 59V41.5455H252.097V48.0739H252.224C252.383 47.7557 252.608 47.4176 252.898 47.0597C253.187 46.696 253.579 46.3864 254.074 46.1307C254.568 45.8693 255.199 45.7386 255.966 45.7386C256.977 45.7386 257.889 45.9972 258.702 46.5142C259.52 47.0256 260.168 47.7841 260.645 48.7898C261.128 49.7898 261.369 51.017 261.369 52.4716C261.369 53.9091 261.133 55.1307 260.662 56.1364C260.19 57.142 259.548 57.9091 258.736 58.4375C257.923 58.9659 257.003 59.2301 255.974 59.2301C255.224 59.2301 254.602 59.1051 254.108 58.8551C253.614 58.6051 253.216 58.304 252.915 57.9517C252.619 57.5937 252.389 57.2557 252.224 56.9375H252.045V59H249.011ZM252.037 52.4545C252.037 53.3011 252.156 54.0426 252.395 54.679C252.639 55.3153 252.989 55.8125 253.443 56.1705C253.903 56.5227 254.46 56.6989 255.114 56.6989C255.795 56.6989 256.366 56.517 256.827 56.1534C257.287 55.7841 257.633 55.2812 257.866 54.6449C258.105 54.0028 258.224 53.2727 258.224 52.4545C258.224 51.642 258.108 50.9205 257.875 50.2898C257.642 49.6591 257.295 49.1648 256.835 48.8068C256.375 48.4489 255.801 48.2699 255.114 48.2699C254.454 48.2699 253.895 48.4432 253.435 48.7898C252.974 49.1364 252.625 49.6222 252.386 50.2472C252.153 50.8722 252.037 51.608 252.037 52.4545ZM268.479 59.2642C267.65 59.2642 266.902 59.1165 266.238 58.821C265.579 58.5199 265.056 58.0767 264.669 57.4915C264.289 56.9062 264.098 56.1847 264.098 55.3267C264.098 54.5881 264.235 53.9773 264.508 53.4943C264.78 53.0114 265.152 52.625 265.624 52.3352C266.096 52.0455 266.627 51.8267 267.218 51.679C267.814 51.5256 268.431 51.4148 269.067 51.3466C269.834 51.267 270.456 51.196 270.934 51.1335C271.411 51.0653 271.758 50.9631 271.973 50.8267C272.195 50.6847 272.306 50.4659 272.306 50.1705V50.1193C272.306 49.4773 272.116 48.9801 271.735 48.6278C271.354 48.2756 270.806 48.0994 270.09 48.0994C269.334 48.0994 268.735 48.2642 268.292 48.5938C267.854 48.9233 267.559 49.3125 267.405 49.7614L264.525 49.3523C264.752 48.5568 265.127 47.892 265.65 47.358C266.172 46.8182 266.812 46.4148 267.567 46.1477C268.323 45.875 269.158 45.7386 270.073 45.7386C270.704 45.7386 271.331 45.8125 271.956 45.9602C272.581 46.108 273.152 46.3523 273.669 46.6932C274.187 47.0284 274.601 47.4858 274.914 48.0653C275.232 48.6449 275.391 49.3693 275.391 50.2386V59H272.425V57.2017H272.323C272.135 57.5653 271.871 57.9062 271.53 58.2244C271.195 58.5369 270.772 58.7898 270.26 58.983C269.755 59.1705 269.161 59.2642 268.479 59.2642ZM269.28 56.9972C269.9 56.9972 270.437 56.875 270.891 56.6307C271.346 56.3807 271.695 56.0511 271.939 55.642C272.189 55.233 272.314 54.7869 272.314 54.304V52.7614C272.218 52.8409 272.053 52.9148 271.82 52.983C271.593 53.0511 271.337 53.1108 271.053 53.1619C270.769 53.2131 270.488 53.2585 270.209 53.2983C269.931 53.3381 269.689 53.3722 269.485 53.4006C269.025 53.4631 268.613 53.5653 268.249 53.7074C267.885 53.8494 267.598 54.0483 267.388 54.304C267.178 54.554 267.073 54.8778 267.073 55.2756C267.073 55.8438 267.28 56.2727 267.695 56.5625C268.11 56.8523 268.638 56.9972 269.28 56.9972ZM279.213 59V45.9091H282.205V48.0909H282.341C282.58 47.3352 282.989 46.7528 283.568 46.3438C284.154 45.929 284.821 45.7216 285.571 45.7216C285.742 45.7216 285.932 45.7301 286.142 45.7472C286.358 45.7585 286.537 45.7784 286.679 45.8068V48.6449C286.549 48.5994 286.341 48.5597 286.057 48.5256C285.779 48.4858 285.509 48.4659 285.247 48.4659C284.685 48.4659 284.179 48.5881 283.73 48.8324C283.287 49.071 282.938 49.4034 282.682 49.8295C282.426 50.2557 282.299 50.7472 282.299 51.304V59H279.213ZM298.5 59H295.125L301.27 41.5455H305.173L311.327 59H307.952L303.29 45.125H303.153L298.5 59ZM298.611 52.1562H307.815V54.696H298.611V52.1562ZM325.74 59.2301C324.712 59.2301 323.792 58.9659 322.979 58.4375C322.167 57.9091 321.524 57.142 321.053 56.1364C320.581 55.1307 320.345 53.9091 320.345 52.4716C320.345 51.017 320.584 49.7898 321.061 48.7898C321.544 47.7841 322.195 47.0256 323.013 46.5142C323.831 45.9972 324.743 45.7386 325.749 45.7386C326.516 45.7386 327.147 45.8693 327.641 46.1307C328.135 46.3864 328.527 46.696 328.817 47.0597C329.107 47.4176 329.331 47.7557 329.49 48.0739H329.618V41.5455H332.712V59H329.678V56.9375H329.49C329.331 57.2557 329.101 57.5937 328.8 57.9517C328.499 58.304 328.101 58.6051 327.607 58.8551C327.113 59.1051 326.49 59.2301 325.74 59.2301ZM326.601 56.6989C327.255 56.6989 327.811 56.5227 328.272 56.1705C328.732 55.8125 329.081 55.3153 329.32 54.679C329.559 54.0426 329.678 53.3011 329.678 52.4545C329.678 51.608 329.559 50.8722 329.32 50.2472C329.087 49.6222 328.74 49.1364 328.28 48.7898C327.826 48.4432 327.266 48.2699 326.601 48.2699C325.914 48.2699 325.34 48.4489 324.88 48.8068C324.419 49.1648 324.073 49.6591 323.84 50.2898C323.607 50.9205 323.49 51.642 323.49 52.4545C323.49 53.2727 323.607 54.0028 323.84 54.6449C324.078 55.2812 324.428 55.7841 324.888 56.1534C325.354 56.517 325.925 56.6989 326.601 56.6989ZM340.487 59.2642C339.657 59.2642 338.91 59.1165 338.245 58.821C337.586 58.5199 337.063 58.0767 336.677 57.4915C336.296 56.9062 336.106 56.1847 336.106 55.3267C336.106 54.5881 336.242 53.9773 336.515 53.4943C336.788 53.0114 337.16 52.625 337.632 52.3352C338.103 52.0455 338.634 51.8267 339.225 51.679C339.822 51.5256 340.438 51.4148 341.075 51.3466C341.842 51.267 342.464 51.196 342.941 51.1335C343.418 51.0653 343.765 50.9631 343.981 50.8267C344.203 50.6847 344.313 50.4659 344.313 50.1705V50.1193C344.313 49.4773 344.123 48.9801 343.742 48.6278C343.362 48.2756 342.813 48.0994 342.097 48.0994C341.342 48.0994 340.742 48.2642 340.299 48.5938C339.862 48.9233 339.566 49.3125 339.413 49.7614L336.532 49.3523C336.759 48.5568 337.134 47.892 337.657 47.358C338.18 46.8182 338.819 46.4148 339.575 46.1477C340.33 45.875 341.166 45.7386 342.08 45.7386C342.711 45.7386 343.339 45.8125 343.964 45.9602C344.589 46.108 345.16 46.3523 345.677 46.6932C346.194 47.0284 346.609 47.4858 346.921 48.0653C347.239 48.6449 347.399 49.3693 347.399 50.2386V59H344.433V57.2017H344.33C344.143 57.5653 343.879 57.9062 343.538 58.2244C343.203 58.5369 342.779 58.7898 342.268 58.983C341.762 59.1705 341.168 59.2642 340.487 59.2642ZM341.288 56.9972C341.907 56.9972 342.444 56.875 342.899 56.6307C343.353 56.3807 343.703 56.0511 343.947 55.642C344.197 55.233 344.322 54.7869 344.322 54.304V52.7614C344.225 52.8409 344.061 52.9148 343.828 52.983C343.6 53.0511 343.345 53.1108 343.061 53.1619C342.776 53.2131 342.495 53.2585 342.217 53.2983C341.938 53.3381 341.697 53.3722 341.492 53.4006C341.032 53.4631 340.62 53.5653 340.257 53.7074C339.893 53.8494 339.606 54.0483 339.396 54.304C339.186 54.554 339.08 54.8778 339.08 55.2756C339.08 55.8438 339.288 56.2727 339.703 56.5625C340.117 56.8523 340.646 56.9972 341.288 56.9972ZM354.306 51.3295V59H351.221V45.9091H354.17V48.1335H354.323C354.624 47.4006 355.104 46.8182 355.763 46.3864C356.428 45.9545 357.249 45.7386 358.227 45.7386C359.13 45.7386 359.917 45.9318 360.587 46.3182C361.263 46.7045 361.786 47.2642 362.156 47.9972C362.531 48.7301 362.715 49.6193 362.709 50.6648V59H359.624V51.142C359.624 50.267 359.397 49.5824 358.942 49.0881C358.494 48.5937 357.871 48.3466 357.076 48.3466C356.536 48.3466 356.056 48.4659 355.636 48.7045C355.221 48.9375 354.894 49.2756 354.656 49.7188C354.423 50.1619 354.306 50.6989 354.306 51.3295ZM373.375 59V41.5455H380.057C381.319 41.5455 382.367 41.7443 383.202 42.142C384.043 42.5341 384.671 43.071 385.086 43.7528C385.506 44.4347 385.716 45.2074 385.716 46.071C385.716 46.7812 385.58 47.3892 385.307 47.8949C385.034 48.3949 384.668 48.8011 384.208 49.1136C383.747 49.4261 383.233 49.6506 382.665 49.7869V49.9574C383.284 49.9915 383.878 50.1818 384.446 50.5284C385.02 50.8693 385.489 51.3523 385.853 51.9773C386.216 52.6023 386.398 53.358 386.398 54.2443C386.398 55.1477 386.179 55.9602 385.742 56.6818C385.304 57.3977 384.645 57.9631 383.765 58.3778C382.884 58.7926 381.776 59 380.441 59H373.375ZM376.537 56.358H379.938C381.086 56.358 381.912 56.1392 382.418 55.7017C382.929 55.2585 383.185 54.6903 383.185 53.9972C383.185 53.4801 383.057 53.0142 382.801 52.5994C382.546 52.179 382.182 51.8494 381.711 51.6108C381.239 51.3665 380.676 51.2443 380.023 51.2443H376.537V56.358ZM376.537 48.9688H379.665C380.211 48.9688 380.702 48.8693 381.14 48.6705C381.577 48.4659 381.921 48.179 382.171 47.8097C382.426 47.4347 382.554 46.9915 382.554 46.4801C382.554 45.804 382.316 45.2472 381.838 44.8097C381.367 44.3722 380.665 44.1534 379.733 44.1534H376.537V48.9688ZM84.9318 85.3693L82.1193 85.6761C82.0398 85.392 81.9006 85.125 81.7017 84.875C81.5085 84.625 81.2472 84.4233 80.9176 84.2699C80.5881 84.1165 80.1847 84.0398 79.7074 84.0398C79.0653 84.0398 78.5256 84.179 78.0881 84.4574C77.6562 84.7358 77.4432 85.0966 77.4489 85.5398C77.4432 85.9205 77.5824 86.2301 77.8665 86.4688C78.1563 86.7074 78.6335 86.9034 79.2983 87.0568L81.5312 87.5341C82.7699 87.8011 83.6903 88.2244 84.2926 88.804C84.9006 89.3835 85.2074 90.142 85.2131 91.0795C85.2074 91.9034 84.9659 92.6307 84.4886 93.2614C84.017 93.8864 83.3608 94.375 82.5199 94.7273C81.679 95.0795 80.7131 95.2557 79.6222 95.2557C78.0199 95.2557 76.7301 94.9205 75.7528 94.25C74.7756 93.5739 74.1932 92.6335 74.0057 91.429L77.0142 91.1392C77.1506 91.7301 77.4403 92.1761 77.8835 92.4773C78.3267 92.7784 78.9034 92.929 79.6136 92.929C80.3466 92.929 80.9347 92.7784 81.3778 92.4773C81.8267 92.1761 82.0511 91.804 82.0511 91.3608C82.0511 90.9858 81.9063 90.6761 81.6165 90.4318C81.3324 90.1875 80.8892 90 80.2869 89.8693L78.054 89.4006C76.7983 89.1392 75.8693 88.6989 75.267 88.0795C74.6648 87.4545 74.3665 86.6648 74.3722 85.7102C74.3665 84.9034 74.5852 84.2045 75.0284 83.6136C75.4773 83.017 76.0994 82.5568 76.8949 82.233C77.696 81.9034 78.6193 81.7386 79.6648 81.7386C81.1989 81.7386 82.4063 82.0653 83.2869 82.7188C84.1733 83.3722 84.7216 84.2557 84.9318 85.3693ZM94.2726 95.2557C92.9601 95.2557 91.8265 94.983 90.872 94.4375C89.9231 93.8864 89.193 93.108 88.6816 92.1023C88.1703 91.0909 87.9146 89.9006 87.9146 88.5312C87.9146 87.1847 88.1703 86.0028 88.6816 84.9858C89.1987 83.9631 89.9203 83.1676 90.8464 82.5994C91.7726 82.0256 92.8606 81.7386 94.1106 81.7386C94.9174 81.7386 95.6788 81.8693 96.3947 82.1307C97.1163 82.3864 97.7527 82.7841 98.3038 83.3239C98.8606 83.8636 99.2981 84.5511 99.6163 85.3864C99.9345 86.2159 100.094 87.2045 100.094 88.3523V89.2983H89.3635V87.2188H97.1362C97.1305 86.6278 97.0027 86.1023 96.7527 85.642C96.5027 85.1761 96.1532 84.8097 95.7044 84.5426C95.2612 84.2756 94.7441 84.142 94.1532 84.142C93.5226 84.142 92.9686 84.2955 92.4913 84.6023C92.014 84.9034 91.6419 85.3011 91.3748 85.7955C91.1135 86.2841 90.9799 86.821 90.9743 87.4062V89.2216C90.9743 89.983 91.1135 90.6364 91.3919 91.1818C91.6703 91.7216 92.0595 92.1364 92.5595 92.4261C93.0595 92.7102 93.6447 92.8523 94.3152 92.8523C94.764 92.8523 95.1703 92.7898 95.5339 92.6648C95.8976 92.5341 96.2129 92.3438 96.4799 92.0938C96.747 91.8438 96.9487 91.5341 97.0851 91.1648L99.9657 91.4886C99.7839 92.25 99.4373 92.9148 98.926 93.483C98.4203 94.0455 97.7726 94.483 96.9828 94.7955C96.193 95.1023 95.2896 95.2557 94.2726 95.2557ZM109.134 95.2557C107.827 95.2557 106.705 94.9688 105.767 94.3949C104.836 93.821 104.117 93.0284 103.611 92.017C103.111 91 102.861 89.8295 102.861 88.5057C102.861 87.1761 103.117 86.0028 103.628 84.9858C104.14 83.9631 104.861 83.1676 105.793 82.5994C106.73 82.0256 107.838 81.7386 109.117 81.7386C110.179 81.7386 111.12 81.9347 111.938 82.3267C112.762 82.7131 113.418 83.2614 113.907 83.9716C114.395 84.6761 114.674 85.5 114.742 86.4432H111.793C111.674 85.8125 111.39 85.2869 110.941 84.8665C110.498 84.4403 109.904 84.2273 109.159 84.2273C108.529 84.2273 107.975 84.3977 107.498 84.7386C107.02 85.0739 106.648 85.5568 106.381 86.1875C106.12 86.8182 105.989 87.5739 105.989 88.4545C105.989 89.3466 106.12 90.1136 106.381 90.7557C106.642 91.392 107.009 91.8835 107.48 92.2301C107.958 92.571 108.517 92.7415 109.159 92.7415C109.614 92.7415 110.02 92.6562 110.378 92.4858C110.742 92.3097 111.046 92.0568 111.29 91.7273C111.534 91.3977 111.702 90.9972 111.793 90.5256H114.742C114.668 91.4517 114.395 92.2727 113.924 92.9886C113.452 93.6989 112.81 94.2557 111.998 94.6591C111.185 95.0568 110.23 95.2557 109.134 95.2557ZM121.762 95.2642C120.933 95.2642 120.186 95.1165 119.521 94.821C118.862 94.5199 118.339 94.0767 117.953 93.4915C117.572 92.9062 117.382 92.1847 117.382 91.3267C117.382 90.5881 117.518 89.9773 117.791 89.4943C118.063 89.0114 118.436 88.625 118.907 88.3352C119.379 88.0455 119.91 87.8267 120.501 87.679C121.097 87.5256 121.714 87.4148 122.35 87.3466C123.117 87.267 123.74 87.196 124.217 87.1335C124.694 87.0653 125.041 86.9631 125.257 86.8267C125.478 86.6847 125.589 86.4659 125.589 86.1705V86.1193C125.589 85.4773 125.399 84.9801 125.018 84.6278C124.637 84.2756 124.089 84.0994 123.373 84.0994C122.617 84.0994 122.018 84.2642 121.575 84.5938C121.137 84.9233 120.842 85.3125 120.688 85.7614L117.808 85.3523C118.035 84.5568 118.41 83.892 118.933 83.358C119.455 82.8182 120.095 82.4148 120.85 82.1477C121.606 81.875 122.441 81.7386 123.356 81.7386C123.987 81.7386 124.615 81.8125 125.24 81.9602C125.865 82.108 126.436 82.3523 126.953 82.6932C127.47 83.0284 127.884 83.4858 128.197 84.0653C128.515 84.6449 128.674 85.3693 128.674 86.2386V95H125.708V93.2017H125.606C125.419 93.5653 125.154 93.9062 124.813 94.2244C124.478 94.5369 124.055 94.7898 123.544 94.983C123.038 95.1705 122.444 95.2642 121.762 95.2642ZM122.563 92.9972C123.183 92.9972 123.72 92.875 124.174 92.6307C124.629 92.3807 124.978 92.0511 125.222 91.642C125.472 91.233 125.597 90.7869 125.597 90.304V88.7614C125.501 88.8409 125.336 88.9148 125.103 88.983C124.876 89.0511 124.62 89.1108 124.336 89.1619C124.052 89.2131 123.771 89.2585 123.492 89.2983C123.214 89.3381 122.973 89.3722 122.768 89.4006C122.308 89.4631 121.896 89.5653 121.532 89.7074C121.169 89.8494 120.882 90.0483 120.671 90.304C120.461 90.554 120.356 90.8778 120.356 91.2756C120.356 91.8438 120.563 92.2727 120.978 92.5625C121.393 92.8523 121.921 92.9972 122.563 92.9972ZM132.496 95V81.9091H135.488V84.0909H135.624C135.863 83.3352 136.272 82.7528 136.852 82.3438C137.437 81.929 138.104 81.7216 138.854 81.7216C139.025 81.7216 139.215 81.7301 139.425 81.7472C139.641 81.7585 139.82 81.7784 139.962 81.8068V84.6449C139.832 84.5994 139.624 84.5597 139.34 84.5256C139.062 84.4858 138.792 84.4659 138.531 84.4659C137.968 84.4659 137.462 84.5881 137.014 84.8324C136.57 85.071 136.221 85.4034 135.965 85.8295C135.71 86.2557 135.582 86.7472 135.582 87.304V95H132.496ZM146.265 95.2642C145.435 95.2642 144.688 95.1165 144.023 94.821C143.364 94.5199 142.841 94.0767 142.455 93.4915C142.074 92.9062 141.884 92.1847 141.884 91.3267C141.884 90.5881 142.02 89.9773 142.293 89.4943C142.566 89.0114 142.938 88.625 143.41 88.3352C143.881 88.0455 144.412 87.8267 145.003 87.679C145.6 87.5256 146.216 87.4148 146.853 87.3466C147.62 87.267 148.242 87.196 148.719 87.1335C149.197 87.0653 149.543 86.9631 149.759 86.8267C149.981 86.6847 150.091 86.4659 150.091 86.1705V86.1193C150.091 85.4773 149.901 84.9801 149.52 84.6278C149.14 84.2756 148.591 84.0994 147.876 84.0994C147.12 84.0994 146.52 84.2642 146.077 84.5938C145.64 84.9233 145.344 85.3125 145.191 85.7614L142.31 85.3523C142.537 84.5568 142.912 83.892 143.435 83.358C143.958 82.8182 144.597 82.4148 145.353 82.1477C146.109 81.875 146.944 81.7386 147.859 81.7386C148.489 81.7386 149.117 81.8125 149.742 81.9602C150.367 82.108 150.938 82.3523 151.455 82.6932C151.972 83.0284 152.387 83.4858 152.699 84.0653C153.018 84.6449 153.177 85.3693 153.177 86.2386V95H150.211V93.2017H150.109C149.921 93.5653 149.657 93.9062 149.316 94.2244C148.981 94.5369 148.557 94.7898 148.046 94.983C147.54 95.1705 146.947 95.2642 146.265 95.2642ZM147.066 92.9972C147.685 92.9972 148.222 92.875 148.677 92.6307C149.131 92.3807 149.481 92.0511 149.725 91.642C149.975 91.233 150.1 90.7869 150.1 90.304V88.7614C150.003 88.8409 149.839 88.9148 149.606 88.983C149.378 89.0511 149.123 89.1108 148.839 89.1619C148.555 89.2131 148.273 89.2585 147.995 89.2983C147.716 89.3381 147.475 89.3722 147.27 89.4006C146.81 89.4631 146.398 89.5653 146.035 89.7074C145.671 89.8494 145.384 90.0483 145.174 90.304C144.964 90.554 144.859 90.8778 144.859 91.2756C144.859 91.8438 145.066 92.2727 145.481 92.5625C145.895 92.8523 146.424 92.9972 147.066 92.9972ZM163.808 95V77.5455H166.894V84.0739H167.022C167.181 83.7557 167.405 83.4176 167.695 83.0597C167.985 82.696 168.377 82.3864 168.871 82.1307C169.365 81.8693 169.996 81.7386 170.763 81.7386C171.774 81.7386 172.686 81.9972 173.499 82.5142C174.317 83.0256 174.965 83.7841 175.442 84.7898C175.925 85.7898 176.166 87.017 176.166 88.4716C176.166 89.9091 175.931 91.1307 175.459 92.1364C174.987 93.142 174.345 93.9091 173.533 94.4375C172.72 94.9659 171.8 95.2301 170.772 95.2301C170.022 95.2301 169.399 95.1051 168.905 94.8551C168.411 94.6051 168.013 94.304 167.712 93.9517C167.416 93.5937 167.186 93.2557 167.022 92.9375H166.843V95H163.808ZM166.834 88.4545C166.834 89.3011 166.953 90.0426 167.192 90.679C167.436 91.3153 167.786 91.8125 168.24 92.1705C168.701 92.5227 169.257 92.6989 169.911 92.6989C170.593 92.6989 171.164 92.517 171.624 92.1534C172.084 91.7841 172.431 91.2812 172.664 90.6449C172.902 90.0028 173.022 89.2727 173.022 88.4545C173.022 87.642 172.905 86.9205 172.672 86.2898C172.439 85.6591 172.093 85.1648 171.632 84.8068C171.172 84.4489 170.598 84.2699 169.911 84.2699C169.252 84.2699 168.692 84.4432 168.232 84.7898C167.772 85.1364 167.422 85.6222 167.183 86.2472C166.951 86.8722 166.834 87.608 166.834 88.4545ZM185.305 95.2557C183.992 95.2557 182.859 94.983 181.904 94.4375C180.955 93.8864 180.225 93.108 179.714 92.1023C179.202 91.0909 178.947 89.9006 178.947 88.5312C178.947 87.1847 179.202 86.0028 179.714 84.9858C180.231 83.9631 180.952 83.1676 181.879 82.5994C182.805 82.0256 183.893 81.7386 185.143 81.7386C185.95 81.7386 186.711 81.8693 187.427 82.1307C188.148 82.3864 188.785 82.7841 189.336 83.3239C189.893 83.8636 190.33 84.5511 190.648 85.3864C190.967 86.2159 191.126 87.2045 191.126 88.3523V89.2983H180.396V87.2188H188.168C188.163 86.6278 188.035 86.1023 187.785 85.642C187.535 85.1761 187.185 84.8097 186.737 84.5426C186.293 84.2756 185.776 84.142 185.185 84.142C184.555 84.142 184.001 84.2955 183.523 84.6023C183.046 84.9034 182.674 85.3011 182.407 85.7955C182.146 86.2841 182.012 86.821 182.006 87.4062V89.2216C182.006 89.983 182.146 90.6364 182.424 91.1818C182.702 91.7216 183.092 92.1364 183.592 92.4261C184.092 92.7102 184.677 92.8523 185.347 92.8523C185.796 92.8523 186.202 92.7898 186.566 92.6648C186.93 92.5341 187.245 92.3438 187.512 92.0938C187.779 91.8438 187.981 91.5341 188.117 91.1648L190.998 91.4886C190.816 92.25 190.47 92.9148 189.958 93.483C189.452 94.0455 188.805 94.483 188.015 94.7955C187.225 95.1023 186.322 95.2557 185.305 95.2557ZM194.456 95V81.9091H197.447V84.0909H197.584C197.822 83.3352 198.231 82.7528 198.811 82.3438C199.396 81.929 200.064 81.7216 200.814 81.7216C200.984 81.7216 201.175 81.7301 201.385 81.7472C201.601 81.7585 201.78 81.7784 201.922 81.8068V84.6449C201.791 84.5994 201.584 84.5597 201.3 84.5256C201.021 84.4858 200.751 84.4659 200.49 84.4659C199.927 84.4659 199.422 84.5881 198.973 84.8324C198.53 85.071 198.18 85.4034 197.925 85.8295C197.669 86.2557 197.541 86.7472 197.541 87.304V95H194.456ZM213.035 89.4943V81.9091H216.12V95H213.129V92.6733H212.993C212.697 93.4062 212.211 94.0057 211.535 94.4716C210.865 94.9375 210.038 95.1705 209.055 95.1705C208.197 95.1705 207.439 94.9801 206.78 94.5994C206.126 94.2131 205.615 93.6534 205.245 92.9205C204.876 92.1818 204.691 91.2898 204.691 90.2443V81.9091H207.777V89.767C207.777 90.5966 208.004 91.2557 208.459 91.7443C208.913 92.233 209.51 92.4773 210.248 92.4773C210.703 92.4773 211.143 92.3665 211.569 92.1449C211.995 91.9233 212.345 91.5938 212.618 91.1562C212.896 90.7131 213.035 90.1591 213.035 89.4943ZM220.013 95V81.9091H223.005V84.0909H223.141C223.38 83.3352 223.789 82.7528 224.368 82.3438C224.953 81.929 225.621 81.7216 226.371 81.7216C226.541 81.7216 226.732 81.7301 226.942 81.7472C227.158 81.7585 227.337 81.7784 227.479 81.8068V84.6449C227.348 84.5994 227.141 84.5597 226.857 84.5256C226.578 84.4858 226.308 84.4659 226.047 84.4659C225.485 84.4659 224.979 84.5881 224.53 84.8324C224.087 85.071 223.737 85.4034 223.482 85.8295C223.226 86.2557 223.098 86.7472 223.098 87.304V95H220.013ZM238.592 89.4943V81.9091H241.678V95H238.686V92.6733H238.55C238.254 93.4062 237.769 94.0057 237.092 94.4716C236.422 94.9375 235.595 95.1705 234.612 95.1705C233.754 95.1705 232.996 94.9801 232.337 94.5994C231.683 94.2131 231.172 93.6534 230.803 92.9205C230.433 92.1818 230.249 91.2898 230.249 90.2443V81.9091H233.334V89.767C233.334 90.5966 233.561 91.2557 234.016 91.7443C234.47 92.233 235.067 92.4773 235.805 92.4773C236.26 92.4773 236.7 92.3665 237.127 92.1449C237.553 91.9233 237.902 91.5938 238.175 91.1562C238.453 90.7131 238.592 90.1591 238.592 89.4943ZM252.107 81.9091V84.2955H244.582V81.9091H252.107ZM246.44 78.7727H249.525V91.0625C249.525 91.4773 249.587 91.7955 249.712 92.017C249.843 92.233 250.013 92.3807 250.224 92.4602C250.434 92.5398 250.667 92.5795 250.923 92.5795C251.116 92.5795 251.292 92.5653 251.451 92.5369C251.616 92.5085 251.741 92.483 251.826 92.4602L252.346 94.8722C252.181 94.929 251.945 94.9915 251.638 95.0597C251.337 95.1278 250.968 95.1676 250.53 95.179C249.758 95.2017 249.062 95.0852 248.442 94.8295C247.823 94.5682 247.332 94.1648 246.968 93.6193C246.61 93.0739 246.434 92.392 246.44 91.5739V78.7727ZM259.174 95.2642C258.345 95.2642 257.598 95.1165 256.933 94.821C256.274 94.5199 255.751 94.0767 255.365 93.4915C254.984 92.9062 254.794 92.1847 254.794 91.3267C254.794 90.5881 254.93 89.9773 255.203 89.4943C255.476 89.0114 255.848 88.625 256.319 88.3352C256.791 88.0455 257.322 87.8267 257.913 87.679C258.51 87.5256 259.126 87.4148 259.763 87.3466C260.53 87.267 261.152 87.196 261.629 87.1335C262.106 87.0653 262.453 86.9631 262.669 86.8267C262.89 86.6847 263.001 86.4659 263.001 86.1705V86.1193C263.001 85.4773 262.811 84.9801 262.43 84.6278C262.049 84.2756 261.501 84.0994 260.785 84.0994C260.03 84.0994 259.43 84.2642 258.987 84.5938C258.549 84.9233 258.254 85.3125 258.101 85.7614L255.22 85.3523C255.447 84.5568 255.822 83.892 256.345 83.358C256.868 82.8182 257.507 82.4148 258.263 82.1477C259.018 81.875 259.853 81.7386 260.768 81.7386C261.399 81.7386 262.027 81.8125 262.652 81.9602C263.277 82.108 263.848 82.3523 264.365 82.6932C264.882 83.0284 265.297 83.4858 265.609 84.0653C265.927 84.6449 266.086 85.3693 266.086 86.2386V95H263.12V93.2017H263.018C262.831 93.5653 262.567 93.9062 262.226 94.2244C261.89 94.5369 261.467 94.7898 260.956 94.983C260.45 95.1705 259.856 95.2642 259.174 95.2642ZM259.976 92.9972C260.595 92.9972 261.132 92.875 261.586 92.6307C262.041 92.3807 262.39 92.0511 262.635 91.642C262.885 91.233 263.01 90.7869 263.01 90.304V88.7614C262.913 88.8409 262.748 88.9148 262.515 88.983C262.288 89.0511 262.032 89.1108 261.748 89.1619C261.464 89.2131 261.183 89.2585 260.905 89.2983C260.626 89.3381 260.385 89.3722 260.18 89.4006C259.72 89.4631 259.308 89.5653 258.944 89.7074C258.581 89.8494 258.294 90.0483 258.084 90.304C257.873 90.554 257.768 90.8778 257.768 91.2756C257.768 91.8438 257.976 92.2727 258.39 92.5625C258.805 92.8523 259.334 92.9972 259.976 92.9972ZM272.994 87.3295V95H269.909V81.9091H272.858V84.1335H273.011C273.312 83.4006 273.792 82.8182 274.451 82.3864C275.116 81.9545 275.937 81.7386 276.914 81.7386C277.818 81.7386 278.605 81.9318 279.275 82.3182C279.951 82.7045 280.474 83.2642 280.843 83.9972C281.218 84.7301 281.403 85.6193 281.397 86.6648V95H278.312V87.142C278.312 86.267 278.085 85.5824 277.63 85.0881C277.181 84.5937 276.559 84.3466 275.764 84.3466C275.224 84.3466 274.744 84.4659 274.323 84.7045C273.909 84.9375 273.582 85.2756 273.343 85.7188C273.11 86.1619 272.994 86.6989 272.994 87.3295ZM295.702 77.5455L295.421 89.8693H292.677L292.404 77.5455H295.702ZM294.049 95.1875C293.532 95.1875 293.089 95.0057 292.719 94.642C292.356 94.2784 292.174 93.8352 292.174 93.3125C292.174 92.8011 292.356 92.3636 292.719 92C293.089 91.6364 293.532 91.4545 294.049 91.4545C294.555 91.4545 294.992 91.6364 295.361 92C295.736 92.3636 295.924 92.8011 295.924 93.3125C295.924 93.6591 295.836 93.9744 295.66 94.2585C295.489 94.5426 295.262 94.7699 294.978 94.9403C294.7 95.1051 294.39 95.1875 294.049 95.1875Z" fill="black"/>
<path d="M38.7946 16.8671C40.9026 14.1728 45.2007 15.1962 45.8682 18.5514L50.9473 44.0823C51.3783 46.249 49.9712 48.3549 47.8045 48.7859L18.1337 54.6878C14.4951 55.4115 11.917 51.2217 14.2029 48.2999L38.7946 16.8671Z" fill="white"/>
</svg>
