<svg width="476" height="136" viewBox="0 0 476 136" fill="none" xmlns="http://www.w3.org/2000/svg">
<rect x="40" width="436" height="136" rx="8" fill="white"/>
<path d="M75.9631 59H72.5881L78.733 41.5455H82.6364L88.7898 59H85.4148L80.7528 45.125H80.6165L75.9631 59ZM76.0739 52.1562H85.2784V54.696H76.0739V52.1562ZM91.6724 63.9091V45.9091H94.7065V48.0739H94.8855C95.0446 47.7557 95.269 47.4176 95.5588 47.0597C95.8486 46.696 96.2406 46.3864 96.7349 46.1307C97.2292 45.8693 97.8599 45.7386 98.627 45.7386C99.6383 45.7386 100.55 45.9972 101.363 46.5142C102.181 47.0256 102.829 47.7841 103.306 48.7898C103.789 49.7898 104.03 51.017 104.03 52.4716C104.03 53.9091 103.795 55.1307 103.323 56.1364C102.851 57.142 102.209 57.9091 101.397 58.4375C100.584 58.9659 99.6639 59.2301 98.6355 59.2301C97.8855 59.2301 97.2633 59.1051 96.769 58.8551C96.2747 58.6051 95.877 58.304 95.5758 57.9517C95.2804 57.5937 95.0503 57.2557 94.8855 56.9375H94.7576V63.9091H91.6724ZM94.698 52.4545C94.698 53.3011 94.8173 54.0426 95.0559 54.679C95.3003 55.3153 95.6497 55.8125 96.1042 56.1705C96.5645 56.5227 97.1213 56.6989 97.7747 56.6989C98.4565 56.6989 99.0275 56.517 99.4878 56.1534C99.948 55.7841 100.295 55.2812 100.528 54.6449C100.766 54.0028 100.885 53.2727 100.885 52.4545C100.885 51.642 100.769 50.9205 100.536 50.2898C100.303 49.6591 99.9565 49.1648 99.4963 48.8068C99.0361 48.4489 98.4622 48.2699 97.7747 48.2699C97.1156 48.2699 96.5559 48.4432 96.0957 48.7898C95.6355 49.1364 95.2861 49.6222 95.0474 50.2472C94.8145 50.8722 94.698 51.608 94.698 52.4545ZM111.159 59.2642C110.33 59.2642 109.583 59.1165 108.918 58.821C108.259 58.5199 107.736 58.0767 107.35 57.4915C106.969 56.9062 106.779 56.1847 106.779 55.3267C106.779 54.5881 106.915 53.9773 107.188 53.4943C107.461 53.0114 107.833 52.625 108.304 52.3352C108.776 52.0455 109.307 51.8267 109.898 51.679C110.495 51.5256 111.111 51.4148 111.748 51.3466C112.515 51.267 113.137 51.196 113.614 51.1335C114.091 51.0653 114.438 50.9631 114.654 50.8267C114.875 50.6847 114.986 50.4659 114.986 50.1705V50.1193C114.986 49.4773 114.796 48.9801 114.415 48.6278C114.034 48.2756 113.486 48.0994 112.77 48.0994C112.015 48.0994 111.415 48.2642 110.972 48.5938C110.534 48.9233 110.239 49.3125 110.086 49.7614L107.205 49.3523C107.432 48.5568 107.807 47.892 108.33 47.358C108.853 46.8182 109.492 46.4148 110.248 46.1477C111.003 45.875 111.838 45.7386 112.753 45.7386C113.384 45.7386 114.012 45.8125 114.637 45.9602C115.262 46.108 115.833 46.3523 116.35 46.6932C116.867 47.0284 117.282 47.4858 117.594 48.0653C117.912 48.6449 118.071 49.3693 118.071 50.2386V59H115.105V57.2017H115.003C114.816 57.5653 114.552 57.9062 114.211 58.2244C113.875 58.5369 113.452 58.7898 112.941 58.983C112.435 59.1705 111.841 59.2642 111.159 59.2642ZM111.961 56.9972C112.58 56.9972 113.117 56.875 113.571 56.6307C114.026 56.3807 114.375 56.0511 114.62 55.642C114.87 55.233 114.995 54.7869 114.995 54.304V52.7614C114.898 52.8409 114.733 52.9148 114.5 52.983C114.273 53.0511 114.017 53.1108 113.733 53.1619C113.449 53.2131 113.168 53.2585 112.89 53.2983C112.611 53.3381 112.37 53.3722 112.165 53.4006C111.705 53.4631 111.293 53.5653 110.929 53.7074C110.566 53.8494 110.279 54.0483 110.069 54.304C109.858 54.554 109.753 54.8778 109.753 55.2756C109.753 55.8438 109.961 56.2727 110.375 56.5625C110.79 56.8523 111.319 56.9972 111.961 56.9972ZM124.706 54.892L124.698 51.1676H125.192L129.897 45.9091H133.502L127.715 52.3523H127.075L124.706 54.892ZM121.894 59V41.5455H124.979V59H121.894ZM130.11 59L125.848 53.0426L127.928 50.8693L133.8 59H130.11ZM140.045 59.2642C139.215 59.2642 138.468 59.1165 137.803 58.821C137.144 58.5199 136.621 58.0767 136.235 57.4915C135.854 56.9062 135.664 56.1847 135.664 55.3267C135.664 54.5881 135.8 53.9773 136.073 53.4943C136.346 53.0114 136.718 52.625 137.19 52.3352C137.661 52.0455 138.193 51.8267 138.783 51.679C139.38 51.5256 139.996 51.4148 140.633 51.3466C141.4 51.267 142.022 51.196 142.499 51.1335C142.977 51.0653 143.323 50.9631 143.539 50.8267C143.761 50.6847 143.871 50.4659 143.871 50.1705V50.1193C143.871 49.4773 143.681 48.9801 143.3 48.6278C142.92 48.2756 142.371 48.0994 141.656 48.0994C140.9 48.0994 140.3 48.2642 139.857 48.5938C139.42 48.9233 139.124 49.3125 138.971 49.7614L136.09 49.3523C136.318 48.5568 136.693 47.892 137.215 47.358C137.738 46.8182 138.377 46.4148 139.133 46.1477C139.889 45.875 140.724 45.7386 141.639 45.7386C142.269 45.7386 142.897 45.8125 143.522 45.9602C144.147 46.108 144.718 46.3523 145.235 46.6932C145.752 47.0284 146.167 47.4858 146.479 48.0653C146.798 48.6449 146.957 49.3693 146.957 50.2386V59H143.991V57.2017H143.889C143.701 57.5653 143.437 57.9062 143.096 58.2244C142.761 58.5369 142.337 58.7898 141.826 58.983C141.32 59.1705 140.727 59.2642 140.045 59.2642ZM140.846 56.9972C141.465 56.9972 142.002 56.875 142.457 56.6307C142.911 56.3807 143.261 56.0511 143.505 55.642C143.755 55.233 143.88 54.7869 143.88 54.304V52.7614C143.783 52.8409 143.619 52.9148 143.386 52.983C143.158 53.0511 142.903 53.1108 142.619 53.1619C142.335 53.2131 142.053 53.2585 141.775 53.2983C141.496 53.3381 141.255 53.3722 141.05 53.4006C140.59 53.4631 140.178 53.5653 139.815 53.7074C139.451 53.8494 139.164 54.0483 138.954 54.304C138.744 54.554 138.639 54.8778 138.639 55.2756C138.639 55.8438 138.846 56.2727 139.261 56.5625C139.675 56.8523 140.204 56.9972 140.846 56.9972ZM153.864 51.3295V59H150.779V41.5455H153.796V48.1335H153.949C154.256 47.3949 154.731 46.8125 155.373 46.3864C156.02 45.9545 156.844 45.7386 157.844 45.7386C158.753 45.7386 159.546 45.929 160.222 46.3097C160.898 46.6903 161.421 47.2472 161.79 47.9801C162.165 48.7131 162.353 49.608 162.353 50.6648V59H159.268V51.142C159.268 50.2614 159.04 49.5767 158.586 49.0881C158.137 48.5937 157.506 48.3466 156.694 48.3466C156.148 48.3466 155.66 48.4659 155.228 48.7045C154.802 48.9375 154.466 49.2756 154.222 49.7188C153.984 50.1619 153.864 50.6989 153.864 51.3295ZM176.658 59.2642C175.828 59.2642 175.081 59.1165 174.416 58.821C173.757 58.5199 173.235 58.0767 172.848 57.4915C172.468 56.9062 172.277 56.1847 172.277 55.3267C172.277 54.5881 172.414 53.9773 172.686 53.4943C172.959 53.0114 173.331 52.625 173.803 52.3352C174.274 52.0455 174.806 51.8267 175.397 51.679C175.993 51.5256 176.61 51.4148 177.246 51.3466C178.013 51.267 178.635 51.196 179.112 51.1335C179.59 51.0653 179.936 50.9631 180.152 50.8267C180.374 50.6847 180.485 50.4659 180.485 50.1705V50.1193C180.485 49.4773 180.294 48.9801 179.914 48.6278C179.533 48.2756 178.985 48.0994 178.269 48.0994C177.513 48.0994 176.914 48.2642 176.47 48.5938C176.033 48.9233 175.737 49.3125 175.584 49.7614L172.703 49.3523C172.931 48.5568 173.306 47.892 173.828 47.358C174.351 46.8182 174.99 46.4148 175.746 46.1477C176.502 45.875 177.337 45.7386 178.252 45.7386C178.882 45.7386 179.51 45.8125 180.135 45.9602C180.76 46.108 181.331 46.3523 181.848 46.6932C182.365 47.0284 182.78 47.4858 183.093 48.0653C183.411 48.6449 183.57 49.3693 183.57 50.2386V59H180.604V57.2017H180.502C180.314 57.5653 180.05 57.9062 179.709 58.2244C179.374 58.5369 178.951 58.7898 178.439 58.983C177.933 59.1705 177.34 59.2642 176.658 59.2642ZM177.459 56.9972C178.078 56.9972 178.615 56.875 179.07 56.6307C179.524 56.3807 179.874 56.0511 180.118 55.642C180.368 55.233 180.493 54.7869 180.493 54.304V52.7614C180.397 52.8409 180.232 52.9148 179.999 52.983C179.772 53.0511 179.516 53.1108 179.232 53.1619C178.948 53.2131 178.666 53.2585 178.388 53.2983C178.11 53.3381 177.868 53.3722 177.664 53.4006C177.203 53.4631 176.791 53.5653 176.428 53.7074C176.064 53.8494 175.777 54.0483 175.567 54.304C175.357 54.554 175.252 54.8778 175.252 55.2756C175.252 55.8438 175.459 56.2727 175.874 56.5625C176.289 56.8523 176.817 56.9972 177.459 56.9972ZM192.25 59.2301C191.222 59.2301 190.301 58.9659 189.489 58.4375C188.676 57.9091 188.034 57.142 187.563 56.1364C187.091 55.1307 186.855 53.9091 186.855 52.4716C186.855 51.017 187.094 49.7898 187.571 48.7898C188.054 47.7841 188.705 47.0256 189.523 46.5142C190.341 45.9972 191.253 45.7386 192.259 45.7386C193.026 45.7386 193.656 45.8693 194.151 46.1307C194.645 46.3864 195.037 46.696 195.327 47.0597C195.617 47.4176 195.841 47.7557 196 48.0739H196.128V41.5455H199.222V59H196.188V56.9375H196C195.841 57.2557 195.611 57.5937 195.31 57.9517C195.009 58.304 194.611 58.6051 194.117 58.8551C193.622 59.1051 193 59.2301 192.25 59.2301ZM193.111 56.6989C193.764 56.6989 194.321 56.5227 194.781 56.1705C195.242 55.8125 195.591 55.3153 195.83 54.679C196.068 54.0426 196.188 53.3011 196.188 52.4545C196.188 51.608 196.068 50.8722 195.83 50.2472C195.597 49.6222 195.25 49.1364 194.79 48.7898C194.335 48.4432 193.776 48.2699 193.111 48.2699C192.423 48.2699 191.849 48.4489 191.389 48.8068C190.929 49.1648 190.582 49.6591 190.349 50.2898C190.117 50.9205 190 51.642 190 52.4545C190 53.2727 190.117 54.0028 190.349 54.6449C190.588 55.2812 190.938 55.7841 191.398 56.1534C191.864 56.517 192.435 56.6989 193.111 56.6989ZM206.996 59.2642C206.167 59.2642 205.42 59.1165 204.755 58.821C204.096 58.5199 203.573 58.0767 203.187 57.4915C202.806 56.9062 202.616 56.1847 202.616 55.3267C202.616 54.5881 202.752 53.9773 203.025 53.4943C203.297 53.0114 203.67 52.625 204.141 52.3352C204.613 52.0455 205.144 51.8267 205.735 51.679C206.332 51.5256 206.948 51.4148 207.584 51.3466C208.351 51.267 208.974 51.196 209.451 51.1335C209.928 51.0653 210.275 50.9631 210.491 50.8267C210.712 50.6847 210.823 50.4659 210.823 50.1705V50.1193C210.823 49.4773 210.633 48.9801 210.252 48.6278C209.871 48.2756 209.323 48.0994 208.607 48.0994C207.851 48.0994 207.252 48.2642 206.809 48.5938C206.371 48.9233 206.076 49.3125 205.922 49.7614L203.042 49.3523C203.269 48.5568 203.644 47.892 204.167 47.358C204.69 46.8182 205.329 46.4148 206.084 46.1477C206.84 45.875 207.675 45.7386 208.59 45.7386C209.221 45.7386 209.849 45.8125 210.474 45.9602C211.099 46.108 211.67 46.3523 212.187 46.6932C212.704 47.0284 213.118 47.4858 213.431 48.0653C213.749 48.6449 213.908 49.3693 213.908 50.2386V59H210.942V57.2017H210.84C210.653 57.5653 210.388 57.9062 210.047 58.2244C209.712 58.5369 209.289 58.7898 208.778 58.983C208.272 59.1705 207.678 59.2642 206.996 59.2642ZM207.797 56.9972C208.417 56.9972 208.954 56.875 209.408 56.6307C209.863 56.3807 210.212 56.0511 210.457 55.642C210.707 55.233 210.832 54.7869 210.832 54.304V52.7614C210.735 52.8409 210.57 52.9148 210.337 52.983C210.11 53.0511 209.854 53.1108 209.57 53.1619C209.286 53.2131 209.005 53.2585 208.726 53.2983C208.448 53.3381 208.207 53.3722 208.002 53.4006C207.542 53.4631 207.13 53.5653 206.766 53.7074C206.403 53.8494 206.116 54.0483 205.905 54.304C205.695 54.554 205.59 54.8778 205.59 55.2756C205.59 55.8438 205.797 56.2727 206.212 56.5625C206.627 56.8523 207.155 56.9972 207.797 56.9972ZM224.404 63.9091V45.9091H227.438V48.0739H227.617C227.776 47.7557 228 47.4176 228.29 47.0597C228.58 46.696 228.972 46.3864 229.466 46.1307C229.96 45.8693 230.591 45.7386 231.358 45.7386C232.37 45.7386 233.282 45.9972 234.094 46.5142C234.912 47.0256 235.56 47.7841 236.037 48.7898C236.52 49.7898 236.762 51.017 236.762 52.4716C236.762 53.9091 236.526 55.1307 236.054 56.1364C235.583 57.142 234.941 57.9091 234.128 58.4375C233.316 58.9659 232.395 59.2301 231.367 59.2301C230.617 59.2301 229.995 59.1051 229.5 58.8551C229.006 58.6051 228.608 58.304 228.307 57.9517C228.012 57.5937 227.782 57.2557 227.617 56.9375H227.489V63.9091H224.404ZM227.429 52.4545C227.429 53.3011 227.549 54.0426 227.787 54.679C228.032 55.3153 228.381 55.8125 228.835 56.1705C229.296 56.5227 229.853 56.6989 230.506 56.6989C231.188 56.6989 231.759 56.517 232.219 56.1534C232.679 55.7841 233.026 55.2812 233.259 54.6449C233.497 54.0028 233.617 53.2727 233.617 52.4545C233.617 51.642 233.5 50.9205 233.267 50.2898C233.034 49.6591 232.688 49.1648 232.228 48.8068C231.767 48.4489 231.193 48.2699 230.506 48.2699C229.847 48.2699 229.287 48.4432 228.827 48.7898C228.367 49.1364 228.017 49.6222 227.779 50.2472C227.546 50.8722 227.429 51.608 227.429 52.4545ZM245.919 59.2557C244.607 59.2557 243.473 58.983 242.519 58.4375C241.57 57.8864 240.84 57.108 240.328 56.1023C239.817 55.0909 239.561 53.9006 239.561 52.5312C239.561 51.1847 239.817 50.0028 240.328 48.9858C240.845 47.9631 241.567 47.1676 242.493 46.5994C243.419 46.0256 244.507 45.7386 245.757 45.7386C246.564 45.7386 247.325 45.8693 248.041 46.1307C248.763 46.3864 249.399 46.7841 249.95 47.3239C250.507 47.8636 250.945 48.5511 251.263 49.3864C251.581 50.2159 251.74 51.2045 251.74 52.3523V53.2983H241.01V51.2188H248.783C248.777 50.6278 248.649 50.1023 248.399 49.642C248.149 49.1761 247.8 48.8097 247.351 48.5426C246.908 48.2756 246.391 48.142 245.8 48.142C245.169 48.142 244.615 48.2955 244.138 48.6023C243.661 48.9034 243.288 49.3011 243.021 49.7955C242.76 50.2841 242.627 50.821 242.621 51.4062V53.2216C242.621 53.983 242.76 54.6364 243.038 55.1818C243.317 55.7216 243.706 56.1364 244.206 56.4261C244.706 56.7102 245.291 56.8523 245.962 56.8523C246.411 56.8523 246.817 56.7898 247.18 56.6648C247.544 56.5341 247.859 56.3438 248.127 56.0938C248.394 55.8438 248.595 55.5341 248.732 55.1648L251.612 55.4886C251.43 56.25 251.084 56.9148 250.573 57.483C250.067 58.0455 249.419 58.483 248.629 58.7955C247.84 59.1023 246.936 59.2557 245.919 59.2557ZM255.07 59V45.9091H258.062V48.0909H258.198C258.437 47.3352 258.846 46.7528 259.425 46.3438C260.011 45.929 260.678 45.7216 261.428 45.7216C261.599 45.7216 261.789 45.7301 261.999 45.7472C262.215 45.7585 262.394 45.7784 262.536 45.8068V48.6449C262.405 48.5994 262.198 48.5597 261.914 48.5256C261.636 48.4858 261.366 48.4659 261.104 48.4659C260.542 48.4659 260.036 48.5881 259.587 48.8324C259.144 49.071 258.795 49.4034 258.539 49.8295C258.283 50.2557 258.155 50.7472 258.155 51.304V59H255.07ZM265.442 59V41.5455H268.527V48.0739H268.655C268.814 47.7557 269.039 47.4176 269.329 47.0597C269.618 46.696 270.01 46.3864 270.505 46.1307C270.999 45.8693 271.63 45.7386 272.397 45.7386C273.408 45.7386 274.32 45.9972 275.133 46.5142C275.951 47.0256 276.598 47.7841 277.076 48.7898C277.559 49.7898 277.8 51.017 277.8 52.4716C277.8 53.9091 277.564 55.1307 277.093 56.1364C276.621 57.142 275.979 57.9091 275.167 58.4375C274.354 58.9659 273.434 59.2301 272.405 59.2301C271.655 59.2301 271.033 59.1051 270.539 58.8551C270.044 58.6051 269.647 58.304 269.346 57.9517C269.05 57.5937 268.82 57.2557 268.655 56.9375H268.476V59H265.442ZM268.468 52.4545C268.468 53.3011 268.587 54.0426 268.826 54.679C269.07 55.3153 269.419 55.8125 269.874 56.1705C270.334 56.5227 270.891 56.6989 271.544 56.6989C272.226 56.6989 272.797 56.517 273.258 56.1534C273.718 55.7841 274.064 55.2812 274.297 54.6449C274.536 54.0028 274.655 53.2727 274.655 52.4545C274.655 51.642 274.539 50.9205 274.306 50.2898C274.073 49.6591 273.726 49.1648 273.266 48.8068C272.806 48.4489 272.232 48.2699 271.544 48.2699C270.885 48.2699 270.326 48.4432 269.866 48.7898C269.405 49.1364 269.056 49.6222 268.817 50.2472C268.584 50.8722 268.468 51.608 268.468 52.4545ZM286.938 59.2557C285.626 59.2557 284.492 58.983 283.538 58.4375C282.589 57.8864 281.859 57.108 281.348 56.1023C280.836 55.0909 280.581 53.9006 280.581 52.5312C280.581 51.1847 280.836 50.0028 281.348 48.9858C281.865 47.9631 282.586 47.1676 283.512 46.5994C284.438 46.0256 285.527 45.7386 286.777 45.7386C287.583 45.7386 288.345 45.8693 289.061 46.1307C289.782 46.3864 290.419 46.7841 290.97 47.3239C291.527 47.8636 291.964 48.5511 292.282 49.3864C292.6 50.2159 292.76 51.2045 292.76 52.3523V53.2983H282.029V51.2188H289.802C289.796 50.6278 289.669 50.1023 289.419 49.642C289.169 49.1761 288.819 48.8097 288.37 48.5426C287.927 48.2756 287.41 48.142 286.819 48.142C286.188 48.142 285.635 48.2955 285.157 48.6023C284.68 48.9034 284.308 49.3011 284.041 49.7955C283.779 50.2841 283.646 50.821 283.64 51.4062V53.2216C283.64 53.983 283.779 54.6364 284.058 55.1818C284.336 55.7216 284.725 56.1364 285.225 56.4261C285.725 56.7102 286.311 56.8523 286.981 56.8523C287.43 56.8523 287.836 56.7898 288.2 56.6648C288.563 56.5341 288.879 56.3438 289.146 56.0938C289.413 55.8438 289.615 55.5341 289.751 55.1648L292.632 55.4886C292.45 56.25 292.103 56.9148 291.592 57.483C291.086 58.0455 290.438 58.483 289.649 58.7955C288.859 59.1023 287.956 59.2557 286.938 59.2557ZM300.948 59.2301C299.919 59.2301 298.999 58.9659 298.186 58.4375C297.374 57.9091 296.732 57.142 296.26 56.1364C295.788 55.1307 295.553 53.9091 295.553 52.4716C295.553 51.017 295.791 49.7898 296.269 48.7898C296.752 47.7841 297.402 47.0256 298.22 46.5142C299.038 45.9972 299.95 45.7386 300.956 45.7386C301.723 45.7386 302.354 45.8693 302.848 46.1307C303.342 46.3864 303.734 46.696 304.024 47.0597C304.314 47.4176 304.538 47.7557 304.698 48.0739H304.825V41.5455H307.919V59H304.885V56.9375H304.698C304.538 57.2557 304.308 57.5937 304.007 57.9517C303.706 58.304 303.308 58.6051 302.814 58.8551C302.32 59.1051 301.698 59.2301 300.948 59.2301ZM301.808 56.6989C302.462 56.6989 303.019 56.5227 303.479 56.1705C303.939 55.8125 304.288 55.3153 304.527 54.679C304.766 54.0426 304.885 53.3011 304.885 52.4545C304.885 51.608 304.766 50.8722 304.527 50.2472C304.294 49.6222 303.948 49.1364 303.487 48.7898C303.033 48.4432 302.473 48.2699 301.808 48.2699C301.121 48.2699 300.547 48.4489 300.087 48.8068C299.627 49.1648 299.28 49.6591 299.047 50.2898C298.814 50.9205 298.698 51.642 298.698 52.4545C298.698 53.2727 298.814 54.0028 299.047 54.6449C299.286 55.2812 299.635 55.7841 300.095 56.1534C300.561 56.517 301.132 56.6989 301.808 56.6989ZM315.694 59.2642C314.864 59.2642 314.117 59.1165 313.452 58.821C312.793 58.5199 312.271 58.0767 311.884 57.4915C311.503 56.9062 311.313 56.1847 311.313 55.3267C311.313 54.5881 311.45 53.9773 311.722 53.4943C311.995 53.0114 312.367 52.625 312.839 52.3352C313.31 52.0455 313.842 51.8267 314.432 51.679C315.029 51.5256 315.646 51.4148 316.282 51.3466C317.049 51.267 317.671 51.196 318.148 51.1335C318.626 51.0653 318.972 50.9631 319.188 50.8267C319.41 50.6847 319.521 50.4659 319.521 50.1705V50.1193C319.521 49.4773 319.33 48.9801 318.95 48.6278C318.569 48.2756 318.021 48.0994 317.305 48.0994C316.549 48.0994 315.95 48.2642 315.506 48.5938C315.069 48.9233 314.773 49.3125 314.62 49.7614L311.739 49.3523C311.967 48.5568 312.342 47.892 312.864 47.358C313.387 46.8182 314.026 46.4148 314.782 46.1477C315.538 45.875 316.373 45.7386 317.288 45.7386C317.918 45.7386 318.546 45.8125 319.171 45.9602C319.796 46.108 320.367 46.3523 320.884 46.6932C321.401 47.0284 321.816 47.4858 322.129 48.0653C322.447 48.6449 322.606 49.3693 322.606 50.2386V59H319.64V57.2017H319.538C319.35 57.5653 319.086 57.9062 318.745 58.2244C318.41 58.5369 317.986 58.7898 317.475 58.983C316.969 59.1705 316.376 59.2642 315.694 59.2642ZM316.495 56.9972C317.114 56.9972 317.651 56.875 318.106 56.6307C318.56 56.3807 318.91 56.0511 319.154 55.642C319.404 55.233 319.529 54.7869 319.529 54.304V52.7614C319.432 52.8409 319.268 52.9148 319.035 52.983C318.807 53.0511 318.552 53.1108 318.268 53.1619C317.984 53.2131 317.702 53.2585 317.424 53.2983C317.146 53.3381 316.904 53.3722 316.7 53.4006C316.239 53.4631 315.827 53.5653 315.464 53.7074C315.1 53.8494 314.813 54.0483 314.603 54.304C314.393 54.554 314.288 54.8778 314.288 55.2756C314.288 55.8438 314.495 56.2727 314.91 56.5625C315.325 56.8523 315.853 56.9972 316.495 56.9972ZM330.195 59.2642C329.366 59.2642 328.618 59.1165 327.954 58.821C327.295 58.5199 326.772 58.0767 326.385 57.4915C326.005 56.9062 325.814 56.1847 325.814 55.3267C325.814 54.5881 325.951 53.9773 326.224 53.4943C326.496 53.0114 326.868 52.625 327.34 52.3352C327.812 52.0455 328.343 51.8267 328.934 51.679C329.53 51.5256 330.147 51.4148 330.783 51.3466C331.55 51.267 332.172 51.196 332.65 51.1335C333.127 51.0653 333.474 50.9631 333.689 50.8267C333.911 50.6847 334.022 50.4659 334.022 50.1705V50.1193C334.022 49.4773 333.831 48.9801 333.451 48.6278C333.07 48.2756 332.522 48.0994 331.806 48.0994C331.05 48.0994 330.451 48.2642 330.008 48.5938C329.57 48.9233 329.275 49.3125 329.121 49.7614L326.241 49.3523C326.468 48.5568 326.843 47.892 327.366 47.358C327.888 46.8182 328.527 46.4148 329.283 46.1477C330.039 45.875 330.874 45.7386 331.789 45.7386C332.42 45.7386 333.047 45.8125 333.672 45.9602C334.297 46.108 334.868 46.3523 335.385 46.6932C335.902 47.0284 336.317 47.4858 336.63 48.0653C336.948 48.6449 337.107 49.3693 337.107 50.2386V59H334.141V57.2017H334.039C333.851 57.5653 333.587 57.9062 333.246 58.2244C332.911 58.5369 332.488 58.7898 331.976 58.983C331.471 59.1705 330.877 59.2642 330.195 59.2642ZM330.996 56.9972C331.616 56.9972 332.152 56.875 332.607 56.6307C333.062 56.3807 333.411 56.0511 333.655 55.642C333.905 55.233 334.03 54.7869 334.03 54.304V52.7614C333.934 52.8409 333.769 52.9148 333.536 52.983C333.309 53.0511 333.053 53.1108 332.769 53.1619C332.485 53.2131 332.204 53.2585 331.925 53.2983C331.647 53.3381 331.405 53.3722 331.201 53.4006C330.741 53.4631 330.329 53.5653 329.965 53.7074C329.601 53.8494 329.314 54.0483 329.104 54.304C328.894 54.554 328.789 54.8778 328.789 55.2756C328.789 55.8438 328.996 56.2727 329.411 56.5625C329.826 56.8523 330.354 56.9972 330.996 56.9972ZM344.015 51.3295V59H340.929V45.9091H343.878V48.1335H344.032C344.333 47.4006 344.813 46.8182 345.472 46.3864C346.137 45.9545 346.958 45.7386 347.935 45.7386C348.838 45.7386 349.625 45.9318 350.296 46.3182C350.972 46.7045 351.495 47.2642 351.864 47.9972C352.239 48.7301 352.424 49.6193 352.418 50.6648V59H349.333V51.142C349.333 50.267 349.105 49.5824 348.651 49.0881C348.202 48.5937 347.58 48.3466 346.784 48.3466C346.245 48.3466 345.765 48.4659 345.344 48.7045C344.929 48.9375 344.603 49.2756 344.364 49.7188C344.131 50.1619 344.015 50.6989 344.015 51.3295ZM367.805 59.2301C366.777 59.2301 365.857 58.9659 365.044 58.4375C364.232 57.9091 363.589 57.142 363.118 56.1364C362.646 55.1307 362.41 53.9091 362.41 52.4716C362.41 51.017 362.649 49.7898 363.126 48.7898C363.609 47.7841 364.26 47.0256 365.078 46.5142C365.896 45.9972 366.808 45.7386 367.814 45.7386C368.581 45.7386 369.212 45.8693 369.706 46.1307C370.2 46.3864 370.592 46.696 370.882 47.0597C371.172 47.4176 371.396 47.7557 371.555 48.0739H371.683V41.5455H374.777V59H371.743V56.9375H371.555C371.396 57.2557 371.166 57.5937 370.865 57.9517C370.564 58.304 370.166 58.6051 369.672 58.8551C369.178 59.1051 368.555 59.2301 367.805 59.2301ZM368.666 56.6989C369.32 56.6989 369.876 56.5227 370.337 56.1705C370.797 55.8125 371.146 55.3153 371.385 54.679C371.624 54.0426 371.743 53.3011 371.743 52.4545C371.743 51.608 371.624 50.8722 371.385 50.2472C371.152 49.6222 370.805 49.1364 370.345 48.7898C369.891 48.4432 369.331 48.2699 368.666 48.2699C367.979 48.2699 367.405 48.4489 366.945 48.8068C366.484 49.1648 366.138 49.6591 365.905 50.2898C365.672 50.9205 365.555 51.642 365.555 52.4545C365.555 53.2727 365.672 54.0028 365.905 54.6449C366.143 55.2812 366.493 55.7841 366.953 56.1534C367.419 56.517 367.99 56.6989 368.666 56.6989ZM382.552 59.2642C381.722 59.2642 380.975 59.1165 380.31 58.821C379.651 58.5199 379.128 58.0767 378.742 57.4915C378.361 56.9062 378.171 56.1847 378.171 55.3267C378.171 54.5881 378.307 53.9773 378.58 53.4943C378.853 53.0114 379.225 52.625 379.697 52.3352C380.168 52.0455 380.699 51.8267 381.29 51.679C381.887 51.5256 382.503 51.4148 383.14 51.3466C383.907 51.267 384.529 51.196 385.006 51.1335C385.483 51.0653 385.83 50.9631 386.046 50.8267C386.268 50.6847 386.378 50.4659 386.378 50.1705V50.1193C386.378 49.4773 386.188 48.9801 385.807 48.6278C385.427 48.2756 384.878 48.0994 384.162 48.0994C383.407 48.0994 382.807 48.2642 382.364 48.5938C381.927 48.9233 381.631 49.3125 381.478 49.7614L378.597 49.3523C378.824 48.5568 379.199 47.892 379.722 47.358C380.245 46.8182 380.884 46.4148 381.64 46.1477C382.395 45.875 383.231 45.7386 384.145 45.7386C384.776 45.7386 385.404 45.8125 386.029 45.9602C386.654 46.108 387.225 46.3523 387.742 46.6932C388.259 47.0284 388.674 47.4858 388.986 48.0653C389.304 48.6449 389.464 49.3693 389.464 50.2386V59H386.498V57.2017H386.395C386.208 57.5653 385.944 57.9062 385.603 58.2244C385.268 58.5369 384.844 58.7898 384.333 58.983C383.827 59.1705 383.233 59.2642 382.552 59.2642ZM383.353 56.9972C383.972 56.9972 384.509 56.875 384.964 56.6307C385.418 56.3807 385.768 56.0511 386.012 55.642C386.262 55.233 386.387 54.7869 386.387 54.304V52.7614C386.29 52.8409 386.126 52.9148 385.893 52.983C385.665 53.0511 385.41 53.1108 385.126 53.1619C384.841 53.2131 384.56 53.2585 384.282 53.2983C384.003 53.3381 383.762 53.3722 383.557 53.4006C383.097 53.4631 382.685 53.5653 382.322 53.7074C381.958 53.8494 381.671 54.0483 381.461 54.304C381.251 54.554 381.145 54.8778 381.145 55.2756C381.145 55.8438 381.353 56.2727 381.768 56.5625C382.182 56.8523 382.711 56.9972 383.353 56.9972ZM393.286 59V45.9091H396.277V48.0909H396.414C396.652 47.3352 397.061 46.7528 397.641 46.3438C398.226 45.929 398.894 45.7216 399.644 45.7216C399.814 45.7216 400.005 45.7301 400.215 45.7472C400.431 45.7585 400.61 45.7784 400.752 45.8068V48.6449C400.621 48.5994 400.414 48.5597 400.13 48.5256C399.851 48.4858 399.581 48.4659 399.32 48.4659C398.757 48.4659 398.252 48.5881 397.803 48.8324C397.36 49.071 397.01 49.4034 396.755 49.8295C396.499 50.2557 396.371 50.7472 396.371 51.304V59H393.286ZM403.521 59V45.9091H406.607V59H403.521ZM405.073 44.0511C404.584 44.0511 404.164 43.8892 403.811 43.5653C403.459 43.2358 403.283 42.8409 403.283 42.3807C403.283 41.9148 403.459 41.5199 403.811 41.196C404.164 40.8665 404.584 40.7017 405.073 40.7017C405.567 40.7017 405.987 40.8665 406.334 41.196C406.686 41.5199 406.862 41.9148 406.862 42.3807C406.862 42.8409 406.686 43.2358 406.334 43.5653C405.987 43.8892 405.567 44.0511 405.073 44.0511ZM78.4432 95.2301C77.4148 95.2301 76.4943 94.9659 75.6818 94.4375C74.8693 93.9091 74.2273 93.142 73.7557 92.1364C73.2841 91.1307 73.0483 89.9091 73.0483 88.4716C73.0483 87.017 73.2869 85.7898 73.7642 84.7898C74.2472 83.7841 74.8977 83.0256 75.7159 82.5142C76.5341 81.9972 77.446 81.7386 78.4517 81.7386C79.2188 81.7386 79.8494 81.8693 80.3438 82.1307C80.8381 82.3864 81.2301 82.696 81.5199 83.0597C81.8097 83.4176 82.0341 83.7557 82.1932 84.0739H82.321V77.5455H85.4148V95H82.3807V92.9375H82.1932C82.0341 93.2557 81.804 93.5937 81.5028 93.9517C81.2017 94.304 80.804 94.6051 80.3097 94.8551C79.8153 95.1051 79.1932 95.2301 78.4432 95.2301ZM79.304 92.6989C79.9574 92.6989 80.5142 92.5227 80.9744 92.1705C81.4347 91.8125 81.7841 91.3153 82.0227 90.679C82.2614 90.0426 82.3807 89.3011 82.3807 88.4545C82.3807 87.608 82.2614 86.8722 82.0227 86.2472C81.7898 85.6222 81.4432 85.1364 80.983 84.7898C80.5284 84.4432 79.9688 84.2699 79.304 84.2699C78.6165 84.2699 78.0426 84.4489 77.5824 84.8068C77.1222 85.1648 76.7756 85.6591 76.5426 86.2898C76.3097 86.9205 76.1932 87.642 76.1932 88.4545C76.1932 89.2727 76.3097 90.0028 76.5426 90.6449C76.7813 91.2812 77.1307 91.7841 77.5909 92.1534C78.0568 92.517 78.6278 92.6989 79.304 92.6989ZM97.7662 89.4943V81.9091H100.851V95H97.8599V92.6733H97.7236C97.4281 93.4062 96.9423 94.0057 96.2662 94.4716C95.5957 94.9375 94.769 95.1705 93.7861 95.1705C92.9281 95.1705 92.1696 94.9801 91.5105 94.5994C90.8571 94.2131 90.3457 93.6534 89.9764 92.9205C89.6071 92.1818 89.4224 91.2898 89.4224 90.2443V81.9091H92.5076V89.767C92.5076 90.5966 92.7349 91.2557 93.1895 91.7443C93.644 92.233 94.2406 92.4773 94.9792 92.4773C95.4338 92.4773 95.8741 92.3665 96.3003 92.1449C96.7264 91.9233 97.0758 91.5938 97.3486 91.1562C97.627 90.7131 97.7662 90.1591 97.7662 89.4943ZM108.511 95.2642C107.681 95.2642 106.934 95.1165 106.27 94.821C105.61 94.5199 105.088 94.0767 104.701 93.4915C104.321 92.9062 104.13 92.1847 104.13 91.3267C104.13 90.5881 104.267 89.9773 104.539 89.4943C104.812 89.0114 105.184 88.625 105.656 88.3352C106.128 88.0455 106.659 87.8267 107.25 87.679C107.846 87.5256 108.463 87.4148 109.099 87.3466C109.866 87.267 110.488 87.196 110.966 87.1335C111.443 87.0653 111.789 86.9631 112.005 86.8267C112.227 86.6847 112.338 86.4659 112.338 86.1705V86.1193C112.338 85.4773 112.147 84.9801 111.767 84.6278C111.386 84.2756 110.838 84.0994 110.122 84.0994C109.366 84.0994 108.767 84.2642 108.324 84.5938C107.886 84.9233 107.591 85.3125 107.437 85.7614L104.556 85.3523C104.784 84.5568 105.159 83.892 105.681 83.358C106.204 82.8182 106.843 82.4148 107.599 82.1477C108.355 81.875 109.19 81.7386 110.105 81.7386C110.735 81.7386 111.363 81.8125 111.988 81.9602C112.613 82.108 113.184 82.3523 113.701 82.6932C114.218 83.0284 114.633 83.4858 114.946 84.0653C115.264 84.6449 115.423 85.3693 115.423 86.2386V95H112.457V93.2017H112.355C112.167 93.5653 111.903 93.9062 111.562 94.2244C111.227 94.5369 110.804 94.7898 110.292 94.983C109.787 95.1705 109.193 95.2642 108.511 95.2642ZM109.312 92.9972C109.931 92.9972 110.468 92.875 110.923 92.6307C111.378 92.3807 111.727 92.0511 111.971 91.642C112.221 91.233 112.346 90.7869 112.346 90.304V88.7614C112.25 88.8409 112.085 88.9148 111.852 88.983C111.625 89.0511 111.369 89.1108 111.085 89.1619C110.801 89.2131 110.52 89.2585 110.241 89.2983C109.963 89.3381 109.721 89.3722 109.517 89.4006C109.056 89.4631 108.645 89.5653 108.281 89.7074C107.917 89.8494 107.63 90.0483 107.42 90.304C107.21 90.554 107.105 90.8778 107.105 91.2756C107.105 91.8438 107.312 92.2727 107.727 92.5625C108.142 92.8523 108.67 92.9972 109.312 92.9972ZM131.612 100.182C130.504 100.182 129.552 100.031 128.756 99.7301C127.961 99.4347 127.322 99.0369 126.839 98.5369C126.356 98.0369 126.021 97.483 125.833 96.875L128.612 96.2017C128.737 96.4574 128.918 96.7102 129.157 96.9602C129.396 97.2159 129.717 97.4261 130.12 97.5909C130.529 97.7614 131.043 97.8466 131.663 97.8466C132.538 97.8466 133.262 97.6335 133.836 97.2074C134.41 96.7869 134.697 96.0938 134.697 95.1278V92.6477H134.543C134.384 92.9659 134.151 93.2926 133.844 93.6278C133.543 93.9631 133.143 94.2443 132.643 94.4716C132.148 94.6989 131.526 94.8125 130.776 94.8125C129.771 94.8125 128.859 94.5767 128.041 94.1051C127.228 93.6278 126.58 92.9176 126.097 91.9744C125.62 91.0256 125.381 89.8381 125.381 88.4119C125.381 86.9744 125.62 85.7614 126.097 84.7727C126.58 83.7784 127.231 83.0256 128.049 82.5142C128.867 81.9972 129.779 81.7386 130.785 81.7386C131.552 81.7386 132.183 81.8693 132.677 82.1307C133.177 82.3864 133.575 82.696 133.87 83.0597C134.166 83.4176 134.39 83.7557 134.543 84.0739H134.714V81.9091H137.756V95.2131C137.756 96.3324 137.489 97.2585 136.955 97.9915C136.421 98.7244 135.691 99.2727 134.765 99.6364C133.839 100 132.788 100.182 131.612 100.182ZM131.637 92.392C132.291 92.392 132.847 92.233 133.308 91.9148C133.768 91.5966 134.117 91.1392 134.356 90.5426C134.594 89.946 134.714 89.2301 134.714 88.3949C134.714 87.571 134.594 86.8494 134.356 86.2301C134.123 85.6108 133.776 85.1307 133.316 84.7898C132.862 84.4432 132.302 84.2699 131.637 84.2699C130.95 84.2699 130.376 84.4489 129.916 84.8068C129.455 85.1648 129.109 85.6562 128.876 86.2812C128.643 86.9006 128.526 87.6051 128.526 88.3949C128.526 89.196 128.643 89.8977 128.876 90.5C129.114 91.0966 129.464 91.5625 129.924 91.8977C130.39 92.2273 130.961 92.392 131.637 92.392ZM145.405 95.2642C144.576 95.2642 143.829 95.1165 143.164 94.821C142.505 94.5199 141.982 94.0767 141.596 93.4915C141.215 92.9062 141.025 92.1847 141.025 91.3267C141.025 90.5881 141.161 89.9773 141.434 89.4943C141.707 89.0114 142.079 88.625 142.55 88.3352C143.022 88.0455 143.553 87.8267 144.144 87.679C144.741 87.5256 145.357 87.4148 145.993 87.3466C146.761 87.267 147.383 87.196 147.86 87.1335C148.337 87.0653 148.684 86.9631 148.9 86.8267C149.121 86.6847 149.232 86.4659 149.232 86.1705V86.1193C149.232 85.4773 149.042 84.9801 148.661 84.6278C148.28 84.2756 147.732 84.0994 147.016 84.0994C146.261 84.0994 145.661 84.2642 145.218 84.5938C144.78 84.9233 144.485 85.3125 144.332 85.7614L141.451 85.3523C141.678 84.5568 142.053 83.892 142.576 83.358C143.099 82.8182 143.738 82.4148 144.493 82.1477C145.249 81.875 146.084 81.7386 146.999 81.7386C147.63 81.7386 148.258 81.8125 148.883 81.9602C149.508 82.108 150.079 82.3523 150.596 82.6932C151.113 83.0284 151.528 83.4858 151.84 84.0653C152.158 84.6449 152.317 85.3693 152.317 86.2386V95H149.351V93.2017H149.249C149.062 93.5653 148.797 93.9062 148.457 94.2244C148.121 94.5369 147.698 94.7898 147.187 94.983C146.681 95.1705 146.087 95.2642 145.405 95.2642ZM146.207 92.9972C146.826 92.9972 147.363 92.875 147.817 92.6307C148.272 92.3807 148.621 92.0511 148.866 91.642C149.116 91.233 149.241 90.7869 149.241 90.304V88.7614C149.144 88.8409 148.979 88.9148 148.746 88.983C148.519 89.0511 148.263 89.1108 147.979 89.1619C147.695 89.2131 147.414 89.2585 147.136 89.2983C146.857 89.3381 146.616 89.3722 146.411 89.4006C145.951 89.4631 145.539 89.5653 145.175 89.7074C144.812 89.8494 144.525 90.0483 144.314 90.304C144.104 90.554 143.999 90.8778 143.999 91.2756C143.999 91.8438 144.207 92.2727 144.621 92.5625C145.036 92.8523 145.564 92.9972 146.207 92.9972ZM156.14 95V81.9091H159.088V84.1335H159.242C159.515 83.3835 159.966 82.7983 160.597 82.3778C161.228 81.9517 161.981 81.7386 162.856 81.7386C163.742 81.7386 164.489 81.9545 165.097 82.3864C165.711 82.8125 166.142 83.3949 166.392 84.1335H166.529C166.819 83.4062 167.307 82.8267 167.995 82.3949C168.688 81.9574 169.509 81.7386 170.458 81.7386C171.662 81.7386 172.645 82.1193 173.407 82.8807C174.168 83.642 174.549 84.7528 174.549 86.2131V95H171.455V86.6903C171.455 85.8778 171.239 85.2841 170.807 84.9091C170.375 84.5284 169.847 84.3381 169.222 84.3381C168.478 84.3381 167.895 84.571 167.475 85.0369C167.06 85.4972 166.853 86.0966 166.853 86.8352V95H163.827V86.5625C163.827 85.8864 163.623 85.3466 163.213 84.9432C162.81 84.5398 162.282 84.3381 161.628 84.3381C161.185 84.3381 160.782 84.4517 160.418 84.679C160.054 84.9006 159.765 85.2159 159.549 85.625C159.333 86.0284 159.225 86.5 159.225 87.0398V95H156.14ZM178.535 95V77.5455H181.62V84.0739H181.748C181.907 83.7557 182.132 83.4176 182.421 83.0597C182.711 82.696 183.103 82.3864 183.598 82.1307C184.092 81.8693 184.723 81.7386 185.49 81.7386C186.501 81.7386 187.413 81.9972 188.225 82.5142C189.044 83.0256 189.691 83.7841 190.169 84.7898C190.652 85.7898 190.893 87.017 190.893 88.4716C190.893 89.9091 190.657 91.1307 190.186 92.1364C189.714 93.142 189.072 93.9091 188.259 94.4375C187.447 94.9659 186.527 95.2301 185.498 95.2301C184.748 95.2301 184.126 95.1051 183.632 94.8551C183.137 94.6051 182.74 94.304 182.438 93.9517C182.143 93.5937 181.913 93.2557 181.748 92.9375H181.569V95H178.535ZM181.561 88.4545C181.561 89.3011 181.68 90.0426 181.919 90.679C182.163 91.3153 182.512 91.8125 182.967 92.1705C183.427 92.5227 183.984 92.6989 184.637 92.6989C185.319 92.6989 185.89 92.517 186.35 92.1534C186.811 91.7841 187.157 91.2812 187.39 90.6449C187.629 90.0028 187.748 89.2727 187.748 88.4545C187.748 87.642 187.632 86.9205 187.399 86.2898C187.166 85.6591 186.819 85.1648 186.359 84.8068C185.899 84.4489 185.325 84.2699 184.637 84.2699C183.978 84.2699 183.419 84.4432 182.958 84.7898C182.498 85.1364 182.149 85.6222 181.91 86.2472C181.677 86.8722 181.561 87.608 181.561 88.4545ZM198.003 95.2642C197.173 95.2642 196.426 95.1165 195.761 94.821C195.102 94.5199 194.58 94.0767 194.193 93.4915C193.813 92.9062 193.622 92.1847 193.622 91.3267C193.622 90.5881 193.759 89.9773 194.031 89.4943C194.304 89.0114 194.676 88.625 195.148 88.3352C195.619 88.0455 196.151 87.8267 196.742 87.679C197.338 87.5256 197.955 87.4148 198.591 87.3466C199.358 87.267 199.98 87.196 200.457 87.1335C200.935 87.0653 201.281 86.9631 201.497 86.8267C201.719 86.6847 201.83 86.4659 201.83 86.1705V86.1193C201.83 85.4773 201.639 84.9801 201.259 84.6278C200.878 84.2756 200.33 84.0994 199.614 84.0994C198.858 84.0994 198.259 84.2642 197.815 84.5938C197.378 84.9233 197.082 85.3125 196.929 85.7614L194.048 85.3523C194.276 84.5568 194.651 83.892 195.173 83.358C195.696 82.8182 196.335 82.4148 197.091 82.1477C197.847 81.875 198.682 81.7386 199.597 81.7386C200.227 81.7386 200.855 81.8125 201.48 81.9602C202.105 82.108 202.676 82.3523 203.193 82.6932C203.71 83.0284 204.125 83.4858 204.438 84.0653C204.756 84.6449 204.915 85.3693 204.915 86.2386V95H201.949V93.2017H201.847C201.659 93.5653 201.395 93.9062 201.054 94.2244C200.719 94.5369 200.296 94.7898 199.784 94.983C199.278 95.1705 198.685 95.2642 198.003 95.2642ZM198.804 92.9972C199.423 92.9972 199.96 92.875 200.415 92.6307C200.869 92.3807 201.219 92.0511 201.463 91.642C201.713 91.233 201.838 90.7869 201.838 90.304V88.7614C201.742 88.8409 201.577 88.9148 201.344 88.983C201.117 89.0511 200.861 89.1108 200.577 89.1619C200.293 89.2131 200.011 89.2585 199.733 89.2983C199.455 89.3381 199.213 89.3722 199.009 89.4006C198.548 89.4631 198.136 89.5653 197.773 89.7074C197.409 89.8494 197.122 90.0483 196.912 90.304C196.702 90.554 196.597 90.8778 196.597 91.2756C196.597 91.8438 196.804 92.2727 197.219 92.5625C197.634 92.8523 198.162 92.9972 198.804 92.9972ZM208.737 95V81.9091H211.729V84.0909H211.865C212.104 83.3352 212.513 82.7528 213.092 82.3438C213.677 81.929 214.345 81.7216 215.095 81.7216C215.266 81.7216 215.456 81.7301 215.666 81.7472C215.882 81.7585 216.061 81.7784 216.203 81.8068V84.6449C216.072 84.5994 215.865 84.5597 215.581 84.5256C215.302 84.4858 215.033 84.4659 214.771 84.4659C214.209 84.4659 213.703 84.5881 213.254 84.8324C212.811 85.071 212.462 85.4034 212.206 85.8295C211.95 86.2557 211.822 86.7472 211.822 87.304V95H208.737ZM232.183 81.9091V84.2955H224.657V81.9091H232.183ZM226.515 78.7727H229.6V91.0625C229.6 91.4773 229.663 91.7955 229.788 92.017C229.919 92.233 230.089 92.3807 230.299 92.4602C230.509 92.5398 230.742 92.5795 230.998 92.5795C231.191 92.5795 231.367 92.5653 231.527 92.5369C231.691 92.5085 231.816 92.483 231.902 92.4602L232.421 94.8722C232.257 94.929 232.021 94.9915 231.714 95.0597C231.413 95.1278 231.044 95.1676 230.606 95.179C229.833 95.2017 229.137 95.0852 228.518 94.8295C227.899 94.5682 227.407 94.1648 227.044 93.6193C226.686 93.0739 226.509 92.392 226.515 91.5739V78.7727ZM241.138 95.2557C239.825 95.2557 238.692 94.983 237.737 94.4375C236.788 93.8864 236.058 93.108 235.547 92.1023C235.036 91.0909 234.78 89.9006 234.78 88.5312C234.78 87.1847 235.036 86.0028 235.547 84.9858C236.064 83.9631 236.786 83.1676 237.712 82.5994C238.638 82.0256 239.726 81.7386 240.976 81.7386C241.783 81.7386 242.544 81.8693 243.26 82.1307C243.982 82.3864 244.618 82.7841 245.169 83.3239C245.726 83.8636 246.163 84.5511 246.482 85.3864C246.8 86.2159 246.959 87.2045 246.959 88.3523V89.2983H236.229V87.2188H244.002C243.996 86.6278 243.868 86.1023 243.618 85.642C243.368 85.1761 243.019 84.8097 242.57 84.5426C242.127 84.2756 241.609 84.142 241.019 84.142C240.388 84.142 239.834 84.2955 239.357 84.6023C238.879 84.9034 238.507 85.3011 238.24 85.7955C237.979 86.2841 237.845 86.821 237.84 87.4062V89.2216C237.84 89.983 237.979 90.6364 238.257 91.1818C238.536 91.7216 238.925 92.1364 239.425 92.4261C239.925 92.7102 240.51 92.8523 241.18 92.8523C241.629 92.8523 242.036 92.7898 242.399 92.6648C242.763 92.5341 243.078 92.3438 243.345 92.0938C243.612 91.8438 243.814 91.5341 243.95 91.1648L246.831 91.4886C246.649 92.25 246.303 92.9148 245.791 93.483C245.286 94.0455 244.638 94.483 243.848 94.7955C243.058 95.1023 242.155 95.2557 241.138 95.2557ZM250.289 95V81.9091H253.28V84.0909H253.417C253.655 83.3352 254.065 82.7528 254.644 82.3438C255.229 81.929 255.897 81.7216 256.647 81.7216C256.817 81.7216 257.008 81.7301 257.218 81.7472C257.434 81.7585 257.613 81.7784 257.755 81.8068V84.6449C257.624 84.5994 257.417 84.5597 257.133 84.5256C256.854 84.4858 256.584 84.4659 256.323 84.4659C255.761 84.4659 255.255 84.5881 254.806 84.8324C254.363 85.071 254.013 85.4034 253.758 85.8295C253.502 86.2557 253.374 86.7472 253.374 87.304V95H250.289ZM270.871 85.3693L268.059 85.6761C267.979 85.392 267.84 85.125 267.641 84.875C267.448 84.625 267.187 84.4233 266.857 84.2699C266.527 84.1165 266.124 84.0398 265.647 84.0398C265.005 84.0398 264.465 84.179 264.027 84.4574C263.596 84.7358 263.383 85.0966 263.388 85.5398C263.383 85.9205 263.522 86.2301 263.806 86.4688C264.096 86.7074 264.573 86.9034 265.238 87.0568L267.471 87.5341C268.709 87.8011 269.63 88.2244 270.232 88.804C270.84 89.3835 271.147 90.142 271.152 91.0795C271.147 91.9034 270.905 92.6307 270.428 93.2614C269.956 93.8864 269.3 94.375 268.459 94.7273C267.618 95.0795 266.652 95.2557 265.562 95.2557C263.959 95.2557 262.669 94.9205 261.692 94.25C260.715 93.5739 260.133 92.6335 259.945 91.429L262.954 91.1392C263.09 91.7301 263.38 92.1761 263.823 92.4773C264.266 92.7784 264.843 92.929 265.553 92.929C266.286 92.929 266.874 92.7784 267.317 92.4773C267.766 92.1761 267.991 91.804 267.991 91.3608C267.991 90.9858 267.846 90.6761 267.556 90.4318C267.272 90.1875 266.829 90 266.226 89.8693L263.993 89.4006C262.738 89.1392 261.809 88.6989 261.206 88.0795C260.604 87.4545 260.306 86.6648 260.312 85.7102C260.306 84.9034 260.525 84.2045 260.968 83.6136C261.417 83.017 262.039 82.5568 262.834 82.233C263.635 81.9034 264.559 81.7386 265.604 81.7386C267.138 81.7386 268.346 82.0653 269.226 82.7188C270.113 83.3722 270.661 84.2557 270.871 85.3693ZM280.212 95.2557C278.899 95.2557 277.766 94.983 276.811 94.4375C275.863 93.8864 275.132 93.108 274.621 92.1023C274.11 91.0909 273.854 89.9006 273.854 88.5312C273.854 87.1847 274.11 86.0028 274.621 84.9858C275.138 83.9631 275.86 83.1676 276.786 82.5994C277.712 82.0256 278.8 81.7386 280.05 81.7386C280.857 81.7386 281.618 81.8693 282.334 82.1307C283.056 82.3864 283.692 82.7841 284.243 83.3239C284.8 83.8636 285.238 84.5511 285.556 85.3864C285.874 86.2159 286.033 87.2045 286.033 88.3523V89.2983H275.303V87.2188H283.076C283.07 86.6278 282.942 86.1023 282.692 85.642C282.442 85.1761 282.093 84.8097 281.644 84.5426C281.201 84.2756 280.684 84.142 280.093 84.142C279.462 84.142 278.908 84.2955 278.431 84.6023C277.953 84.9034 277.581 85.3011 277.314 85.7955C277.053 86.2841 276.919 86.821 276.914 87.4062V89.2216C276.914 89.983 277.053 90.6364 277.331 91.1818C277.61 91.7216 277.999 92.1364 278.499 92.4261C278.999 92.7102 279.584 92.8523 280.255 92.8523C280.703 92.8523 281.11 92.7898 281.473 92.6648C281.837 92.5341 282.152 92.3438 282.419 92.0938C282.686 91.8438 282.888 91.5341 283.024 91.1648L285.905 91.4886C285.723 92.25 285.377 92.9148 284.865 93.483C284.36 94.0455 283.712 94.483 282.922 94.7955C282.132 95.1023 281.229 95.2557 280.212 95.2557ZM289.499 95V77.5455H292.585V84.0739H292.712C292.872 83.7557 293.096 83.4176 293.386 83.0597C293.676 82.696 294.068 82.3864 294.562 82.1307C295.056 81.8693 295.687 81.7386 296.454 81.7386C297.465 81.7386 298.377 81.9972 299.19 82.5142C300.008 83.0256 300.656 83.7841 301.133 84.7898C301.616 85.7898 301.857 87.017 301.857 88.4716C301.857 89.9091 301.622 91.1307 301.15 92.1364C300.678 93.142 300.036 93.9091 299.224 94.4375C298.411 94.9659 297.491 95.2301 296.462 95.2301C295.712 95.2301 295.09 95.1051 294.596 94.8551C294.102 94.6051 293.704 94.304 293.403 93.9517C293.107 93.5937 292.877 93.2557 292.712 92.9375H292.533V95H289.499ZM292.525 88.4545C292.525 89.3011 292.644 90.0426 292.883 90.679C293.127 91.3153 293.477 91.8125 293.931 92.1705C294.391 92.5227 294.948 92.6989 295.602 92.6989C296.283 92.6989 296.855 92.517 297.315 92.1534C297.775 91.7841 298.122 91.2812 298.355 90.6449C298.593 90.0028 298.712 89.2727 298.712 88.4545C298.712 87.642 298.596 86.9205 298.363 86.2898C298.13 85.6591 297.783 85.1648 297.323 84.8068C296.863 84.4489 296.289 84.2699 295.602 84.2699C294.943 84.2699 294.383 84.4432 293.923 84.7898C293.462 85.1364 293.113 85.6222 292.874 86.2472C292.641 86.8722 292.525 87.608 292.525 88.4545ZM313.544 89.4943V81.9091H316.629V95H313.638V92.6733H313.501C313.206 93.4062 312.72 94.0057 312.044 94.4716C311.374 94.9375 310.547 95.1705 309.564 95.1705C308.706 95.1705 307.947 94.9801 307.288 94.5994C306.635 94.2131 306.124 93.6534 305.754 92.9205C305.385 92.1818 305.2 91.2898 305.2 90.2443V81.9091H308.285V89.767C308.285 90.5966 308.513 91.2557 308.967 91.7443C309.422 92.233 310.018 92.4773 310.757 92.4773C311.212 92.4773 311.652 92.3665 312.078 92.1449C312.504 91.9233 312.854 91.5938 313.126 91.1562C313.405 90.7131 313.544 90.1591 313.544 89.4943ZM327.059 81.9091V84.2955H319.533V81.9091H327.059ZM321.391 78.7727H324.476V91.0625C324.476 91.4773 324.539 91.7955 324.664 92.017C324.795 92.233 324.965 92.3807 325.175 92.4602C325.385 92.5398 325.618 92.5795 325.874 92.5795C326.067 92.5795 326.243 92.5653 326.402 92.5369C326.567 92.5085 326.692 92.483 326.777 92.4602L327.297 94.8722C327.133 94.929 326.897 94.9915 326.59 95.0597C326.289 95.1278 325.92 95.1676 325.482 95.179C324.709 95.2017 324.013 95.0852 323.394 94.8295C322.775 94.5682 322.283 94.1648 321.92 93.6193C321.562 93.0739 321.385 92.392 321.391 91.5739V78.7727ZM333.308 89.8693V89.6477C333.314 88.6193 333.41 87.8011 333.598 87.1932C333.791 86.5852 334.064 86.0966 334.416 85.7273C334.768 85.3523 335.197 85.0085 335.703 84.696C336.049 84.4801 336.359 84.2443 336.632 83.9886C336.91 83.7273 337.129 83.4375 337.288 83.1193C337.447 82.7955 337.527 82.4347 337.527 82.0369C337.527 81.5881 337.421 81.1989 337.211 80.8693C337.001 80.5398 336.717 80.2841 336.359 80.1023C336.007 79.9205 335.612 79.8295 335.174 79.8295C334.771 79.8295 334.387 79.9176 334.024 80.0938C333.666 80.2642 333.367 80.5256 333.129 80.8778C332.896 81.2244 332.765 81.6648 332.737 82.1989H329.703C329.731 81.1193 329.992 80.2159 330.487 79.4886C330.987 78.7614 331.646 78.2159 332.464 77.8523C333.288 77.4886 334.197 77.3068 335.191 77.3068C336.277 77.3068 337.231 77.4972 338.055 77.8778C338.885 78.2585 339.529 78.8011 339.99 79.5057C340.456 80.2045 340.689 81.0341 340.689 81.9943C340.689 82.642 340.583 83.2216 340.373 83.733C340.169 84.2443 339.876 84.6989 339.495 85.0966C339.115 85.4943 338.663 85.8494 338.14 86.1619C337.68 86.446 337.302 86.7415 337.007 87.0483C336.717 87.3551 336.501 87.7159 336.359 88.1307C336.223 88.5398 336.152 89.0455 336.146 89.6477V89.8693H333.308ZM334.791 95.1875C334.279 95.1875 333.839 95.0057 333.47 94.642C333.1 94.2784 332.916 93.8352 332.916 93.3125C332.916 92.8011 333.1 92.3636 333.47 92C333.839 91.6364 334.279 91.4545 334.791 91.4545C335.296 91.4545 335.734 91.6364 336.103 92C336.478 92.3636 336.666 92.8011 336.666 93.3125C336.666 93.6591 336.578 93.9744 336.402 94.2585C336.231 94.5426 336.004 94.7699 335.72 94.9403C335.441 95.1051 335.132 95.1875 334.791 95.1875Z" fill="black"/>
<path d="M40.1377 22.1504C41.7187 20.1296 44.9423 20.8972 45.4429 23.4136L51.1424 52.0631C51.4657 53.6881 50.4104 55.2675 48.7853 55.5908L15.4902 62.2136C12.7613 62.7564 10.8277 59.6141 12.5421 57.4227L40.1377 22.1504Z" fill="white"/>
</svg>
