<svg width="474" height="172" viewBox="0 0 474 172" fill="none" xmlns="http://www.w3.org/2000/svg">
<rect x="38" width="436" height="172" rx="8" fill="white"/>
<path d="M73.9631 59H70.5881L76.733 41.5455H80.6364L86.7898 59H83.4148L78.7528 45.125H78.6165L73.9631 59ZM74.0739 52.1562H83.2784V54.696H74.0739V52.1562ZM89.6724 63.9091V45.9091H92.7065V48.0739H92.8855C93.0446 47.7557 93.269 47.4176 93.5588 47.0597C93.8486 46.696 94.2406 46.3864 94.7349 46.1307C95.2292 45.8693 95.8599 45.7386 96.627 45.7386C97.6383 45.7386 98.5503 45.9972 99.3628 46.5142C100.181 47.0256 100.829 47.7841 101.306 48.7898C101.789 49.7898 102.03 51.017 102.03 52.4716C102.03 53.9091 101.795 55.1307 101.323 56.1364C100.851 57.142 100.209 57.9091 99.3968 58.4375C98.5843 58.9659 97.6639 59.2301 96.6355 59.2301C95.8855 59.2301 95.2633 59.1051 94.769 58.8551C94.2747 58.6051 93.877 58.304 93.5758 57.9517C93.2804 57.5937 93.0503 57.2557 92.8855 56.9375H92.7576V63.9091H89.6724ZM92.698 52.4545C92.698 53.3011 92.8173 54.0426 93.0559 54.679C93.3003 55.3153 93.6497 55.8125 94.1042 56.1705C94.5645 56.5227 95.1213 56.6989 95.7747 56.6989C96.4565 56.6989 97.0275 56.517 97.4878 56.1534C97.948 55.7841 98.2946 55.2812 98.5275 54.6449C98.7662 54.0028 98.8855 53.2727 98.8855 52.4545C98.8855 51.642 98.769 50.9205 98.5361 50.2898C98.3031 49.6591 97.9565 49.1648 97.4963 48.8068C97.0361 48.4489 96.4622 48.2699 95.7747 48.2699C95.1156 48.2699 94.5559 48.4432 94.0957 48.7898C93.6355 49.1364 93.2861 49.6222 93.0474 50.2472C92.8145 50.8722 92.698 51.608 92.698 52.4545ZM109.159 59.2642C108.33 59.2642 107.583 59.1165 106.918 58.821C106.259 58.5199 105.736 58.0767 105.35 57.4915C104.969 56.9062 104.779 56.1847 104.779 55.3267C104.779 54.5881 104.915 53.9773 105.188 53.4943C105.461 53.0114 105.833 52.625 106.304 52.3352C106.776 52.0455 107.307 51.8267 107.898 51.679C108.495 51.5256 109.111 51.4148 109.748 51.3466C110.515 51.267 111.137 51.196 111.614 51.1335C112.091 51.0653 112.438 50.9631 112.654 50.8267C112.875 50.6847 112.986 50.4659 112.986 50.1705V50.1193C112.986 49.4773 112.796 48.9801 112.415 48.6278C112.034 48.2756 111.486 48.0994 110.77 48.0994C110.015 48.0994 109.415 48.2642 108.972 48.5938C108.534 48.9233 108.239 49.3125 108.086 49.7614L105.205 49.3523C105.432 48.5568 105.807 47.892 106.33 47.358C106.853 46.8182 107.492 46.4148 108.248 46.1477C109.003 45.875 109.838 45.7386 110.753 45.7386C111.384 45.7386 112.012 45.8125 112.637 45.9602C113.262 46.108 113.833 46.3523 114.35 46.6932C114.867 47.0284 115.282 47.4858 115.594 48.0653C115.912 48.6449 116.071 49.3693 116.071 50.2386V59H113.105V57.2017H113.003C112.816 57.5653 112.552 57.9062 112.211 58.2244C111.875 58.5369 111.452 58.7898 110.941 58.983C110.435 59.1705 109.841 59.2642 109.159 59.2642ZM109.961 56.9972C110.58 56.9972 111.117 56.875 111.571 56.6307C112.026 56.3807 112.375 56.0511 112.62 55.642C112.87 55.233 112.995 54.7869 112.995 54.304V52.7614C112.898 52.8409 112.733 52.9148 112.5 52.983C112.273 53.0511 112.017 53.1108 111.733 53.1619C111.449 53.2131 111.168 53.2585 110.89 53.2983C110.611 53.3381 110.37 53.3722 110.165 53.4006C109.705 53.4631 109.293 53.5653 108.929 53.7074C108.566 53.8494 108.279 54.0483 108.069 54.304C107.858 54.554 107.753 54.8778 107.753 55.2756C107.753 55.8438 107.961 56.2727 108.375 56.5625C108.79 56.8523 109.319 56.9972 109.961 56.9972ZM128.484 63.9091C128.064 63.9091 127.675 63.875 127.317 63.8068C126.965 63.7443 126.683 63.6705 126.473 63.5852L127.189 61.1818C127.638 61.3125 128.038 61.375 128.391 61.3693C128.743 61.3636 129.053 61.2528 129.32 61.0369C129.592 60.8267 129.822 60.4744 130.01 59.9801L130.274 59.2727L125.527 45.9091H128.8L131.817 55.7955H131.953L134.979 45.9091H138.26L133.018 60.5852C132.774 61.2784 132.45 61.8722 132.047 62.3665C131.643 62.8665 131.149 63.2472 130.564 63.5085C129.984 63.7756 129.291 63.9091 128.484 63.9091ZM144.507 59.2642C143.677 59.2642 142.93 59.1165 142.265 58.821C141.606 58.5199 141.084 58.0767 140.697 57.4915C140.317 56.9062 140.126 56.1847 140.126 55.3267C140.126 54.5881 140.263 53.9773 140.535 53.4943C140.808 53.0114 141.18 52.625 141.652 52.3352C142.123 52.0455 142.655 51.8267 143.246 51.679C143.842 51.5256 144.459 51.4148 145.095 51.3466C145.862 51.267 146.484 51.196 146.962 51.1335C147.439 51.0653 147.785 50.9631 148.001 50.8267C148.223 50.6847 148.334 50.4659 148.334 50.1705V50.1193C148.334 49.4773 148.143 48.9801 147.763 48.6278C147.382 48.2756 146.834 48.0994 146.118 48.0994C145.362 48.0994 144.763 48.2642 144.319 48.5938C143.882 48.9233 143.587 49.3125 143.433 49.7614L140.552 49.3523C140.78 48.5568 141.155 47.892 141.677 47.358C142.2 46.8182 142.839 46.4148 143.595 46.1477C144.351 45.875 145.186 45.7386 146.101 45.7386C146.731 45.7386 147.359 45.8125 147.984 45.9602C148.609 46.108 149.18 46.3523 149.697 46.6932C150.214 47.0284 150.629 47.4858 150.942 48.0653C151.26 48.6449 151.419 49.3693 151.419 50.2386V59H148.453V57.2017H148.351C148.163 57.5653 147.899 57.9062 147.558 58.2244C147.223 58.5369 146.8 58.7898 146.288 58.983C145.783 59.1705 145.189 59.2642 144.507 59.2642ZM145.308 56.9972C145.927 56.9972 146.464 56.875 146.919 56.6307C147.373 56.3807 147.723 56.0511 147.967 55.642C148.217 55.233 148.342 54.7869 148.342 54.304V52.7614C148.246 52.8409 148.081 52.9148 147.848 52.983C147.621 53.0511 147.365 53.1108 147.081 53.1619C146.797 53.2131 146.515 53.2585 146.237 53.2983C145.959 53.3381 145.717 53.3722 145.513 53.4006C145.052 53.4631 144.64 53.5653 144.277 53.7074C143.913 53.8494 143.626 54.0483 143.416 54.304C143.206 54.554 143.101 54.8778 143.101 55.2756C143.101 55.8438 143.308 56.2727 143.723 56.5625C144.138 56.8523 144.666 56.9972 145.308 56.9972ZM158.326 51.3295V59H155.241V45.9091H158.19V48.1335H158.343C158.645 47.4006 159.125 46.8182 159.784 46.3864C160.449 45.9545 161.27 45.7386 162.247 45.7386C163.15 45.7386 163.937 45.9318 164.608 46.3182C165.284 46.7045 165.807 47.2642 166.176 47.9972C166.551 48.7301 166.735 49.6193 166.73 50.6648V59H163.645V51.142C163.645 50.267 163.417 49.5824 162.963 49.0881C162.514 48.5937 161.892 48.3466 161.096 48.3466C160.557 48.3466 160.076 48.4659 159.656 48.7045C159.241 48.9375 158.914 49.2756 158.676 49.7188C158.443 50.1619 158.326 50.6989 158.326 51.3295ZM176.279 64.1818C175.171 64.1818 174.22 64.0313 173.424 63.7301C172.629 63.4347 171.99 63.0369 171.507 62.5369C171.024 62.0369 170.688 61.483 170.501 60.875L173.279 60.2017C173.404 60.4574 173.586 60.7102 173.825 60.9602C174.063 61.2159 174.384 61.4261 174.788 61.5909C175.197 61.7614 175.711 61.8466 176.33 61.8466C177.205 61.8466 177.93 61.6335 178.504 61.2074C179.078 60.7869 179.365 60.0938 179.365 59.1278V56.6477H179.211C179.052 56.9659 178.819 57.2926 178.512 57.6278C178.211 57.9631 177.811 58.2443 177.311 58.4716C176.816 58.6989 176.194 58.8125 175.444 58.8125C174.438 58.8125 173.527 58.5767 172.708 58.1051C171.896 57.6278 171.248 56.9176 170.765 55.9744C170.288 55.0256 170.049 53.8381 170.049 52.4119C170.049 50.9744 170.288 49.7614 170.765 48.7727C171.248 47.7784 171.899 47.0256 172.717 46.5142C173.535 45.9972 174.447 45.7386 175.453 45.7386C176.22 45.7386 176.85 45.8693 177.345 46.1307C177.845 46.3864 178.242 46.696 178.538 47.0597C178.833 47.4176 179.058 47.7557 179.211 48.0739H179.382V45.9091H182.424V59.2131C182.424 60.3324 182.157 61.2585 181.623 61.9915C181.089 62.7244 180.359 63.2727 179.433 63.6364C178.507 64 177.455 64.1818 176.279 64.1818ZM176.305 56.392C176.958 56.392 177.515 56.233 177.975 55.9148C178.436 55.5966 178.785 55.1392 179.024 54.5426C179.262 53.946 179.382 53.2301 179.382 52.3949C179.382 51.571 179.262 50.8494 179.024 50.2301C178.791 49.6108 178.444 49.1307 177.984 48.7898C177.529 48.4432 176.97 48.2699 176.305 48.2699C175.617 48.2699 175.044 48.4489 174.583 48.8068C174.123 49.1648 173.777 49.6562 173.544 50.2812C173.311 50.9006 173.194 51.6051 173.194 52.3949C173.194 53.196 173.311 53.8977 173.544 54.5C173.782 55.0966 174.132 55.5625 174.592 55.8977C175.058 56.2273 175.629 56.392 176.305 56.392ZM192.979 59V45.9091H195.928V48.1335H196.082C196.354 47.3835 196.806 46.7983 197.437 46.3778C198.067 45.9517 198.82 45.7386 199.695 45.7386C200.582 45.7386 201.329 45.9545 201.937 46.3864C202.55 46.8125 202.982 47.3949 203.232 48.1335H203.368C203.658 47.4062 204.147 46.8267 204.834 46.3949C205.528 45.9574 206.349 45.7386 207.297 45.7386C208.502 45.7386 209.485 46.1193 210.246 46.8807C211.008 47.642 211.388 48.7528 211.388 50.2131V59H208.295V50.6903C208.295 49.8778 208.079 49.2841 207.647 48.9091C207.215 48.5284 206.687 48.3381 206.062 48.3381C205.317 48.3381 204.735 48.571 204.315 49.0369C203.9 49.4972 203.692 50.0966 203.692 50.8352V59H200.667V50.5625C200.667 49.8864 200.462 49.3466 200.053 48.9432C199.65 48.5398 199.121 48.3381 198.468 48.3381C198.025 48.3381 197.621 48.4517 197.258 48.679C196.894 48.9006 196.604 49.2159 196.388 49.625C196.172 50.0284 196.065 50.5 196.065 51.0398V59H192.979ZM221.034 59.2557C219.721 59.2557 218.588 58.983 217.633 58.4375C216.684 57.8864 215.954 57.108 215.443 56.1023C214.932 55.0909 214.676 53.9006 214.676 52.5312C214.676 51.1847 214.932 50.0028 215.443 48.9858C215.96 47.9631 216.682 47.1676 217.608 46.5994C218.534 46.0256 219.622 45.7386 220.872 45.7386C221.679 45.7386 222.44 45.8693 223.156 46.1307C223.878 46.3864 224.514 46.7841 225.065 47.3239C225.622 47.8636 226.059 48.5511 226.378 49.3864C226.696 50.2159 226.855 51.2045 226.855 52.3523V53.2983H216.125V51.2188H223.897C223.892 50.6278 223.764 50.1023 223.514 49.642C223.264 49.1761 222.914 48.8097 222.466 48.5426C222.022 48.2756 221.505 48.142 220.914 48.142C220.284 48.142 219.73 48.2955 219.253 48.6023C218.775 48.9034 218.403 49.3011 218.136 49.7955C217.875 50.2841 217.741 50.821 217.736 51.4062V53.2216C217.736 53.983 217.875 54.6364 218.153 55.1818C218.432 55.7216 218.821 56.1364 219.321 56.4261C219.821 56.7102 220.406 56.8523 221.076 56.8523C221.525 56.8523 221.932 56.7898 222.295 56.6648C222.659 56.5341 222.974 56.3438 223.241 56.0938C223.508 55.8438 223.71 55.5341 223.846 55.1648L226.727 55.4886C226.545 56.25 226.199 56.9148 225.687 57.483C225.182 58.0455 224.534 58.483 223.744 58.7955C222.954 59.1023 222.051 59.2557 221.034 59.2557ZM233.27 51.3295V59H230.185V45.9091H233.134V48.1335H233.287C233.588 47.4006 234.068 46.8182 234.728 46.3864C235.392 45.9545 236.213 45.7386 237.191 45.7386C238.094 45.7386 238.881 45.9318 239.551 46.3182C240.228 46.7045 240.75 47.2642 241.12 47.9972C241.495 48.7301 241.679 49.6193 241.674 50.6648V59H238.588V51.142C238.588 50.267 238.361 49.5824 237.907 49.0881C237.458 48.5937 236.835 48.3466 236.04 48.3466C235.5 48.3466 235.02 48.4659 234.6 48.7045C234.185 48.9375 233.858 49.2756 233.62 49.7188C233.387 50.1619 233.27 50.6989 233.27 51.3295ZM246.979 63.9091C246.558 63.9091 246.169 63.875 245.811 63.8068C245.459 63.7443 245.178 63.6705 244.967 63.5852L245.683 61.1818C246.132 61.3125 246.533 61.375 246.885 61.3693C247.237 61.3636 247.547 61.2528 247.814 61.0369C248.087 60.8267 248.317 60.4744 248.504 59.9801L248.769 59.2727L244.021 45.9091H247.294L250.311 55.7955H250.448L253.473 45.9091H256.754L251.513 60.5852C251.269 61.2784 250.945 61.8722 250.541 62.3665C250.138 62.8665 249.644 63.2472 249.058 63.5085C248.479 63.7756 247.786 63.9091 246.979 63.9091ZM264.959 59.2557C263.647 59.2557 262.513 58.983 261.559 58.4375C260.61 57.8864 259.88 57.108 259.369 56.1023C258.857 55.0909 258.601 53.9006 258.601 52.5312C258.601 51.1847 258.857 50.0028 259.369 48.9858C259.886 47.9631 260.607 47.1676 261.533 46.5994C262.459 46.0256 263.548 45.7386 264.798 45.7386C265.604 45.7386 266.366 45.8693 267.082 46.1307C267.803 46.3864 268.44 46.7841 268.991 47.3239C269.548 47.8636 269.985 48.5511 270.303 49.3864C270.621 50.2159 270.78 51.2045 270.78 52.3523V53.2983H260.05V51.2188H267.823C267.817 50.6278 267.69 50.1023 267.44 49.642C267.19 49.1761 266.84 48.8097 266.391 48.5426C265.948 48.2756 265.431 48.142 264.84 48.142C264.209 48.142 263.655 48.2955 263.178 48.6023C262.701 48.9034 262.329 49.3011 262.062 49.7955C261.8 50.2841 261.667 50.821 261.661 51.4062V53.2216C261.661 53.983 261.8 54.6364 262.079 55.1818C262.357 55.7216 262.746 56.1364 263.246 56.4261C263.746 56.7102 264.332 56.8523 265.002 56.8523C265.451 56.8523 265.857 56.7898 266.221 56.6648C266.584 56.5341 266.9 56.3438 267.167 56.0938C267.434 55.8438 267.636 55.5341 267.772 55.1648L270.653 55.4886C270.471 56.25 270.124 56.9148 269.613 57.483C269.107 58.0455 268.459 58.483 267.67 58.7955C266.88 59.1023 265.976 59.2557 264.959 59.2557ZM274.247 59V41.5455H277.332V48.0739H277.46C277.619 47.7557 277.843 47.4176 278.133 47.0597C278.423 46.696 278.815 46.3864 279.309 46.1307C279.804 45.8693 280.434 45.7386 281.201 45.7386C282.213 45.7386 283.125 45.9972 283.937 46.5142C284.755 47.0256 285.403 47.7841 285.88 48.7898C286.363 49.7898 286.605 51.017 286.605 52.4716C286.605 53.9091 286.369 55.1307 285.897 56.1364C285.426 57.142 284.784 57.9091 283.971 58.4375C283.159 58.9659 282.238 59.2301 281.21 59.2301C280.46 59.2301 279.838 59.1051 279.343 58.8551C278.849 58.6051 278.451 58.304 278.15 57.9517C277.855 57.5937 277.625 57.2557 277.46 56.9375H277.281V59H274.247ZM277.272 52.4545C277.272 53.3011 277.392 54.0426 277.63 54.679C277.875 55.3153 278.224 55.8125 278.679 56.1705C279.139 56.5227 279.696 56.6989 280.349 56.6989C281.031 56.6989 281.602 56.517 282.062 56.1534C282.522 55.7841 282.869 55.2812 283.102 54.6449C283.341 54.0028 283.46 53.2727 283.46 52.4545C283.46 51.642 283.343 50.9205 283.111 50.2898C282.878 49.6591 282.531 49.1648 282.071 48.8068C281.611 48.4489 281.037 48.2699 280.349 48.2699C279.69 48.2699 279.13 48.4432 278.67 48.7898C278.21 49.1364 277.861 49.6222 277.622 50.2472C277.389 50.8722 277.272 51.608 277.272 52.4545ZM293.715 59.2642C292.885 59.2642 292.138 59.1165 291.473 58.821C290.814 58.5199 290.291 58.0767 289.905 57.4915C289.524 56.9062 289.334 56.1847 289.334 55.3267C289.334 54.5881 289.47 53.9773 289.743 53.4943C290.016 53.0114 290.388 52.625 290.86 52.3352C291.331 52.0455 291.863 51.8267 292.453 51.679C293.05 51.5256 293.666 51.4148 294.303 51.3466C295.07 51.267 295.692 51.196 296.169 51.1335C296.647 51.0653 296.993 50.9631 297.209 50.8267C297.431 50.6847 297.541 50.4659 297.541 50.1705V50.1193C297.541 49.4773 297.351 48.9801 296.97 48.6278C296.59 48.2756 296.041 48.0994 295.326 48.0994C294.57 48.0994 293.97 48.2642 293.527 48.5938C293.09 48.9233 292.794 49.3125 292.641 49.7614L289.76 49.3523C289.988 48.5568 290.363 47.892 290.885 47.358C291.408 46.8182 292.047 46.4148 292.803 46.1477C293.559 45.875 294.394 45.7386 295.309 45.7386C295.939 45.7386 296.567 45.8125 297.192 45.9602C297.817 46.108 298.388 46.3523 298.905 46.6932C299.422 47.0284 299.837 47.4858 300.149 48.0653C300.468 48.6449 300.627 49.3693 300.627 50.2386V59H297.661V57.2017H297.559C297.371 57.5653 297.107 57.9062 296.766 58.2244C296.431 58.5369 296.007 58.7898 295.496 58.983C294.99 59.1705 294.397 59.2642 293.715 59.2642ZM294.516 56.9972C295.135 56.9972 295.672 56.875 296.127 56.6307C296.581 56.3807 296.931 56.0511 297.175 55.642C297.425 55.233 297.55 54.7869 297.55 54.304V52.7614C297.453 52.8409 297.289 52.9148 297.056 52.983C296.828 53.0511 296.573 53.1108 296.289 53.1619C296.005 53.2131 295.723 53.2585 295.445 53.2983C295.166 53.3381 294.925 53.3722 294.72 53.4006C294.26 53.4631 293.848 53.5653 293.485 53.7074C293.121 53.8494 292.834 54.0483 292.624 54.304C292.414 54.554 292.309 54.8778 292.309 55.2756C292.309 55.8438 292.516 56.2727 292.931 56.5625C293.345 56.8523 293.874 56.9972 294.516 56.9972ZM304.585 59V41.5455H307.671V48.0739H307.798C307.958 47.7557 308.182 47.4176 308.472 47.0597C308.761 46.696 309.154 46.3864 309.648 46.1307C310.142 45.8693 310.773 45.7386 311.54 45.7386C312.551 45.7386 313.463 45.9972 314.276 46.5142C315.094 47.0256 315.742 47.7841 316.219 48.7898C316.702 49.7898 316.943 51.017 316.943 52.4716C316.943 53.9091 316.708 55.1307 316.236 56.1364C315.764 57.142 315.122 57.9091 314.31 58.4375C313.497 58.9659 312.577 59.2301 311.548 59.2301C310.798 59.2301 310.176 59.1051 309.682 58.8551C309.188 58.6051 308.79 58.304 308.489 57.9517C308.193 57.5937 307.963 57.2557 307.798 56.9375H307.619V59H304.585ZM307.611 52.4545C307.611 53.3011 307.73 54.0426 307.969 54.679C308.213 55.3153 308.563 55.8125 309.017 56.1705C309.477 56.5227 310.034 56.6989 310.688 56.6989C311.369 56.6989 311.94 56.517 312.401 56.1534C312.861 55.7841 313.208 55.2812 313.44 54.6449C313.679 54.0028 313.798 53.2727 313.798 52.4545C313.798 51.642 313.682 50.9205 313.449 50.2898C313.216 49.6591 312.869 49.1648 312.409 48.8068C311.949 48.4489 311.375 48.2699 310.688 48.2699C310.029 48.2699 309.469 48.4432 309.009 48.7898C308.548 49.1364 308.199 49.6222 307.96 50.2472C307.727 50.8722 307.611 51.608 307.611 52.4545ZM323.099 54.892L323.09 51.1676H323.584L328.289 45.9091H331.894L326.107 52.3523H325.468L323.099 54.892ZM320.286 59V41.5455H323.371V59H320.286ZM328.502 59L324.241 53.0426L326.32 50.8693L332.192 59H328.502ZM338.437 59.2642C337.608 59.2642 336.861 59.1165 336.196 58.821C335.537 58.5199 335.014 58.0767 334.628 57.4915C334.247 56.9062 334.057 56.1847 334.057 55.3267C334.057 54.5881 334.193 53.9773 334.466 53.4943C334.738 53.0114 335.111 52.625 335.582 52.3352C336.054 52.0455 336.585 51.8267 337.176 51.679C337.772 51.5256 338.389 51.4148 339.025 51.3466C339.792 51.267 340.415 51.196 340.892 51.1335C341.369 51.0653 341.716 50.9631 341.932 50.8267C342.153 50.6847 342.264 50.4659 342.264 50.1705V50.1193C342.264 49.4773 342.074 48.9801 341.693 48.6278C341.312 48.2756 340.764 48.0994 340.048 48.0994C339.292 48.0994 338.693 48.2642 338.25 48.5938C337.812 48.9233 337.517 49.3125 337.363 49.7614L334.483 49.3523C334.71 48.5568 335.085 47.892 335.608 47.358C336.13 46.8182 336.77 46.4148 337.525 46.1477C338.281 45.875 339.116 45.7386 340.031 45.7386C340.662 45.7386 341.29 45.8125 341.915 45.9602C342.54 46.108 343.111 46.3523 343.628 46.6932C344.145 47.0284 344.559 47.4858 344.872 48.0653C345.19 48.6449 345.349 49.3693 345.349 50.2386V59H342.383V57.2017H342.281C342.094 57.5653 341.829 57.9062 341.488 58.2244C341.153 58.5369 340.73 58.7898 340.219 58.983C339.713 59.1705 339.119 59.2642 338.437 59.2642ZM339.238 56.9972C339.858 56.9972 340.395 56.875 340.849 56.6307C341.304 56.3807 341.653 56.0511 341.897 55.642C342.147 55.233 342.272 54.7869 342.272 54.304V52.7614C342.176 52.8409 342.011 52.9148 341.778 52.983C341.551 53.0511 341.295 53.1108 341.011 53.1619C340.727 53.2131 340.446 53.2585 340.167 53.2983C339.889 53.3381 339.647 53.3722 339.443 53.4006C338.983 53.4631 338.571 53.5653 338.207 53.7074C337.844 53.8494 337.557 54.0483 337.346 54.304C337.136 54.554 337.031 54.8778 337.031 55.2756C337.031 55.8438 337.238 56.2727 337.653 56.5625C338.068 56.8523 338.596 56.9972 339.238 56.9972ZM352.257 51.3295V59H349.171V45.9091H352.12V48.1335H352.274C352.575 47.4006 353.055 46.8182 353.714 46.3864C354.379 45.9545 355.2 45.7386 356.177 45.7386C357.081 45.7386 357.867 45.9318 358.538 46.3182C359.214 46.7045 359.737 47.2642 360.106 47.9972C360.481 48.7301 360.666 49.6193 360.66 50.6648V59H357.575V51.142C357.575 50.267 357.348 49.5824 356.893 49.0881C356.444 48.5937 355.822 48.3466 355.027 48.3466C354.487 48.3466 354.007 48.4659 353.586 48.7045C353.171 48.9375 352.845 49.2756 352.606 49.7188C352.373 50.1619 352.257 50.6989 352.257 51.3295ZM74.3977 90.892L74.3892 87.1676H74.8835L79.5881 81.9091H83.1932L77.4062 88.3523H76.767L74.3977 90.892ZM71.5852 95V77.5455H74.6705V95H71.5852ZM79.8011 95L75.5398 89.0426L77.6193 86.8693L83.4915 95H79.8011ZM91.2257 95.2557C89.9132 95.2557 88.7797 94.983 87.8251 94.4375C86.8763 93.8864 86.1461 93.108 85.6348 92.1023C85.1234 91.0909 84.8677 89.9006 84.8677 88.5312C84.8677 87.1847 85.1234 86.0028 85.6348 84.9858C86.1518 83.9631 86.8734 83.1676 87.7995 82.5994C88.7257 82.0256 89.8138 81.7386 91.0638 81.7386C91.8706 81.7386 92.6319 81.8693 93.3478 82.1307C94.0694 82.3864 94.7058 82.7841 95.2569 83.3239C95.8138 83.8636 96.2513 84.5511 96.5694 85.3864C96.8876 86.2159 97.0467 87.2045 97.0467 88.3523V89.2983H86.3166V87.2188H94.0893C94.0836 86.6278 93.9558 86.1023 93.7058 85.642C93.4558 85.1761 93.1064 84.8097 92.6575 84.5426C92.2143 84.2756 91.6973 84.142 91.1064 84.142C90.4757 84.142 89.9217 84.2955 89.4444 84.6023C88.9672 84.9034 88.595 85.3011 88.328 85.7955C88.0666 86.2841 87.9331 86.821 87.9274 87.4062V89.2216C87.9274 89.983 88.0666 90.6364 88.345 91.1818C88.6234 91.7216 89.0126 92.1364 89.5126 92.4261C90.0126 92.7102 90.5978 92.8523 91.2683 92.8523C91.7172 92.8523 92.1234 92.7898 92.487 92.6648C92.8507 92.5341 93.166 92.3438 93.4331 92.0938C93.7001 91.8438 93.9018 91.5341 94.0382 91.1648L96.9189 91.4886C96.737 92.25 96.3905 92.9148 95.8791 93.483C95.3734 94.0455 94.7257 94.483 93.9359 94.7955C93.1461 95.1023 92.2427 95.2557 91.2257 95.2557ZM105.235 95.2301C104.206 95.2301 103.286 94.9659 102.473 94.4375C101.661 93.9091 101.019 93.142 100.547 92.1364C100.076 91.1307 99.8399 89.9091 99.8399 88.4716C99.8399 87.017 100.078 85.7898 100.556 84.7898C101.039 83.7841 101.689 83.0256 102.507 82.5142C103.326 81.9972 104.238 81.7386 105.243 81.7386C106.01 81.7386 106.641 81.8693 107.135 82.1307C107.63 82.3864 108.022 82.696 108.311 83.0597C108.601 83.4176 108.826 83.7557 108.985 84.0739H109.113V77.5455H112.206V95H109.172V92.9375H108.985C108.826 93.2557 108.596 93.5937 108.294 93.9517C107.993 94.304 107.596 94.6051 107.101 94.8551C106.607 95.1051 105.985 95.2301 105.235 95.2301ZM106.096 92.6989C106.749 92.6989 107.306 92.5227 107.766 92.1705C108.226 91.8125 108.576 91.3153 108.814 90.679C109.053 90.0426 109.172 89.3011 109.172 88.4545C109.172 87.608 109.053 86.8722 108.814 86.2472C108.581 85.6222 108.235 85.1364 107.775 84.7898C107.32 84.4432 106.76 84.2699 106.096 84.2699C105.408 84.2699 104.834 84.4489 104.374 84.8068C103.914 85.1648 103.567 85.6591 103.334 86.2898C103.101 86.9205 102.985 87.642 102.985 88.4545C102.985 89.2727 103.101 90.0028 103.334 90.6449C103.573 91.2812 103.922 91.7841 104.382 92.1534C104.848 92.517 105.419 92.6989 106.096 92.6989ZM124.558 89.4943V81.9091H127.643V95H124.651V92.6733H124.515C124.22 93.4062 123.734 94.0057 123.058 94.4716C122.387 94.9375 121.561 95.1705 120.578 95.1705C119.72 95.1705 118.961 94.9801 118.302 94.5994C117.649 94.2131 117.137 93.6534 116.768 92.9205C116.399 92.1818 116.214 91.2898 116.214 90.2443V81.9091H119.299V89.767C119.299 90.5966 119.526 91.2557 119.981 91.7443C120.436 92.233 121.032 92.4773 121.771 92.4773C122.225 92.4773 122.666 92.3665 123.092 92.1449C123.518 91.9233 123.867 91.5938 124.14 91.1562C124.419 90.7131 124.558 90.1591 124.558 89.4943ZM135.303 95.2642C134.473 95.2642 133.726 95.1165 133.061 94.821C132.402 94.5199 131.879 94.0767 131.493 93.4915C131.112 92.9062 130.922 92.1847 130.922 91.3267C130.922 90.5881 131.058 89.9773 131.331 89.4943C131.604 89.0114 131.976 88.625 132.447 88.3352C132.919 88.0455 133.45 87.8267 134.041 87.679C134.638 87.5256 135.254 87.4148 135.891 87.3466C136.658 87.267 137.28 87.196 137.757 87.1335C138.234 87.0653 138.581 86.9631 138.797 86.8267C139.018 86.6847 139.129 86.4659 139.129 86.1705V86.1193C139.129 85.4773 138.939 84.9801 138.558 84.6278C138.178 84.2756 137.629 84.0994 136.913 84.0994C136.158 84.0994 135.558 84.2642 135.115 84.5938C134.678 84.9233 134.382 85.3125 134.229 85.7614L131.348 85.3523C131.575 84.5568 131.95 83.892 132.473 83.358C132.996 82.8182 133.635 82.4148 134.391 82.1477C135.146 81.875 135.982 81.7386 136.896 81.7386C137.527 81.7386 138.155 81.8125 138.78 81.9602C139.405 82.108 139.976 82.3523 140.493 82.6932C141.01 83.0284 141.425 83.4858 141.737 84.0653C142.055 84.6449 142.215 85.3693 142.215 86.2386V95H139.249V93.2017H139.146C138.959 93.5653 138.695 93.9062 138.354 94.2244C138.018 94.5369 137.595 94.7898 137.084 94.983C136.578 95.1705 135.984 95.2642 135.303 95.2642ZM136.104 92.9972C136.723 92.9972 137.26 92.875 137.715 92.6307C138.169 92.3807 138.518 92.0511 138.763 91.642C139.013 91.233 139.138 90.7869 139.138 90.304V88.7614C139.041 88.8409 138.876 88.9148 138.643 88.983C138.416 89.0511 138.161 89.1108 137.876 89.1619C137.592 89.2131 137.311 89.2585 137.033 89.2983C136.754 89.3381 136.513 89.3722 136.308 89.4006C135.848 89.4631 135.436 89.5653 135.072 89.7074C134.709 89.8494 134.422 90.0483 134.212 90.304C134.001 90.554 133.896 90.8778 133.896 91.2756C133.896 91.8438 134.104 92.2727 134.518 92.5625C134.933 92.8523 135.462 92.9972 136.104 92.9972ZM158.403 100.182C157.295 100.182 156.343 100.031 155.548 99.7301C154.753 99.4347 154.113 99.0369 153.63 98.5369C153.147 98.0369 152.812 97.483 152.625 96.875L155.403 96.2017C155.528 96.4574 155.71 96.7102 155.949 96.9602C156.187 97.2159 156.508 97.4261 156.912 97.5909C157.321 97.7614 157.835 97.8466 158.454 97.8466C159.329 97.8466 160.054 97.6335 160.628 97.2074C161.201 96.7869 161.488 96.0938 161.488 95.1278V92.6477H161.335C161.176 92.9659 160.943 93.2926 160.636 93.6278C160.335 93.9631 159.934 94.2443 159.434 94.4716C158.94 94.6989 158.318 94.8125 157.568 94.8125C156.562 94.8125 155.65 94.5767 154.832 94.1051C154.02 93.6278 153.372 92.9176 152.889 91.9744C152.412 91.0256 152.173 89.8381 152.173 88.4119C152.173 86.9744 152.412 85.7614 152.889 84.7727C153.372 83.7784 154.022 83.0256 154.841 82.5142C155.659 81.9972 156.571 81.7386 157.576 81.7386C158.343 81.7386 158.974 81.8693 159.468 82.1307C159.968 82.3864 160.366 82.696 160.662 83.0597C160.957 83.4176 161.182 83.7557 161.335 84.0739H161.505V81.9091H164.548V95.2131C164.548 96.3324 164.281 97.2585 163.747 97.9915C163.213 98.7244 162.483 99.2727 161.557 99.6364C160.63 100 159.579 100.182 158.403 100.182ZM158.429 92.392C159.082 92.392 159.639 92.233 160.099 91.9148C160.559 91.5966 160.909 91.1392 161.147 90.5426C161.386 89.946 161.505 89.2301 161.505 88.3949C161.505 87.571 161.386 86.8494 161.147 86.2301C160.914 85.6108 160.568 85.1307 160.108 84.7898C159.653 84.4432 159.093 84.2699 158.429 84.2699C157.741 84.2699 157.167 84.4489 156.707 84.8068C156.247 85.1648 155.9 85.6562 155.667 86.2812C155.434 86.9006 155.318 87.6051 155.318 88.3949C155.318 89.196 155.434 89.8977 155.667 90.5C155.906 91.0966 156.255 91.5625 156.716 91.8977C157.182 92.2273 157.753 92.392 158.429 92.392ZM172.197 95.2642C171.367 95.2642 170.62 95.1165 169.955 94.821C169.296 94.5199 168.774 94.0767 168.387 93.4915C168.007 92.9062 167.816 92.1847 167.816 91.3267C167.816 90.5881 167.953 89.9773 168.225 89.4943C168.498 89.0114 168.87 88.625 169.342 88.3352C169.813 88.0455 170.345 87.8267 170.936 87.679C171.532 87.5256 172.149 87.4148 172.785 87.3466C173.552 87.267 174.174 87.196 174.652 87.1335C175.129 87.0653 175.475 86.9631 175.691 86.8267C175.913 86.6847 176.024 86.4659 176.024 86.1705V86.1193C176.024 85.4773 175.833 84.9801 175.453 84.6278C175.072 84.2756 174.524 84.0994 173.808 84.0994C173.052 84.0994 172.453 84.2642 172.009 84.5938C171.572 84.9233 171.277 85.3125 171.123 85.7614L168.242 85.3523C168.47 84.5568 168.845 83.892 169.367 83.358C169.89 82.8182 170.529 82.4148 171.285 82.1477C172.041 81.875 172.876 81.7386 173.791 81.7386C174.421 81.7386 175.049 81.8125 175.674 81.9602C176.299 82.108 176.87 82.3523 177.387 82.6932C177.904 83.0284 178.319 83.4858 178.632 84.0653C178.95 84.6449 179.109 85.3693 179.109 86.2386V95H176.143V93.2017H176.041C175.853 93.5653 175.589 93.9062 175.248 94.2244C174.913 94.5369 174.49 94.7898 173.978 94.983C173.473 95.1705 172.879 95.2642 172.197 95.2642ZM172.998 92.9972C173.617 92.9972 174.154 92.875 174.609 92.6307C175.063 92.3807 175.413 92.0511 175.657 91.642C175.907 91.233 176.032 90.7869 176.032 90.304V88.7614C175.936 88.8409 175.771 88.9148 175.538 88.983C175.311 89.0511 175.055 89.1108 174.771 89.1619C174.487 89.2131 174.205 89.2585 173.927 89.2983C173.649 89.3381 173.407 89.3722 173.203 89.4006C172.742 89.4631 172.33 89.5653 171.967 89.7074C171.603 89.8494 171.316 90.0483 171.106 90.304C170.896 90.554 170.791 90.8778 170.791 91.2756C170.791 91.8438 170.998 92.2727 171.413 92.5625C171.828 92.8523 172.356 92.9972 172.998 92.9972ZM182.931 95V81.9091H185.88V84.1335H186.033C186.306 83.3835 186.758 82.7983 187.389 82.3778C188.019 81.9517 188.772 81.7386 189.647 81.7386C190.533 81.7386 191.281 81.9545 191.889 82.3864C192.502 82.8125 192.934 83.3949 193.184 84.1335H193.32C193.61 83.4062 194.099 82.8267 194.786 82.3949C195.479 81.9574 196.3 81.7386 197.249 81.7386C198.454 81.7386 199.437 82.1193 200.198 82.8807C200.96 83.642 201.34 84.7528 201.34 86.2131V95H198.247V86.6903C198.247 85.8778 198.031 85.2841 197.599 84.9091C197.167 84.5284 196.639 84.3381 196.014 84.3381C195.269 84.3381 194.687 84.571 194.266 85.0369C193.852 85.4972 193.644 86.0966 193.644 86.8352V95H190.619V86.5625C190.619 85.8864 190.414 85.3466 190.005 84.9432C189.602 84.5398 189.073 84.3381 188.42 84.3381C187.977 84.3381 187.573 84.4517 187.21 84.679C186.846 84.9006 186.556 85.2159 186.34 85.625C186.124 86.0284 186.016 86.5 186.016 87.0398V95H182.931ZM205.327 95V77.5455H208.412V84.0739H208.54C208.699 83.7557 208.923 83.4176 209.213 83.0597C209.503 82.696 209.895 82.3864 210.389 82.1307C210.883 81.8693 211.514 81.7386 212.281 81.7386C213.292 81.7386 214.204 81.9972 215.017 82.5142C215.835 83.0256 216.483 83.7841 216.96 84.7898C217.443 85.7898 217.685 87.017 217.685 88.4716C217.685 89.9091 217.449 91.1307 216.977 92.1364C216.506 93.142 215.864 93.9091 215.051 94.4375C214.239 94.9659 213.318 95.2301 212.29 95.2301C211.54 95.2301 210.917 95.1051 210.423 94.8551C209.929 94.6051 209.531 94.304 209.23 93.9517C208.935 93.5937 208.704 93.2557 208.54 92.9375H208.361V95H205.327ZM208.352 88.4545C208.352 89.3011 208.471 90.0426 208.71 90.679C208.954 91.3153 209.304 91.8125 209.758 92.1705C210.219 92.5227 210.775 92.6989 211.429 92.6989C212.111 92.6989 212.682 92.517 213.142 92.1534C213.602 91.7841 213.949 91.2812 214.182 90.6449C214.42 90.0028 214.54 89.2727 214.54 88.4545C214.54 87.642 214.423 86.9205 214.19 86.2898C213.957 85.6591 213.611 85.1648 213.15 84.8068C212.69 84.4489 212.116 84.2699 211.429 84.2699C210.77 84.2699 210.21 84.4432 209.75 84.7898C209.29 85.1364 208.94 85.6222 208.702 86.2472C208.469 86.8722 208.352 87.608 208.352 88.4545ZM224.794 95.2642C223.965 95.2642 223.218 95.1165 222.553 94.821C221.894 94.5199 221.371 94.0767 220.985 93.4915C220.604 92.9062 220.414 92.1847 220.414 91.3267C220.414 90.5881 220.55 89.9773 220.823 89.4943C221.096 89.0114 221.468 88.625 221.939 88.3352C222.411 88.0455 222.942 87.8267 223.533 87.679C224.13 87.5256 224.746 87.4148 225.383 87.3466C226.15 87.267 226.772 87.196 227.249 87.1335C227.726 87.0653 228.073 86.9631 228.289 86.8267C228.51 86.6847 228.621 86.4659 228.621 86.1705V86.1193C228.621 85.4773 228.431 84.9801 228.05 84.6278C227.669 84.2756 227.121 84.0994 226.405 84.0994C225.65 84.0994 225.05 84.2642 224.607 84.5938C224.169 84.9233 223.874 85.3125 223.721 85.7614L220.84 85.3523C221.067 84.5568 221.442 83.892 221.965 83.358C222.488 82.8182 223.127 82.4148 223.883 82.1477C224.638 81.875 225.473 81.7386 226.388 81.7386C227.019 81.7386 227.647 81.8125 228.272 81.9602C228.897 82.108 229.468 82.3523 229.985 82.6932C230.502 83.0284 230.917 83.4858 231.229 84.0653C231.547 84.6449 231.706 85.3693 231.706 86.2386V95H228.74V93.2017H228.638C228.451 93.5653 228.187 93.9062 227.846 94.2244C227.51 94.5369 227.087 94.7898 226.576 94.983C226.07 95.1705 225.476 95.2642 224.794 95.2642ZM225.596 92.9972C226.215 92.9972 226.752 92.875 227.206 92.6307C227.661 92.3807 228.01 92.0511 228.255 91.642C228.505 91.233 228.63 90.7869 228.63 90.304V88.7614C228.533 88.8409 228.368 88.9148 228.135 88.983C227.908 89.0511 227.652 89.1108 227.368 89.1619C227.084 89.2131 226.803 89.2585 226.525 89.2983C226.246 89.3381 226.005 89.3722 225.8 89.4006C225.34 89.4631 224.928 89.5653 224.564 89.7074C224.201 89.8494 223.914 90.0483 223.704 90.304C223.493 90.554 223.388 90.8778 223.388 91.2756C223.388 91.8438 223.596 92.2727 224.01 92.5625C224.425 92.8523 224.954 92.9972 225.596 92.9972ZM235.529 95V81.9091H238.52V84.0909H238.657C238.895 83.3352 239.304 82.7528 239.884 82.3438C240.469 81.929 241.137 81.7216 241.887 81.7216C242.057 81.7216 242.247 81.7301 242.458 81.7472C242.674 81.7585 242.853 81.7784 242.995 81.8068V84.6449C242.864 84.5994 242.657 84.5597 242.372 84.5256C242.094 84.4858 241.824 84.4659 241.563 84.4659C241 84.4659 240.495 84.5881 240.046 84.8324C239.603 85.071 239.253 85.4034 238.997 85.8295C238.742 86.2557 238.614 86.7472 238.614 87.304V95H235.529ZM258.974 81.9091V84.2955H251.449V81.9091H258.974ZM253.307 78.7727H256.392V91.0625C256.392 91.4773 256.454 91.7955 256.579 92.017C256.71 92.233 256.881 92.3807 257.091 92.4602C257.301 92.5398 257.534 92.5795 257.79 92.5795C257.983 92.5795 258.159 92.5653 258.318 92.5369C258.483 92.5085 258.608 92.483 258.693 92.4602L259.213 94.8722C259.048 94.929 258.812 94.9915 258.506 95.0597C258.204 95.1278 257.835 95.1676 257.398 95.179C256.625 95.2017 255.929 95.0852 255.31 94.8295C254.69 94.5682 254.199 94.1648 253.835 93.6193C253.477 93.0739 253.301 92.392 253.307 91.5739V78.7727ZM267.929 95.2557C266.617 95.2557 265.483 94.983 264.529 94.4375C263.58 93.8864 262.85 93.108 262.339 92.1023C261.827 91.0909 261.571 89.9006 261.571 88.5312C261.571 87.1847 261.827 86.0028 262.339 84.9858C262.856 83.9631 263.577 83.1676 264.503 82.5994C265.429 82.0256 266.518 81.7386 267.768 81.7386C268.574 81.7386 269.336 81.8693 270.052 82.1307C270.773 82.3864 271.41 82.7841 271.961 83.3239C272.518 83.8636 272.955 84.5511 273.273 85.3864C273.591 86.2159 273.75 87.2045 273.75 88.3523V89.2983H263.02V87.2188H270.793C270.787 86.6278 270.66 86.1023 270.41 85.642C270.16 85.1761 269.81 84.8097 269.361 84.5426C268.918 84.2756 268.401 84.142 267.81 84.142C267.179 84.142 266.625 84.2955 266.148 84.6023C265.671 84.9034 265.299 85.3011 265.032 85.7955C264.77 86.2841 264.637 86.821 264.631 87.4062V89.2216C264.631 89.983 264.77 90.6364 265.049 91.1818C265.327 91.7216 265.716 92.1364 266.216 92.4261C266.716 92.7102 267.302 92.8523 267.972 92.8523C268.421 92.8523 268.827 92.7898 269.191 92.6648C269.554 92.5341 269.87 92.3438 270.137 92.0938C270.404 91.8438 270.606 91.5341 270.742 91.1648L273.623 91.4886C273.441 92.25 273.094 92.9148 272.583 93.483C272.077 94.0455 271.429 94.483 270.64 94.7955C269.85 95.1023 268.946 95.2557 267.929 95.2557ZM277.081 95V81.9091H280.072V84.0909H280.208C280.447 83.3352 280.856 82.7528 281.436 82.3438C282.021 81.929 282.688 81.7216 283.438 81.7216C283.609 81.7216 283.799 81.7301 284.01 81.7472C284.225 81.7585 284.404 81.7784 284.546 81.8068V84.6449C284.416 84.5994 284.208 84.5597 283.924 84.5256C283.646 84.4858 283.376 84.4659 283.115 84.4659C282.552 84.4659 282.046 84.5881 281.598 84.8324C281.154 85.071 280.805 85.4034 280.549 85.8295C280.294 86.2557 280.166 86.7472 280.166 87.304V95H277.081ZM297.663 85.3693L294.85 85.6761C294.771 85.392 294.632 85.125 294.433 84.875C294.239 84.625 293.978 84.4233 293.649 84.2699C293.319 84.1165 292.916 84.0398 292.438 84.0398C291.796 84.0398 291.257 84.179 290.819 84.4574C290.387 84.7358 290.174 85.0966 290.18 85.5398C290.174 85.9205 290.313 86.2301 290.597 86.4688C290.887 86.7074 291.364 86.9034 292.029 87.0568L294.262 87.5341C295.501 87.8011 296.421 88.2244 297.024 88.804C297.632 89.3835 297.938 90.142 297.944 91.0795C297.938 91.9034 297.697 92.6307 297.22 93.2614C296.748 93.8864 296.092 94.375 295.251 94.7273C294.41 95.0795 293.444 95.2557 292.353 95.2557C290.751 95.2557 289.461 94.9205 288.484 94.25C287.507 93.5739 286.924 92.6335 286.737 91.429L289.745 91.1392C289.882 91.7301 290.171 92.1761 290.614 92.4773C291.058 92.7784 291.634 92.929 292.345 92.929C293.078 92.929 293.666 92.7784 294.109 92.4773C294.558 92.1761 294.782 91.804 294.782 91.3608C294.782 90.9858 294.637 90.6761 294.347 90.4318C294.063 90.1875 293.62 90 293.018 89.8693L290.785 89.4006C289.529 89.1392 288.6 88.6989 287.998 88.0795C287.396 87.4545 287.097 86.6648 287.103 85.7102C287.097 84.9034 287.316 84.2045 287.759 83.6136C288.208 83.017 288.83 82.5568 289.626 82.233C290.427 81.9034 291.35 81.7386 292.396 81.7386C293.93 81.7386 295.137 82.0653 296.018 82.7188C296.904 83.3722 297.453 84.2557 297.663 85.3693ZM307.003 95.2557C305.691 95.2557 304.557 94.983 303.603 94.4375C302.654 93.8864 301.924 93.108 301.413 92.1023C300.901 91.0909 300.646 89.9006 300.646 88.5312C300.646 87.1847 300.901 86.0028 301.413 84.9858C301.93 83.9631 302.651 83.1676 303.577 82.5994C304.503 82.0256 305.592 81.7386 306.842 81.7386C307.648 81.7386 308.41 81.8693 309.126 82.1307C309.847 82.3864 310.484 82.7841 311.035 83.3239C311.592 83.8636 312.029 84.5511 312.347 85.3864C312.665 86.2159 312.825 87.2045 312.825 88.3523V89.2983H302.094V87.2188H309.867C309.861 86.6278 309.734 86.1023 309.484 85.642C309.234 85.1761 308.884 84.8097 308.435 84.5426C307.992 84.2756 307.475 84.142 306.884 84.142C306.253 84.142 305.7 84.2955 305.222 84.6023C304.745 84.9034 304.373 85.3011 304.106 85.7955C303.844 86.2841 303.711 86.821 303.705 87.4062V89.2216C303.705 89.983 303.844 90.6364 304.123 91.1818C304.401 91.7216 304.79 92.1364 305.29 92.4261C305.79 92.7102 306.376 92.8523 307.046 92.8523C307.495 92.8523 307.901 92.7898 308.265 92.6648C308.628 92.5341 308.944 92.3438 309.211 92.0938C309.478 91.8438 309.68 91.5341 309.816 91.1648L312.697 91.4886C312.515 92.25 312.168 92.9148 311.657 93.483C311.151 94.0455 310.503 94.483 309.714 94.7955C308.924 95.1023 308.021 95.2557 307.003 95.2557ZM316.291 95V77.5455H319.376V84.0739H319.504C319.663 83.7557 319.888 83.4176 320.177 83.0597C320.467 82.696 320.859 82.3864 321.353 82.1307C321.848 81.8693 322.478 81.7386 323.246 81.7386C324.257 81.7386 325.169 81.9972 325.981 82.5142C326.799 83.0256 327.447 83.7841 327.924 84.7898C328.407 85.7898 328.649 87.017 328.649 88.4716C328.649 89.9091 328.413 91.1307 327.942 92.1364C327.47 93.142 326.828 93.9091 326.015 94.4375C325.203 94.9659 324.282 95.2301 323.254 95.2301C322.504 95.2301 321.882 95.1051 321.388 94.8551C320.893 94.6051 320.496 94.304 320.194 93.9517C319.899 93.5937 319.669 93.2557 319.504 92.9375H319.325V95H316.291ZM319.317 88.4545C319.317 89.3011 319.436 90.0426 319.674 90.679C319.919 91.3153 320.268 91.8125 320.723 92.1705C321.183 92.5227 321.74 92.6989 322.393 92.6989C323.075 92.6989 323.646 92.517 324.106 92.1534C324.567 91.7841 324.913 91.2812 325.146 90.6449C325.385 90.0028 325.504 89.2727 325.504 88.4545C325.504 87.642 325.388 86.9205 325.155 86.2898C324.922 85.6591 324.575 85.1648 324.115 84.8068C323.655 84.4489 323.081 84.2699 322.393 84.2699C321.734 84.2699 321.174 84.4432 320.714 84.7898C320.254 85.1364 319.905 85.6222 319.666 86.2472C319.433 86.8722 319.317 87.608 319.317 88.4545ZM340.336 89.4943V81.9091H343.421V95H340.429V92.6733H340.293C339.997 93.4062 339.512 94.0057 338.836 94.4716C338.165 94.9375 337.338 95.1705 336.355 95.1705C335.497 95.1705 334.739 94.9801 334.08 94.5994C333.426 94.2131 332.915 93.6534 332.546 92.9205C332.176 92.1818 331.992 91.2898 331.992 90.2443V81.9091H335.077V89.767C335.077 90.5966 335.304 91.2557 335.759 91.7443C336.213 92.233 336.81 92.4773 337.549 92.4773C338.003 92.4773 338.443 92.3665 338.87 92.1449C339.296 91.9233 339.645 91.5938 339.918 91.1562C340.196 90.7131 340.336 90.1591 340.336 89.4943ZM353.85 81.9091V84.2955H346.325V81.9091H353.85ZM348.183 78.7727H351.268V91.0625C351.268 91.4773 351.33 91.7955 351.455 92.017C351.586 92.233 351.757 92.3807 351.967 92.4602C352.177 92.5398 352.41 92.5795 352.666 92.5795C352.859 92.5795 353.035 92.5653 353.194 92.5369C353.359 92.5085 353.484 92.483 353.569 92.4602L354.089 94.8722C353.924 94.929 353.688 94.9915 353.382 95.0597C353.08 95.1278 352.711 95.1676 352.274 95.179C351.501 95.2017 350.805 95.0852 350.186 94.8295C349.566 94.5682 349.075 94.1648 348.711 93.6193C348.353 93.0739 348.177 92.392 348.183 91.5739V78.7727ZM71.7216 131V113.545H74.8068V120.074H74.9347C75.0938 119.756 75.3182 119.418 75.608 119.06C75.8977 118.696 76.2898 118.386 76.7841 118.131C77.2784 117.869 77.9091 117.739 78.6761 117.739C79.6875 117.739 80.5994 117.997 81.4119 118.514C82.2301 119.026 82.8778 119.784 83.3551 120.79C83.8381 121.79 84.0795 123.017 84.0795 124.472C84.0795 125.909 83.8438 127.131 83.3722 128.136C82.9006 129.142 82.2585 129.909 81.446 130.438C80.6335 130.966 79.7131 131.23 78.6847 131.23C77.9347 131.23 77.3125 131.105 76.8182 130.855C76.3239 130.605 75.9261 130.304 75.625 129.952C75.3295 129.594 75.0994 129.256 74.9347 128.938H74.7557V131H71.7216ZM74.7472 124.455C74.7472 125.301 74.8665 126.043 75.1051 126.679C75.3494 127.315 75.6989 127.812 76.1534 128.17C76.6136 128.523 77.1705 128.699 77.8239 128.699C78.5057 128.699 79.0767 128.517 79.5369 128.153C79.9972 127.784 80.3438 127.281 80.5767 126.645C80.8153 126.003 80.9347 125.273 80.9347 124.455C80.9347 123.642 80.8182 122.92 80.5852 122.29C80.3523 121.659 80.0057 121.165 79.5455 120.807C79.0852 120.449 78.5114 120.27 77.8239 120.27C77.1648 120.27 76.6051 120.443 76.1449 120.79C75.6847 121.136 75.3352 121.622 75.0966 122.247C74.8636 122.872 74.7472 123.608 74.7472 124.455ZM93.2179 131.256C91.9054 131.256 90.7718 130.983 89.8173 130.438C88.8684 129.886 88.1383 129.108 87.627 128.102C87.1156 127.091 86.8599 125.901 86.8599 124.531C86.8599 123.185 87.1156 122.003 87.627 120.986C88.144 119.963 88.8656 119.168 89.7917 118.599C90.7179 118.026 91.8059 117.739 93.0559 117.739C93.8628 117.739 94.6241 117.869 95.34 118.131C96.0616 118.386 96.698 118.784 97.2491 119.324C97.8059 119.864 98.2434 120.551 98.5616 121.386C98.8798 122.216 99.0389 123.205 99.0389 124.352V125.298H88.3088V123.219H96.0815C96.0758 122.628 95.948 122.102 95.698 121.642C95.448 121.176 95.0986 120.81 94.6497 120.543C94.2065 120.276 93.6895 120.142 93.0986 120.142C92.4679 120.142 91.9139 120.295 91.4366 120.602C90.9593 120.903 90.5872 121.301 90.3201 121.795C90.0588 122.284 89.9253 122.821 89.9196 123.406V125.222C89.9196 125.983 90.0588 126.636 90.3372 127.182C90.6156 127.722 91.0048 128.136 91.5048 128.426C92.0048 128.71 92.59 128.852 93.2605 128.852C93.7093 128.852 94.1156 128.79 94.4792 128.665C94.8429 128.534 95.1582 128.344 95.4253 128.094C95.6923 127.844 95.894 127.534 96.0304 127.165L98.9111 127.489C98.7292 128.25 98.3826 128.915 97.8713 129.483C97.3656 130.045 96.7179 130.483 95.9281 130.795C95.1383 131.102 94.2349 131.256 93.2179 131.256ZM102.369 131V117.909H105.36V120.091H105.497C105.735 119.335 106.145 118.753 106.724 118.344C107.309 117.929 107.977 117.722 108.727 117.722C108.897 117.722 109.088 117.73 109.298 117.747C109.514 117.759 109.693 117.778 109.835 117.807V120.645C109.704 120.599 109.497 120.56 109.213 120.526C108.934 120.486 108.664 120.466 108.403 120.466C107.841 120.466 107.335 120.588 106.886 120.832C106.443 121.071 106.093 121.403 105.838 121.83C105.582 122.256 105.454 122.747 105.454 123.304V131H102.369ZM112.741 131V113.545H115.826V120.074H115.954C116.113 119.756 116.338 119.418 116.627 119.06C116.917 118.696 117.309 118.386 117.803 118.131C118.298 117.869 118.928 117.739 119.696 117.739C120.707 117.739 121.619 117.997 122.431 118.514C123.249 119.026 123.897 119.784 124.374 120.79C124.857 121.79 125.099 123.017 125.099 124.472C125.099 125.909 124.863 127.131 124.392 128.136C123.92 129.142 123.278 129.909 122.465 130.438C121.653 130.966 120.732 131.23 119.704 131.23C118.954 131.23 118.332 131.105 117.838 130.855C117.343 130.605 116.946 130.304 116.644 129.952C116.349 129.594 116.119 129.256 115.954 128.938H115.775V131H112.741ZM115.767 124.455C115.767 125.301 115.886 126.043 116.124 126.679C116.369 127.315 116.718 127.812 117.173 128.17C117.633 128.523 118.19 128.699 118.843 128.699C119.525 128.699 120.096 128.517 120.556 128.153C121.017 127.784 121.363 127.281 121.596 126.645C121.835 126.003 121.954 125.273 121.954 124.455C121.954 123.642 121.838 122.92 121.605 122.29C121.372 121.659 121.025 121.165 120.565 120.807C120.105 120.449 119.531 120.27 118.843 120.27C118.184 120.27 117.624 120.443 117.164 120.79C116.704 121.136 116.355 121.622 116.116 122.247C115.883 122.872 115.767 123.608 115.767 124.455ZM134.237 131.256C132.925 131.256 131.791 130.983 130.837 130.438C129.888 129.886 129.158 129.108 128.646 128.102C128.135 127.091 127.879 125.901 127.879 124.531C127.879 123.185 128.135 122.003 128.646 120.986C129.163 119.963 129.885 119.168 130.811 118.599C131.737 118.026 132.825 117.739 134.075 117.739C134.882 117.739 135.643 117.869 136.359 118.131C137.081 118.386 137.717 118.784 138.268 119.324C138.825 119.864 139.263 120.551 139.581 121.386C139.899 122.216 140.058 123.205 140.058 124.352V125.298H129.328V123.219H137.101C137.095 122.628 136.967 122.102 136.717 121.642C136.467 121.176 136.118 120.81 135.669 120.543C135.226 120.276 134.709 120.142 134.118 120.142C133.487 120.142 132.933 120.295 132.456 120.602C131.979 120.903 131.607 121.301 131.34 121.795C131.078 122.284 130.945 122.821 130.939 123.406V125.222C130.939 125.983 131.078 126.636 131.357 127.182C131.635 127.722 132.024 128.136 132.524 128.426C133.024 128.71 133.609 128.852 134.28 128.852C134.729 128.852 135.135 128.79 135.499 128.665C135.862 128.534 136.178 128.344 136.445 128.094C136.712 127.844 136.913 127.534 137.05 127.165L139.93 127.489C139.749 128.25 139.402 128.915 138.891 129.483C138.385 130.045 137.737 130.483 136.947 130.795C136.158 131.102 135.254 131.256 134.237 131.256ZM148.246 131.23C147.218 131.23 146.297 130.966 145.485 130.438C144.672 129.909 144.03 129.142 143.559 128.136C143.087 127.131 142.851 125.909 142.851 124.472C142.851 123.017 143.09 121.79 143.567 120.79C144.05 119.784 144.701 119.026 145.519 118.514C146.337 117.997 147.249 117.739 148.255 117.739C149.022 117.739 149.653 117.869 150.147 118.131C150.641 118.386 151.033 118.696 151.323 119.06C151.613 119.418 151.837 119.756 151.996 120.074H152.124V113.545H155.218V131H152.184V128.938H151.996C151.837 129.256 151.607 129.594 151.306 129.952C151.005 130.304 150.607 130.605 150.113 130.855C149.618 131.105 148.996 131.23 148.246 131.23ZM149.107 128.699C149.761 128.699 150.317 128.523 150.778 128.17C151.238 127.812 151.587 127.315 151.826 126.679C152.064 126.043 152.184 125.301 152.184 124.455C152.184 123.608 152.064 122.872 151.826 122.247C151.593 121.622 151.246 121.136 150.786 120.79C150.332 120.443 149.772 120.27 149.107 120.27C148.42 120.27 147.846 120.449 147.386 120.807C146.925 121.165 146.579 121.659 146.346 122.29C146.113 122.92 145.996 123.642 145.996 124.455C145.996 125.273 146.113 126.003 146.346 126.645C146.584 127.281 146.934 127.784 147.394 128.153C147.86 128.517 148.431 128.699 149.107 128.699ZM162.993 131.264C162.163 131.264 161.416 131.116 160.751 130.821C160.092 130.52 159.569 130.077 159.183 129.491C158.802 128.906 158.612 128.185 158.612 127.327C158.612 126.588 158.748 125.977 159.021 125.494C159.294 125.011 159.666 124.625 160.137 124.335C160.609 124.045 161.14 123.827 161.731 123.679C162.328 123.526 162.944 123.415 163.581 123.347C164.348 123.267 164.97 123.196 165.447 123.134C165.924 123.065 166.271 122.963 166.487 122.827C166.708 122.685 166.819 122.466 166.819 122.17V122.119C166.819 121.477 166.629 120.98 166.248 120.628C165.868 120.276 165.319 120.099 164.603 120.099C163.848 120.099 163.248 120.264 162.805 120.594C162.368 120.923 162.072 121.312 161.919 121.761L159.038 121.352C159.265 120.557 159.64 119.892 160.163 119.358C160.686 118.818 161.325 118.415 162.081 118.148C162.836 117.875 163.672 117.739 164.586 117.739C165.217 117.739 165.845 117.812 166.47 117.96C167.095 118.108 167.666 118.352 168.183 118.693C168.7 119.028 169.115 119.486 169.427 120.065C169.745 120.645 169.905 121.369 169.905 122.239V131H166.939V129.202H166.836C166.649 129.565 166.385 129.906 166.044 130.224C165.708 130.537 165.285 130.79 164.774 130.983C164.268 131.17 163.674 131.264 162.993 131.264ZM163.794 128.997C164.413 128.997 164.95 128.875 165.405 128.631C165.859 128.381 166.208 128.051 166.453 127.642C166.703 127.233 166.828 126.787 166.828 126.304V124.761C166.731 124.841 166.566 124.915 166.333 124.983C166.106 125.051 165.851 125.111 165.566 125.162C165.282 125.213 165.001 125.259 164.723 125.298C164.444 125.338 164.203 125.372 163.998 125.401C163.538 125.463 163.126 125.565 162.762 125.707C162.399 125.849 162.112 126.048 161.902 126.304C161.691 126.554 161.586 126.878 161.586 127.276C161.586 127.844 161.794 128.273 162.208 128.562C162.623 128.852 163.152 128.997 163.794 128.997ZM176.676 125.869V125.648C176.681 124.619 176.778 123.801 176.965 123.193C177.159 122.585 177.431 122.097 177.784 121.727C178.136 121.352 178.565 121.009 179.071 120.696C179.417 120.48 179.727 120.244 180 119.989C180.278 119.727 180.497 119.437 180.656 119.119C180.815 118.795 180.894 118.435 180.894 118.037C180.894 117.588 180.789 117.199 180.579 116.869C180.369 116.54 180.085 116.284 179.727 116.102C179.375 115.92 178.98 115.83 178.542 115.83C178.139 115.83 177.755 115.918 177.392 116.094C177.034 116.264 176.735 116.526 176.497 116.878C176.264 117.224 176.133 117.665 176.105 118.199H173.071C173.099 117.119 173.36 116.216 173.855 115.489C174.355 114.761 175.014 114.216 175.832 113.852C176.656 113.489 177.565 113.307 178.559 113.307C179.644 113.307 180.599 113.497 181.423 113.878C182.252 114.259 182.897 114.801 183.357 115.506C183.823 116.205 184.056 117.034 184.056 117.994C184.056 118.642 183.951 119.222 183.741 119.733C183.536 120.244 183.244 120.699 182.863 121.097C182.482 121.494 182.031 121.849 181.508 122.162C181.048 122.446 180.67 122.741 180.375 123.048C180.085 123.355 179.869 123.716 179.727 124.131C179.59 124.54 179.519 125.045 179.514 125.648V125.869H176.676ZM178.159 131.188C177.647 131.188 177.207 131.006 176.838 130.642C176.468 130.278 176.284 129.835 176.284 129.312C176.284 128.801 176.468 128.364 176.838 128C177.207 127.636 177.647 127.455 178.159 127.455C178.664 127.455 179.102 127.636 179.471 128C179.846 128.364 180.034 128.801 180.034 129.312C180.034 129.659 179.946 129.974 179.769 130.259C179.599 130.543 179.372 130.77 179.088 130.94C178.809 131.105 178.5 131.188 178.159 131.188Z" fill="black"/>
<path d="M40.321 27.227C41.289 27.3844 42 28.2204 42 29.2011L42 57.6625C42 59.4456 39.8431 60.3373 38.5839 59.0748L4.70336 25.1042C3.33319 23.7304 4.52531 21.4064 6.44044 21.7178L40.321 27.227Z" fill="white"/>
</svg>
