<svg width="264" height="214" viewBox="0 0 264 214" fill="none" xmlns="http://www.w3.org/2000/svg">
<path d="M264 97.1661C264 150.829 193.56 194.017 120.659 194.017C109.801 194.017 102.086 215.711 91.9905 213.892C80.5116 211.823 89.4693 190.247 79.389 186.13C38.8076 169.554 0 133.75 0 97.1661C0 43.5027 59.0984 0 132 0C204.902 0 264 43.5027 264 97.1661Z" fill="white"/>
<path d="M73.0078 58.1307C72.9169 57.3239 72.5419 56.6989 71.8828 56.2557C71.2237 55.8068 70.3942 55.5824 69.3942 55.5824C68.6783 55.5824 68.0589 55.696 67.5362 55.9233C67.0135 56.1449 66.6072 56.4517 66.3175 56.8438C66.0334 57.2301 65.8913 57.6705 65.8913 58.1648C65.8913 58.5795 65.9879 58.9375 66.1811 59.2386C66.38 59.5398 66.6385 59.7926 66.9567 59.9972C67.2805 60.196 67.6271 60.3636 67.9964 60.5C68.3658 60.6307 68.7209 60.7386 69.0618 60.8239L70.7663 61.267C71.3232 61.4034 71.8942 61.5881 72.4794 61.821C73.0646 62.054 73.6072 62.3608 74.1072 62.7415C74.6072 63.1222 75.0107 63.5938 75.3175 64.1562C75.63 64.7188 75.7862 65.392 75.7862 66.1761C75.7862 67.1648 75.5305 68.0426 75.0192 68.8097C74.5135 69.5767 73.7777 70.1818 72.8118 70.625C71.8516 71.0682 70.6896 71.2898 69.326 71.2898C68.0192 71.2898 66.8885 71.0824 65.9339 70.6676C64.9794 70.2528 64.2322 69.6648 63.6925 68.9034C63.1527 68.1364 62.8544 67.2273 62.7976 66.1761H65.4396C65.4908 66.8068 65.6953 67.3324 66.0533 67.7528C66.4169 68.1676 66.88 68.4773 67.4425 68.6818C68.0107 68.8807 68.6328 68.9801 69.3089 68.9801C70.0533 68.9801 70.7152 68.8636 71.2947 68.6307C71.88 68.392 72.3402 68.0625 72.6754 67.642C73.0107 67.2159 73.1783 66.7187 73.1783 66.1506C73.1783 65.6335 73.0305 65.2102 72.7351 64.8807C72.4453 64.5511 72.0504 64.2784 71.5504 64.0625C71.0561 63.8466 70.4964 63.6562 69.8714 63.4915L67.8089 62.929C66.4112 62.5483 65.3033 61.9886 64.4851 61.25C63.6726 60.5114 63.2663 59.5341 63.2663 58.3182C63.2663 57.3125 63.5391 56.4347 64.0845 55.6847C64.63 54.9347 65.3686 54.3523 66.3004 53.9375C67.2322 53.517 68.2834 53.3068 69.4538 53.3068C70.6357 53.3068 71.6783 53.5142 72.5817 53.929C73.4908 54.3438 74.2067 54.9148 74.7294 55.642C75.2521 56.3636 75.5249 57.1932 75.5476 58.1307H73.0078ZM84.3707 71.2642C83.081 71.2642 81.9702 70.9886 81.0384 70.4375C80.1122 69.8807 79.3963 69.0994 78.8906 68.0938C78.3906 67.0824 78.1406 65.8977 78.1406 64.5398C78.1406 63.1989 78.3906 62.017 78.8906 60.9943C79.3963 59.9716 80.1009 59.1733 81.0043 58.5994C81.9134 58.0256 82.9759 57.7386 84.1918 57.7386C84.9304 57.7386 85.6463 57.8608 86.3395 58.1051C87.0327 58.3494 87.6548 58.733 88.206 59.2557C88.7571 59.7784 89.1918 60.4574 89.5099 61.2926C89.8281 62.1222 89.9872 63.1307 89.9872 64.3182V65.2216H79.581V63.3125H87.4901C87.4901 62.642 87.3537 62.0483 87.081 61.5312C86.8082 61.0085 86.4247 60.5966 85.9304 60.2955C85.4418 59.9943 84.8679 59.8438 84.2088 59.8438C83.4929 59.8438 82.8679 60.0199 82.3338 60.3722C81.8054 60.7187 81.3963 61.1733 81.1065 61.7358C80.8224 62.2926 80.6804 62.8977 80.6804 63.5511V65.0426C80.6804 65.9176 80.8338 66.6619 81.1406 67.2756C81.4531 67.8892 81.8878 68.358 82.4446 68.6818C83.0014 69 83.652 69.1591 84.3963 69.1591C84.8793 69.1591 85.3196 69.0909 85.7173 68.9545C86.1151 68.8125 86.4588 68.6023 86.7486 68.3239C87.0384 68.0455 87.2599 67.7017 87.4134 67.2926L89.8253 67.7273C89.6321 68.4375 89.2855 69.0597 88.7855 69.5938C88.2912 70.1222 87.669 70.5341 86.919 70.8295C86.1747 71.1193 85.3253 71.2642 84.3707 71.2642ZM93.0192 71V53.5455H95.5675V60.0312H95.7209C95.8686 59.7585 96.0817 59.4432 96.3601 59.0852C96.6385 58.7273 97.0249 58.4148 97.5192 58.1477C98.0135 57.875 98.6669 57.7386 99.4794 57.7386C100.536 57.7386 101.479 58.0057 102.309 58.5398C103.138 59.0739 103.789 59.8437 104.261 60.8494C104.738 61.8551 104.977 63.0653 104.977 64.4801C104.977 65.8949 104.741 67.108 104.269 68.1193C103.798 69.125 103.15 69.9006 102.326 70.446C101.502 70.9858 100.562 71.2557 99.505 71.2557C98.7095 71.2557 98.0589 71.1222 97.5533 70.8551C97.0533 70.5881 96.6612 70.2756 96.3771 69.9176C96.093 69.5597 95.8743 69.2415 95.7209 68.9631H95.5078V71H93.0192ZM95.5163 64.4545C95.5163 65.375 95.6499 66.1818 95.9169 66.875C96.1839 67.5682 96.5703 68.1108 97.076 68.5028C97.5817 68.8892 98.201 69.0824 98.9339 69.0824C99.6953 69.0824 100.332 68.8807 100.843 68.4773C101.354 68.0682 101.741 67.5142 102.002 66.8153C102.269 66.1165 102.403 65.3295 102.403 64.4545C102.403 63.5909 102.272 62.8153 102.011 62.1278C101.755 61.4403 101.369 60.8977 100.852 60.5C100.34 60.1023 99.701 59.9034 98.9339 59.9034C98.1953 59.9034 97.5703 60.0937 97.0589 60.4744C96.5533 60.8551 96.1697 61.3864 95.9084 62.0682C95.647 62.75 95.5163 63.5455 95.5163 64.4545ZM113.48 71.2642C112.19 71.2642 111.08 70.9886 110.148 70.4375C109.222 69.8807 108.506 69.0994 108 68.0938C107.5 67.0824 107.25 65.8977 107.25 64.5398C107.25 63.1989 107.5 62.017 108 60.9943C108.506 59.9716 109.21 59.1733 110.114 58.5994C111.023 58.0256 112.085 57.7386 113.301 57.7386C114.04 57.7386 114.756 57.8608 115.449 58.1051C116.142 58.3494 116.764 58.733 117.315 59.2557C117.866 59.7784 118.301 60.4574 118.619 61.2926C118.938 62.1222 119.097 63.1307 119.097 64.3182V65.2216H108.69V63.3125H116.599C116.599 62.642 116.463 62.0483 116.19 61.5312C115.918 61.0085 115.534 60.5966 115.04 60.2955C114.551 59.9943 113.977 59.8438 113.318 59.8438C112.602 59.8438 111.977 60.0199 111.443 60.3722C110.915 60.7187 110.506 61.1733 110.216 61.7358C109.932 62.2926 109.79 62.8977 109.79 63.5511V65.0426C109.79 65.9176 109.943 66.6619 110.25 67.2756C110.562 67.8892 110.997 68.358 111.554 68.6818C112.111 69 112.761 69.1591 113.506 69.1591C113.989 69.1591 114.429 69.0909 114.827 68.9545C115.224 68.8125 115.568 68.6023 115.858 68.3239C116.148 68.0455 116.369 67.7017 116.523 67.2926L118.935 67.7273C118.741 68.4375 118.395 69.0597 117.895 69.5938C117.401 70.1222 116.778 70.5341 116.028 70.8295C115.284 71.1193 114.435 71.2642 113.48 71.2642ZM124.472 53.5455V71H121.924V53.5455H124.472ZM136.193 65.571V57.9091H138.75V71H136.244V68.733H136.108C135.807 69.4318 135.324 70.0142 134.659 70.4801C134 70.9403 133.179 71.1705 132.196 71.1705C131.355 71.1705 130.611 70.9858 129.963 70.6165C129.321 70.2415 128.815 69.6875 128.446 68.9545C128.082 68.2216 127.901 67.3153 127.901 66.2358V57.9091H130.449V65.929C130.449 66.821 130.696 67.5312 131.19 68.0597C131.685 68.5881 132.327 68.8523 133.116 68.8523C133.594 68.8523 134.068 68.733 134.54 68.4943C135.017 68.2557 135.412 67.8949 135.724 67.4119C136.043 66.929 136.199 66.3153 136.193 65.571ZM142.174 71V57.9091H144.62V60.0398H144.782C145.055 59.3182 145.501 58.7557 146.12 58.3523C146.739 57.9432 147.481 57.7386 148.344 57.7386C149.219 57.7386 149.952 57.9432 150.543 58.3523C151.14 58.7614 151.58 59.3239 151.864 60.0398H152.001C152.313 59.3409 152.81 58.7841 153.492 58.3693C154.174 57.9489 154.987 57.7386 155.93 57.7386C157.117 57.7386 158.086 58.1108 158.836 58.8551C159.592 59.5994 159.969 60.7216 159.969 62.2216V71H157.421V62.4602C157.421 61.5739 157.18 60.9318 156.697 60.5341C156.214 60.1364 155.637 59.9375 154.967 59.9375C154.137 59.9375 153.492 60.1932 153.032 60.7045C152.572 61.2102 152.342 61.8608 152.342 62.6562V71H149.802V62.2983C149.802 61.5881 149.58 61.017 149.137 60.5852C148.694 60.1534 148.117 59.9375 147.407 59.9375C146.924 59.9375 146.478 60.0653 146.069 60.321C145.665 60.571 145.339 60.9205 145.089 61.3693C144.844 61.8182 144.722 62.3381 144.722 62.929V71H142.174ZM165.933 63.2273V71H163.385V57.9091H165.831V60.0398H165.993C166.294 59.3466 166.766 58.7898 167.408 58.3693C168.055 57.9489 168.871 57.7386 169.854 57.7386C170.746 57.7386 171.527 57.9261 172.197 58.3011C172.868 58.6705 173.388 59.2216 173.757 59.9545C174.126 60.6875 174.311 61.5937 174.311 62.6733V71H171.763V62.9801C171.763 62.0312 171.516 61.2898 171.021 60.7557C170.527 60.2159 169.848 59.946 168.984 59.946C168.393 59.946 167.868 60.0739 167.408 60.3295C166.953 60.5852 166.592 60.9602 166.325 61.4545C166.064 61.9432 165.933 62.5341 165.933 63.2273ZM178.871 75.9091C178.49 75.9091 178.143 75.8778 177.831 75.8153C177.518 75.7585 177.286 75.696 177.132 75.6278L177.746 73.5398C178.212 73.6648 178.626 73.7188 178.99 73.7017C179.354 73.6847 179.675 73.5483 179.953 73.2926C180.237 73.0369 180.487 72.6193 180.703 72.0398L181.018 71.1705L176.229 57.9091H178.956L182.271 68.0682H182.408L185.723 57.9091H188.459L183.064 72.7472C182.814 73.429 182.496 74.0057 182.109 74.4773C181.723 74.9545 181.263 75.3125 180.729 75.5511C180.195 75.7898 179.575 75.9091 178.871 75.9091ZM194.288 71.2898C193.459 71.2898 192.709 71.1364 192.038 70.8295C191.368 70.517 190.837 70.0653 190.445 69.4744C190.058 68.8835 189.865 68.1591 189.865 67.3011C189.865 66.5625 190.007 65.9545 190.291 65.4773C190.575 65 190.959 64.6222 191.442 64.3438C191.925 64.0653 192.464 63.8551 193.061 63.7131C193.658 63.571 194.266 63.4631 194.885 63.3892C195.669 63.2983 196.305 63.2244 196.794 63.1676C197.283 63.1051 197.638 63.0057 197.859 62.8693C198.081 62.733 198.192 62.5114 198.192 62.2045V62.1449C198.192 61.4006 197.982 60.8239 197.561 60.4148C197.146 60.0057 196.527 59.8011 195.703 59.8011C194.845 59.8011 194.169 59.9915 193.675 60.3722C193.186 60.7472 192.848 61.1648 192.661 61.625L190.266 61.0795C190.55 60.2841 190.964 59.642 191.51 59.1534C192.061 58.6591 192.695 58.3011 193.411 58.0795C194.126 57.8523 194.879 57.7386 195.669 57.7386C196.192 57.7386 196.746 57.8011 197.331 57.9261C197.922 58.0455 198.473 58.267 198.984 58.5909C199.501 58.9148 199.925 59.3778 200.254 59.9801C200.584 60.5767 200.749 61.3523 200.749 62.3068V71H198.26V69.2102H198.158C197.993 69.5398 197.746 69.8636 197.416 70.1818C197.087 70.5 196.663 70.7642 196.146 70.9744C195.629 71.1847 195.01 71.2898 194.288 71.2898ZM194.842 69.2443C195.547 69.2443 196.149 69.1051 196.649 68.8267C197.155 68.5483 197.538 68.1847 197.8 67.7358C198.067 67.2812 198.2 66.7955 198.2 66.2784V64.5909C198.109 64.6818 197.933 64.767 197.672 64.8466C197.416 64.9205 197.124 64.9858 196.794 65.0426C196.464 65.0937 196.143 65.142 195.831 65.1875C195.518 65.2273 195.257 65.2614 195.047 65.2898C194.553 65.3523 194.101 65.4574 193.692 65.6051C193.288 65.7528 192.964 65.9659 192.72 66.2443C192.482 66.517 192.362 66.8807 192.362 67.3352C192.362 67.9659 192.595 68.4432 193.061 68.767C193.527 69.0852 194.121 69.2443 194.842 69.2443ZM34.7653 93.9091V95.9545H27.6147V93.9091H34.7653ZM29.5323 90.7727H32.0806V103.156C32.0806 103.651 32.1545 104.023 32.3022 104.273C32.4499 104.517 32.6403 104.685 32.8732 104.776C33.1119 104.861 33.3704 104.903 33.6488 104.903C33.8533 104.903 34.0323 104.889 34.1857 104.861C34.3391 104.832 34.4585 104.81 34.5437 104.793L35.0039 106.898C34.8562 106.955 34.646 107.011 34.3732 107.068C34.1005 107.131 33.7596 107.165 33.3505 107.17C32.68 107.182 32.055 107.062 31.4755 106.812C30.896 106.562 30.4272 106.176 30.0692 105.653C29.7113 105.131 29.5323 104.474 29.5323 103.685V90.7727ZM41.3938 107.29C40.5643 107.29 39.8143 107.136 39.1438 106.83C38.4734 106.517 37.9421 106.065 37.5501 105.474C37.1637 104.884 36.9705 104.159 36.9705 103.301C36.9705 102.562 37.1126 101.955 37.3967 101.477C37.6808 101 38.0643 100.622 38.5472 100.344C39.0302 100.065 39.57 99.8551 40.1665 99.7131C40.7631 99.571 41.3711 99.4631 41.9904 99.3892C42.7745 99.2983 43.4109 99.2244 43.8995 99.1676C44.3881 99.1051 44.7433 99.0057 44.9648 98.8693C45.1864 98.733 45.2972 98.5114 45.2972 98.2045V98.1449C45.2972 97.4006 45.087 96.8239 44.6665 96.4148C44.2518 96.0057 43.6325 95.8011 42.8086 95.8011C41.9506 95.8011 41.2745 95.9915 40.7802 96.3722C40.2915 96.7472 39.9535 97.1648 39.766 97.625L37.3711 97.0795C37.6552 96.2841 38.07 95.642 38.6154 95.1534C39.1665 94.6591 39.8001 94.3011 40.516 94.0795C41.2319 93.8523 41.9847 93.7386 42.7745 93.7386C43.2972 93.7386 43.8512 93.8011 44.4364 93.9261C45.0273 94.0455 45.5785 94.267 46.0898 94.5909C46.6069 94.9148 47.0302 95.3778 47.3597 95.9801C47.6893 96.5767 47.854 97.3523 47.854 98.3068V107H45.3654V105.21H45.2631C45.0984 105.54 44.8512 105.864 44.5217 106.182C44.1921 106.5 43.7688 106.764 43.2518 106.974C42.7347 107.185 42.1154 107.29 41.3938 107.29ZM41.9478 105.244C42.6523 105.244 43.2546 105.105 43.7546 104.827C44.2603 104.548 44.6438 104.185 44.9052 103.736C45.1722 103.281 45.3058 102.795 45.3058 102.278V100.591C45.2148 100.682 45.0387 100.767 44.7773 100.847C44.5217 100.92 44.229 100.986 43.8995 101.043C43.57 101.094 43.2489 101.142 42.9364 101.188C42.6239 101.227 42.3626 101.261 42.1523 101.29C41.658 101.352 41.2063 101.457 40.7972 101.605C40.3938 101.753 40.07 101.966 39.8256 102.244C39.587 102.517 39.4677 102.881 39.4677 103.335C39.4677 103.966 39.7006 104.443 40.1665 104.767C40.6325 105.085 41.2262 105.244 41.9478 105.244ZM53.7965 99.2273V107H51.2482V89.5455H53.7624V96.0398H53.9244C54.2312 95.3352 54.6999 94.7756 55.3306 94.3608C55.9613 93.946 56.7852 93.7386 57.8022 93.7386C58.6999 93.7386 59.484 93.9233 60.1545 94.2926C60.8306 94.6619 61.3533 95.2131 61.7227 95.946C62.0977 96.6733 62.2852 97.5824 62.2852 98.6733V107H59.7369V98.9801C59.7369 98.0199 59.4897 97.2756 58.9954 96.7472C58.5011 96.2131 57.8136 95.946 56.9329 95.946C56.3306 95.946 55.7908 96.0739 55.3136 96.3295C54.842 96.5852 54.4698 96.9602 54.1971 97.4545C53.93 97.9432 53.7965 98.5341 53.7965 99.2273ZM73.9783 101.571V93.9091H76.5352V107H74.0295V104.733H73.8931C73.592 105.432 73.109 106.014 72.4442 106.48C71.7852 106.94 70.9641 107.17 69.9812 107.17C69.1403 107.17 68.396 106.986 67.7482 106.616C67.1062 106.241 66.6005 105.688 66.2312 104.955C65.8675 104.222 65.6857 103.315 65.6857 102.236V93.9091H68.234V101.929C68.234 102.821 68.4812 103.531 68.9755 104.06C69.4698 104.588 70.1119 104.852 70.9016 104.852C71.3789 104.852 71.8533 104.733 72.3249 104.494C72.8022 104.256 73.1971 103.895 73.5096 103.412C73.8278 102.929 73.984 102.315 73.9783 101.571ZM82.3029 102.56L82.2859 99.4489H82.729L87.945 93.9091H90.9961L85.0472 100.216H84.6467L82.3029 102.56ZM79.9592 107V89.5455H82.5075V107H79.9592ZM88.2262 107L83.5387 100.778L85.2944 98.9972L91.354 107H88.2262ZM97.1282 107.29C96.2987 107.29 95.5487 107.136 94.8782 106.83C94.2077 106.517 93.6765 106.065 93.2844 105.474C92.8981 104.884 92.7049 104.159 92.7049 103.301C92.7049 102.562 92.8469 101.955 93.131 101.477C93.4151 101 93.7987 100.622 94.2816 100.344C94.7646 100.065 95.3043 99.8551 95.9009 99.7131C96.4975 99.571 97.1055 99.4631 97.7248 99.3892C98.5089 99.2983 99.1452 99.2244 99.6339 99.1676C100.123 99.1051 100.478 99.0057 100.699 98.8693C100.921 98.733 101.032 98.5114 101.032 98.2045V98.1449C101.032 97.4006 100.821 96.8239 100.401 96.4148C99.9862 96.0057 99.3668 95.8011 98.543 95.8011C97.685 95.8011 97.0089 95.9915 96.5146 96.3722C96.0259 96.7472 95.6879 97.1648 95.5004 97.625L93.1055 97.0795C93.3896 96.2841 93.8043 95.642 94.3498 95.1534C94.9009 94.6591 95.5344 94.3011 96.2504 94.0795C96.9663 93.8523 97.7191 93.7386 98.5089 93.7386C99.0316 93.7386 99.5856 93.8011 100.171 93.9261C100.762 94.0455 101.313 94.267 101.824 94.5909C102.341 94.9148 102.765 95.3778 103.094 95.9801C103.424 96.5767 103.588 97.3523 103.588 98.3068V107H101.1V105.21H100.998C100.833 105.54 100.586 105.864 100.256 106.182C99.9265 106.5 99.5032 106.764 98.9862 106.974C98.4691 107.185 97.8498 107.29 97.1282 107.29ZM97.6822 105.244C98.3867 105.244 98.989 105.105 99.489 104.827C99.9947 104.548 100.378 104.185 100.64 103.736C100.907 103.281 101.04 102.795 101.04 102.278V100.591C100.949 100.682 100.773 100.767 100.512 100.847C100.256 100.92 99.9634 100.986 99.6339 101.043C99.3043 101.094 98.9833 101.142 98.6708 101.188C98.3583 101.227 98.0969 101.261 97.8867 101.29C97.3924 101.352 96.9407 101.457 96.5316 101.605C96.1282 101.753 95.8043 101.966 95.56 102.244C95.3214 102.517 95.2021 102.881 95.2021 103.335C95.2021 103.966 95.435 104.443 95.9009 104.767C96.3668 105.085 96.9606 105.244 97.6822 105.244ZM109.531 99.2273V107H106.983V89.5455H109.497V96.0398H109.659C109.966 95.3352 110.434 94.7756 111.065 94.3608C111.696 93.946 112.52 93.7386 113.537 93.7386C114.434 93.7386 115.218 93.9233 115.889 94.2926C116.565 94.6619 117.088 95.2131 117.457 95.946C117.832 96.6733 118.02 97.5824 118.02 98.6733V107H115.471V98.9801C115.471 98.0199 115.224 97.2756 114.73 96.7472C114.235 96.2131 113.548 95.946 112.667 95.946C112.065 95.946 111.525 96.0739 111.048 96.3295C110.576 96.5852 110.204 96.9602 109.931 97.4545C109.664 97.9432 109.531 98.5341 109.531 99.2273ZM130.115 102.56L130.098 99.4489H130.542L135.757 93.9091H138.809L132.86 100.216H132.459L130.115 102.56ZM127.772 107V89.5455H130.32V107H127.772ZM136.039 107L131.351 100.778L133.107 98.9972L139.167 107H136.039ZM144.941 107.29C144.111 107.29 143.361 107.136 142.691 106.83C142.02 106.517 141.489 106.065 141.097 105.474C140.711 104.884 140.517 104.159 140.517 103.301C140.517 102.562 140.659 101.955 140.944 101.477C141.228 101 141.611 100.622 142.094 100.344C142.577 100.065 143.117 99.8551 143.713 99.7131C144.31 99.571 144.918 99.4631 145.537 99.3892C146.321 99.2983 146.958 99.2244 147.446 99.1676C147.935 99.1051 148.29 99.0057 148.512 98.8693C148.733 98.733 148.844 98.5114 148.844 98.2045V98.1449C148.844 97.4006 148.634 96.8239 148.213 96.4148C147.799 96.0057 147.179 95.8011 146.355 95.8011C145.498 95.8011 144.821 95.9915 144.327 96.3722C143.838 96.7472 143.5 97.1648 143.313 97.625L140.918 97.0795C141.202 96.2841 141.617 95.642 142.162 95.1534C142.713 94.6591 143.347 94.3011 144.063 94.0795C144.779 93.8523 145.532 93.7386 146.321 93.7386C146.844 93.7386 147.398 93.8011 147.983 93.9261C148.574 94.0455 149.125 94.267 149.637 94.5909C150.154 94.9148 150.577 95.3778 150.907 95.9801C151.236 96.5767 151.401 97.3523 151.401 98.3068V107H148.912V105.21H148.81C148.645 105.54 148.398 105.864 148.069 106.182C147.739 106.5 147.316 106.764 146.799 106.974C146.282 107.185 145.662 107.29 144.941 107.29ZM145.495 105.244C146.199 105.244 146.801 105.105 147.301 104.827C147.807 104.548 148.191 104.185 148.452 103.736C148.719 103.281 148.853 102.795 148.853 102.278V100.591C148.762 100.682 148.586 100.767 148.324 100.847C148.069 100.92 147.776 100.986 147.446 101.043C147.117 101.094 146.796 101.142 146.483 101.188C146.171 101.227 145.909 101.261 145.699 101.29C145.205 101.352 144.753 101.457 144.344 101.605C143.941 101.753 143.617 101.966 143.373 102.244C143.134 102.517 143.015 102.881 143.015 103.335C143.015 103.966 143.248 104.443 143.713 104.767C144.179 105.085 144.773 105.244 145.495 105.244ZM154.795 107V93.9091H157.241V96.0398H157.403C157.676 95.3182 158.122 94.7557 158.741 94.3523C159.36 93.9432 160.102 93.7386 160.966 93.7386C161.841 93.7386 162.574 93.9432 163.164 94.3523C163.761 94.7614 164.201 95.3239 164.485 96.0398H164.622C164.934 95.3409 165.431 94.7841 166.113 94.3693C166.795 93.9489 167.608 93.7386 168.551 93.7386C169.738 93.7386 170.707 94.1108 171.457 94.8551C172.213 95.5994 172.591 96.7216 172.591 98.2216V107H170.042V98.4602C170.042 97.5739 169.801 96.9318 169.318 96.5341C168.835 96.1364 168.258 95.9375 167.588 95.9375C166.758 95.9375 166.113 96.1932 165.653 96.7045C165.193 97.2102 164.963 97.8608 164.963 98.6562V107H162.423V98.2983C162.423 97.5881 162.201 97.017 161.758 96.5852C161.315 96.1534 160.738 95.9375 160.028 95.9375C159.545 95.9375 159.099 96.0653 158.69 96.321C158.287 96.571 157.96 96.9205 157.71 97.3693C157.466 97.8182 157.343 98.3381 157.343 98.929V107H154.795ZM184.299 101.571V93.9091H186.855V107H184.35V104.733H184.213C183.912 105.432 183.429 106.014 182.765 106.48C182.105 106.94 181.284 107.17 180.301 107.17C179.461 107.17 178.716 106.986 178.069 106.616C177.426 106.241 176.921 105.688 176.551 104.955C176.188 104.222 176.006 103.315 176.006 102.236V93.9091H178.554V101.929C178.554 102.821 178.801 103.531 179.296 104.06C179.79 104.588 180.432 104.852 181.222 104.852C181.699 104.852 182.174 104.733 182.645 104.494C183.123 104.256 183.517 103.895 183.83 103.412C184.148 102.929 184.304 102.315 184.299 101.571ZM200.441 107.29C199.611 107.29 198.861 107.136 198.191 106.83C197.52 106.517 196.989 106.065 196.597 105.474C196.211 104.884 196.017 104.159 196.017 103.301C196.017 102.562 196.159 101.955 196.444 101.477C196.728 101 197.111 100.622 197.594 100.344C198.077 100.065 198.617 99.8551 199.213 99.7131C199.81 99.571 200.418 99.4631 201.037 99.3892C201.821 99.2983 202.458 99.2244 202.946 99.1676C203.435 99.1051 203.79 99.0057 204.012 98.8693C204.233 98.733 204.344 98.5114 204.344 98.2045V98.1449C204.344 97.4006 204.134 96.8239 203.713 96.4148C203.299 96.0057 202.679 95.8011 201.855 95.8011C200.998 95.8011 200.321 95.9915 199.827 96.3722C199.338 96.7472 199 97.1648 198.813 97.625L196.418 97.0795C196.702 96.2841 197.117 95.642 197.662 95.1534C198.213 94.6591 198.847 94.3011 199.563 94.0795C200.279 93.8523 201.032 93.7386 201.821 93.7386C202.344 93.7386 202.898 93.8011 203.483 93.9261C204.074 94.0455 204.625 94.267 205.137 94.5909C205.654 94.9148 206.077 95.3778 206.407 95.9801C206.736 96.5767 206.901 97.3523 206.901 98.3068V107H204.412V105.21H204.31C204.145 105.54 203.898 105.864 203.569 106.182C203.239 106.5 202.816 106.764 202.299 106.974C201.782 107.185 201.162 107.29 200.441 107.29ZM200.995 105.244C201.699 105.244 202.301 105.105 202.801 104.827C203.307 104.548 203.691 104.185 203.952 103.736C204.219 103.281 204.353 102.795 204.353 102.278V100.591C204.262 100.682 204.086 100.767 203.824 100.847C203.569 100.92 203.276 100.986 202.946 101.043C202.617 101.094 202.296 101.142 201.983 101.188C201.671 101.227 201.409 101.261 201.199 101.29C200.705 101.352 200.253 101.457 199.844 101.605C199.441 101.753 199.117 101.966 198.873 102.244C198.634 102.517 198.515 102.881 198.515 103.335C198.515 103.966 198.748 104.443 199.213 104.767C199.679 105.085 200.273 105.244 200.995 105.244ZM210.295 111.909V93.9091H212.784V96.0312H212.997C213.145 95.7585 213.358 95.4432 213.636 95.0852C213.914 94.7273 214.301 94.4148 214.795 94.1477C215.289 93.875 215.943 93.7386 216.755 93.7386C217.812 93.7386 218.755 94.0057 219.585 94.5398C220.414 95.0739 221.065 95.8437 221.537 96.8494C222.014 97.8551 222.252 99.0653 222.252 100.48C222.252 101.895 222.017 103.108 221.545 104.119C221.074 105.125 220.426 105.901 219.602 106.446C218.778 106.986 217.838 107.256 216.781 107.256C215.985 107.256 215.335 107.122 214.829 106.855C214.329 106.588 213.937 106.276 213.653 105.918C213.369 105.56 213.15 105.241 212.997 104.963H212.843V111.909H210.295ZM212.792 100.455C212.792 101.375 212.926 102.182 213.193 102.875C213.46 103.568 213.846 104.111 214.352 104.503C214.858 104.889 215.477 105.082 216.21 105.082C216.971 105.082 217.608 104.881 218.119 104.477C218.63 104.068 219.017 103.514 219.278 102.815C219.545 102.116 219.679 101.33 219.679 100.455C219.679 99.5909 219.548 98.8153 219.287 98.1278C219.031 97.4403 218.645 96.8977 218.127 96.5C217.616 96.1023 216.977 95.9034 216.21 95.9034C215.471 95.9034 214.846 96.0937 214.335 96.4744C213.829 96.8551 213.446 97.3864 213.184 98.0682C212.923 98.75 212.792 99.5455 212.792 100.455ZM228.917 107.29C228.088 107.29 227.338 107.136 226.667 106.83C225.997 106.517 225.466 106.065 225.074 105.474C224.687 104.884 224.494 104.159 224.494 103.301C224.494 102.562 224.636 101.955 224.92 101.477C225.204 101 225.588 100.622 226.071 100.344C226.554 100.065 227.093 99.8551 227.69 99.7131C228.287 99.571 228.895 99.4631 229.514 99.3892C230.298 99.2983 230.934 99.2244 231.423 99.1676C231.912 99.1051 232.267 99.0057 232.488 98.8693C232.71 98.733 232.821 98.5114 232.821 98.2045V98.1449C232.821 97.4006 232.61 96.8239 232.19 96.4148C231.775 96.0057 231.156 95.8011 230.332 95.8011C229.474 95.8011 228.798 95.9915 228.304 96.3722C227.815 96.7472 227.477 97.1648 227.289 97.625L224.895 97.0795C225.179 96.2841 225.593 95.642 226.139 95.1534C226.69 94.6591 227.324 94.3011 228.039 94.0795C228.755 93.8523 229.508 93.7386 230.298 93.7386C230.821 93.7386 231.375 93.8011 231.96 93.9261C232.551 94.0455 233.102 94.267 233.613 94.5909C234.13 94.9148 234.554 95.3778 234.883 95.9801C235.213 96.5767 235.377 97.3523 235.377 98.3068V107H232.889V105.21H232.787C232.622 105.54 232.375 105.864 232.045 106.182C231.716 106.5 231.292 106.764 230.775 106.974C230.258 107.185 229.639 107.29 228.917 107.29ZM229.471 105.244C230.176 105.244 230.778 105.105 231.278 104.827C231.784 104.548 232.167 104.185 232.429 103.736C232.696 103.281 232.829 102.795 232.829 102.278V100.591C232.738 100.682 232.562 100.767 232.301 100.847C232.045 100.92 231.752 100.986 231.423 101.043C231.093 101.094 230.772 101.142 230.46 101.188C230.147 101.227 229.886 101.261 229.676 101.29C229.181 101.352 228.73 101.457 228.321 101.605C227.917 101.753 227.593 101.966 227.349 102.244C227.11 102.517 226.991 102.881 226.991 103.335C226.991 103.966 227.224 104.443 227.69 104.767C228.156 105.085 228.75 105.244 229.471 105.244ZM73.6193 143V129.909H76.1676V143H73.6193ZM74.9062 127.889C74.4631 127.889 74.0824 127.741 73.7642 127.446C73.4517 127.145 73.2955 126.787 73.2955 126.372C73.2955 125.952 73.4517 125.594 73.7642 125.298C74.0824 124.997 74.4631 124.847 74.9062 124.847C75.3494 124.847 75.7273 124.997 76.0398 125.298C76.358 125.594 76.517 125.952 76.517 126.372C76.517 126.787 76.358 127.145 76.0398 127.446C75.7273 127.741 75.3494 127.889 74.9062 127.889ZM85.7067 129.909V131.955H78.5561V129.909H85.7067ZM80.4737 126.773H83.022V139.156C83.022 139.651 83.0959 140.023 83.2436 140.273C83.3913 140.517 83.5817 140.685 83.8146 140.776C84.0533 140.861 84.3118 140.903 84.5902 140.903C84.7947 140.903 84.9737 140.889 85.1271 140.861C85.2805 140.832 85.3999 140.81 85.4851 140.793L85.9453 142.898C85.7976 142.955 85.5874 143.011 85.3146 143.068C85.0419 143.131 84.701 143.165 84.2919 143.17C83.6214 143.182 82.9964 143.062 82.4169 142.812C81.8374 142.562 81.3686 142.176 81.0107 141.653C80.6527 141.131 80.4737 140.474 80.4737 139.685V126.773ZM96.8182 137.571V129.909H99.375V143H96.8693V140.733H96.733C96.4318 141.432 95.9489 142.014 95.2841 142.48C94.625 142.94 93.804 143.17 92.821 143.17C91.9801 143.17 91.2358 142.986 90.5881 142.616C89.946 142.241 89.4403 141.688 89.071 140.955C88.7074 140.222 88.5256 139.315 88.5256 138.236V129.909H91.0739V137.929C91.0739 138.821 91.321 139.531 91.8153 140.06C92.3097 140.588 92.9517 140.852 93.7415 140.852C94.2188 140.852 94.6932 140.733 95.1648 140.494C95.642 140.256 96.0369 139.895 96.3494 139.412C96.6676 138.929 96.8239 138.315 96.8182 137.571ZM114.793 143.264C113.503 143.264 112.392 142.989 111.46 142.438C110.534 141.881 109.818 141.099 109.312 140.094C108.812 139.082 108.562 137.898 108.562 136.54C108.562 135.199 108.812 134.017 109.312 132.994C109.818 131.972 110.523 131.173 111.426 130.599C112.335 130.026 113.398 129.739 114.614 129.739C115.352 129.739 116.068 129.861 116.761 130.105C117.455 130.349 118.077 130.733 118.628 131.256C119.179 131.778 119.614 132.457 119.932 133.293C120.25 134.122 120.409 135.131 120.409 136.318V137.222H110.003V135.312H117.912C117.912 134.642 117.776 134.048 117.503 133.531C117.23 133.009 116.847 132.597 116.352 132.295C115.864 131.994 115.29 131.844 114.631 131.844C113.915 131.844 113.29 132.02 112.756 132.372C112.227 132.719 111.818 133.173 111.528 133.736C111.244 134.293 111.102 134.898 111.102 135.551V137.043C111.102 137.918 111.256 138.662 111.562 139.276C111.875 139.889 112.31 140.358 112.866 140.682C113.423 141 114.074 141.159 114.818 141.159C115.301 141.159 115.741 141.091 116.139 140.955C116.537 140.812 116.881 140.602 117.17 140.324C117.46 140.045 117.682 139.702 117.835 139.293L120.247 139.727C120.054 140.437 119.707 141.06 119.207 141.594C118.713 142.122 118.091 142.534 117.341 142.83C116.597 143.119 115.747 143.264 114.793 143.264ZM125.785 135.227V143H123.237V129.909H125.683V132.04H125.844C126.146 131.347 126.617 130.79 127.259 130.369C127.907 129.949 128.722 129.739 129.705 129.739C130.597 129.739 131.379 129.926 132.049 130.301C132.719 130.67 133.239 131.222 133.609 131.955C133.978 132.687 134.163 133.594 134.163 134.673V143H131.614V134.98C131.614 134.031 131.367 133.29 130.873 132.756C130.379 132.216 129.7 131.946 128.836 131.946C128.245 131.946 127.719 132.074 127.259 132.33C126.805 132.585 126.444 132.96 126.177 133.455C125.915 133.943 125.785 134.534 125.785 135.227ZM143.222 143.264C141.933 143.264 140.822 142.989 139.89 142.438C138.964 141.881 138.248 141.099 137.742 140.094C137.242 139.082 136.992 137.898 136.992 136.54C136.992 135.199 137.242 134.017 137.742 132.994C138.248 131.972 138.952 131.173 139.856 130.599C140.765 130.026 141.827 129.739 143.043 129.739C143.782 129.739 144.498 129.861 145.191 130.105C145.884 130.349 146.506 130.733 147.058 131.256C147.609 131.778 148.043 132.457 148.362 133.293C148.68 134.122 148.839 135.131 148.839 136.318V137.222H138.433V135.312H146.342C146.342 134.642 146.205 134.048 145.933 133.531C145.66 133.009 145.276 132.597 144.782 132.295C144.293 131.994 143.719 131.844 143.06 131.844C142.344 131.844 141.719 132.02 141.185 132.372C140.657 132.719 140.248 133.173 139.958 133.736C139.674 134.293 139.532 134.898 139.532 135.551V137.043C139.532 137.918 139.685 138.662 139.992 139.276C140.305 139.889 140.739 140.358 141.296 140.682C141.853 141 142.504 141.159 143.248 141.159C143.731 141.159 144.171 141.091 144.569 140.955C144.967 140.812 145.31 140.602 145.6 140.324C145.89 140.045 146.112 139.702 146.265 139.293L148.677 139.727C148.484 140.437 148.137 141.06 147.637 141.594C147.143 142.122 146.521 142.534 145.771 142.83C145.026 143.119 144.177 143.264 143.222 143.264ZM151.666 143V129.909H154.129V131.989H154.266C154.504 131.284 154.925 130.73 155.527 130.327C156.135 129.918 156.822 129.713 157.589 129.713C157.749 129.713 157.936 129.719 158.152 129.73C158.374 129.741 158.547 129.756 158.672 129.773V132.21C158.57 132.182 158.388 132.151 158.126 132.116C157.865 132.077 157.604 132.057 157.342 132.057C156.74 132.057 156.203 132.185 155.732 132.44C155.266 132.69 154.896 133.04 154.624 133.489C154.351 133.932 154.214 134.437 154.214 135.006V143H151.666ZM165.897 148.182C164.857 148.182 163.962 148.045 163.212 147.773C162.468 147.5 161.86 147.139 161.388 146.69C160.917 146.241 160.565 145.75 160.332 145.216L162.522 144.312C162.675 144.562 162.88 144.827 163.136 145.105C163.397 145.389 163.749 145.631 164.192 145.83C164.641 146.028 165.218 146.128 165.923 146.128C166.888 146.128 167.687 145.892 168.317 145.42C168.948 144.955 169.263 144.21 169.263 143.188V140.614H169.102C168.948 140.892 168.727 141.202 168.437 141.543C168.153 141.884 167.761 142.179 167.261 142.429C166.761 142.679 166.11 142.804 165.309 142.804C164.275 142.804 163.343 142.562 162.513 142.08C161.69 141.591 161.036 140.872 160.553 139.923C160.076 138.969 159.837 137.795 159.837 136.403C159.837 135.011 160.073 133.818 160.545 132.824C161.022 131.83 161.675 131.068 162.505 130.54C163.335 130.006 164.275 129.739 165.326 129.739C166.138 129.739 166.795 129.875 167.295 130.148C167.795 130.415 168.184 130.727 168.462 131.085C168.746 131.443 168.965 131.759 169.119 132.031H169.306V129.909H171.803V143.29C171.803 144.415 171.542 145.338 171.019 146.06C170.496 146.781 169.789 147.315 168.897 147.662C168.011 148.009 167.011 148.182 165.897 148.182ZM165.871 140.69C166.604 140.69 167.224 140.52 167.729 140.179C168.241 139.832 168.627 139.338 168.888 138.696C169.156 138.048 169.289 137.273 169.289 136.369C169.289 135.489 169.158 134.713 168.897 134.043C168.636 133.372 168.252 132.849 167.746 132.474C167.241 132.094 166.616 131.903 165.871 131.903C165.104 131.903 164.465 132.102 163.954 132.5C163.442 132.892 163.056 133.426 162.795 134.102C162.539 134.778 162.411 135.534 162.411 136.369C162.411 137.227 162.542 137.98 162.803 138.628C163.065 139.276 163.451 139.781 163.962 140.145C164.479 140.509 165.116 140.69 165.871 140.69ZM175.221 143V129.909H177.769V143H175.221ZM176.508 127.889C176.065 127.889 175.684 127.741 175.366 127.446C175.053 127.145 174.897 126.787 174.897 126.372C174.897 125.952 175.053 125.594 175.366 125.298C175.684 124.997 176.065 124.847 176.508 124.847C176.951 124.847 177.329 124.997 177.641 125.298C177.96 125.594 178.119 125.952 178.119 126.372C178.119 126.787 177.96 127.145 177.641 127.446C177.329 127.741 176.951 127.889 176.508 127.889ZM183.984 137.98V137.818C183.996 136.761 184.101 135.92 184.3 135.295C184.504 134.67 184.794 134.165 185.169 133.778C185.544 133.392 185.996 133.04 186.524 132.722C186.865 132.506 187.172 132.264 187.445 131.997C187.717 131.73 187.933 131.423 188.092 131.077C188.251 130.73 188.331 130.347 188.331 129.926C188.331 129.42 188.212 128.983 187.973 128.614C187.734 128.244 187.416 127.96 187.018 127.761C186.626 127.557 186.189 127.455 185.706 127.455C185.268 127.455 184.851 127.545 184.453 127.727C184.055 127.909 183.726 128.193 183.464 128.58C183.203 128.96 183.053 129.452 183.013 130.054H180.422C180.462 129.031 180.72 128.168 181.197 127.463C181.675 126.753 182.305 126.216 183.089 125.852C183.879 125.489 184.751 125.307 185.706 125.307C186.751 125.307 187.666 125.503 188.45 125.895C189.234 126.281 189.842 126.824 190.274 127.523C190.712 128.216 190.93 129.026 190.93 129.952C190.93 130.588 190.831 131.162 190.632 131.673C190.433 132.179 190.149 132.631 189.78 133.028C189.416 133.426 188.979 133.778 188.467 134.085C187.984 134.386 187.592 134.699 187.291 135.023C186.996 135.347 186.78 135.73 186.643 136.173C186.507 136.616 186.433 137.165 186.422 137.818V137.98H183.984ZM185.271 143.162C184.805 143.162 184.405 142.997 184.07 142.668C183.734 142.332 183.567 141.929 183.567 141.457C183.567 140.991 183.734 140.594 184.07 140.264C184.405 139.929 184.805 139.761 185.271 139.761C185.732 139.761 186.129 139.929 186.464 140.264C186.805 140.594 186.976 140.991 186.976 141.457C186.976 141.77 186.896 142.057 186.737 142.318C186.584 142.574 186.379 142.778 186.124 142.932C185.868 143.085 185.584 143.162 185.271 143.162Z" fill="black"/>
</svg>
