<svg width="264" height="246" viewBox="0 0 264 246" fill="none" xmlns="http://www.w3.org/2000/svg">
<path d="M264 111.696C264 173.383 193.56 223.029 120.659 223.029C109.801 223.029 102.086 247.967 91.9905 245.875C80.5116 243.497 89.4693 218.695 79.389 213.962C38.8076 194.908 0 153.75 0 111.696C0 50.0078 59.0984 0 132 0C204.902 0 264 50.0078 264 111.696Z" fill="white"/>
<path d="M42.3707 105V87.5455H48.7628C50.0014 87.5455 51.027 87.75 51.8395 88.1591C52.652 88.5625 53.2599 89.1108 53.6634 89.804C54.0668 90.4915 54.2685 91.267 54.2685 92.1307C54.2685 92.858 54.1349 93.4716 53.8679 93.9716C53.6009 94.4659 53.2429 94.8636 52.794 95.1648C52.3509 95.4602 51.8622 95.6761 51.3281 95.8125V95.983C51.9077 96.0114 52.473 96.1989 53.0241 96.5455C53.581 96.8864 54.0412 97.3722 54.4048 98.0028C54.7685 98.6335 54.9503 99.4006 54.9503 100.304C54.9503 101.196 54.7401 101.997 54.3196 102.707C53.9048 103.412 53.2628 103.972 52.3935 104.386C51.5241 104.795 50.4134 105 49.0611 105H42.3707ZM45.0043 102.741H48.8054C50.0668 102.741 50.9702 102.497 51.5156 102.009C52.0611 101.52 52.3338 100.909 52.3338 100.176C52.3338 99.625 52.1946 99.1193 51.9162 98.6591C51.6378 98.1989 51.2401 97.8324 50.723 97.5597C50.2116 97.2869 49.6037 97.1506 48.8991 97.1506H45.0043V102.741ZM45.0043 95.0966H48.5327C49.1236 95.0966 49.6548 94.983 50.1264 94.7557C50.6037 94.5284 50.9815 94.2102 51.2599 93.8011C51.544 93.3864 51.6861 92.8977 51.6861 92.3352C51.6861 91.6136 51.4332 91.0085 50.9276 90.5199C50.4219 90.0312 49.6463 89.7869 48.6009 89.7869H45.0043V95.0966ZM61.679 105.29C60.8494 105.29 60.0994 105.136 59.429 104.83C58.7585 104.517 58.2273 104.065 57.8352 103.474C57.4489 102.884 57.2557 102.159 57.2557 101.301C57.2557 100.562 57.3977 99.9545 57.6818 99.4773C57.9659 99 58.3494 98.6222 58.8324 98.3438C59.3153 98.0653 59.8551 97.8551 60.4517 97.7131C61.0483 97.571 61.6563 97.4631 62.2756 97.3892C63.0597 97.2983 63.696 97.2244 64.1847 97.1676C64.6733 97.1051 65.0284 97.0057 65.25 96.8693C65.4716 96.733 65.5824 96.5114 65.5824 96.2045V96.1449C65.5824 95.4006 65.3722 94.8239 64.9517 94.4148C64.5369 94.0057 63.9176 93.8011 63.0938 93.8011C62.2358 93.8011 61.5597 93.9915 61.0653 94.3722C60.5767 94.7472 60.2386 95.1648 60.0511 95.625L57.6562 95.0795C57.9403 94.2841 58.3551 93.642 58.9006 93.1534C59.4517 92.6591 60.0852 92.3011 60.8011 92.0795C61.517 91.8523 62.2699 91.7386 63.0597 91.7386C63.5824 91.7386 64.1364 91.8011 64.7216 91.9261C65.3125 92.0455 65.8636 92.267 66.375 92.5909C66.892 92.9148 67.3153 93.3778 67.6449 93.9801C67.9744 94.5767 68.1392 95.3523 68.1392 96.3068V105H65.6506V103.21H65.5483C65.3835 103.54 65.1364 103.864 64.8068 104.182C64.4773 104.5 64.054 104.764 63.5369 104.974C63.0199 105.185 62.4006 105.29 61.679 105.29ZM62.233 103.244C62.9375 103.244 63.5398 103.105 64.0398 102.827C64.5455 102.548 64.929 102.185 65.1903 101.736C65.4574 101.281 65.5909 100.795 65.5909 100.278V98.5909C65.5 98.6818 65.3239 98.767 65.0625 98.8466C64.8068 98.9205 64.5142 98.9858 64.1847 99.0426C63.8551 99.0937 63.5341 99.142 63.2216 99.1875C62.9091 99.2273 62.6477 99.2614 62.4375 99.2898C61.9432 99.3523 61.4915 99.4574 61.0824 99.6051C60.679 99.7528 60.3551 99.9659 60.1108 100.244C59.8722 100.517 59.7528 100.881 59.7528 101.335C59.7528 101.966 59.9858 102.443 60.4517 102.767C60.9176 103.085 61.5114 103.244 62.233 103.244ZM77.022 110.182C75.9822 110.182 75.0874 110.045 74.3374 109.773C73.593 109.5 72.9851 109.139 72.5135 108.69C72.0419 108.241 71.6896 107.75 71.4567 107.216L73.647 106.312C73.8004 106.562 74.005 106.827 74.2607 107.105C74.522 107.389 74.8743 107.631 75.3175 107.83C75.7663 108.028 76.343 108.128 77.0476 108.128C78.0135 108.128 78.8118 107.892 79.4425 107.42C80.0732 106.955 80.3885 106.21 80.3885 105.188V102.614H80.2266C80.0732 102.892 79.8516 103.202 79.5618 103.543C79.2777 103.884 78.8857 104.179 78.3857 104.429C77.8857 104.679 77.2351 104.804 76.4339 104.804C75.3999 104.804 74.468 104.562 73.6385 104.08C72.8146 103.591 72.1612 102.872 71.6783 101.923C71.201 100.969 70.9624 99.7955 70.9624 98.4034C70.9624 97.0114 71.1982 95.8182 71.6697 94.8239C72.147 93.8295 72.8004 93.0682 73.63 92.5398C74.4595 92.0057 75.3999 91.7386 76.451 91.7386C77.2635 91.7386 77.9197 91.875 78.4197 92.1477C78.9197 92.4148 79.3089 92.7273 79.5874 93.0852C79.8714 93.4432 80.0902 93.7585 80.2436 94.0312H80.4311V91.9091H82.9283V105.29C82.9283 106.415 82.6669 107.338 82.1442 108.06C81.6214 108.781 80.9141 109.315 80.022 109.662C79.1357 110.009 78.1357 110.182 77.022 110.182ZM76.9964 102.69C77.7294 102.69 78.3487 102.52 78.8544 102.179C79.3658 101.832 79.7521 101.338 80.0135 100.696C80.2805 100.048 80.4141 99.2727 80.4141 98.3693C80.4141 97.4886 80.2834 96.7131 80.022 96.0426C79.7607 95.3722 79.3771 94.8494 78.8714 94.4744C78.3658 94.0937 77.7408 93.9034 76.9964 93.9034C76.2294 93.9034 75.5902 94.1023 75.0788 94.5C74.5675 94.892 74.1811 95.4261 73.9197 96.1023C73.6641 96.7784 73.5362 97.5341 73.5362 98.3693C73.5362 99.2273 73.6669 99.9801 73.9283 100.628C74.1896 101.276 74.576 101.781 75.0874 102.145C75.6044 102.509 76.2408 102.69 76.9964 102.69ZM90.1555 105.29C89.326 105.29 88.576 105.136 87.9055 104.83C87.2351 104.517 86.7038 104.065 86.3118 103.474C85.9254 102.884 85.7322 102.159 85.7322 101.301C85.7322 100.562 85.8743 99.9545 86.1584 99.4773C86.4425 99 86.826 98.6222 87.3089 98.3438C87.7919 98.0653 88.3317 97.8551 88.9283 97.7131C89.5249 97.571 90.1328 97.4631 90.7521 97.3892C91.5362 97.2983 92.1726 97.2244 92.6612 97.1676C93.1499 97.1051 93.505 97.0057 93.7266 96.8693C93.9482 96.733 94.0589 96.5114 94.0589 96.2045V96.1449C94.0589 95.4006 93.8487 94.8239 93.4283 94.4148C93.0135 94.0057 92.3942 93.8011 91.5703 93.8011C90.7124 93.8011 90.0362 93.9915 89.5419 94.3722C89.0533 94.7472 88.7152 95.1648 88.5277 95.625L86.1328 95.0795C86.4169 94.2841 86.8317 93.642 87.3771 93.1534C87.9283 92.6591 88.5618 92.3011 89.2777 92.0795C89.9936 91.8523 90.7464 91.7386 91.5362 91.7386C92.0589 91.7386 92.6129 91.8011 93.1982 91.9261C93.7891 92.0455 94.3402 92.267 94.8516 92.5909C95.3686 92.9148 95.7919 93.3778 96.1214 93.9801C96.451 94.5767 96.6158 95.3523 96.6158 96.3068V105H94.1271V103.21H94.0249C93.8601 103.54 93.6129 103.864 93.2834 104.182C92.9538 104.5 92.5305 104.764 92.0135 104.974C91.4964 105.185 90.8771 105.29 90.1555 105.29ZM90.7095 103.244C91.4141 103.244 92.0163 103.105 92.5163 102.827C93.022 102.548 93.4055 102.185 93.6669 101.736C93.9339 101.281 94.0675 100.795 94.0675 100.278V98.5909C93.9766 98.6818 93.8004 98.767 93.5391 98.8466C93.2834 98.9205 92.9908 98.9858 92.6612 99.0426C92.3317 99.0937 92.0107 99.142 91.6982 99.1875C91.3857 99.2273 91.1243 99.2614 90.9141 99.2898C90.4197 99.3523 89.968 99.4574 89.5589 99.6051C89.1555 99.7528 88.8317 99.9659 88.5874 100.244C88.3487 100.517 88.2294 100.881 88.2294 101.335C88.2294 101.966 88.4624 102.443 88.9283 102.767C89.3942 103.085 89.9879 103.244 90.7095 103.244ZM100.01 105V91.9091H102.558V105H100.01ZM101.297 89.8892C100.854 89.8892 100.473 89.7415 100.155 89.446C99.8423 89.1449 99.6861 88.7869 99.6861 88.3722C99.6861 87.9517 99.8423 87.5937 100.155 87.2983C100.473 86.9972 100.854 86.8466 101.297 86.8466C101.74 86.8466 102.118 86.9972 102.43 87.2983C102.749 87.5937 102.908 87.9517 102.908 88.3722C102.908 88.7869 102.749 89.1449 102.43 89.446C102.118 89.7415 101.74 89.8892 101.297 89.8892ZM105.987 105V91.9091H108.433V94.0398H108.594C108.867 93.3182 109.313 92.7557 109.933 92.3523C110.552 91.9432 111.293 91.7386 112.157 91.7386C113.032 91.7386 113.765 91.9432 114.356 92.3523C114.952 92.7614 115.393 93.3239 115.677 94.0398H115.813C116.126 93.3409 116.623 92.7841 117.305 92.3693C117.987 91.9489 118.799 91.7386 119.742 91.7386C120.93 91.7386 121.898 92.1108 122.648 92.8551C123.404 93.5994 123.782 94.7216 123.782 96.2216V105H121.234V96.4602C121.234 95.5739 120.992 94.9318 120.509 94.5341C120.026 94.1364 119.45 93.9375 118.779 93.9375C117.95 93.9375 117.305 94.1932 116.844 94.7045C116.384 95.2102 116.154 95.8608 116.154 96.6562V105H113.614V96.2983C113.614 95.5881 113.393 95.017 112.95 94.5852C112.506 94.1534 111.93 93.9375 111.219 93.9375C110.737 93.9375 110.29 94.0653 109.881 94.321C109.478 94.571 109.151 94.9205 108.901 95.3693C108.657 95.8182 108.535 96.3381 108.535 96.929V105H105.987ZM131.007 105.29C130.178 105.29 129.428 105.136 128.757 104.83C128.087 104.517 127.555 104.065 127.163 103.474C126.777 102.884 126.584 102.159 126.584 101.301C126.584 100.562 126.726 99.9545 127.01 99.4773C127.294 99 127.678 98.6222 128.161 98.3438C128.643 98.0653 129.183 97.8551 129.78 97.7131C130.376 97.571 130.984 97.4631 131.604 97.3892C132.388 97.2983 133.024 97.2244 133.513 97.1676C134.001 97.1051 134.357 97.0057 134.578 96.8693C134.8 96.733 134.911 96.5114 134.911 96.2045V96.1449C134.911 95.4006 134.7 94.8239 134.28 94.4148C133.865 94.0057 133.246 93.8011 132.422 93.8011C131.564 93.8011 130.888 93.9915 130.393 94.3722C129.905 94.7472 129.567 95.1648 129.379 95.625L126.984 95.0795C127.268 94.2841 127.683 93.642 128.229 93.1534C128.78 92.6591 129.413 92.3011 130.129 92.0795C130.845 91.8523 131.598 91.7386 132.388 91.7386C132.911 91.7386 133.464 91.8011 134.05 91.9261C134.641 92.0455 135.192 92.267 135.703 92.5909C136.22 92.9148 136.643 93.3778 136.973 93.9801C137.303 94.5767 137.467 95.3523 137.467 96.3068V105H134.979V103.21H134.876C134.712 103.54 134.464 103.864 134.135 104.182C133.805 104.5 133.382 104.764 132.865 104.974C132.348 105.185 131.729 105.29 131.007 105.29ZM131.561 103.244C132.266 103.244 132.868 103.105 133.368 102.827C133.874 102.548 134.257 102.185 134.518 101.736C134.786 101.281 134.919 100.795 134.919 100.278V98.5909C134.828 98.6818 134.652 98.767 134.391 98.8466C134.135 98.9205 133.842 98.9858 133.513 99.0426C133.183 99.0937 132.862 99.142 132.55 99.1875C132.237 99.2273 131.976 99.2614 131.766 99.2898C131.271 99.3523 130.82 99.4574 130.411 99.6051C130.007 99.7528 129.683 99.9659 129.439 100.244C129.2 100.517 129.081 100.881 129.081 101.335C129.081 101.966 129.314 102.443 129.78 102.767C130.246 103.085 130.839 103.244 131.561 103.244ZM143.41 97.2273V105H140.862V91.9091H143.308V94.0398H143.469C143.771 93.3466 144.242 92.7898 144.884 92.3693C145.532 91.9489 146.347 91.7386 147.33 91.7386C148.222 91.7386 149.004 91.9261 149.674 92.3011C150.344 92.6705 150.864 93.2216 151.234 93.9545C151.603 94.6875 151.788 95.5937 151.788 96.6733V105H149.239V96.9801C149.239 96.0312 148.992 95.2898 148.498 94.7557C148.004 94.2159 147.325 93.946 146.461 93.946C145.87 93.946 145.344 94.0739 144.884 94.3295C144.43 94.5852 144.069 94.9602 143.802 95.4545C143.54 95.9432 143.41 96.5341 143.41 97.2273ZM159.015 105.29C158.185 105.29 157.435 105.136 156.765 104.83C156.094 104.517 155.563 104.065 155.171 103.474C154.785 102.884 154.592 102.159 154.592 101.301C154.592 100.562 154.734 99.9545 155.018 99.4773C155.302 99 155.685 98.6222 156.168 98.3438C156.651 98.0653 157.191 97.8551 157.788 97.7131C158.384 97.571 158.992 97.4631 159.612 97.3892C160.396 97.2983 161.032 97.2244 161.521 97.1676C162.009 97.1051 162.364 97.0057 162.586 96.8693C162.808 96.733 162.918 96.5114 162.918 96.2045V96.1449C162.918 95.4006 162.708 94.8239 162.288 94.4148C161.873 94.0057 161.254 93.8011 160.43 93.8011C159.572 93.8011 158.896 93.9915 158.401 94.3722C157.913 94.7472 157.575 95.1648 157.387 95.625L154.992 95.0795C155.276 94.2841 155.691 93.642 156.237 93.1534C156.788 92.6591 157.421 92.3011 158.137 92.0795C158.853 91.8523 159.606 91.7386 160.396 91.7386C160.918 91.7386 161.472 91.8011 162.058 91.9261C162.648 92.0455 163.2 92.267 163.711 92.5909C164.228 92.9148 164.651 93.3778 164.981 93.9801C165.31 94.5767 165.475 95.3523 165.475 96.3068V105H162.987V103.21H162.884C162.719 103.54 162.472 103.864 162.143 104.182C161.813 104.5 161.39 104.764 160.873 104.974C160.356 105.185 159.737 105.29 159.015 105.29ZM159.569 103.244C160.273 103.244 160.876 103.105 161.376 102.827C161.881 102.548 162.265 102.185 162.526 101.736C162.793 101.281 162.927 100.795 162.927 100.278V98.5909C162.836 98.6818 162.66 98.767 162.398 98.8466C162.143 98.9205 161.85 98.9858 161.521 99.0426C161.191 99.0937 160.87 99.142 160.558 99.1875C160.245 99.2273 159.984 99.2614 159.773 99.2898C159.279 99.3523 158.827 99.4574 158.418 99.6051C158.015 99.7528 157.691 99.9659 157.447 100.244C157.208 100.517 157.089 100.881 157.089 101.335C157.089 101.966 157.322 102.443 157.788 102.767C158.254 103.085 158.847 103.244 159.569 103.244ZM180.735 105.264C179.468 105.264 178.377 104.977 177.462 104.403C176.553 103.824 175.854 103.026 175.366 102.009C174.877 100.991 174.633 99.8267 174.633 98.5142C174.633 97.1847 174.883 96.0114 175.383 94.9943C175.883 93.9716 176.587 93.1733 177.496 92.5994C178.406 92.0256 179.477 91.7386 180.71 91.7386C181.704 91.7386 182.59 91.9233 183.369 92.2926C184.147 92.6562 184.775 93.1676 185.252 93.8267C185.735 94.4858 186.022 95.2557 186.113 96.1364H183.633C183.496 95.5227 183.184 94.9943 182.695 94.5511C182.212 94.108 181.565 93.8864 180.752 93.8864C180.042 93.8864 179.42 94.0739 178.886 94.4489C178.357 94.8182 177.945 95.3466 177.65 96.0341C177.354 96.7159 177.207 97.5227 177.207 98.4545C177.207 99.4091 177.352 100.233 177.641 100.926C177.931 101.619 178.34 102.156 178.869 102.537C179.403 102.918 180.031 103.108 180.752 103.108C181.235 103.108 181.673 103.02 182.065 102.844C182.462 102.662 182.795 102.403 183.062 102.068C183.335 101.733 183.525 101.33 183.633 100.858H186.113C186.022 101.705 185.746 102.46 185.286 103.125C184.826 103.79 184.21 104.312 183.437 104.693C182.67 105.074 181.769 105.264 180.735 105.264ZM192.648 105.29C191.818 105.29 191.068 105.136 190.398 104.83C189.727 104.517 189.196 104.065 188.804 103.474C188.418 102.884 188.224 102.159 188.224 101.301C188.224 100.562 188.366 99.9545 188.651 99.4773C188.935 99 189.318 98.6222 189.801 98.3438C190.284 98.0653 190.824 97.8551 191.42 97.7131C192.017 97.571 192.625 97.4631 193.244 97.3892C194.028 97.2983 194.665 97.2244 195.153 97.1676C195.642 97.1051 195.997 97.0057 196.219 96.8693C196.44 96.733 196.551 96.5114 196.551 96.2045V96.1449C196.551 95.4006 196.341 94.8239 195.92 94.4148C195.506 94.0057 194.886 93.8011 194.062 93.8011C193.205 93.8011 192.528 93.9915 192.034 94.3722C191.545 94.7472 191.207 95.1648 191.02 95.625L188.625 95.0795C188.909 94.2841 189.324 93.642 189.869 93.1534C190.42 92.6591 191.054 92.3011 191.77 92.0795C192.486 91.8523 193.239 91.7386 194.028 91.7386C194.551 91.7386 195.105 91.8011 195.69 91.9261C196.281 92.0455 196.832 92.267 197.344 92.5909C197.861 92.9148 198.284 93.3778 198.614 93.9801C198.943 94.5767 199.108 95.3523 199.108 96.3068V105H196.619V103.21H196.517C196.352 103.54 196.105 103.864 195.776 104.182C195.446 104.5 195.023 104.764 194.506 104.974C193.989 105.185 193.369 105.29 192.648 105.29ZM193.202 103.244C193.906 103.244 194.509 103.105 195.009 102.827C195.514 102.548 195.898 102.185 196.159 101.736C196.426 101.281 196.56 100.795 196.56 100.278V98.5909C196.469 98.6818 196.293 98.767 196.031 98.8466C195.776 98.9205 195.483 98.9858 195.153 99.0426C194.824 99.0937 194.503 99.142 194.19 99.1875C193.878 99.2273 193.616 99.2614 193.406 99.2898C192.912 99.3523 192.46 99.4574 192.051 99.6051C191.648 99.7528 191.324 99.9659 191.08 100.244C190.841 100.517 190.722 100.881 190.722 101.335C190.722 101.966 190.955 102.443 191.42 102.767C191.886 103.085 192.48 103.244 193.202 103.244ZM202.502 105V91.9091H204.965V93.9886H205.102C205.34 93.2841 205.761 92.7301 206.363 92.3267C206.971 91.9176 207.658 91.7131 208.425 91.7131C208.585 91.7131 208.772 91.7187 208.988 91.7301C209.21 91.7415 209.383 91.7557 209.508 91.7727V94.2102C209.406 94.1818 209.224 94.1506 208.962 94.1165C208.701 94.0767 208.44 94.0568 208.178 94.0568C207.576 94.0568 207.039 94.1847 206.567 94.4403C206.102 94.6903 205.732 95.0398 205.46 95.4886C205.187 95.9318 205.05 96.4375 205.05 97.0057V105H202.502ZM215.406 105.29C214.576 105.29 213.826 105.136 213.156 104.83C212.485 104.517 211.954 104.065 211.562 103.474C211.175 102.884 210.982 102.159 210.982 101.301C210.982 100.562 211.124 99.9545 211.408 99.4773C211.692 99 212.076 98.6222 212.559 98.3438C213.042 98.0653 213.582 97.8551 214.178 97.7131C214.775 97.571 215.383 97.4631 216.002 97.3892C216.786 97.2983 217.423 97.2244 217.911 97.1676C218.4 97.1051 218.755 97.0057 218.977 96.8693C219.198 96.733 219.309 96.5114 219.309 96.2045V96.1449C219.309 95.4006 219.099 94.8239 218.678 94.4148C218.263 94.0057 217.644 93.8011 216.82 93.8011C215.962 93.8011 215.286 93.9915 214.792 94.3722C214.303 94.7472 213.965 95.1648 213.778 95.625L211.383 95.0795C211.667 94.2841 212.082 93.642 212.627 93.1534C213.178 92.6591 213.812 92.3011 214.528 92.0795C215.244 91.8523 215.996 91.7386 216.786 91.7386C217.309 91.7386 217.863 91.8011 218.448 91.9261C219.039 92.0455 219.59 92.267 220.102 92.5909C220.619 92.9148 221.042 93.3778 221.371 93.9801C221.701 94.5767 221.866 95.3523 221.866 96.3068V105H219.377V103.21H219.275C219.11 103.54 218.863 103.864 218.533 104.182C218.204 104.5 217.781 104.764 217.263 104.974C216.746 105.185 216.127 105.29 215.406 105.29ZM215.96 103.244C216.664 103.244 217.266 103.105 217.766 102.827C218.272 102.548 218.656 102.185 218.917 101.736C219.184 101.281 219.317 100.795 219.317 100.278V98.5909C219.227 98.6818 219.05 98.767 218.789 98.8466C218.533 98.9205 218.241 98.9858 217.911 99.0426C217.582 99.0937 217.261 99.142 216.948 99.1875C216.636 99.2273 216.374 99.2614 216.164 99.2898C215.67 99.3523 215.218 99.4574 214.809 99.6051C214.406 99.7528 214.082 99.9659 213.837 100.244C213.599 100.517 213.479 100.881 213.479 101.335C213.479 101.966 213.712 102.443 214.178 102.767C214.644 103.085 215.238 103.244 215.96 103.244ZM62.674 136.56L62.657 133.449H63.1001L68.3161 127.909H71.3672L65.4183 134.216H65.0178L62.674 136.56ZM60.3303 141V123.545H62.8786V141H60.3303ZM68.5973 141L63.9098 134.778L65.6655 132.997L71.7251 141H68.5973ZM78.7926 141.264C77.5028 141.264 76.392 140.989 75.4602 140.438C74.5341 139.881 73.8182 139.099 73.3125 138.094C72.8125 137.082 72.5625 135.898 72.5625 134.54C72.5625 133.199 72.8125 132.017 73.3125 130.994C73.8182 129.972 74.5227 129.173 75.4261 128.599C76.3352 128.026 77.3977 127.739 78.6136 127.739C79.3523 127.739 80.0682 127.861 80.7614 128.105C81.4545 128.349 82.0767 128.733 82.6278 129.256C83.179 129.778 83.6136 130.457 83.9318 131.293C84.25 132.122 84.4091 133.131 84.4091 134.318V135.222H74.0028V133.312H81.9119C81.9119 132.642 81.7756 132.048 81.5028 131.531C81.2301 131.009 80.8466 130.597 80.3523 130.295C79.8636 129.994 79.2898 129.844 78.6307 129.844C77.9148 129.844 77.2898 130.02 76.7557 130.372C76.2273 130.719 75.8182 131.173 75.5284 131.736C75.2443 132.293 75.1023 132.898 75.1023 133.551V135.043C75.1023 135.918 75.2557 136.662 75.5625 137.276C75.875 137.889 76.3097 138.358 76.8665 138.682C77.4233 139 78.0739 139.159 78.8182 139.159C79.3011 139.159 79.7415 139.091 80.1392 138.955C80.5369 138.812 80.8807 138.602 81.1705 138.324C81.4602 138.045 81.6818 137.702 81.8352 137.293L84.2472 137.727C84.054 138.437 83.7074 139.06 83.2074 139.594C82.7131 140.122 82.0909 140.534 81.3409 140.83C80.5966 141.119 79.7472 141.264 78.7926 141.264ZM87.2365 141V127.909H89.6996V129.989H89.8359C90.0746 129.284 90.495 128.73 91.0973 128.327C91.7053 127.918 92.3928 127.713 93.1598 127.713C93.3189 127.713 93.5064 127.719 93.7223 127.73C93.9439 127.741 94.1172 127.756 94.2422 127.773V130.21C94.1399 130.182 93.9581 130.151 93.6967 130.116C93.4354 130.077 93.174 130.057 92.9126 130.057C92.3104 130.057 91.7734 130.185 91.3018 130.44C90.8359 130.69 90.4666 131.04 90.1939 131.489C89.9212 131.932 89.7848 132.437 89.7848 133.006V141H87.2365ZM96.4474 127.909H98.9957V141.852C98.9957 142.727 98.8366 143.466 98.5185 144.068C98.206 144.67 97.7401 145.128 97.1207 145.44C96.5071 145.753 95.7486 145.909 94.8452 145.909C94.7543 145.909 94.669 145.909 94.5895 145.909C94.5043 145.909 94.4162 145.906 94.3253 145.901V143.71C94.4048 143.71 94.4759 143.71 94.5384 143.71C94.5952 143.71 94.6605 143.71 94.7344 143.71C95.3366 143.71 95.7713 143.548 96.0384 143.224C96.3111 142.906 96.4474 142.443 96.4474 141.835V127.909ZM97.7088 125.889C97.2656 125.889 96.8849 125.741 96.5668 125.446C96.2543 125.145 96.098 124.787 96.098 124.372C96.098 123.952 96.2543 123.594 96.5668 123.298C96.8849 122.997 97.2656 122.847 97.7088 122.847C98.152 122.847 98.5298 122.997 98.8423 123.298C99.1605 123.594 99.3196 123.952 99.3196 124.372C99.3196 124.787 99.1605 125.145 98.8423 125.446C98.5298 125.741 98.152 125.889 97.7088 125.889ZM106.234 141.29C105.404 141.29 104.654 141.136 103.984 140.83C103.313 140.517 102.782 140.065 102.39 139.474C102.004 138.884 101.81 138.159 101.81 137.301C101.81 136.562 101.952 135.955 102.237 135.477C102.521 135 102.904 134.622 103.387 134.344C103.87 134.065 104.41 133.855 105.006 133.713C105.603 133.571 106.211 133.463 106.83 133.389C107.614 133.298 108.251 133.224 108.739 133.168C109.228 133.105 109.583 133.006 109.805 132.869C110.026 132.733 110.137 132.511 110.137 132.205V132.145C110.137 131.401 109.927 130.824 109.506 130.415C109.092 130.006 108.472 129.801 107.648 129.801C106.79 129.801 106.114 129.991 105.62 130.372C105.131 130.747 104.793 131.165 104.606 131.625L102.211 131.08C102.495 130.284 102.91 129.642 103.455 129.153C104.006 128.659 104.64 128.301 105.356 128.08C106.072 127.852 106.825 127.739 107.614 127.739C108.137 127.739 108.691 127.801 109.276 127.926C109.867 128.045 110.418 128.267 110.93 128.591C111.447 128.915 111.87 129.378 112.2 129.98C112.529 130.577 112.694 131.352 112.694 132.307V141H110.205V139.21H110.103C109.938 139.54 109.691 139.864 109.362 140.182C109.032 140.5 108.609 140.764 108.092 140.974C107.575 141.185 106.955 141.29 106.234 141.29ZM106.788 139.244C107.492 139.244 108.094 139.105 108.594 138.827C109.1 138.548 109.484 138.185 109.745 137.736C110.012 137.281 110.146 136.795 110.146 136.278V134.591C110.055 134.682 109.879 134.767 109.617 134.847C109.362 134.92 109.069 134.986 108.739 135.043C108.41 135.094 108.089 135.142 107.776 135.188C107.464 135.227 107.202 135.261 106.992 135.29C106.498 135.352 106.046 135.457 105.637 135.605C105.234 135.753 104.91 135.966 104.665 136.244C104.427 136.517 104.308 136.881 104.308 137.335C104.308 137.966 104.54 138.443 105.006 138.767C105.472 139.085 106.066 139.244 106.788 139.244ZM128.082 141.264C126.792 141.264 125.681 140.989 124.749 140.438C123.823 139.881 123.107 139.099 122.602 138.094C122.102 137.082 121.852 135.898 121.852 134.54C121.852 133.199 122.102 132.017 122.602 130.994C123.107 129.972 123.812 129.173 124.715 128.599C125.624 128.026 126.687 127.739 127.903 127.739C128.641 127.739 129.357 127.861 130.05 128.105C130.744 128.349 131.366 128.733 131.917 129.256C132.468 129.778 132.903 130.457 133.221 131.293C133.539 132.122 133.698 133.131 133.698 134.318V135.222H123.292V133.312H131.201C131.201 132.642 131.065 132.048 130.792 131.531C130.519 131.009 130.136 130.597 129.641 130.295C129.153 129.994 128.579 129.844 127.92 129.844C127.204 129.844 126.579 130.02 126.045 130.372C125.516 130.719 125.107 131.173 124.817 131.736C124.533 132.293 124.391 132.898 124.391 133.551V135.043C124.391 135.918 124.545 136.662 124.852 137.276C125.164 137.889 125.599 138.358 126.156 138.682C126.712 139 127.363 139.159 128.107 139.159C128.59 139.159 129.031 139.091 129.428 138.955C129.826 138.812 130.17 138.602 130.46 138.324C130.749 138.045 130.971 137.702 131.124 137.293L133.536 137.727C133.343 138.437 132.996 139.06 132.496 139.594C132.002 140.122 131.38 140.534 130.63 140.83C129.886 141.119 129.036 141.264 128.082 141.264ZM139.074 133.227V141H136.526V127.909H138.972V130.04H139.134C139.435 129.347 139.906 128.79 140.548 128.369C141.196 127.949 142.011 127.739 142.994 127.739C143.886 127.739 144.668 127.926 145.338 128.301C146.009 128.67 146.528 129.222 146.898 129.955C147.267 130.687 147.452 131.594 147.452 132.673V141H144.903V132.98C144.903 132.031 144.656 131.29 144.162 130.756C143.668 130.216 142.989 129.946 142.125 129.946C141.534 129.946 141.009 130.074 140.548 130.33C140.094 130.585 139.733 130.96 139.466 131.455C139.205 131.943 139.074 132.534 139.074 133.227ZM156.511 141.264C155.222 141.264 154.111 140.989 153.179 140.438C152.253 139.881 151.537 139.099 151.031 138.094C150.531 137.082 150.281 135.898 150.281 134.54C150.281 133.199 150.531 132.017 151.031 130.994C151.537 129.972 152.241 129.173 153.145 128.599C154.054 128.026 155.116 127.739 156.332 127.739C157.071 127.739 157.787 127.861 158.48 128.105C159.173 128.349 159.795 128.733 160.347 129.256C160.898 129.778 161.332 130.457 161.651 131.293C161.969 132.122 162.128 133.131 162.128 134.318V135.222H151.722V133.312H159.631C159.631 132.642 159.494 132.048 159.222 131.531C158.949 131.009 158.565 130.597 158.071 130.295C157.582 129.994 157.009 129.844 156.349 129.844C155.634 129.844 155.009 130.02 154.474 130.372C153.946 130.719 153.537 131.173 153.247 131.736C152.963 132.293 152.821 132.898 152.821 133.551V135.043C152.821 135.918 152.974 136.662 153.281 137.276C153.594 137.889 154.028 138.358 154.585 138.682C155.142 139 155.793 139.159 156.537 139.159C157.02 139.159 157.46 139.091 157.858 138.955C158.256 138.812 158.599 138.602 158.889 138.324C159.179 138.045 159.401 137.702 159.554 137.293L161.966 137.727C161.773 138.437 161.426 139.06 160.926 139.594C160.432 140.122 159.81 140.534 159.06 140.83C158.315 141.119 157.466 141.264 156.511 141.264ZM164.955 141V127.909H167.418V129.989H167.555C167.793 129.284 168.214 128.73 168.816 128.327C169.424 127.918 170.112 127.713 170.879 127.713C171.038 127.713 171.225 127.719 171.441 127.73C171.663 127.741 171.836 127.756 171.961 127.773V130.21C171.859 130.182 171.677 130.151 171.415 130.116C171.154 130.077 170.893 130.057 170.631 130.057C170.029 130.057 169.492 130.185 169.021 130.44C168.555 130.69 168.185 131.04 167.913 131.489C167.64 131.932 167.504 132.437 167.504 133.006V141H164.955ZM179.186 146.182C178.146 146.182 177.251 146.045 176.501 145.773C175.757 145.5 175.149 145.139 174.678 144.69C174.206 144.241 173.854 143.75 173.621 143.216L175.811 142.312C175.964 142.562 176.169 142.827 176.425 143.105C176.686 143.389 177.038 143.631 177.482 143.83C177.93 144.028 178.507 144.128 179.212 144.128C180.178 144.128 180.976 143.892 181.607 143.42C182.237 142.955 182.553 142.21 182.553 141.188V138.614H182.391C182.237 138.892 182.016 139.202 181.726 139.543C181.442 139.884 181.05 140.179 180.55 140.429C180.05 140.679 179.399 140.804 178.598 140.804C177.564 140.804 176.632 140.562 175.803 140.08C174.979 139.591 174.325 138.872 173.842 137.923C173.365 136.969 173.126 135.795 173.126 134.403C173.126 133.011 173.362 131.818 173.834 130.824C174.311 129.83 174.964 129.068 175.794 128.54C176.624 128.006 177.564 127.739 178.615 127.739C179.428 127.739 180.084 127.875 180.584 128.148C181.084 128.415 181.473 128.727 181.751 129.085C182.036 129.443 182.254 129.759 182.408 130.031H182.595V127.909H185.092V141.29C185.092 142.415 184.831 143.338 184.308 144.06C183.786 144.781 183.078 145.315 182.186 145.662C181.3 146.009 180.3 146.182 179.186 146.182ZM179.161 138.69C179.893 138.69 180.513 138.52 181.018 138.179C181.53 137.832 181.916 137.338 182.178 136.696C182.445 136.048 182.578 135.273 182.578 134.369C182.578 133.489 182.447 132.713 182.186 132.043C181.925 131.372 181.541 130.849 181.036 130.474C180.53 130.094 179.905 129.903 179.161 129.903C178.393 129.903 177.754 130.102 177.243 130.5C176.732 130.892 176.345 131.426 176.084 132.102C175.828 132.778 175.7 133.534 175.7 134.369C175.7 135.227 175.831 135.98 176.092 136.628C176.354 137.276 176.74 137.781 177.251 138.145C177.768 138.509 178.405 138.69 179.161 138.69ZM188.51 141V127.909H191.058V141H188.51ZM189.797 125.889C189.354 125.889 188.973 125.741 188.655 125.446C188.342 125.145 188.186 124.787 188.186 124.372C188.186 123.952 188.342 123.594 188.655 123.298C188.973 122.997 189.354 122.847 189.797 122.847C190.24 122.847 190.618 122.997 190.93 123.298C191.249 123.594 191.408 123.952 191.408 124.372C191.408 124.787 191.249 125.145 190.93 125.446C190.618 125.741 190.24 125.889 189.797 125.889ZM197.273 135.98V135.818C197.285 134.761 197.39 133.92 197.589 133.295C197.793 132.67 198.083 132.165 198.458 131.778C198.833 131.392 199.285 131.04 199.813 130.722C200.154 130.506 200.461 130.264 200.734 129.997C201.006 129.73 201.222 129.423 201.381 129.077C201.54 128.73 201.62 128.347 201.62 127.926C201.62 127.42 201.501 126.983 201.262 126.614C201.023 126.244 200.705 125.96 200.308 125.761C199.915 125.557 199.478 125.455 198.995 125.455C198.558 125.455 198.14 125.545 197.742 125.727C197.344 125.909 197.015 126.193 196.754 126.58C196.492 126.96 196.342 127.452 196.302 128.054H193.711C193.751 127.031 194.009 126.168 194.487 125.463C194.964 124.753 195.594 124.216 196.379 123.852C197.168 123.489 198.04 123.307 198.995 123.307C200.04 123.307 200.955 123.503 201.739 123.895C202.523 124.281 203.131 124.824 203.563 125.523C204.001 126.216 204.219 127.026 204.219 127.952C204.219 128.588 204.12 129.162 203.921 129.673C203.722 130.179 203.438 130.631 203.069 131.028C202.705 131.426 202.268 131.778 201.756 132.085C201.273 132.386 200.881 132.699 200.58 133.023C200.285 133.347 200.069 133.73 199.933 134.173C199.796 134.616 199.722 135.165 199.711 135.818V135.98H197.273ZM198.56 141.162C198.094 141.162 197.694 140.997 197.359 140.668C197.023 140.332 196.856 139.929 196.856 139.457C196.856 138.991 197.023 138.594 197.359 138.264C197.694 137.929 198.094 137.761 198.56 137.761C199.021 137.761 199.418 137.929 199.754 138.264C200.094 138.594 200.265 138.991 200.265 139.457C200.265 139.77 200.185 140.057 200.026 140.318C199.873 140.574 199.668 140.778 199.413 140.932C199.157 141.085 198.873 141.162 198.56 141.162Z" fill="black"/>
</svg>
