<svg width="361" height="85" viewBox="0 0 361 85" fill="none" xmlns="http://www.w3.org/2000/svg">
<rect width="361" height="85" rx="12" fill="white"/>
<path d="M42.0651 30.7273H49.031L54.9401 45.1364H55.2128L61.1219 30.7273H68.0878V54H62.6106V39.7045H62.4174L56.8265 53.8523H53.3265L47.7356 39.625H47.5424V54H42.0651V30.7273ZM77.9105 54H71.865L79.7173 30.7273H87.2059L95.0582 54H89.0127L83.5468 36.5909H83.365L77.9105 54ZM77.1036 44.8409H89.74V49.1136H77.1036V44.8409ZM98.8439 54V30.7273H108.458C110.2 30.7273 111.704 31.0417 112.969 31.6705C114.242 32.2917 115.223 33.1856 115.912 34.3523C116.601 35.5114 116.946 36.8864 116.946 38.4773C116.946 40.0909 116.594 41.4621 115.889 42.5909C115.185 43.7121 114.185 44.5682 112.889 45.1591C111.594 45.7424 110.06 46.0341 108.287 46.0341H102.208V41.6023H107.242C108.09 41.6023 108.798 41.4924 109.367 41.2727C109.942 41.0455 110.378 40.7045 110.673 40.25C110.969 39.7879 111.117 39.197 111.117 38.4773C111.117 37.7576 110.969 37.1629 110.673 36.6932C110.378 36.2159 109.942 35.8598 109.367 35.625C108.791 35.3826 108.083 35.2614 107.242 35.2614H104.469V54H98.8439ZM111.946 43.3636L117.742 54H111.605L105.923 43.3636H111.946ZM126.936 30.7273V54H121.311V30.7273H126.936ZM139.903 30.7273H146.869L152.778 45.1364H153.05L158.959 30.7273H165.925V54H160.448V39.7045H160.255L154.664 53.8523H151.164L145.573 39.625H145.38V54H139.903V30.7273ZM170.714 54V30.7273H186.941V35.2955H176.339V40.0682H186.112V44.6477H176.339V49.4318H186.941V54H170.714ZM211.551 30.7273V54H206.778L197.517 40.5682H197.369V54H191.744V30.7273H196.585L205.744 44.1364H205.937V30.7273H211.551ZM221.402 54H215.356L223.209 30.7273H230.697L238.549 54H232.504L227.038 36.5909H226.856L221.402 54ZM220.595 44.8409H233.231V49.1136H220.595V44.8409ZM262.142 30.7273V54H257.369L248.108 40.5682H247.96V54H242.335V30.7273H247.176L256.335 44.1364H256.528V30.7273H262.142ZM271.993 54H265.948L273.8 30.7273H281.288L289.141 54H283.095L277.629 36.5909H277.448L271.993 54ZM271.186 44.8409H283.823V49.1136H271.186V44.8409ZM292.926 30.7273H299.892L305.801 45.1364H306.074L311.983 30.7273H318.949V54H313.472V39.7045H313.279L307.688 53.8523H304.188L298.597 39.625H298.404V54H292.926V30.7273Z" fill="black"/>
</svg>
