<svg width="593" height="605" viewBox="0 0 593 605" fill="none" xmlns="http://www.w3.org/2000/svg">
<rect x="40" y="40" width="513" height="400" rx="17" fill="white"/>
<path d="M79.2088 76.4545V91H76.5739V79.0185H76.4886L73.0866 81.1918V78.777L76.7017 76.4545H79.2088ZM84.5134 91.1562C84.0826 91.1562 83.7132 91.0047 83.4055 90.7017C83.0977 90.3987 82.9462 90.0294 82.9509 89.5938C82.9462 89.1676 83.0977 88.803 83.4055 88.5C83.7132 88.197 84.0826 88.0455 84.5134 88.0455C84.9301 88.0455 85.2923 88.197 85.6001 88.5C85.9126 88.803 86.0712 89.1676 86.0759 89.5938C86.0712 89.8826 85.9954 90.1454 85.8487 90.3821C85.7066 90.6188 85.5172 90.8082 85.2805 90.9503C85.0485 91.0876 84.7928 91.1562 84.5134 91.1562ZM102.861 80.4531C102.794 79.8329 102.515 79.3499 102.023 79.0043C101.535 78.6586 100.9 78.4858 100.119 78.4858C99.5699 78.4858 99.0987 78.5687 98.7058 78.7344C98.3128 78.9001 98.0121 79.125 97.8038 79.4091C97.5954 79.6932 97.4889 80.0175 97.4842 80.3821C97.4842 80.6851 97.5528 80.9479 97.6901 81.1705C97.8322 81.393 98.0239 81.5824 98.2654 81.7386C98.5069 81.8902 98.7744 82.018 99.068 82.1222C99.3615 82.2263 99.6575 82.3139 99.9558 82.3849L101.319 82.7259C101.869 82.8537 102.397 83.0265 102.903 83.2443C103.415 83.4621 103.871 83.7367 104.274 84.0682C104.681 84.3996 105.003 84.7997 105.24 85.2685C105.477 85.7372 105.595 86.2865 105.595 86.9162C105.595 87.7685 105.377 88.5189 104.942 89.1676C104.506 89.8116 103.876 90.3158 103.052 90.6804C102.233 91.0402 101.241 91.2202 100.076 91.2202C98.9449 91.2202 97.9624 91.045 97.129 90.6946C96.3004 90.3442 95.6518 89.8329 95.183 89.1605C94.719 88.4882 94.4681 87.669 94.4302 86.7031H97.0225C97.0604 87.2098 97.2166 87.6312 97.4913 87.9673C97.7659 88.3035 98.1234 88.5545 98.5637 88.7202C99.0088 88.8859 99.5059 88.9688 100.055 88.9688C100.628 88.9688 101.13 88.8835 101.561 88.7131C101.996 88.5379 102.337 88.2964 102.584 87.9886C102.83 87.6761 102.955 87.3116 102.96 86.8949C102.955 86.5161 102.844 86.2036 102.626 85.9574C102.408 85.7064 102.103 85.4981 101.71 85.3324C101.322 85.1619 100.867 85.0104 100.346 84.8778L98.6915 84.4517C97.4936 84.1439 96.5467 83.6776 95.8506 83.0526C95.1594 82.4228 94.8137 81.5871 94.8137 80.5455C94.8137 79.6884 95.0457 78.938 95.5097 78.294C95.9785 77.6501 96.6153 77.1506 97.4202 76.7955C98.2252 76.4356 99.1366 76.2557 100.155 76.2557C101.187 76.2557 102.091 76.4356 102.868 76.7955C103.649 77.1506 104.262 77.6454 104.707 78.2798C105.152 78.9096 105.382 79.634 105.396 80.4531H102.861ZM108.63 91V80.0909H111.201V91H108.63ZM109.923 78.5426C109.516 78.5426 109.165 78.4077 108.872 78.1378C108.578 77.8632 108.432 77.5341 108.432 77.1506C108.432 76.7623 108.578 76.4332 108.872 76.1634C109.165 75.8887 109.516 75.7514 109.923 75.7514C110.335 75.7514 110.685 75.8887 110.974 76.1634C111.268 76.4332 111.414 76.7623 111.414 77.1506C111.414 77.5341 111.268 77.8632 110.974 78.1378C110.685 78.4077 110.335 78.5426 109.923 78.5426ZM123.267 82.9744L120.924 83.2301C120.857 82.9934 120.741 82.7708 120.576 82.5625C120.415 82.3542 120.197 82.1861 119.922 82.0582C119.648 81.9304 119.311 81.8665 118.914 81.8665C118.379 81.8665 117.929 81.9825 117.564 82.2145C117.204 82.4465 117.027 82.7472 117.032 83.1165C117.027 83.4337 117.143 83.6918 117.38 83.8906C117.621 84.0895 118.019 84.2528 118.573 84.3807L120.434 84.7784C121.466 85.0009 122.233 85.3537 122.735 85.8366C123.241 86.3196 123.497 86.9517 123.502 87.733C123.497 88.4195 123.296 89.0256 122.898 89.5511C122.505 90.072 121.958 90.4792 121.257 90.7727C120.557 91.0663 119.752 91.2131 118.843 91.2131C117.507 91.2131 116.433 90.9337 115.618 90.375C114.804 89.8116 114.319 89.0279 114.162 88.0241L116.669 87.7827C116.783 88.2751 117.025 88.6468 117.394 88.8977C117.763 89.1487 118.244 89.2741 118.836 89.2741C119.446 89.2741 119.936 89.1487 120.306 88.8977C120.68 88.6468 120.867 88.3366 120.867 87.9673C120.867 87.6548 120.746 87.3968 120.505 87.1932C120.268 86.9896 119.899 86.8333 119.397 86.7244L117.536 86.3338C116.489 86.116 115.715 85.7491 115.213 85.233C114.712 84.7121 114.463 84.054 114.468 83.2585C114.463 82.5862 114.645 82.0038 115.015 81.5114C115.389 81.0142 115.907 80.6307 116.57 80.3608C117.238 80.0862 118.007 79.9489 118.878 79.9489C120.157 79.9489 121.163 80.2211 121.897 80.7656C122.635 81.3101 123.092 82.0464 123.267 82.9744ZM128.673 91L125.591 80.0909H128.212L130.129 87.7614H130.229L132.189 80.0909H134.781L136.741 87.7188H136.848L138.737 80.0909H141.365L138.275 91H135.598L133.552 83.6278H133.403L131.358 91H128.673ZM147.099 91.2202C146.408 91.2202 145.785 91.0971 145.231 90.8509C144.682 90.5999 144.247 90.2306 143.925 89.7429C143.607 89.2552 143.449 88.6539 143.449 87.9389C143.449 87.3234 143.562 86.8144 143.79 86.4119C144.017 86.0095 144.327 85.6875 144.72 85.446C145.113 85.2045 145.556 85.0223 146.048 84.8991C146.545 84.7713 147.059 84.679 147.589 84.6222C148.229 84.5559 148.747 84.4967 149.145 84.4446C149.542 84.3878 149.831 84.3026 150.011 84.1889C150.196 84.0705 150.288 83.8883 150.288 83.642V83.5994C150.288 83.0644 150.13 82.6501 149.812 82.3565C149.495 82.063 149.038 81.9162 148.442 81.9162C147.812 81.9162 147.312 82.0535 146.943 82.3281C146.578 82.6027 146.332 82.9271 146.204 83.3011L143.804 82.9602C143.993 82.2973 144.306 81.7434 144.741 81.2983C145.177 80.8485 145.71 80.5123 146.339 80.2898C146.969 80.0625 147.665 79.9489 148.427 79.9489C148.953 79.9489 149.476 80.0104 149.997 80.1335C150.518 80.2566 150.994 80.4602 151.425 80.7443C151.855 81.0237 152.201 81.4048 152.462 81.8878C152.727 82.3707 152.859 82.9744 152.859 83.6989V91H150.388V89.5014H150.302C150.146 89.8045 149.926 90.0885 149.642 90.3537C149.363 90.6141 149.01 90.8248 148.584 90.9858C148.162 91.142 147.667 91.2202 147.099 91.2202ZM147.767 89.331C148.283 89.331 148.73 89.2292 149.109 89.0256C149.488 88.8172 149.779 88.5426 149.983 88.2017C150.191 87.8608 150.295 87.4891 150.295 87.0866V85.8011C150.215 85.8674 150.078 85.929 149.883 85.9858C149.694 86.0426 149.481 86.0923 149.244 86.1349C149.007 86.1776 148.773 86.2154 148.541 86.2486C148.309 86.2817 148.108 86.3101 147.937 86.3338C147.554 86.3859 147.211 86.4711 146.908 86.5895C146.604 86.7079 146.365 86.8736 146.19 87.0866C146.015 87.295 145.927 87.5649 145.927 87.8963C145.927 88.3698 146.1 88.7273 146.446 88.9688C146.792 89.2102 147.232 89.331 147.767 89.331ZM162.005 91V80.0909H164.463V81.9446H164.591C164.818 81.3196 165.194 80.8319 165.72 80.4815C166.245 80.1264 166.873 79.9489 167.602 79.9489C168.341 79.9489 168.963 80.1288 169.47 80.4886C169.981 80.8437 170.341 81.3291 170.549 81.9446H170.663C170.905 81.3385 171.312 80.8556 171.885 80.4957C172.462 80.1312 173.146 79.9489 173.937 79.9489C174.941 79.9489 175.76 80.2661 176.395 80.9006C177.029 81.535 177.346 82.4607 177.346 83.6776V91H174.768V84.0753C174.768 83.3982 174.588 82.9034 174.228 82.5909C173.869 82.2737 173.428 82.1151 172.907 82.1151C172.287 82.1151 171.802 82.3092 171.451 82.6974C171.106 83.081 170.933 83.5805 170.933 84.196V91H168.412V83.9688C168.412 83.4053 168.241 82.9555 167.9 82.6193C167.564 82.2831 167.124 82.1151 166.579 82.1151C166.21 82.1151 165.874 82.2098 165.571 82.3991C165.268 82.5838 165.026 82.8466 164.846 83.1875C164.666 83.5237 164.576 83.9167 164.576 84.3665V91H162.005ZM183.894 91.2202C183.203 91.2202 182.58 91.0971 182.026 90.8509C181.477 90.5999 181.041 90.2306 180.719 89.7429C180.402 89.2552 180.243 88.6539 180.243 87.9389C180.243 87.3234 180.357 86.8144 180.584 86.4119C180.811 86.0095 181.122 85.6875 181.515 85.446C181.908 85.2045 182.35 85.0223 182.843 84.8991C183.34 84.7713 183.854 84.679 184.384 84.6222C185.023 84.5559 185.542 84.4967 185.939 84.4446C186.337 84.3878 186.626 84.3026 186.806 84.1889C186.99 84.0705 187.083 83.8883 187.083 83.642V83.5994C187.083 83.0644 186.924 82.6501 186.607 82.3565C186.29 82.063 185.833 81.9162 185.236 81.9162C184.606 81.9162 184.107 82.0535 183.738 82.3281C183.373 82.6027 183.127 82.9271 182.999 83.3011L180.598 82.9602C180.788 82.2973 181.1 81.7434 181.536 81.2983C181.971 80.8485 182.504 80.5123 183.134 80.2898C183.764 80.0625 184.46 79.9489 185.222 79.9489C185.748 79.9489 186.271 80.0104 186.792 80.1335C187.312 80.2566 187.788 80.4602 188.219 80.7443C188.65 81.0237 188.996 81.4048 189.256 81.8878C189.521 82.3707 189.654 82.9744 189.654 83.6989V91H187.182V89.5014H187.097C186.941 89.8045 186.721 90.0885 186.436 90.3537C186.157 90.6141 185.804 90.8248 185.378 90.9858C184.957 91.142 184.462 91.2202 183.894 91.2202ZM184.561 89.331C185.078 89.331 185.525 89.2292 185.904 89.0256C186.283 88.8172 186.574 88.5426 186.777 88.2017C186.986 87.8608 187.09 87.4891 187.09 87.0866V85.8011C187.009 85.8674 186.872 85.929 186.678 85.9858C186.489 86.0426 186.275 86.0923 186.039 86.1349C185.802 86.1776 185.568 86.2154 185.336 86.2486C185.104 86.2817 184.902 86.3101 184.732 86.3338C184.348 86.3859 184.005 86.4711 183.702 86.5895C183.399 86.7079 183.16 86.8736 182.985 87.0866C182.81 87.295 182.722 87.5649 182.722 87.8963C182.722 88.3698 182.895 88.7273 183.24 88.9688C183.586 89.2102 184.026 89.331 184.561 89.331ZM193.039 91V80.0909H195.496V81.9446H195.624C195.851 81.3196 196.228 80.8319 196.753 80.4815C197.279 80.1264 197.906 79.9489 198.636 79.9489C199.374 79.9489 199.997 80.1288 200.503 80.4886C201.015 80.8437 201.375 81.3291 201.583 81.9446H201.697C201.938 81.3385 202.345 80.8556 202.918 80.4957C203.496 80.1312 204.18 79.9489 204.971 79.9489C205.975 79.9489 206.794 80.2661 207.428 80.9006C208.063 81.535 208.38 82.4607 208.38 83.6776V91H205.802V84.0753C205.802 83.3982 205.622 82.9034 205.262 82.5909C204.902 82.2737 204.462 82.1151 203.941 82.1151C203.321 82.1151 202.835 82.3092 202.485 82.6974C202.139 83.081 201.967 83.5805 201.967 84.196V91H199.445V83.9688C199.445 83.4053 199.275 82.9555 198.934 82.6193C198.598 82.2831 198.157 82.1151 197.613 82.1151C197.244 82.1151 196.907 82.2098 196.604 82.3991C196.301 82.5838 196.06 82.8466 195.88 83.1875C195.7 83.5237 195.61 83.9167 195.61 84.3665V91H193.039ZM211.788 95.0909V80.0909H214.317V81.8949H214.466C214.598 81.6297 214.785 81.348 215.027 81.0497C215.268 80.7467 215.595 80.4886 216.007 80.2756C216.419 80.0578 216.944 79.9489 217.584 79.9489C218.426 79.9489 219.186 80.1643 219.864 80.5952C220.545 81.0213 221.085 81.6534 221.483 82.4915C221.885 83.3248 222.087 84.3475 222.087 85.5597C222.087 86.7576 221.89 87.7756 221.497 88.6136C221.104 89.4517 220.569 90.0909 219.892 90.5312C219.215 90.9716 218.448 91.1918 217.591 91.1918C216.966 91.1918 216.447 91.0876 216.035 90.8793C215.623 90.6709 215.292 90.42 215.041 90.1264C214.795 89.8281 214.603 89.5464 214.466 89.2812H214.359V95.0909H211.788ZM214.31 85.5455C214.31 86.2509 214.409 86.8688 214.608 87.3991C214.811 87.9295 215.103 88.3437 215.481 88.642C215.865 88.9356 216.329 89.0824 216.873 89.0824C217.442 89.0824 217.917 88.9309 218.301 88.6278C218.685 88.3201 218.973 87.901 219.167 87.3707C219.366 86.8357 219.466 86.2273 219.466 85.5455C219.466 84.8684 219.369 84.267 219.175 83.7415C218.98 83.2159 218.692 82.804 218.308 82.5057C217.925 82.2074 217.446 82.0582 216.873 82.0582C216.324 82.0582 215.858 82.2027 215.474 82.4915C215.091 82.7803 214.8 83.1851 214.601 83.706C214.407 84.2268 214.31 84.84 214.31 85.5455ZM232.041 86.4119V80.0909H234.612V91H232.119V89.0611H232.006C231.76 89.6719 231.355 90.1714 230.791 90.5597C230.233 90.9479 229.544 91.142 228.725 91.142C228.01 91.142 227.378 90.9834 226.828 90.6662C226.284 90.3442 225.858 89.8778 225.55 89.267C225.242 88.6515 225.088 87.9081 225.088 87.0369V80.0909H227.659V86.6392C227.659 87.3305 227.849 87.8797 228.227 88.2869C228.606 88.6941 229.103 88.8977 229.719 88.8977C230.098 88.8977 230.465 88.8054 230.82 88.6207C231.175 88.4361 231.466 88.1615 231.693 87.7969C231.925 87.4276 232.041 86.9659 232.041 86.4119ZM243.817 91V80.0909H246.275V81.9446H246.402C246.63 81.3196 247.006 80.8319 247.532 80.4815C248.057 80.1264 248.685 79.9489 249.414 79.9489C250.152 79.9489 250.775 80.1288 251.282 80.4886C251.793 80.8437 252.153 81.3291 252.361 81.9446H252.475C252.716 81.3385 253.123 80.8556 253.696 80.4957C254.274 80.1312 254.958 79.9489 255.749 79.9489C256.753 79.9489 257.572 80.2661 258.206 80.9006C258.841 81.535 259.158 82.4607 259.158 83.6776V91H256.58V84.0753C256.58 83.3982 256.4 82.9034 256.04 82.5909C255.68 82.2737 255.24 82.1151 254.719 82.1151C254.099 82.1151 253.614 82.3092 253.263 82.6974C252.917 83.081 252.745 83.5805 252.745 84.196V91H250.223V83.9688C250.223 83.4053 250.053 82.9555 249.712 82.6193C249.376 82.2831 248.935 82.1151 248.391 82.1151C248.022 82.1151 247.685 82.2098 247.382 82.3991C247.079 82.5838 246.838 82.8466 246.658 83.1875C246.478 83.5237 246.388 83.9167 246.388 84.3665V91H243.817ZM267.396 91.2131C266.302 91.2131 265.358 90.9858 264.562 90.5312C263.771 90.072 263.163 89.4233 262.737 88.5852C262.311 87.7424 262.098 86.7505 262.098 85.6094C262.098 84.4872 262.311 83.5024 262.737 82.6548C263.168 81.8026 263.769 81.1397 264.541 80.6662C265.313 80.188 266.219 79.9489 267.261 79.9489C267.933 79.9489 268.568 80.0578 269.164 80.2756C269.766 80.4886 270.296 80.8201 270.755 81.2699C271.219 81.7197 271.584 82.2926 271.849 82.9886C272.114 83.6799 272.247 84.5038 272.247 85.4602V86.2486H263.305V84.5156H269.782C269.778 84.0232 269.671 83.5852 269.463 83.2017C269.254 82.8134 268.963 82.508 268.589 82.2855C268.22 82.063 267.789 81.9517 267.296 81.9517C266.771 81.9517 266.309 82.0795 265.912 82.3352C265.514 82.5862 265.204 82.9176 264.981 83.3295C264.763 83.7367 264.652 84.1842 264.647 84.6719V86.1847C264.647 86.8191 264.763 87.3636 264.995 87.8182C265.227 88.268 265.552 88.6136 265.968 88.8551C266.385 89.0919 266.873 89.2102 267.431 89.2102C267.805 89.2102 268.144 89.1581 268.447 89.054C268.75 88.9451 269.013 88.7865 269.235 88.5781C269.458 88.3698 269.626 88.1117 269.74 87.804L272.14 88.0739C271.989 88.7083 271.7 89.2623 271.274 89.7358C270.852 90.2045 270.313 90.5691 269.654 90.8295C268.996 91.0852 268.243 91.2131 267.396 91.2131ZM275.222 91V80.0909H277.679V81.9446H277.807C278.034 81.3196 278.411 80.8319 278.936 80.4815C279.462 80.1264 280.089 79.9489 280.818 79.9489C281.557 79.9489 282.18 80.1288 282.686 80.4886C283.198 80.8437 283.558 81.3291 283.766 81.9446H283.879C284.121 81.3385 284.528 80.8556 285.101 80.4957C285.679 80.1312 286.363 79.9489 287.154 79.9489C288.157 79.9489 288.977 80.2661 289.611 80.9006C290.245 81.535 290.563 82.4607 290.563 83.6776V91H287.985V84.0753C287.985 83.3982 287.805 82.9034 287.445 82.5909C287.085 82.2737 286.645 82.1151 286.124 82.1151C285.504 82.1151 285.018 82.3092 284.668 82.6974C284.322 83.081 284.149 83.5805 284.149 84.196V91H281.628V83.9688C281.628 83.4053 281.458 82.9555 281.117 82.6193C280.781 82.2831 280.34 82.1151 279.796 82.1151C279.426 82.1151 279.09 82.2098 278.787 82.3991C278.484 82.5838 278.243 82.8466 278.063 83.1875C277.883 83.5237 277.793 83.9167 277.793 84.3665V91H275.222ZM297.11 91.2202C296.419 91.2202 295.796 91.0971 295.242 90.8509C294.693 90.5999 294.257 90.2306 293.936 89.7429C293.618 89.2552 293.46 88.6539 293.46 87.9389C293.46 87.3234 293.573 86.8144 293.801 86.4119C294.028 86.0095 294.338 85.6875 294.731 85.446C295.124 85.2045 295.567 85.0223 296.059 84.8991C296.556 84.7713 297.07 84.679 297.6 84.6222C298.239 84.5559 298.758 84.4967 299.156 84.4446C299.553 84.3878 299.842 84.3026 300.022 84.1889C300.207 84.0705 300.299 83.8883 300.299 83.642V83.5994C300.299 83.0644 300.141 82.6501 299.823 82.3565C299.506 82.063 299.049 81.9162 298.453 81.9162C297.823 81.9162 297.323 82.0535 296.954 82.3281C296.589 82.6027 296.343 82.9271 296.215 83.3011L293.815 82.9602C294.004 82.2973 294.317 81.7434 294.752 81.2983C295.188 80.8485 295.721 80.5123 296.35 80.2898C296.98 80.0625 297.676 79.9489 298.438 79.9489C298.964 79.9489 299.487 80.0104 300.008 80.1335C300.529 80.2566 301.005 80.4602 301.436 80.7443C301.866 81.0237 302.212 81.4048 302.472 81.8878C302.738 82.3707 302.87 82.9744 302.87 83.6989V91H300.399V89.5014H300.313C300.157 89.8045 299.937 90.0885 299.653 90.3537C299.373 90.6141 299.021 90.8248 298.595 90.9858C298.173 91.142 297.678 91.2202 297.11 91.2202ZM297.778 89.331C298.294 89.331 298.741 89.2292 299.12 89.0256C299.499 88.8172 299.79 88.5426 299.994 88.2017C300.202 87.8608 300.306 87.4891 300.306 87.0866V85.8011C300.226 85.8674 300.088 85.929 299.894 85.9858C299.705 86.0426 299.492 86.0923 299.255 86.1349C299.018 86.1776 298.784 86.2154 298.552 86.2486C298.32 86.2817 298.119 86.3101 297.948 86.3338C297.565 86.3859 297.221 86.4711 296.918 86.5895C296.615 86.7079 296.376 86.8736 296.201 87.0866C296.026 87.295 295.938 87.5649 295.938 87.8963C295.938 88.3698 296.111 88.7273 296.457 88.9688C296.802 89.2102 297.243 89.331 297.778 89.331ZM308.826 84.608V91H306.255V76.4545H308.77V81.9446H308.897C309.153 81.3291 309.548 80.8437 310.084 80.4886C310.623 80.1288 311.31 79.9489 312.143 79.9489C312.901 79.9489 313.561 80.1075 314.125 80.4247C314.688 80.742 315.124 81.206 315.432 81.8168C315.744 82.4276 315.9 83.1733 315.9 84.054V91H313.329V84.4517C313.329 83.7178 313.14 83.1473 312.761 82.7401C312.387 82.3281 311.861 82.1222 311.184 82.1222C310.73 82.1222 310.323 82.2216 309.963 82.4205C309.608 82.6146 309.328 82.8963 309.125 83.2656C308.926 83.6349 308.826 84.0824 308.826 84.608ZM322.46 91.2202C321.769 91.2202 321.146 91.0971 320.592 90.8509C320.043 90.5999 319.607 90.2306 319.286 89.7429C318.968 89.2552 318.81 88.6539 318.81 87.9389C318.81 87.3234 318.923 86.8144 319.151 86.4119C319.378 86.0095 319.688 85.6875 320.081 85.446C320.474 85.2045 320.917 85.0223 321.409 84.8991C321.906 84.7713 322.42 84.679 322.95 84.6222C323.589 84.5559 324.108 84.4967 324.506 84.4446C324.903 84.3878 325.192 84.3026 325.372 84.1889C325.557 84.0705 325.649 83.8883 325.649 83.642V83.5994C325.649 83.0644 325.491 82.6501 325.173 82.3565C324.856 82.063 324.399 81.9162 323.803 81.9162C323.173 81.9162 322.673 82.0535 322.304 82.3281C321.939 82.6027 321.693 82.9271 321.565 83.3011L319.165 82.9602C319.354 82.2973 319.667 81.7434 320.102 81.2983C320.538 80.8485 321.071 80.5123 321.7 80.2898C322.33 80.0625 323.026 79.9489 323.788 79.9489C324.314 79.9489 324.837 80.0104 325.358 80.1335C325.879 80.2566 326.355 80.4602 326.786 80.7443C327.216 81.0237 327.562 81.4048 327.822 81.8878C328.088 82.3707 328.22 82.9744 328.22 83.6989V91H325.749V89.5014H325.663C325.507 89.8045 325.287 90.0885 325.003 90.3537C324.723 90.6141 324.371 90.8248 323.945 90.9858C323.523 91.142 323.028 91.2202 322.46 91.2202ZM323.128 89.331C323.644 89.331 324.091 89.2292 324.47 89.0256C324.849 88.8172 325.14 88.5426 325.344 88.2017C325.552 87.8608 325.656 87.4891 325.656 87.0866V85.8011C325.576 85.8674 325.438 85.929 325.244 85.9858C325.055 86.0426 324.842 86.0923 324.605 86.1349C324.368 86.1776 324.134 86.2154 323.902 86.2486C323.67 86.2817 323.469 86.3101 323.298 86.3338C322.915 86.3859 322.571 86.4711 322.268 86.5895C321.965 86.7079 321.726 86.8736 321.551 87.0866C321.376 87.295 321.288 87.5649 321.288 87.8963C321.288 88.3698 321.461 88.7273 321.807 88.9688C322.152 89.2102 322.593 89.331 323.128 89.331ZM331.605 91V80.0909H334.063V81.9446H334.191C334.418 81.3196 334.794 80.8319 335.32 80.4815C335.845 80.1264 336.473 79.9489 337.202 79.9489C337.941 79.9489 338.563 80.1288 339.07 80.4886C339.581 80.8437 339.941 81.3291 340.149 81.9446H340.263C340.505 81.3385 340.912 80.8556 341.485 80.4957C342.062 80.1312 342.746 79.9489 343.537 79.9489C344.541 79.9489 345.36 80.2661 345.995 80.9006C346.629 81.535 346.946 82.4607 346.946 83.6776V91H344.368V84.0753C344.368 83.3982 344.188 82.9034 343.828 82.5909C343.469 82.2737 343.028 82.1151 342.507 82.1151C341.887 82.1151 341.402 82.3092 341.051 82.6974C340.706 83.081 340.533 83.5805 340.533 84.196V91H338.012V83.9688C338.012 83.4053 337.841 82.9555 337.5 82.6193C337.164 82.2831 336.724 82.1151 336.179 82.1151C335.81 82.1151 335.474 82.2098 335.171 82.3991C334.868 82.5838 334.626 82.8466 334.446 83.1875C334.266 83.5237 334.176 83.9167 334.176 84.3665V91H331.605ZM350.355 91V80.0909H352.926V91H350.355ZM351.647 78.5426C351.24 78.5426 350.89 78.4077 350.596 78.1378C350.303 77.8632 350.156 77.5341 350.156 77.1506C350.156 76.7623 350.303 76.4332 350.596 76.1634C350.89 75.8887 351.24 75.7514 351.647 75.7514C352.059 75.7514 352.41 75.8887 352.698 76.1634C352.992 76.4332 353.139 76.7623 353.139 77.1506C353.139 77.5341 352.992 77.8632 352.698 78.1378C352.41 78.4077 352.059 78.5426 351.647 78.5426ZM364.474 87.5767L364.467 84.473H364.879L368.799 80.0909H371.804L366.981 85.4602H366.449L364.474 87.5767ZM362.13 91V76.4545H364.701V91H362.13ZM368.977 91L365.426 86.0355L367.159 84.2244L372.052 91H368.977ZM378.626 91.2131C377.561 91.2131 376.638 90.9787 375.857 90.5099C375.075 90.0412 374.469 89.3854 374.038 88.5426C373.612 87.6998 373.399 86.715 373.399 85.5881C373.399 84.4612 373.612 83.474 374.038 82.6264C374.469 81.7789 375.075 81.1207 375.857 80.652C376.638 80.1832 377.561 79.9489 378.626 79.9489C379.692 79.9489 380.615 80.1832 381.396 80.652C382.178 81.1207 382.781 81.7789 383.207 82.6264C383.638 83.474 383.854 84.4612 383.854 85.5881C383.854 86.715 383.638 87.6998 383.207 88.5426C382.781 89.3854 382.178 90.0412 381.396 90.5099C380.615 90.9787 379.692 91.2131 378.626 91.2131ZM378.641 89.1534C379.218 89.1534 379.701 88.9948 380.089 88.6776C380.478 88.3556 380.767 87.9247 380.956 87.3849C381.15 86.8452 381.247 86.2438 381.247 85.581C381.247 84.9134 381.15 84.3097 380.956 83.7699C380.767 83.2254 380.478 82.7921 380.089 82.4702C379.701 82.1482 379.218 81.9872 378.641 81.9872C378.049 81.9872 377.556 82.1482 377.163 82.4702C376.775 82.7921 376.484 83.2254 376.29 83.7699C376.1 84.3097 376.006 84.9134 376.006 85.581C376.006 86.2438 376.1 86.8452 376.29 87.3849C376.484 87.9247 376.775 88.3556 377.163 88.6776C377.556 88.9948 378.049 89.1534 378.641 89.1534ZM389.407 84.608V91H386.836V80.0909H389.293V81.9446H389.421C389.672 81.3338 390.072 80.8485 390.621 80.4886C391.175 80.1288 391.86 79.9489 392.674 79.9489C393.427 79.9489 394.083 80.1098 394.641 80.4318C395.205 80.7538 395.64 81.2202 395.948 81.831C396.261 82.4418 396.414 83.1828 396.41 84.054V91H393.839V84.4517C393.839 83.7225 393.649 83.152 393.271 82.7401C392.896 82.3281 392.378 82.1222 391.715 82.1222C391.265 82.1222 390.865 82.2216 390.515 82.4205C390.169 82.6146 389.897 82.8963 389.698 83.2656C389.504 83.6349 389.407 84.0824 389.407 84.608ZM408.446 82.9744L406.102 83.2301C406.035 82.9934 405.919 82.7708 405.754 82.5625C405.593 82.3542 405.375 82.1861 405.1 82.0582C404.826 81.9304 404.49 81.8665 404.092 81.8665C403.557 81.8665 403.107 81.9825 402.742 82.2145C402.383 82.4465 402.205 82.7472 402.21 83.1165C402.205 83.4337 402.321 83.6918 402.558 83.8906C402.799 84.0895 403.197 84.2528 403.751 84.3807L405.612 84.7784C406.644 85.0009 407.411 85.3537 407.913 85.8366C408.419 86.3196 408.675 86.9517 408.68 87.733C408.675 88.4195 408.474 89.0256 408.076 89.5511C407.683 90.072 407.136 90.4792 406.436 90.7727C405.735 91.0663 404.93 91.2131 404.021 91.2131C402.686 91.2131 401.611 90.9337 400.796 90.375C399.982 89.8116 399.497 89.0279 399.34 88.0241L401.848 87.7827C401.961 88.2751 402.203 88.6468 402.572 88.8977C402.941 89.1487 403.422 89.2741 404.014 89.2741C404.625 89.2741 405.115 89.1487 405.484 88.8977C405.858 88.6468 406.045 88.3366 406.045 87.9673C406.045 87.6548 405.924 87.3968 405.683 87.1932C405.446 86.9896 405.077 86.8333 404.575 86.7244L402.714 86.3338C401.668 86.116 400.893 85.7491 400.392 85.233C399.89 84.7121 399.641 84.054 399.646 83.2585C399.641 82.5862 399.823 82.0038 400.193 81.5114C400.567 81.0142 401.085 80.6307 401.748 80.3608C402.416 80.0862 403.185 79.9489 404.056 79.9489C405.335 79.9489 406.341 80.2211 407.075 80.7656C407.813 81.3101 408.27 82.0464 408.446 82.9744ZM416.429 91.2131C415.336 91.2131 414.391 90.9858 413.596 90.5312C412.805 90.072 412.197 89.4233 411.77 88.5852C411.344 87.7424 411.131 86.7505 411.131 85.6094C411.131 84.4872 411.344 83.5024 411.77 82.6548C412.201 81.8026 412.803 81.1397 413.574 80.6662C414.346 80.188 415.253 79.9489 416.295 79.9489C416.967 79.9489 417.601 80.0578 418.198 80.2756C418.799 80.4886 419.33 80.8201 419.789 81.2699C420.253 81.7197 420.617 82.2926 420.883 82.9886C421.148 83.6799 421.28 84.5038 421.28 85.4602V86.2486H412.339V84.5156H418.816C418.811 84.0232 418.705 83.5852 418.496 83.2017C418.288 82.8134 417.997 82.508 417.623 82.2855C417.253 82.063 416.822 81.9517 416.33 81.9517C415.804 81.9517 415.343 82.0795 414.945 82.3352C414.547 82.5862 414.237 82.9176 414.015 83.3295C413.797 83.7367 413.686 84.1842 413.681 84.6719V86.1847C413.681 86.8191 413.797 87.3636 414.029 87.8182C414.261 88.268 414.585 88.6136 415.002 88.8551C415.419 89.0919 415.906 89.2102 416.465 89.2102C416.839 89.2102 417.178 89.1581 417.481 89.054C417.784 88.9451 418.046 88.7865 418.269 88.5781C418.491 88.3698 418.66 88.1117 418.773 87.804L421.174 88.0739C421.022 88.7083 420.733 89.2623 420.307 89.7358C419.886 90.2045 419.346 90.5691 418.688 90.8295C418.03 91.0852 417.277 91.2131 416.429 91.2131ZM424.255 95.0909V80.0909H426.784V81.8949H426.933C427.066 81.6297 427.253 81.348 427.494 81.0497C427.736 80.7467 428.062 80.4886 428.474 80.2756C428.886 80.0578 429.412 79.9489 430.051 79.9489C430.894 79.9489 431.654 80.1643 432.331 80.5952C433.013 81.0213 433.552 81.6534 433.95 82.4915C434.352 83.3248 434.554 84.3475 434.554 85.5597C434.554 86.7576 434.357 87.7756 433.964 88.6136C433.571 89.4517 433.036 90.0909 432.359 90.5312C431.682 90.9716 430.915 91.1918 430.058 91.1918C429.433 91.1918 428.915 91.0876 428.503 90.8793C428.091 90.6709 427.759 90.42 427.508 90.1264C427.262 89.8281 427.07 89.5464 426.933 89.2812H426.826V95.0909H424.255ZM426.777 85.5455C426.777 86.2509 426.876 86.8688 427.075 87.3991C427.279 87.9295 427.57 88.3437 427.949 88.642C428.332 88.9356 428.796 89.0824 429.341 89.0824C429.909 89.0824 430.385 88.9309 430.768 88.6278C431.152 88.3201 431.441 87.901 431.635 87.3707C431.834 86.8357 431.933 86.2273 431.933 85.5455C431.933 84.8684 431.836 84.267 431.642 83.7415C431.448 83.2159 431.159 82.804 430.775 82.5057C430.392 82.2074 429.914 82.0582 429.341 82.0582C428.791 82.0582 428.325 82.2027 427.941 82.4915C427.558 82.7803 427.267 83.1851 427.068 83.706C426.874 84.2268 426.777 84.84 426.777 85.5455ZM75.6648 111.577L75.6577 108.473H76.0696L79.9901 104.091H82.9943L78.1719 109.46H77.6392L75.6648 111.577ZM73.321 115V100.455H75.892V115H73.321ZM80.1676 115L76.6165 110.036L78.3494 108.224L83.2429 115H80.1676ZM89.8881 115.213C88.7943 115.213 87.8497 114.986 87.0543 114.531C86.2635 114.072 85.6551 113.423 85.229 112.585C84.8028 111.742 84.5898 110.75 84.5898 109.609C84.5898 108.487 84.8028 107.502 85.229 106.655C85.6598 105.803 86.2612 105.14 87.033 104.666C87.8047 104.188 88.7115 103.949 89.7531 103.949C90.4255 103.949 91.0599 104.058 91.6565 104.276C92.2579 104.489 92.7882 104.82 93.2474 105.27C93.7115 105.72 94.076 106.293 94.3412 106.989C94.6063 107.68 94.7389 108.504 94.7389 109.46V110.249H85.7972V108.516H92.2744C92.2697 108.023 92.1632 107.585 91.9548 107.202C91.7465 106.813 91.4553 106.508 91.0813 106.286C90.7119 106.063 90.2811 105.952 89.7886 105.952C89.2631 105.952 88.8014 106.08 88.4037 106.335C88.006 106.586 87.6958 106.918 87.4733 107.33C87.2555 107.737 87.1442 108.184 87.1395 108.672V110.185C87.1395 110.819 87.2555 111.364 87.4875 111.818C87.7195 112.268 88.0438 112.614 88.4605 112.855C88.8772 113.092 89.3649 113.21 89.9236 113.21C90.2976 113.21 90.6362 113.158 90.9392 113.054C91.2422 112.945 91.505 112.786 91.7276 112.578C91.9501 112.37 92.1182 112.112 92.2318 111.804L94.6324 112.074C94.4809 112.708 94.192 113.262 93.7659 113.736C93.3445 114.205 92.8047 114.569 92.1466 114.83C91.4884 115.085 90.7356 115.213 89.8881 115.213ZM100.058 111.577L100.051 108.473H100.463L104.383 104.091H107.387L102.565 109.46H102.032L100.058 111.577ZM97.714 115V100.455H100.285V115H97.714ZM104.561 115L101.009 110.036L102.742 108.224L107.636 115H104.561ZM114.281 115.213C113.187 115.213 112.243 114.986 111.447 114.531C110.657 114.072 110.048 113.423 109.622 112.585C109.196 111.742 108.983 110.75 108.983 109.609C108.983 108.487 109.196 107.502 109.622 106.655C110.053 105.803 110.654 105.14 111.426 104.666C112.198 104.188 113.104 103.949 114.146 103.949C114.818 103.949 115.453 104.058 116.05 104.276C116.651 104.489 117.181 104.82 117.64 105.27C118.104 105.72 118.469 106.293 118.734 106.989C118.999 107.68 119.132 108.504 119.132 109.46V110.249H110.19V108.516H116.667C116.663 108.023 116.556 107.585 116.348 107.202C116.139 106.813 115.848 106.508 115.474 106.286C115.105 106.063 114.674 105.952 114.182 105.952C113.656 105.952 113.194 106.08 112.797 106.335C112.399 106.586 112.089 106.918 111.866 107.33C111.648 107.737 111.537 108.184 111.532 108.672V110.185C111.532 110.819 111.648 111.364 111.88 111.818C112.112 112.268 112.437 112.614 112.853 112.855C113.27 113.092 113.758 113.21 114.317 113.21C114.691 113.21 115.029 113.158 115.332 113.054C115.635 112.945 115.898 112.786 116.121 112.578C116.343 112.37 116.511 112.112 116.625 111.804L119.025 112.074C118.874 112.708 118.585 113.262 118.159 113.736C117.737 114.205 117.198 114.569 116.54 114.83C115.881 115.085 115.129 115.213 114.281 115.213ZM124.451 111.577L124.444 108.473H124.856L128.776 104.091H131.78L126.958 109.46H126.425L124.451 111.577ZM122.107 115V100.455H124.678V115H122.107ZM128.954 115L125.402 110.036L127.135 108.224L132.029 115H128.954ZM137.433 115.22C136.742 115.22 136.119 115.097 135.565 114.851C135.016 114.6 134.58 114.231 134.258 113.743C133.941 113.255 133.782 112.654 133.782 111.939C133.782 111.323 133.896 110.814 134.123 110.412C134.35 110.009 134.661 109.688 135.054 109.446C135.447 109.205 135.889 109.022 136.382 108.899C136.879 108.771 137.393 108.679 137.923 108.622C138.562 108.556 139.081 108.497 139.478 108.445C139.876 108.388 140.165 108.303 140.345 108.189C140.529 108.071 140.622 107.888 140.622 107.642V107.599C140.622 107.064 140.463 106.65 140.146 106.357C139.829 106.063 139.372 105.916 138.775 105.916C138.145 105.916 137.646 106.054 137.277 106.328C136.912 106.603 136.666 106.927 136.538 107.301L134.137 106.96C134.327 106.297 134.639 105.743 135.075 105.298C135.511 104.848 136.043 104.512 136.673 104.29C137.303 104.062 137.999 103.949 138.761 103.949C139.287 103.949 139.81 104.01 140.331 104.134C140.851 104.257 141.327 104.46 141.758 104.744C142.189 105.024 142.535 105.405 142.795 105.888C143.06 106.371 143.193 106.974 143.193 107.699V115H140.721V113.501H140.636C140.48 113.804 140.26 114.089 139.975 114.354C139.696 114.614 139.343 114.825 138.917 114.986C138.496 115.142 138.001 115.22 137.433 115.22ZM138.1 113.331C138.617 113.331 139.064 113.229 139.443 113.026C139.822 112.817 140.113 112.543 140.316 112.202C140.525 111.861 140.629 111.489 140.629 111.087V109.801C140.548 109.867 140.411 109.929 140.217 109.986C140.028 110.043 139.815 110.092 139.578 110.135C139.341 110.178 139.107 110.215 138.875 110.249C138.643 110.282 138.441 110.31 138.271 110.334C137.887 110.386 137.544 110.471 137.241 110.589C136.938 110.708 136.699 110.874 136.524 111.087C136.349 111.295 136.261 111.565 136.261 111.896C136.261 112.37 136.434 112.727 136.779 112.969C137.125 113.21 137.565 113.331 138.1 113.331ZM149.149 100.455V115H146.578V100.455H149.149ZM155.732 115.22C155.041 115.22 154.418 115.097 153.864 114.851C153.315 114.6 152.879 114.231 152.557 113.743C152.24 113.255 152.082 112.654 152.082 111.939C152.082 111.323 152.195 110.814 152.422 110.412C152.65 110.009 152.96 109.688 153.353 109.446C153.746 109.205 154.189 109.022 154.681 108.899C155.178 108.771 155.692 108.679 156.222 108.622C156.861 108.556 157.38 108.497 157.778 108.445C158.175 108.388 158.464 108.303 158.644 108.189C158.829 108.071 158.921 107.888 158.921 107.642V107.599C158.921 107.064 158.762 106.65 158.445 106.357C158.128 106.063 157.671 105.916 157.074 105.916C156.445 105.916 155.945 106.054 155.576 106.328C155.211 106.603 154.965 106.927 154.837 107.301L152.437 106.96C152.626 106.297 152.939 105.743 153.374 105.298C153.81 104.848 154.342 104.512 154.972 104.29C155.602 104.062 156.298 103.949 157.06 103.949C157.586 103.949 158.109 104.01 158.63 104.134C159.151 104.257 159.627 104.46 160.057 104.744C160.488 105.024 160.834 105.405 161.094 105.888C161.359 106.371 161.492 106.974 161.492 107.699V115H159.02V113.501H158.935C158.779 113.804 158.559 114.089 158.275 114.354C157.995 114.614 157.643 114.825 157.216 114.986C156.795 115.142 156.3 115.22 155.732 115.22ZM156.4 113.331C156.916 113.331 157.363 113.229 157.742 113.026C158.121 112.817 158.412 112.543 158.616 112.202C158.824 111.861 158.928 111.489 158.928 111.087V109.801C158.848 109.867 158.71 109.929 158.516 109.986C158.327 110.043 158.114 110.092 157.877 110.135C157.64 110.178 157.406 110.215 157.174 110.249C156.942 110.282 156.741 110.31 156.57 110.334C156.187 110.386 155.843 110.471 155.54 110.589C155.237 110.708 154.998 110.874 154.823 111.087C154.648 111.295 154.56 111.565 154.56 111.896C154.56 112.37 154.733 112.727 155.079 112.969C155.424 113.21 155.865 113.331 156.4 113.331ZM167.448 108.608V115H164.877V104.091H167.335V105.945H167.463C167.713 105.334 168.114 104.848 168.663 104.489C169.217 104.129 169.901 103.949 170.715 103.949C171.468 103.949 172.124 104.11 172.683 104.432C173.246 104.754 173.682 105.22 173.989 105.831C174.302 106.442 174.456 107.183 174.451 108.054V115H171.88V108.452C171.88 107.723 171.691 107.152 171.312 106.74C170.938 106.328 170.419 106.122 169.757 106.122C169.307 106.122 168.907 106.222 168.556 106.42C168.211 106.615 167.938 106.896 167.739 107.266C167.545 107.635 167.448 108.082 167.448 108.608ZM188.455 115.213C187.362 115.213 186.417 114.986 185.621 114.531C184.831 114.072 184.222 113.423 183.796 112.585C183.37 111.742 183.157 110.75 183.157 109.609C183.157 108.487 183.37 107.502 183.796 106.655C184.227 105.803 184.828 105.14 185.6 104.666C186.372 104.188 187.279 103.949 188.32 103.949C188.993 103.949 189.627 104.058 190.224 104.276C190.825 104.489 191.355 104.82 191.815 105.27C192.279 105.72 192.643 106.293 192.908 106.989C193.174 107.68 193.306 108.504 193.306 109.46V110.249H184.364V108.516H190.842C190.837 108.023 190.73 107.585 190.522 107.202C190.314 106.813 190.022 106.508 189.648 106.286C189.279 106.063 188.848 105.952 188.356 105.952C187.83 105.952 187.369 106.08 186.971 106.335C186.573 106.586 186.263 106.918 186.04 107.33C185.823 107.737 185.711 108.184 185.707 108.672V110.185C185.707 110.819 185.823 111.364 186.055 111.818C186.287 112.268 186.611 112.614 187.028 112.855C187.444 113.092 187.932 113.21 188.491 113.21C188.865 113.21 189.203 113.158 189.506 113.054C189.809 112.945 190.072 112.786 190.295 112.578C190.517 112.37 190.685 112.112 190.799 111.804L193.2 112.074C193.048 112.708 192.759 113.262 192.333 113.736C191.912 114.205 191.372 114.569 190.714 114.83C190.056 115.085 189.303 115.213 188.455 115.213ZM198.852 108.608V115H196.281V104.091H198.739V105.945H198.866C199.117 105.334 199.517 104.848 200.067 104.489C200.621 104.129 201.305 103.949 202.119 103.949C202.872 103.949 203.528 104.11 204.087 104.432C204.65 104.754 205.086 105.22 205.393 105.831C205.706 106.442 205.86 107.183 205.855 108.054V115H203.284V108.452C203.284 107.723 203.095 107.152 202.716 106.74C202.342 106.328 201.823 106.122 201.16 106.122C200.711 106.122 200.311 106.222 199.96 106.42C199.615 106.615 199.342 106.896 199.143 107.266C198.949 107.635 198.852 108.082 198.852 108.608ZM214.098 115.213C213.004 115.213 212.06 114.986 211.264 114.531C210.474 114.072 209.865 113.423 209.439 112.585C209.013 111.742 208.8 110.75 208.8 109.609C208.8 108.487 209.013 107.502 209.439 106.655C209.87 105.803 210.471 105.14 211.243 104.666C212.015 104.188 212.922 103.949 213.963 103.949C214.636 103.949 215.27 104.058 215.867 104.276C216.468 104.489 216.998 104.82 217.458 105.27C217.922 105.72 218.286 106.293 218.551 106.989C218.817 107.68 218.949 108.504 218.949 109.46V110.249H210.007V108.516H216.485C216.48 108.023 216.373 107.585 216.165 107.202C215.957 106.813 215.665 106.508 215.291 106.286C214.922 106.063 214.491 105.952 213.999 105.952C213.473 105.952 213.012 106.08 212.614 106.335C212.216 106.586 211.906 106.918 211.683 107.33C211.466 107.737 211.354 108.184 211.35 108.672V110.185C211.35 110.819 211.466 111.364 211.698 111.818C211.93 112.268 212.254 112.614 212.671 112.855C213.087 113.092 213.575 113.21 214.134 113.21C214.508 113.21 214.846 113.158 215.149 113.054C215.452 112.945 215.715 112.786 215.938 112.578C216.16 112.37 216.328 112.112 216.442 111.804L218.843 112.074C218.691 112.708 218.402 113.262 217.976 113.736C217.555 114.205 217.015 114.569 216.357 114.83C215.699 115.085 214.946 115.213 214.098 115.213ZM221.924 115V104.091H224.417V105.909H224.531C224.73 105.279 225.07 104.794 225.553 104.453C226.041 104.107 226.597 103.935 227.222 103.935C227.364 103.935 227.523 103.942 227.698 103.956C227.878 103.965 228.027 103.982 228.146 104.006V106.371C228.037 106.333 227.864 106.3 227.627 106.271C227.395 106.238 227.17 106.222 226.953 106.222C226.484 106.222 226.062 106.323 225.688 106.527C225.319 106.726 225.028 107.003 224.815 107.358C224.602 107.713 224.495 108.123 224.495 108.587V115H221.924ZM234.949 119.318C234.026 119.318 233.233 119.193 232.57 118.942C231.907 118.696 231.374 118.364 230.972 117.947C230.569 117.531 230.29 117.069 230.134 116.562L232.449 116.001C232.553 116.214 232.705 116.425 232.903 116.634C233.102 116.847 233.37 117.022 233.706 117.159C234.047 117.301 234.475 117.372 234.992 117.372C235.721 117.372 236.324 117.195 236.803 116.839C237.281 116.489 237.52 115.911 237.52 115.107V113.04H237.392C237.26 113.305 237.065 113.577 236.81 113.857C236.559 114.136 236.225 114.37 235.808 114.56C235.396 114.749 234.878 114.844 234.253 114.844C233.415 114.844 232.655 114.647 231.973 114.254C231.296 113.857 230.756 113.265 230.354 112.479C229.956 111.688 229.757 110.698 229.757 109.51C229.757 108.312 229.956 107.301 230.354 106.477C230.756 105.649 231.298 105.021 231.98 104.595C232.662 104.164 233.422 103.949 234.26 103.949C234.899 103.949 235.425 104.058 235.837 104.276C236.253 104.489 236.585 104.747 236.831 105.05C237.077 105.348 237.264 105.63 237.392 105.895H237.534V104.091H240.07V115.178C240.07 116.11 239.847 116.882 239.402 117.493C238.957 118.104 238.349 118.561 237.577 118.864C236.805 119.167 235.929 119.318 234.949 119.318ZM234.97 112.827C235.515 112.827 235.979 112.694 236.362 112.429C236.746 112.164 237.037 111.783 237.236 111.286C237.435 110.788 237.534 110.192 237.534 109.496C237.534 108.809 237.435 108.208 237.236 107.692C237.042 107.176 236.753 106.776 236.369 106.491C235.991 106.203 235.524 106.058 234.97 106.058C234.397 106.058 233.919 106.207 233.536 106.506C233.152 106.804 232.863 107.214 232.669 107.734C232.475 108.25 232.378 108.838 232.378 109.496C232.378 110.163 232.475 110.748 232.669 111.25C232.868 111.747 233.159 112.135 233.543 112.415C233.931 112.689 234.407 112.827 234.97 112.827ZM243.505 115V104.091H246.076V115H243.505ZM244.797 102.543C244.39 102.543 244.04 102.408 243.746 102.138C243.453 101.863 243.306 101.534 243.306 101.151C243.306 100.762 243.453 100.433 243.746 100.163C244.04 99.8887 244.39 99.7514 244.797 99.7514C245.209 99.7514 245.56 99.8887 245.848 100.163C246.142 100.433 246.289 100.762 246.289 101.151C246.289 101.534 246.142 101.863 245.848 102.138C245.56 102.408 245.209 102.543 244.797 102.543ZM73.2926 163V161.097L78.3423 156.146C78.8253 155.659 79.2277 155.225 79.5497 154.847C79.8717 154.468 80.1132 154.101 80.2741 153.746C80.4351 153.391 80.5156 153.012 80.5156 152.609C80.5156 152.15 80.4115 151.757 80.2031 151.43C79.9948 151.099 79.7083 150.843 79.3438 150.663C78.9792 150.483 78.5649 150.393 78.1009 150.393C77.6226 150.393 77.2036 150.493 76.8438 150.692C76.4839 150.886 76.2045 151.163 76.0057 151.523C75.8116 151.883 75.7145 152.311 75.7145 152.808H73.2074C73.2074 151.885 73.4181 151.082 73.8395 150.401C74.2609 149.719 74.8409 149.191 75.5795 148.817C76.3229 148.443 77.1752 148.256 78.1364 148.256C79.1117 148.256 79.9688 148.438 80.7074 148.803C81.446 149.167 82.0189 149.667 82.4261 150.301C82.8381 150.936 83.044 151.66 83.044 152.474C83.044 153.019 82.9399 153.554 82.7315 154.08C82.5232 154.605 82.1563 155.187 81.6307 155.827C81.1098 156.466 80.3783 157.24 79.4361 158.149L76.929 160.699V160.798H83.2642V163H73.2926ZM88.1267 163.156C87.6958 163.156 87.3265 163.005 87.0188 162.702C86.711 162.399 86.5595 162.029 86.5642 161.594C86.5595 161.168 86.711 160.803 87.0188 160.5C87.3265 160.197 87.6958 160.045 88.1267 160.045C88.5434 160.045 88.9056 160.197 89.2134 160.5C89.5259 160.803 89.6845 161.168 89.6892 161.594C89.6845 161.883 89.6087 162.145 89.4619 162.382C89.3199 162.619 89.1305 162.808 88.8938 162.95C88.6617 163.088 88.4061 163.156 88.1267 163.156ZM106.474 152.453C106.408 151.833 106.128 151.35 105.636 151.004C105.148 150.659 104.514 150.486 103.732 150.486C103.183 150.486 102.712 150.569 102.319 150.734C101.926 150.9 101.625 151.125 101.417 151.409C101.209 151.693 101.102 152.018 101.097 152.382C101.097 152.685 101.166 152.948 101.303 153.17C101.445 153.393 101.637 153.582 101.879 153.739C102.12 153.89 102.388 154.018 102.681 154.122C102.975 154.226 103.271 154.314 103.569 154.385L104.933 154.726C105.482 154.854 106.01 155.027 106.516 155.244C107.028 155.462 107.485 155.737 107.887 156.068C108.294 156.4 108.616 156.8 108.853 157.268C109.09 157.737 109.208 158.286 109.208 158.916C109.208 159.768 108.99 160.519 108.555 161.168C108.119 161.812 107.489 162.316 106.666 162.68C105.846 163.04 104.855 163.22 103.69 163.22C102.558 163.22 101.576 163.045 100.742 162.695C99.9137 162.344 99.2651 161.833 98.7963 161.161C98.3323 160.488 98.0813 159.669 98.0435 158.703H100.636C100.674 159.21 100.83 159.631 101.105 159.967C101.379 160.304 101.737 160.554 102.177 160.72C102.622 160.886 103.119 160.969 103.668 160.969C104.241 160.969 104.743 160.884 105.174 160.713C105.61 160.538 105.951 160.296 106.197 159.989C106.443 159.676 106.569 159.312 106.573 158.895C106.569 158.516 106.457 158.204 106.239 157.957C106.022 157.706 105.716 157.498 105.323 157.332C104.935 157.162 104.48 157.01 103.96 156.878L102.305 156.452C101.107 156.144 100.16 155.678 99.4639 155.053C98.7726 154.423 98.427 153.587 98.427 152.545C98.427 151.688 98.659 150.938 99.123 150.294C99.5918 149.65 100.229 149.151 101.034 148.795C101.838 148.436 102.75 148.256 103.768 148.256C104.8 148.256 105.704 148.436 106.481 148.795C107.262 149.151 107.875 149.645 108.32 150.28C108.766 150.91 108.995 151.634 109.009 152.453H106.474ZM112.244 163V152.091H114.815V163H112.244ZM113.536 150.543C113.129 150.543 112.779 150.408 112.485 150.138C112.192 149.863 112.045 149.534 112.045 149.151C112.045 148.762 112.192 148.433 112.485 148.163C112.779 147.889 113.129 147.751 113.536 147.751C113.948 147.751 114.299 147.889 114.587 148.163C114.881 148.433 115.028 148.762 115.028 149.151C115.028 149.534 114.881 149.863 114.587 150.138C114.299 150.408 113.948 150.543 113.536 150.543ZM126.881 154.974L124.537 155.23C124.471 154.993 124.355 154.771 124.189 154.562C124.028 154.354 123.81 154.186 123.536 154.058C123.261 153.93 122.925 153.866 122.527 153.866C121.992 153.866 121.542 153.982 121.178 154.214C120.818 154.446 120.64 154.747 120.645 155.116C120.64 155.434 120.756 155.692 120.993 155.891C121.234 156.089 121.632 156.253 122.186 156.381L124.047 156.778C125.079 157.001 125.846 157.354 126.348 157.837C126.855 158.32 127.11 158.952 127.115 159.733C127.11 160.42 126.909 161.026 126.511 161.551C126.118 162.072 125.571 162.479 124.871 162.773C124.17 163.066 123.365 163.213 122.456 163.213C121.121 163.213 120.046 162.934 119.232 162.375C118.417 161.812 117.932 161.028 117.776 160.024L120.283 159.783C120.396 160.275 120.638 160.647 121.007 160.898C121.376 161.149 121.857 161.274 122.449 161.274C123.06 161.274 123.55 161.149 123.919 160.898C124.293 160.647 124.48 160.337 124.48 159.967C124.48 159.655 124.359 159.397 124.118 159.193C123.881 158.99 123.512 158.833 123.01 158.724L121.149 158.334C120.103 158.116 119.329 157.749 118.827 157.233C118.325 156.712 118.076 156.054 118.081 155.259C118.076 154.586 118.259 154.004 118.628 153.511C119.002 153.014 119.52 152.631 120.183 152.361C120.851 152.086 121.62 151.949 122.491 151.949C123.77 151.949 124.776 152.221 125.51 152.766C126.249 153.31 126.705 154.046 126.881 154.974ZM132.287 163L129.204 152.091H131.825L133.742 159.761H133.842L135.802 152.091H138.394L140.355 159.719H140.461L142.35 152.091H144.978L141.889 163H139.211L137.166 155.628H137.017L134.971 163H132.287ZM150.713 163.22C150.021 163.22 149.399 163.097 148.845 162.851C148.295 162.6 147.86 162.231 147.538 161.743C147.221 161.255 147.062 160.654 147.062 159.939C147.062 159.323 147.176 158.814 147.403 158.412C147.63 158.009 147.94 157.688 148.333 157.446C148.726 157.205 149.169 157.022 149.661 156.899C150.159 156.771 150.672 156.679 151.203 156.622C151.842 156.556 152.36 156.497 152.758 156.445C153.156 156.388 153.445 156.303 153.625 156.189C153.809 156.071 153.901 155.888 153.901 155.642V155.599C153.901 155.064 153.743 154.65 153.426 154.357C153.108 154.063 152.651 153.916 152.055 153.916C151.425 153.916 150.926 154.054 150.556 154.328C150.192 154.603 149.946 154.927 149.818 155.301L147.417 154.96C147.607 154.297 147.919 153.743 148.355 153.298C148.79 152.848 149.323 152.512 149.953 152.29C150.582 152.062 151.278 151.949 152.041 151.949C152.566 151.949 153.089 152.01 153.61 152.134C154.131 152.257 154.607 152.46 155.038 152.744C155.469 153.024 155.814 153.405 156.075 153.888C156.34 154.371 156.473 154.974 156.473 155.699V163H154.001V161.501H153.916C153.759 161.804 153.539 162.089 153.255 162.354C152.976 162.614 152.623 162.825 152.197 162.986C151.776 163.142 151.281 163.22 150.713 163.22ZM151.38 161.331C151.896 161.331 152.344 161.229 152.723 161.026C153.101 160.817 153.392 160.543 153.596 160.202C153.804 159.861 153.909 159.489 153.909 159.087V157.801C153.828 157.867 153.691 157.929 153.497 157.986C153.307 158.043 153.094 158.092 152.857 158.135C152.621 158.178 152.386 158.215 152.154 158.249C151.922 158.282 151.721 158.31 151.551 158.334C151.167 158.386 150.824 158.471 150.521 158.589C150.218 158.708 149.979 158.874 149.803 159.087C149.628 159.295 149.541 159.565 149.541 159.896C149.541 160.37 149.714 160.727 150.059 160.969C150.405 161.21 150.845 161.331 151.38 161.331ZM165.619 163V152.091H168.076V153.945H168.204C168.431 153.32 168.808 152.832 169.333 152.482C169.859 152.126 170.486 151.949 171.215 151.949C171.954 151.949 172.577 152.129 173.083 152.489C173.595 152.844 173.954 153.329 174.163 153.945H174.276C174.518 153.339 174.925 152.856 175.498 152.496C176.076 152.131 176.76 151.949 177.55 151.949C178.554 151.949 179.373 152.266 180.008 152.901C180.642 153.535 180.96 154.461 180.96 155.678V163H178.381V156.075C178.381 155.398 178.202 154.903 177.842 154.591C177.482 154.274 177.041 154.115 176.521 154.115C175.9 154.115 175.415 154.309 175.065 154.697C174.719 155.081 174.546 155.58 174.546 156.196V163H172.025V155.969C172.025 155.405 171.854 154.955 171.514 154.619C171.177 154.283 170.737 154.115 170.193 154.115C169.823 154.115 169.487 154.21 169.184 154.399C168.881 154.584 168.64 154.847 168.46 155.188C168.28 155.524 168.19 155.917 168.19 156.366V163H165.619ZM187.507 163.22C186.816 163.22 186.193 163.097 185.639 162.851C185.09 162.6 184.654 162.231 184.332 161.743C184.015 161.255 183.857 160.654 183.857 159.939C183.857 159.323 183.97 158.814 184.197 158.412C184.425 158.009 184.735 157.688 185.128 157.446C185.521 157.205 185.964 157.022 186.456 156.899C186.953 156.771 187.467 156.679 187.997 156.622C188.636 156.556 189.155 156.497 189.553 156.445C189.95 156.388 190.239 156.303 190.419 156.189C190.604 156.071 190.696 155.888 190.696 155.642V155.599C190.696 155.064 190.537 154.65 190.22 154.357C189.903 154.063 189.446 153.916 188.849 153.916C188.22 153.916 187.72 154.054 187.351 154.328C186.986 154.603 186.74 154.927 186.612 155.301L184.212 154.96C184.401 154.297 184.714 153.743 185.149 153.298C185.585 152.848 186.117 152.512 186.747 152.29C187.377 152.062 188.073 151.949 188.835 151.949C189.361 151.949 189.884 152.01 190.405 152.134C190.926 152.257 191.402 152.46 191.832 152.744C192.263 153.024 192.609 153.405 192.869 153.888C193.134 154.371 193.267 154.974 193.267 155.699V163H190.795V161.501H190.71C190.554 161.804 190.334 162.089 190.05 162.354C189.77 162.614 189.418 162.825 188.991 162.986C188.57 163.142 188.075 163.22 187.507 163.22ZM188.175 161.331C188.691 161.331 189.138 161.229 189.517 161.026C189.896 160.817 190.187 160.543 190.391 160.202C190.599 159.861 190.703 159.489 190.703 159.087V157.801C190.623 157.867 190.485 157.929 190.291 157.986C190.102 158.043 189.889 158.092 189.652 158.135C189.415 158.178 189.181 158.215 188.949 158.249C188.717 158.282 188.516 158.31 188.345 158.334C187.962 158.386 187.618 158.471 187.315 158.589C187.012 158.708 186.773 158.874 186.598 159.087C186.423 159.295 186.335 159.565 186.335 159.896C186.335 160.37 186.508 160.727 186.854 160.969C187.199 161.21 187.64 161.331 188.175 161.331ZM196.652 163V152.091H199.11V153.945H199.238C199.465 153.32 199.841 152.832 200.367 152.482C200.892 152.126 201.52 151.949 202.249 151.949C202.988 151.949 203.61 152.129 204.117 152.489C204.628 152.844 204.988 153.329 205.196 153.945H205.31C205.551 153.339 205.959 152.856 206.532 152.496C207.109 152.131 207.793 151.949 208.584 151.949C209.588 151.949 210.407 152.266 211.041 152.901C211.676 153.535 211.993 154.461 211.993 155.678V163H209.415V156.075C209.415 155.398 209.235 154.903 208.875 154.591C208.515 154.274 208.075 154.115 207.554 154.115C206.934 154.115 206.449 154.309 206.098 154.697C205.753 155.081 205.58 155.58 205.58 156.196V163H203.059V155.969C203.059 155.405 202.888 154.955 202.547 154.619C202.211 154.283 201.771 154.115 201.226 154.115C200.857 154.115 200.521 154.21 200.218 154.399C199.915 154.584 199.673 154.847 199.493 155.188C199.313 155.524 199.223 155.917 199.223 156.366V163H196.652ZM215.401 167.091V152.091H217.93V153.895H218.079C218.212 153.63 218.399 153.348 218.64 153.05C218.882 152.747 219.208 152.489 219.62 152.276C220.032 152.058 220.558 151.949 221.197 151.949C222.04 151.949 222.8 152.164 223.477 152.595C224.159 153.021 224.698 153.653 225.096 154.491C225.499 155.325 225.7 156.348 225.7 157.56C225.7 158.758 225.503 159.776 225.11 160.614C224.717 161.452 224.182 162.091 223.505 162.531C222.828 162.972 222.061 163.192 221.204 163.192C220.579 163.192 220.061 163.088 219.649 162.879C219.237 162.671 218.905 162.42 218.654 162.126C218.408 161.828 218.216 161.546 218.079 161.281H217.973V167.091H215.401ZM217.923 157.545C217.923 158.251 218.022 158.869 218.221 159.399C218.425 159.929 218.716 160.344 219.095 160.642C219.478 160.936 219.942 161.082 220.487 161.082C221.055 161.082 221.531 160.931 221.914 160.628C222.298 160.32 222.587 159.901 222.781 159.371C222.98 158.836 223.079 158.227 223.079 157.545C223.079 156.868 222.982 156.267 222.788 155.741C222.594 155.216 222.305 154.804 221.921 154.506C221.538 154.207 221.06 154.058 220.487 154.058C219.937 154.058 219.471 154.203 219.088 154.491C218.704 154.78 218.413 155.185 218.214 155.706C218.02 156.227 217.923 156.84 217.923 157.545ZM235.655 158.412V152.091H238.226V163H235.733V161.061H235.619C235.373 161.672 234.968 162.171 234.405 162.56C233.846 162.948 233.157 163.142 232.338 163.142C231.623 163.142 230.991 162.983 230.442 162.666C229.897 162.344 229.471 161.878 229.163 161.267C228.855 160.652 228.701 159.908 228.701 159.037V152.091H231.273V158.639C231.273 159.33 231.462 159.88 231.841 160.287C232.219 160.694 232.717 160.898 233.332 160.898C233.711 160.898 234.078 160.805 234.433 160.621C234.788 160.436 235.079 160.161 235.307 159.797C235.539 159.428 235.655 158.966 235.655 158.412ZM247.43 163V152.091H249.888V153.945H250.016C250.243 153.32 250.619 152.832 251.145 152.482C251.67 152.126 252.298 151.949 253.027 151.949C253.766 151.949 254.388 152.129 254.895 152.489C255.406 152.844 255.766 153.329 255.974 153.945H256.088C256.33 153.339 256.737 152.856 257.31 152.496C257.887 152.131 258.571 151.949 259.362 151.949C260.366 151.949 261.185 152.266 261.82 152.901C262.454 153.535 262.771 154.461 262.771 155.678V163H260.193V156.075C260.193 155.398 260.013 154.903 259.653 154.591C259.294 154.274 258.853 154.115 258.332 154.115C257.712 154.115 257.227 154.309 256.876 154.697C256.531 155.081 256.358 155.58 256.358 156.196V163H253.837V155.969C253.837 155.405 253.666 154.955 253.325 154.619C252.989 154.283 252.549 154.115 252.004 154.115C251.635 154.115 251.299 154.21 250.996 154.399C250.693 154.584 250.451 154.847 250.271 155.188C250.091 155.524 250.001 155.917 250.001 156.366V163H247.43ZM271.009 163.213C269.915 163.213 268.971 162.986 268.175 162.531C267.385 162.072 266.776 161.423 266.35 160.585C265.924 159.742 265.711 158.75 265.711 157.609C265.711 156.487 265.924 155.502 266.35 154.655C266.781 153.803 267.382 153.14 268.154 152.666C268.926 152.188 269.833 151.949 270.874 151.949C271.547 151.949 272.181 152.058 272.778 152.276C273.379 152.489 273.909 152.82 274.369 153.27C274.833 153.72 275.197 154.293 275.462 154.989C275.727 155.68 275.86 156.504 275.86 157.46V158.249H266.918V156.516H273.396C273.391 156.023 273.284 155.585 273.076 155.202C272.868 154.813 272.576 154.508 272.202 154.286C271.833 154.063 271.402 153.952 270.91 153.952C270.384 153.952 269.923 154.08 269.525 154.335C269.127 154.586 268.817 154.918 268.594 155.33C268.377 155.737 268.265 156.184 268.261 156.672V158.185C268.261 158.819 268.377 159.364 268.609 159.818C268.841 160.268 269.165 160.614 269.582 160.855C269.998 161.092 270.486 161.21 271.045 161.21C271.419 161.21 271.757 161.158 272.06 161.054C272.363 160.945 272.626 160.786 272.849 160.578C273.071 160.37 273.239 160.112 273.353 159.804L275.753 160.074C275.602 160.708 275.313 161.262 274.887 161.736C274.466 162.205 273.926 162.569 273.268 162.83C272.61 163.085 271.857 163.213 271.009 163.213ZM281.406 156.608V163H278.835V152.091H281.292V153.945H281.42C281.671 153.334 282.071 152.848 282.621 152.489C283.175 152.129 283.859 151.949 284.673 151.949C285.426 151.949 286.082 152.11 286.64 152.432C287.204 152.754 287.64 153.22 287.947 153.831C288.26 154.442 288.414 155.183 288.409 156.054V163H285.838V156.452C285.838 155.723 285.649 155.152 285.27 154.74C284.896 154.328 284.377 154.122 283.714 154.122C283.265 154.122 282.864 154.222 282.514 154.42C282.168 154.615 281.896 154.896 281.697 155.266C281.503 155.635 281.406 156.082 281.406 156.608ZM296.567 167.318C295.644 167.318 294.851 167.193 294.188 166.942C293.525 166.696 292.992 166.364 292.59 165.947C292.187 165.531 291.908 165.069 291.752 164.562L294.067 164.001C294.171 164.214 294.323 164.425 294.521 164.634C294.72 164.847 294.988 165.022 295.324 165.159C295.665 165.301 296.093 165.372 296.61 165.372C297.339 165.372 297.942 165.195 298.421 164.839C298.899 164.489 299.138 163.911 299.138 163.107V161.04H299.01C298.878 161.305 298.683 161.577 298.428 161.857C298.177 162.136 297.843 162.37 297.426 162.56C297.014 162.749 296.496 162.844 295.871 162.844C295.033 162.844 294.273 162.647 293.591 162.254C292.914 161.857 292.374 161.265 291.972 160.479C291.574 159.688 291.375 158.698 291.375 157.51C291.375 156.312 291.574 155.301 291.972 154.477C292.374 153.649 292.916 153.021 293.598 152.595C294.28 152.164 295.04 151.949 295.878 151.949C296.517 151.949 297.043 152.058 297.455 152.276C297.871 152.489 298.203 152.747 298.449 153.05C298.695 153.348 298.882 153.63 299.01 153.895H299.152V152.091H301.688V163.178C301.688 164.11 301.465 164.882 301.02 165.493C300.575 166.104 299.967 166.561 299.195 166.864C298.423 167.167 297.547 167.318 296.567 167.318ZM296.588 160.827C297.133 160.827 297.597 160.694 297.98 160.429C298.364 160.164 298.655 159.783 298.854 159.286C299.053 158.788 299.152 158.192 299.152 157.496C299.152 156.809 299.053 156.208 298.854 155.692C298.66 155.176 298.371 154.776 297.987 154.491C297.609 154.203 297.142 154.058 296.588 154.058C296.015 154.058 295.537 154.207 295.154 154.506C294.77 154.804 294.481 155.214 294.287 155.734C294.093 156.25 293.996 156.838 293.996 157.496C293.996 158.163 294.093 158.748 294.287 159.25C294.486 159.747 294.777 160.135 295.161 160.415C295.549 160.689 296.025 160.827 296.588 160.827ZM305.123 163V152.091H307.694V163H305.123ZM306.415 150.543C306.008 150.543 305.658 150.408 305.364 150.138C305.07 149.863 304.924 149.534 304.924 149.151C304.924 148.762 305.07 148.433 305.364 148.163C305.658 147.889 306.008 147.751 306.415 147.751C306.827 147.751 307.178 147.889 307.466 148.163C307.76 148.433 307.907 148.762 307.907 149.151C307.907 149.534 307.76 149.863 307.466 150.138C307.178 150.408 306.827 150.543 306.415 150.543ZM315.186 163.192C314.329 163.192 313.562 162.972 312.885 162.531C312.208 162.091 311.672 161.452 311.279 160.614C310.886 159.776 310.69 158.758 310.69 157.56C310.69 156.348 310.889 155.325 311.287 154.491C311.689 153.653 312.231 153.021 312.913 152.595C313.595 152.164 314.355 151.949 315.193 151.949C315.832 151.949 316.358 152.058 316.77 152.276C317.181 152.489 317.508 152.747 317.75 153.05C317.991 153.348 318.178 153.63 318.311 153.895H318.417V148.455H320.995V163H318.467V161.281H318.311C318.178 161.546 317.986 161.828 317.735 162.126C317.484 162.42 317.153 162.671 316.741 162.879C316.329 163.088 315.811 163.192 315.186 163.192ZM315.903 161.082C316.448 161.082 316.912 160.936 317.295 160.642C317.679 160.344 317.97 159.929 318.169 159.399C318.368 158.869 318.467 158.251 318.467 157.545C318.467 156.84 318.368 156.227 318.169 155.706C317.975 155.185 317.686 154.78 317.302 154.491C316.923 154.203 316.457 154.058 315.903 154.058C315.33 154.058 314.852 154.207 314.468 154.506C314.085 154.804 313.796 155.216 313.602 155.741C313.408 156.267 313.311 156.868 313.311 157.545C313.311 158.227 313.408 158.836 313.602 159.371C313.801 159.901 314.092 160.32 314.475 160.628C314.864 160.931 315.34 161.082 315.903 161.082ZM329.365 163.213C328.271 163.213 327.326 162.986 326.531 162.531C325.74 162.072 325.132 161.423 324.706 160.585C324.279 159.742 324.066 158.75 324.066 157.609C324.066 156.487 324.279 155.502 324.706 154.655C325.136 153.803 325.738 153.14 326.51 152.666C327.281 152.188 328.188 151.949 329.23 151.949C329.902 151.949 330.537 152.058 331.133 152.276C331.734 152.489 332.265 152.82 332.724 153.27C333.188 153.72 333.553 154.293 333.818 154.989C334.083 155.68 334.215 156.504 334.215 157.46V158.249H325.274V156.516H331.751C331.746 156.023 331.64 155.585 331.431 155.202C331.223 154.813 330.932 154.508 330.558 154.286C330.188 154.063 329.758 153.952 329.265 153.952C328.74 153.952 328.278 154.08 327.88 154.335C327.483 154.586 327.172 154.918 326.95 155.33C326.732 155.737 326.621 156.184 326.616 156.672V158.185C326.616 158.819 326.732 159.364 326.964 159.818C327.196 160.268 327.52 160.614 327.937 160.855C328.354 161.092 328.841 161.21 329.4 161.21C329.774 161.21 330.113 161.158 330.416 161.054C330.719 160.945 330.982 160.786 331.204 160.578C331.427 160.37 331.595 160.112 331.708 159.804L334.109 160.074C333.957 160.708 333.669 161.262 333.242 161.736C332.821 162.205 332.281 162.569 331.623 162.83C330.965 163.085 330.212 163.213 329.365 163.213ZM339.762 156.608V163H337.191V152.091H339.648V153.945H339.776C340.027 153.334 340.427 152.848 340.976 152.489C341.53 152.129 342.214 151.949 343.029 151.949C343.781 151.949 344.437 152.11 344.996 152.432C345.559 152.754 345.995 153.22 346.303 153.831C346.615 154.442 346.769 155.183 346.764 156.054V163H344.193V156.452C344.193 155.723 344.004 155.152 343.625 154.74C343.251 154.328 342.733 154.122 342.07 154.122C341.62 154.122 341.22 154.222 340.87 154.42C340.524 154.615 340.252 154.896 340.053 155.266C339.859 155.635 339.762 156.082 339.762 156.608ZM355.625 152.091V154.08H349.354V152.091H355.625ZM350.902 149.477H353.474V159.719C353.474 160.064 353.526 160.33 353.63 160.514C353.739 160.694 353.881 160.817 354.056 160.884C354.231 160.95 354.425 160.983 354.638 160.983C354.799 160.983 354.946 160.971 355.079 160.947C355.216 160.924 355.32 160.902 355.391 160.884L355.824 162.893C355.687 162.941 355.491 162.993 355.235 163.05C354.984 163.107 354.676 163.14 354.312 163.149C353.668 163.168 353.088 163.071 352.572 162.858C352.055 162.64 351.646 162.304 351.343 161.849C351.045 161.395 350.898 160.827 350.902 160.145V149.477ZM358.576 163V152.091H361.147V163H358.576ZM359.868 150.543C359.461 150.543 359.111 150.408 358.817 150.138C358.524 149.863 358.377 149.534 358.377 149.151C358.377 148.762 358.524 148.433 358.817 148.163C359.111 147.889 359.461 147.751 359.868 147.751C360.28 147.751 360.631 147.889 360.919 148.163C361.213 148.433 361.36 148.762 361.36 149.151C361.36 149.534 361.213 149.863 360.919 150.138C360.631 150.408 360.28 150.543 359.868 150.543ZM370.116 152.091V154.08H363.667V152.091H370.116ZM365.279 163V151.061C365.279 150.327 365.431 149.716 365.734 149.229C366.042 148.741 366.454 148.376 366.97 148.135C367.486 147.893 368.059 147.773 368.689 147.773C369.134 147.773 369.529 147.808 369.875 147.879C370.22 147.95 370.476 148.014 370.642 148.071L370.13 150.06C370.021 150.027 369.884 149.993 369.718 149.96C369.553 149.922 369.368 149.903 369.164 149.903C368.686 149.903 368.348 150.019 368.149 150.251C367.955 150.479 367.858 150.805 367.858 151.232V163H365.279ZM372.93 163V152.091H375.501V163H372.93ZM374.222 150.543C373.815 150.543 373.465 150.408 373.171 150.138C372.878 149.863 372.731 149.534 372.731 149.151C372.731 148.762 372.878 148.433 373.171 148.163C373.465 147.889 373.815 147.751 374.222 147.751C374.634 147.751 374.985 147.889 375.273 148.163C375.567 148.433 375.714 148.762 375.714 149.151C375.714 149.534 375.567 149.863 375.273 150.138C374.985 150.408 374.634 150.543 374.222 150.543ZM381.288 159.577L381.281 156.473H381.693L385.614 152.091H388.618L383.795 157.46H383.263L381.288 159.577ZM378.944 163V148.455H381.515V163H378.944ZM385.791 163L382.24 158.036L383.973 156.224L388.866 163H385.791ZM394.27 163.22C393.579 163.22 392.956 163.097 392.402 162.851C391.853 162.6 391.418 162.231 391.096 161.743C390.778 161.255 390.62 160.654 390.62 159.939C390.62 159.323 390.733 158.814 390.961 158.412C391.188 158.009 391.498 157.688 391.891 157.446C392.284 157.205 392.727 157.022 393.219 156.899C393.716 156.771 394.23 156.679 394.76 156.622C395.4 156.556 395.918 156.497 396.316 156.445C396.714 156.388 397.002 156.303 397.182 156.189C397.367 156.071 397.459 155.888 397.459 155.642V155.599C397.459 155.064 397.301 154.65 396.983 154.357C396.666 154.063 396.209 153.916 395.613 153.916C394.983 153.916 394.483 154.054 394.114 154.328C393.75 154.603 393.503 154.927 393.375 155.301L390.975 154.96C391.164 154.297 391.477 153.743 391.912 153.298C392.348 152.848 392.881 152.512 393.51 152.29C394.14 152.062 394.836 151.949 395.599 151.949C396.124 151.949 396.647 152.01 397.168 152.134C397.689 152.257 398.165 152.46 398.596 152.744C399.027 153.024 399.372 153.405 399.633 153.888C399.898 154.371 400.03 154.974 400.03 155.699V163H397.559V161.501H397.474C397.317 161.804 397.097 162.089 396.813 162.354C396.534 162.614 396.181 162.825 395.755 162.986C395.333 163.142 394.839 163.22 394.27 163.22ZM394.938 161.331C395.454 161.331 395.902 161.229 396.28 161.026C396.659 160.817 396.95 160.543 397.154 160.202C397.362 159.861 397.466 159.489 397.466 159.087V157.801C397.386 157.867 397.249 157.929 397.054 157.986C396.865 158.043 396.652 158.092 396.415 158.135C396.179 158.178 395.944 158.215 395.712 158.249C395.48 158.282 395.279 158.31 395.108 158.334C394.725 158.386 394.382 158.471 394.079 158.589C393.776 158.708 393.536 158.874 393.361 159.087C393.186 159.295 393.099 159.565 393.099 159.896C393.099 160.37 393.271 160.727 393.617 160.969C393.963 161.21 394.403 161.331 394.938 161.331ZM412.038 154.974L409.694 155.23C409.628 154.993 409.512 154.771 409.346 154.562C409.185 154.354 408.967 154.186 408.693 154.058C408.418 153.93 408.082 153.866 407.684 153.866C407.149 153.866 406.699 153.982 406.335 154.214C405.975 154.446 405.797 154.747 405.802 155.116C405.797 155.434 405.913 155.692 406.15 155.891C406.391 156.089 406.789 156.253 407.343 156.381L409.204 156.778C410.236 157.001 411.003 157.354 411.505 157.837C412.012 158.32 412.267 158.952 412.272 159.733C412.267 160.42 412.066 161.026 411.668 161.551C411.275 162.072 410.729 162.479 410.028 162.773C409.327 163.066 408.522 163.213 407.613 163.213C406.278 163.213 405.203 162.934 404.389 162.375C403.574 161.812 403.089 161.028 402.933 160.024L405.44 159.783C405.553 160.275 405.795 160.647 406.164 160.898C406.533 161.149 407.014 161.274 407.606 161.274C408.217 161.274 408.707 161.149 409.076 160.898C409.45 160.647 409.637 160.337 409.637 159.967C409.637 159.655 409.516 159.397 409.275 159.193C409.038 158.99 408.669 158.833 408.167 158.724L406.306 158.334C405.26 158.116 404.486 157.749 403.984 157.233C403.482 156.712 403.233 156.054 403.238 155.259C403.233 154.586 403.416 154.004 403.785 153.511C404.159 153.014 404.677 152.631 405.34 152.361C406.008 152.086 406.777 151.949 407.649 151.949C408.927 151.949 409.933 152.221 410.667 152.766C411.406 153.31 411.863 154.046 412.038 154.974ZM415.192 163V152.091H417.763V163H415.192ZM416.485 150.543C416.078 150.543 415.727 150.408 415.434 150.138C415.14 149.863 414.993 149.534 414.993 149.151C414.993 148.762 415.14 148.433 415.434 148.163C415.727 147.889 416.078 147.751 416.485 147.751C416.897 147.751 417.247 147.889 417.536 148.163C417.829 148.433 417.976 148.762 417.976 149.151C417.976 149.534 417.829 149.863 417.536 150.138C417.247 150.408 416.897 150.543 416.485 150.543ZM73.321 191.091V176.091H75.8494V177.895H75.9986C76.1312 177.63 76.3182 177.348 76.5597 177.05C76.8011 176.747 77.1278 176.489 77.5398 176.276C77.9517 176.058 78.4773 175.949 79.1165 175.949C79.9593 175.949 80.7192 176.164 81.3963 176.595C82.0781 177.021 82.6179 177.653 83.0156 178.491C83.4181 179.325 83.6193 180.348 83.6193 181.56C83.6193 182.758 83.4228 183.776 83.0298 184.614C82.6368 185.452 82.1018 186.091 81.4247 186.531C80.7476 186.972 79.9806 187.192 79.1236 187.192C78.4986 187.192 77.9801 187.088 77.5682 186.879C77.1563 186.671 76.8248 186.42 76.5739 186.126C76.3277 185.828 76.1359 185.546 75.9986 185.281H75.892V191.091H73.321ZM75.8423 181.545C75.8423 182.251 75.9418 182.869 76.1406 183.399C76.3442 183.929 76.6354 184.344 77.0142 184.642C77.3977 184.936 77.8617 185.082 78.4062 185.082C78.9744 185.082 79.4503 184.931 79.8338 184.628C80.2173 184.32 80.5062 183.901 80.7003 183.371C80.8991 182.836 80.9986 182.227 80.9986 181.545C80.9986 180.868 80.9015 180.267 80.7074 179.741C80.5133 179.216 80.2244 178.804 79.8409 178.506C79.4574 178.207 78.9792 178.058 78.4062 178.058C77.857 178.058 77.3906 178.203 77.0071 178.491C76.6236 178.78 76.3324 179.185 76.1335 179.706C75.9394 180.227 75.8423 180.84 75.8423 181.545ZM91.4506 187.213C90.3568 187.213 89.4122 186.986 88.6168 186.531C87.826 186.072 87.2176 185.423 86.7915 184.585C86.3653 183.742 86.1523 182.75 86.1523 181.609C86.1523 180.487 86.3653 179.502 86.7915 178.655C87.2223 177.803 87.8237 177.14 88.5955 176.666C89.3672 176.188 90.274 175.949 91.3156 175.949C91.988 175.949 92.6224 176.058 93.219 176.276C93.8204 176.489 94.3507 176.82 94.8099 177.27C95.274 177.72 95.6385 178.293 95.9037 178.989C96.1688 179.68 96.3014 180.504 96.3014 181.46V182.249H87.3597V180.516H93.8369C93.8322 180.023 93.7257 179.585 93.5173 179.202C93.309 178.813 93.0178 178.508 92.6438 178.286C92.2744 178.063 91.8436 177.952 91.3511 177.952C90.8256 177.952 90.3639 178.08 89.9662 178.335C89.5685 178.586 89.2583 178.918 89.0358 179.33C88.818 179.737 88.7067 180.184 88.702 180.672V182.185C88.702 182.819 88.818 183.364 89.05 183.818C89.282 184.268 89.6063 184.614 90.023 184.855C90.4397 185.092 90.9274 185.21 91.4861 185.21C91.8601 185.21 92.1987 185.158 92.5017 185.054C92.8047 184.945 93.0675 184.786 93.2901 184.578C93.5126 184.37 93.6807 184.112 93.7943 183.804L96.1949 184.074C96.0434 184.708 95.7545 185.262 95.3284 185.736C94.907 186.205 94.3672 186.569 93.7091 186.83C93.0509 187.085 92.2981 187.213 91.4506 187.213ZM99.2765 187V176.091H101.769V177.909H101.883C102.082 177.279 102.423 176.794 102.906 176.453C103.393 176.107 103.95 175.935 104.575 175.935C104.717 175.935 104.875 175.942 105.051 175.956C105.231 175.965 105.38 175.982 105.498 176.006V178.371C105.389 178.333 105.216 178.3 104.98 178.271C104.748 178.238 104.523 178.222 104.305 178.222C103.836 178.222 103.415 178.323 103.041 178.527C102.671 178.726 102.38 179.003 102.167 179.358C101.954 179.713 101.848 180.123 101.848 180.587V187H99.2765ZM114.959 182.412V176.091H117.53V187H115.037V185.061H114.924C114.678 185.672 114.273 186.171 113.709 186.56C113.151 186.948 112.462 187.142 111.643 187.142C110.928 187.142 110.295 186.983 109.746 186.666C109.202 186.344 108.776 185.878 108.468 185.267C108.16 184.652 108.006 183.908 108.006 183.037V176.091H110.577V182.639C110.577 183.33 110.767 183.88 111.145 184.287C111.524 184.694 112.021 184.898 112.637 184.898C113.016 184.898 113.383 184.805 113.738 184.621C114.093 184.436 114.384 184.161 114.611 183.797C114.843 183.428 114.959 182.966 114.959 182.412ZM121.088 187V172.455H123.659V177.895H123.765C123.898 177.63 124.085 177.348 124.326 177.05C124.568 176.747 124.895 176.489 125.307 176.276C125.718 176.058 126.244 175.949 126.883 175.949C127.726 175.949 128.486 176.164 129.163 176.595C129.845 177.021 130.385 177.653 130.782 178.491C131.185 179.325 131.386 180.348 131.386 181.56C131.386 182.758 131.19 183.776 130.797 184.614C130.404 185.452 129.869 186.091 129.191 186.531C128.514 186.972 127.747 187.192 126.89 187.192C126.265 187.192 125.747 187.088 125.335 186.879C124.923 186.671 124.592 186.42 124.341 186.126C124.094 185.828 123.903 185.546 123.765 185.281H123.616V187H121.088ZM123.609 181.545C123.609 182.251 123.709 182.869 123.907 183.399C124.111 183.929 124.402 184.344 124.781 184.642C125.164 184.936 125.629 185.082 126.173 185.082C126.741 185.082 127.217 184.931 127.601 184.628C127.984 184.32 128.273 183.901 128.467 183.371C128.666 182.836 128.765 182.227 128.765 181.545C128.765 180.868 128.668 180.267 128.474 179.741C128.28 179.216 127.991 178.804 127.608 178.506C127.224 178.207 126.746 178.058 126.173 178.058C125.624 178.058 125.157 178.203 124.774 178.491C124.39 178.78 124.099 179.185 123.9 179.706C123.706 180.227 123.609 180.84 123.609 181.545ZM137.511 187.22C136.82 187.22 136.197 187.097 135.643 186.851C135.094 186.6 134.658 186.231 134.336 185.743C134.019 185.255 133.86 184.654 133.86 183.939C133.86 183.323 133.974 182.814 134.201 182.412C134.429 182.009 134.739 181.688 135.132 181.446C135.525 181.205 135.967 181.022 136.46 180.899C136.957 180.771 137.471 180.679 138.001 180.622C138.64 180.556 139.159 180.497 139.556 180.445C139.954 180.388 140.243 180.303 140.423 180.189C140.608 180.071 140.7 179.888 140.7 179.642V179.599C140.7 179.064 140.541 178.65 140.224 178.357C139.907 178.063 139.45 177.916 138.853 177.916C138.224 177.916 137.724 178.054 137.355 178.328C136.99 178.603 136.744 178.927 136.616 179.301L134.216 178.96C134.405 178.297 134.717 177.743 135.153 177.298C135.589 176.848 136.121 176.512 136.751 176.29C137.381 176.062 138.077 175.949 138.839 175.949C139.365 175.949 139.888 176.01 140.409 176.134C140.93 176.257 141.405 176.46 141.836 176.744C142.267 177.024 142.613 177.405 142.873 177.888C143.138 178.371 143.271 178.974 143.271 179.699V187H140.799V185.501H140.714C140.558 185.804 140.338 186.089 140.054 186.354C139.774 186.614 139.422 186.825 138.995 186.986C138.574 187.142 138.079 187.22 137.511 187.22ZM138.179 185.331C138.695 185.331 139.142 185.229 139.521 185.026C139.9 184.817 140.191 184.543 140.395 184.202C140.603 183.861 140.707 183.489 140.707 183.087V181.801C140.627 181.867 140.489 181.929 140.295 181.986C140.106 182.043 139.893 182.092 139.656 182.135C139.419 182.178 139.185 182.215 138.953 182.249C138.721 182.282 138.52 182.31 138.349 182.334C137.966 182.386 137.622 182.471 137.319 182.589C137.016 182.708 136.777 182.874 136.602 183.087C136.427 183.295 136.339 183.565 136.339 183.896C136.339 184.37 136.512 184.727 136.858 184.969C137.203 185.21 137.644 185.331 138.179 185.331ZM149.227 180.608V187H146.656V172.455H149.17V177.945H149.298C149.554 177.329 149.949 176.844 150.484 176.489C151.024 176.129 151.711 175.949 152.544 175.949C153.302 175.949 153.962 176.107 154.526 176.425C155.089 176.742 155.525 177.206 155.832 177.817C156.145 178.428 156.301 179.173 156.301 180.054V187H153.73V180.452C153.73 179.718 153.541 179.147 153.162 178.74C152.788 178.328 152.262 178.122 151.585 178.122C151.131 178.122 150.723 178.222 150.364 178.42C150.008 178.615 149.729 178.896 149.526 179.266C149.327 179.635 149.227 180.082 149.227 180.608ZM162.861 187.22C162.17 187.22 161.547 187.097 160.993 186.851C160.444 186.6 160.008 186.231 159.686 185.743C159.369 185.255 159.21 184.654 159.21 183.939C159.21 183.323 159.324 182.814 159.551 182.412C159.779 182.009 160.089 181.688 160.482 181.446C160.875 181.205 161.317 181.022 161.81 180.899C162.307 180.771 162.821 180.679 163.351 180.622C163.99 180.556 164.509 180.497 164.906 180.445C165.304 180.388 165.593 180.303 165.773 180.189C165.958 180.071 166.05 179.888 166.05 179.642V179.599C166.05 179.064 165.891 178.65 165.574 178.357C165.257 178.063 164.8 177.916 164.203 177.916C163.574 177.916 163.074 178.054 162.705 178.328C162.34 178.603 162.094 178.927 161.966 179.301L159.566 178.96C159.755 178.297 160.067 177.743 160.503 177.298C160.939 176.848 161.471 176.512 162.101 176.29C162.731 176.062 163.427 175.949 164.189 175.949C164.715 175.949 165.238 176.01 165.759 176.134C166.28 176.257 166.755 176.46 167.186 176.744C167.617 177.024 167.963 177.405 168.223 177.888C168.488 178.371 168.621 178.974 168.621 179.699V187H166.149V185.501H166.064C165.908 185.804 165.688 186.089 165.404 186.354C165.124 186.614 164.772 186.825 164.345 186.986C163.924 187.142 163.429 187.22 162.861 187.22ZM163.529 185.331C164.045 185.331 164.492 185.229 164.871 185.026C165.25 184.817 165.541 184.543 165.745 184.202C165.953 183.861 166.057 183.489 166.057 183.087V181.801C165.977 181.867 165.839 181.929 165.645 181.986C165.456 182.043 165.243 182.092 165.006 182.135C164.769 182.178 164.535 182.215 164.303 182.249C164.071 182.282 163.87 182.31 163.699 182.334C163.316 182.386 162.972 182.471 162.669 182.589C162.366 182.708 162.127 182.874 161.952 183.087C161.777 183.295 161.689 183.565 161.689 183.896C161.689 184.37 161.862 184.727 162.208 184.969C162.553 185.21 162.994 185.331 163.529 185.331ZM174.577 180.608V187H172.006V176.091H174.464V177.945H174.591C174.842 177.334 175.242 176.848 175.792 176.489C176.346 176.129 177.03 175.949 177.844 175.949C178.597 175.949 179.253 176.11 179.812 176.432C180.375 176.754 180.811 177.22 181.118 177.831C181.431 178.442 181.585 179.183 181.58 180.054V187H179.009V180.452C179.009 179.723 178.82 179.152 178.441 178.74C178.067 178.328 177.548 178.122 176.885 178.122C176.436 178.122 176.036 178.222 175.685 178.42C175.34 178.615 175.067 178.896 174.868 179.266C174.674 179.635 174.577 180.082 174.577 180.608ZM190.868 187V172.455H193.439V177.895H193.546C193.678 177.63 193.865 177.348 194.107 177.05C194.348 176.747 194.675 176.489 195.087 176.276C195.499 176.058 196.025 175.949 196.664 175.949C197.507 175.949 198.266 176.164 198.944 176.595C199.625 177.021 200.165 177.653 200.563 178.491C200.965 179.325 201.167 180.348 201.167 181.56C201.167 182.758 200.97 183.776 200.577 184.614C200.184 185.452 199.649 186.091 198.972 186.531C198.295 186.972 197.528 187.192 196.671 187.192C196.046 187.192 195.527 187.088 195.115 186.879C194.703 186.671 194.372 186.42 194.121 186.126C193.875 185.828 193.683 185.546 193.546 185.281H193.397V187H190.868ZM193.39 181.545C193.39 182.251 193.489 182.869 193.688 183.399C193.891 183.929 194.183 184.344 194.561 184.642C194.945 184.936 195.409 185.082 195.953 185.082C196.522 185.082 196.998 184.931 197.381 184.628C197.765 184.32 198.053 183.901 198.248 183.371C198.446 182.836 198.546 182.227 198.546 181.545C198.546 180.868 198.449 180.267 198.255 179.741C198.06 179.216 197.772 178.804 197.388 178.506C197.005 178.207 196.526 178.058 195.953 178.058C195.404 178.058 194.938 178.203 194.554 178.491C194.171 178.78 193.88 179.185 193.681 179.706C193.487 180.227 193.39 180.84 193.39 181.545ZM208.982 187.213C207.888 187.213 206.943 186.986 206.148 186.531C205.357 186.072 204.749 185.423 204.323 184.585C203.897 183.742 203.684 182.75 203.684 181.609C203.684 180.487 203.897 179.502 204.323 178.655C204.754 177.803 205.355 177.14 206.127 176.666C206.898 176.188 207.805 175.949 208.847 175.949C209.519 175.949 210.154 176.058 210.75 176.276C211.352 176.489 211.882 176.82 212.341 177.27C212.805 177.72 213.17 178.293 213.435 178.989C213.7 179.68 213.833 180.504 213.833 181.46V182.249H204.891V180.516H211.368C211.363 180.023 211.257 179.585 211.049 179.202C210.84 178.813 210.549 178.508 210.175 178.286C209.806 178.063 209.375 177.952 208.882 177.952C208.357 177.952 207.895 178.08 207.497 178.335C207.1 178.586 206.79 178.918 206.567 179.33C206.349 179.737 206.238 180.184 206.233 180.672V182.185C206.233 182.819 206.349 183.364 206.581 183.818C206.813 184.268 207.138 184.614 207.554 184.855C207.971 185.092 208.459 185.21 209.017 185.21C209.391 185.21 209.73 185.158 210.033 185.054C210.336 184.945 210.599 184.786 210.821 184.578C211.044 184.37 211.212 184.112 211.326 183.804L213.726 184.074C213.575 184.708 213.286 185.262 212.86 185.736C212.438 186.205 211.898 186.569 211.24 186.83C210.582 187.085 209.829 187.213 208.982 187.213ZM219.379 180.608V187H216.808V176.091H219.265V177.945H219.393C219.644 177.334 220.044 176.848 220.593 176.489C221.147 176.129 221.831 175.949 222.646 175.949C223.399 175.949 224.054 176.11 224.613 176.432C225.177 176.754 225.612 177.22 225.92 177.831C226.232 178.442 226.386 179.183 226.382 180.054V187H223.811V180.452C223.811 179.723 223.621 179.152 223.242 178.74C222.868 178.328 222.35 178.122 221.687 178.122C221.237 178.122 220.837 178.222 220.487 178.42C220.141 178.615 219.869 178.896 219.67 179.266C219.476 179.635 219.379 180.082 219.379 180.608ZM235.243 176.091V178.08H228.971V176.091H235.243ZM230.52 173.477H233.091V183.719C233.091 184.064 233.143 184.33 233.247 184.514C233.356 184.694 233.498 184.817 233.673 184.884C233.848 184.95 234.042 184.983 234.255 184.983C234.416 184.983 234.563 184.971 234.696 184.947C234.833 184.924 234.937 184.902 235.008 184.884L235.442 186.893C235.304 186.941 235.108 186.993 234.852 187.05C234.601 187.107 234.293 187.14 233.929 187.149C233.285 187.168 232.705 187.071 232.189 186.858C231.673 186.64 231.263 186.304 230.96 185.849C230.662 185.395 230.515 184.827 230.52 184.145V173.477ZM245.146 182.412V176.091H247.717V187H245.224V185.061H245.111C244.864 185.672 244.459 186.171 243.896 186.56C243.337 186.948 242.648 187.142 241.829 187.142C241.114 187.142 240.482 186.983 239.933 186.666C239.388 186.344 238.962 185.878 238.655 185.267C238.347 184.652 238.193 183.908 238.193 183.037V176.091H240.764V182.639C240.764 183.33 240.953 183.88 241.332 184.287C241.711 184.694 242.208 184.898 242.824 184.898C243.202 184.898 243.569 184.805 243.924 184.621C244.28 184.436 244.571 184.161 244.798 183.797C245.03 183.428 245.146 182.966 245.146 182.412ZM253.505 183.577L253.498 180.473H253.909L257.83 176.091H260.834L256.012 181.46H255.479L253.505 183.577ZM251.161 187V172.455H253.732V187H251.161ZM258.007 187L254.456 182.036L256.189 180.224L261.083 187H258.007ZM273.938 187.213C272.844 187.213 271.9 186.986 271.104 186.531C270.314 186.072 269.705 185.423 269.279 184.585C268.853 183.742 268.64 182.75 268.64 181.609C268.64 180.487 268.853 179.502 269.279 178.655C269.71 177.803 270.311 177.14 271.083 176.666C271.855 176.188 272.761 175.949 273.803 175.949C274.475 175.949 275.11 176.058 275.707 176.276C276.308 176.489 276.838 176.82 277.297 177.27C277.761 177.72 278.126 178.293 278.391 178.989C278.656 179.68 278.789 180.504 278.789 181.46V182.249H269.847V180.516H276.324C276.32 180.023 276.213 179.585 276.005 179.202C275.797 178.813 275.505 178.508 275.131 178.286C274.762 178.063 274.331 177.952 273.839 177.952C273.313 177.952 272.851 178.08 272.454 178.335C272.056 178.586 271.746 178.918 271.523 179.33C271.305 179.737 271.194 180.184 271.189 180.672V182.185C271.189 182.819 271.305 183.364 271.538 183.818C271.77 184.268 272.094 184.614 272.511 184.855C272.927 185.092 273.415 185.21 273.974 185.21C274.348 185.21 274.686 185.158 274.989 185.054C275.292 184.945 275.555 184.786 275.778 184.578C276 184.37 276.168 184.112 276.282 183.804L278.682 184.074C278.531 184.708 278.242 185.262 277.816 185.736C277.395 186.205 276.855 186.569 276.197 186.83C275.538 187.085 274.786 187.213 273.938 187.213ZM284.335 180.608V187H281.764V176.091H284.221V177.945H284.349C284.6 177.334 285 176.848 285.549 176.489C286.103 176.129 286.788 175.949 287.602 175.949C288.355 175.949 289.011 176.11 289.569 176.432C290.133 176.754 290.568 177.22 290.876 177.831C291.189 178.442 291.343 179.183 291.338 180.054V187H288.767V180.452C288.767 179.723 288.577 179.152 288.199 178.74C287.825 178.328 287.306 178.122 286.643 178.122C286.193 178.122 285.793 178.222 285.443 178.42C285.097 178.615 284.825 178.896 284.626 179.266C284.432 179.635 284.335 180.082 284.335 180.608ZM299.581 187.213C298.487 187.213 297.543 186.986 296.747 186.531C295.957 186.072 295.348 185.423 294.922 184.585C294.496 183.742 294.283 182.75 294.283 181.609C294.283 180.487 294.496 179.502 294.922 178.655C295.353 177.803 295.954 177.14 296.726 176.666C297.498 176.188 298.404 175.949 299.446 175.949C300.118 175.949 300.753 176.058 301.35 176.276C301.951 176.489 302.481 176.82 302.94 177.27C303.404 177.72 303.769 178.293 304.034 178.989C304.299 179.68 304.432 180.504 304.432 181.46V182.249H295.49V180.516H301.967C301.963 180.023 301.856 179.585 301.648 179.202C301.439 178.813 301.148 178.508 300.774 178.286C300.405 178.063 299.974 177.952 299.482 177.952C298.956 177.952 298.494 178.08 298.097 178.335C297.699 178.586 297.389 178.918 297.166 179.33C296.948 179.737 296.837 180.184 296.832 180.672V182.185C296.832 182.819 296.948 183.364 297.18 183.818C297.412 184.268 297.737 184.614 298.153 184.855C298.57 185.092 299.058 185.21 299.617 185.21C299.991 185.21 300.329 185.158 300.632 185.054C300.935 184.945 301.198 184.786 301.421 184.578C301.643 184.37 301.811 184.112 301.925 183.804L304.325 184.074C304.174 184.708 303.885 185.262 303.459 185.736C303.037 186.205 302.498 186.569 301.84 186.83C301.181 187.085 300.429 187.213 299.581 187.213ZM307.407 187V176.091H309.9V177.909H310.013C310.212 177.279 310.553 176.794 311.036 176.453C311.524 176.107 312.08 175.935 312.705 175.935C312.847 175.935 313.006 175.942 313.181 175.956C313.361 175.965 313.51 175.982 313.629 176.006V178.371C313.52 178.333 313.347 178.3 313.11 178.271C312.878 178.238 312.653 178.222 312.435 178.222C311.967 178.222 311.545 178.323 311.171 178.527C310.802 178.726 310.511 179.003 310.298 179.358C310.085 179.713 309.978 180.123 309.978 180.587V187H307.407ZM320.432 191.318C319.508 191.318 318.715 191.193 318.052 190.942C317.39 190.696 316.857 190.364 316.454 189.947C316.052 189.531 315.773 189.069 315.616 188.562L317.932 188.001C318.036 188.214 318.187 188.425 318.386 188.634C318.585 188.847 318.853 189.022 319.189 189.159C319.53 189.301 319.958 189.372 320.474 189.372C321.204 189.372 321.807 189.195 322.285 188.839C322.764 188.489 323.003 187.911 323.003 187.107V185.04H322.875C322.742 185.305 322.548 185.577 322.293 185.857C322.042 186.136 321.708 186.37 321.291 186.56C320.879 186.749 320.361 186.844 319.736 186.844C318.898 186.844 318.138 186.647 317.456 186.254C316.779 185.857 316.239 185.265 315.837 184.479C315.439 183.688 315.24 182.698 315.24 181.51C315.24 180.312 315.439 179.301 315.837 178.477C316.239 177.649 316.781 177.021 317.463 176.595C318.145 176.164 318.905 175.949 319.743 175.949C320.382 175.949 320.908 176.058 321.32 176.276C321.736 176.489 322.068 176.747 322.314 177.05C322.56 177.348 322.747 177.63 322.875 177.895H323.017V176.091H325.552V187.178C325.552 188.11 325.33 188.882 324.885 189.493C324.44 190.104 323.831 190.561 323.06 190.864C322.288 191.167 321.412 191.318 320.432 191.318ZM320.453 184.827C320.998 184.827 321.462 184.694 321.845 184.429C322.229 184.164 322.52 183.783 322.719 183.286C322.918 182.788 323.017 182.192 323.017 181.496C323.017 180.809 322.918 180.208 322.719 179.692C322.525 179.176 322.236 178.776 321.852 178.491C321.473 178.203 321.007 178.058 320.453 178.058C319.88 178.058 319.402 178.207 319.018 178.506C318.635 178.804 318.346 179.214 318.152 179.734C317.958 180.25 317.861 180.838 317.861 181.496C317.861 182.163 317.958 182.748 318.152 183.25C318.351 183.747 318.642 184.135 319.026 184.415C319.414 184.689 319.89 184.827 320.453 184.827ZM328.987 187V176.091H331.558V187H328.987ZM330.28 174.543C329.873 174.543 329.522 174.408 329.229 174.138C328.935 173.863 328.789 173.534 328.789 173.151C328.789 172.762 328.935 172.433 329.229 172.163C329.522 171.889 329.873 171.751 330.28 171.751C330.692 171.751 331.042 171.889 331.331 172.163C331.625 172.433 331.772 172.762 331.772 173.151C331.772 173.534 331.625 173.863 331.331 174.138C331.042 174.408 330.692 174.543 330.28 174.543Z" fill="black"/>
<rect x="40" y="480" width="513" height="85" rx="12" fill="white"/>
<path d="M96.1951 519.159H90.5133C90.4375 518.576 90.2822 518.049 90.0474 517.58C89.8125 517.11 89.5019 516.708 89.1156 516.375C88.7292 516.042 88.2709 515.788 87.7406 515.614C87.2178 515.432 86.6383 515.341 86.0019 515.341C84.8731 515.341 83.8997 515.617 83.0815 516.17C82.2709 516.723 81.6459 517.523 81.2065 518.568C80.7747 519.614 80.5587 520.879 80.5587 522.364C80.5587 523.909 80.7784 525.205 81.2178 526.25C81.6648 527.288 82.2898 528.072 83.0928 528.602C83.9034 529.125 84.8618 529.386 85.9678 529.386C86.589 529.386 87.1534 529.307 87.661 529.148C88.1762 528.989 88.6269 528.758 89.0133 528.455C89.4072 528.144 89.7292 527.769 89.9792 527.33C90.2368 526.883 90.4148 526.379 90.5133 525.818L96.1951 525.852C96.0966 526.883 95.7974 527.898 95.2974 528.898C94.805 529.898 94.1269 530.811 93.2633 531.636C92.3997 532.455 91.3466 533.106 90.1042 533.591C88.8694 534.076 87.4527 534.318 85.8542 534.318C83.7481 534.318 81.8618 533.856 80.1951 532.932C78.536 532 77.2254 530.644 76.2633 528.864C75.3012 527.083 74.8201 524.917 74.8201 522.364C74.8201 519.803 75.3087 517.633 76.286 515.852C77.2633 514.072 78.5853 512.72 80.2519 511.795C81.9186 510.871 83.786 510.409 85.8542 510.409C87.2633 510.409 88.5663 510.606 89.7633 511C90.9603 511.386 92.0133 511.955 92.9224 512.705C93.8315 513.447 94.5701 514.36 95.1383 515.443C95.7065 516.527 96.0587 517.765 96.1951 519.159ZM105.134 534H99.0887L106.941 510.727H114.43L122.282 534H116.236L110.771 516.591H110.589L105.134 534ZM104.327 524.841H116.964V529.114H104.327V524.841ZM126.068 534V510.727H135.681C137.424 510.727 138.927 511.068 140.193 511.75C141.465 512.424 142.446 513.367 143.136 514.58C143.825 515.784 144.17 517.186 144.17 518.784C144.17 520.39 143.818 521.795 143.113 523C142.416 524.197 141.42 525.125 140.124 525.784C138.829 526.443 137.291 526.773 135.511 526.773H129.579V522.341H134.465C135.314 522.341 136.022 522.193 136.59 521.898C137.166 521.602 137.602 521.189 137.897 520.659C138.193 520.121 138.34 519.496 138.34 518.784C138.34 518.064 138.193 517.443 137.897 516.92C137.602 516.39 137.166 515.981 136.59 515.693C136.015 515.405 135.306 515.261 134.465 515.261H131.693V534H126.068ZM150.444 534H144.399L152.251 510.727H159.74L167.592 534H161.546L156.081 516.591H155.899L150.444 534ZM149.637 524.841H162.274V529.114H149.637V524.841ZM177.003 510.727V534H171.378V510.727H177.003ZM186.848 534H180.802L188.655 510.727H196.143L203.996 534H197.95L192.484 516.591H192.302L186.848 534ZM186.041 524.841H198.677V529.114H186.041V524.841ZM227.588 510.727V534H222.815L213.554 520.568H213.406V534H207.781V510.727H212.622L221.781 524.136H221.975V510.727H227.588ZM240.56 534V510.727H250.174C251.916 510.727 253.42 511.068 254.685 511.75C255.958 512.424 256.939 513.367 257.628 514.58C258.318 515.784 258.662 517.186 258.662 518.784C258.662 520.39 258.31 521.795 257.606 523C256.909 524.197 255.912 525.125 254.617 525.784C253.321 526.443 251.784 526.773 250.003 526.773H244.071V522.341H248.958C249.806 522.341 250.515 522.193 251.083 521.898C251.659 521.602 252.094 521.189 252.39 520.659C252.685 520.121 252.833 519.496 252.833 518.784C252.833 518.064 252.685 517.443 252.39 516.92C252.094 516.39 251.659 515.981 251.083 515.693C250.507 515.405 249.799 515.261 248.958 515.261H246.185V534H240.56ZM262.715 534V510.727H278.942V515.295H268.34V520.068H278.113V524.648H268.34V529.432H278.942V534H262.715ZM283.745 510.727H290.711L296.62 525.136H296.893L302.802 510.727H309.768V534H304.291V519.705H304.097L298.506 533.852H295.006L289.416 519.625H289.222V534H283.745V510.727ZM314.556 534V510.727H324.261C326.003 510.727 327.462 510.973 328.636 511.466C329.818 511.958 330.704 512.648 331.295 513.534C331.893 514.42 332.193 515.447 332.193 516.614C332.193 517.5 332.007 518.292 331.636 518.989C331.265 519.678 330.753 520.25 330.102 520.705C329.45 521.159 328.697 521.477 327.84 521.659V521.886C328.78 521.932 329.647 522.186 330.443 522.648C331.246 523.11 331.89 523.754 332.375 524.58C332.859 525.398 333.102 526.367 333.102 527.489C333.102 528.739 332.784 529.856 332.147 530.841C331.511 531.818 330.59 532.591 329.386 533.159C328.181 533.72 326.719 534 325 534H314.556ZM320.181 529.466H323.659C324.878 529.466 325.776 529.235 326.352 528.773C326.935 528.311 327.227 527.667 327.227 526.841C327.227 526.242 327.087 525.727 326.806 525.295C326.526 524.856 326.128 524.519 325.613 524.284C325.098 524.042 324.481 523.92 323.761 523.92H320.181V529.466ZM320.181 520.295H323.295C323.909 520.295 324.454 520.193 324.931 519.989C325.409 519.784 325.78 519.489 326.045 519.102C326.318 518.716 326.454 518.25 326.454 517.705C326.454 516.924 326.178 516.311 325.625 515.864C325.072 515.417 324.325 515.193 323.386 515.193H320.181V520.295ZM337.086 534V510.727H353.314V515.295H342.711V520.068H352.484V524.648H342.711V529.432H353.314V534H337.086ZM358.116 534V510.727H363.741V529.432H373.423V534H358.116ZM382.962 534H376.916L384.769 510.727H392.257L400.109 534H394.064L388.598 516.591H388.416L382.962 534ZM382.155 524.841H394.791V529.114H382.155V524.841ZM413.35 510.727H418.895V526.818C418.888 528.326 418.528 529.644 417.816 530.773C417.103 531.894 416.119 532.765 414.861 533.386C413.611 534.008 412.164 534.318 410.52 534.318C409.066 534.318 407.744 534.064 406.554 533.557C405.372 533.049 404.429 532.261 403.725 531.193C403.028 530.125 402.683 528.758 402.691 527.091H408.293C408.316 527.689 408.429 528.201 408.634 528.625C408.846 529.042 409.138 529.356 409.509 529.568C409.88 529.78 410.323 529.886 410.838 529.886C411.376 529.886 411.831 529.773 412.202 529.545C412.573 529.311 412.853 528.966 413.043 528.511C413.24 528.057 413.342 527.492 413.35 526.818V510.727ZM428.74 534H422.695L430.547 510.727H438.036L445.888 534H439.843L434.377 516.591H434.195L428.74 534ZM427.934 524.841H440.57V529.114H427.934V524.841ZM449.674 534V510.727H459.288C461.03 510.727 462.534 511.042 463.799 511.67C465.072 512.292 466.053 513.186 466.742 514.352C467.431 515.511 467.776 516.886 467.776 518.477C467.776 520.091 467.424 521.462 466.719 522.591C466.015 523.712 465.015 524.568 463.719 525.159C462.424 525.742 460.89 526.034 459.117 526.034H453.038V521.602H458.072C458.92 521.602 459.628 521.492 460.197 521.273C460.772 521.045 461.208 520.705 461.503 520.25C461.799 519.788 461.947 519.197 461.947 518.477C461.947 517.758 461.799 517.163 461.503 516.693C461.208 516.216 460.772 515.86 460.197 515.625C459.621 515.383 458.913 515.261 458.072 515.261H455.299V534H449.674ZM462.776 523.364L468.572 534H462.435L456.753 523.364H462.776ZM477.175 534H471.13L478.982 510.727H486.471L494.323 534H488.278L482.812 516.591H482.63L477.175 534ZM476.369 524.841H489.005V529.114H476.369V524.841ZM517.916 510.727V534H513.143L503.882 520.568H503.734V534H498.109V510.727H502.95L512.109 524.136H512.302V510.727H517.916Z" fill="black"/>
</svg>
