<svg width="577" height="100" viewBox="0 0 577 100" fill="none" xmlns="http://www.w3.org/2000/svg">
<rect x="42" width="535" height="100" rx="8" fill="white"/>
<path d="M77.9631 59H74.5881L80.733 41.5455H84.6364L90.7898 59H87.4148L82.7528 45.125H82.6165L77.9631 59ZM78.0739 52.1562H87.2784V54.696H78.0739V52.1562ZM93.6724 63.9091V45.9091H96.7065V48.0739H96.8855C97.0446 47.7557 97.269 47.4176 97.5588 47.0597C97.8486 46.696 98.2406 46.3864 98.7349 46.1307C99.2292 45.8693 99.8599 45.7386 100.627 45.7386C101.638 45.7386 102.55 45.9972 103.363 46.5142C104.181 47.0256 104.829 47.7841 105.306 48.7898C105.789 49.7898 106.03 51.017 106.03 52.4716C106.03 53.9091 105.795 55.1307 105.323 56.1364C104.851 57.142 104.209 57.9091 103.397 58.4375C102.584 58.9659 101.664 59.2301 100.635 59.2301C99.8855 59.2301 99.2633 59.1051 98.769 58.8551C98.2747 58.6051 97.877 58.304 97.5758 57.9517C97.2804 57.5937 97.0503 57.2557 96.8855 56.9375H96.7576V63.9091H93.6724ZM96.698 52.4545C96.698 53.3011 96.8173 54.0426 97.0559 54.679C97.3003 55.3153 97.6497 55.8125 98.1042 56.1705C98.5645 56.5227 99.1213 56.6989 99.7747 56.6989C100.457 56.6989 101.028 56.517 101.488 56.1534C101.948 55.7841 102.295 55.2812 102.528 54.6449C102.766 54.0028 102.885 53.2727 102.885 52.4545C102.885 51.642 102.769 50.9205 102.536 50.2898C102.303 49.6591 101.957 49.1648 101.496 48.8068C101.036 48.4489 100.462 48.2699 99.7747 48.2699C99.1156 48.2699 98.5559 48.4432 98.0957 48.7898C97.6355 49.1364 97.2861 49.6222 97.0474 50.2472C96.8145 50.8722 96.698 51.608 96.698 52.4545ZM113.159 59.2642C112.33 59.2642 111.583 59.1165 110.918 58.821C110.259 58.5199 109.736 58.0767 109.35 57.4915C108.969 56.9062 108.779 56.1847 108.779 55.3267C108.779 54.5881 108.915 53.9773 109.188 53.4943C109.461 53.0114 109.833 52.625 110.304 52.3352C110.776 52.0455 111.307 51.8267 111.898 51.679C112.495 51.5256 113.111 51.4148 113.748 51.3466C114.515 51.267 115.137 51.196 115.614 51.1335C116.091 51.0653 116.438 50.9631 116.654 50.8267C116.875 50.6847 116.986 50.4659 116.986 50.1705V50.1193C116.986 49.4773 116.796 48.9801 116.415 48.6278C116.034 48.2756 115.486 48.0994 114.77 48.0994C114.015 48.0994 113.415 48.2642 112.972 48.5938C112.534 48.9233 112.239 49.3125 112.086 49.7614L109.205 49.3523C109.432 48.5568 109.807 47.892 110.33 47.358C110.853 46.8182 111.492 46.4148 112.248 46.1477C113.003 45.875 113.838 45.7386 114.753 45.7386C115.384 45.7386 116.012 45.8125 116.637 45.9602C117.262 46.108 117.833 46.3523 118.35 46.6932C118.867 47.0284 119.282 47.4858 119.594 48.0653C119.912 48.6449 120.071 49.3693 120.071 50.2386V59H117.105V57.2017H117.003C116.816 57.5653 116.552 57.9062 116.211 58.2244C115.875 58.5369 115.452 58.7898 114.941 58.983C114.435 59.1705 113.841 59.2642 113.159 59.2642ZM113.961 56.9972C114.58 56.9972 115.117 56.875 115.571 56.6307C116.026 56.3807 116.375 56.0511 116.62 55.642C116.87 55.233 116.995 54.7869 116.995 54.304V52.7614C116.898 52.8409 116.733 52.9148 116.5 52.983C116.273 53.0511 116.017 53.1108 115.733 53.1619C115.449 53.2131 115.168 53.2585 114.89 53.2983C114.611 53.3381 114.37 53.3722 114.165 53.4006C113.705 53.4631 113.293 53.5653 112.929 53.7074C112.566 53.8494 112.279 54.0483 112.069 54.304C111.858 54.554 111.753 54.8778 111.753 55.2756C111.753 55.8438 111.961 56.2727 112.375 56.5625C112.79 56.8523 113.319 56.9972 113.961 56.9972ZM132.484 63.9091C132.064 63.9091 131.675 63.875 131.317 63.8068C130.965 63.7443 130.683 63.6705 130.473 63.5852L131.189 61.1818C131.638 61.3125 132.038 61.375 132.391 61.3693C132.743 61.3636 133.053 61.2528 133.32 61.0369C133.592 60.8267 133.822 60.4744 134.01 59.9801L134.274 59.2727L129.527 45.9091H132.8L135.817 55.7955H135.953L138.979 45.9091H142.26L137.018 60.5852C136.774 61.2784 136.45 61.8722 136.047 62.3665C135.643 62.8665 135.149 63.2472 134.564 63.5085C133.984 63.7756 133.291 63.9091 132.484 63.9091ZM148.507 59.2642C147.677 59.2642 146.93 59.1165 146.265 58.821C145.606 58.5199 145.084 58.0767 144.697 57.4915C144.317 56.9062 144.126 56.1847 144.126 55.3267C144.126 54.5881 144.263 53.9773 144.535 53.4943C144.808 53.0114 145.18 52.625 145.652 52.3352C146.123 52.0455 146.655 51.8267 147.246 51.679C147.842 51.5256 148.459 51.4148 149.095 51.3466C149.862 51.267 150.484 51.196 150.962 51.1335C151.439 51.0653 151.785 50.9631 152.001 50.8267C152.223 50.6847 152.334 50.4659 152.334 50.1705V50.1193C152.334 49.4773 152.143 48.9801 151.763 48.6278C151.382 48.2756 150.834 48.0994 150.118 48.0994C149.362 48.0994 148.763 48.2642 148.319 48.5938C147.882 48.9233 147.587 49.3125 147.433 49.7614L144.552 49.3523C144.78 48.5568 145.155 47.892 145.677 47.358C146.2 46.8182 146.839 46.4148 147.595 46.1477C148.351 45.875 149.186 45.7386 150.101 45.7386C150.731 45.7386 151.359 45.8125 151.984 45.9602C152.609 46.108 153.18 46.3523 153.697 46.6932C154.214 47.0284 154.629 47.4858 154.942 48.0653C155.26 48.6449 155.419 49.3693 155.419 50.2386V59H152.453V57.2017H152.351C152.163 57.5653 151.899 57.9062 151.558 58.2244C151.223 58.5369 150.8 58.7898 150.288 58.983C149.783 59.1705 149.189 59.2642 148.507 59.2642ZM149.308 56.9972C149.927 56.9972 150.464 56.875 150.919 56.6307C151.373 56.3807 151.723 56.0511 151.967 55.642C152.217 55.233 152.342 54.7869 152.342 54.304V52.7614C152.246 52.8409 152.081 52.9148 151.848 52.983C151.621 53.0511 151.365 53.1108 151.081 53.1619C150.797 53.2131 150.515 53.2585 150.237 53.2983C149.959 53.3381 149.717 53.3722 149.513 53.4006C149.052 53.4631 148.64 53.5653 148.277 53.7074C147.913 53.8494 147.626 54.0483 147.416 54.304C147.206 54.554 147.101 54.8778 147.101 55.2756C147.101 55.8438 147.308 56.2727 147.723 56.5625C148.138 56.8523 148.666 56.9972 149.308 56.9972ZM162.326 51.3295V59H159.241V45.9091H162.19V48.1335H162.343C162.645 47.4006 163.125 46.8182 163.784 46.3864C164.449 45.9545 165.27 45.7386 166.247 45.7386C167.15 45.7386 167.937 45.9318 168.608 46.3182C169.284 46.7045 169.807 47.2642 170.176 47.9972C170.551 48.7301 170.735 49.6193 170.73 50.6648V59H167.645V51.142C167.645 50.267 167.417 49.5824 166.963 49.0881C166.514 48.5937 165.892 48.3466 165.096 48.3466C164.557 48.3466 164.076 48.4659 163.656 48.7045C163.241 48.9375 162.914 49.2756 162.676 49.7188C162.443 50.1619 162.326 50.6989 162.326 51.3295ZM180.279 64.1818C179.171 64.1818 178.22 64.0313 177.424 63.7301C176.629 63.4347 175.99 63.0369 175.507 62.5369C175.024 62.0369 174.688 61.483 174.501 60.875L177.279 60.2017C177.404 60.4574 177.586 60.7102 177.825 60.9602C178.063 61.2159 178.384 61.4261 178.788 61.5909C179.197 61.7614 179.711 61.8466 180.33 61.8466C181.205 61.8466 181.93 61.6335 182.504 61.2074C183.078 60.7869 183.365 60.0938 183.365 59.1278V56.6477H183.211C183.052 56.9659 182.819 57.2926 182.512 57.6278C182.211 57.9631 181.811 58.2443 181.311 58.4716C180.816 58.6989 180.194 58.8125 179.444 58.8125C178.438 58.8125 177.527 58.5767 176.708 58.1051C175.896 57.6278 175.248 56.9176 174.765 55.9744C174.288 55.0256 174.049 53.8381 174.049 52.4119C174.049 50.9744 174.288 49.7614 174.765 48.7727C175.248 47.7784 175.899 47.0256 176.717 46.5142C177.535 45.9972 178.447 45.7386 179.453 45.7386C180.22 45.7386 180.85 45.8693 181.345 46.1307C181.845 46.3864 182.242 46.696 182.538 47.0597C182.833 47.4176 183.058 47.7557 183.211 48.0739H183.382V45.9091H186.424V59.2131C186.424 60.3324 186.157 61.2585 185.623 61.9915C185.089 62.7244 184.359 63.2727 183.433 63.6364C182.507 64 181.455 64.1818 180.279 64.1818ZM180.305 56.392C180.958 56.392 181.515 56.233 181.975 55.9148C182.436 55.5966 182.785 55.1392 183.024 54.5426C183.262 53.946 183.382 53.2301 183.382 52.3949C183.382 51.571 183.262 50.8494 183.024 50.2301C182.791 49.6108 182.444 49.1307 181.984 48.7898C181.529 48.4432 180.97 48.2699 180.305 48.2699C179.617 48.2699 179.044 48.4489 178.583 48.8068C178.123 49.1648 177.777 49.6562 177.544 50.2812C177.311 50.9006 177.194 51.6051 177.194 52.3949C177.194 53.196 177.311 53.8977 177.544 54.5C177.782 55.0966 178.132 55.5625 178.592 55.8977C179.058 56.2273 179.629 56.392 180.305 56.392ZM203.516 45.9091V48.2955H195.991V45.9091H203.516ZM197.849 42.7727H200.934V55.0625C200.934 55.4773 200.996 55.7955 201.121 56.017C201.252 56.233 201.422 56.3807 201.633 56.4602C201.843 56.5398 202.076 56.5795 202.332 56.5795C202.525 56.5795 202.701 56.5653 202.86 56.5369C203.025 56.5085 203.15 56.483 203.235 56.4602L203.755 58.8722C203.59 58.929 203.354 58.9915 203.047 59.0597C202.746 59.1278 202.377 59.1676 201.94 59.179C201.167 59.2017 200.471 59.0852 199.851 58.8295C199.232 58.5682 198.741 58.1648 198.377 57.6193C198.019 57.0739 197.843 56.392 197.849 55.5739V42.7727ZM212.471 59.2557C211.159 59.2557 210.025 58.983 209.071 58.4375C208.122 57.8864 207.392 57.108 206.88 56.1023C206.369 55.0909 206.113 53.9006 206.113 52.5312C206.113 51.1847 206.369 50.0028 206.88 48.9858C207.397 47.9631 208.119 47.1676 209.045 46.5994C209.971 46.0256 211.059 45.7386 212.309 45.7386C213.116 45.7386 213.878 45.8693 214.593 46.1307C215.315 46.3864 215.951 46.7841 216.503 47.3239C217.059 47.8636 217.497 48.5511 217.815 49.3864C218.133 50.2159 218.292 51.2045 218.292 52.3523V53.2983H207.562V51.2188H215.335C215.329 50.6278 215.201 50.1023 214.951 49.642C214.701 49.1761 214.352 48.8097 213.903 48.5426C213.46 48.2756 212.943 48.142 212.352 48.142C211.721 48.142 211.167 48.2955 210.69 48.6023C210.213 48.9034 209.841 49.3011 209.574 49.7955C209.312 50.2841 209.179 50.821 209.173 51.4062V53.2216C209.173 53.983 209.312 54.6364 209.591 55.1818C209.869 55.7216 210.258 56.1364 210.758 56.4261C211.258 56.7102 211.843 56.8523 212.514 56.8523C212.963 56.8523 213.369 56.7898 213.733 56.6648C214.096 56.5341 214.412 56.3438 214.679 56.0938C214.946 55.8438 215.147 55.5341 215.284 55.1648L218.164 55.4886C217.983 56.25 217.636 56.9148 217.125 57.483C216.619 58.0455 215.971 58.483 215.182 58.7955C214.392 59.1023 213.488 59.2557 212.471 59.2557ZM221.622 59V45.9091H224.614V48.0909H224.75C224.989 47.3352 225.398 46.7528 225.978 46.3438C226.563 45.929 227.23 45.7216 227.98 45.7216C228.151 45.7216 228.341 45.7301 228.551 45.7472C228.767 45.7585 228.946 45.7784 229.088 45.8068V48.6449C228.958 48.5994 228.75 48.5597 228.466 48.5256C228.188 48.4858 227.918 48.4659 227.657 48.4659C227.094 48.4659 226.588 48.5881 226.139 48.8324C225.696 49.071 225.347 49.4034 225.091 49.8295C224.835 50.2557 224.708 50.7472 224.708 51.304V59H221.622ZM231.858 45.9091H234.943V59.75C234.943 60.6932 234.764 61.4716 234.406 62.0852C234.048 62.6989 233.531 63.1563 232.855 63.4574C232.179 63.7585 231.358 63.9091 230.392 63.9091C230.278 63.9091 230.173 63.9063 230.077 63.9006C229.98 63.9006 229.875 63.8977 229.761 63.892V61.3778C229.847 61.3835 229.923 61.3864 229.992 61.3864C230.06 61.392 230.131 61.3949 230.205 61.3949C230.796 61.3949 231.219 61.25 231.475 60.9602C231.73 60.6761 231.858 60.2585 231.858 59.7074V45.9091ZM233.392 44.0511C232.898 44.0511 232.475 43.8892 232.122 43.5653C231.776 43.2358 231.602 42.8409 231.602 42.3807C231.602 41.9148 231.776 41.5199 232.122 41.196C232.475 40.8665 232.898 40.7017 233.392 40.7017C233.881 40.7017 234.298 40.8665 234.645 41.196C234.997 41.5199 235.173 41.9148 235.173 42.3807C235.173 42.8409 234.997 43.2358 234.645 43.5653C234.298 43.8892 233.881 44.0511 233.392 44.0511ZM242.603 59.2642C241.773 59.2642 241.026 59.1165 240.361 58.821C239.702 58.5199 239.18 58.0767 238.793 57.4915C238.413 56.9062 238.222 56.1847 238.222 55.3267C238.222 54.5881 238.359 53.9773 238.631 53.4943C238.904 53.0114 239.276 52.625 239.748 52.3352C240.219 52.0455 240.751 51.8267 241.342 51.679C241.938 51.5256 242.555 51.4148 243.191 51.3466C243.958 51.267 244.58 51.196 245.057 51.1335C245.535 51.0653 245.881 50.9631 246.097 50.8267C246.319 50.6847 246.43 50.4659 246.43 50.1705V50.1193C246.43 49.4773 246.239 48.9801 245.859 48.6278C245.478 48.2756 244.93 48.0994 244.214 48.0994C243.458 48.0994 242.859 48.2642 242.415 48.5938C241.978 48.9233 241.682 49.3125 241.529 49.7614L238.648 49.3523C238.876 48.5568 239.251 47.892 239.773 47.358C240.296 46.8182 240.935 46.4148 241.691 46.1477C242.447 45.875 243.282 45.7386 244.197 45.7386C244.827 45.7386 245.455 45.8125 246.08 45.9602C246.705 46.108 247.276 46.3523 247.793 46.6932C248.31 47.0284 248.725 47.4858 249.038 48.0653C249.356 48.6449 249.515 49.3693 249.515 50.2386V59H246.549V57.2017H246.447C246.259 57.5653 245.995 57.9062 245.654 58.2244C245.319 58.5369 244.896 58.7898 244.384 58.983C243.878 59.1705 243.285 59.2642 242.603 59.2642ZM243.404 56.9972C244.023 56.9972 244.56 56.875 245.015 56.6307C245.469 56.3807 245.819 56.0511 246.063 55.642C246.313 55.233 246.438 54.7869 246.438 54.304V52.7614C246.342 52.8409 246.177 52.9148 245.944 52.983C245.717 53.0511 245.461 53.1108 245.177 53.1619C244.893 53.2131 244.611 53.2585 244.333 53.2983C244.055 53.3381 243.813 53.3722 243.609 53.4006C243.148 53.4631 242.736 53.5653 242.373 53.7074C242.009 53.8494 241.722 54.0483 241.512 54.304C241.302 54.554 241.197 54.8778 241.197 55.2756C241.197 55.8438 241.404 56.2727 241.819 56.5625C242.234 56.8523 242.762 56.9972 243.404 56.9972ZM258.195 59.2301C257.167 59.2301 256.246 58.9659 255.434 58.4375C254.621 57.9091 253.979 57.142 253.508 56.1364C253.036 55.1307 252.8 53.9091 252.8 52.4716C252.8 51.017 253.039 49.7898 253.516 48.7898C253.999 47.7841 254.65 47.0256 255.468 46.5142C256.286 45.9972 257.198 45.7386 258.204 45.7386C258.971 45.7386 259.601 45.8693 260.096 46.1307C260.59 46.3864 260.982 46.696 261.272 47.0597C261.562 47.4176 261.786 47.7557 261.945 48.0739H262.073V41.5455H265.167V59H262.133V56.9375H261.945C261.786 57.2557 261.556 57.5937 261.255 57.9517C260.954 58.304 260.556 58.6051 260.062 58.8551C259.567 59.1051 258.945 59.2301 258.195 59.2301ZM259.056 56.6989C259.709 56.6989 260.266 56.5227 260.726 56.1705C261.187 55.8125 261.536 55.3153 261.775 54.679C262.013 54.0426 262.133 53.3011 262.133 52.4545C262.133 51.608 262.013 50.8722 261.775 50.2472C261.542 49.6222 261.195 49.1364 260.735 48.7898C260.28 48.4432 259.721 48.2699 259.056 48.2699C258.368 48.2699 257.794 48.4489 257.334 48.8068C256.874 49.1648 256.527 49.6591 256.294 50.2898C256.062 50.9205 255.945 51.642 255.945 52.4545C255.945 53.2727 256.062 54.0028 256.294 54.6449C256.533 55.2812 256.883 55.7841 257.343 56.1534C257.809 56.517 258.38 56.6989 259.056 56.6989ZM269.174 59V45.9091H272.26V59H269.174ZM270.725 44.0511C270.237 44.0511 269.816 43.8892 269.464 43.5653C269.112 43.2358 268.936 42.8409 268.936 42.3807C268.936 41.9148 269.112 41.5199 269.464 41.196C269.816 40.8665 270.237 40.7017 270.725 40.7017C271.22 40.7017 271.64 40.8665 271.987 41.196C272.339 41.5199 272.515 41.9148 272.515 42.3807C272.515 42.8409 272.339 43.2358 271.987 43.5653C271.64 43.8892 271.22 44.0511 270.725 44.0511ZM282.825 63.9091V45.9091H285.859V48.0739H286.038C286.197 47.7557 286.422 47.4176 286.712 47.0597C287.001 46.696 287.393 46.3864 287.888 46.1307C288.382 45.8693 289.013 45.7386 289.78 45.7386C290.791 45.7386 291.703 45.9972 292.516 46.5142C293.334 47.0256 293.981 47.7841 294.459 48.7898C294.942 49.7898 295.183 51.017 295.183 52.4716C295.183 53.9091 294.947 55.1307 294.476 56.1364C294.004 57.142 293.362 57.9091 292.55 58.4375C291.737 58.9659 290.817 59.2301 289.788 59.2301C289.038 59.2301 288.416 59.1051 287.922 58.8551C287.428 58.6051 287.03 58.304 286.729 57.9517C286.433 57.5937 286.203 57.2557 286.038 56.9375H285.91V63.9091H282.825ZM285.851 52.4545C285.851 53.3011 285.97 54.0426 286.209 54.679C286.453 55.3153 286.803 55.8125 287.257 56.1705C287.717 56.5227 288.274 56.6989 288.928 56.6989C289.609 56.6989 290.18 56.517 290.641 56.1534C291.101 55.7841 291.447 55.2812 291.68 54.6449C291.919 54.0028 292.038 53.2727 292.038 52.4545C292.038 51.642 291.922 50.9205 291.689 50.2898C291.456 49.6591 291.109 49.1648 290.649 48.8068C290.189 48.4489 289.615 48.2699 288.928 48.2699C288.268 48.2699 287.709 48.4432 287.249 48.7898C286.788 49.1364 286.439 49.6222 286.2 50.2472C285.967 50.8722 285.851 51.608 285.851 52.4545ZM302.312 59.2642C301.483 59.2642 300.736 59.1165 300.071 58.821C299.412 58.5199 298.889 58.0767 298.503 57.4915C298.122 56.9062 297.932 56.1847 297.932 55.3267C297.932 54.5881 298.068 53.9773 298.341 53.4943C298.613 53.0114 298.986 52.625 299.457 52.3352C299.929 52.0455 300.46 51.8267 301.051 51.679C301.648 51.5256 302.264 51.4148 302.9 51.3466C303.667 51.267 304.29 51.196 304.767 51.1335C305.244 51.0653 305.591 50.9631 305.807 50.8267C306.028 50.6847 306.139 50.4659 306.139 50.1705V50.1193C306.139 49.4773 305.949 48.9801 305.568 48.6278C305.187 48.2756 304.639 48.0994 303.923 48.0994C303.167 48.0994 302.568 48.2642 302.125 48.5938C301.687 48.9233 301.392 49.3125 301.238 49.7614L298.358 49.3523C298.585 48.5568 298.96 47.892 299.483 47.358C300.005 46.8182 300.645 46.4148 301.4 46.1477C302.156 45.875 302.991 45.7386 303.906 45.7386C304.537 45.7386 305.165 45.8125 305.79 45.9602C306.415 46.108 306.986 46.3523 307.503 46.6932C308.02 47.0284 308.434 47.4858 308.747 48.0653C309.065 48.6449 309.224 49.3693 309.224 50.2386V59H306.258V57.2017H306.156C305.969 57.5653 305.704 57.9062 305.363 58.2244C305.028 58.5369 304.605 58.7898 304.094 58.983C303.588 59.1705 302.994 59.2642 302.312 59.2642ZM303.113 56.9972C303.733 56.9972 304.27 56.875 304.724 56.6307C305.179 56.3807 305.528 56.0511 305.773 55.642C306.023 55.233 306.148 54.7869 306.148 54.304V52.7614C306.051 52.8409 305.886 52.9148 305.653 52.983C305.426 53.0511 305.17 53.1108 304.886 53.1619C304.602 53.2131 304.321 53.2585 304.042 53.2983C303.764 53.3381 303.523 53.3722 303.318 53.4006C302.858 53.4631 302.446 53.5653 302.082 53.7074C301.719 53.8494 301.432 54.0483 301.221 54.304C301.011 54.554 300.906 54.8778 300.906 55.2756C300.906 55.8438 301.113 56.2727 301.528 56.5625C301.943 56.8523 302.471 56.9972 303.113 56.9972ZM317.904 59.2301C316.876 59.2301 315.956 58.9659 315.143 58.4375C314.331 57.9091 313.689 57.142 313.217 56.1364C312.745 55.1307 312.51 53.9091 312.51 52.4716C312.51 51.017 312.748 49.7898 313.225 48.7898C313.708 47.7841 314.359 47.0256 315.177 46.5142C315.995 45.9972 316.907 45.7386 317.913 45.7386C318.68 45.7386 319.311 45.8693 319.805 46.1307C320.299 46.3864 320.691 46.696 320.981 47.0597C321.271 47.4176 321.495 47.7557 321.654 48.0739H321.782V41.5455H324.876V59H321.842V56.9375H321.654C321.495 57.2557 321.265 57.5937 320.964 57.9517C320.663 58.304 320.265 58.6051 319.771 58.8551C319.277 59.1051 318.654 59.2301 317.904 59.2301ZM318.765 56.6989C319.419 56.6989 319.975 56.5227 320.436 56.1705C320.896 55.8125 321.245 55.3153 321.484 54.679C321.723 54.0426 321.842 53.3011 321.842 52.4545C321.842 51.608 321.723 50.8722 321.484 50.2472C321.251 49.6222 320.904 49.1364 320.444 48.7898C319.99 48.4432 319.43 48.2699 318.765 48.2699C318.078 48.2699 317.504 48.4489 317.044 48.8068C316.583 49.1648 316.237 49.6591 316.004 50.2898C315.771 50.9205 315.654 51.642 315.654 52.4545C315.654 53.2727 315.771 54.0028 316.004 54.6449C316.243 55.2812 316.592 55.7841 317.052 56.1534C317.518 56.517 318.089 56.6989 318.765 56.6989ZM332.651 59.2642C331.821 59.2642 331.074 59.1165 330.409 58.821C329.75 58.5199 329.227 58.0767 328.841 57.4915C328.46 56.9062 328.27 56.1847 328.27 55.3267C328.27 54.5881 328.406 53.9773 328.679 53.4943C328.952 53.0114 329.324 52.625 329.796 52.3352C330.267 52.0455 330.798 51.8267 331.389 51.679C331.986 51.5256 332.602 51.4148 333.239 51.3466C334.006 51.267 334.628 51.196 335.105 51.1335C335.583 51.0653 335.929 50.9631 336.145 50.8267C336.367 50.6847 336.477 50.4659 336.477 50.1705V50.1193C336.477 49.4773 336.287 48.9801 335.906 48.6278C335.526 48.2756 334.977 48.0994 334.261 48.0994C333.506 48.0994 332.906 48.2642 332.463 48.5938C332.026 48.9233 331.73 49.3125 331.577 49.7614L328.696 49.3523C328.923 48.5568 329.298 47.892 329.821 47.358C330.344 46.8182 330.983 46.4148 331.739 46.1477C332.494 45.875 333.33 45.7386 334.244 45.7386C334.875 45.7386 335.503 45.8125 336.128 45.9602C336.753 46.108 337.324 46.3523 337.841 46.6932C338.358 47.0284 338.773 47.4858 339.085 48.0653C339.404 48.6449 339.563 49.3693 339.563 50.2386V59H336.597V57.2017H336.494C336.307 57.5653 336.043 57.9062 335.702 58.2244C335.367 58.5369 334.943 58.7898 334.432 58.983C333.926 59.1705 333.333 59.2642 332.651 59.2642ZM333.452 56.9972C334.071 56.9972 334.608 56.875 335.063 56.6307C335.517 56.3807 335.867 56.0511 336.111 55.642C336.361 55.233 336.486 54.7869 336.486 54.304V52.7614C336.389 52.8409 336.225 52.9148 335.992 52.983C335.764 53.0511 335.509 53.1108 335.225 53.1619C334.94 53.2131 334.659 53.2585 334.381 53.2983C334.102 53.3381 333.861 53.3722 333.656 53.4006C333.196 53.4631 332.784 53.5653 332.421 53.7074C332.057 53.8494 331.77 54.0483 331.56 54.304C331.35 54.554 331.244 54.8778 331.244 55.2756C331.244 55.8438 331.452 56.2727 331.867 56.5625C332.281 56.8523 332.81 56.9972 333.452 56.9972ZM350.058 63.9091V45.9091H353.092V48.0739H353.271C353.43 47.7557 353.655 47.4176 353.944 47.0597C354.234 46.696 354.626 46.3864 355.121 46.1307C355.615 45.8693 356.246 45.7386 357.013 45.7386C358.024 45.7386 358.936 45.9972 359.748 46.5142C360.567 47.0256 361.214 47.7841 361.692 48.7898C362.175 49.7898 362.416 51.017 362.416 52.4716C362.416 53.9091 362.18 55.1307 361.709 56.1364C361.237 57.142 360.595 57.9091 359.782 58.4375C358.97 58.9659 358.05 59.2301 357.021 59.2301C356.271 59.2301 355.649 59.1051 355.155 58.8551C354.66 58.6051 354.263 58.304 353.961 57.9517C353.666 57.5937 353.436 57.2557 353.271 56.9375H353.143V63.9091H350.058ZM353.084 52.4545C353.084 53.3011 353.203 54.0426 353.442 54.679C353.686 55.3153 354.035 55.8125 354.49 56.1705C354.95 56.5227 355.507 56.6989 356.16 56.6989C356.842 56.6989 357.413 56.517 357.873 56.1534C358.334 55.7841 358.68 55.2812 358.913 54.6449C359.152 54.0028 359.271 53.2727 359.271 52.4545C359.271 51.642 359.155 50.9205 358.922 50.2898C358.689 49.6591 358.342 49.1648 357.882 48.8068C357.422 48.4489 356.848 48.2699 356.16 48.2699C355.501 48.2699 354.942 48.4432 354.481 48.7898C354.021 49.1364 353.672 49.6222 353.433 50.2472C353.2 50.8722 353.084 51.608 353.084 52.4545ZM371.573 59.2557C370.261 59.2557 369.127 58.983 368.173 58.4375C367.224 57.8864 366.494 57.108 365.983 56.1023C365.471 55.0909 365.216 53.9006 365.216 52.5312C365.216 51.1847 365.471 50.0028 365.983 48.9858C366.5 47.9631 367.221 47.1676 368.147 46.5994C369.073 46.0256 370.162 45.7386 371.412 45.7386C372.218 45.7386 372.98 45.8693 373.696 46.1307C374.417 46.3864 375.054 46.7841 375.605 47.3239C376.162 47.8636 376.599 48.5511 376.917 49.3864C377.235 50.2159 377.395 51.2045 377.395 52.3523V53.2983H366.664V51.2188H374.437C374.431 50.6278 374.304 50.1023 374.054 49.642C373.804 49.1761 373.454 48.8097 373.005 48.5426C372.562 48.2756 372.045 48.142 371.454 48.142C370.823 48.142 370.27 48.2955 369.792 48.6023C369.315 48.9034 368.943 49.3011 368.676 49.7955C368.414 50.2841 368.281 50.821 368.275 51.4062V53.2216C368.275 53.983 368.414 54.6364 368.693 55.1818C368.971 55.7216 369.36 56.1364 369.86 56.4261C370.36 56.7102 370.946 56.8523 371.616 56.8523C372.065 56.8523 372.471 56.7898 372.835 56.6648C373.198 56.5341 373.514 56.3438 373.781 56.0938C374.048 55.8438 374.25 55.5341 374.386 55.1648L377.267 55.4886C377.085 56.25 376.738 56.9148 376.227 57.483C375.721 58.0455 375.073 58.483 374.284 58.7955C373.494 59.1023 372.591 59.2557 371.573 59.2557ZM380.725 59V45.9091H383.716V48.0909H383.852C384.091 47.3352 384.5 46.7528 385.08 46.3438C385.665 45.929 386.333 45.7216 387.083 45.7216C387.253 45.7216 387.443 45.7301 387.654 45.7472C387.869 45.7585 388.048 45.7784 388.191 45.8068V48.6449C388.06 48.5994 387.852 48.5597 387.568 48.5256C387.29 48.4858 387.02 48.4659 386.759 48.4659C386.196 48.4659 385.691 48.5881 385.242 48.8324C384.798 49.071 384.449 49.4034 384.193 49.8295C383.938 50.2557 383.81 50.7472 383.81 51.304V59H380.725ZM396.131 59.2557C394.825 59.2557 393.702 58.9688 392.765 58.3949C391.833 57.821 391.114 57.0284 390.609 56.017C390.109 55 389.859 53.8295 389.859 52.5057C389.859 51.1761 390.114 50.0028 390.626 48.9858C391.137 47.9631 391.859 47.1676 392.79 46.5994C393.728 46.0256 394.836 45.7386 396.114 45.7386C397.177 45.7386 398.117 45.9347 398.935 46.3267C399.759 46.7131 400.415 47.2614 400.904 47.9716C401.393 48.6761 401.671 49.5 401.739 50.4432H398.79C398.671 49.8125 398.387 49.2869 397.938 48.8665C397.495 48.4403 396.901 48.2273 396.157 48.2273C395.526 48.2273 394.972 48.3977 394.495 48.7386C394.018 49.0739 393.646 49.5568 393.379 50.1875C393.117 50.8182 392.987 51.5739 392.987 52.4545C392.987 53.3466 393.117 54.1136 393.379 54.7557C393.64 55.392 394.006 55.8835 394.478 56.2301C394.955 56.571 395.515 56.7415 396.157 56.7415C396.612 56.7415 397.018 56.6562 397.376 56.4858C397.739 56.3097 398.043 56.0568 398.288 55.7273C398.532 55.3977 398.7 54.9972 398.79 54.5256H401.739C401.665 55.4517 401.393 56.2727 400.921 56.9886C400.45 57.6989 399.808 58.2557 398.995 58.6591C398.183 59.0568 397.228 59.2557 396.131 59.2557ZM408.76 59.2642C407.93 59.2642 407.183 59.1165 406.518 58.821C405.859 58.5199 405.336 58.0767 404.95 57.4915C404.569 56.9062 404.379 56.1847 404.379 55.3267C404.379 54.5881 404.515 53.9773 404.788 53.4943C405.061 53.0114 405.433 52.625 405.905 52.3352C406.376 52.0455 406.908 51.8267 407.498 51.679C408.095 51.5256 408.711 51.4148 409.348 51.3466C410.115 51.267 410.737 51.196 411.214 51.1335C411.692 51.0653 412.038 50.9631 412.254 50.8267C412.476 50.6847 412.586 50.4659 412.586 50.1705V50.1193C412.586 49.4773 412.396 48.9801 412.015 48.6278C411.635 48.2756 411.086 48.0994 410.371 48.0994C409.615 48.0994 409.015 48.2642 408.572 48.5938C408.135 48.9233 407.839 49.3125 407.686 49.7614L404.805 49.3523C405.033 48.5568 405.408 47.892 405.93 47.358C406.453 46.8182 407.092 46.4148 407.848 46.1477C408.604 45.875 409.439 45.7386 410.354 45.7386C410.984 45.7386 411.612 45.8125 412.237 45.9602C412.862 46.108 413.433 46.3523 413.95 46.6932C414.467 47.0284 414.882 47.4858 415.194 48.0653C415.513 48.6449 415.672 49.3693 415.672 50.2386V59H412.706V57.2017H412.604C412.416 57.5653 412.152 57.9062 411.811 58.2244C411.476 58.5369 411.052 58.7898 410.541 58.983C410.035 59.1705 409.442 59.2642 408.76 59.2642ZM409.561 56.9972C410.18 56.9972 410.717 56.875 411.172 56.6307C411.626 56.3807 411.976 56.0511 412.22 55.642C412.47 55.233 412.595 54.7869 412.595 54.304V52.7614C412.498 52.8409 412.334 52.9148 412.101 52.983C411.873 53.0511 411.618 53.1108 411.334 53.1619C411.05 53.2131 410.768 53.2585 410.49 53.2983C410.211 53.3381 409.97 53.3722 409.765 53.4006C409.305 53.4631 408.893 53.5653 408.53 53.7074C408.166 53.8494 407.879 54.0483 407.669 54.304C407.459 54.554 407.354 54.8778 407.354 55.2756C407.354 55.8438 407.561 56.2727 407.976 56.5625C408.39 56.8523 408.919 56.9972 409.561 56.9972ZM422.306 54.892L422.298 51.1676H422.792L427.497 45.9091H431.102L425.315 52.3523H424.676L422.306 54.892ZM419.494 59V41.5455H422.579V59H419.494ZM427.71 59L423.449 53.0426L425.528 50.8693L431.4 59H427.71ZM437.645 59.2642C436.816 59.2642 436.068 59.1165 435.404 58.821C434.745 58.5199 434.222 58.0767 433.835 57.4915C433.455 56.9062 433.264 56.1847 433.264 55.3267C433.264 54.5881 433.401 53.9773 433.673 53.4943C433.946 53.0114 434.318 52.625 434.79 52.3352C435.262 52.0455 435.793 51.8267 436.384 51.679C436.98 51.5256 437.597 51.4148 438.233 51.3466C439 51.267 439.622 51.196 440.1 51.1335C440.577 51.0653 440.923 50.9631 441.139 50.8267C441.361 50.6847 441.472 50.4659 441.472 50.1705V50.1193C441.472 49.4773 441.281 48.9801 440.901 48.6278C440.52 48.2756 439.972 48.0994 439.256 48.0994C438.5 48.0994 437.901 48.2642 437.458 48.5938C437.02 48.9233 436.725 49.3125 436.571 49.7614L433.691 49.3523C433.918 48.5568 434.293 47.892 434.816 47.358C435.338 46.8182 435.977 46.4148 436.733 46.1477C437.489 45.875 438.324 45.7386 439.239 45.7386C439.87 45.7386 440.497 45.8125 441.122 45.9602C441.747 46.108 442.318 46.3523 442.835 46.6932C443.352 47.0284 443.767 47.4858 444.08 48.0653C444.398 48.6449 444.557 49.3693 444.557 50.2386V59H441.591V57.2017H441.489C441.301 57.5653 441.037 57.9062 440.696 58.2244C440.361 58.5369 439.938 58.7898 439.426 58.983C438.921 59.1705 438.327 59.2642 437.645 59.2642ZM438.446 56.9972C439.066 56.9972 439.602 56.875 440.057 56.6307C440.512 56.3807 440.861 56.0511 441.105 55.642C441.355 55.233 441.48 54.7869 441.48 54.304V52.7614C441.384 52.8409 441.219 52.9148 440.986 52.983C440.759 53.0511 440.503 53.1108 440.219 53.1619C439.935 53.2131 439.654 53.2585 439.375 53.2983C439.097 53.3381 438.855 53.3722 438.651 53.4006C438.191 53.4631 437.779 53.5653 437.415 53.7074C437.051 53.8494 436.764 54.0483 436.554 54.304C436.344 54.554 436.239 54.8778 436.239 55.2756C436.239 55.8438 436.446 56.2727 436.861 56.5625C437.276 56.8523 437.804 56.9972 438.446 56.9972ZM448.379 63.9091V45.9091H451.413V48.0739H451.592C451.751 47.7557 451.976 47.4176 452.266 47.0597C452.555 46.696 452.947 46.3864 453.442 46.1307C453.936 45.8693 454.567 45.7386 455.334 45.7386C456.345 45.7386 457.257 45.9972 458.07 46.5142C458.888 47.0256 459.536 47.7841 460.013 48.7898C460.496 49.7898 460.737 51.017 460.737 52.4716C460.737 53.9091 460.501 55.1307 460.03 56.1364C459.558 57.142 458.916 57.9091 458.104 58.4375C457.291 58.9659 456.371 59.2301 455.342 59.2301C454.592 59.2301 453.97 59.1051 453.476 58.8551C452.982 58.6051 452.584 58.304 452.283 57.9517C451.987 57.5937 451.757 57.2557 451.592 56.9375H451.465V63.9091H448.379ZM451.405 52.4545C451.405 53.3011 451.524 54.0426 451.763 54.679C452.007 55.3153 452.357 55.8125 452.811 56.1705C453.271 56.5227 453.828 56.6989 454.482 56.6989C455.163 56.6989 455.734 56.517 456.195 56.1534C456.655 55.7841 457.001 55.2812 457.234 54.6449C457.473 54.0028 457.592 53.2727 457.592 52.4545C457.592 51.642 457.476 50.9205 457.243 50.2898C457.01 49.6591 456.663 49.1648 456.203 48.8068C455.743 48.4489 455.169 48.2699 454.482 48.2699C453.822 48.2699 453.263 48.4432 452.803 48.7898C452.342 49.1364 451.993 49.6222 451.754 50.2472C451.521 50.8722 451.405 51.608 451.405 52.4545ZM467.866 59.2642C467.037 59.2642 466.29 59.1165 465.625 58.821C464.966 58.5199 464.443 58.0767 464.057 57.4915C463.676 56.9062 463.486 56.1847 463.486 55.3267C463.486 54.5881 463.622 53.9773 463.895 53.4943C464.167 53.0114 464.54 52.625 465.011 52.3352C465.483 52.0455 466.014 51.8267 466.605 51.679C467.202 51.5256 467.818 51.4148 468.454 51.3466C469.221 51.267 469.844 51.196 470.321 51.1335C470.798 51.0653 471.145 50.9631 471.361 50.8267C471.582 50.6847 471.693 50.4659 471.693 50.1705V50.1193C471.693 49.4773 471.503 48.9801 471.122 48.6278C470.741 48.2756 470.193 48.0994 469.477 48.0994C468.721 48.0994 468.122 48.2642 467.679 48.5938C467.241 48.9233 466.946 49.3125 466.792 49.7614L463.912 49.3523C464.139 48.5568 464.514 47.892 465.037 47.358C465.56 46.8182 466.199 46.4148 466.954 46.1477C467.71 45.875 468.545 45.7386 469.46 45.7386C470.091 45.7386 470.719 45.8125 471.344 45.9602C471.969 46.108 472.54 46.3523 473.057 46.6932C473.574 47.0284 473.989 47.4858 474.301 48.0653C474.619 48.6449 474.778 49.3693 474.778 50.2386V59H471.812V57.2017H471.71C471.523 57.5653 471.258 57.9062 470.917 58.2244C470.582 58.5369 470.159 58.7898 469.648 58.983C469.142 59.1705 468.548 59.2642 467.866 59.2642ZM468.667 56.9972C469.287 56.9972 469.824 56.875 470.278 56.6307C470.733 56.3807 471.082 56.0511 471.327 55.642C471.577 55.233 471.702 54.7869 471.702 54.304V52.7614C471.605 52.8409 471.44 52.9148 471.207 52.983C470.98 53.0511 470.724 53.1108 470.44 53.1619C470.156 53.2131 469.875 53.2585 469.596 53.2983C469.318 53.3381 469.077 53.3722 468.872 53.4006C468.412 53.4631 468 53.5653 467.636 53.7074C467.273 53.8494 466.986 54.0483 466.775 54.304C466.565 54.554 466.46 54.8778 466.46 55.2756C466.46 55.8438 466.667 56.2727 467.082 56.5625C467.497 56.8523 468.025 56.9972 468.667 56.9972ZM481.686 51.3295V59H478.601V45.9091H481.549V48.1335H481.703C482.004 47.4006 482.484 46.8182 483.143 46.3864C483.808 45.9545 484.629 45.7386 485.606 45.7386C486.51 45.7386 487.297 45.9318 487.967 46.3182C488.643 46.7045 489.166 47.2642 489.535 47.9972C489.91 48.7301 490.095 49.6193 490.089 50.6648V59H487.004V51.142C487.004 50.267 486.777 49.5824 486.322 49.0881C485.873 48.5937 485.251 48.3466 484.456 48.3466C483.916 48.3466 483.436 48.4659 483.015 48.7045C482.601 48.9375 482.274 49.2756 482.035 49.7188C481.802 50.1619 481.686 50.6989 481.686 51.3295ZM500.619 59V45.9091H503.704V59H500.619ZM502.17 44.0511C501.681 44.0511 501.261 43.8892 500.908 43.5653C500.556 43.2358 500.38 42.8409 500.38 42.3807C500.38 41.9148 500.556 41.5199 500.908 41.196C501.261 40.8665 501.681 40.7017 502.17 40.7017C502.664 40.7017 503.085 40.8665 503.431 41.196C503.783 41.5199 503.96 41.9148 503.96 42.3807C503.96 42.8409 503.783 43.2358 503.431 43.5653C503.085 43.8892 502.664 44.0511 502.17 44.0511ZM514.133 45.9091V48.2955H506.608V45.9091H514.133ZM508.466 42.7727H511.551V55.0625C511.551 55.4773 511.614 55.7955 511.739 56.017C511.869 56.233 512.04 56.3807 512.25 56.4602C512.46 56.5398 512.693 56.5795 512.949 56.5795C513.142 56.5795 513.318 56.5653 513.477 56.5369C513.642 56.5085 513.767 56.483 513.852 56.4602L514.372 58.8722C514.207 58.929 513.971 58.9915 513.665 59.0597C513.364 59.1278 512.994 59.1676 512.557 59.179C511.784 59.2017 511.088 59.0852 510.469 58.8295C509.849 58.5682 509.358 58.1648 508.994 57.6193C508.636 57.0739 508.46 56.392 508.466 55.5739V42.7727ZM525.777 53.4943V45.9091H528.863V59H525.871V56.6733H525.735C525.439 57.4062 524.954 58.0057 524.277 58.4716C523.607 58.9375 522.78 59.1705 521.797 59.1705C520.939 59.1705 520.181 58.9801 519.522 58.5994C518.868 58.2131 518.357 57.6534 517.988 56.9205C517.618 56.1818 517.434 55.2898 517.434 54.2443V45.9091H520.519V53.767C520.519 54.5966 520.746 55.2557 521.201 55.7443C521.655 56.233 522.252 56.4773 522.99 56.4773C523.445 56.4773 523.885 56.3665 524.312 56.1449C524.738 55.9233 525.087 55.5938 525.36 55.1562C525.638 54.7131 525.777 54.1591 525.777 53.4943ZM535.704 53.8693V53.6477C535.71 52.6193 535.806 51.8011 535.994 51.1932C536.187 50.5852 536.46 50.0966 536.812 49.7273C537.164 49.3523 537.593 49.0085 538.099 48.696C538.446 48.4801 538.755 48.2443 539.028 47.9886C539.306 47.7273 539.525 47.4375 539.684 47.1193C539.843 46.7955 539.923 46.4347 539.923 46.0369C539.923 45.5881 539.818 45.1989 539.608 44.8693C539.397 44.5398 539.113 44.2841 538.755 44.1023C538.403 43.9205 538.008 43.8295 537.571 43.8295C537.167 43.8295 536.784 43.9176 536.42 44.0938C536.062 44.2642 535.764 44.5256 535.525 44.8778C535.292 45.2244 535.161 45.6648 535.133 46.1989H532.099C532.127 45.1193 532.389 44.2159 532.883 43.4886C533.383 42.7614 534.042 42.2159 534.86 41.8523C535.684 41.4886 536.593 41.3068 537.588 41.3068C538.673 41.3068 539.627 41.4972 540.451 41.8778C541.281 42.2585 541.926 42.8011 542.386 43.5057C542.852 44.2045 543.085 45.0341 543.085 45.9943C543.085 46.642 542.98 47.2216 542.769 47.733C542.565 48.2443 542.272 48.6989 541.892 49.0966C541.511 49.4943 541.059 49.8494 540.536 50.1619C540.076 50.446 539.698 50.7415 539.403 51.0483C539.113 51.3551 538.897 51.7159 538.755 52.1307C538.619 52.5398 538.548 53.0455 538.542 53.6477V53.8693H535.704ZM537.187 59.1875C536.676 59.1875 536.235 59.0057 535.866 58.642C535.497 58.2784 535.312 57.8352 535.312 57.3125C535.312 56.8011 535.497 56.3636 535.866 56C536.235 55.6364 536.676 55.4545 537.187 55.4545C537.693 55.4545 538.13 55.6364 538.5 56C538.875 56.3636 539.062 56.8011 539.062 57.3125C539.062 57.6591 538.974 57.9744 538.798 58.2585C538.627 58.5426 538.4 58.7699 538.116 58.9403C537.838 59.1051 537.528 59.1875 537.187 59.1875Z" fill="black"/>
<path d="M38.7946 53.8671C40.9026 51.1727 45.2007 52.1961 45.8682 55.5514L50.9473 81.0822C51.3783 83.2489 49.9712 85.3548 47.8045 85.7858L18.1337 91.6877C14.4951 92.4115 11.917 88.2217 14.2029 85.2998L38.7946 53.8671Z" fill="white"/>
</svg>
