<svg width="577" height="136" viewBox="0 0 577 136" fill="none" xmlns="http://www.w3.org/2000/svg">
<rect x="42" width="535" height="136" rx="8" fill="white"/>
<path d="M75.7216 59V41.5455H82.4034C83.6648 41.5455 84.7131 41.7443 85.5483 42.142C86.3892 42.5341 87.017 43.071 87.4318 43.7528C87.8523 44.4347 88.0625 45.2074 88.0625 46.071C88.0625 46.7812 87.9261 47.3892 87.6534 47.8949C87.3807 48.3949 87.0142 48.8011 86.554 49.1136C86.0938 49.4261 85.5795 49.6506 85.0114 49.7869V49.9574C85.6307 49.9915 86.2244 50.1818 86.7926 50.5284C87.3665 50.8693 87.8352 51.3523 88.1989 51.9773C88.5625 52.6023 88.7443 53.358 88.7443 54.2443C88.7443 55.1477 88.5256 55.9602 88.0881 56.6818C87.6506 57.3977 86.9915 57.9631 86.1108 58.3778C85.2301 58.7926 84.1222 59 82.7869 59H75.7216ZM78.8835 56.358H82.2841C83.4318 56.358 84.2585 56.1392 84.7642 55.7017C85.2756 55.2585 85.5312 54.6903 85.5312 53.9972C85.5312 53.4801 85.4034 53.0142 85.1477 52.5994C84.892 52.179 84.5284 51.8494 84.0568 51.6108C83.5852 51.3665 83.0227 51.2443 82.3693 51.2443H78.8835V56.358ZM78.8835 48.9688H82.0114C82.5568 48.9688 83.0483 48.8693 83.4858 48.6705C83.9233 48.4659 84.267 48.179 84.517 47.8097C84.7727 47.4347 84.9006 46.9915 84.9006 46.4801C84.9006 45.804 84.6619 45.2472 84.1847 44.8097C83.7131 44.3722 83.0114 44.1534 82.0795 44.1534H78.8835V48.9688ZM95.8457 59.2642C95.0162 59.2642 94.269 59.1165 93.6042 58.821C92.9451 58.5199 92.4224 58.0767 92.0361 57.4915C91.6554 56.9062 91.465 56.1847 91.465 55.3267C91.465 54.5881 91.6014 53.9773 91.8741 53.4943C92.1468 53.0114 92.519 52.625 92.9906 52.3352C93.4622 52.0455 93.9934 51.8267 94.5843 51.679C95.1809 51.5256 95.7974 51.4148 96.4338 51.3466C97.2008 51.267 97.823 51.196 98.3003 51.1335C98.7775 51.0653 99.1241 50.9631 99.34 50.8267C99.5616 50.6847 99.6724 50.4659 99.6724 50.1705V50.1193C99.6724 49.4773 99.4821 48.9801 99.1014 48.6278C98.7207 48.2756 98.1724 48.0994 97.4565 48.0994C96.7008 48.0994 96.1014 48.2642 95.6582 48.5938C95.2207 48.9233 94.9253 49.3125 94.7718 49.7614L91.8912 49.3523C92.1184 48.5568 92.4934 47.892 93.0162 47.358C93.5389 46.8182 94.1781 46.4148 94.9338 46.1477C95.6895 45.875 96.5247 45.7386 97.4395 45.7386C98.0701 45.7386 98.698 45.8125 99.323 45.9602C99.948 46.108 100.519 46.3523 101.036 46.6932C101.553 47.0284 101.968 47.4858 102.28 48.0653C102.599 48.6449 102.758 49.3693 102.758 50.2386V59H99.7917V57.2017H99.6895C99.502 57.5653 99.2378 57.9062 98.8968 58.2244C98.5616 58.5369 98.1383 58.7898 97.627 58.983C97.1213 59.1705 96.5275 59.2642 95.8457 59.2642ZM96.6468 56.9972C97.2662 56.9972 97.8031 56.875 98.2576 56.6307C98.7122 56.3807 99.0616 56.0511 99.3059 55.642C99.5559 55.233 99.6809 54.7869 99.6809 54.304V52.7614C99.5843 52.8409 99.4196 52.9148 99.1866 52.983C98.9593 53.0511 98.7037 53.1108 98.4196 53.1619C98.1355 53.2131 97.8542 53.2585 97.5758 53.2983C97.2974 53.3381 97.0559 53.3722 96.8514 53.4006C96.3912 53.4631 95.9792 53.5653 95.6156 53.7074C95.252 53.8494 94.965 54.0483 94.7548 54.304C94.5446 54.554 94.4395 54.8778 94.4395 55.2756C94.4395 55.8438 94.6468 56.2727 95.0616 56.5625C95.4764 56.8523 96.0048 56.9972 96.6468 56.9972ZM112.273 64.1818C111.165 64.1818 110.213 64.0313 109.418 63.7301C108.623 63.4347 107.983 63.0369 107.5 62.5369C107.017 62.0369 106.682 61.483 106.495 60.875L109.273 60.2017C109.398 60.4574 109.58 60.7102 109.819 60.9602C110.057 61.2159 110.378 61.4261 110.782 61.5909C111.191 61.7614 111.705 61.8466 112.324 61.8466C113.199 61.8466 113.924 61.6335 114.498 61.2074C115.071 60.7869 115.358 60.0938 115.358 59.1278V56.6477H115.205C115.046 56.9659 114.813 57.2926 114.506 57.6278C114.205 57.9631 113.804 58.2443 113.304 58.4716C112.81 58.6989 112.188 58.8125 111.438 58.8125C110.432 58.8125 109.52 58.5767 108.702 58.1051C107.89 57.6278 107.242 56.9176 106.759 55.9744C106.282 55.0256 106.043 53.8381 106.043 52.4119C106.043 50.9744 106.282 49.7614 106.759 48.7727C107.242 47.7784 107.892 47.0256 108.711 46.5142C109.529 45.9972 110.441 45.7386 111.446 45.7386C112.213 45.7386 112.844 45.8693 113.338 46.1307C113.838 46.3864 114.236 46.696 114.532 47.0597C114.827 47.4176 115.052 47.7557 115.205 48.0739H115.375V45.9091H118.418V59.2131C118.418 60.3324 118.151 61.2585 117.617 61.9915C117.083 62.7244 116.353 63.2727 115.427 63.6364C114.5 64 113.449 64.1818 112.273 64.1818ZM112.299 56.392C112.952 56.392 113.509 56.233 113.969 55.9148C114.429 55.5966 114.779 55.1392 115.017 54.5426C115.256 53.946 115.375 53.2301 115.375 52.3949C115.375 51.571 115.256 50.8494 115.017 50.2301C114.784 49.6108 114.438 49.1307 113.978 48.7898C113.523 48.4432 112.963 48.2699 112.299 48.2699C111.611 48.2699 111.037 48.4489 110.577 48.8068C110.117 49.1648 109.77 49.6562 109.537 50.2812C109.304 50.9006 109.188 51.6051 109.188 52.3949C109.188 53.196 109.304 53.8977 109.537 54.5C109.776 55.0966 110.125 55.5625 110.586 55.8977C111.052 56.2273 111.623 56.392 112.299 56.392ZM126.067 59.2642C125.237 59.2642 124.49 59.1165 123.825 58.821C123.166 58.5199 122.644 58.0767 122.257 57.4915C121.877 56.9062 121.686 56.1847 121.686 55.3267C121.686 54.5881 121.823 53.9773 122.095 53.4943C122.368 53.0114 122.74 52.625 123.212 52.3352C123.683 52.0455 124.215 51.8267 124.806 51.679C125.402 51.5256 126.019 51.4148 126.655 51.3466C127.422 51.267 128.044 51.196 128.522 51.1335C128.999 51.0653 129.345 50.9631 129.561 50.8267C129.783 50.6847 129.894 50.4659 129.894 50.1705V50.1193C129.894 49.4773 129.703 48.9801 129.323 48.6278C128.942 48.2756 128.394 48.0994 127.678 48.0994C126.922 48.0994 126.323 48.2642 125.879 48.5938C125.442 48.9233 125.147 49.3125 124.993 49.7614L122.112 49.3523C122.34 48.5568 122.715 47.892 123.237 47.358C123.76 46.8182 124.399 46.4148 125.155 46.1477C125.911 45.875 126.746 45.7386 127.661 45.7386C128.291 45.7386 128.919 45.8125 129.544 45.9602C130.169 46.108 130.74 46.3523 131.257 46.6932C131.774 47.0284 132.189 47.4858 132.502 48.0653C132.82 48.6449 132.979 49.3693 132.979 50.2386V59H130.013V57.2017H129.911C129.723 57.5653 129.459 57.9062 129.118 58.2244C128.783 58.5369 128.36 58.7898 127.848 58.983C127.343 59.1705 126.749 59.2642 126.067 59.2642ZM126.868 56.9972C127.487 56.9972 128.024 56.875 128.479 56.6307C128.933 56.3807 129.283 56.0511 129.527 55.642C129.777 55.233 129.902 54.7869 129.902 54.304V52.7614C129.806 52.8409 129.641 52.9148 129.408 52.983C129.181 53.0511 128.925 53.1108 128.641 53.1619C128.357 53.2131 128.075 53.2585 127.797 53.2983C127.519 53.3381 127.277 53.3722 127.073 53.4006C126.612 53.4631 126.2 53.5653 125.837 53.7074C125.473 53.8494 125.186 54.0483 124.976 54.304C124.766 54.554 124.661 54.8778 124.661 55.2756C124.661 55.8438 124.868 56.2727 125.283 56.5625C125.698 56.8523 126.226 56.9972 126.868 56.9972ZM136.801 59V45.9091H139.886V59H136.801ZM138.352 44.0511C137.864 44.0511 137.443 43.8892 137.091 43.5653C136.739 43.2358 136.563 42.8409 136.563 42.3807C136.563 41.9148 136.739 41.5199 137.091 41.196C137.443 40.8665 137.864 40.7017 138.352 40.7017C138.847 40.7017 139.267 40.8665 139.614 41.196C139.966 41.5199 140.142 41.9148 140.142 42.3807C140.142 42.8409 139.966 43.2358 139.614 43.5653C139.267 43.8892 138.847 44.0511 138.352 44.0511ZM143.779 59V45.9091H146.728V48.1335H146.881C147.154 47.3835 147.606 46.7983 148.236 46.3778C148.867 45.9517 149.62 45.7386 150.495 45.7386C151.381 45.7386 152.128 45.9545 152.736 46.3864C153.35 46.8125 153.782 47.3949 154.032 48.1335H154.168C154.458 47.4062 154.947 46.8267 155.634 46.3949C156.327 45.9574 157.148 45.7386 158.097 45.7386C159.302 45.7386 160.285 46.1193 161.046 46.8807C161.807 47.642 162.188 48.7528 162.188 50.2131V59H159.094V50.6903C159.094 49.8778 158.878 49.2841 158.447 48.9091C158.015 48.5284 157.486 48.3381 156.861 48.3381C156.117 48.3381 155.535 48.571 155.114 49.0369C154.699 49.4972 154.492 50.0966 154.492 50.8352V59H151.466V50.5625C151.466 49.8864 151.262 49.3466 150.853 48.9432C150.449 48.5398 149.921 48.3381 149.268 48.3381C148.824 48.3381 148.421 48.4517 148.057 48.679C147.694 48.9006 147.404 49.2159 147.188 49.625C146.972 50.0284 146.864 50.5 146.864 51.0398V59H143.779ZM169.805 59.2642C168.976 59.2642 168.228 59.1165 167.564 58.821C166.905 58.5199 166.382 58.0767 165.995 57.4915C165.615 56.9062 165.424 56.1847 165.424 55.3267C165.424 54.5881 165.561 53.9773 165.833 53.4943C166.106 53.0114 166.478 52.625 166.95 52.3352C167.422 52.0455 167.953 51.8267 168.544 51.679C169.14 51.5256 169.757 51.4148 170.393 51.3466C171.16 51.267 171.782 51.196 172.26 51.1335C172.737 51.0653 173.083 50.9631 173.299 50.8267C173.521 50.6847 173.632 50.4659 173.632 50.1705V50.1193C173.632 49.4773 173.441 48.9801 173.061 48.6278C172.68 48.2756 172.132 48.0994 171.416 48.0994C170.66 48.0994 170.061 48.2642 169.618 48.5938C169.18 48.9233 168.885 49.3125 168.731 49.7614L165.851 49.3523C166.078 48.5568 166.453 47.892 166.976 47.358C167.498 46.8182 168.137 46.4148 168.893 46.1477C169.649 45.875 170.484 45.7386 171.399 45.7386C172.03 45.7386 172.657 45.8125 173.282 45.9602C173.907 46.108 174.478 46.3523 174.995 46.6932C175.512 47.0284 175.927 47.4858 176.24 48.0653C176.558 48.6449 176.717 49.3693 176.717 50.2386V59H173.751V57.2017H173.649C173.461 57.5653 173.197 57.9062 172.856 58.2244C172.521 58.5369 172.098 58.7898 171.586 58.983C171.081 59.1705 170.487 59.2642 169.805 59.2642ZM170.606 56.9972C171.226 56.9972 171.762 56.875 172.217 56.6307C172.672 56.3807 173.021 56.0511 173.265 55.642C173.515 55.233 173.64 54.7869 173.64 54.304V52.7614C173.544 52.8409 173.379 52.9148 173.146 52.983C172.919 53.0511 172.663 53.1108 172.379 53.1619C172.095 53.2131 171.814 53.2585 171.535 53.2983C171.257 53.3381 171.015 53.3722 170.811 53.4006C170.351 53.4631 169.939 53.5653 169.575 53.7074C169.211 53.8494 168.924 54.0483 168.714 54.304C168.504 54.554 168.399 54.8778 168.399 55.2756C168.399 55.8438 168.606 56.2727 169.021 56.5625C169.436 56.8523 169.964 56.9972 170.606 56.9972ZM183.625 51.3295V59H180.539V45.9091H183.488V48.1335H183.642C183.943 47.4006 184.423 46.8182 185.082 46.3864C185.747 45.9545 186.568 45.7386 187.545 45.7386C188.448 45.7386 189.235 45.9318 189.906 46.3182C190.582 46.7045 191.105 47.2642 191.474 47.9972C191.849 48.7301 192.034 49.6193 192.028 50.6648V59H188.943V51.142C188.943 50.267 188.715 49.5824 188.261 49.0881C187.812 48.5937 187.19 48.3466 186.394 48.3466C185.855 48.3466 185.375 48.4659 184.954 48.7045C184.539 48.9375 184.213 49.2756 183.974 49.7188C183.741 50.1619 183.625 50.6989 183.625 51.3295ZM199.651 59.2642C198.822 59.2642 198.075 59.1165 197.41 58.821C196.751 58.5199 196.228 58.0767 195.842 57.4915C195.461 56.9062 195.271 56.1847 195.271 55.3267C195.271 54.5881 195.407 53.9773 195.68 53.4943C195.952 53.0114 196.325 52.625 196.796 52.3352C197.268 52.0455 197.799 51.8267 198.39 51.679C198.987 51.5256 199.603 51.4148 200.239 51.3466C201.006 51.267 201.629 51.196 202.106 51.1335C202.583 51.0653 202.93 50.9631 203.146 50.8267C203.367 50.6847 203.478 50.4659 203.478 50.1705V50.1193C203.478 49.4773 203.288 48.9801 202.907 48.6278C202.526 48.2756 201.978 48.0994 201.262 48.0994C200.506 48.0994 199.907 48.2642 199.464 48.5938C199.026 48.9233 198.731 49.3125 198.577 49.7614L195.697 49.3523C195.924 48.5568 196.299 47.892 196.822 47.358C197.345 46.8182 197.984 46.4148 198.739 46.1477C199.495 45.875 200.33 45.7386 201.245 45.7386C201.876 45.7386 202.504 45.8125 203.129 45.9602C203.754 46.108 204.325 46.3523 204.842 46.6932C205.359 47.0284 205.773 47.4858 206.086 48.0653C206.404 48.6449 206.563 49.3693 206.563 50.2386V59H203.597V57.2017H203.495C203.308 57.5653 203.043 57.9062 202.702 58.2244C202.367 58.5369 201.944 58.7898 201.433 58.983C200.927 59.1705 200.333 59.2642 199.651 59.2642ZM200.452 56.9972C201.072 56.9972 201.609 56.875 202.063 56.6307C202.518 56.3807 202.867 56.0511 203.112 55.642C203.362 55.233 203.487 54.7869 203.487 54.304V52.7614C203.39 52.8409 203.225 52.9148 202.992 52.983C202.765 53.0511 202.509 53.1108 202.225 53.1619C201.941 53.2131 201.66 53.2585 201.381 53.2983C201.103 53.3381 200.862 53.3722 200.657 53.4006C200.197 53.4631 199.785 53.5653 199.421 53.7074C199.058 53.8494 198.771 54.0483 198.56 54.304C198.35 54.554 198.245 54.8778 198.245 55.2756C198.245 55.8438 198.452 56.2727 198.867 56.5625C199.282 56.8523 199.81 56.9972 200.452 56.9972ZM223.596 45.9091V48.2955H216.07V45.9091H223.596ZM217.928 42.7727H221.013V55.0625C221.013 55.4773 221.076 55.7955 221.201 56.017C221.331 56.233 221.502 56.3807 221.712 56.4602C221.922 56.5398 222.155 56.5795 222.411 56.5795C222.604 56.5795 222.78 56.5653 222.939 56.5369C223.104 56.5085 223.229 56.483 223.314 56.4602L223.834 58.8722C223.669 58.929 223.434 58.9915 223.127 59.0597C222.826 59.1278 222.456 59.1676 222.019 59.179C221.246 59.2017 220.55 59.0852 219.931 58.8295C219.312 58.5682 218.82 58.1648 218.456 57.6193C218.098 57.0739 217.922 56.392 217.928 55.5739V42.7727ZM230.663 59.2642C229.833 59.2642 229.086 59.1165 228.421 58.821C227.762 58.5199 227.24 58.0767 226.853 57.4915C226.473 56.9062 226.282 56.1847 226.282 55.3267C226.282 54.5881 226.419 53.9773 226.691 53.4943C226.964 53.0114 227.336 52.625 227.808 52.3352C228.279 52.0455 228.811 51.8267 229.402 51.679C229.998 51.5256 230.615 51.4148 231.251 51.3466C232.018 51.267 232.64 51.196 233.117 51.1335C233.595 51.0653 233.941 50.9631 234.157 50.8267C234.379 50.6847 234.49 50.4659 234.49 50.1705V50.1193C234.49 49.4773 234.299 48.9801 233.919 48.6278C233.538 48.2756 232.99 48.0994 232.274 48.0994C231.518 48.0994 230.919 48.2642 230.475 48.5938C230.038 48.9233 229.742 49.3125 229.589 49.7614L226.708 49.3523C226.936 48.5568 227.311 47.892 227.833 47.358C228.356 46.8182 228.995 46.4148 229.751 46.1477C230.507 45.875 231.342 45.7386 232.257 45.7386C232.887 45.7386 233.515 45.8125 234.14 45.9602C234.765 46.108 235.336 46.3523 235.853 46.6932C236.37 47.0284 236.785 47.4858 237.098 48.0653C237.416 48.6449 237.575 49.3693 237.575 50.2386V59H234.609V57.2017H234.507C234.319 57.5653 234.055 57.9062 233.714 58.2244C233.379 58.5369 232.956 58.7898 232.444 58.983C231.938 59.1705 231.345 59.2642 230.663 59.2642ZM231.464 56.9972C232.083 56.9972 232.62 56.875 233.075 56.6307C233.529 56.3807 233.879 56.0511 234.123 55.642C234.373 55.233 234.498 54.7869 234.498 54.304V52.7614C234.402 52.8409 234.237 52.9148 234.004 52.983C233.777 53.0511 233.521 53.1108 233.237 53.1619C232.953 53.2131 232.671 53.2585 232.393 53.2983C232.115 53.3381 231.873 53.3722 231.669 53.4006C231.208 53.4631 230.796 53.5653 230.433 53.7074C230.069 53.8494 229.782 54.0483 229.572 54.304C229.362 54.554 229.257 54.8778 229.257 55.2756C229.257 55.8438 229.464 56.2727 229.879 56.5625C230.294 56.8523 230.822 56.9972 231.464 56.9972ZM244.482 51.3295V59H241.397V45.9091H244.346V48.1335H244.499C244.801 47.4006 245.281 46.8182 245.94 46.3864C246.604 45.9545 247.426 45.7386 248.403 45.7386C249.306 45.7386 250.093 45.9318 250.764 46.3182C251.44 46.7045 251.962 47.2642 252.332 47.9972C252.707 48.7301 252.891 49.6193 252.886 50.6648V59H249.801V51.142C249.801 50.267 249.573 49.5824 249.119 49.0881C248.67 48.5937 248.048 48.3466 247.252 48.3466C246.712 48.3466 246.232 48.4659 245.812 48.7045C245.397 48.9375 245.07 49.2756 244.832 49.7188C244.599 50.1619 244.482 50.6989 244.482 51.3295ZM262.435 64.1818C261.327 64.1818 260.376 64.0313 259.58 63.7301C258.785 63.4347 258.146 63.0369 257.663 62.5369C257.18 62.0369 256.844 61.483 256.657 60.875L259.435 60.2017C259.56 60.4574 259.742 60.7102 259.981 60.9602C260.219 61.2159 260.54 61.4261 260.944 61.5909C261.353 61.7614 261.867 61.8466 262.486 61.8466C263.361 61.8466 264.086 61.6335 264.66 61.2074C265.234 60.7869 265.521 60.0938 265.521 59.1278V56.6477H265.367C265.208 56.9659 264.975 57.2926 264.668 57.6278C264.367 57.9631 263.967 58.2443 263.467 58.4716C262.972 58.6989 262.35 58.8125 261.6 58.8125C260.594 58.8125 259.682 58.5767 258.864 58.1051C258.052 57.6278 257.404 56.9176 256.921 55.9744C256.444 55.0256 256.205 53.8381 256.205 52.4119C256.205 50.9744 256.444 49.7614 256.921 48.7727C257.404 47.7784 258.055 47.0256 258.873 46.5142C259.691 45.9972 260.603 45.7386 261.609 45.7386C262.376 45.7386 263.006 45.8693 263.501 46.1307C264.001 46.3864 264.398 46.696 264.694 47.0597C264.989 47.4176 265.214 47.7557 265.367 48.0739H265.538V45.9091H268.58V59.2131C268.58 60.3324 268.313 61.2585 267.779 61.9915C267.245 62.7244 266.515 63.2727 265.589 63.6364C264.663 64 263.611 64.1818 262.435 64.1818ZM262.461 56.392C263.114 56.392 263.671 56.233 264.131 55.9148C264.592 55.5966 264.941 55.1392 265.18 54.5426C265.418 53.946 265.538 53.2301 265.538 52.3949C265.538 51.571 265.418 50.8494 265.18 50.2301C264.947 49.6108 264.6 49.1307 264.14 48.7898C263.685 48.4432 263.126 48.2699 262.461 48.2699C261.773 48.2699 261.199 48.4489 260.739 48.8068C260.279 49.1648 259.932 49.6562 259.699 50.2812C259.467 50.9006 259.35 51.6051 259.35 52.3949C259.35 53.196 259.467 53.8977 259.699 54.5C259.938 55.0966 260.288 55.5625 260.748 55.8977C261.214 56.2273 261.785 56.392 262.461 56.392ZM276.229 59.2642C275.4 59.2642 274.652 59.1165 273.988 58.821C273.329 58.5199 272.806 58.0767 272.419 57.4915C272.039 56.9062 271.848 56.1847 271.848 55.3267C271.848 54.5881 271.985 53.9773 272.258 53.4943C272.53 53.0114 272.902 52.625 273.374 52.3352C273.846 52.0455 274.377 51.8267 274.968 51.679C275.564 51.5256 276.181 51.4148 276.817 51.3466C277.584 51.267 278.206 51.196 278.684 51.1335C279.161 51.0653 279.508 50.9631 279.723 50.8267C279.945 50.6847 280.056 50.4659 280.056 50.1705V50.1193C280.056 49.4773 279.866 48.9801 279.485 48.6278C279.104 48.2756 278.556 48.0994 277.84 48.0994C277.084 48.0994 276.485 48.2642 276.042 48.5938C275.604 48.9233 275.309 49.3125 275.155 49.7614L272.275 49.3523C272.502 48.5568 272.877 47.892 273.4 47.358C273.922 46.8182 274.562 46.4148 275.317 46.1477C276.073 45.875 276.908 45.7386 277.823 45.7386C278.454 45.7386 279.081 45.8125 279.706 45.9602C280.331 46.108 280.902 46.3523 281.419 46.6932C281.937 47.0284 282.351 47.4858 282.664 48.0653C282.982 48.6449 283.141 49.3693 283.141 50.2386V59H280.175V57.2017H280.073C279.885 57.5653 279.621 57.9062 279.28 58.2244C278.945 58.5369 278.522 58.7898 278.01 58.983C277.505 59.1705 276.911 59.2642 276.229 59.2642ZM277.03 56.9972C277.65 56.9972 278.187 56.875 278.641 56.6307C279.096 56.3807 279.445 56.0511 279.689 55.642C279.939 55.233 280.064 54.7869 280.064 54.304V52.7614C279.968 52.8409 279.803 52.9148 279.57 52.983C279.343 53.0511 279.087 53.1108 278.803 53.1619C278.519 53.2131 278.238 53.2585 277.959 53.2983C277.681 53.3381 277.439 53.3722 277.235 53.4006C276.775 53.4631 276.363 53.5653 275.999 53.7074C275.635 53.8494 275.348 54.0483 275.138 54.304C274.928 54.554 274.823 54.8778 274.823 55.2756C274.823 55.8438 275.03 56.2727 275.445 56.5625C275.86 56.8523 276.388 56.9972 277.03 56.9972ZM290.049 51.3295V59H286.963V45.9091H289.912V48.1335H290.066C290.367 47.4006 290.847 46.8182 291.506 46.3864C292.171 45.9545 292.992 45.7386 293.969 45.7386C294.872 45.7386 295.659 45.9318 296.33 46.3182C297.006 46.7045 297.529 47.2642 297.898 47.9972C298.273 48.7301 298.458 49.6193 298.452 50.6648V59H295.367V51.142C295.367 50.267 295.139 49.5824 294.685 49.0881C294.236 48.5937 293.614 48.3466 292.818 48.3466C292.279 48.3466 291.799 48.4659 291.378 48.7045C290.963 48.9375 290.637 49.2756 290.398 49.7188C290.165 50.1619 290.049 50.6989 290.049 51.3295ZM308.981 63.9091V45.9091H312.016V48.0739H312.195C312.354 47.7557 312.578 47.4176 312.868 47.0597C313.158 46.696 313.55 46.3864 314.044 46.1307C314.538 45.8693 315.169 45.7386 315.936 45.7386C316.947 45.7386 317.859 45.9972 318.672 46.5142C319.49 47.0256 320.138 47.7841 320.615 48.7898C321.098 49.7898 321.339 51.017 321.339 52.4716C321.339 53.9091 321.104 55.1307 320.632 56.1364C320.16 57.142 319.518 57.9091 318.706 58.4375C317.893 58.9659 316.973 59.2301 315.945 59.2301C315.195 59.2301 314.572 59.1051 314.078 58.8551C313.584 58.6051 313.186 58.304 312.885 57.9517C312.589 57.5937 312.359 57.2557 312.195 56.9375H312.067V63.9091H308.981ZM312.007 52.4545C312.007 53.3011 312.126 54.0426 312.365 54.679C312.609 55.3153 312.959 55.8125 313.413 56.1705C313.874 56.5227 314.43 56.6989 315.084 56.6989C315.766 56.6989 316.337 56.517 316.797 56.1534C317.257 55.7841 317.604 55.2812 317.837 54.6449C318.075 54.0028 318.195 53.2727 318.195 52.4545C318.195 51.642 318.078 50.9205 317.845 50.2898C317.612 49.6591 317.266 49.1648 316.805 48.8068C316.345 48.4489 315.771 48.2699 315.084 48.2699C314.425 48.2699 313.865 48.4432 313.405 48.7898C312.945 49.1364 312.595 49.6222 312.356 50.2472C312.124 50.8722 312.007 51.608 312.007 52.4545ZM330.497 59.2557C329.184 59.2557 328.051 58.983 327.096 58.4375C326.148 57.8864 325.417 57.108 324.906 56.1023C324.395 55.0909 324.139 53.9006 324.139 52.5312C324.139 51.1847 324.395 50.0028 324.906 48.9858C325.423 47.9631 326.145 47.1676 327.071 46.5994C327.997 46.0256 329.085 45.7386 330.335 45.7386C331.142 45.7386 331.903 45.8693 332.619 46.1307C333.341 46.3864 333.977 46.7841 334.528 47.3239C335.085 47.8636 335.523 48.5511 335.841 49.3864C336.159 50.2159 336.318 51.2045 336.318 52.3523V53.2983H325.588V51.2188H333.361C333.355 50.6278 333.227 50.1023 332.977 49.642C332.727 49.1761 332.378 48.8097 331.929 48.5426C331.486 48.2756 330.969 48.142 330.378 48.142C329.747 48.142 329.193 48.2955 328.716 48.6023C328.238 48.9034 327.866 49.3011 327.599 49.7955C327.338 50.2841 327.204 50.821 327.199 51.4062V53.2216C327.199 53.983 327.338 54.6364 327.616 55.1818C327.895 55.7216 328.284 56.1364 328.784 56.4261C329.284 56.7102 329.869 56.8523 330.54 56.8523C330.988 56.8523 331.395 56.7898 331.758 56.6648C332.122 56.5341 332.437 56.3438 332.704 56.0938C332.971 55.8438 333.173 55.5341 333.309 55.1648L336.19 55.4886C336.008 56.25 335.662 56.9148 335.15 57.483C334.645 58.0455 333.997 58.483 333.207 58.7955C332.417 59.1023 331.514 59.2557 330.497 59.2557ZM339.648 59V45.9091H342.64V48.0909H342.776C343.015 47.3352 343.424 46.7528 344.003 46.3438C344.588 45.929 345.256 45.7216 346.006 45.7216C346.176 45.7216 346.367 45.7301 346.577 45.7472C346.793 45.7585 346.972 45.7784 347.114 45.8068V48.6449C346.983 48.5994 346.776 48.5597 346.492 48.5256C346.213 48.4858 345.943 48.4659 345.682 48.4659C345.12 48.4659 344.614 48.5881 344.165 48.8324C343.722 49.071 343.372 49.4034 343.117 49.8295C342.861 50.2557 342.733 50.7472 342.733 51.304V59H339.648ZM355.14 59.2557C353.828 59.2557 352.694 58.983 351.739 58.4375C350.791 57.8864 350.061 57.108 349.549 56.1023C349.038 55.0909 348.782 53.9006 348.782 52.5312C348.782 51.1847 349.038 50.0028 349.549 48.9858C350.066 47.9631 350.788 47.1676 351.714 46.5994C352.64 46.0256 353.728 45.7386 354.978 45.7386C355.785 45.7386 356.546 45.8693 357.262 46.1307C357.984 46.3864 358.62 46.7841 359.171 47.3239C359.728 47.8636 360.166 48.5511 360.484 49.3864C360.802 50.2159 360.961 51.2045 360.961 52.3523V53.2983H350.231V51.2188H358.004C357.998 50.6278 357.87 50.1023 357.62 49.642C357.37 49.1761 357.021 48.8097 356.572 48.5426C356.129 48.2756 355.612 48.142 355.021 48.142C354.39 48.142 353.836 48.2955 353.359 48.6023C352.882 48.9034 352.509 49.3011 352.242 49.7955C351.981 50.2841 351.847 50.821 351.842 51.4062V53.2216C351.842 53.983 351.981 54.6364 352.259 55.1818C352.538 55.7216 352.927 56.1364 353.427 56.4261C353.927 56.7102 354.512 56.8523 355.183 56.8523C355.632 56.8523 356.038 56.7898 356.401 56.6648C356.765 56.5341 357.08 56.3438 357.347 56.0938C357.614 55.8438 357.816 55.5341 357.953 55.1648L360.833 55.4886C360.651 56.25 360.305 56.9148 359.793 57.483C359.288 58.0455 358.64 58.483 357.85 58.7955C357.061 59.1023 356.157 59.2557 355.14 59.2557ZM364.291 59V45.9091H367.24V48.1335H367.393C367.666 47.3835 368.118 46.7983 368.749 46.3778C369.379 45.9517 370.132 45.7386 371.007 45.7386C371.893 45.7386 372.641 45.9545 373.249 46.3864C373.862 46.8125 374.294 47.3949 374.544 48.1335H374.68C374.97 47.4062 375.459 46.8267 376.146 46.3949C376.839 45.9574 377.66 45.7386 378.609 45.7386C379.814 45.7386 380.797 46.1193 381.558 46.8807C382.32 47.642 382.7 48.7528 382.7 50.2131V59H379.607V50.6903C379.607 49.8778 379.391 49.2841 378.959 48.9091C378.527 48.5284 377.999 48.3381 377.374 48.3381C376.629 48.3381 376.047 48.571 375.626 49.0369C375.212 49.4972 375.004 50.0966 375.004 50.8352V59H371.979V50.5625C371.979 49.8864 371.774 49.3466 371.365 48.9432C370.962 48.5398 370.433 48.3381 369.78 48.3381C369.337 48.3381 368.933 48.4517 368.57 48.679C368.206 48.9006 367.916 49.2159 367.7 49.625C367.484 50.0284 367.376 50.5 367.376 51.0398V59H364.291ZM386.55 63.9091V45.9091H389.584V48.0739H389.763C389.922 47.7557 390.147 47.4176 390.437 47.0597C390.726 46.696 391.118 46.3864 391.613 46.1307C392.107 45.8693 392.738 45.7386 393.505 45.7386C394.516 45.7386 395.428 45.9972 396.241 46.5142C397.059 47.0256 397.706 47.7841 398.184 48.7898C398.667 49.7898 398.908 51.017 398.908 52.4716C398.908 53.9091 398.672 55.1307 398.201 56.1364C397.729 57.142 397.087 57.9091 396.275 58.4375C395.462 58.9659 394.542 59.2301 393.513 59.2301C392.763 59.2301 392.141 59.1051 391.647 58.8551C391.152 58.6051 390.755 58.304 390.454 57.9517C390.158 57.5937 389.928 57.2557 389.763 56.9375H389.635V63.9091H386.55ZM389.576 52.4545C389.576 53.3011 389.695 54.0426 389.934 54.679C390.178 55.3153 390.527 55.8125 390.982 56.1705C391.442 56.5227 391.999 56.6989 392.652 56.6989C393.334 56.6989 393.905 56.517 394.366 56.1534C394.826 55.7841 395.172 55.2812 395.405 54.6449C395.644 54.0028 395.763 53.2727 395.763 52.4545C395.763 51.642 395.647 50.9205 395.414 50.2898C395.181 49.6591 394.834 49.1648 394.374 48.8068C393.914 48.4489 393.34 48.2699 392.652 48.2699C391.993 48.2699 391.434 48.4432 390.974 48.7898C390.513 49.1364 390.164 49.6222 389.925 50.2472C389.692 50.8722 389.576 51.608 389.576 52.4545ZM410.614 53.4943V45.9091H413.699V59H410.708V56.6733H410.571C410.276 57.4062 409.79 58.0057 409.114 58.4716C408.444 58.9375 407.617 59.1705 406.634 59.1705C405.776 59.1705 405.017 58.9801 404.358 58.5994C403.705 58.2131 403.194 57.6534 402.824 56.9205C402.455 56.1818 402.27 55.2898 402.27 54.2443V45.9091H405.355V53.767C405.355 54.5966 405.583 55.2557 406.037 55.7443C406.492 56.233 407.088 56.4773 407.827 56.4773C408.282 56.4773 408.722 56.3665 409.148 56.1449C409.574 55.9233 409.924 55.5938 410.196 55.1562C410.475 54.7131 410.614 54.1591 410.614 53.4943ZM421.359 59.2642C420.529 59.2642 419.782 59.1165 419.117 58.821C418.458 58.5199 417.936 58.0767 417.549 57.4915C417.168 56.9062 416.978 56.1847 416.978 55.3267C416.978 54.5881 417.115 53.9773 417.387 53.4943C417.66 53.0114 418.032 52.625 418.504 52.3352C418.975 52.0455 419.507 51.8267 420.097 51.679C420.694 51.5256 421.311 51.4148 421.947 51.3466C422.714 51.267 423.336 51.196 423.813 51.1335C424.291 51.0653 424.637 50.9631 424.853 50.8267C425.075 50.6847 425.186 50.4659 425.186 50.1705V50.1193C425.186 49.4773 424.995 48.9801 424.615 48.6278C424.234 48.2756 423.686 48.0994 422.97 48.0994C422.214 48.0994 421.615 48.2642 421.171 48.5938C420.734 48.9233 420.438 49.3125 420.285 49.7614L417.404 49.3523C417.632 48.5568 418.007 47.892 418.529 47.358C419.052 46.8182 419.691 46.4148 420.447 46.1477C421.203 45.875 422.038 45.7386 422.953 45.7386C423.583 45.7386 424.211 45.8125 424.836 45.9602C425.461 46.108 426.032 46.3523 426.549 46.6932C427.066 47.0284 427.481 47.4858 427.793 48.0653C428.112 48.6449 428.271 49.3693 428.271 50.2386V59H425.305V57.2017H425.203C425.015 57.5653 424.751 57.9062 424.41 58.2244C424.075 58.5369 423.651 58.7898 423.14 58.983C422.634 59.1705 422.041 59.2642 421.359 59.2642ZM422.16 56.9972C422.779 56.9972 423.316 56.875 423.771 56.6307C424.225 56.3807 424.575 56.0511 424.819 55.642C425.069 55.233 425.194 54.7869 425.194 54.304V52.7614C425.097 52.8409 424.933 52.9148 424.7 52.983C424.472 53.0511 424.217 53.1108 423.933 53.1619C423.649 53.2131 423.367 53.2585 423.089 53.2983C422.811 53.3381 422.569 53.3722 422.365 53.4006C421.904 53.4631 421.492 53.5653 421.129 53.7074C420.765 53.8494 420.478 54.0483 420.268 54.304C420.058 54.554 419.953 54.8778 419.953 55.2756C419.953 55.8438 420.16 56.2727 420.575 56.5625C420.99 56.8523 421.518 56.9972 422.16 56.9972ZM435.178 51.3295V59H432.093V45.9091H435.042V48.1335H435.195C435.496 47.4006 435.977 46.8182 436.636 46.3864C437.3 45.9545 438.121 45.7386 439.099 45.7386C440.002 45.7386 440.789 45.9318 441.46 46.3182C442.136 46.7045 442.658 47.2642 443.028 47.9972C443.403 48.7301 443.587 49.6193 443.582 50.6648V59H440.496V51.142C440.496 50.267 440.269 49.5824 439.815 49.0881C439.366 48.5937 438.744 48.3466 437.948 48.3466C437.408 48.3466 436.928 48.4659 436.508 48.7045C436.093 48.9375 435.766 49.2756 435.528 49.7188C435.295 50.1619 435.178 50.6989 435.178 51.3295ZM82.1222 81.9091V84.2955H74.5966V81.9091H82.1222ZM76.4545 78.7727H79.5398V91.0625C79.5398 91.4773 79.6023 91.7955 79.7273 92.017C79.858 92.233 80.0284 92.3807 80.2386 92.4602C80.4489 92.5398 80.6818 92.5795 80.9375 92.5795C81.1307 92.5795 81.3068 92.5653 81.4659 92.5369C81.6307 92.5085 81.7557 92.483 81.8409 92.4602L82.3608 94.8722C82.196 94.929 81.9602 94.9915 81.6534 95.0597C81.3523 95.1278 80.983 95.1676 80.5455 95.179C79.7727 95.2017 79.0767 95.0852 78.4574 94.8295C77.8381 94.5682 77.3466 94.1648 76.983 93.6193C76.625 93.0739 76.4489 92.392 76.4545 91.5739V78.7727ZM91.0772 95.2557C89.7647 95.2557 88.6312 94.983 87.6767 94.4375C86.7278 93.8864 85.9977 93.108 85.4863 92.1023C84.975 91.0909 84.7193 89.9006 84.7193 88.5312C84.7193 87.1847 84.975 86.0028 85.4863 84.9858C86.0034 83.9631 86.725 83.1676 87.6511 82.5994C88.5772 82.0256 89.6653 81.7386 90.9153 81.7386C91.7221 81.7386 92.4835 81.8693 93.1994 82.1307C93.921 82.3864 94.5574 82.7841 95.1085 83.3239C95.6653 83.8636 96.1028 84.5511 96.421 85.3864C96.7392 86.2159 96.8983 87.2045 96.8983 88.3523V89.2983H86.1682V87.2188H93.9409C93.9352 86.6278 93.8074 86.1023 93.5574 85.642C93.3074 85.1761 92.9579 84.8097 92.5091 84.5426C92.0659 84.2756 91.5488 84.142 90.9579 84.142C90.3272 84.142 89.7733 84.2955 89.296 84.6023C88.8187 84.9034 88.4466 85.3011 88.1795 85.7955C87.9182 86.2841 87.7846 86.821 87.7789 87.4062V89.2216C87.7789 89.983 87.9182 90.6364 88.1966 91.1818C88.475 91.7216 88.8642 92.1364 89.3642 92.4261C89.8642 92.7102 90.4494 92.8523 91.1199 92.8523C91.5687 92.8523 91.975 92.7898 92.3386 92.6648C92.7022 92.5341 93.0176 92.3438 93.2846 92.0938C93.5517 91.8438 93.7534 91.5341 93.8897 91.1648L96.7704 91.4886C96.5886 92.25 96.242 92.9148 95.7307 93.483C95.225 94.0455 94.5772 94.483 93.7875 94.7955C92.9977 95.1023 92.0943 95.2557 91.0772 95.2557ZM100.228 95V81.9091H103.22V84.0909H103.356C103.595 83.3352 104.004 82.7528 104.583 82.3438C105.169 81.929 105.836 81.7216 106.586 81.7216C106.757 81.7216 106.947 81.7301 107.157 81.7472C107.373 81.7585 107.552 81.7784 107.694 81.8068V84.6449C107.564 84.5994 107.356 84.5597 107.072 84.5256C106.794 84.4858 106.524 84.4659 106.262 84.4659C105.7 84.4659 105.194 84.5881 104.745 84.8324C104.302 85.071 103.953 85.4034 103.697 85.8295C103.441 86.2557 103.314 86.7472 103.314 87.304V95H100.228ZM120.811 85.3693L117.998 85.6761C117.919 85.392 117.779 85.125 117.58 84.875C117.387 84.625 117.126 84.4233 116.796 84.2699C116.467 84.1165 116.063 84.0398 115.586 84.0398C114.944 84.0398 114.404 84.179 113.967 84.4574C113.535 84.7358 113.322 85.0966 113.328 85.5398C113.322 85.9205 113.461 86.2301 113.745 86.4688C114.035 86.7074 114.512 86.9034 115.177 87.0568L117.41 87.5341C118.649 87.8011 119.569 88.2244 120.171 88.804C120.779 89.3835 121.086 90.142 121.092 91.0795C121.086 91.9034 120.845 92.6307 120.367 93.2614C119.896 93.8864 119.24 94.375 118.399 94.7273C117.558 95.0795 116.592 95.2557 115.501 95.2557C113.899 95.2557 112.609 94.9205 111.632 94.25C110.654 93.5739 110.072 92.6335 109.884 91.429L112.893 91.1392C113.029 91.7301 113.319 92.1761 113.762 92.4773C114.205 92.7784 114.782 92.929 115.492 92.929C116.225 92.929 116.813 92.7784 117.257 92.4773C117.705 92.1761 117.93 91.804 117.93 91.3608C117.93 90.9858 117.785 90.6761 117.495 90.4318C117.211 90.1875 116.768 90 116.166 89.8693L113.933 89.4006C112.677 89.1392 111.748 88.6989 111.146 88.0795C110.544 87.4545 110.245 86.6648 110.251 85.7102C110.245 84.9034 110.464 84.2045 110.907 83.6136C111.356 83.017 111.978 82.5568 112.774 82.233C113.575 81.9034 114.498 81.7386 115.544 81.7386C117.078 81.7386 118.285 82.0653 119.166 82.7188C120.052 83.3722 120.6 84.2557 120.811 85.3693ZM130.151 95.2557C128.839 95.2557 127.705 94.983 126.751 94.4375C125.802 93.8864 125.072 93.108 124.56 92.1023C124.049 91.0909 123.793 89.9006 123.793 88.5312C123.793 87.1847 124.049 86.0028 124.56 84.9858C125.077 83.9631 125.799 83.1676 126.725 82.5994C127.651 82.0256 128.739 81.7386 129.989 81.7386C130.796 81.7386 131.558 81.8693 132.273 82.1307C132.995 82.3864 133.631 82.7841 134.183 83.3239C134.739 83.8636 135.177 84.5511 135.495 85.3864C135.813 86.2159 135.972 87.2045 135.972 88.3523V89.2983H125.242V87.2188H133.015C133.009 86.6278 132.881 86.1023 132.631 85.642C132.381 85.1761 132.032 84.8097 131.583 84.5426C131.14 84.2756 130.623 84.142 130.032 84.142C129.401 84.142 128.847 84.2955 128.37 84.6023C127.893 84.9034 127.521 85.3011 127.254 85.7955C126.992 86.2841 126.859 86.821 126.853 87.4062V89.2216C126.853 89.983 126.992 90.6364 127.271 91.1818C127.549 91.7216 127.938 92.1364 128.438 92.4261C128.938 92.7102 129.523 92.8523 130.194 92.8523C130.643 92.8523 131.049 92.7898 131.413 92.6648C131.776 92.5341 132.092 92.3438 132.359 92.0938C132.626 91.8438 132.827 91.5341 132.964 91.1648L135.844 91.4886C135.663 92.25 135.316 92.9148 134.805 93.483C134.299 94.0455 133.651 94.483 132.862 94.7955C132.072 95.1023 131.168 95.2557 130.151 95.2557ZM139.439 95V77.5455H142.524V84.0739H142.652C142.811 83.7557 143.035 83.4176 143.325 83.0597C143.615 82.696 144.007 82.3864 144.501 82.1307C144.996 81.8693 145.626 81.7386 146.393 81.7386C147.405 81.7386 148.317 81.9972 149.129 82.5142C149.947 83.0256 150.595 83.7841 151.072 84.7898C151.555 85.7898 151.797 87.017 151.797 88.4716C151.797 89.9091 151.561 91.1307 151.089 92.1364C150.618 93.142 149.976 93.9091 149.163 94.4375C148.351 94.9659 147.43 95.2301 146.402 95.2301C145.652 95.2301 145.03 95.1051 144.535 94.8551C144.041 94.6051 143.643 94.304 143.342 93.9517C143.047 93.5937 142.817 93.2557 142.652 92.9375H142.473V95H139.439ZM142.464 88.4545C142.464 89.3011 142.584 90.0426 142.822 90.679C143.067 91.3153 143.416 91.8125 143.871 92.1705C144.331 92.5227 144.888 92.6989 145.541 92.6989C146.223 92.6989 146.794 92.517 147.254 92.1534C147.714 91.7841 148.061 91.2812 148.294 90.6449C148.533 90.0028 148.652 89.2727 148.652 88.4545C148.652 87.642 148.535 86.9205 148.302 86.2898C148.069 85.6591 147.723 85.1648 147.263 84.8068C146.802 84.4489 146.229 84.2699 145.541 84.2699C144.882 84.2699 144.322 84.4432 143.862 84.7898C143.402 85.1364 143.052 85.6222 142.814 86.2472C142.581 86.8722 142.464 87.608 142.464 88.4545ZM163.483 89.4943V81.9091H166.569V95H163.577V92.6733H163.441C163.145 93.4062 162.659 94.0057 161.983 94.4716C161.313 94.9375 160.486 95.1705 159.503 95.1705C158.645 95.1705 157.887 94.9801 157.228 94.5994C156.574 94.2131 156.063 93.6534 155.694 92.9205C155.324 92.1818 155.14 91.2898 155.14 90.2443V81.9091H158.225V89.767C158.225 90.5966 158.452 91.2557 158.907 91.7443C159.361 92.233 159.958 92.4773 160.696 92.4773C161.151 92.4773 161.591 92.3665 162.017 92.1449C162.444 91.9233 162.793 91.5938 163.066 91.1562C163.344 90.7131 163.483 90.1591 163.483 89.4943ZM176.998 81.9091V84.2955H169.473V81.9091H176.998ZM171.33 78.7727H174.416V91.0625C174.416 91.4773 174.478 91.7955 174.603 92.017C174.734 92.233 174.904 92.3807 175.115 92.4602C175.325 92.5398 175.558 92.5795 175.813 92.5795C176.007 92.5795 176.183 92.5653 176.342 92.5369C176.507 92.5085 176.632 92.483 176.717 92.4602L177.237 94.8722C177.072 94.929 176.836 94.9915 176.529 95.0597C176.228 95.1278 175.859 95.1676 175.421 95.179C174.649 95.2017 173.953 95.0852 173.333 94.8295C172.714 94.5682 172.223 94.1648 171.859 93.6193C171.501 93.0739 171.325 92.392 171.33 91.5739V78.7727ZM187.108 95V77.5455H190.193V84.0739H190.321C190.48 83.7557 190.704 83.4176 190.994 83.0597C191.284 82.696 191.676 82.3864 192.17 82.1307C192.665 81.8693 193.295 81.7386 194.062 81.7386C195.074 81.7386 195.986 81.9972 196.798 82.5142C197.616 83.0256 198.264 83.7841 198.741 84.7898C199.224 85.7898 199.466 87.017 199.466 88.4716C199.466 89.9091 199.23 91.1307 198.758 92.1364C198.287 93.142 197.645 93.9091 196.832 94.4375C196.02 94.9659 195.099 95.2301 194.071 95.2301C193.321 95.2301 192.699 95.1051 192.204 94.8551C191.71 94.6051 191.312 94.304 191.011 93.9517C190.716 93.5937 190.486 93.2557 190.321 92.9375H190.142V95H187.108ZM190.133 88.4545C190.133 89.3011 190.253 90.0426 190.491 90.679C190.736 91.3153 191.085 91.8125 191.54 92.1705C192 92.5227 192.557 92.6989 193.21 92.6989C193.892 92.6989 194.463 92.517 194.923 92.1534C195.383 91.7841 195.73 91.2812 195.963 90.6449C196.202 90.0028 196.321 89.2727 196.321 88.4545C196.321 87.642 196.204 86.9205 195.971 86.2898C195.739 85.6591 195.392 85.1648 194.932 84.8068C194.471 84.4489 193.898 84.2699 193.21 84.2699C192.551 84.2699 191.991 84.4432 191.531 84.7898C191.071 85.1364 190.721 85.6222 190.483 86.2472C190.25 86.8722 190.133 87.608 190.133 88.4545ZM202.809 95V81.9091H205.894V95H202.809ZM204.36 80.0511C203.871 80.0511 203.451 79.8892 203.098 79.5653C202.746 79.2358 202.57 78.8409 202.57 78.3807C202.57 77.9148 202.746 77.5199 203.098 77.196C203.451 76.8665 203.871 76.7017 204.36 76.7017C204.854 76.7017 205.275 76.8665 205.621 77.196C205.973 77.5199 206.15 77.9148 206.15 78.3807C206.15 78.8409 205.973 79.2358 205.621 79.5653C205.275 79.8892 204.854 80.0511 204.36 80.0511ZM220.133 85.3693L217.321 85.6761C217.241 85.392 217.102 85.125 216.903 84.875C216.71 84.625 216.448 84.4233 216.119 84.2699C215.789 84.1165 215.386 84.0398 214.909 84.0398C214.267 84.0398 213.727 84.179 213.289 84.4574C212.857 84.7358 212.644 85.0966 212.65 85.5398C212.644 85.9205 212.784 86.2301 213.068 86.4688C213.357 86.7074 213.835 86.9034 214.5 87.0568L216.732 87.5341C217.971 87.8011 218.892 88.2244 219.494 88.804C220.102 89.3835 220.409 90.142 220.414 91.0795C220.409 91.9034 220.167 92.6307 219.69 93.2614C219.218 93.8864 218.562 94.375 217.721 94.7273C216.88 95.0795 215.914 95.2557 214.823 95.2557C213.221 95.2557 211.931 94.9205 210.954 94.25C209.977 93.5739 209.394 92.6335 209.207 91.429L212.215 91.1392C212.352 91.7301 212.642 92.1761 213.085 92.4773C213.528 92.7784 214.105 92.929 214.815 92.929C215.548 92.929 216.136 92.7784 216.579 92.4773C217.028 92.1761 217.252 91.804 217.252 91.3608C217.252 90.9858 217.107 90.6761 216.818 90.4318C216.534 90.1875 216.09 90 215.488 89.8693L213.255 89.4006C212 89.1392 211.071 88.6989 210.468 88.0795C209.866 87.4545 209.568 86.6648 209.573 85.7102C209.568 84.9034 209.786 84.2045 210.23 83.6136C210.679 83.017 211.301 82.5568 212.096 82.233C212.897 81.9034 213.821 81.7386 214.866 81.7386C216.4 81.7386 217.607 82.0653 218.488 82.7188C219.375 83.3722 219.923 84.2557 220.133 85.3693ZM227.445 95.2642C226.616 95.2642 225.869 95.1165 225.204 94.821C224.545 94.5199 224.022 94.0767 223.636 93.4915C223.255 92.9062 223.065 92.1847 223.065 91.3267C223.065 90.5881 223.201 89.9773 223.474 89.4943C223.747 89.0114 224.119 88.625 224.59 88.3352C225.062 88.0455 225.593 87.8267 226.184 87.679C226.781 87.5256 227.397 87.4148 228.033 87.3466C228.801 87.267 229.423 87.196 229.9 87.1335C230.377 87.0653 230.724 86.9631 230.94 86.8267C231.161 86.6847 231.272 86.4659 231.272 86.1705V86.1193C231.272 85.4773 231.082 84.9801 230.701 84.6278C230.32 84.2756 229.772 84.0994 229.056 84.0994C228.301 84.0994 227.701 84.2642 227.258 84.5938C226.82 84.9233 226.525 85.3125 226.372 85.7614L223.491 85.3523C223.718 84.5568 224.093 83.892 224.616 83.358C225.139 82.8182 225.778 82.4148 226.533 82.1477C227.289 81.875 228.124 81.7386 229.039 81.7386C229.67 81.7386 230.298 81.8125 230.923 81.9602C231.548 82.108 232.119 82.3523 232.636 82.6932C233.153 83.0284 233.568 83.4858 233.88 84.0653C234.198 84.6449 234.357 85.3693 234.357 86.2386V95H231.391V93.2017H231.289C231.102 93.5653 230.837 93.9062 230.497 94.2244C230.161 94.5369 229.738 94.7898 229.227 94.983C228.721 95.1705 228.127 95.2642 227.445 95.2642ZM228.247 92.9972C228.866 92.9972 229.403 92.875 229.857 92.6307C230.312 92.3807 230.661 92.0511 230.906 91.642C231.156 91.233 231.281 90.7869 231.281 90.304V88.7614C231.184 88.8409 231.019 88.9148 230.786 88.983C230.559 89.0511 230.303 89.1108 230.019 89.1619C229.735 89.2131 229.454 89.2585 229.176 89.2983C228.897 89.3381 228.656 89.3722 228.451 89.4006C227.991 89.4631 227.579 89.5653 227.215 89.7074C226.852 89.8494 226.565 90.0483 226.354 90.304C226.144 90.554 226.039 90.8778 226.039 91.2756C226.039 91.8438 226.247 92.2727 226.661 92.5625C227.076 92.8523 227.604 92.9972 228.247 92.9972ZM244.853 95V81.9091H247.802V84.1335H247.955C248.228 83.3835 248.679 82.7983 249.31 82.3778C249.941 81.9517 250.694 81.7386 251.569 81.7386C252.455 81.7386 253.202 81.9545 253.81 82.3864C254.424 82.8125 254.856 83.3949 255.106 84.1335H255.242C255.532 83.4062 256.02 82.8267 256.708 82.3949C257.401 81.9574 258.222 81.7386 259.171 81.7386C260.375 81.7386 261.358 82.1193 262.12 82.8807C262.881 83.642 263.262 84.7528 263.262 86.2131V95H260.168V86.6903C260.168 85.8778 259.952 85.2841 259.52 84.9091C259.089 84.5284 258.56 84.3381 257.935 84.3381C257.191 84.3381 256.608 84.571 256.188 85.0369C255.773 85.4972 255.566 86.0966 255.566 86.8352V95H252.54V86.5625C252.54 85.8864 252.336 85.3466 251.927 84.9432C251.523 84.5398 250.995 84.3381 250.341 84.3381C249.898 84.3381 249.495 84.4517 249.131 84.679C248.768 84.9006 248.478 85.2159 248.262 85.625C248.046 86.0284 247.938 86.5 247.938 87.0398V95H244.853ZM272.907 95.2557C271.595 95.2557 270.461 94.983 269.507 94.4375C268.558 93.8864 267.828 93.108 267.316 92.1023C266.805 91.0909 266.549 89.9006 266.549 88.5312C266.549 87.1847 266.805 86.0028 267.316 84.9858C267.833 83.9631 268.555 83.1676 269.481 82.5994C270.407 82.0256 271.495 81.7386 272.745 81.7386C273.552 81.7386 274.313 81.8693 275.029 82.1307C275.751 82.3864 276.387 82.7841 276.938 83.3239C277.495 83.8636 277.933 84.5511 278.251 85.3864C278.569 86.2159 278.728 87.2045 278.728 88.3523V89.2983H267.998V87.2188H275.771C275.765 86.6278 275.637 86.1023 275.387 85.642C275.137 85.1761 274.788 84.8097 274.339 84.5426C273.896 84.2756 273.379 84.142 272.788 84.142C272.157 84.142 271.603 84.2955 271.126 84.6023C270.649 84.9034 270.277 85.3011 270.01 85.7955C269.748 86.2841 269.615 86.821 269.609 87.4062V89.2216C269.609 89.983 269.748 90.6364 270.027 91.1818C270.305 91.7216 270.694 92.1364 271.194 92.4261C271.694 92.7102 272.279 92.8523 272.95 92.8523C273.399 92.8523 273.805 92.7898 274.169 92.6648C274.532 92.5341 274.848 92.3438 275.115 92.0938C275.382 91.8438 275.583 91.5341 275.72 91.1648L278.6 91.4886C278.419 92.25 278.072 92.9148 277.561 93.483C277.055 94.0455 276.407 94.483 275.617 94.7955C274.828 95.1023 273.924 95.2557 272.907 95.2557ZM285.144 87.3295V95H282.058V81.9091H285.007V84.1335H285.161C285.462 83.4006 285.942 82.8182 286.601 82.3864C287.266 81.9545 288.087 81.7386 289.064 81.7386C289.967 81.7386 290.754 81.9318 291.425 82.3182C292.101 82.7045 292.624 83.2642 292.993 83.9972C293.368 84.7301 293.553 85.6193 293.547 86.6648V95H290.462V87.142C290.462 86.267 290.234 85.5824 289.78 85.0881C289.331 84.5937 288.709 84.3466 287.913 84.3466C287.374 84.3466 286.894 84.4659 286.473 84.7045C286.058 84.9375 285.732 85.2756 285.493 85.7188C285.26 86.1619 285.144 86.6989 285.144 87.3295ZM297.403 81.9091H300.489V95.75C300.489 96.6932 300.31 97.4716 299.952 98.0852C299.594 98.6989 299.077 99.1563 298.401 99.4574C297.724 99.7585 296.903 99.9091 295.937 99.9091C295.824 99.9091 295.719 99.9063 295.622 99.9006C295.526 99.9006 295.42 99.8977 295.307 99.892V97.3778C295.392 97.3835 295.469 97.3864 295.537 97.3864C295.605 97.392 295.676 97.3949 295.75 97.3949C296.341 97.3949 296.764 97.25 297.02 96.9602C297.276 96.6761 297.403 96.2585 297.403 95.7074V81.9091ZM298.937 80.0511C298.443 80.0511 298.02 79.8892 297.668 79.5653C297.321 79.2358 297.148 78.8409 297.148 78.3807C297.148 77.9148 297.321 77.5199 297.668 77.196C298.02 76.8665 298.443 76.7017 298.937 76.7017C299.426 76.7017 299.844 76.8665 300.19 77.196C300.543 77.5199 300.719 77.9148 300.719 78.3807C300.719 78.8409 300.543 79.2358 300.19 79.5653C299.844 79.8892 299.426 80.0511 298.937 80.0511ZM308.148 95.2642C307.319 95.2642 306.572 95.1165 305.907 94.821C305.248 94.5199 304.725 94.0767 304.339 93.4915C303.958 92.9062 303.768 92.1847 303.768 91.3267C303.768 90.5881 303.904 89.9773 304.177 89.4943C304.449 89.0114 304.822 88.625 305.293 88.3352C305.765 88.0455 306.296 87.8267 306.887 87.679C307.483 87.5256 308.1 87.4148 308.736 87.3466C309.503 87.267 310.125 87.196 310.603 87.1335C311.08 87.0653 311.427 86.9631 311.643 86.8267C311.864 86.6847 311.975 86.4659 311.975 86.1705V86.1193C311.975 85.4773 311.785 84.9801 311.404 84.6278C311.023 84.2756 310.475 84.0994 309.759 84.0994C309.003 84.0994 308.404 84.2642 307.961 84.5938C307.523 84.9233 307.228 85.3125 307.074 85.7614L304.194 85.3523C304.421 84.5568 304.796 83.892 305.319 83.358C305.841 82.8182 306.481 82.4148 307.236 82.1477C307.992 81.875 308.827 81.7386 309.742 81.7386C310.373 81.7386 311 81.8125 311.625 81.9602C312.25 82.108 312.822 82.3523 313.339 82.6932C313.856 83.0284 314.27 83.4858 314.583 84.0653C314.901 84.6449 315.06 85.3693 315.06 86.2386V95H312.094V93.2017H311.992C311.804 93.5653 311.54 93.9062 311.199 94.2244C310.864 94.5369 310.441 94.7898 309.929 94.983C309.424 95.1705 308.83 95.2642 308.148 95.2642ZM308.949 92.9972C309.569 92.9972 310.106 92.875 310.56 92.6307C311.015 92.3807 311.364 92.0511 311.608 91.642C311.858 91.233 311.983 90.7869 311.983 90.304V88.7614C311.887 88.8409 311.722 88.9148 311.489 88.983C311.262 89.0511 311.006 89.1108 310.722 89.1619C310.438 89.2131 310.157 89.2585 309.878 89.2983C309.6 89.3381 309.358 89.3722 309.154 89.4006C308.694 89.4631 308.282 89.5653 307.918 89.7074C307.554 89.8494 307.268 90.0483 307.057 90.304C306.847 90.554 306.742 90.8778 306.742 91.2756C306.742 91.8438 306.949 92.2727 307.364 92.5625C307.779 92.8523 308.307 92.9972 308.949 92.9972ZM323.74 95.2301C322.712 95.2301 321.792 94.9659 320.979 94.4375C320.167 93.9091 319.524 93.142 319.053 92.1364C318.581 91.1307 318.345 89.9091 318.345 88.4716C318.345 87.017 318.584 85.7898 319.061 84.7898C319.544 83.7841 320.195 83.0256 321.013 82.5142C321.831 81.9972 322.743 81.7386 323.749 81.7386C324.516 81.7386 325.147 81.8693 325.641 82.1307C326.135 82.3864 326.527 82.696 326.817 83.0597C327.107 83.4176 327.331 83.7557 327.49 84.0739H327.618V77.5455H330.712V95H327.678V92.9375H327.49C327.331 93.2557 327.101 93.5937 326.8 93.9517C326.499 94.304 326.101 94.6051 325.607 94.8551C325.113 95.1051 324.49 95.2301 323.74 95.2301ZM324.601 92.6989C325.255 92.6989 325.811 92.5227 326.272 92.1705C326.732 91.8125 327.081 91.3153 327.32 90.679C327.559 90.0426 327.678 89.3011 327.678 88.4545C327.678 87.608 327.559 86.8722 327.32 86.2472C327.087 85.6222 326.74 85.1364 326.28 84.7898C325.826 84.4432 325.266 84.2699 324.601 84.2699C323.914 84.2699 323.34 84.4489 322.88 84.8068C322.419 85.1648 322.073 85.6591 321.84 86.2898C321.607 86.9205 321.49 87.642 321.49 88.4545C321.49 89.2727 321.607 90.0028 321.84 90.6449C322.078 91.2812 322.428 91.7841 322.888 92.1534C323.354 92.517 323.925 92.6989 324.601 92.6989ZM334.72 95V81.9091H337.805V95H334.72ZM336.271 80.0511C335.782 80.0511 335.362 79.8892 335.009 79.5653C334.657 79.2358 334.481 78.8409 334.481 78.3807C334.481 77.9148 334.657 77.5199 335.009 77.196C335.362 76.8665 335.782 76.7017 336.271 76.7017C336.765 76.7017 337.186 76.8665 337.532 77.196C337.884 77.5199 338.061 77.9148 338.061 78.3807C338.061 78.8409 337.884 79.2358 337.532 79.5653C337.186 79.8892 336.765 80.0511 336.271 80.0511ZM351.456 87.3295V95H348.371V77.5455H351.388V84.1335H351.541C351.848 83.3949 352.322 82.8125 352.964 82.3864C353.612 81.9545 354.436 81.7386 355.436 81.7386C356.345 81.7386 357.138 81.929 357.814 82.3097C358.49 82.6903 359.013 83.2472 359.382 83.9801C359.757 84.7131 359.944 85.608 359.944 86.6648V95H356.859V87.142C356.859 86.2614 356.632 85.5767 356.177 85.0881C355.728 84.5937 355.098 84.3466 354.285 84.3466C353.74 84.3466 353.251 84.4659 352.819 84.7045C352.393 84.9375 352.058 85.2756 351.814 85.7188C351.575 86.1619 351.456 86.6989 351.456 87.3295ZM367.576 95.2642C366.747 95.2642 366 95.1165 365.335 94.821C364.676 94.5199 364.153 94.0767 363.767 93.4915C363.386 92.9062 363.196 92.1847 363.196 91.3267C363.196 90.5881 363.332 89.9773 363.605 89.4943C363.877 89.0114 364.25 88.625 364.721 88.3352C365.193 88.0455 365.724 87.8267 366.315 87.679C366.912 87.5256 367.528 87.4148 368.164 87.3466C368.931 87.267 369.554 87.196 370.031 87.1335C370.508 87.0653 370.855 86.9631 371.071 86.8267C371.292 86.6847 371.403 86.4659 371.403 86.1705V86.1193C371.403 85.4773 371.213 84.9801 370.832 84.6278C370.451 84.2756 369.903 84.0994 369.187 84.0994C368.431 84.0994 367.832 84.2642 367.389 84.5938C366.951 84.9233 366.656 85.3125 366.502 85.7614L363.622 85.3523C363.849 84.5568 364.224 83.892 364.747 83.358C365.27 82.8182 365.909 82.4148 366.664 82.1477C367.42 81.875 368.255 81.7386 369.17 81.7386C369.801 81.7386 370.429 81.8125 371.054 81.9602C371.679 82.108 372.25 82.3523 372.767 82.6932C373.284 83.0284 373.698 83.4858 374.011 84.0653C374.329 84.6449 374.488 85.3693 374.488 86.2386V95H371.522V93.2017H371.42C371.233 93.5653 370.968 93.9062 370.627 94.2244C370.292 94.5369 369.869 94.7898 369.358 94.983C368.852 95.1705 368.258 95.2642 367.576 95.2642ZM368.377 92.9972C368.997 92.9972 369.534 92.875 369.988 92.6307C370.443 92.3807 370.792 92.0511 371.037 91.642C371.287 91.233 371.412 90.7869 371.412 90.304V88.7614C371.315 88.8409 371.15 88.9148 370.917 88.983C370.69 89.0511 370.434 89.1108 370.15 89.1619C369.866 89.2131 369.585 89.2585 369.306 89.2983C369.028 89.3381 368.787 89.3722 368.582 89.4006C368.122 89.4631 367.71 89.5653 367.346 89.7074C366.983 89.8494 366.696 90.0483 366.485 90.304C366.275 90.554 366.17 90.8778 366.17 91.2756C366.17 91.8438 366.377 92.2727 366.792 92.5625C367.207 92.8523 367.735 92.9972 368.377 92.9972ZM381.396 87.3295V95H378.311V81.9091H381.259V84.1335H381.413C381.714 83.4006 382.194 82.8182 382.853 82.3864C383.518 81.9545 384.339 81.7386 385.316 81.7386C386.22 81.7386 387.007 81.9318 387.677 82.3182C388.353 82.7045 388.876 83.2642 389.245 83.9972C389.62 84.7301 389.805 85.6193 389.799 86.6648V95H386.714V87.142C386.714 86.267 386.487 85.5824 386.032 85.0881C385.583 84.5937 384.961 84.3466 384.166 84.3466C383.626 84.3466 383.146 84.4659 382.725 84.7045C382.311 84.9375 381.984 85.2756 381.745 85.7188C381.512 86.1619 381.396 86.6989 381.396 87.3295ZM399.349 100.182C398.241 100.182 397.289 100.031 396.494 99.7301C395.698 99.4347 395.059 99.0369 394.576 98.5369C394.093 98.0369 393.758 97.483 393.57 96.875L396.349 96.2017C396.474 96.4574 396.656 96.7102 396.894 96.9602C397.133 97.2159 397.454 97.4261 397.857 97.5909C398.266 97.7614 398.781 97.8466 399.4 97.8466C400.275 97.8466 400.999 97.6335 401.573 97.2074C402.147 96.7869 402.434 96.0938 402.434 95.1278V92.6477H402.281C402.121 92.9659 401.888 93.2926 401.582 93.6278C401.281 93.9631 400.88 94.2443 400.38 94.4716C399.886 94.6989 399.263 94.8125 398.513 94.8125C397.508 94.8125 396.596 94.5767 395.778 94.1051C394.965 93.6278 394.317 92.9176 393.835 91.9744C393.357 91.0256 393.119 89.8381 393.119 88.4119C393.119 86.9744 393.357 85.7614 393.835 84.7727C394.317 83.7784 394.968 83.0256 395.786 82.5142C396.604 81.9972 397.516 81.7386 398.522 81.7386C399.289 81.7386 399.92 81.8693 400.414 82.1307C400.914 82.3864 401.312 82.696 401.607 83.0597C401.903 83.4176 402.127 83.7557 402.281 84.0739H402.451V81.9091H405.494V95.2131C405.494 96.3324 405.227 97.2585 404.692 97.9915C404.158 98.7244 403.428 99.2727 402.502 99.6364C401.576 100 400.525 100.182 399.349 100.182ZM399.374 92.392C400.028 92.392 400.585 92.233 401.045 91.9148C401.505 91.5966 401.854 91.1392 402.093 90.5426C402.332 89.946 402.451 89.2301 402.451 88.3949C402.451 87.571 402.332 86.8494 402.093 86.2301C401.86 85.6108 401.513 85.1307 401.053 84.7898C400.599 84.4432 400.039 84.2699 399.374 84.2699C398.687 84.2699 398.113 84.4489 397.653 84.8068C397.192 85.1648 396.846 85.6562 396.613 86.2812C396.38 86.9006 396.263 87.6051 396.263 88.3949C396.263 89.196 396.38 89.8977 396.613 90.5C396.852 91.0966 397.201 91.5625 397.661 91.8977C398.127 92.2273 398.698 92.392 399.374 92.392ZM413.143 95.2642C412.313 95.2642 411.566 95.1165 410.901 94.821C410.242 94.5199 409.719 94.0767 409.333 93.4915C408.952 92.9062 408.762 92.1847 408.762 91.3267C408.762 90.5881 408.898 89.9773 409.171 89.4943C409.444 89.0114 409.816 88.625 410.287 88.3352C410.759 88.0455 411.29 87.8267 411.881 87.679C412.478 87.5256 413.094 87.4148 413.731 87.3466C414.498 87.267 415.12 87.196 415.597 87.1335C416.074 87.0653 416.421 86.9631 416.637 86.8267C416.858 86.6847 416.969 86.4659 416.969 86.1705V86.1193C416.969 85.4773 416.779 84.9801 416.398 84.6278C416.018 84.2756 415.469 84.0994 414.753 84.0994C413.998 84.0994 413.398 84.2642 412.955 84.5938C412.518 84.9233 412.222 85.3125 412.069 85.7614L409.188 85.3523C409.415 84.5568 409.79 83.892 410.313 83.358C410.836 82.8182 411.475 82.4148 412.231 82.1477C412.986 81.875 413.822 81.7386 414.736 81.7386C415.367 81.7386 415.995 81.8125 416.62 81.9602C417.245 82.108 417.816 82.3523 418.333 82.6932C418.85 83.0284 419.265 83.4858 419.577 84.0653C419.895 84.6449 420.055 85.3693 420.055 86.2386V95H417.089V93.2017H416.986C416.799 93.5653 416.535 93.9062 416.194 94.2244C415.858 94.5369 415.435 94.7898 414.924 94.983C414.418 95.1705 413.824 95.2642 413.143 95.2642ZM413.944 92.9972C414.563 92.9972 415.1 92.875 415.555 92.6307C416.009 92.3807 416.358 92.0511 416.603 91.642C416.853 91.233 416.978 90.7869 416.978 90.304V88.7614C416.881 88.8409 416.716 88.9148 416.483 88.983C416.256 89.0511 416.001 89.1108 415.716 89.1619C415.432 89.2131 415.151 89.2585 414.873 89.2983C414.594 89.3381 414.353 89.3722 414.148 89.4006C413.688 89.4631 413.276 89.5653 412.912 89.7074C412.549 89.8494 412.262 90.0483 412.052 90.304C411.841 90.554 411.736 90.8778 411.736 91.2756C411.736 91.8438 411.944 92.2727 412.358 92.5625C412.773 92.8523 413.302 92.9972 413.944 92.9972ZM430.414 81.9091V84.2955H422.888V81.9091H430.414ZM424.746 78.7727H427.831V91.0625C427.831 91.4773 427.894 91.7955 428.019 92.017C428.15 92.233 428.32 92.3807 428.53 92.4602C428.74 92.5398 428.973 92.5795 429.229 92.5795C429.422 92.5795 429.598 92.5653 429.757 92.5369C429.922 92.5085 430.047 92.483 430.132 92.4602L430.652 94.8722C430.488 94.929 430.252 94.9915 429.945 95.0597C429.644 95.1278 429.275 95.1676 428.837 95.179C428.064 95.2017 427.368 95.0852 426.749 94.8295C426.13 94.5682 425.638 94.1648 425.275 93.6193C424.917 93.0739 424.74 92.392 424.746 91.5739V78.7727ZM436.663 89.8693V89.6477C436.669 88.6193 436.765 87.8011 436.953 87.1932C437.146 86.5852 437.419 86.0966 437.771 85.7273C438.123 85.3523 438.552 85.0085 439.058 84.696C439.404 84.4801 439.714 84.2443 439.987 83.9886C440.265 83.7273 440.484 83.4375 440.643 83.1193C440.802 82.7955 440.882 82.4347 440.882 82.0369C440.882 81.5881 440.776 81.1989 440.566 80.8693C440.356 80.5398 440.072 80.2841 439.714 80.1023C439.362 79.9205 438.967 79.8295 438.529 79.8295C438.126 79.8295 437.742 79.9176 437.379 80.0938C437.021 80.2642 436.723 80.5256 436.484 80.8778C436.251 81.2244 436.12 81.6648 436.092 82.1989H433.058C433.086 81.1193 433.348 80.2159 433.842 79.4886C434.342 78.7614 435.001 78.2159 435.819 77.8523C436.643 77.4886 437.552 77.3068 438.546 77.3068C439.632 77.3068 440.586 77.4972 441.41 77.8778C442.24 78.2585 442.884 78.8011 443.345 79.5057C443.811 80.2045 444.044 81.0341 444.044 81.9943C444.044 82.642 443.938 83.2216 443.728 83.733C443.524 84.2443 443.231 84.6989 442.85 85.0966C442.47 85.4943 442.018 85.8494 441.495 86.1619C441.035 86.446 440.657 86.7415 440.362 87.0483C440.072 87.3551 439.856 87.7159 439.714 88.1307C439.578 88.5398 439.507 89.0455 439.501 89.6477V89.8693H436.663ZM438.146 95.1875C437.634 95.1875 437.194 95.0057 436.825 94.642C436.455 94.2784 436.271 93.8352 436.271 93.3125C436.271 92.8011 436.455 92.3636 436.825 92C437.194 91.6364 437.634 91.4545 438.146 91.4545C438.651 91.4545 439.089 91.6364 439.458 92C439.833 92.3636 440.021 92.8011 440.021 93.3125C440.021 93.6591 439.933 93.9744 439.757 94.2585C439.586 94.5426 439.359 94.7699 439.075 94.9403C438.796 95.1051 438.487 95.1875 438.146 95.1875Z" fill="black"/>
<path d="M38.7946 27.8671C40.9026 25.1727 45.2007 26.1961 45.8682 29.5514L50.9473 55.0822C51.3783 57.2489 49.9712 59.3548 47.8045 59.7858L18.1337 65.6877C14.4951 66.4115 11.917 62.2217 14.2029 59.2998L38.7946 27.8671Z" fill="white"/>
</svg>
