<svg width="575" height="172" viewBox="0 0 575 172" fill="none" xmlns="http://www.w3.org/2000/svg">
<rect x="40" width="535" height="172" rx="8" fill="white"/>
<path d="M88.6619 47.4347H85.4744C85.3835 46.9119 85.2159 46.4489 84.9716 46.0455C84.7273 45.6364 84.4233 45.2898 84.0597 45.0057C83.696 44.7216 83.2813 44.5085 82.8153 44.3665C82.3551 44.2188 81.858 44.1449 81.3239 44.1449C80.375 44.1449 79.5341 44.3835 78.8011 44.8608C78.0682 45.3324 77.4943 46.0256 77.0795 46.9403C76.6648 47.8494 76.4574 48.9602 76.4574 50.2727C76.4574 51.608 76.6648 52.733 77.0795 53.6477C77.5 54.5568 78.0739 55.2443 78.8011 55.7102C79.5341 56.1705 80.3722 56.4006 81.3153 56.4006C81.8381 56.4006 82.3267 56.3324 82.7812 56.196C83.2415 56.054 83.6534 55.8466 84.017 55.5739C84.3864 55.3011 84.696 54.9659 84.946 54.5682C85.2017 54.1705 85.3778 53.7159 85.4744 53.2045L88.6619 53.2216C88.5426 54.0511 88.2841 54.8295 87.8864 55.5568C87.4943 56.2841 86.9801 56.9261 86.3438 57.483C85.7074 58.0341 84.9631 58.4659 84.1108 58.7784C83.2585 59.0852 82.3125 59.2386 81.2727 59.2386C79.7386 59.2386 78.3693 58.8835 77.1648 58.1733C75.9602 57.4631 75.0114 56.4375 74.3182 55.0966C73.625 53.7557 73.2784 52.1477 73.2784 50.2727C73.2784 48.392 73.6278 46.7841 74.3267 45.4489C75.0256 44.108 75.9773 43.0824 77.1818 42.3722C78.3864 41.6619 79.75 41.3068 81.2727 41.3068C82.2443 41.3068 83.1477 41.4432 83.983 41.7159C84.8182 41.9886 85.5625 42.3892 86.2159 42.9176C86.8693 43.4403 87.4063 44.0824 87.8267 44.8438C88.2528 45.5994 88.5313 46.4631 88.6619 47.4347ZM97.8514 59.2557C96.573 59.2557 95.465 58.9744 94.5275 58.4119C93.59 57.8494 92.8628 57.0625 92.3457 56.0511C91.8343 55.0398 91.5787 53.858 91.5787 52.5057C91.5787 51.1534 91.8343 49.9687 92.3457 48.9517C92.8628 47.9347 93.59 47.1449 94.5275 46.5824C95.465 46.0199 96.573 45.7386 97.8514 45.7386C99.1298 45.7386 100.238 46.0199 101.175 46.5824C102.113 47.1449 102.837 47.9347 103.349 48.9517C103.866 49.9687 104.124 51.1534 104.124 52.5057C104.124 53.858 103.866 55.0398 103.349 56.0511C102.837 57.0625 102.113 57.8494 101.175 58.4119C100.238 58.9744 99.1298 59.2557 97.8514 59.2557ZM97.8684 56.7841C98.5616 56.7841 99.1412 56.5937 99.6071 56.2131C100.073 55.8267 100.42 55.3097 100.647 54.6619C100.88 54.0142 100.996 53.2926 100.996 52.4972C100.996 51.696 100.88 50.9716 100.647 50.3239C100.42 49.6705 100.073 49.1506 99.6071 48.7642C99.1412 48.3778 98.5616 48.1847 97.8684 48.1847C97.1582 48.1847 96.5673 48.3778 96.0957 48.7642C95.6298 49.1506 95.2804 49.6705 95.0474 50.3239C94.8201 50.9716 94.7065 51.696 94.7065 52.4972C94.7065 53.2926 94.8201 54.0142 95.0474 54.6619C95.2804 55.3097 95.6298 55.8267 96.0957 56.2131C96.5673 56.5937 97.1582 56.7841 97.8684 56.7841ZM107.599 59V41.5455H110.684V48.0739H110.812C110.971 47.7557 111.196 47.4176 111.485 47.0597C111.775 46.696 112.167 46.3864 112.662 46.1307C113.156 45.8693 113.787 45.7386 114.554 45.7386C115.565 45.7386 116.477 45.9972 117.289 46.5142C118.108 47.0256 118.755 47.7841 119.233 48.7898C119.716 49.7898 119.957 51.017 119.957 52.4716C119.957 53.9091 119.721 55.1307 119.25 56.1364C118.778 57.142 118.136 57.9091 117.324 58.4375C116.511 58.9659 115.591 59.2301 114.562 59.2301C113.812 59.2301 113.19 59.1051 112.696 58.8551C112.201 58.6051 111.804 58.304 111.502 57.9517C111.207 57.5937 110.977 57.2557 110.812 56.9375H110.633V59H107.599ZM110.625 52.4545C110.625 53.3011 110.744 54.0426 110.983 54.679C111.227 55.3153 111.576 55.8125 112.031 56.1705C112.491 56.5227 113.048 56.6989 113.701 56.6989C114.383 56.6989 114.954 56.517 115.414 56.1534C115.875 55.7841 116.221 55.2812 116.454 54.6449C116.693 54.0028 116.812 53.2727 116.812 52.4545C116.812 51.642 116.696 50.9205 116.463 50.2898C116.23 49.6591 115.883 49.1648 115.423 48.8068C114.963 48.4489 114.389 48.2699 113.701 48.2699C113.042 48.2699 112.483 48.4432 112.022 48.7898C111.562 49.1364 111.213 49.6222 110.974 50.2472C110.741 50.8722 110.625 51.608 110.625 52.4545ZM127.067 59.2642C126.237 59.2642 125.49 59.1165 124.825 58.821C124.166 58.5199 123.644 58.0767 123.257 57.4915C122.877 56.9062 122.686 56.1847 122.686 55.3267C122.686 54.5881 122.823 53.9773 123.095 53.4943C123.368 53.0114 123.74 52.625 124.212 52.3352C124.683 52.0455 125.215 51.8267 125.806 51.679C126.402 51.5256 127.019 51.4148 127.655 51.3466C128.422 51.267 129.044 51.196 129.522 51.1335C129.999 51.0653 130.345 50.9631 130.561 50.8267C130.783 50.6847 130.894 50.4659 130.894 50.1705V50.1193C130.894 49.4773 130.703 48.9801 130.323 48.6278C129.942 48.2756 129.394 48.0994 128.678 48.0994C127.922 48.0994 127.323 48.2642 126.879 48.5938C126.442 48.9233 126.147 49.3125 125.993 49.7614L123.112 49.3523C123.34 48.5568 123.715 47.892 124.237 47.358C124.76 46.8182 125.399 46.4148 126.155 46.1477C126.911 45.875 127.746 45.7386 128.661 45.7386C129.291 45.7386 129.919 45.8125 130.544 45.9602C131.169 46.108 131.74 46.3523 132.257 46.6932C132.774 47.0284 133.189 47.4858 133.502 48.0653C133.82 48.6449 133.979 49.3693 133.979 50.2386V59H131.013V57.2017H130.911C130.723 57.5653 130.459 57.9062 130.118 58.2244C129.783 58.5369 129.36 58.7898 128.848 58.983C128.343 59.1705 127.749 59.2642 127.067 59.2642ZM127.868 56.9972C128.487 56.9972 129.024 56.875 129.479 56.6307C129.933 56.3807 130.283 56.0511 130.527 55.642C130.777 55.233 130.902 54.7869 130.902 54.304V52.7614C130.806 52.8409 130.641 52.9148 130.408 52.983C130.181 53.0511 129.925 53.1108 129.641 53.1619C129.357 53.2131 129.075 53.2585 128.797 53.2983C128.519 53.3381 128.277 53.3722 128.073 53.4006C127.612 53.4631 127.2 53.5653 126.837 53.7074C126.473 53.8494 126.186 54.0483 125.976 54.304C125.766 54.554 125.661 54.8778 125.661 55.2756C125.661 55.8438 125.868 56.2727 126.283 56.5625C126.698 56.8523 127.226 56.9972 127.868 56.9972ZM150.167 64.1818C149.06 64.1818 148.108 64.0313 147.312 63.7301C146.517 63.4347 145.878 63.0369 145.395 62.5369C144.912 62.0369 144.577 61.483 144.389 60.875L147.167 60.2017C147.292 60.4574 147.474 60.7102 147.713 60.9602C147.952 61.2159 148.273 61.4261 148.676 61.5909C149.085 61.7614 149.599 61.8466 150.219 61.8466C151.094 61.8466 151.818 61.6335 152.392 61.2074C152.966 60.7869 153.253 60.0938 153.253 59.1278V56.6477H153.099C152.94 56.9659 152.707 57.2926 152.4 57.6278C152.099 57.9631 151.699 58.2443 151.199 58.4716C150.704 58.6989 150.082 58.8125 149.332 58.8125C148.327 58.8125 147.415 58.5767 146.596 58.1051C145.784 57.6278 145.136 56.9176 144.653 55.9744C144.176 55.0256 143.937 53.8381 143.937 52.4119C143.937 50.9744 144.176 49.7614 144.653 48.7727C145.136 47.7784 145.787 47.0256 146.605 46.5142C147.423 45.9972 148.335 45.7386 149.341 45.7386C150.108 45.7386 150.738 45.8693 151.233 46.1307C151.733 46.3864 152.131 46.696 152.426 47.0597C152.721 47.4176 152.946 47.7557 153.099 48.0739H153.27V45.9091H156.312V59.2131C156.312 60.3324 156.045 61.2585 155.511 61.9915C154.977 62.7244 154.247 63.2727 153.321 63.6364C152.395 64 151.344 64.1818 150.167 64.1818ZM150.193 56.392C150.846 56.392 151.403 56.233 151.863 55.9148C152.324 55.5966 152.673 55.1392 152.912 54.5426C153.15 53.946 153.27 53.2301 153.27 52.3949C153.27 51.571 153.15 50.8494 152.912 50.2301C152.679 49.6108 152.332 49.1307 151.872 48.7898C151.417 48.4432 150.858 48.2699 150.193 48.2699C149.506 48.2699 148.932 48.4489 148.471 48.8068C148.011 49.1648 147.665 49.6562 147.432 50.2812C147.199 50.9006 147.082 51.6051 147.082 52.3949C147.082 53.196 147.199 53.8977 147.432 54.5C147.67 55.0966 148.02 55.5625 148.48 55.8977C148.946 56.2273 149.517 56.392 150.193 56.392ZM165.99 59.2557C164.677 59.2557 163.544 58.983 162.589 58.4375C161.64 57.8864 160.91 57.108 160.399 56.1023C159.887 55.0909 159.632 53.9006 159.632 52.5312C159.632 51.1847 159.887 50.0028 160.399 48.9858C160.916 47.9631 161.637 47.1676 162.564 46.5994C163.49 46.0256 164.578 45.7386 165.828 45.7386C166.635 45.7386 167.396 45.8693 168.112 46.1307C168.833 46.3864 169.47 46.7841 170.021 47.3239C170.578 47.8636 171.015 48.5511 171.333 49.3864C171.652 50.2159 171.811 51.2045 171.811 52.3523V53.2983H161.081V51.2188H168.853C168.848 50.6278 168.72 50.1023 168.47 49.642C168.22 49.1761 167.87 48.8097 167.422 48.5426C166.978 48.2756 166.461 48.142 165.87 48.142C165.24 48.142 164.686 48.2955 164.208 48.6023C163.731 48.9034 163.359 49.3011 163.092 49.7955C162.831 50.2841 162.697 50.821 162.691 51.4062V53.2216C162.691 53.983 162.831 54.6364 163.109 55.1818C163.387 55.7216 163.777 56.1364 164.277 56.4261C164.777 56.7102 165.362 56.8523 166.032 56.8523C166.481 56.8523 166.887 56.7898 167.251 56.6648C167.615 56.5341 167.93 56.3438 168.197 56.0938C168.464 55.8438 168.666 55.5341 168.802 55.1648L171.683 55.4886C171.501 56.25 171.155 56.9148 170.643 57.483C170.137 58.0455 169.49 58.483 168.7 58.7955C167.91 59.1023 167.007 59.2557 165.99 59.2557ZM185.487 49.3693L182.675 49.6761C182.595 49.392 182.456 49.125 182.257 48.875C182.064 48.625 181.803 48.4233 181.473 48.2699C181.144 48.1165 180.74 48.0398 180.263 48.0398C179.621 48.0398 179.081 48.179 178.644 48.4574C178.212 48.7358 177.999 49.0966 178.004 49.5398C177.999 49.9205 178.138 50.2301 178.422 50.4688C178.712 50.7074 179.189 50.9034 179.854 51.0568L182.087 51.5341C183.326 51.8011 184.246 52.2244 184.848 52.804C185.456 53.3835 185.763 54.142 185.769 55.0795C185.763 55.9034 185.522 56.6307 185.044 57.2614C184.573 57.8864 183.916 58.375 183.076 58.7273C182.235 59.0795 181.269 59.2557 180.178 59.2557C178.576 59.2557 177.286 58.9205 176.308 58.25C175.331 57.5739 174.749 56.6335 174.561 55.429L177.57 55.1392C177.706 55.7301 177.996 56.1761 178.439 56.4773C178.882 56.7784 179.459 56.929 180.169 56.929C180.902 56.929 181.49 56.7784 181.933 56.4773C182.382 56.1761 182.607 55.804 182.607 55.3608C182.607 54.9858 182.462 54.6761 182.172 54.4318C181.888 54.1875 181.445 54 180.843 53.8693L178.61 53.4006C177.354 53.1392 176.425 52.6989 175.823 52.0795C175.22 51.4545 174.922 50.6648 174.928 49.7102C174.922 48.9034 175.141 48.2045 175.584 47.6136C176.033 47.017 176.655 46.5568 177.451 46.233C178.252 45.9034 179.175 45.7386 180.22 45.7386C181.754 45.7386 182.962 46.0653 183.843 46.7188C184.729 47.3722 185.277 48.2557 185.487 49.3693ZM194.828 59.2557C193.516 59.2557 192.382 58.983 191.428 58.4375C190.479 57.8864 189.749 57.108 189.237 56.1023C188.726 55.0909 188.47 53.9006 188.47 52.5312C188.47 51.1847 188.726 50.0028 189.237 48.9858C189.754 47.9631 190.476 47.1676 191.402 46.5994C192.328 46.0256 193.416 45.7386 194.666 45.7386C195.473 45.7386 196.234 45.8693 196.95 46.1307C197.672 46.3864 198.308 46.7841 198.859 47.3239C199.416 47.8636 199.854 48.5511 200.172 49.3864C200.49 50.2159 200.649 51.2045 200.649 52.3523V53.2983H189.919V51.2188H197.692C197.686 50.6278 197.558 50.1023 197.308 49.642C197.058 49.1761 196.709 48.8097 196.26 48.5426C195.817 48.2756 195.3 48.142 194.709 48.142C194.078 48.142 193.524 48.2955 193.047 48.6023C192.57 48.9034 192.198 49.3011 191.93 49.7955C191.669 50.2841 191.536 50.821 191.53 51.4062V53.2216C191.53 53.983 191.669 54.6364 191.948 55.1818C192.226 55.7216 192.615 56.1364 193.115 56.4261C193.615 56.7102 194.2 56.8523 194.871 56.8523C195.32 56.8523 195.726 56.7898 196.09 56.6648C196.453 56.5341 196.769 56.3438 197.036 56.0938C197.303 55.8438 197.504 55.5341 197.641 55.1648L200.521 55.4886C200.34 56.25 199.993 56.9148 199.482 57.483C198.976 58.0455 198.328 58.483 197.538 58.7955C196.749 59.1023 195.845 59.2557 194.828 59.2557ZM206.792 54.892L206.783 51.1676H207.278L211.982 45.9091H215.587L209.8 52.3523H209.161L206.792 54.892ZM203.979 59V41.5455H207.065V59H203.979ZM212.195 59L207.934 53.0426L210.013 50.8693L215.886 59H212.195ZM221.176 54.892L221.167 51.1676H221.662L226.366 45.9091H229.971L224.184 52.3523H223.545L221.176 54.892ZM218.363 59V41.5455H221.449V59H218.363ZM226.579 59L222.318 53.0426L224.397 50.8693L230.27 59H226.579ZM236.514 59.2642C235.685 59.2642 234.938 59.1165 234.273 58.821C233.614 58.5199 233.091 58.0767 232.705 57.4915C232.324 56.9062 232.134 56.1847 232.134 55.3267C232.134 54.5881 232.27 53.9773 232.543 53.4943C232.816 53.0114 233.188 52.625 233.659 52.3352C234.131 52.0455 234.662 51.8267 235.253 51.679C235.85 51.5256 236.466 51.4148 237.103 51.3466C237.87 51.267 238.492 51.196 238.969 51.1335C239.446 51.0653 239.793 50.9631 240.009 50.8267C240.23 50.6847 240.341 50.4659 240.341 50.1705V50.1193C240.341 49.4773 240.151 48.9801 239.77 48.6278C239.389 48.2756 238.841 48.0994 238.125 48.0994C237.37 48.0994 236.77 48.2642 236.327 48.5938C235.889 48.9233 235.594 49.3125 235.441 49.7614L232.56 49.3523C232.787 48.5568 233.162 47.892 233.685 47.358C234.208 46.8182 234.847 46.4148 235.603 46.1477C236.358 45.875 237.193 45.7386 238.108 45.7386C238.739 45.7386 239.367 45.8125 239.992 45.9602C240.617 46.108 241.188 46.3523 241.705 46.6932C242.222 47.0284 242.637 47.4858 242.949 48.0653C243.267 48.6449 243.426 49.3693 243.426 50.2386V59H240.46V57.2017H240.358C240.171 57.5653 239.907 57.9062 239.566 58.2244C239.23 58.5369 238.807 58.7898 238.296 58.983C237.79 59.1705 237.196 59.2642 236.514 59.2642ZM237.316 56.9972C237.935 56.9972 238.472 56.875 238.926 56.6307C239.381 56.3807 239.73 56.0511 239.975 55.642C240.225 55.233 240.35 54.7869 240.35 54.304V52.7614C240.253 52.8409 240.088 52.9148 239.855 52.983C239.628 53.0511 239.372 53.1108 239.088 53.1619C238.804 53.2131 238.523 53.2585 238.245 53.2983C237.966 53.3381 237.725 53.3722 237.52 53.4006C237.06 53.4631 236.648 53.5653 236.284 53.7074C235.921 53.8494 235.634 54.0483 235.424 54.304C235.213 54.554 235.108 54.8778 235.108 55.2756C235.108 55.8438 235.316 56.2727 235.73 56.5625C236.145 56.8523 236.674 56.9972 237.316 56.9972ZM250.334 51.3295V59H247.249V45.9091H250.198V48.1335H250.351C250.652 47.4006 251.132 46.8182 251.791 46.3864C252.456 45.9545 253.277 45.7386 254.254 45.7386C255.158 45.7386 255.945 45.9318 256.615 46.3182C257.291 46.7045 257.814 47.2642 258.183 47.9972C258.558 48.7301 258.743 49.6193 258.737 50.6648V59H255.652V51.142C255.652 50.267 255.425 49.5824 254.97 49.0881C254.521 48.5937 253.899 48.3466 253.104 48.3466C252.564 48.3466 252.084 48.4659 251.663 48.7045C251.249 48.9375 250.922 49.2756 250.683 49.7188C250.45 50.1619 250.334 50.6989 250.334 51.3295ZM272.079 54.892L272.071 51.1676H272.565L277.27 45.9091H280.875L275.088 52.3523H274.449L272.079 54.892ZM269.267 59V41.5455H272.352V59H269.267ZM277.483 59L273.221 53.0426L275.301 50.8693L281.173 59H277.483ZM288.907 59.2557C287.595 59.2557 286.461 58.983 285.507 58.4375C284.558 57.8864 283.828 57.108 283.316 56.1023C282.805 55.0909 282.549 53.9006 282.549 52.5312C282.549 51.1847 282.805 50.0028 283.316 48.9858C283.833 47.9631 284.555 47.1676 285.481 46.5994C286.407 46.0256 287.495 45.7386 288.745 45.7386C289.552 45.7386 290.313 45.8693 291.029 46.1307C291.751 46.3864 292.387 46.7841 292.938 47.3239C293.495 47.8636 293.933 48.5511 294.251 49.3864C294.569 50.2159 294.728 51.2045 294.728 52.3523V53.2983H283.998V51.2188H291.771C291.765 50.6278 291.637 50.1023 291.387 49.642C291.137 49.1761 290.788 48.8097 290.339 48.5426C289.896 48.2756 289.379 48.142 288.788 48.142C288.157 48.142 287.603 48.2955 287.126 48.6023C286.649 48.9034 286.277 49.3011 286.01 49.7955C285.748 50.2841 285.615 50.821 285.609 51.4062V53.2216C285.609 53.983 285.748 54.6364 286.027 55.1818C286.305 55.7216 286.694 56.1364 287.194 56.4261C287.694 56.7102 288.279 56.8523 288.95 56.8523C289.399 56.8523 289.805 56.7898 290.169 56.6648C290.532 56.5341 290.848 56.3438 291.115 56.0938C291.382 55.8438 291.583 55.5341 291.72 55.1648L294.6 55.4886C294.419 56.25 294.072 56.9148 293.561 57.483C293.055 58.0455 292.407 58.483 291.617 58.7955C290.828 59.1023 289.924 59.2557 288.907 59.2557ZM302.916 59.2301C301.888 59.2301 300.967 58.9659 300.155 58.4375C299.342 57.9091 298.7 57.142 298.229 56.1364C297.757 55.1307 297.521 53.9091 297.521 52.4716C297.521 51.017 297.76 49.7898 298.237 48.7898C298.72 47.7841 299.371 47.0256 300.189 46.5142C301.007 45.9972 301.919 45.7386 302.925 45.7386C303.692 45.7386 304.323 45.8693 304.817 46.1307C305.311 46.3864 305.703 46.696 305.993 47.0597C306.283 47.4176 306.507 47.7557 306.666 48.0739H306.794V41.5455H309.888V59H306.854V56.9375H306.666C306.507 57.2557 306.277 57.5937 305.976 57.9517C305.675 58.304 305.277 58.6051 304.783 58.8551C304.288 59.1051 303.666 59.2301 302.916 59.2301ZM303.777 56.6989C304.431 56.6989 304.987 56.5227 305.448 56.1705C305.908 55.8125 306.257 55.3153 306.496 54.679C306.734 54.0426 306.854 53.3011 306.854 52.4545C306.854 51.608 306.734 50.8722 306.496 50.2472C306.263 49.6222 305.916 49.1364 305.456 48.7898C305.002 48.4432 304.442 48.2699 303.777 48.2699C303.09 48.2699 302.516 48.4489 302.056 48.8068C301.595 49.1648 301.249 49.6591 301.016 50.2898C300.783 50.9205 300.666 51.642 300.666 52.4545C300.666 53.2727 300.783 54.0028 301.016 54.6449C301.254 55.2812 301.604 55.7841 302.064 56.1534C302.53 56.517 303.101 56.6989 303.777 56.6989ZM322.239 53.4943V45.9091H325.325V59H322.333V56.6733H322.197C321.901 57.4062 321.415 58.0057 320.739 58.4716C320.069 58.9375 319.242 59.1705 318.259 59.1705C317.401 59.1705 316.643 58.9801 315.984 58.5994C315.33 58.2131 314.819 57.6534 314.45 56.9205C314.08 56.1818 313.896 55.2898 313.896 54.2443V45.9091H316.981V53.767C316.981 54.5966 317.208 55.2557 317.663 55.7443C318.117 56.233 318.714 56.4773 319.452 56.4773C319.907 56.4773 320.347 56.3665 320.773 56.1449C321.2 55.9233 321.549 55.5938 321.822 55.1562C322.1 54.7131 322.239 54.1591 322.239 53.4943ZM332.984 59.2642C332.155 59.2642 331.407 59.1165 330.743 58.821C330.084 58.5199 329.561 58.0767 329.174 57.4915C328.794 56.9062 328.603 56.1847 328.603 55.3267C328.603 54.5881 328.74 53.9773 329.013 53.4943C329.285 53.0114 329.657 52.625 330.129 52.3352C330.601 52.0455 331.132 51.8267 331.723 51.679C332.319 51.5256 332.936 51.4148 333.572 51.3466C334.339 51.267 334.961 51.196 335.439 51.1335C335.916 51.0653 336.263 50.9631 336.478 50.8267C336.7 50.6847 336.811 50.4659 336.811 50.1705V50.1193C336.811 49.4773 336.621 48.9801 336.24 48.6278C335.859 48.2756 335.311 48.0994 334.595 48.0994C333.839 48.0994 333.24 48.2642 332.797 48.5938C332.359 48.9233 332.064 49.3125 331.91 49.7614L329.03 49.3523C329.257 48.5568 329.632 47.892 330.155 47.358C330.677 46.8182 331.317 46.4148 332.072 46.1477C332.828 45.875 333.663 45.7386 334.578 45.7386C335.209 45.7386 335.836 45.8125 336.461 45.9602C337.086 46.108 337.657 46.3523 338.174 46.6932C338.692 47.0284 339.106 47.4858 339.419 48.0653C339.737 48.6449 339.896 49.3693 339.896 50.2386V59H336.93V57.2017H336.828C336.64 57.5653 336.376 57.9062 336.035 58.2244C335.7 58.5369 335.277 58.7898 334.765 58.983C334.26 59.1705 333.666 59.2642 332.984 59.2642ZM333.785 56.9972C334.405 56.9972 334.942 56.875 335.396 56.6307C335.851 56.3807 336.2 56.0511 336.444 55.642C336.694 55.233 336.819 54.7869 336.819 54.304V52.7614C336.723 52.8409 336.558 52.9148 336.325 52.983C336.098 53.0511 335.842 53.1108 335.558 53.1619C335.274 53.2131 334.993 53.2585 334.714 53.2983C334.436 53.3381 334.194 53.3722 333.99 53.4006C333.53 53.4631 333.118 53.5653 332.754 53.7074C332.39 53.8494 332.103 54.0483 331.893 54.304C331.683 54.554 331.578 54.8778 331.578 55.2756C331.578 55.8438 331.785 56.2727 332.2 56.5625C332.615 56.8523 333.143 56.9972 333.785 56.9972ZM356.928 45.9091V48.2955H349.403V45.9091H356.928ZM351.261 42.7727H354.346V55.0625C354.346 55.4773 354.409 55.7955 354.534 56.017C354.664 56.233 354.835 56.3807 355.045 56.4602C355.255 56.5398 355.488 56.5795 355.744 56.5795C355.937 56.5795 356.113 56.5653 356.272 56.5369C356.437 56.5085 356.562 56.483 356.647 56.4602L357.167 58.8722C357.002 58.929 356.766 58.9915 356.46 59.0597C356.159 59.1278 355.789 59.1676 355.352 59.179C354.579 59.2017 353.883 59.0852 353.264 58.8295C352.644 58.5682 352.153 58.1648 351.789 57.6193C351.431 57.0739 351.255 56.392 351.261 55.5739V42.7727ZM365.883 59.2557C364.571 59.2557 363.437 58.983 362.483 58.4375C361.534 57.8864 360.804 57.108 360.293 56.1023C359.781 55.0909 359.526 53.9006 359.526 52.5312C359.526 51.1847 359.781 50.0028 360.293 48.9858C360.81 47.9631 361.531 47.1676 362.457 46.5994C363.383 46.0256 364.472 45.7386 365.722 45.7386C366.528 45.7386 367.29 45.8693 368.006 46.1307C368.727 46.3864 369.364 46.7841 369.915 47.3239C370.472 47.8636 370.909 48.5511 371.227 49.3864C371.545 50.2159 371.705 51.2045 371.705 52.3523V53.2983H360.974V51.2188H368.747C368.741 50.6278 368.614 50.1023 368.364 49.642C368.114 49.1761 367.764 48.8097 367.315 48.5426C366.872 48.2756 366.355 48.142 365.764 48.142C365.133 48.142 364.58 48.2955 364.102 48.6023C363.625 48.9034 363.253 49.3011 362.986 49.7955C362.724 50.2841 362.591 50.821 362.585 51.4062V53.2216C362.585 53.983 362.724 54.6364 363.003 55.1818C363.281 55.7216 363.67 56.1364 364.17 56.4261C364.67 56.7102 365.256 56.8523 365.926 56.8523C366.375 56.8523 366.781 56.7898 367.145 56.6648C367.508 56.5341 367.824 56.3438 368.091 56.0938C368.358 55.8438 368.56 55.5341 368.696 55.1648L371.577 55.4886C371.395 56.25 371.048 56.9148 370.537 57.483C370.031 58.0455 369.383 58.483 368.594 58.7955C367.804 59.1023 366.901 59.2557 365.883 59.2557ZM378.12 41.5455V59H375.035V41.5455H378.12ZM385.779 59.2642C384.95 59.2642 384.203 59.1165 383.538 58.821C382.879 58.5199 382.356 58.0767 381.97 57.4915C381.589 56.9062 381.399 56.1847 381.399 55.3267C381.399 54.5881 381.535 53.9773 381.808 53.4943C382.081 53.0114 382.453 52.625 382.924 52.3352C383.396 52.0455 383.927 51.8267 384.518 51.679C385.115 51.5256 385.731 51.4148 386.368 51.3466C387.135 51.267 387.757 51.196 388.234 51.1335C388.711 51.0653 389.058 50.9631 389.274 50.8267C389.495 50.6847 389.606 50.4659 389.606 50.1705V50.1193C389.606 49.4773 389.416 48.9801 389.035 48.6278C388.654 48.2756 388.106 48.0994 387.39 48.0994C386.635 48.0994 386.035 48.2642 385.592 48.5938C385.154 48.9233 384.859 49.3125 384.706 49.7614L381.825 49.3523C382.052 48.5568 382.427 47.892 382.95 47.358C383.473 46.8182 384.112 46.4148 384.868 46.1477C385.623 45.875 386.458 45.7386 387.373 45.7386C388.004 45.7386 388.632 45.8125 389.257 45.9602C389.882 46.108 390.453 46.3523 390.97 46.6932C391.487 47.0284 391.902 47.4858 392.214 48.0653C392.532 48.6449 392.691 49.3693 392.691 50.2386V59H389.725V57.2017H389.623C389.436 57.5653 389.172 57.9062 388.831 58.2244C388.495 58.5369 388.072 58.7898 387.561 58.983C387.055 59.1705 386.461 59.2642 385.779 59.2642ZM386.581 56.9972C387.2 56.9972 387.737 56.875 388.191 56.6307C388.646 56.3807 388.995 56.0511 389.24 55.642C389.49 55.233 389.615 54.7869 389.615 54.304V52.7614C389.518 52.8409 389.353 52.9148 389.12 52.983C388.893 53.0511 388.637 53.1108 388.353 53.1619C388.069 53.2131 387.788 53.2585 387.51 53.2983C387.231 53.3381 386.99 53.3722 386.785 53.4006C386.325 53.4631 385.913 53.5653 385.549 53.7074C385.186 53.8494 384.899 54.0483 384.689 54.304C384.478 54.554 384.373 54.8778 384.373 55.2756C384.373 55.8438 384.581 56.2727 384.995 56.5625C385.41 56.8523 385.939 56.9972 386.581 56.9972ZM396.514 63.9091V45.9091H399.548V48.0739H399.727C399.886 47.7557 400.11 47.4176 400.4 47.0597C400.69 46.696 401.082 46.3864 401.576 46.1307C402.07 45.8693 402.701 45.7386 403.468 45.7386C404.48 45.7386 405.392 45.9972 406.204 46.5142C407.022 47.0256 407.67 47.7841 408.147 48.7898C408.63 49.7898 408.872 51.017 408.872 52.4716C408.872 53.9091 408.636 55.1307 408.164 56.1364C407.693 57.142 407.051 57.9091 406.238 58.4375C405.426 58.9659 404.505 59.2301 403.477 59.2301C402.727 59.2301 402.105 59.1051 401.61 58.8551C401.116 58.6051 400.718 58.304 400.417 57.9517C400.122 57.5937 399.892 57.2557 399.727 56.9375H399.599V63.9091H396.514ZM399.539 52.4545C399.539 53.3011 399.659 54.0426 399.897 54.679C400.142 55.3153 400.491 55.8125 400.945 56.1705C401.406 56.5227 401.963 56.6989 402.616 56.6989C403.298 56.6989 403.869 56.517 404.329 56.1534C404.789 55.7841 405.136 55.2812 405.369 54.6449C405.607 54.0028 405.727 53.2727 405.727 52.4545C405.727 51.642 405.61 50.9205 405.377 50.2898C405.144 49.6591 404.798 49.1648 404.338 48.8068C403.877 48.4489 403.303 48.2699 402.616 48.2699C401.957 48.2699 401.397 48.4432 400.937 48.7898C400.477 49.1364 400.127 49.6222 399.889 50.2472C399.656 50.8722 399.539 51.608 399.539 52.4545ZM416.001 59.2642C415.171 59.2642 414.424 59.1165 413.759 58.821C413.1 58.5199 412.577 58.0767 412.191 57.4915C411.81 56.9062 411.62 56.1847 411.62 55.3267C411.62 54.5881 411.756 53.9773 412.029 53.4943C412.302 53.0114 412.674 52.625 413.146 52.3352C413.617 52.0455 414.148 51.8267 414.739 51.679C415.336 51.5256 415.952 51.4148 416.589 51.3466C417.356 51.267 417.978 51.196 418.455 51.1335C418.933 51.0653 419.279 50.9631 419.495 50.8267C419.717 50.6847 419.827 50.4659 419.827 50.1705V50.1193C419.827 49.4773 419.637 48.9801 419.256 48.6278C418.876 48.2756 418.327 48.0994 417.612 48.0994C416.856 48.0994 416.256 48.2642 415.813 48.5938C415.376 48.9233 415.08 49.3125 414.927 49.7614L412.046 49.3523C412.273 48.5568 412.648 47.892 413.171 47.358C413.694 46.8182 414.333 46.4148 415.089 46.1477C415.844 45.875 416.68 45.7386 417.594 45.7386C418.225 45.7386 418.853 45.8125 419.478 45.9602C420.103 46.108 420.674 46.3523 421.191 46.6932C421.708 47.0284 422.123 47.4858 422.435 48.0653C422.754 48.6449 422.913 49.3693 422.913 50.2386V59H419.947V57.2017H419.844C419.657 57.5653 419.393 57.9062 419.052 58.2244C418.717 58.5369 418.293 58.7898 417.782 58.983C417.276 59.1705 416.683 59.2642 416.001 59.2642ZM416.802 56.9972C417.421 56.9972 417.958 56.875 418.413 56.6307C418.867 56.3807 419.217 56.0511 419.461 55.642C419.711 55.233 419.836 54.7869 419.836 54.304V52.7614C419.739 52.8409 419.575 52.9148 419.342 52.983C419.114 53.0511 418.859 53.1108 418.575 53.1619C418.29 53.2131 418.009 53.2585 417.731 53.2983C417.452 53.3381 417.211 53.3722 417.006 53.4006C416.546 53.4631 416.134 53.5653 415.771 53.7074C415.407 53.8494 415.12 54.0483 414.91 54.304C414.7 54.554 414.594 54.8778 414.594 55.2756C414.594 55.8438 414.802 56.2727 415.217 56.5625C415.631 56.8523 416.16 56.9972 416.802 56.9972ZM429.547 54.892L429.539 51.1676H430.033L434.738 45.9091H438.343L432.556 52.3523H431.917L429.547 54.892ZM426.735 59V41.5455H429.82V59H426.735ZM434.951 59L430.689 53.0426L432.769 50.8693L438.641 59H434.951ZM454.329 45.9091V48.2955H446.803V45.9091H454.329ZM448.661 42.7727H451.747V55.0625C451.747 55.4773 451.809 55.7955 451.934 56.017C452.065 56.233 452.235 56.3807 452.446 56.4602C452.656 56.5398 452.889 56.5795 453.144 56.5795C453.338 56.5795 453.514 56.5653 453.673 56.5369C453.838 56.5085 453.963 56.483 454.048 56.4602L454.568 58.8722C454.403 58.929 454.167 58.9915 453.86 59.0597C453.559 59.1278 453.19 59.1676 452.752 59.179C451.98 59.2017 451.284 59.0852 450.664 58.8295C450.045 58.5682 449.553 58.1648 449.19 57.6193C448.832 57.0739 448.656 56.392 448.661 55.5739V42.7727ZM461.396 59.2642C460.567 59.2642 459.82 59.1165 459.155 58.821C458.496 58.5199 457.973 58.0767 457.587 57.4915C457.206 56.9062 457.016 56.1847 457.016 55.3267C457.016 54.5881 457.152 53.9773 457.425 53.4943C457.697 53.0114 458.07 52.625 458.541 52.3352C459.013 52.0455 459.544 51.8267 460.135 51.679C460.732 51.5256 461.348 51.4148 461.984 51.3466C462.751 51.267 463.374 51.196 463.851 51.1335C464.328 51.0653 464.675 50.9631 464.891 50.8267C465.112 50.6847 465.223 50.4659 465.223 50.1705V50.1193C465.223 49.4773 465.033 48.9801 464.652 48.6278C464.271 48.2756 463.723 48.0994 463.007 48.0994C462.251 48.0994 461.652 48.2642 461.209 48.5938C460.771 48.9233 460.476 49.3125 460.322 49.7614L457.442 49.3523C457.669 48.5568 458.044 47.892 458.567 47.358C459.09 46.8182 459.729 46.4148 460.484 46.1477C461.24 45.875 462.075 45.7386 462.99 45.7386C463.621 45.7386 464.249 45.8125 464.874 45.9602C465.499 46.108 466.07 46.3523 466.587 46.6932C467.104 47.0284 467.518 47.4858 467.831 48.0653C468.149 48.6449 468.308 49.3693 468.308 50.2386V59H465.342V57.2017H465.24C465.053 57.5653 464.788 57.9062 464.447 58.2244C464.112 58.5369 463.689 58.7898 463.178 58.983C462.672 59.1705 462.078 59.2642 461.396 59.2642ZM462.197 56.9972C462.817 56.9972 463.354 56.875 463.808 56.6307C464.263 56.3807 464.612 56.0511 464.857 55.642C465.107 55.233 465.232 54.7869 465.232 54.304V52.7614C465.135 52.8409 464.97 52.9148 464.737 52.983C464.51 53.0511 464.254 53.1108 463.97 53.1619C463.686 53.2131 463.405 53.2585 463.126 53.2983C462.848 53.3381 462.607 53.3722 462.402 53.4006C461.942 53.4631 461.53 53.5653 461.166 53.7074C460.803 53.8494 460.516 54.0483 460.305 54.304C460.095 54.554 459.99 54.8778 459.99 55.2756C459.99 55.8438 460.197 56.2727 460.612 56.5625C461.027 56.8523 461.555 56.9972 462.197 56.9972ZM475.216 51.3295V59H472.131V45.9091H475.079V48.1335H475.233C475.534 47.4006 476.014 46.8182 476.673 46.3864C477.338 45.9545 478.159 45.7386 479.136 45.7386C480.04 45.7386 480.827 45.9318 481.497 46.3182C482.173 46.7045 482.696 47.2642 483.065 47.9972C483.44 48.7301 483.625 49.6193 483.619 50.6648V59H480.534V51.142C480.534 50.267 480.307 49.5824 479.852 49.0881C479.403 48.5937 478.781 48.3466 477.986 48.3466C477.446 48.3466 476.966 48.4659 476.545 48.7045C476.131 48.9375 475.804 49.2756 475.565 49.7188C475.332 50.1619 475.216 50.6989 475.216 51.3295ZM493.169 64.1818C492.061 64.1818 491.109 64.0313 490.314 63.7301C489.518 63.4347 488.879 63.0369 488.396 62.5369C487.913 62.0369 487.578 61.483 487.39 60.875L490.169 60.2017C490.294 60.4574 490.476 60.7102 490.714 60.9602C490.953 61.2159 491.274 61.4261 491.677 61.5909C492.086 61.7614 492.601 61.8466 493.22 61.8466C494.095 61.8466 494.819 61.6335 495.393 61.2074C495.967 60.7869 496.254 60.0938 496.254 59.1278V56.6477H496.101C495.941 56.9659 495.709 57.2926 495.402 57.6278C495.101 57.9631 494.7 58.2443 494.2 58.4716C493.706 58.6989 493.084 58.8125 492.334 58.8125C491.328 58.8125 490.416 58.5767 489.598 58.1051C488.785 57.6278 488.137 56.9176 487.655 55.9744C487.177 55.0256 486.939 53.8381 486.939 52.4119C486.939 50.9744 487.177 49.7614 487.655 48.7727C488.137 47.7784 488.788 47.0256 489.606 46.5142C490.424 45.9972 491.336 45.7386 492.342 45.7386C493.109 45.7386 493.74 45.8693 494.234 46.1307C494.734 46.3864 495.132 46.696 495.427 47.0597C495.723 47.4176 495.947 47.7557 496.101 48.0739H496.271V45.9091H499.314V59.2131C499.314 60.3324 499.047 61.2585 498.512 61.9915C497.978 62.7244 497.248 63.2727 496.322 63.6364C495.396 64 494.345 64.1818 493.169 64.1818ZM493.194 56.392C493.848 56.392 494.405 56.233 494.865 55.9148C495.325 55.5966 495.674 55.1392 495.913 54.5426C496.152 53.946 496.271 53.2301 496.271 52.3949C496.271 51.571 496.152 50.8494 495.913 50.2301C495.68 49.6108 495.334 49.1307 494.873 48.7898C494.419 48.4432 493.859 48.2699 493.194 48.2699C492.507 48.2699 491.933 48.4489 491.473 48.8068C491.012 49.1648 490.666 49.6562 490.433 50.2812C490.2 50.9006 490.084 51.6051 490.084 52.3949C490.084 53.196 490.2 53.8977 490.433 54.5C490.672 55.0966 491.021 55.5625 491.481 55.8977C491.947 56.2273 492.518 56.392 493.194 56.392ZM506.963 59.2642C506.133 59.2642 505.386 59.1165 504.721 58.821C504.062 58.5199 503.539 58.0767 503.153 57.4915C502.772 56.9062 502.582 56.1847 502.582 55.3267C502.582 54.5881 502.718 53.9773 502.991 53.4943C503.264 53.0114 503.636 52.625 504.107 52.3352C504.579 52.0455 505.11 51.8267 505.701 51.679C506.298 51.5256 506.914 51.4148 507.551 51.3466C508.318 51.267 508.94 51.196 509.417 51.1335C509.894 51.0653 510.241 50.9631 510.457 50.8267C510.679 50.6847 510.789 50.4659 510.789 50.1705V50.1193C510.789 49.4773 510.599 48.9801 510.218 48.6278C509.838 48.2756 509.289 48.0994 508.573 48.0994C507.818 48.0994 507.218 48.2642 506.775 48.5938C506.338 48.9233 506.042 49.3125 505.889 49.7614L503.008 49.3523C503.235 48.5568 503.61 47.892 504.133 47.358C504.656 46.8182 505.295 46.4148 506.051 46.1477C506.806 45.875 507.642 45.7386 508.556 45.7386C509.187 45.7386 509.815 45.8125 510.44 45.9602C511.065 46.108 511.636 46.3523 512.153 46.6932C512.67 47.0284 513.085 47.4858 513.397 48.0653C513.715 48.6449 513.875 49.3693 513.875 50.2386V59H510.909V57.2017H510.806C510.619 57.5653 510.355 57.9062 510.014 58.2244C509.679 58.5369 509.255 58.7898 508.744 58.983C508.238 59.1705 507.644 59.2642 506.963 59.2642ZM507.764 56.9972C508.383 56.9972 508.92 56.875 509.375 56.6307C509.829 56.3807 510.179 56.0511 510.423 55.642C510.673 55.233 510.798 54.7869 510.798 54.304V52.7614C510.701 52.8409 510.536 52.9148 510.304 52.983C510.076 53.0511 509.821 53.1108 509.536 53.1619C509.252 53.2131 508.971 53.2585 508.693 53.2983C508.414 53.3381 508.173 53.3722 507.968 53.4006C507.508 53.4631 507.096 53.5653 506.732 53.7074C506.369 53.8494 506.082 54.0483 505.872 54.304C505.661 54.554 505.556 54.8778 505.556 55.2756C505.556 55.8438 505.764 56.2727 506.179 56.5625C506.593 56.8523 507.122 56.9972 507.764 56.9972ZM520.782 51.3295V59H517.697V45.9091H520.646V48.1335H520.799C521.1 47.4006 521.58 46.8182 522.239 46.3864C522.904 45.9545 523.725 45.7386 524.702 45.7386C525.606 45.7386 526.393 45.9318 527.063 46.3182C527.739 46.7045 528.262 47.2642 528.631 47.9972C529.006 48.7301 529.191 49.6193 529.185 50.6648V59H526.1V51.142C526.1 50.267 525.873 49.5824 525.418 49.0881C524.97 48.5937 524.347 48.3466 523.552 48.3466C523.012 48.3466 522.532 48.4659 522.112 48.7045C521.697 48.9375 521.37 49.2756 521.131 49.7188C520.899 50.1619 520.782 50.6989 520.782 51.3295ZM76.3977 90.892L76.3892 87.1676H76.8835L81.5881 81.9091H85.1932L79.4062 88.3523H78.767L76.3977 90.892ZM73.5852 95V77.5455H76.6705V95H73.5852ZM81.8011 95L77.5398 89.0426L79.6193 86.8693L85.4915 95H81.8011ZM91.7363 95.2642C90.9068 95.2642 90.1596 95.1165 89.4949 94.821C88.8358 94.5199 88.313 94.0767 87.9267 93.4915C87.546 92.9062 87.3557 92.1847 87.3557 91.3267C87.3557 90.5881 87.492 89.9773 87.7647 89.4943C88.0375 89.0114 88.4096 88.625 88.8812 88.3352C89.3528 88.0455 89.8841 87.8267 90.475 87.679C91.0716 87.5256 91.688 87.4148 92.3244 87.3466C93.0914 87.267 93.7136 87.196 94.1909 87.1335C94.6682 87.0653 95.0147 86.9631 95.2307 86.8267C95.4522 86.6847 95.563 86.4659 95.563 86.1705V86.1193C95.563 85.4773 95.3727 84.9801 94.992 84.6278C94.6113 84.2756 94.063 84.0994 93.3471 84.0994C92.5914 84.0994 91.992 84.2642 91.5488 84.5938C91.1113 84.9233 90.8159 85.3125 90.6625 85.7614L87.7818 85.3523C88.0091 84.5568 88.3841 83.892 88.9068 83.358C89.4295 82.8182 90.0687 82.4148 90.8244 82.1477C91.5801 81.875 92.4153 81.7386 93.3301 81.7386C93.9608 81.7386 94.5886 81.8125 95.2136 81.9602C95.8386 82.108 96.4096 82.3523 96.9267 82.6932C97.4437 83.0284 97.8585 83.4858 98.171 84.0653C98.4892 84.6449 98.6483 85.3693 98.6483 86.2386V95H95.6824V93.2017H95.5801C95.3926 93.5653 95.1284 93.9062 94.7875 94.2244C94.4522 94.5369 94.0289 94.7898 93.5176 94.983C93.0119 95.1705 92.4182 95.2642 91.7363 95.2642ZM92.5375 92.9972C93.1568 92.9972 93.6937 92.875 94.1483 92.6307C94.6028 92.3807 94.9522 92.0511 95.1966 91.642C95.4466 91.233 95.5716 90.7869 95.5716 90.304V88.7614C95.475 88.8409 95.3102 88.9148 95.0772 88.983C94.85 89.0511 94.5943 89.1108 94.3102 89.1619C94.0261 89.2131 93.7449 89.2585 93.4664 89.2983C93.188 89.3381 92.9466 89.3722 92.742 89.4006C92.2818 89.4631 91.8699 89.5653 91.5062 89.7074C91.1426 89.8494 90.8557 90.0483 90.6454 90.304C90.4352 90.554 90.3301 90.8778 90.3301 91.2756C90.3301 91.8438 90.5375 92.2727 90.9522 92.5625C91.367 92.8523 91.8954 92.9972 92.5375 92.9972ZM105.556 77.5455V95H102.471V77.5455H105.556ZM109.448 95V81.9091H112.534V95H109.448ZM110.999 80.0511C110.511 80.0511 110.09 79.8892 109.738 79.5653C109.386 79.2358 109.21 78.8409 109.21 78.3807C109.21 77.9148 109.386 77.5199 109.738 77.196C110.09 76.8665 110.511 76.7017 110.999 76.7017C111.494 76.7017 111.914 76.8665 112.261 77.196C112.613 77.5199 112.789 77.9148 112.789 78.3807C112.789 78.8409 112.613 79.2358 112.261 79.5653C111.914 79.8892 111.494 80.0511 110.999 80.0511ZM120.193 95.2642C119.364 95.2642 118.617 95.1165 117.952 94.821C117.293 94.5199 116.77 94.0767 116.384 93.4915C116.003 92.9062 115.813 92.1847 115.813 91.3267C115.813 90.5881 115.949 89.9773 116.222 89.4943C116.494 89.0114 116.867 88.625 117.338 88.3352C117.81 88.0455 118.341 87.8267 118.932 87.679C119.528 87.5256 120.145 87.4148 120.781 87.3466C121.548 87.267 122.17 87.196 122.648 87.1335C123.125 87.0653 123.472 86.9631 123.688 86.8267C123.909 86.6847 124.02 86.4659 124.02 86.1705V86.1193C124.02 85.4773 123.83 84.9801 123.449 84.6278C123.068 84.2756 122.52 84.0994 121.804 84.0994C121.048 84.0994 120.449 84.2642 120.006 84.5938C119.568 84.9233 119.273 85.3125 119.119 85.7614L116.239 85.3523C116.466 84.5568 116.841 83.892 117.364 83.358C117.886 82.8182 118.526 82.4148 119.281 82.1477C120.037 81.875 120.872 81.7386 121.787 81.7386C122.418 81.7386 123.045 81.8125 123.67 81.9602C124.295 82.108 124.867 82.3523 125.384 82.6932C125.901 83.0284 126.315 83.4858 126.628 84.0653C126.946 84.6449 127.105 85.3693 127.105 86.2386V95H124.139V93.2017H124.037C123.849 93.5653 123.585 93.9062 123.244 94.2244C122.909 94.5369 122.486 94.7898 121.974 94.983C121.469 95.1705 120.875 95.2642 120.193 95.2642ZM120.994 92.9972C121.614 92.9972 122.151 92.875 122.605 92.6307C123.06 92.3807 123.409 92.0511 123.653 91.642C123.903 91.233 124.028 90.7869 124.028 90.304V88.7614C123.932 88.8409 123.767 88.9148 123.534 88.983C123.307 89.0511 123.051 89.1108 122.767 89.1619C122.483 89.2131 122.202 89.2585 121.923 89.2983C121.645 89.3381 121.403 89.3722 121.199 89.4006C120.739 89.4631 120.327 89.5653 119.963 89.7074C119.599 89.8494 119.313 90.0483 119.102 90.304C118.892 90.554 118.787 90.8778 118.787 91.2756C118.787 91.8438 118.994 92.2727 119.409 92.5625C119.824 92.8523 120.352 92.9972 120.994 92.9972ZM134.013 87.3295V95H130.927V81.9091H133.876V84.1335H134.03C134.331 83.4006 134.811 82.8182 135.47 82.3864C136.135 81.9545 136.956 81.7386 137.933 81.7386C138.837 81.7386 139.623 81.9318 140.294 82.3182C140.97 82.7045 141.493 83.2642 141.862 83.9972C142.237 84.7301 142.422 85.6193 142.416 86.6648V95H139.331V87.142C139.331 86.267 139.104 85.5824 138.649 85.0881C138.2 84.5937 137.578 84.3466 136.783 84.3466C136.243 84.3466 135.763 84.4659 135.342 84.7045C134.927 84.9375 134.601 85.2756 134.362 85.7188C134.129 86.1619 134.013 86.6989 134.013 87.3295ZM163.292 85.3693L160.48 85.6761C160.4 85.392 160.261 85.125 160.062 84.875C159.869 84.625 159.607 84.4233 159.278 84.2699C158.948 84.1165 158.545 84.0398 158.068 84.0398C157.426 84.0398 156.886 84.179 156.448 84.4574C156.017 84.7358 155.803 85.0966 155.809 85.5398C155.803 85.9205 155.943 86.2301 156.227 86.4688C156.517 86.7074 156.994 86.9034 157.659 87.0568L159.892 87.5341C161.13 87.8011 162.051 88.2244 162.653 88.804C163.261 89.3835 163.568 90.142 163.573 91.0795C163.568 91.9034 163.326 92.6307 162.849 93.2614C162.377 93.8864 161.721 94.375 160.88 94.7273C160.039 95.0795 159.073 95.2557 157.982 95.2557C156.38 95.2557 155.09 94.9205 154.113 94.25C153.136 93.5739 152.553 92.6335 152.366 91.429L155.375 91.1392C155.511 91.7301 155.801 92.1761 156.244 92.4773C156.687 92.7784 157.264 92.929 157.974 92.929C158.707 92.929 159.295 92.7784 159.738 92.4773C160.187 92.1761 160.411 91.804 160.411 91.3608C160.411 90.9858 160.267 90.6761 159.977 90.4318C159.693 90.1875 159.25 90 158.647 89.8693L156.414 89.4006C155.159 89.1392 154.23 88.6989 153.627 88.0795C153.025 87.4545 152.727 86.6648 152.732 85.7102C152.727 84.9034 152.946 84.2045 153.389 83.6136C153.838 83.017 154.46 82.5568 155.255 82.233C156.056 81.9034 156.98 81.7386 158.025 81.7386C159.559 81.7386 160.767 82.0653 161.647 82.7188C162.534 83.3722 163.082 84.2557 163.292 85.3693ZM172.633 95.2557C171.32 95.2557 170.187 94.983 169.232 94.4375C168.283 93.8864 167.553 93.108 167.042 92.1023C166.531 91.0909 166.275 89.9006 166.275 88.5312C166.275 87.1847 166.531 86.0028 167.042 84.9858C167.559 83.9631 168.281 83.1676 169.207 82.5994C170.133 82.0256 171.221 81.7386 172.471 81.7386C173.278 81.7386 174.039 81.8693 174.755 82.1307C175.477 82.3864 176.113 82.7841 176.664 83.3239C177.221 83.8636 177.658 84.5511 177.977 85.3864C178.295 86.2159 178.454 87.2045 178.454 88.3523V89.2983H167.724V87.2188H175.497C175.491 86.6278 175.363 86.1023 175.113 85.642C174.863 85.1761 174.514 84.8097 174.065 84.5426C173.622 84.2756 173.104 84.142 172.514 84.142C171.883 84.142 171.329 84.2955 170.852 84.6023C170.374 84.9034 170.002 85.3011 169.735 85.7955C169.474 86.2841 169.34 86.821 169.335 87.4062V89.2216C169.335 89.983 169.474 90.6364 169.752 91.1818C170.031 91.7216 170.42 92.1364 170.92 92.4261C171.42 92.7102 172.005 92.8523 172.675 92.8523C173.124 92.8523 173.531 92.7898 173.894 92.6648C174.258 92.5341 174.573 92.3438 174.84 92.0938C175.107 91.8438 175.309 91.5341 175.445 91.1648L178.326 91.4886C178.144 92.25 177.798 92.9148 177.286 93.483C176.781 94.0455 176.133 94.483 175.343 94.7955C174.553 95.1023 173.65 95.2557 172.633 95.2557ZM184.869 77.5455V95H181.784V77.5455H184.869ZM192.529 95.2642C191.699 95.2642 190.952 95.1165 190.287 94.821C189.628 94.5199 189.106 94.0767 188.719 93.4915C188.338 92.9062 188.148 92.1847 188.148 91.3267C188.148 90.5881 188.285 89.9773 188.557 89.4943C188.83 89.0114 189.202 88.625 189.674 88.3352C190.145 88.0455 190.677 87.8267 191.267 87.679C191.864 87.5256 192.481 87.4148 193.117 87.3466C193.884 87.267 194.506 87.196 194.983 87.1335C195.461 87.0653 195.807 86.9631 196.023 86.8267C196.245 86.6847 196.356 86.4659 196.356 86.1705V86.1193C196.356 85.4773 196.165 84.9801 195.785 84.6278C195.404 84.2756 194.856 84.0994 194.14 84.0994C193.384 84.0994 192.785 84.2642 192.341 84.5938C191.904 84.9233 191.608 85.3125 191.455 85.7614L188.574 85.3523C188.802 84.5568 189.177 83.892 189.699 83.358C190.222 82.8182 190.861 82.4148 191.617 82.1477C192.373 81.875 193.208 81.7386 194.123 81.7386C194.753 81.7386 195.381 81.8125 196.006 81.9602C196.631 82.108 197.202 82.3523 197.719 82.6932C198.236 83.0284 198.651 83.4858 198.963 84.0653C199.282 84.6449 199.441 85.3693 199.441 86.2386V95H196.475V93.2017H196.373C196.185 93.5653 195.921 93.9062 195.58 94.2244C195.245 94.5369 194.821 94.7898 194.31 94.983C193.804 95.1705 193.211 95.2642 192.529 95.2642ZM193.33 92.9972C193.949 92.9972 194.486 92.875 194.941 92.6307C195.395 92.3807 195.745 92.0511 195.989 91.642C196.239 91.233 196.364 90.7869 196.364 90.304V88.7614C196.267 88.8409 196.103 88.9148 195.87 88.983C195.642 89.0511 195.387 89.1108 195.103 89.1619C194.819 89.2131 194.537 89.2585 194.259 89.2983C193.981 89.3381 193.739 89.3722 193.535 89.4006C193.074 89.4631 192.662 89.5653 192.299 89.7074C191.935 89.8494 191.648 90.0483 191.438 90.304C191.228 90.554 191.123 90.8778 191.123 91.2756C191.123 91.8438 191.33 92.2727 191.745 92.5625C192.16 92.8523 192.688 92.9972 193.33 92.9972ZM203.263 95V81.9091H206.212V84.1335H206.365C206.638 83.3835 207.09 82.7983 207.72 82.3778C208.351 81.9517 209.104 81.7386 209.979 81.7386C210.865 81.7386 211.612 81.9545 212.22 82.3864C212.834 82.8125 213.266 83.3949 213.516 84.1335H213.652C213.942 83.4062 214.431 82.8267 215.118 82.3949C215.811 81.9574 216.632 81.7386 217.581 81.7386C218.786 81.7386 219.769 82.1193 220.53 82.8807C221.291 83.642 221.672 84.7528 221.672 86.2131V95H218.578V86.6903C218.578 85.8778 218.362 85.2841 217.931 84.9091C217.499 84.5284 216.97 84.3381 216.345 84.3381C215.601 84.3381 215.019 84.571 214.598 85.0369C214.183 85.4972 213.976 86.0966 213.976 86.8352V95H210.951V86.5625C210.951 85.8864 210.746 85.3466 210.337 84.9432C209.933 84.5398 209.405 84.3381 208.752 84.3381C208.308 84.3381 207.905 84.4517 207.541 84.679C207.178 84.9006 206.888 85.2159 206.672 85.625C206.456 86.0284 206.348 86.5 206.348 87.0398V95H203.263ZM229.289 95.2642C228.46 95.2642 227.712 95.1165 227.048 94.821C226.389 94.5199 225.866 94.0767 225.479 93.4915C225.099 92.9062 224.908 92.1847 224.908 91.3267C224.908 90.5881 225.045 89.9773 225.318 89.4943C225.59 89.0114 225.962 88.625 226.434 88.3352C226.906 88.0455 227.437 87.8267 228.028 87.679C228.624 87.5256 229.241 87.4148 229.877 87.3466C230.644 87.267 231.266 87.196 231.744 87.1335C232.221 87.0653 232.568 86.9631 232.783 86.8267C233.005 86.6847 233.116 86.4659 233.116 86.1705V86.1193C233.116 85.4773 232.926 84.9801 232.545 84.6278C232.164 84.2756 231.616 84.0994 230.9 84.0994C230.144 84.0994 229.545 84.2642 229.102 84.5938C228.664 84.9233 228.369 85.3125 228.215 85.7614L225.335 85.3523C225.562 84.5568 225.937 83.892 226.46 83.358C226.982 82.8182 227.622 82.4148 228.377 82.1477C229.133 81.875 229.968 81.7386 230.883 81.7386C231.514 81.7386 232.141 81.8125 232.766 81.9602C233.391 82.108 233.962 82.3523 234.479 82.6932C234.997 83.0284 235.411 83.4858 235.724 84.0653C236.042 84.6449 236.201 85.3693 236.201 86.2386V95H233.235V93.2017H233.133C232.945 93.5653 232.681 93.9062 232.34 94.2244C232.005 94.5369 231.582 94.7898 231.07 94.983C230.565 95.1705 229.971 95.2642 229.289 95.2642ZM230.09 92.9972C230.71 92.9972 231.247 92.875 231.701 92.6307C232.156 92.3807 232.505 92.0511 232.749 91.642C232.999 91.233 233.124 90.7869 233.124 90.304V88.7614C233.028 88.8409 232.863 88.9148 232.63 88.983C232.403 89.0511 232.147 89.1108 231.863 89.1619C231.579 89.2131 231.298 89.2585 231.019 89.2983C230.741 89.3381 230.499 89.3722 230.295 89.4006C229.835 89.4631 229.423 89.5653 229.059 89.7074C228.695 89.8494 228.408 90.0483 228.198 90.304C227.988 90.554 227.883 90.8778 227.883 91.2756C227.883 91.8438 228.09 92.2727 228.505 92.5625C228.92 92.8523 229.448 92.9972 230.09 92.9972ZM253.762 77.5455V95H250.6V80.6222H250.498L246.415 83.2301V80.3324L250.753 77.5455H253.762ZM265.365 95.3324C263.962 95.3324 262.757 94.9773 261.752 94.267C260.752 93.5511 259.982 92.5199 259.442 91.1733C258.908 89.821 258.641 88.1932 258.641 86.2898C258.647 84.3864 258.916 82.767 259.451 81.4318C259.99 80.0909 260.76 79.0682 261.76 78.3636C262.766 77.6591 263.968 77.3068 265.365 77.3068C266.763 77.3068 267.965 77.6591 268.97 78.3636C269.976 79.0682 270.746 80.0909 271.28 81.4318C271.82 82.7727 272.09 84.392 272.09 86.2898C272.09 88.1989 271.82 89.8295 271.28 91.1818C270.746 92.5284 269.976 93.5568 268.97 94.267C267.97 94.9773 266.769 95.3324 265.365 95.3324ZM265.365 92.6648C266.456 92.6648 267.317 92.1278 267.948 91.054C268.584 89.9744 268.902 88.3864 268.902 86.2898C268.902 84.9034 268.757 83.7386 268.468 82.7955C268.178 81.8523 267.769 81.142 267.24 80.6648C266.712 80.1818 266.087 79.9403 265.365 79.9403C264.28 79.9403 263.422 80.4801 262.791 81.5597C262.161 82.6335 261.843 84.2102 261.837 86.2898C261.831 87.6818 261.97 88.8523 262.255 89.8011C262.544 90.75 262.953 91.4659 263.482 91.9489C264.01 92.4261 264.638 92.6648 265.365 92.6648ZM287.207 95.2301C286.178 95.2301 285.258 94.9659 284.445 94.4375C283.633 93.9091 282.991 93.142 282.519 92.1364C282.048 91.1307 281.812 89.9091 281.812 88.4716C281.812 87.017 282.05 85.7898 282.528 84.7898C283.011 83.7841 283.661 83.0256 284.479 82.5142C285.298 81.9972 286.209 81.7386 287.215 81.7386C287.982 81.7386 288.613 81.8693 289.107 82.1307C289.602 82.3864 289.994 82.696 290.283 83.0597C290.573 83.4176 290.798 83.7557 290.957 84.0739H291.084V77.5455H294.178V95H291.144V92.9375H290.957C290.798 93.2557 290.567 93.5937 290.266 93.9517C289.965 94.304 289.567 94.6051 289.073 94.8551C288.579 95.1051 287.957 95.2301 287.207 95.2301ZM288.067 92.6989C288.721 92.6989 289.278 92.5227 289.738 92.1705C290.198 91.8125 290.548 91.3153 290.786 90.679C291.025 90.0426 291.144 89.3011 291.144 88.4545C291.144 87.608 291.025 86.8722 290.786 86.2472C290.553 85.6222 290.207 85.1364 289.746 84.7898C289.292 84.4432 288.732 84.2699 288.067 84.2699C287.38 84.2699 286.806 84.4489 286.346 84.8068C285.886 85.1648 285.539 85.6591 285.306 86.2898C285.073 86.9205 284.957 87.642 284.957 88.4545C284.957 89.2727 285.073 90.0028 285.306 90.6449C285.545 91.2812 285.894 91.7841 286.354 92.1534C286.82 92.517 287.391 92.6989 288.067 92.6989ZM303.981 95.2557C302.669 95.2557 301.535 94.983 300.581 94.4375C299.632 93.8864 298.902 93.108 298.39 92.1023C297.879 91.0909 297.623 89.9006 297.623 88.5312C297.623 87.1847 297.879 86.0028 298.39 84.9858C298.907 83.9631 299.629 83.1676 300.555 82.5994C301.481 82.0256 302.569 81.7386 303.819 81.7386C304.626 81.7386 305.388 81.8693 306.103 82.1307C306.825 82.3864 307.461 82.7841 308.013 83.3239C308.569 83.8636 309.007 84.5511 309.325 85.3864C309.643 86.2159 309.802 87.2045 309.802 88.3523V89.2983H299.072V87.2188H306.845C306.839 86.6278 306.711 86.1023 306.461 85.642C306.211 85.1761 305.862 84.8097 305.413 84.5426C304.97 84.2756 304.453 84.142 303.862 84.142C303.231 84.142 302.677 84.2955 302.2 84.6023C301.723 84.9034 301.351 85.3011 301.084 85.7955C300.822 86.2841 300.689 86.821 300.683 87.4062V89.2216C300.683 89.983 300.822 90.6364 301.101 91.1818C301.379 91.7216 301.768 92.1364 302.268 92.4261C302.768 92.7102 303.353 92.8523 304.024 92.8523C304.473 92.8523 304.879 92.7898 305.243 92.6648C305.606 92.5341 305.922 92.3438 306.189 92.0938C306.456 91.8438 306.657 91.5341 306.794 91.1648L309.674 91.4886C309.493 92.25 309.146 92.9148 308.635 93.483C308.129 94.0455 307.481 94.483 306.692 94.7955C305.902 95.1023 304.998 95.2557 303.981 95.2557ZM319.669 81.9091V84.2955H312.144V81.9091H319.669ZM314.002 78.7727H317.087V91.0625C317.087 91.4773 317.149 91.7955 317.274 92.017C317.405 92.233 317.576 92.3807 317.786 92.4602C317.996 92.5398 318.229 92.5795 318.485 92.5795C318.678 92.5795 318.854 92.5653 319.013 92.5369C319.178 92.5085 319.303 92.483 319.388 92.4602L319.908 94.8722C319.743 94.929 319.507 94.9915 319.201 95.0597C318.899 95.1278 318.53 95.1676 318.093 95.179C317.32 95.2017 316.624 95.0852 316.005 94.8295C315.385 94.5682 314.894 94.1648 314.53 93.6193C314.172 93.0739 313.996 92.392 314.002 91.5739V78.7727ZM322.97 95V81.9091H326.055V95H322.97ZM324.521 80.0511C324.032 80.0511 323.612 79.8892 323.259 79.5653C322.907 79.2358 322.731 78.8409 322.731 78.3807C322.731 77.9148 322.907 77.5199 323.259 77.196C323.612 76.8665 324.032 76.7017 324.521 76.7017C325.015 76.7017 325.436 76.8665 325.782 77.196C326.134 77.5199 326.311 77.9148 326.311 78.3807C326.311 78.8409 326.134 79.2358 325.782 79.5653C325.436 79.8892 325.015 80.0511 324.521 80.0511ZM332.76 90.892L332.751 87.1676H333.246L337.95 81.9091H341.555L335.768 88.3523H335.129L332.76 90.892ZM329.947 95V77.5455H333.033V95H329.947ZM338.163 95L333.902 89.0426L335.982 86.8693L341.854 95H338.163ZM355.863 95.2301C354.834 95.2301 353.914 94.9659 353.101 94.4375C352.289 93.9091 351.647 93.142 351.175 92.1364C350.703 91.1307 350.468 89.9091 350.468 88.4716C350.468 87.017 350.706 85.7898 351.184 84.7898C351.667 83.7841 352.317 83.0256 353.135 82.5142C353.953 81.9972 354.865 81.7386 355.871 81.7386C356.638 81.7386 357.269 81.8693 357.763 82.1307C358.257 82.3864 358.649 82.696 358.939 83.0597C359.229 83.4176 359.453 83.7557 359.613 84.0739H359.74V77.5455H362.834V95H359.8V92.9375H359.613C359.453 93.2557 359.223 93.5937 358.922 93.9517C358.621 94.304 358.223 94.6051 357.729 94.8551C357.235 95.1051 356.613 95.2301 355.863 95.2301ZM356.723 92.6989C357.377 92.6989 357.934 92.5227 358.394 92.1705C358.854 91.8125 359.203 91.3153 359.442 90.679C359.681 90.0426 359.8 89.3011 359.8 88.4545C359.8 87.608 359.681 86.8722 359.442 86.2472C359.209 85.6222 358.863 85.1364 358.402 84.7898C357.948 84.4432 357.388 84.2699 356.723 84.2699C356.036 84.2699 355.462 84.4489 355.002 84.8068C354.542 85.1648 354.195 85.6591 353.962 86.2898C353.729 86.9205 353.613 87.642 353.613 88.4545C353.613 89.2727 353.729 90.0028 353.962 90.6449C354.201 91.2812 354.55 91.7841 355.01 92.1534C355.476 92.517 356.047 92.6989 356.723 92.6989ZM370.609 95.2642C369.779 95.2642 369.032 95.1165 368.367 94.821C367.708 94.5199 367.186 94.0767 366.799 93.4915C366.418 92.9062 366.228 92.1847 366.228 91.3267C366.228 90.5881 366.365 89.9773 366.637 89.4943C366.91 89.0114 367.282 88.625 367.754 88.3352C368.225 88.0455 368.757 87.8267 369.347 87.679C369.944 87.5256 370.561 87.4148 371.197 87.3466C371.964 87.267 372.586 87.196 373.063 87.1335C373.541 87.0653 373.887 86.9631 374.103 86.8267C374.325 86.6847 374.436 86.4659 374.436 86.1705V86.1193C374.436 85.4773 374.245 84.9801 373.865 84.6278C373.484 84.2756 372.936 84.0994 372.22 84.0994C371.464 84.0994 370.865 84.2642 370.421 84.5938C369.984 84.9233 369.688 85.3125 369.535 85.7614L366.654 85.3523C366.882 84.5568 367.257 83.892 367.779 83.358C368.302 82.8182 368.941 82.4148 369.697 82.1477C370.453 81.875 371.288 81.7386 372.203 81.7386C372.833 81.7386 373.461 81.8125 374.086 81.9602C374.711 82.108 375.282 82.3523 375.799 82.6932C376.316 83.0284 376.731 83.4858 377.043 84.0653C377.362 84.6449 377.521 85.3693 377.521 86.2386V95H374.555V93.2017H374.453C374.265 93.5653 374.001 93.9062 373.66 94.2244C373.325 94.5369 372.901 94.7898 372.39 94.983C371.884 95.1705 371.291 95.2642 370.609 95.2642ZM371.41 92.9972C372.029 92.9972 372.566 92.875 373.021 92.6307C373.475 92.3807 373.825 92.0511 374.069 91.642C374.319 91.233 374.444 90.7869 374.444 90.304V88.7614C374.347 88.8409 374.183 88.9148 373.95 88.983C373.722 89.0511 373.467 89.1108 373.183 89.1619C372.899 89.2131 372.617 89.2585 372.339 89.2983C372.061 89.3381 371.819 89.3722 371.615 89.4006C371.154 89.4631 370.742 89.5653 370.379 89.7074C370.015 89.8494 369.728 90.0483 369.518 90.304C369.308 90.554 369.203 90.8778 369.203 91.2756C369.203 91.8438 369.41 92.2727 369.825 92.5625C370.24 92.8523 370.768 92.9972 371.41 92.9972ZM384.428 87.3295V95H381.343V81.9091H384.292V84.1335H384.445C384.746 83.4006 385.227 82.8182 385.886 82.3864C386.55 81.9545 387.371 81.7386 388.349 81.7386C389.252 81.7386 390.039 81.9318 390.71 82.3182C391.386 82.7045 391.908 83.2642 392.278 83.9972C392.653 84.7301 392.837 85.6193 392.832 86.6648V95H389.746V87.142C389.746 86.267 389.519 85.5824 389.065 85.0881C388.616 84.5937 387.994 84.3466 387.198 84.3466C386.658 84.3466 386.178 84.4659 385.758 84.7045C385.343 84.9375 385.016 85.2756 384.778 85.7188C384.545 86.1619 384.428 86.6989 384.428 87.3295ZM406.446 77.5455V95H403.361V77.5455H406.446ZM410.339 95V81.9091H413.424V95H410.339ZM411.89 80.0511C411.401 80.0511 410.981 79.8892 410.629 79.5653C410.276 79.2358 410.1 78.8409 410.1 78.3807C410.1 77.9148 410.276 77.5199 410.629 77.196C410.981 76.8665 411.401 76.7017 411.89 76.7017C412.384 76.7017 412.805 76.8665 413.151 77.196C413.504 77.5199 413.68 77.9148 413.68 78.3807C413.68 78.8409 413.504 79.2358 413.151 79.5653C412.805 79.8892 412.384 80.0511 411.89 80.0511ZM420.402 87.3295V95H417.317V77.5455H420.334V84.1335H420.487C420.794 83.3949 421.268 82.8125 421.911 82.3864C422.558 81.9545 423.382 81.7386 424.382 81.7386C425.291 81.7386 426.084 81.929 426.76 82.3097C427.436 82.6903 427.959 83.2472 428.328 83.9801C428.703 84.7131 428.891 85.608 428.891 86.6648V95H425.805V87.142C425.805 86.2614 425.578 85.5767 425.124 85.0881C424.675 84.5937 424.044 84.3466 423.232 84.3466C422.686 84.3466 422.197 84.4659 421.766 84.7045C421.34 84.9375 421.004 85.2756 420.76 85.7188C420.521 86.1619 420.402 86.6989 420.402 87.3295ZM436.523 95.2642C435.693 95.2642 434.946 95.1165 434.281 94.821C433.622 94.5199 433.099 94.0767 432.713 93.4915C432.332 92.9062 432.142 92.1847 432.142 91.3267C432.142 90.5881 432.278 89.9773 432.551 89.4943C432.824 89.0114 433.196 88.625 433.667 88.3352C434.139 88.0455 434.67 87.8267 435.261 87.679C435.858 87.5256 436.474 87.4148 437.111 87.3466C437.878 87.267 438.5 87.196 438.977 87.1335C439.454 87.0653 439.801 86.9631 440.017 86.8267C440.239 86.6847 440.349 86.4659 440.349 86.1705V86.1193C440.349 85.4773 440.159 84.9801 439.778 84.6278C439.398 84.2756 438.849 84.0994 438.133 84.0994C437.378 84.0994 436.778 84.2642 436.335 84.5938C435.898 84.9233 435.602 85.3125 435.449 85.7614L432.568 85.3523C432.795 84.5568 433.17 83.892 433.693 83.358C434.216 82.8182 434.855 82.4148 435.611 82.1477C436.366 81.875 437.202 81.7386 438.116 81.7386C438.747 81.7386 439.375 81.8125 440 81.9602C440.625 82.108 441.196 82.3523 441.713 82.6932C442.23 83.0284 442.645 83.4858 442.957 84.0653C443.275 84.6449 443.435 85.3693 443.435 86.2386V95H440.469V93.2017H440.366C440.179 93.5653 439.915 93.9062 439.574 94.2244C439.239 94.5369 438.815 94.7898 438.304 94.983C437.798 95.1705 437.204 95.2642 436.523 95.2642ZM437.324 92.9972C437.943 92.9972 438.48 92.875 438.935 92.6307C439.389 92.3807 439.739 92.0511 439.983 91.642C440.233 91.233 440.358 90.7869 440.358 90.304V88.7614C440.261 88.8409 440.096 88.9148 439.864 88.983C439.636 89.0511 439.381 89.1108 439.096 89.1619C438.812 89.2131 438.531 89.2585 438.253 89.2983C437.974 89.3381 437.733 89.3722 437.528 89.4006C437.068 89.4631 436.656 89.5653 436.292 89.7074C435.929 89.8494 435.642 90.0483 435.432 90.304C435.221 90.554 435.116 90.8778 435.116 91.2756C435.116 91.8438 435.324 92.2727 435.739 92.5625C436.153 92.8523 436.682 92.9972 437.324 92.9972ZM453.794 81.9091V84.2955H446.268V81.9091H453.794ZM448.126 78.7727H451.211V91.0625C451.211 91.4773 451.274 91.7955 451.399 92.017C451.53 92.233 451.7 92.3807 451.91 92.4602C452.12 92.5398 452.353 92.5795 452.609 92.5795C452.802 92.5795 452.978 92.5653 453.137 92.5369C453.302 92.5085 453.427 92.483 453.512 92.4602L454.032 94.8722C453.868 94.929 453.632 94.9915 453.325 95.0597C453.024 95.1278 452.655 95.1676 452.217 95.179C451.444 95.2017 450.748 95.0852 450.129 94.8295C449.51 94.5682 449.018 94.1648 448.655 93.6193C448.297 93.0739 448.12 92.392 448.126 91.5739V78.7727ZM467.534 95.2642C466.705 95.2642 465.957 95.1165 465.293 94.821C464.634 94.5199 464.111 94.0767 463.724 93.4915C463.344 92.9062 463.153 92.1847 463.153 91.3267C463.153 90.5881 463.29 89.9773 463.563 89.4943C463.835 89.0114 464.207 88.625 464.679 88.3352C465.151 88.0455 465.682 87.8267 466.273 87.679C466.869 87.5256 467.486 87.4148 468.122 87.3466C468.889 87.267 469.511 87.196 469.989 87.1335C470.466 87.0653 470.813 86.9631 471.028 86.8267C471.25 86.6847 471.361 86.4659 471.361 86.1705V86.1193C471.361 85.4773 471.171 84.9801 470.79 84.6278C470.409 84.2756 469.861 84.0994 469.145 84.0994C468.389 84.0994 467.79 84.2642 467.347 84.5938C466.909 84.9233 466.614 85.3125 466.46 85.7614L463.58 85.3523C463.807 84.5568 464.182 83.892 464.705 83.358C465.227 82.8182 465.867 82.4148 466.622 82.1477C467.378 81.875 468.213 81.7386 469.128 81.7386C469.759 81.7386 470.386 81.8125 471.011 81.9602C471.636 82.108 472.207 82.3523 472.724 82.6932C473.242 83.0284 473.656 83.4858 473.969 84.0653C474.287 84.6449 474.446 85.3693 474.446 86.2386V95H471.48V93.2017H471.378C471.19 93.5653 470.926 93.9062 470.585 94.2244C470.25 94.5369 469.827 94.7898 469.315 94.983C468.81 95.1705 468.216 95.2642 467.534 95.2642ZM468.335 92.9972C468.955 92.9972 469.492 92.875 469.946 92.6307C470.401 92.3807 470.75 92.0511 470.994 91.642C471.244 91.233 471.369 90.7869 471.369 90.304V88.7614C471.273 88.8409 471.108 88.9148 470.875 88.983C470.648 89.0511 470.392 89.1108 470.108 89.1619C469.824 89.2131 469.543 89.2585 469.264 89.2983C468.986 89.3381 468.744 89.3722 468.54 89.4006C468.08 89.4631 467.668 89.5653 467.304 89.7074C466.94 89.8494 466.653 90.0483 466.443 90.304C466.233 90.554 466.128 90.8778 466.128 91.2756C466.128 91.8438 466.335 92.2727 466.75 92.5625C467.165 92.8523 467.693 92.9972 468.335 92.9972ZM478.268 99.9091V81.9091H481.302V84.0739H481.481C481.641 83.7557 481.865 83.4176 482.155 83.0597C482.444 82.696 482.837 82.3864 483.331 82.1307C483.825 81.8693 484.456 81.7386 485.223 81.7386C486.234 81.7386 487.146 81.9972 487.959 82.5142C488.777 83.0256 489.425 83.7841 489.902 84.7898C490.385 85.7898 490.626 87.017 490.626 88.4716C490.626 89.9091 490.391 91.1307 489.919 92.1364C489.447 93.142 488.805 93.9091 487.993 94.4375C487.18 94.9659 486.26 95.2301 485.231 95.2301C484.481 95.2301 483.859 95.1051 483.365 94.8551C482.871 94.6051 482.473 94.304 482.172 93.9517C481.876 93.5937 481.646 93.2557 481.481 92.9375H481.354V99.9091H478.268ZM481.294 88.4545C481.294 89.3011 481.413 90.0426 481.652 90.679C481.896 91.3153 482.246 91.8125 482.7 92.1705C483.16 92.5227 483.717 92.6989 484.371 92.6989C485.052 92.6989 485.623 92.517 486.084 92.1534C486.544 91.7841 486.891 91.2812 487.123 90.6449C487.362 90.0028 487.481 89.2727 487.481 88.4545C487.481 87.642 487.365 86.9205 487.132 86.2898C486.899 85.6591 486.552 85.1648 486.092 84.8068C485.632 84.4489 485.058 84.2699 484.371 84.2699C483.712 84.2699 483.152 84.4432 482.692 84.7898C482.231 85.1364 481.882 85.6222 481.643 86.2472C481.41 86.8722 481.294 87.608 481.294 88.4545ZM497.755 95.2642C496.926 95.2642 496.179 95.1165 495.514 94.821C494.855 94.5199 494.332 94.0767 493.946 93.4915C493.565 92.9062 493.375 92.1847 493.375 91.3267C493.375 90.5881 493.511 89.9773 493.784 89.4943C494.057 89.0114 494.429 88.625 494.9 88.3352C495.372 88.0455 495.903 87.8267 496.494 87.679C497.091 87.5256 497.707 87.4148 498.343 87.3466C499.111 87.267 499.733 87.196 500.21 87.1335C500.687 87.0653 501.034 86.9631 501.25 86.8267C501.471 86.6847 501.582 86.4659 501.582 86.1705V86.1193C501.582 85.4773 501.392 84.9801 501.011 84.6278C500.63 84.2756 500.082 84.0994 499.366 84.0994C498.611 84.0994 498.011 84.2642 497.568 84.5938C497.13 84.9233 496.835 85.3125 496.682 85.7614L493.801 85.3523C494.028 84.5568 494.403 83.892 494.926 83.358C495.449 82.8182 496.088 82.4148 496.843 82.1477C497.599 81.875 498.434 81.7386 499.349 81.7386C499.98 81.7386 500.608 81.8125 501.233 81.9602C501.858 82.108 502.429 82.3523 502.946 82.6932C503.463 83.0284 503.878 83.4858 504.19 84.0653C504.508 84.6449 504.667 85.3693 504.667 86.2386V95H501.701V93.2017H501.599C501.412 93.5653 501.147 93.9062 500.807 94.2244C500.471 94.5369 500.048 94.7898 499.537 94.983C499.031 95.1705 498.437 95.2642 497.755 95.2642ZM498.557 92.9972C499.176 92.9972 499.713 92.875 500.167 92.6307C500.622 92.3807 500.971 92.0511 501.216 91.642C501.466 91.233 501.591 90.7869 501.591 90.304V88.7614C501.494 88.8409 501.329 88.9148 501.096 88.983C500.869 89.0511 500.613 89.1108 500.329 89.1619C500.045 89.2131 499.764 89.2585 499.486 89.2983C499.207 89.3381 498.966 89.3722 498.761 89.4006C498.301 89.4631 497.889 89.5653 497.525 89.7074C497.162 89.8494 496.875 90.0483 496.665 90.304C496.454 90.554 496.349 90.8778 496.349 91.2756C496.349 91.8438 496.557 92.2727 496.971 92.5625C497.386 92.8523 497.915 92.9972 498.557 92.9972ZM75.5028 135.909C75.0824 135.909 74.6932 135.875 74.3352 135.807C73.983 135.744 73.7017 135.67 73.4915 135.585L74.2074 133.182C74.6563 133.313 75.0568 133.375 75.4091 133.369C75.7614 133.364 76.071 133.253 76.3381 133.037C76.6108 132.827 76.8409 132.474 77.0284 131.98L77.2926 131.273L72.5455 117.909H75.8182L78.8352 127.795H78.9716L81.9972 117.909H85.2784L80.0369 132.585C79.7926 133.278 79.4688 133.872 79.0653 134.366C78.6619 134.866 78.1676 135.247 77.5824 135.509C77.0028 135.776 76.3097 135.909 75.5028 135.909ZM91.5254 131.264C90.6959 131.264 89.9487 131.116 89.2839 130.821C88.6248 130.52 88.1021 130.077 87.7157 129.491C87.3351 128.906 87.1447 128.185 87.1447 127.327C87.1447 126.588 87.2811 125.977 87.5538 125.494C87.8265 125.011 88.1987 124.625 88.6703 124.335C89.1419 124.045 89.6731 123.827 90.264 123.679C90.8606 123.526 91.4771 123.415 92.1135 123.347C92.8805 123.267 93.5027 123.196 93.9799 123.134C94.4572 123.065 94.8038 122.963 95.0197 122.827C95.2413 122.685 95.3521 122.466 95.3521 122.17V122.119C95.3521 121.477 95.1618 120.98 94.7811 120.628C94.4004 120.276 93.8521 120.099 93.1362 120.099C92.3805 120.099 91.7811 120.264 91.3379 120.594C90.9004 120.923 90.6049 121.312 90.4515 121.761L87.5709 121.352C87.7981 120.557 88.1731 119.892 88.6959 119.358C89.2186 118.818 89.8578 118.415 90.6135 118.148C91.3691 117.875 92.2044 117.739 93.1191 117.739C93.7498 117.739 94.3777 117.812 95.0027 117.96C95.6277 118.108 96.1987 118.352 96.7157 118.693C97.2328 119.028 97.6476 119.486 97.9601 120.065C98.2782 120.645 98.4373 121.369 98.4373 122.239V131H95.4714V129.202H95.3691C95.1816 129.565 94.9174 129.906 94.5765 130.224C94.2413 130.537 93.818 130.79 93.3066 130.983C92.801 131.17 92.2072 131.264 91.5254 131.264ZM92.3265 128.997C92.9459 128.997 93.4828 128.875 93.9373 128.631C94.3919 128.381 94.7413 128.051 94.9856 127.642C95.2356 127.233 95.3606 126.787 95.3606 126.304V124.761C95.264 124.841 95.0993 124.915 94.8663 124.983C94.639 125.051 94.3834 125.111 94.0993 125.162C93.8152 125.213 93.5339 125.259 93.2555 125.298C92.9771 125.338 92.7356 125.372 92.5311 125.401C92.0709 125.463 91.6589 125.565 91.2953 125.707C90.9316 125.849 90.6447 126.048 90.4345 126.304C90.2243 126.554 90.1191 126.878 90.1191 127.276C90.1191 127.844 90.3265 128.273 90.7413 128.562C91.1561 128.852 91.6845 128.997 92.3265 128.997ZM105.345 123.33V131H102.26V117.909H105.208V120.134H105.362C105.663 119.401 106.143 118.818 106.802 118.386C107.467 117.955 108.288 117.739 109.265 117.739C110.169 117.739 110.956 117.932 111.626 118.318C112.302 118.705 112.825 119.264 113.194 119.997C113.569 120.73 113.754 121.619 113.748 122.665V131H110.663V123.142C110.663 122.267 110.436 121.582 109.981 121.088C109.532 120.594 108.91 120.347 108.115 120.347C107.575 120.347 107.095 120.466 106.674 120.705C106.26 120.937 105.933 121.276 105.694 121.719C105.461 122.162 105.345 122.699 105.345 123.33ZM123.298 136.182C122.19 136.182 121.238 136.031 120.443 135.73C119.647 135.435 119.008 135.037 118.525 134.537C118.042 134.037 117.707 133.483 117.519 132.875L120.298 132.202C120.423 132.457 120.605 132.71 120.843 132.96C121.082 133.216 121.403 133.426 121.806 133.591C122.215 133.761 122.73 133.847 123.349 133.847C124.224 133.847 124.948 133.634 125.522 133.207C126.096 132.787 126.383 132.094 126.383 131.128V128.648H126.23C126.071 128.966 125.838 129.293 125.531 129.628C125.23 129.963 124.829 130.244 124.329 130.472C123.835 130.699 123.213 130.812 122.463 130.812C121.457 130.812 120.545 130.577 119.727 130.105C118.914 129.628 118.267 128.918 117.784 127.974C117.306 127.026 117.068 125.838 117.068 124.412C117.068 122.974 117.306 121.761 117.784 120.773C118.267 119.778 118.917 119.026 119.735 118.514C120.553 117.997 121.465 117.739 122.471 117.739C123.238 117.739 123.869 117.869 124.363 118.131C124.863 118.386 125.261 118.696 125.556 119.06C125.852 119.418 126.076 119.756 126.23 120.074H126.4V117.909H129.443V131.213C129.443 132.332 129.176 133.259 128.642 133.991C128.107 134.724 127.377 135.273 126.451 135.636C125.525 136 124.474 136.182 123.298 136.182ZM123.323 128.392C123.977 128.392 124.534 128.233 124.994 127.915C125.454 127.597 125.803 127.139 126.042 126.543C126.281 125.946 126.4 125.23 126.4 124.395C126.4 123.571 126.281 122.849 126.042 122.23C125.809 121.611 125.463 121.131 125.002 120.79C124.548 120.443 123.988 120.27 123.323 120.27C122.636 120.27 122.062 120.449 121.602 120.807C121.142 121.165 120.795 121.656 120.562 122.281C120.329 122.901 120.213 123.605 120.213 124.395C120.213 125.196 120.329 125.898 120.562 126.5C120.801 127.097 121.15 127.562 121.61 127.898C122.076 128.227 122.647 128.392 123.323 128.392ZM146.535 117.909V120.295H139.009V117.909H146.535ZM140.867 114.773H143.952V127.062C143.952 127.477 144.015 127.795 144.14 128.017C144.27 128.233 144.441 128.381 144.651 128.46C144.861 128.54 145.094 128.58 145.35 128.58C145.543 128.58 145.719 128.565 145.878 128.537C146.043 128.509 146.168 128.483 146.253 128.46L146.773 130.872C146.609 130.929 146.373 130.991 146.066 131.06C145.765 131.128 145.395 131.168 144.958 131.179C144.185 131.202 143.489 131.085 142.87 130.83C142.251 130.568 141.759 130.165 141.395 129.619C141.037 129.074 140.861 128.392 140.867 127.574V114.773ZM155.49 131.256C154.177 131.256 153.044 130.983 152.089 130.438C151.14 129.886 150.41 129.108 149.899 128.102C149.387 127.091 149.132 125.901 149.132 124.531C149.132 123.185 149.387 122.003 149.899 120.986C150.416 119.963 151.137 119.168 152.064 118.599C152.99 118.026 154.078 117.739 155.328 117.739C156.135 117.739 156.896 117.869 157.612 118.131C158.333 118.386 158.97 118.784 159.521 119.324C160.078 119.864 160.515 120.551 160.833 121.386C161.152 122.216 161.311 123.205 161.311 124.352V125.298H150.581V123.219H158.353C158.348 122.628 158.22 122.102 157.97 121.642C157.72 121.176 157.37 120.81 156.922 120.543C156.478 120.276 155.961 120.142 155.37 120.142C154.74 120.142 154.186 120.295 153.708 120.602C153.231 120.903 152.859 121.301 152.592 121.795C152.331 122.284 152.197 122.821 152.191 123.406V125.222C152.191 125.983 152.331 126.636 152.609 127.182C152.887 127.722 153.277 128.136 153.777 128.426C154.277 128.71 154.862 128.852 155.532 128.852C155.981 128.852 156.387 128.79 156.751 128.665C157.115 128.534 157.43 128.344 157.697 128.094C157.964 127.844 158.166 127.534 158.302 127.165L161.183 127.489C161.001 128.25 160.655 128.915 160.143 129.483C159.637 130.045 158.99 130.483 158.2 130.795C157.41 131.102 156.507 131.256 155.49 131.256ZM164.641 131V117.909H167.632V120.091H167.769C168.007 119.335 168.416 118.753 168.996 118.344C169.581 117.929 170.249 117.722 170.999 117.722C171.169 117.722 171.36 117.73 171.57 117.747C171.786 117.759 171.965 117.778 172.107 117.807V120.645C171.976 120.599 171.769 120.56 171.485 120.526C171.206 120.486 170.936 120.466 170.675 120.466C170.112 120.466 169.607 120.588 169.158 120.832C168.715 121.071 168.365 121.403 168.11 121.83C167.854 122.256 167.726 122.747 167.726 123.304V131H164.641ZM174.876 117.909H177.962V131.75C177.962 132.693 177.783 133.472 177.425 134.085C177.067 134.699 176.55 135.156 175.874 135.457C175.198 135.759 174.376 135.909 173.411 135.909C173.297 135.909 173.192 135.906 173.095 135.901C172.999 135.901 172.894 135.898 172.78 135.892V133.378C172.865 133.384 172.942 133.386 173.01 133.386C173.078 133.392 173.149 133.395 173.223 133.395C173.814 133.395 174.237 133.25 174.493 132.96C174.749 132.676 174.876 132.259 174.876 131.707V117.909ZM176.411 116.051C175.916 116.051 175.493 115.889 175.141 115.565C174.794 115.236 174.621 114.841 174.621 114.381C174.621 113.915 174.794 113.52 175.141 113.196C175.493 112.866 175.916 112.702 176.411 112.702C176.899 112.702 177.317 112.866 177.663 113.196C178.016 113.52 178.192 113.915 178.192 114.381C178.192 114.841 178.016 115.236 177.663 115.565C177.317 115.889 176.899 116.051 176.411 116.051ZM185.621 131.264C184.792 131.264 184.045 131.116 183.38 130.821C182.721 130.52 182.198 130.077 181.812 129.491C181.431 128.906 181.241 128.185 181.241 127.327C181.241 126.588 181.377 125.977 181.65 125.494C181.922 125.011 182.295 124.625 182.766 124.335C183.238 124.045 183.769 123.827 184.36 123.679C184.957 123.526 185.573 123.415 186.209 123.347C186.976 123.267 187.599 123.196 188.076 123.134C188.553 123.065 188.9 122.963 189.116 122.827C189.337 122.685 189.448 122.466 189.448 122.17V122.119C189.448 121.477 189.258 120.98 188.877 120.628C188.496 120.276 187.948 120.099 187.232 120.099C186.476 120.099 185.877 120.264 185.434 120.594C184.996 120.923 184.701 121.312 184.547 121.761L181.667 121.352C181.894 120.557 182.269 119.892 182.792 119.358C183.315 118.818 183.954 118.415 184.709 118.148C185.465 117.875 186.3 117.739 187.215 117.739C187.846 117.739 188.474 117.812 189.099 117.96C189.724 118.108 190.295 118.352 190.812 118.693C191.329 119.028 191.743 119.486 192.056 120.065C192.374 120.645 192.533 121.369 192.533 122.239V131H189.567V129.202H189.465C189.278 129.565 189.013 129.906 188.672 130.224C188.337 130.537 187.914 130.79 187.403 130.983C186.897 131.17 186.303 131.264 185.621 131.264ZM186.422 128.997C187.042 128.997 187.579 128.875 188.033 128.631C188.488 128.381 188.837 128.051 189.082 127.642C189.332 127.233 189.457 126.787 189.457 126.304V124.761C189.36 124.841 189.195 124.915 188.962 124.983C188.735 125.051 188.479 125.111 188.195 125.162C187.911 125.213 187.63 125.259 187.351 125.298C187.073 125.338 186.832 125.372 186.627 125.401C186.167 125.463 185.755 125.565 185.391 125.707C185.028 125.849 184.741 126.048 184.53 126.304C184.32 126.554 184.215 126.878 184.215 127.276C184.215 127.844 184.422 128.273 184.837 128.562C185.252 128.852 185.78 128.997 186.422 128.997ZM201.213 131.23C200.185 131.23 199.265 130.966 198.452 130.438C197.64 129.909 196.998 129.142 196.526 128.136C196.054 127.131 195.819 125.909 195.819 124.472C195.819 123.017 196.057 121.79 196.535 120.79C197.017 119.784 197.668 119.026 198.486 118.514C199.304 117.997 200.216 117.739 201.222 117.739C201.989 117.739 202.62 117.869 203.114 118.131C203.608 118.386 204 118.696 204.29 119.06C204.58 119.418 204.804 119.756 204.963 120.074H205.091V113.545H208.185V131H205.151V128.938H204.963C204.804 129.256 204.574 129.594 204.273 129.952C203.972 130.304 203.574 130.605 203.08 130.855C202.586 131.105 201.963 131.23 201.213 131.23ZM202.074 128.699C202.728 128.699 203.285 128.523 203.745 128.17C204.205 127.812 204.554 127.315 204.793 126.679C205.032 126.043 205.151 125.301 205.151 124.455C205.151 123.608 205.032 122.872 204.793 122.247C204.56 121.622 204.213 121.136 203.753 120.79C203.299 120.443 202.739 120.27 202.074 120.27C201.387 120.27 200.813 120.449 200.353 120.807C199.892 121.165 199.546 121.659 199.313 122.29C199.08 122.92 198.963 123.642 198.963 124.455C198.963 125.273 199.08 126.003 199.313 126.645C199.552 127.281 199.901 127.784 200.361 128.153C200.827 128.517 201.398 128.699 202.074 128.699ZM212.193 131V117.909H215.278V131H212.193ZM213.744 116.051C213.255 116.051 212.835 115.889 212.482 115.565C212.13 115.236 211.954 114.841 211.954 114.381C211.954 113.915 212.13 113.52 212.482 113.196C212.835 112.866 213.255 112.702 213.744 112.702C214.238 112.702 214.659 112.866 215.005 113.196C215.357 113.52 215.534 113.915 215.534 114.381C215.534 114.841 215.357 115.236 215.005 115.565C214.659 115.889 214.238 116.051 213.744 116.051ZM228.793 125.869V125.648C228.798 124.619 228.895 123.801 229.082 123.193C229.275 122.585 229.548 122.097 229.9 121.727C230.253 121.352 230.682 121.009 231.187 120.696C231.534 120.48 231.844 120.244 232.116 119.989C232.395 119.727 232.614 119.437 232.773 119.119C232.932 118.795 233.011 118.435 233.011 118.037C233.011 117.588 232.906 117.199 232.696 116.869C232.486 116.54 232.202 116.284 231.844 116.102C231.491 115.92 231.097 115.83 230.659 115.83C230.256 115.83 229.872 115.918 229.508 116.094C229.15 116.264 228.852 116.526 228.614 116.878C228.381 117.224 228.25 117.665 228.222 118.199H225.187C225.216 117.119 225.477 116.216 225.972 115.489C226.472 114.761 227.131 114.216 227.949 113.852C228.773 113.489 229.682 113.307 230.676 113.307C231.761 113.307 232.716 113.497 233.54 113.878C234.369 114.259 235.014 114.801 235.474 115.506C235.94 116.205 236.173 117.034 236.173 117.994C236.173 118.642 236.068 119.222 235.858 119.733C235.653 120.244 235.361 120.699 234.98 121.097C234.599 121.494 234.148 121.849 233.625 122.162C233.165 122.446 232.787 122.741 232.491 123.048C232.202 123.355 231.986 123.716 231.844 124.131C231.707 124.54 231.636 125.045 231.631 125.648V125.869H228.793ZM230.275 131.188C229.764 131.188 229.324 131.006 228.954 130.642C228.585 130.278 228.4 129.835 228.4 129.312C228.4 128.801 228.585 128.364 228.954 128C229.324 127.636 229.764 127.455 230.275 127.455C230.781 127.455 231.219 127.636 231.588 128C231.963 128.364 232.15 128.801 232.15 129.312C232.15 129.659 232.062 129.974 231.886 130.259C231.716 130.543 231.489 130.77 231.204 130.94C230.926 131.105 230.616 131.188 230.275 131.188Z" fill="black"/>
<path d="M38.7946 37.8671C40.9026 35.1727 45.2007 36.1961 45.8682 39.5514L50.9473 65.0822C51.3783 67.2489 49.9712 69.3548 47.8045 69.7858L18.1337 75.6877C14.4951 76.4115 11.917 72.2217 14.2029 69.2998L38.7946 37.8671Z" fill="white"/>
</svg>
