<svg width="578" height="132" viewBox="0 0 578 132" fill="none" xmlns="http://www.w3.org/2000/svg">
<rect x="42.4141" width="535" height="132" rx="8" fill="white"/>
<path d="M78.3771 59H75.0021L81.147 41.5455H85.0504L91.2038 59H87.8288L83.1669 45.125H83.0305L78.3771 59ZM78.4879 52.1562H87.6925V54.696H78.4879V52.1562ZM94.0865 63.9091V45.9091H97.1206V48.0739H97.2995C97.4586 47.7557 97.6831 47.4176 97.9728 47.0597C98.2626 46.696 98.6547 46.3864 99.149 46.1307C99.6433 45.8693 100.274 45.7386 101.041 45.7386C102.052 45.7386 102.964 45.9972 103.777 46.5142C104.595 47.0256 105.243 47.7841 105.72 48.7898C106.203 49.7898 106.444 51.017 106.444 52.4716C106.444 53.9091 106.209 55.1307 105.737 56.1364C105.265 57.142 104.623 57.9091 103.811 58.4375C102.998 58.9659 102.078 59.2301 101.05 59.2301C100.3 59.2301 99.6774 59.1051 99.1831 58.8551C98.6887 58.6051 98.291 58.304 97.9899 57.9517C97.6944 57.5937 97.4643 57.2557 97.2995 56.9375H97.1717V63.9091H94.0865ZM97.112 52.4545C97.112 53.3011 97.2314 54.0426 97.47 54.679C97.7143 55.3153 98.0637 55.8125 98.5183 56.1705C98.9785 56.5227 99.5353 56.6989 100.189 56.6989C100.871 56.6989 101.442 56.517 101.902 56.1534C102.362 55.7841 102.709 55.2812 102.942 54.6449C103.18 54.0028 103.3 53.2727 103.3 52.4545C103.3 51.642 103.183 50.9205 102.95 50.2898C102.717 49.6591 102.371 49.1648 101.91 48.8068C101.45 48.4489 100.876 48.2699 100.189 48.2699C99.5297 48.2699 98.97 48.4432 98.5098 48.7898C98.0495 49.1364 97.7001 49.6222 97.4615 50.2472C97.2285 50.8722 97.112 51.608 97.112 52.4545ZM113.574 59.2642C112.744 59.2642 111.997 59.1165 111.332 58.821C110.673 58.5199 110.15 58.0767 109.764 57.4915C109.383 56.9062 109.193 56.1847 109.193 55.3267C109.193 54.5881 109.329 53.9773 109.602 53.4943C109.875 53.0114 110.247 52.625 110.718 52.3352C111.19 52.0455 111.721 51.8267 112.312 51.679C112.909 51.5256 113.525 51.4148 114.162 51.3466C114.929 51.267 115.551 51.196 116.028 51.1335C116.505 51.0653 116.852 50.9631 117.068 50.8267C117.289 50.6847 117.4 50.4659 117.4 50.1705V50.1193C117.4 49.4773 117.21 48.9801 116.829 48.6278C116.449 48.2756 115.9 48.0994 115.184 48.0994C114.429 48.0994 113.829 48.2642 113.386 48.5938C112.949 48.9233 112.653 49.3125 112.5 49.7614L109.619 49.3523C109.846 48.5568 110.221 47.892 110.744 47.358C111.267 46.8182 111.906 46.4148 112.662 46.1477C113.417 45.875 114.252 45.7386 115.167 45.7386C115.798 45.7386 116.426 45.8125 117.051 45.9602C117.676 46.108 118.247 46.3523 118.764 46.6932C119.281 47.0284 119.696 47.4858 120.008 48.0653C120.326 48.6449 120.485 49.3693 120.485 50.2386V59H117.52V57.2017H117.417C117.23 57.5653 116.966 57.9062 116.625 58.2244C116.289 58.5369 115.866 58.7898 115.355 58.983C114.849 59.1705 114.255 59.2642 113.574 59.2642ZM114.375 56.9972C114.994 56.9972 115.531 56.875 115.985 56.6307C116.44 56.3807 116.789 56.0511 117.034 55.642C117.284 55.233 117.409 54.7869 117.409 54.304V52.7614C117.312 52.8409 117.147 52.9148 116.914 52.983C116.687 53.0511 116.431 53.1108 116.147 53.1619C115.863 53.2131 115.582 53.2585 115.304 53.2983C115.025 53.3381 114.784 53.3722 114.579 53.4006C114.119 53.4631 113.707 53.5653 113.343 53.7074C112.98 53.8494 112.693 54.0483 112.483 54.304C112.272 54.554 112.167 54.8778 112.167 55.2756C112.167 55.8438 112.375 56.2727 112.789 56.5625C113.204 56.8523 113.733 56.9972 114.375 56.9972ZM132.898 63.9091C132.478 63.9091 132.089 63.875 131.731 63.8068C131.379 63.7443 131.097 63.6705 130.887 63.5852L131.603 61.1818C132.052 61.3125 132.452 61.375 132.805 61.3693C133.157 61.3636 133.467 61.2528 133.734 61.0369C134.006 60.8267 134.237 60.4744 134.424 59.9801L134.688 59.2727L129.941 45.9091H133.214L136.231 55.7955H136.367L139.393 45.9091H142.674L137.433 60.5852C137.188 61.2784 136.864 61.8722 136.461 62.3665C136.058 62.8665 135.563 63.2472 134.978 63.5085C134.398 63.7756 133.705 63.9091 132.898 63.9091ZM148.921 59.2642C148.091 59.2642 147.344 59.1165 146.68 58.821C146.02 58.5199 145.498 58.0767 145.111 57.4915C144.731 56.9062 144.54 56.1847 144.54 55.3267C144.54 54.5881 144.677 53.9773 144.949 53.4943C145.222 53.0114 145.594 52.625 146.066 52.3352C146.537 52.0455 147.069 51.8267 147.66 51.679C148.256 51.5256 148.873 51.4148 149.509 51.3466C150.276 51.267 150.898 51.196 151.376 51.1335C151.853 51.0653 152.199 50.9631 152.415 50.8267C152.637 50.6847 152.748 50.4659 152.748 50.1705V50.1193C152.748 49.4773 152.557 48.9801 152.177 48.6278C151.796 48.2756 151.248 48.0994 150.532 48.0994C149.776 48.0994 149.177 48.2642 148.734 48.5938C148.296 48.9233 148.001 49.3125 147.847 49.7614L144.966 49.3523C145.194 48.5568 145.569 47.892 146.091 47.358C146.614 46.8182 147.253 46.4148 148.009 46.1477C148.765 45.875 149.6 45.7386 150.515 45.7386C151.145 45.7386 151.773 45.8125 152.398 45.9602C153.023 46.108 153.594 46.3523 154.111 46.6932C154.628 47.0284 155.043 47.4858 155.356 48.0653C155.674 48.6449 155.833 49.3693 155.833 50.2386V59H152.867V57.2017H152.765C152.577 57.5653 152.313 57.9062 151.972 58.2244C151.637 58.5369 151.214 58.7898 150.702 58.983C150.197 59.1705 149.603 59.2642 148.921 59.2642ZM149.722 56.9972C150.341 56.9972 150.878 56.875 151.333 56.6307C151.787 56.3807 152.137 56.0511 152.381 55.642C152.631 55.233 152.756 54.7869 152.756 54.304V52.7614C152.66 52.8409 152.495 52.9148 152.262 52.983C152.035 53.0511 151.779 53.1108 151.495 53.1619C151.211 53.2131 150.93 53.2585 150.651 53.2983C150.373 53.3381 150.131 53.3722 149.927 53.4006C149.466 53.4631 149.055 53.5653 148.691 53.7074C148.327 53.8494 148.04 54.0483 147.83 54.304C147.62 54.554 147.515 54.8778 147.515 55.2756C147.515 55.8438 147.722 56.2727 148.137 56.5625C148.552 56.8523 149.08 56.9972 149.722 56.9972ZM162.74 51.3295V59H159.655V45.9091H162.604V48.1335H162.757C163.059 47.4006 163.539 46.8182 164.198 46.3864C164.863 45.9545 165.684 45.7386 166.661 45.7386C167.564 45.7386 168.351 45.9318 169.022 46.3182C169.698 46.7045 170.221 47.2642 170.59 47.9972C170.965 48.7301 171.15 49.6193 171.144 50.6648V59H168.059V51.142C168.059 50.267 167.831 49.5824 167.377 49.0881C166.928 48.5937 166.306 48.3466 165.51 48.3466C164.971 48.3466 164.49 48.4659 164.07 48.7045C163.655 48.9375 163.329 49.2756 163.09 49.7188C162.857 50.1619 162.74 50.6989 162.74 51.3295ZM180.693 64.1818C179.585 64.1818 178.634 64.0313 177.838 63.7301C177.043 63.4347 176.404 63.0369 175.921 62.5369C175.438 62.0369 175.103 61.483 174.915 60.875L177.693 60.2017C177.818 60.4574 178 60.7102 178.239 60.9602C178.478 61.2159 178.799 61.4261 179.202 61.5909C179.611 61.7614 180.125 61.8466 180.745 61.8466C181.62 61.8466 182.344 61.6335 182.918 61.2074C183.492 60.7869 183.779 60.0938 183.779 59.1278V56.6477H183.625C183.466 56.9659 183.233 57.2926 182.926 57.6278C182.625 57.9631 182.225 58.2443 181.725 58.4716C181.23 58.6989 180.608 58.8125 179.858 58.8125C178.853 58.8125 177.941 58.5767 177.122 58.1051C176.31 57.6278 175.662 56.9176 175.179 55.9744C174.702 55.0256 174.463 53.8381 174.463 52.4119C174.463 50.9744 174.702 49.7614 175.179 48.7727C175.662 47.7784 176.313 47.0256 177.131 46.5142C177.949 45.9972 178.861 45.7386 179.867 45.7386C180.634 45.7386 181.264 45.8693 181.759 46.1307C182.259 46.3864 182.656 46.696 182.952 47.0597C183.247 47.4176 183.472 47.7557 183.625 48.0739H183.796V45.9091H186.838V59.2131C186.838 60.3324 186.571 61.2585 186.037 61.9915C185.503 62.7244 184.773 63.2727 183.847 63.6364C182.921 64 181.87 64.1818 180.693 64.1818ZM180.719 56.392C181.372 56.392 181.929 56.233 182.389 55.9148C182.85 55.5966 183.199 55.1392 183.438 54.5426C183.676 53.946 183.796 53.2301 183.796 52.3949C183.796 51.571 183.676 50.8494 183.438 50.2301C183.205 49.6108 182.858 49.1307 182.398 48.7898C181.943 48.4432 181.384 48.2699 180.719 48.2699C180.031 48.2699 179.458 48.4489 178.997 48.8068C178.537 49.1648 178.191 49.6562 177.958 50.2812C177.725 50.9006 177.608 51.6051 177.608 52.3949C177.608 53.196 177.725 53.8977 177.958 54.5C178.196 55.0966 178.546 55.5625 179.006 55.8977C179.472 56.2273 180.043 56.392 180.719 56.392ZM202.251 59.2301C201.223 59.2301 200.302 58.9659 199.49 58.4375C198.677 57.9091 198.035 57.142 197.564 56.1364C197.092 55.1307 196.856 53.9091 196.856 52.4716C196.856 51.017 197.095 49.7898 197.572 48.7898C198.055 47.7841 198.706 47.0256 199.524 46.5142C200.342 45.9972 201.254 45.7386 202.26 45.7386C203.027 45.7386 203.658 45.8693 204.152 46.1307C204.646 46.3864 205.038 46.696 205.328 47.0597C205.618 47.4176 205.842 47.7557 206.001 48.0739H206.129V41.5455H209.223V59H206.189V56.9375H206.001C205.842 57.2557 205.612 57.5937 205.311 57.9517C205.01 58.304 204.612 58.6051 204.118 58.8551C203.623 59.1051 203.001 59.2301 202.251 59.2301ZM203.112 56.6989C203.766 56.6989 204.322 56.5227 204.783 56.1705C205.243 55.8125 205.592 55.3153 205.831 54.679C206.069 54.0426 206.189 53.3011 206.189 52.4545C206.189 51.608 206.069 50.8722 205.831 50.2472C205.598 49.6222 205.251 49.1364 204.791 48.7898C204.337 48.4432 203.777 48.2699 203.112 48.2699C202.425 48.2699 201.851 48.4489 201.391 48.8068C200.93 49.1648 200.584 49.6591 200.351 50.2898C200.118 50.9205 200.001 51.642 200.001 52.4545C200.001 53.2727 200.118 54.0028 200.351 54.6449C200.589 55.2812 200.939 55.7841 201.399 56.1534C201.865 56.517 202.436 56.6989 203.112 56.6989ZM213.231 59V45.9091H216.316V59H213.231ZM214.782 44.0511C214.293 44.0511 213.873 43.8892 213.52 43.5653C213.168 43.2358 212.992 42.8409 212.992 42.3807C212.992 41.9148 213.168 41.5199 213.52 41.196C213.873 40.8665 214.293 40.7017 214.782 40.7017C215.276 40.7017 215.696 40.8665 216.043 41.196C216.395 41.5199 216.571 41.9148 216.571 42.3807C216.571 42.8409 216.395 43.2358 216.043 43.5653C215.696 43.8892 215.276 44.0511 214.782 44.0511ZM223.294 41.5455V59H220.208V41.5455H223.294ZM230.953 59.2642C230.124 59.2642 229.377 59.1165 228.712 58.821C228.053 58.5199 227.53 58.0767 227.144 57.4915C226.763 56.9062 226.573 56.1847 226.573 55.3267C226.573 54.5881 226.709 53.9773 226.982 53.4943C227.254 53.0114 227.627 52.625 228.098 52.3352C228.57 52.0455 229.101 51.8267 229.692 51.679C230.288 51.5256 230.905 51.4148 231.541 51.3466C232.308 51.267 232.93 51.196 233.408 51.1335C233.885 51.0653 234.232 50.9631 234.448 50.8267C234.669 50.6847 234.78 50.4659 234.78 50.1705V50.1193C234.78 49.4773 234.59 48.9801 234.209 48.6278C233.828 48.2756 233.28 48.0994 232.564 48.0994C231.808 48.0994 231.209 48.2642 230.766 48.5938C230.328 48.9233 230.033 49.3125 229.879 49.7614L226.999 49.3523C227.226 48.5568 227.601 47.892 228.124 47.358C228.646 46.8182 229.286 46.4148 230.041 46.1477C230.797 45.875 231.632 45.7386 232.547 45.7386C233.178 45.7386 233.805 45.8125 234.43 45.9602C235.055 46.108 235.627 46.3523 236.144 46.6932C236.661 47.0284 237.075 47.4858 237.388 48.0653C237.706 48.6449 237.865 49.3693 237.865 50.2386V59H234.899V57.2017H234.797C234.609 57.5653 234.345 57.9062 234.004 58.2244C233.669 58.5369 233.246 58.7898 232.734 58.983C232.229 59.1705 231.635 59.2642 230.953 59.2642ZM231.754 56.9972C232.374 56.9972 232.911 56.875 233.365 56.6307C233.82 56.3807 234.169 56.0511 234.413 55.642C234.663 55.233 234.788 54.7869 234.788 54.304V52.7614C234.692 52.8409 234.527 52.9148 234.294 52.983C234.067 53.0511 233.811 53.1108 233.527 53.1619C233.243 53.2131 232.962 53.2585 232.683 53.2983C232.405 53.3381 232.163 53.3722 231.959 53.4006C231.499 53.4631 231.087 53.5653 230.723 53.7074C230.359 53.8494 230.073 54.0483 229.862 54.304C229.652 54.554 229.547 54.8778 229.547 55.2756C229.547 55.8438 229.754 56.2727 230.169 56.5625C230.584 56.8523 231.112 56.9972 231.754 56.9972ZM244.5 54.892L244.491 51.1676H244.986L249.69 45.9091H253.295L247.508 52.3523H246.869L244.5 54.892ZM241.687 59V41.5455H244.773V59H241.687ZM249.903 59L245.642 53.0426L247.722 50.8693L253.594 59H249.903ZM264.415 53.4943V45.9091H267.5V59H264.509V56.6733H264.373C264.077 57.4062 263.591 58.0057 262.915 58.4716C262.245 58.9375 261.418 59.1705 260.435 59.1705C259.577 59.1705 258.819 58.9801 258.16 58.5994C257.506 58.2131 256.995 57.6534 256.625 56.9205C256.256 56.1818 256.071 55.2898 256.071 54.2443V45.9091H259.157V53.767C259.157 54.5966 259.384 55.2557 259.839 55.7443C260.293 56.233 260.89 56.4773 261.628 56.4773C262.083 56.4773 262.523 56.3665 262.949 56.1449C263.375 55.9233 263.725 55.5938 263.998 55.1562C264.276 54.7131 264.415 54.1591 264.415 53.4943ZM274.206 54.892L274.197 51.1676H274.691L279.396 45.9091H283.001L277.214 52.3523H276.575L274.206 54.892ZM271.393 59V41.5455H274.478V59H271.393ZM279.609 59L275.348 53.0426L277.427 50.8693L283.299 59H279.609ZM289.544 59.2642C288.715 59.2642 287.967 59.1165 287.303 58.821C286.644 58.5199 286.121 58.0767 285.734 57.4915C285.354 56.9062 285.163 56.1847 285.163 55.3267C285.163 54.5881 285.3 53.9773 285.573 53.4943C285.845 53.0114 286.217 52.625 286.689 52.3352C287.161 52.0455 287.692 51.8267 288.283 51.679C288.879 51.5256 289.496 51.4148 290.132 51.3466C290.899 51.267 291.521 51.196 291.999 51.1335C292.476 51.0653 292.823 50.9631 293.038 50.8267C293.26 50.6847 293.371 50.4659 293.371 50.1705V50.1193C293.371 49.4773 293.181 48.9801 292.8 48.6278C292.419 48.2756 291.871 48.0994 291.155 48.0994C290.399 48.0994 289.8 48.2642 289.357 48.5938C288.919 48.9233 288.624 49.3125 288.47 49.7614L285.59 49.3523C285.817 48.5568 286.192 47.892 286.715 47.358C287.237 46.8182 287.877 46.4148 288.632 46.1477C289.388 45.875 290.223 45.7386 291.138 45.7386C291.769 45.7386 292.396 45.8125 293.021 45.9602C293.646 46.108 294.217 46.3523 294.734 46.6932C295.252 47.0284 295.666 47.4858 295.979 48.0653C296.297 48.6449 296.456 49.3693 296.456 50.2386V59H293.49V57.2017H293.388C293.2 57.5653 292.936 57.9062 292.595 58.2244C292.26 58.5369 291.837 58.7898 291.325 58.983C290.82 59.1705 290.226 59.2642 289.544 59.2642ZM290.345 56.9972C290.965 56.9972 291.502 56.875 291.956 56.6307C292.411 56.3807 292.76 56.0511 293.004 55.642C293.254 55.233 293.379 54.7869 293.379 54.304V52.7614C293.283 52.8409 293.118 52.9148 292.885 52.983C292.658 53.0511 292.402 53.1108 292.118 53.1619C291.834 53.2131 291.553 53.2585 291.274 53.2983C290.996 53.3381 290.754 53.3722 290.55 53.4006C290.09 53.4631 289.678 53.5653 289.314 53.7074C288.95 53.8494 288.663 54.0483 288.453 54.304C288.243 54.554 288.138 54.8778 288.138 55.2756C288.138 55.8438 288.345 56.2727 288.76 56.5625C289.175 56.8523 289.703 56.9972 290.345 56.9972ZM303.364 51.3295V59H300.278V45.9091H303.227V48.1335H303.381C303.682 47.4006 304.162 46.8182 304.821 46.3864C305.486 45.9545 306.307 45.7386 307.284 45.7386C308.187 45.7386 308.974 45.9318 309.645 46.3182C310.321 46.7045 310.844 47.2642 311.213 47.9972C311.588 48.7301 311.773 49.6193 311.767 50.6648V59H308.682V51.142C308.682 50.267 308.454 49.5824 308 49.0881C307.551 48.5937 306.929 48.3466 306.133 48.3466C305.594 48.3466 305.114 48.4659 304.693 48.7045C304.278 48.9375 303.952 49.2756 303.713 49.7188C303.48 50.1619 303.364 50.6989 303.364 51.3295ZM328.007 59.2557C326.728 59.2557 325.62 58.9744 324.683 58.4119C323.745 57.8494 323.018 57.0625 322.501 56.0511C321.99 55.0398 321.734 53.858 321.734 52.5057C321.734 51.1534 321.99 49.9687 322.501 48.9517C323.018 47.9347 323.745 47.1449 324.683 46.5824C325.62 46.0199 326.728 45.7386 328.007 45.7386C329.285 45.7386 330.393 46.0199 331.331 46.5824C332.268 47.1449 332.993 47.9347 333.504 48.9517C334.021 49.9687 334.279 51.1534 334.279 52.5057C334.279 53.858 334.021 55.0398 333.504 56.0511C332.993 57.0625 332.268 57.8494 331.331 58.4119C330.393 58.9744 329.285 59.2557 328.007 59.2557ZM328.024 56.7841C328.717 56.7841 329.296 56.5937 329.762 56.2131C330.228 55.8267 330.575 55.3097 330.802 54.6619C331.035 54.0142 331.152 53.2926 331.152 52.4972C331.152 51.696 331.035 50.9716 330.802 50.3239C330.575 49.6705 330.228 49.1506 329.762 48.7642C329.296 48.3778 328.717 48.1847 328.024 48.1847C327.314 48.1847 326.723 48.3778 326.251 48.7642C325.785 49.1506 325.436 49.6705 325.203 50.3239C324.975 50.9716 324.862 51.696 324.862 52.4972C324.862 53.2926 324.975 54.0142 325.203 54.6619C325.436 55.3097 325.785 55.8267 326.251 56.2131C326.723 56.5937 327.314 56.7841 328.024 56.7841ZM340.703 41.5455V59H337.618V41.5455H340.703ZM350.391 59.2557C349.079 59.2557 347.945 58.983 346.991 58.4375C346.042 57.8864 345.312 57.108 344.8 56.1023C344.289 55.0909 344.033 53.9006 344.033 52.5312C344.033 51.1847 344.289 50.0028 344.8 48.9858C345.317 47.9631 346.039 47.1676 346.965 46.5994C347.891 46.0256 348.979 45.7386 350.229 45.7386C351.036 45.7386 351.798 45.8693 352.513 46.1307C353.235 46.3864 353.871 46.7841 354.423 47.3239C354.979 47.8636 355.417 48.5511 355.735 49.3864C356.053 50.2159 356.212 51.2045 356.212 52.3523V53.2983H345.482V51.2188H353.255C353.249 50.6278 353.121 50.1023 352.871 49.642C352.621 49.1761 352.272 48.8097 351.823 48.5426C351.38 48.2756 350.863 48.142 350.272 48.142C349.641 48.142 349.087 48.2955 348.61 48.6023C348.133 48.9034 347.761 49.3011 347.494 49.7955C347.232 50.2841 347.099 50.821 347.093 51.4062V53.2216C347.093 53.983 347.232 54.6364 347.511 55.1818C347.789 55.7216 348.178 56.1364 348.678 56.4261C349.178 56.7102 349.763 56.8523 350.434 56.8523C350.883 56.8523 351.289 56.7898 351.653 56.6648C352.016 56.5341 352.332 56.3438 352.599 56.0938C352.866 55.8438 353.067 55.5341 353.204 55.1648L356.084 55.4886C355.903 56.25 355.556 56.9148 355.045 57.483C354.539 58.0455 353.891 58.483 353.102 58.7955C352.312 59.1023 351.408 59.2557 350.391 59.2557ZM362.628 51.3295V59H359.542V41.5455H362.559V48.1335H362.713C363.02 47.3949 363.494 46.8125 364.136 46.3864C364.784 45.9545 365.608 45.7386 366.608 45.7386C367.517 45.7386 368.309 45.929 368.986 46.3097C369.662 46.6903 370.184 47.2472 370.554 47.9801C370.929 48.7131 371.116 49.608 371.116 50.6648V59H368.031V51.142C368.031 50.2614 367.804 49.5767 367.349 49.0881C366.9 48.5937 366.27 48.3466 365.457 48.3466C364.912 48.3466 364.423 48.4659 363.991 48.7045C363.565 48.9375 363.23 49.2756 362.986 49.7188C362.747 50.1619 362.628 50.6989 362.628 51.3295ZM387.365 59.2557C386.086 59.2557 384.978 58.9744 384.041 58.4119C383.103 57.8494 382.376 57.0625 381.859 56.0511C381.347 55.0398 381.092 53.858 381.092 52.5057C381.092 51.1534 381.347 49.9687 381.859 48.9517C382.376 47.9347 383.103 47.1449 384.041 46.5824C384.978 46.0199 386.086 45.7386 387.365 45.7386C388.643 45.7386 389.751 46.0199 390.688 46.5824C391.626 47.1449 392.35 47.9347 392.862 48.9517C393.379 49.9687 393.637 51.1534 393.637 52.5057C393.637 53.858 393.379 55.0398 392.862 56.0511C392.35 57.0625 391.626 57.8494 390.688 58.4119C389.751 58.9744 388.643 59.2557 387.365 59.2557ZM387.382 56.7841C388.075 56.7841 388.654 56.5937 389.12 56.2131C389.586 55.8267 389.933 55.3097 390.16 54.6619C390.393 54.0142 390.509 53.2926 390.509 52.4972C390.509 51.696 390.393 50.9716 390.16 50.3239C389.933 49.6705 389.586 49.1506 389.12 48.7642C388.654 48.3778 388.075 48.1847 387.382 48.1847C386.671 48.1847 386.08 48.3778 385.609 48.7642C385.143 49.1506 384.793 49.6705 384.561 50.3239C384.333 50.9716 384.22 51.696 384.22 52.4972C384.22 53.2926 384.333 54.0142 384.561 54.6619C384.793 55.3097 385.143 55.8267 385.609 56.2131C386.08 56.5937 386.671 56.7841 387.382 56.7841ZM396.976 59V45.9091H399.967V48.0909H400.104C400.342 47.3352 400.751 46.7528 401.331 46.3438C401.916 45.929 402.584 45.7216 403.334 45.7216C403.504 45.7216 403.695 45.7301 403.905 45.7472C404.121 45.7585 404.3 45.7784 404.442 45.8068V48.6449C404.311 48.5994 404.104 48.5597 403.82 48.5256C403.541 48.4858 403.271 48.4659 403.01 48.4659C402.447 48.4659 401.942 48.5881 401.493 48.8324C401.05 49.071 400.7 49.4034 400.445 49.8295C400.189 50.2557 400.061 50.7472 400.061 51.304V59H396.976ZM410.744 59.2642C409.915 59.2642 409.167 59.1165 408.503 58.821C407.844 58.5199 407.321 58.0767 406.934 57.4915C406.554 56.9062 406.363 56.1847 406.363 55.3267C406.363 54.5881 406.5 53.9773 406.773 53.4943C407.045 53.0114 407.417 52.625 407.889 52.3352C408.361 52.0455 408.892 51.8267 409.483 51.679C410.079 51.5256 410.696 51.4148 411.332 51.3466C412.099 51.267 412.721 51.196 413.199 51.1335C413.676 51.0653 414.023 50.9631 414.238 50.8267C414.46 50.6847 414.571 50.4659 414.571 50.1705V50.1193C414.571 49.4773 414.381 48.9801 414 48.6278C413.619 48.2756 413.071 48.0994 412.355 48.0994C411.599 48.0994 411 48.2642 410.557 48.5938C410.119 48.9233 409.824 49.3125 409.67 49.7614L406.79 49.3523C407.017 48.5568 407.392 47.892 407.915 47.358C408.437 46.8182 409.077 46.4148 409.832 46.1477C410.588 45.875 411.423 45.7386 412.338 45.7386C412.969 45.7386 413.596 45.8125 414.221 45.9602C414.846 46.108 415.417 46.3523 415.934 46.6932C416.452 47.0284 416.866 47.4858 417.179 48.0653C417.497 48.6449 417.656 49.3693 417.656 50.2386V59H414.69V57.2017H414.588C414.4 57.5653 414.136 57.9062 413.795 58.2244C413.46 58.5369 413.037 58.7898 412.525 58.983C412.02 59.1705 411.426 59.2642 410.744 59.2642ZM411.545 56.9972C412.165 56.9972 412.702 56.875 413.156 56.6307C413.611 56.3807 413.96 56.0511 414.204 55.642C414.454 55.233 414.579 54.7869 414.579 54.304V52.7614C414.483 52.8409 414.318 52.9148 414.085 52.983C413.858 53.0511 413.602 53.1108 413.318 53.1619C413.034 53.2131 412.753 53.2585 412.474 53.2983C412.196 53.3381 411.954 53.3722 411.75 53.4006C411.29 53.4631 410.878 53.5653 410.514 53.7074C410.15 53.8494 409.863 54.0483 409.653 54.304C409.443 54.554 409.338 54.8778 409.338 55.2756C409.338 55.8438 409.545 56.2727 409.96 56.5625C410.375 56.8523 410.903 56.9972 411.545 56.9972ZM424.564 51.3295V59H421.478V45.9091H424.427V48.1335H424.581C424.882 47.4006 425.362 46.8182 426.021 46.3864C426.686 45.9545 427.507 45.7386 428.484 45.7386C429.387 45.7386 430.174 45.9318 430.845 46.3182C431.521 46.7045 432.044 47.2642 432.413 47.9972C432.788 48.7301 432.973 49.6193 432.967 50.6648V59H429.882V51.142C429.882 50.267 429.654 49.5824 429.2 49.0881C428.751 48.5937 428.129 48.3466 427.333 48.3466C426.794 48.3466 426.314 48.4659 425.893 48.7045C425.478 48.9375 425.152 49.2756 424.913 49.7188C424.68 50.1619 424.564 50.6989 424.564 51.3295ZM442.517 64.1818C441.409 64.1818 440.457 64.0313 439.661 63.7301C438.866 63.4347 438.227 63.0369 437.744 62.5369C437.261 62.0369 436.926 61.483 436.738 60.875L439.517 60.2017C439.642 60.4574 439.823 60.7102 440.062 60.9602C440.301 61.2159 440.622 61.4261 441.025 61.5909C441.434 61.7614 441.948 61.8466 442.568 61.8466C443.443 61.8466 444.167 61.6335 444.741 61.2074C445.315 60.7869 445.602 60.0938 445.602 59.1278V56.6477H445.448C445.289 56.9659 445.056 57.2926 444.749 57.6278C444.448 57.9631 444.048 58.2443 443.548 58.4716C443.053 58.6989 442.431 58.8125 441.681 58.8125C440.676 58.8125 439.764 58.5767 438.946 58.1051C438.133 57.6278 437.485 56.9176 437.002 55.9744C436.525 55.0256 436.286 53.8381 436.286 52.4119C436.286 50.9744 436.525 49.7614 437.002 48.7727C437.485 47.7784 438.136 47.0256 438.954 46.5142C439.772 45.9972 440.684 45.7386 441.69 45.7386C442.457 45.7386 443.088 45.8693 443.582 46.1307C444.082 46.3864 444.48 46.696 444.775 47.0597C445.071 47.4176 445.295 47.7557 445.448 48.0739H445.619V45.9091H448.661V59.2131C448.661 60.3324 448.394 61.2585 447.86 61.9915C447.326 62.7244 446.596 63.2727 445.67 63.6364C444.744 64 443.693 64.1818 442.517 64.1818ZM442.542 56.392C443.196 56.392 443.752 56.233 444.213 55.9148C444.673 55.5966 445.022 55.1392 445.261 54.5426C445.499 53.946 445.619 53.2301 445.619 52.3949C445.619 51.571 445.499 50.8494 445.261 50.2301C445.028 49.6108 444.681 49.1307 444.221 48.7898C443.767 48.4432 443.207 48.2699 442.542 48.2699C441.855 48.2699 441.281 48.4489 440.821 48.8068C440.36 49.1648 440.014 49.6562 439.781 50.2812C439.548 50.9006 439.431 51.6051 439.431 52.3949C439.431 53.196 439.548 53.8977 439.781 54.5C440.019 55.0966 440.369 55.5625 440.829 55.8977C441.295 56.2273 441.866 56.392 442.542 56.392ZM82.5362 81.9091V84.2955H75.0107V81.9091H82.5362ZM76.8686 78.7727H79.9538V91.0625C79.9538 91.4773 80.0163 91.7955 80.1413 92.017C80.272 92.233 80.4425 92.3807 80.6527 92.4602C80.8629 92.5398 81.0959 92.5795 81.3516 92.5795C81.5447 92.5795 81.7209 92.5653 81.88 92.5369C82.0447 92.5085 82.1697 92.483 82.255 92.4602L82.7749 94.8722C82.6101 94.929 82.3743 94.9915 82.0675 95.0597C81.7663 95.1278 81.397 95.1676 80.9595 95.179C80.1868 95.2017 79.4908 95.0852 78.8714 94.8295C78.2521 94.5682 77.7607 94.1648 77.397 93.6193C77.0391 93.0739 76.8629 92.392 76.8686 91.5739V78.7727ZM91.4913 95.2557C90.1788 95.2557 89.0453 94.983 88.0907 94.4375C87.1419 93.8864 86.4118 93.108 85.9004 92.1023C85.389 91.0909 85.1334 89.9006 85.1334 88.5312C85.1334 87.1847 85.389 86.0028 85.9004 84.9858C86.4174 83.9631 87.139 83.1676 88.0652 82.5994C88.9913 82.0256 90.0794 81.7386 91.3294 81.7386C92.1362 81.7386 92.8976 81.8693 93.6135 82.1307C94.3351 82.3864 94.9714 82.7841 95.5226 83.3239C96.0794 83.8636 96.5169 84.5511 96.8351 85.3864C97.1532 86.2159 97.3123 87.2045 97.3123 88.3523V89.2983H86.5822V87.2188H94.3549C94.3493 86.6278 94.2214 86.1023 93.9714 85.642C93.7214 85.1761 93.372 84.8097 92.9231 84.5426C92.4799 84.2756 91.9629 84.142 91.372 84.142C90.7413 84.142 90.1873 84.2955 89.7101 84.6023C89.2328 84.9034 88.8606 85.3011 88.5936 85.7955C88.3322 86.2841 88.1987 86.821 88.193 87.4062V89.2216C88.193 89.983 88.3322 90.6364 88.6106 91.1818C88.889 91.7216 89.2782 92.1364 89.7782 92.4261C90.2782 92.7102 90.8635 92.8523 91.5339 92.8523C91.9828 92.8523 92.389 92.7898 92.7527 92.6648C93.1163 92.5341 93.4316 92.3438 93.6987 92.0938C93.9657 91.8438 94.1674 91.5341 94.3038 91.1648L97.1845 91.4886C97.0027 92.25 96.6561 92.9148 96.1447 93.483C95.639 94.0455 94.9913 94.483 94.2015 94.7955C93.4118 95.1023 92.5084 95.2557 91.4913 95.2557ZM100.642 95V81.9091H103.634V84.0909H103.77C104.009 83.3352 104.418 82.7528 104.998 82.3438C105.583 81.929 106.25 81.7216 107 81.7216C107.171 81.7216 107.361 81.7301 107.571 81.7472C107.787 81.7585 107.966 81.7784 108.108 81.8068V84.6449C107.978 84.5994 107.77 84.5597 107.486 84.5256C107.208 84.4858 106.938 84.4659 106.677 84.4659C106.114 84.4659 105.608 84.5881 105.159 84.8324C104.716 85.071 104.367 85.4034 104.111 85.8295C103.855 86.2557 103.728 86.7472 103.728 87.304V95H100.642ZM121.225 85.3693L118.412 85.6761C118.333 85.392 118.193 85.125 117.995 84.875C117.801 84.625 117.54 84.4233 117.21 84.2699C116.881 84.1165 116.477 84.0398 116 84.0398C115.358 84.0398 114.818 84.179 114.381 84.4574C113.949 84.7358 113.736 85.0966 113.742 85.5398C113.736 85.9205 113.875 86.2301 114.159 86.4688C114.449 86.7074 114.926 86.9034 115.591 87.0568L117.824 87.5341C119.063 87.8011 119.983 88.2244 120.585 88.804C121.193 89.3835 121.5 90.142 121.506 91.0795C121.5 91.9034 121.259 92.6307 120.781 93.2614C120.31 93.8864 119.654 94.375 118.813 94.7273C117.972 95.0795 117.006 95.2557 115.915 95.2557C114.313 95.2557 113.023 94.9205 112.046 94.25C111.068 93.5739 110.486 92.6335 110.298 91.429L113.307 91.1392C113.443 91.7301 113.733 92.1761 114.176 92.4773C114.62 92.7784 115.196 92.929 115.906 92.929C116.639 92.929 117.227 92.7784 117.671 92.4773C118.12 92.1761 118.344 91.804 118.344 91.3608C118.344 90.9858 118.199 90.6761 117.909 90.4318C117.625 90.1875 117.182 90 116.58 89.8693L114.347 89.4006C113.091 89.1392 112.162 88.6989 111.56 88.0795C110.958 87.4545 110.659 86.6648 110.665 85.7102C110.659 84.9034 110.878 84.2045 111.321 83.6136C111.77 83.017 112.392 82.5568 113.188 82.233C113.989 81.9034 114.912 81.7386 115.958 81.7386C117.492 81.7386 118.699 82.0653 119.58 82.7188C120.466 83.3722 121.014 84.2557 121.225 85.3693ZM130.565 95.2557C129.253 95.2557 128.119 94.983 127.165 94.4375C126.216 93.8864 125.486 93.108 124.974 92.1023C124.463 91.0909 124.207 89.9006 124.207 88.5312C124.207 87.1847 124.463 86.0028 124.974 84.9858C125.492 83.9631 126.213 83.1676 127.139 82.5994C128.065 82.0256 129.153 81.7386 130.403 81.7386C131.21 81.7386 131.972 81.8693 132.688 82.1307C133.409 82.3864 134.045 82.7841 134.597 83.3239C135.153 83.8636 135.591 84.5511 135.909 85.3864C136.227 86.2159 136.386 87.2045 136.386 88.3523V89.2983H125.656V87.2188H133.429C133.423 86.6278 133.295 86.1023 133.045 85.642C132.795 85.1761 132.446 84.8097 131.997 84.5426C131.554 84.2756 131.037 84.142 130.446 84.142C129.815 84.142 129.261 84.2955 128.784 84.6023C128.307 84.9034 127.935 85.3011 127.668 85.7955C127.406 86.2841 127.273 86.821 127.267 87.4062V89.2216C127.267 89.983 127.406 90.6364 127.685 91.1818C127.963 91.7216 128.352 92.1364 128.852 92.4261C129.352 92.7102 129.938 92.8523 130.608 92.8523C131.057 92.8523 131.463 92.7898 131.827 92.6648C132.19 92.5341 132.506 92.3438 132.773 92.0938C133.04 91.8438 133.242 91.5341 133.378 91.1648L136.259 91.4886C136.077 92.25 135.73 92.9148 135.219 93.483C134.713 94.0455 134.065 94.483 133.276 94.7955C132.486 95.1023 131.582 95.2557 130.565 95.2557ZM139.853 95V77.5455H142.938V84.0739H143.066C143.225 83.7557 143.449 83.4176 143.739 83.0597C144.029 82.696 144.421 82.3864 144.915 82.1307C145.41 81.8693 146.04 81.7386 146.807 81.7386C147.819 81.7386 148.731 81.9972 149.543 82.5142C150.361 83.0256 151.009 83.7841 151.486 84.7898C151.969 85.7898 152.211 87.017 152.211 88.4716C152.211 89.9091 151.975 91.1307 151.503 92.1364C151.032 93.142 150.39 93.9091 149.577 94.4375C148.765 94.9659 147.844 95.2301 146.816 95.2301C146.066 95.2301 145.444 95.1051 144.949 94.8551C144.455 94.6051 144.057 94.304 143.756 93.9517C143.461 93.5937 143.231 93.2557 143.066 92.9375H142.887V95H139.853ZM142.878 88.4545C142.878 89.3011 142.998 90.0426 143.236 90.679C143.481 91.3153 143.83 91.8125 144.285 92.1705C144.745 92.5227 145.302 92.6989 145.955 92.6989C146.637 92.6989 147.208 92.517 147.668 92.1534C148.128 91.7841 148.475 91.2812 148.708 90.6449C148.947 90.0028 149.066 89.2727 149.066 88.4545C149.066 87.642 148.949 86.9205 148.716 86.2898C148.484 85.6591 148.137 85.1648 147.677 84.8068C147.216 84.4489 146.643 84.2699 145.955 84.2699C145.296 84.2699 144.736 84.4432 144.276 84.7898C143.816 85.1364 143.466 85.6222 143.228 86.2472C142.995 86.8722 142.878 87.608 142.878 88.4545ZM163.897 89.4943V81.9091H166.983V95H163.991V92.6733H163.855C163.559 93.4062 163.074 94.0057 162.397 94.4716C161.727 94.9375 160.9 95.1705 159.917 95.1705C159.059 95.1705 158.301 94.9801 157.642 94.5994C156.988 94.2131 156.477 93.6534 156.108 92.9205C155.738 92.1818 155.554 91.2898 155.554 90.2443V81.9091H158.639V89.767C158.639 90.5966 158.866 91.2557 159.321 91.7443C159.775 92.233 160.372 92.4773 161.11 92.4773C161.565 92.4773 162.005 92.3665 162.432 92.1449C162.858 91.9233 163.207 91.5938 163.48 91.1562C163.758 90.7131 163.897 90.1591 163.897 89.4943ZM177.412 81.9091V84.2955H169.887V81.9091H177.412ZM171.745 78.7727H174.83V91.0625C174.83 91.4773 174.892 91.7955 175.017 92.017C175.148 92.233 175.318 92.3807 175.529 92.4602C175.739 92.5398 175.972 92.5795 176.228 92.5795C176.421 92.5795 176.597 92.5653 176.756 92.5369C176.921 92.5085 177.046 92.483 177.131 92.4602L177.651 94.8722C177.486 94.929 177.25 94.9915 176.943 95.0597C176.642 95.1278 176.273 95.1676 175.835 95.179C175.063 95.2017 174.367 95.0852 173.747 94.8295C173.128 94.5682 172.637 94.1648 172.273 93.6193C171.915 93.0739 171.739 92.392 171.745 91.5739V78.7727ZM183.661 89.8693V89.6477C183.667 88.6193 183.764 87.8011 183.951 87.1932C184.144 86.5852 184.417 86.0966 184.769 85.7273C185.122 85.3523 185.55 85.0085 186.056 84.696C186.403 84.4801 186.712 84.2443 186.985 83.9886C187.264 83.7273 187.482 83.4375 187.641 83.1193C187.8 82.7955 187.88 82.4347 187.88 82.0369C187.88 81.5881 187.775 81.1989 187.565 80.8693C187.354 80.5398 187.07 80.2841 186.712 80.1023C186.36 79.9205 185.965 79.8295 185.528 79.8295C185.124 79.8295 184.741 79.9176 184.377 80.0938C184.019 80.2642 183.721 80.5256 183.482 80.8778C183.249 81.2244 183.119 81.6648 183.09 82.1989H180.056C180.085 81.1193 180.346 80.2159 180.84 79.4886C181.34 78.7614 181.999 78.2159 182.818 77.8523C183.641 77.4886 184.55 77.3068 185.545 77.3068C186.63 77.3068 187.585 77.4972 188.408 77.8778C189.238 78.2585 189.883 78.8011 190.343 79.5057C190.809 80.2045 191.042 81.0341 191.042 81.9943C191.042 82.642 190.937 83.2216 190.727 83.733C190.522 84.2443 190.229 84.6989 189.849 85.0966C189.468 85.4943 189.016 85.8494 188.494 86.1619C188.033 86.446 187.656 86.7415 187.36 87.0483C187.07 87.3551 186.854 87.7159 186.712 88.1307C186.576 88.5398 186.505 89.0455 186.499 89.6477V89.8693H183.661ZM185.144 95.1875C184.633 95.1875 184.193 95.0057 183.823 94.642C183.454 94.2784 183.269 93.8352 183.269 93.3125C183.269 92.8011 183.454 92.3636 183.823 92C184.193 91.6364 184.633 91.4545 185.144 91.4545C185.65 91.4545 186.087 91.6364 186.457 92C186.832 92.3636 187.019 92.8011 187.019 93.3125C187.019 93.6591 186.931 93.9744 186.755 94.2585C186.585 94.5426 186.357 94.7699 186.073 94.9403C185.795 95.1051 185.485 95.1875 185.144 95.1875Z" fill="black"/>
<path d="M39.2087 53.8671C41.3167 51.1728 45.6147 52.1962 46.2822 55.5514L51.3613 81.0823C51.7924 83.249 50.3853 85.3549 48.2186 85.7859L18.5477 91.6878C14.9092 92.4115 12.331 88.2217 14.617 85.2999L39.2087 53.8671Z" fill="white"/>
</svg>
