<svg width="583" height="136" viewBox="0 0 583 136" fill="none" xmlns="http://www.w3.org/2000/svg">
<rect x="47.4141" width="535" height="136" rx="8" fill="white"/>
<path d="M81.1357 59V41.5455H87.8175C89.0788 41.5455 90.1271 41.7443 90.9624 42.142C91.8033 42.5341 92.4311 43.071 92.8459 43.7528C93.2663 44.4347 93.4766 45.2074 93.4766 46.071C93.4766 46.7812 93.3402 47.3892 93.0675 47.8949C92.7947 48.3949 92.4283 48.8011 91.968 49.1136C91.5078 49.4261 90.9936 49.6506 90.4254 49.7869V49.9574C91.0447 49.9915 91.6385 50.1818 92.2067 50.5284C92.7805 50.8693 93.2493 51.3523 93.6129 51.9773C93.9766 52.6023 94.1584 53.358 94.1584 54.2443C94.1584 55.1477 93.9396 55.9602 93.5021 56.6818C93.0646 57.3977 92.4055 57.9631 91.5249 58.3778C90.6442 58.7926 89.5362 59 88.201 59H81.1357ZM84.2976 56.358H87.6982C88.8459 56.358 89.6726 56.1392 90.1783 55.7017C90.6896 55.2585 90.9453 54.6903 90.9453 53.9972C90.9453 53.4801 90.8175 53.0142 90.5618 52.5994C90.3061 52.179 89.9425 51.8494 89.4709 51.6108C88.9993 51.3665 88.4368 51.2443 87.7834 51.2443H84.2976V56.358ZM84.2976 48.9688H87.4254C87.9709 48.9688 88.4624 48.8693 88.8999 48.6705C89.3374 48.4659 89.6811 48.179 89.9311 47.8097C90.1868 47.4347 90.3146 46.9915 90.3146 46.4801C90.3146 45.804 90.076 45.2472 89.5987 44.8097C89.1271 44.3722 88.4254 44.1534 87.4936 44.1534H84.2976V48.9688ZM101.26 59.2642C100.43 59.2642 99.6831 59.1165 99.0183 58.821C98.3592 58.5199 97.8365 58.0767 97.4501 57.4915C97.0694 56.9062 96.8791 56.1847 96.8791 55.3267C96.8791 54.5881 97.0155 53.9773 97.2882 53.4943C97.5609 53.0114 97.9331 52.625 98.4047 52.3352C98.8762 52.0455 99.4075 51.8267 99.9984 51.679C100.595 51.5256 101.211 51.4148 101.848 51.3466C102.615 51.267 103.237 51.196 103.714 51.1335C104.192 51.0653 104.538 50.9631 104.754 50.8267C104.976 50.6847 105.086 50.4659 105.086 50.1705V50.1193C105.086 49.4773 104.896 48.9801 104.515 48.6278C104.135 48.2756 103.586 48.0994 102.871 48.0994C102.115 48.0994 101.515 48.2642 101.072 48.5938C100.635 48.9233 100.339 49.3125 100.186 49.7614L97.3052 49.3523C97.5325 48.5568 97.9075 47.892 98.4302 47.358C98.953 46.8182 99.5922 46.4148 100.348 46.1477C101.104 45.875 101.939 45.7386 102.854 45.7386C103.484 45.7386 104.112 45.8125 104.737 45.9602C105.362 46.108 105.933 46.3523 106.45 46.6932C106.967 47.0284 107.382 47.4858 107.694 48.0653C108.013 48.6449 108.172 49.3693 108.172 50.2386V59H105.206V57.2017H105.104C104.916 57.5653 104.652 57.9062 104.311 58.2244C103.976 58.5369 103.552 58.7898 103.041 58.983C102.535 59.1705 101.942 59.2642 101.26 59.2642ZM102.061 56.9972C102.68 56.9972 103.217 56.875 103.672 56.6307C104.126 56.3807 104.476 56.0511 104.72 55.642C104.97 55.233 105.095 54.7869 105.095 54.304V52.7614C104.998 52.8409 104.834 52.9148 104.601 52.983C104.373 53.0511 104.118 53.1108 103.834 53.1619C103.55 53.2131 103.268 53.2585 102.99 53.2983C102.711 53.3381 102.47 53.3722 102.265 53.4006C101.805 53.4631 101.393 53.5653 101.03 53.7074C100.666 53.8494 100.379 54.0483 100.169 54.304C99.9586 54.554 99.8535 54.8778 99.8535 55.2756C99.8535 55.8438 100.061 56.2727 100.476 56.5625C100.89 56.8523 101.419 56.9972 102.061 56.9972ZM117.687 64.1818C116.579 64.1818 115.628 64.0313 114.832 63.7301C114.037 63.4347 113.397 63.0369 112.914 62.5369C112.431 62.0369 112.096 61.483 111.909 60.875L114.687 60.2017C114.812 60.4574 114.994 60.7102 115.233 60.9602C115.471 61.2159 115.792 61.4261 116.196 61.5909C116.605 61.7614 117.119 61.8466 117.738 61.8466C118.613 61.8466 119.338 61.6335 119.912 61.2074C120.485 60.7869 120.772 60.0938 120.772 59.1278V56.6477H120.619C120.46 56.9659 120.227 57.2926 119.92 57.6278C119.619 57.9631 119.218 58.2443 118.718 58.4716C118.224 58.6989 117.602 58.8125 116.852 58.8125C115.846 58.8125 114.934 58.5767 114.116 58.1051C113.304 57.6278 112.656 56.9176 112.173 55.9744C111.696 55.0256 111.457 53.8381 111.457 52.4119C111.457 50.9744 111.696 49.7614 112.173 48.7727C112.656 47.7784 113.306 47.0256 114.125 46.5142C114.943 45.9972 115.855 45.7386 116.86 45.7386C117.628 45.7386 118.258 45.8693 118.753 46.1307C119.253 46.3864 119.65 46.696 119.946 47.0597C120.241 47.4176 120.466 47.7557 120.619 48.0739H120.789V45.9091H123.832V59.2131C123.832 60.3324 123.565 61.2585 123.031 61.9915C122.497 62.7244 121.767 63.2727 120.841 63.6364C119.914 64 118.863 64.1818 117.687 64.1818ZM117.713 56.392C118.366 56.392 118.923 56.233 119.383 55.9148C119.843 55.5966 120.193 55.1392 120.431 54.5426C120.67 53.946 120.789 53.2301 120.789 52.3949C120.789 51.571 120.67 50.8494 120.431 50.2301C120.199 49.6108 119.852 49.1307 119.392 48.7898C118.937 48.4432 118.378 48.2699 117.713 48.2699C117.025 48.2699 116.451 48.4489 115.991 48.8068C115.531 49.1648 115.184 49.6562 114.951 50.2812C114.718 50.9006 114.602 51.6051 114.602 52.3949C114.602 53.196 114.718 53.8977 114.951 54.5C115.19 55.0966 115.539 55.5625 116 55.8977C116.466 56.2273 117.037 56.392 117.713 56.392ZM131.481 59.2642C130.651 59.2642 129.904 59.1165 129.24 58.821C128.58 58.5199 128.058 58.0767 127.671 57.4915C127.291 56.9062 127.1 56.1847 127.1 55.3267C127.1 54.5881 127.237 53.9773 127.509 53.4943C127.782 53.0114 128.154 52.625 128.626 52.3352C129.097 52.0455 129.629 51.8267 130.22 51.679C130.816 51.5256 131.433 51.4148 132.069 51.3466C132.836 51.267 133.458 51.196 133.936 51.1335C134.413 51.0653 134.759 50.9631 134.975 50.8267C135.197 50.6847 135.308 50.4659 135.308 50.1705V50.1193C135.308 49.4773 135.117 48.9801 134.737 48.6278C134.356 48.2756 133.808 48.0994 133.092 48.0994C132.336 48.0994 131.737 48.2642 131.294 48.5938C130.856 48.9233 130.561 49.3125 130.407 49.7614L127.526 49.3523C127.754 48.5568 128.129 47.892 128.651 47.358C129.174 46.8182 129.813 46.4148 130.569 46.1477C131.325 45.875 132.16 45.7386 133.075 45.7386C133.705 45.7386 134.333 45.8125 134.958 45.9602C135.583 46.108 136.154 46.3523 136.671 46.6932C137.188 47.0284 137.603 47.4858 137.916 48.0653C138.234 48.6449 138.393 49.3693 138.393 50.2386V59H135.427V57.2017H135.325C135.137 57.5653 134.873 57.9062 134.532 58.2244C134.197 58.5369 133.774 58.7898 133.262 58.983C132.757 59.1705 132.163 59.2642 131.481 59.2642ZM132.282 56.9972C132.901 56.9972 133.438 56.875 133.893 56.6307C134.348 56.3807 134.697 56.0511 134.941 55.642C135.191 55.233 135.316 54.7869 135.316 54.304V52.7614C135.22 52.8409 135.055 52.9148 134.822 52.983C134.595 53.0511 134.339 53.1108 134.055 53.1619C133.771 53.2131 133.49 53.2585 133.211 53.2983C132.933 53.3381 132.691 53.3722 132.487 53.4006C132.026 53.4631 131.615 53.5653 131.251 53.7074C130.887 53.8494 130.6 54.0483 130.39 54.304C130.18 54.554 130.075 54.8778 130.075 55.2756C130.075 55.8438 130.282 56.2727 130.697 56.5625C131.112 56.8523 131.64 56.9972 132.282 56.9972ZM142.215 59V45.9091H145.3V59H142.215ZM143.766 44.0511C143.278 44.0511 142.857 43.8892 142.505 43.5653C142.153 43.2358 141.977 42.8409 141.977 42.3807C141.977 41.9148 142.153 41.5199 142.505 41.196C142.857 40.8665 143.278 40.7017 143.766 40.7017C144.261 40.7017 144.681 40.8665 145.028 41.196C145.38 41.5199 145.556 41.9148 145.556 42.3807C145.556 42.8409 145.38 43.2358 145.028 43.5653C144.681 43.8892 144.261 44.0511 143.766 44.0511ZM149.193 59V45.9091H152.142V48.1335H152.295C152.568 47.3835 153.02 46.7983 153.65 46.3778C154.281 45.9517 155.034 45.7386 155.909 45.7386C156.795 45.7386 157.542 45.9545 158.15 46.3864C158.764 46.8125 159.196 47.3949 159.446 48.1335H159.582C159.872 47.4062 160.361 46.8267 161.048 46.3949C161.741 45.9574 162.562 45.7386 163.511 45.7386C164.716 45.7386 165.699 46.1193 166.46 46.8807C167.221 47.642 167.602 48.7528 167.602 50.2131V59H164.508V50.6903C164.508 49.8778 164.292 49.2841 163.861 48.9091C163.429 48.5284 162.9 48.3381 162.275 48.3381C161.531 48.3381 160.949 48.571 160.528 49.0369C160.113 49.4972 159.906 50.0966 159.906 50.8352V59H156.881V50.5625C156.881 49.8864 156.676 49.3466 156.267 48.9432C155.863 48.5398 155.335 48.3381 154.682 48.3381C154.238 48.3381 153.835 48.4517 153.471 48.679C153.108 48.9006 152.818 49.2159 152.602 49.625C152.386 50.0284 152.278 50.5 152.278 51.0398V59H149.193ZM175.219 59.2642C174.39 59.2642 173.642 59.1165 172.978 58.821C172.319 58.5199 171.796 58.0767 171.409 57.4915C171.029 56.9062 170.838 56.1847 170.838 55.3267C170.838 54.5881 170.975 53.9773 171.248 53.4943C171.52 53.0114 171.892 52.625 172.364 52.3352C172.836 52.0455 173.367 51.8267 173.958 51.679C174.554 51.5256 175.171 51.4148 175.807 51.3466C176.574 51.267 177.196 51.196 177.674 51.1335C178.151 51.0653 178.498 50.9631 178.713 50.8267C178.935 50.6847 179.046 50.4659 179.046 50.1705V50.1193C179.046 49.4773 178.856 48.9801 178.475 48.6278C178.094 48.2756 177.546 48.0994 176.83 48.0994C176.074 48.0994 175.475 48.2642 175.032 48.5938C174.594 48.9233 174.299 49.3125 174.145 49.7614L171.265 49.3523C171.492 48.5568 171.867 47.892 172.39 47.358C172.912 46.8182 173.552 46.4148 174.307 46.1477C175.063 45.875 175.898 45.7386 176.813 45.7386C177.444 45.7386 178.071 45.8125 178.696 45.9602C179.321 46.108 179.892 46.3523 180.409 46.6932C180.927 47.0284 181.341 47.4858 181.654 48.0653C181.972 48.6449 182.131 49.3693 182.131 50.2386V59H179.165V57.2017H179.063C178.875 57.5653 178.611 57.9062 178.27 58.2244C177.935 58.5369 177.512 58.7898 177 58.983C176.495 59.1705 175.901 59.2642 175.219 59.2642ZM176.02 56.9972C176.64 56.9972 177.177 56.875 177.631 56.6307C178.086 56.3807 178.435 56.0511 178.679 55.642C178.929 55.233 179.054 54.7869 179.054 54.304V52.7614C178.958 52.8409 178.793 52.9148 178.56 52.983C178.333 53.0511 178.077 53.1108 177.793 53.1619C177.509 53.2131 177.228 53.2585 176.949 53.2983C176.671 53.3381 176.429 53.3722 176.225 53.4006C175.765 53.4631 175.353 53.5653 174.989 53.7074C174.625 53.8494 174.338 54.0483 174.128 54.304C173.918 54.554 173.813 54.8778 173.813 55.2756C173.813 55.8438 174.02 56.2727 174.435 56.5625C174.85 56.8523 175.378 56.9972 176.02 56.9972ZM189.039 51.3295V59H185.953V45.9091H188.902V48.1335H189.056C189.357 47.4006 189.837 46.8182 190.496 46.3864C191.161 45.9545 191.982 45.7386 192.959 45.7386C193.862 45.7386 194.649 45.9318 195.32 46.3182C195.996 46.7045 196.519 47.2642 196.888 47.9972C197.263 48.7301 197.448 49.6193 197.442 50.6648V59H194.357V51.142C194.357 50.267 194.129 49.5824 193.675 49.0881C193.226 48.5937 192.604 48.3466 191.808 48.3466C191.269 48.3466 190.789 48.4659 190.368 48.7045C189.953 48.9375 189.627 49.2756 189.388 49.7188C189.155 50.1619 189.039 50.6989 189.039 51.3295ZM205.065 59.2642C204.236 59.2642 203.489 59.1165 202.824 58.821C202.165 58.5199 201.642 58.0767 201.256 57.4915C200.875 56.9062 200.685 56.1847 200.685 55.3267C200.685 54.5881 200.821 53.9773 201.094 53.4943C201.367 53.0114 201.739 52.625 202.21 52.3352C202.682 52.0455 203.213 51.8267 203.804 51.679C204.401 51.5256 205.017 51.4148 205.653 51.3466C206.421 51.267 207.043 51.196 207.52 51.1335C207.997 51.0653 208.344 50.9631 208.56 50.8267C208.781 50.6847 208.892 50.4659 208.892 50.1705V50.1193C208.892 49.4773 208.702 48.9801 208.321 48.6278C207.94 48.2756 207.392 48.0994 206.676 48.0994C205.921 48.0994 205.321 48.2642 204.878 48.5938C204.44 48.9233 204.145 49.3125 203.992 49.7614L201.111 49.3523C201.338 48.5568 201.713 47.892 202.236 47.358C202.759 46.8182 203.398 46.4148 204.153 46.1477C204.909 45.875 205.744 45.7386 206.659 45.7386C207.29 45.7386 207.918 45.8125 208.543 45.9602C209.168 46.108 209.739 46.3523 210.256 46.6932C210.773 47.0284 211.188 47.4858 211.5 48.0653C211.818 48.6449 211.977 49.3693 211.977 50.2386V59H209.011V57.2017H208.909C208.722 57.5653 208.457 57.9062 208.117 58.2244C207.781 58.5369 207.358 58.7898 206.847 58.983C206.341 59.1705 205.747 59.2642 205.065 59.2642ZM205.867 56.9972C206.486 56.9972 207.023 56.875 207.477 56.6307C207.932 56.3807 208.281 56.0511 208.526 55.642C208.776 55.233 208.901 54.7869 208.901 54.304V52.7614C208.804 52.8409 208.639 52.9148 208.406 52.983C208.179 53.0511 207.923 53.1108 207.639 53.1619C207.355 53.2131 207.074 53.2585 206.796 53.2983C206.517 53.3381 206.276 53.3722 206.071 53.4006C205.611 53.4631 205.199 53.5653 204.835 53.7074C204.472 53.8494 204.185 54.0483 203.974 54.304C203.764 54.554 203.659 54.8778 203.659 55.2756C203.659 55.8438 203.867 56.2727 204.281 56.5625C204.696 56.8523 205.224 56.9972 205.867 56.9972ZM222.609 59V41.5455H225.694V48.0739H225.822C225.981 47.7557 226.206 47.4176 226.495 47.0597C226.785 46.696 227.177 46.3864 227.672 46.1307C228.166 45.8693 228.797 45.7386 229.564 45.7386C230.575 45.7386 231.487 45.9972 232.299 46.5142C233.118 47.0256 233.765 47.7841 234.243 48.7898C234.726 49.7898 234.967 51.017 234.967 52.4716C234.967 53.9091 234.731 55.1307 234.26 56.1364C233.788 57.142 233.146 57.9091 232.334 58.4375C231.521 58.9659 230.601 59.2301 229.572 59.2301C228.822 59.2301 228.2 59.1051 227.706 58.8551C227.211 58.6051 226.814 58.304 226.512 57.9517C226.217 57.5937 225.987 57.2557 225.822 56.9375H225.643V59H222.609ZM225.635 52.4545C225.635 53.3011 225.754 54.0426 225.993 54.679C226.237 55.3153 226.586 55.8125 227.041 56.1705C227.501 56.5227 228.058 56.6989 228.711 56.6989C229.393 56.6989 229.964 56.517 230.424 56.1534C230.885 55.7841 231.231 55.2812 231.464 54.6449C231.703 54.0028 231.822 53.2727 231.822 52.4545C231.822 51.642 231.706 50.9205 231.473 50.2898C231.24 49.6591 230.893 49.1648 230.433 48.8068C229.973 48.4489 229.399 48.2699 228.711 48.2699C228.052 48.2699 227.493 48.4432 227.032 48.7898C226.572 49.1364 226.223 49.6222 225.984 50.2472C225.751 50.8722 225.635 51.608 225.635 52.4545ZM244.105 59.2557C242.793 59.2557 241.659 58.983 240.705 58.4375C239.756 57.8864 239.026 57.108 238.514 56.1023C238.003 55.0909 237.747 53.9006 237.747 52.5312C237.747 51.1847 238.003 50.0028 238.514 48.9858C239.032 47.9631 239.753 47.1676 240.679 46.5994C241.605 46.0256 242.693 45.7386 243.943 45.7386C244.75 45.7386 245.512 45.8693 246.228 46.1307C246.949 46.3864 247.585 46.7841 248.137 47.3239C248.693 47.8636 249.131 48.5511 249.449 49.3864C249.767 50.2159 249.926 51.2045 249.926 52.3523V53.2983H239.196V51.2188H246.969C246.963 50.6278 246.835 50.1023 246.585 49.642C246.335 49.1761 245.986 48.8097 245.537 48.5426C245.094 48.2756 244.577 48.142 243.986 48.142C243.355 48.142 242.801 48.2955 242.324 48.6023C241.847 48.9034 241.475 49.3011 241.208 49.7955C240.946 50.2841 240.813 50.821 240.807 51.4062V53.2216C240.807 53.983 240.946 54.6364 241.225 55.1818C241.503 55.7216 241.892 56.1364 242.392 56.4261C242.892 56.7102 243.478 56.8523 244.148 56.8523C244.597 56.8523 245.003 56.7898 245.367 56.6648C245.73 56.5341 246.046 56.3438 246.313 56.0938C246.58 55.8438 246.782 55.5341 246.918 55.1648L249.799 55.4886C249.617 56.25 249.27 56.9148 248.759 57.483C248.253 58.0455 247.605 58.483 246.816 58.7955C246.026 59.1023 245.122 59.2557 244.105 59.2557ZM256.342 51.3295V59H253.256V45.9091H256.205V48.1335H256.359C256.66 47.4006 257.14 46.8182 257.799 46.3864C258.464 45.9545 259.285 45.7386 260.262 45.7386C261.166 45.7386 261.952 45.9318 262.623 46.3182C263.299 46.7045 263.822 47.2642 264.191 47.9972C264.566 48.7301 264.751 49.6193 264.745 50.6648V59H261.66V51.142C261.66 50.267 261.433 49.5824 260.978 49.0881C260.529 48.5937 259.907 48.3466 259.112 48.3466C258.572 48.3466 258.092 48.4659 257.671 48.7045C257.256 48.9375 256.93 49.2756 256.691 49.7188C256.458 50.1619 256.342 50.6989 256.342 51.3295ZM273.459 59.2301C272.431 59.2301 271.511 58.9659 270.698 58.4375C269.886 57.9091 269.244 57.142 268.772 56.1364C268.3 55.1307 268.065 53.9091 268.065 52.4716C268.065 51.017 268.303 49.7898 268.78 48.7898C269.263 47.7841 269.914 47.0256 270.732 46.5142C271.55 45.9972 272.462 45.7386 273.468 45.7386C274.235 45.7386 274.866 45.8693 275.36 46.1307C275.854 46.3864 276.246 46.696 276.536 47.0597C276.826 47.4176 277.05 47.7557 277.209 48.0739H277.337V41.5455H280.431V59H277.397V56.9375H277.209C277.05 57.2557 276.82 57.5937 276.519 57.9517C276.218 58.304 275.82 58.6051 275.326 58.8551C274.832 59.1051 274.209 59.2301 273.459 59.2301ZM274.32 56.6989C274.974 56.6989 275.53 56.5227 275.991 56.1705C276.451 55.8125 276.8 55.3153 277.039 54.679C277.278 54.0426 277.397 53.3011 277.397 52.4545C277.397 51.608 277.278 50.8722 277.039 50.2472C276.806 49.6222 276.459 49.1364 275.999 48.7898C275.545 48.4432 274.985 48.2699 274.32 48.2699C273.633 48.2699 273.059 48.4489 272.599 48.8068C272.138 49.1648 271.792 49.6591 271.559 50.2898C271.326 50.9205 271.209 51.642 271.209 52.4545C271.209 53.2727 271.326 54.0028 271.559 54.6449C271.798 55.2812 272.147 55.7841 272.607 56.1534C273.073 56.517 273.644 56.6989 274.32 56.6989ZM288.206 59.2642C287.376 59.2642 286.629 59.1165 285.964 58.821C285.305 58.5199 284.782 58.0767 284.396 57.4915C284.015 56.9062 283.825 56.1847 283.825 55.3267C283.825 54.5881 283.961 53.9773 284.234 53.4943C284.507 53.0114 284.879 52.625 285.351 52.3352C285.822 52.0455 286.353 51.8267 286.944 51.679C287.541 51.5256 288.157 51.4148 288.794 51.3466C289.561 51.267 290.183 51.196 290.66 51.1335C291.138 51.0653 291.484 50.9631 291.7 50.8267C291.922 50.6847 292.032 50.4659 292.032 50.1705V50.1193C292.032 49.4773 291.842 48.9801 291.461 48.6278C291.081 48.2756 290.532 48.0994 289.817 48.0994C289.061 48.0994 288.461 48.2642 288.018 48.5938C287.581 48.9233 287.285 49.3125 287.132 49.7614L284.251 49.3523C284.478 48.5568 284.853 47.892 285.376 47.358C285.899 46.8182 286.538 46.4148 287.294 46.1477C288.049 45.875 288.885 45.7386 289.799 45.7386C290.43 45.7386 291.058 45.8125 291.683 45.9602C292.308 46.108 292.879 46.3523 293.396 46.6932C293.913 47.0284 294.328 47.4858 294.64 48.0653C294.959 48.6449 295.118 49.3693 295.118 50.2386V59H292.152V57.2017H292.049C291.862 57.5653 291.598 57.9062 291.257 58.2244C290.922 58.5369 290.498 58.7898 289.987 58.983C289.481 59.1705 288.888 59.2642 288.206 59.2642ZM289.007 56.9972C289.626 56.9972 290.163 56.875 290.618 56.6307C291.072 56.3807 291.422 56.0511 291.666 55.642C291.916 55.233 292.041 54.7869 292.041 54.304V52.7614C291.944 52.8409 291.78 52.9148 291.547 52.983C291.319 53.0511 291.064 53.1108 290.78 53.1619C290.495 53.2131 290.214 53.2585 289.936 53.2983C289.657 53.3381 289.416 53.3722 289.211 53.4006C288.751 53.4631 288.339 53.5653 287.976 53.7074C287.612 53.8494 287.325 54.0483 287.115 54.304C286.905 54.554 286.799 54.8778 286.799 55.2756C286.799 55.8438 287.007 56.2727 287.422 56.5625C287.836 56.8523 288.365 56.9972 289.007 56.9972ZM312.15 45.9091V48.2955H304.624V45.9091H312.15ZM306.482 42.7727H309.568V55.0625C309.568 55.4773 309.63 55.7955 309.755 56.017C309.886 56.233 310.056 56.3807 310.266 56.4602C310.477 56.5398 310.71 56.5795 310.965 56.5795C311.158 56.5795 311.335 56.5653 311.494 56.5369C311.658 56.5085 311.783 56.483 311.869 56.4602L312.389 58.8722C312.224 58.929 311.988 58.9915 311.681 59.0597C311.38 59.1278 311.011 59.1676 310.573 59.179C309.801 59.2017 309.105 59.0852 308.485 58.8295C307.866 58.5682 307.374 58.1648 307.011 57.6193C306.653 57.0739 306.477 56.392 306.482 55.5739V42.7727ZM321.105 59.2557C319.793 59.2557 318.659 58.983 317.704 58.4375C316.756 57.8864 316.026 57.108 315.514 56.1023C315.003 55.0909 314.747 53.9006 314.747 52.5312C314.747 51.1847 315.003 50.0028 315.514 48.9858C316.031 47.9631 316.753 47.1676 317.679 46.5994C318.605 46.0256 319.693 45.7386 320.943 45.7386C321.75 45.7386 322.511 45.8693 323.227 46.1307C323.949 46.3864 324.585 46.7841 325.136 47.3239C325.693 47.8636 326.131 48.5511 326.449 49.3864C326.767 50.2159 326.926 51.2045 326.926 52.3523V53.2983H316.196V51.2188H323.969C323.963 50.6278 323.835 50.1023 323.585 49.642C323.335 49.1761 322.986 48.8097 322.537 48.5426C322.094 48.2756 321.577 48.142 320.986 48.142C320.355 48.142 319.801 48.2955 319.324 48.6023C318.847 48.9034 318.474 49.3011 318.207 49.7955C317.946 50.2841 317.812 50.821 317.807 51.4062V53.2216C317.807 53.983 317.946 54.6364 318.224 55.1818C318.503 55.7216 318.892 56.1364 319.392 56.4261C319.892 56.7102 320.477 56.8523 321.148 56.8523C321.597 56.8523 322.003 56.7898 322.366 56.6648C322.73 56.5341 323.045 56.3438 323.312 56.0938C323.579 55.8438 323.781 55.5341 323.918 55.1648L326.798 55.4886C326.616 56.25 326.27 56.9148 325.758 57.483C325.253 58.0455 324.605 58.483 323.815 58.7955C323.026 59.1023 322.122 59.2557 321.105 59.2557ZM330.256 59V45.9091H333.248V48.0909H333.384C333.623 47.3352 334.032 46.7528 334.611 46.3438C335.197 45.929 335.864 45.7216 336.614 45.7216C336.785 45.7216 336.975 45.7301 337.185 45.7472C337.401 45.7585 337.58 45.7784 337.722 45.8068V48.6449C337.591 48.5994 337.384 48.5597 337.1 48.5256C336.822 48.4858 336.552 48.4659 336.29 48.4659C335.728 48.4659 335.222 48.5881 334.773 48.8324C334.33 49.071 333.981 49.4034 333.725 49.8295C333.469 50.2557 333.341 50.7472 333.341 51.304V59H330.256ZM350.838 49.3693L348.026 49.6761C347.946 49.392 347.807 49.125 347.608 48.875C347.415 48.625 347.154 48.4233 346.824 48.2699C346.495 48.1165 346.091 48.0398 345.614 48.0398C344.972 48.0398 344.432 48.179 343.995 48.4574C343.563 48.7358 343.35 49.0966 343.355 49.5398C343.35 49.9205 343.489 50.2301 343.773 50.4688C344.063 50.7074 344.54 50.9034 345.205 51.0568L347.438 51.5341C348.676 51.8011 349.597 52.2244 350.199 52.804C350.807 53.3835 351.114 54.142 351.12 55.0795C351.114 55.9034 350.872 56.6307 350.395 57.2614C349.924 57.8864 349.267 58.375 348.426 58.7273C347.586 59.0795 346.62 59.2557 345.529 59.2557C343.926 59.2557 342.637 58.9205 341.659 58.25C340.682 57.5739 340.1 56.6335 339.912 55.429L342.921 55.1392C343.057 55.7301 343.347 56.1761 343.79 56.4773C344.233 56.7784 344.81 56.929 345.52 56.929C346.253 56.929 346.841 56.7784 347.284 56.4773C347.733 56.1761 347.958 55.804 347.958 55.3608C347.958 54.9858 347.813 54.6761 347.523 54.4318C347.239 54.1875 346.796 54 346.193 53.8693L343.961 53.4006C342.705 53.1392 341.776 52.6989 341.174 52.0795C340.571 51.4545 340.273 50.6648 340.279 49.7102C340.273 48.9034 340.492 48.2045 340.935 47.6136C341.384 47.017 342.006 46.5568 342.801 46.233C343.603 45.9034 344.526 45.7386 345.571 45.7386C347.105 45.7386 348.313 46.0653 349.193 46.7188C350.08 47.3722 350.628 48.2557 350.838 49.3693ZM360.179 59.2557C358.867 59.2557 357.733 58.983 356.779 58.4375C355.83 57.8864 355.1 57.108 354.588 56.1023C354.077 55.0909 353.821 53.9006 353.821 52.5312C353.821 51.1847 354.077 50.0028 354.588 48.9858C355.105 47.9631 355.827 47.1676 356.753 46.5994C357.679 46.0256 358.767 45.7386 360.017 45.7386C360.824 45.7386 361.585 45.8693 362.301 46.1307C363.023 46.3864 363.659 46.7841 364.21 47.3239C364.767 47.8636 365.205 48.5511 365.523 49.3864C365.841 50.2159 366 51.2045 366 52.3523V53.2983H355.27V51.2188H363.043C363.037 50.6278 362.909 50.1023 362.659 49.642C362.409 49.1761 362.06 48.8097 361.611 48.5426C361.168 48.2756 360.651 48.142 360.06 48.142C359.429 48.142 358.875 48.2955 358.398 48.6023C357.921 48.9034 357.548 49.3011 357.281 49.7955C357.02 50.2841 356.886 50.821 356.881 51.4062V53.2216C356.881 53.983 357.02 54.6364 357.298 55.1818C357.577 55.7216 357.966 56.1364 358.466 56.4261C358.966 56.7102 359.551 56.8523 360.222 56.8523C360.671 56.8523 361.077 56.7898 361.44 56.6648C361.804 56.5341 362.119 56.3438 362.386 56.0938C362.654 55.8438 362.855 55.5341 362.992 55.1648L365.872 55.4886C365.69 56.25 365.344 56.9148 364.833 57.483C364.327 58.0455 363.679 58.483 362.889 58.7955C362.1 59.1023 361.196 59.2557 360.179 59.2557ZM369.467 59V41.5455H372.552V48.0739H372.68C372.839 47.7557 373.063 47.4176 373.353 47.0597C373.643 46.696 374.035 46.3864 374.529 46.1307C375.023 45.8693 375.654 45.7386 376.421 45.7386C377.432 45.7386 378.344 45.9972 379.157 46.5142C379.975 47.0256 380.623 47.7841 381.1 48.7898C381.583 49.7898 381.825 51.017 381.825 52.4716C381.825 53.9091 381.589 55.1307 381.117 56.1364C380.646 57.142 380.004 57.9091 379.191 58.4375C378.379 58.9659 377.458 59.2301 376.43 59.2301C375.68 59.2301 375.057 59.1051 374.563 58.8551C374.069 58.6051 373.671 58.304 373.37 57.9517C373.075 57.5937 372.844 57.2557 372.68 56.9375H372.501V59H369.467ZM372.492 52.4545C372.492 53.3011 372.611 54.0426 372.85 54.679C373.094 55.3153 373.444 55.8125 373.898 56.1705C374.359 56.5227 374.915 56.6989 375.569 56.6989C376.251 56.6989 376.822 56.517 377.282 56.1534C377.742 55.7841 378.089 55.2812 378.322 54.6449C378.56 54.0028 378.68 53.2727 378.68 52.4545C378.68 51.642 378.563 50.9205 378.33 50.2898C378.097 49.6591 377.751 49.1648 377.29 48.8068C376.83 48.4489 376.256 48.2699 375.569 48.2699C374.91 48.2699 374.35 48.4432 373.89 48.7898C373.43 49.1364 373.08 49.6222 372.842 50.2472C372.609 50.8722 372.492 51.608 372.492 52.4545ZM393.511 53.4943V45.9091H396.596V59H393.605V56.6733H393.469C393.173 57.4062 392.687 58.0057 392.011 58.4716C391.341 58.9375 390.514 59.1705 389.531 59.1705C388.673 59.1705 387.915 58.9801 387.255 58.5994C386.602 58.2131 386.091 57.6534 385.721 56.9205C385.352 56.1818 385.167 55.2898 385.167 54.2443V45.9091H388.253V53.767C388.253 54.5966 388.48 55.2557 388.934 55.7443C389.389 56.233 389.986 56.4773 390.724 56.4773C391.179 56.4773 391.619 56.3665 392.045 56.1449C392.471 55.9233 392.821 55.5938 393.094 55.1562C393.372 54.7131 393.511 54.1591 393.511 53.4943ZM407.026 45.9091V48.2955H399.5V45.9091H407.026ZM401.358 42.7727H404.444V55.0625C404.444 55.4773 404.506 55.7955 404.631 56.017C404.762 56.233 404.932 56.3807 405.142 56.4602C405.353 56.5398 405.586 56.5795 405.841 56.5795C406.034 56.5795 406.211 56.5653 406.37 56.5369C406.534 56.5085 406.659 56.483 406.745 56.4602L407.265 58.8722C407.1 58.929 406.864 58.9915 406.557 59.0597C406.256 59.1278 405.887 59.1676 405.449 59.179C404.676 59.2017 403.98 59.0852 403.361 58.8295C402.742 58.5682 402.25 58.1648 401.887 57.6193C401.529 57.0739 401.353 56.392 401.358 55.5739V42.7727ZM421.857 59.2301C420.829 59.2301 419.908 58.9659 419.096 58.4375C418.283 57.9091 417.641 57.142 417.17 56.1364C416.698 55.1307 416.462 53.9091 416.462 52.4716C416.462 51.017 416.701 49.7898 417.178 48.7898C417.661 47.7841 418.312 47.0256 419.13 46.5142C419.948 45.9972 420.86 45.7386 421.866 45.7386C422.633 45.7386 423.263 45.8693 423.758 46.1307C424.252 46.3864 424.644 46.696 424.934 47.0597C425.224 47.4176 425.448 47.7557 425.607 48.0739H425.735V41.5455H428.829V59H425.795V56.9375H425.607C425.448 57.2557 425.218 57.5937 424.917 57.9517C424.616 58.304 424.218 58.6051 423.724 58.8551C423.229 59.1051 422.607 59.2301 421.857 59.2301ZM422.718 56.6989C423.371 56.6989 423.928 56.5227 424.388 56.1705C424.849 55.8125 425.198 55.3153 425.437 54.679C425.675 54.0426 425.795 53.3011 425.795 52.4545C425.795 51.608 425.675 50.8722 425.437 50.2472C425.204 49.6222 424.857 49.1364 424.397 48.7898C423.942 48.4432 423.383 48.2699 422.718 48.2699C422.031 48.2699 421.457 48.4489 420.996 48.8068C420.536 49.1648 420.19 49.6591 419.957 50.2898C419.724 50.9205 419.607 51.642 419.607 52.4545C419.607 53.2727 419.724 54.0028 419.957 54.6449C420.195 55.2812 420.545 55.7841 421.005 56.1534C421.471 56.517 422.042 56.6989 422.718 56.6989ZM436.604 59.2642C435.774 59.2642 435.027 59.1165 434.362 58.821C433.703 58.5199 433.18 58.0767 432.794 57.4915C432.413 56.9062 432.223 56.1847 432.223 55.3267C432.223 54.5881 432.359 53.9773 432.632 53.4943C432.905 53.0114 433.277 52.625 433.748 52.3352C434.22 52.0455 434.751 51.8267 435.342 51.679C435.939 51.5256 436.555 51.4148 437.192 51.3466C437.959 51.267 438.581 51.196 439.058 51.1335C439.535 51.0653 439.882 50.9631 440.098 50.8267C440.319 50.6847 440.43 50.4659 440.43 50.1705V50.1193C440.43 49.4773 440.24 48.9801 439.859 48.6278C439.479 48.2756 438.93 48.0994 438.214 48.0994C437.459 48.0994 436.859 48.2642 436.416 48.5938C435.979 48.9233 435.683 49.3125 435.53 49.7614L432.649 49.3523C432.876 48.5568 433.251 47.892 433.774 47.358C434.297 46.8182 434.936 46.4148 435.692 46.1477C436.447 45.875 437.283 45.7386 438.197 45.7386C438.828 45.7386 439.456 45.8125 440.081 45.9602C440.706 46.108 441.277 46.3523 441.794 46.6932C442.311 47.0284 442.726 47.4858 443.038 48.0653C443.356 48.6449 443.515 49.3693 443.515 50.2386V59H440.55V57.2017H440.447C440.26 57.5653 439.996 57.9062 439.655 58.2244C439.319 58.5369 438.896 58.7898 438.385 58.983C437.879 59.1705 437.285 59.2642 436.604 59.2642ZM437.405 56.9972C438.024 56.9972 438.561 56.875 439.015 56.6307C439.47 56.3807 439.819 56.0511 440.064 55.642C440.314 55.233 440.439 54.7869 440.439 54.304V52.7614C440.342 52.8409 440.177 52.9148 439.944 52.983C439.717 53.0511 439.461 53.1108 439.177 53.1619C438.893 53.2131 438.612 53.2585 438.334 53.2983C438.055 53.3381 437.814 53.3722 437.609 53.4006C437.149 53.4631 436.737 53.5653 436.373 53.7074C436.01 53.8494 435.723 54.0483 435.513 54.304C435.302 54.554 435.197 54.8778 435.197 55.2756C435.197 55.8438 435.405 56.2727 435.819 56.5625C436.234 56.8523 436.763 56.9972 437.405 56.9972ZM447.338 63.9091V45.9091H450.372V48.0739H450.551C450.71 47.7557 450.934 47.4176 451.224 47.0597C451.514 46.696 451.906 46.3864 452.4 46.1307C452.895 45.8693 453.525 45.7386 454.292 45.7386C455.304 45.7386 456.216 45.9972 457.028 46.5142C457.846 47.0256 458.494 47.7841 458.971 48.7898C459.454 49.7898 459.696 51.017 459.696 52.4716C459.696 53.9091 459.46 55.1307 458.988 56.1364C458.517 57.142 457.875 57.9091 457.062 58.4375C456.25 58.9659 455.329 59.2301 454.301 59.2301C453.551 59.2301 452.929 59.1051 452.434 58.8551C451.94 58.6051 451.542 58.304 451.241 57.9517C450.946 57.5937 450.716 57.2557 450.551 56.9375H450.423V63.9091H447.338ZM450.363 52.4545C450.363 53.3011 450.483 54.0426 450.721 54.679C450.966 55.3153 451.315 55.8125 451.77 56.1705C452.23 56.5227 452.787 56.6989 453.44 56.6989C454.122 56.6989 454.693 56.517 455.153 56.1534C455.613 55.7841 455.96 55.2812 456.193 54.6449C456.431 54.0028 456.551 53.2727 456.551 52.4545C456.551 51.642 456.434 50.9205 456.201 50.2898C455.968 49.6591 455.622 49.1648 455.162 48.8068C454.701 48.4489 454.128 48.2699 453.44 48.2699C452.781 48.2699 452.221 48.4432 451.761 48.7898C451.301 49.1364 450.951 49.6222 450.713 50.2472C450.48 50.8722 450.363 51.608 450.363 52.4545ZM466.825 59.2642C465.995 59.2642 465.248 59.1165 464.583 58.821C463.924 58.5199 463.401 58.0767 463.015 57.4915C462.634 56.9062 462.444 56.1847 462.444 55.3267C462.444 54.5881 462.58 53.9773 462.853 53.4943C463.126 53.0114 463.498 52.625 463.97 52.3352C464.441 52.0455 464.973 51.8267 465.563 51.679C466.16 51.5256 466.776 51.4148 467.413 51.3466C468.18 51.267 468.802 51.196 469.279 51.1335C469.757 51.0653 470.103 50.9631 470.319 50.8267C470.541 50.6847 470.651 50.4659 470.651 50.1705V50.1193C470.651 49.4773 470.461 48.9801 470.08 48.6278C469.7 48.2756 469.151 48.0994 468.436 48.0994C467.68 48.0994 467.08 48.2642 466.637 48.5938C466.2 48.9233 465.904 49.3125 465.751 49.7614L462.87 49.3523C463.098 48.5568 463.473 47.892 463.995 47.358C464.518 46.8182 465.157 46.4148 465.913 46.1477C466.669 45.875 467.504 45.7386 468.419 45.7386C469.049 45.7386 469.677 45.8125 470.302 45.9602C470.927 46.108 471.498 46.3523 472.015 46.6932C472.532 47.0284 472.947 47.4858 473.259 48.0653C473.578 48.6449 473.737 49.3693 473.737 50.2386V59H470.771V57.2017H470.669C470.481 57.5653 470.217 57.9062 469.876 58.2244C469.541 58.5369 469.117 58.7898 468.606 58.983C468.1 59.1705 467.507 59.2642 466.825 59.2642ZM467.626 56.9972C468.245 56.9972 468.782 56.875 469.237 56.6307C469.691 56.3807 470.041 56.0511 470.285 55.642C470.535 55.233 470.66 54.7869 470.66 54.304V52.7614C470.563 52.8409 470.399 52.9148 470.166 52.983C469.938 53.0511 469.683 53.1108 469.399 53.1619C469.115 53.2131 468.833 53.2585 468.555 53.2983C468.276 53.3381 468.035 53.3722 467.83 53.4006C467.37 53.4631 466.958 53.5653 466.595 53.7074C466.231 53.8494 465.944 54.0483 465.734 54.304C465.524 54.554 465.419 54.8778 465.419 55.2756C465.419 55.8438 465.626 56.2727 466.041 56.5625C466.455 56.8523 466.984 56.9972 467.626 56.9972ZM484.096 45.9091V48.2955H476.57V45.9091H484.096ZM478.428 42.7727H481.514V55.0625C481.514 55.4773 481.576 55.7955 481.701 56.017C481.832 56.233 482.002 56.3807 482.212 56.4602C482.423 56.5398 482.656 56.5795 482.911 56.5795C483.104 56.5795 483.281 56.5653 483.44 56.5369C483.604 56.5085 483.729 56.483 483.815 56.4602L484.335 58.8722C484.17 58.929 483.934 58.9915 483.627 59.0597C483.326 59.1278 482.957 59.1676 482.519 59.179C481.746 59.2017 481.05 59.0852 480.431 58.8295C479.812 58.5682 479.32 58.1648 478.957 57.6193C478.599 57.0739 478.423 56.392 478.428 55.5739V42.7727ZM80.9993 95V81.9091H83.9482V84.1335H84.1016C84.3743 83.3835 84.826 82.7983 85.4567 82.3778C86.0874 81.9517 86.8402 81.7386 87.7152 81.7386C88.6016 81.7386 89.3487 81.9545 89.9567 82.3864C90.5703 82.8125 91.0021 83.3949 91.2521 84.1335H91.3885C91.6783 83.4062 92.1669 82.8267 92.8544 82.3949C93.5476 81.9574 94.3686 81.7386 95.3175 81.7386C96.522 81.7386 97.505 82.1193 98.2663 82.8807C99.0277 83.642 99.4084 84.7528 99.4084 86.2131V95H96.3146V86.6903C96.3146 85.8778 96.0987 85.2841 95.6669 84.9091C95.2351 84.5284 94.7067 84.3381 94.0817 84.3381C93.3374 84.3381 92.755 84.571 92.3345 85.0369C91.9197 85.4972 91.7124 86.0966 91.7124 86.8352V95H88.6868V86.5625C88.6868 85.8864 88.4822 85.3466 88.0732 84.9432C87.6697 84.5398 87.1413 84.3381 86.4879 84.3381C86.0447 84.3381 85.6413 84.4517 85.2777 84.679C84.9141 84.9006 84.6243 85.2159 84.4084 85.625C84.1925 86.0284 84.0845 86.5 84.0845 87.0398V95H80.9993ZM109.054 95.2557C107.741 95.2557 106.608 94.983 105.653 94.4375C104.704 93.8864 103.974 93.108 103.463 92.1023C102.952 91.0909 102.696 89.9006 102.696 88.5312C102.696 87.1847 102.952 86.0028 103.463 84.9858C103.98 83.9631 104.702 83.1676 105.628 82.5994C106.554 82.0256 107.642 81.7386 108.892 81.7386C109.699 81.7386 110.46 81.8693 111.176 82.1307C111.898 82.3864 112.534 82.7841 113.085 83.3239C113.642 83.8636 114.079 84.5511 114.398 85.3864C114.716 86.2159 114.875 87.2045 114.875 88.3523V89.2983H104.145V87.2188H111.917C111.912 86.6278 111.784 86.1023 111.534 85.642C111.284 85.1761 110.934 84.8097 110.486 84.5426C110.042 84.2756 109.525 84.142 108.934 84.142C108.304 84.142 107.75 84.2955 107.273 84.6023C106.795 84.9034 106.423 85.3011 106.156 85.7955C105.895 86.2841 105.761 86.821 105.756 87.4062V89.2216C105.756 89.983 105.895 90.6364 106.173 91.1818C106.452 91.7216 106.841 92.1364 107.341 92.4261C107.841 92.7102 108.426 92.8523 109.096 92.8523C109.545 92.8523 109.952 92.7898 110.315 92.6648C110.679 92.5341 110.994 92.3438 111.261 92.0938C111.528 91.8438 111.73 91.5341 111.866 91.1648L114.747 91.4886C114.565 92.25 114.219 92.9148 113.707 93.483C113.202 94.0455 112.554 94.483 111.764 94.7955C110.974 95.1023 110.071 95.2557 109.054 95.2557ZM121.29 87.3295V95H118.205V81.9091H121.154V84.1335H121.307C121.608 83.4006 122.088 82.8182 122.748 82.3864C123.412 81.9545 124.233 81.7386 125.211 81.7386C126.114 81.7386 126.901 81.9318 127.571 82.3182C128.248 82.7045 128.77 83.2642 129.14 83.9972C129.515 84.7301 129.699 85.6193 129.694 86.6648V95H126.608V87.142C126.608 86.267 126.381 85.5824 125.927 85.0881C125.478 84.5937 124.855 84.3466 124.06 84.3466C123.52 84.3466 123.04 84.4659 122.62 84.7045C122.205 84.9375 121.878 85.2756 121.64 85.7188C121.407 86.1619 121.29 86.6989 121.29 87.3295ZM139.243 100.182C138.135 100.182 137.183 100.031 136.388 99.7301C135.593 99.4347 134.953 99.0369 134.47 98.5369C133.987 98.0369 133.652 97.483 133.465 96.875L136.243 96.2017C136.368 96.4574 136.55 96.7102 136.789 96.9602C137.027 97.2159 137.348 97.4261 137.752 97.5909C138.161 97.7614 138.675 97.8466 139.294 97.8466C140.169 97.8466 140.894 97.6335 141.468 97.2074C142.041 96.7869 142.328 96.0938 142.328 95.1278V92.6477H142.175C142.016 92.9659 141.783 93.2926 141.476 93.6278C141.175 93.9631 140.774 94.2443 140.274 94.4716C139.78 94.6989 139.158 94.8125 138.408 94.8125C137.402 94.8125 136.49 94.5767 135.672 94.1051C134.86 93.6278 134.212 92.9176 133.729 91.9744C133.252 91.0256 133.013 89.8381 133.013 88.4119C133.013 86.9744 133.252 85.7614 133.729 84.7727C134.212 83.7784 134.862 83.0256 135.681 82.5142C136.499 81.9972 137.411 81.7386 138.416 81.7386C139.183 81.7386 139.814 81.8693 140.308 82.1307C140.808 82.3864 141.206 82.696 141.502 83.0597C141.797 83.4176 142.022 83.7557 142.175 84.0739H142.345V81.9091H145.388V95.2131C145.388 96.3324 145.121 97.2585 144.587 97.9915C144.053 98.7244 143.323 99.2727 142.397 99.6364C141.47 100 140.419 100.182 139.243 100.182ZM139.269 92.392C139.922 92.392 140.479 92.233 140.939 91.9148C141.399 91.5966 141.749 91.1392 141.987 90.5426C142.226 89.946 142.345 89.2301 142.345 88.3949C142.345 87.571 142.226 86.8494 141.987 86.2301C141.754 85.6108 141.408 85.1307 140.948 84.7898C140.493 84.4432 139.933 84.2699 139.269 84.2699C138.581 84.2699 138.007 84.4489 137.547 84.8068C137.087 85.1648 136.74 85.6562 136.507 86.2812C136.274 86.9006 136.158 87.6051 136.158 88.3949C136.158 89.196 136.274 89.8977 136.507 90.5C136.746 91.0966 137.095 91.5625 137.556 91.8977C138.022 92.2273 138.593 92.392 139.269 92.392ZM152.355 87.3295V95H149.27V77.5455H152.287V84.1335H152.44C152.747 83.3949 153.222 82.8125 153.864 82.3864C154.511 81.9545 155.335 81.7386 156.335 81.7386C157.244 81.7386 158.037 81.929 158.713 82.3097C159.389 82.6903 159.912 83.2472 160.281 83.9801C160.656 84.7131 160.844 85.608 160.844 86.6648V95H157.759V87.142C157.759 86.2614 157.531 85.5767 157.077 85.0881C156.628 84.5937 155.997 84.3466 155.185 84.3466C154.639 84.3466 154.151 84.4659 153.719 84.7045C153.293 84.9375 152.957 85.2756 152.713 85.7188C152.474 86.1619 152.355 86.6989 152.355 87.3295ZM168.476 95.2642C167.646 95.2642 166.899 95.1165 166.234 94.821C165.575 94.5199 165.052 94.0767 164.666 93.4915C164.285 92.9062 164.095 92.1847 164.095 91.3267C164.095 90.5881 164.231 89.9773 164.504 89.4943C164.777 89.0114 165.149 88.625 165.621 88.3352C166.092 88.0455 166.623 87.8267 167.214 87.679C167.811 87.5256 168.427 87.4148 169.064 87.3466C169.831 87.267 170.453 87.196 170.93 87.1335C171.408 87.0653 171.754 86.9631 171.97 86.8267C172.192 86.6847 172.302 86.4659 172.302 86.1705V86.1193C172.302 85.4773 172.112 84.9801 171.731 84.6278C171.351 84.2756 170.802 84.0994 170.087 84.0994C169.331 84.0994 168.731 84.2642 168.288 84.5938C167.851 84.9233 167.555 85.3125 167.402 85.7614L164.521 85.3523C164.748 84.5568 165.123 83.892 165.646 83.358C166.169 82.8182 166.808 82.4148 167.564 82.1477C168.319 81.875 169.155 81.7386 170.069 81.7386C170.7 81.7386 171.328 81.8125 171.953 81.9602C172.578 82.108 173.149 82.3523 173.666 82.6932C174.183 83.0284 174.598 83.4858 174.91 84.0653C175.229 84.6449 175.388 85.3693 175.388 86.2386V95H172.422V93.2017H172.319C172.132 93.5653 171.868 93.9062 171.527 94.2244C171.192 94.5369 170.768 94.7898 170.257 94.983C169.751 95.1705 169.158 95.2642 168.476 95.2642ZM169.277 92.9972C169.896 92.9972 170.433 92.875 170.888 92.6307C171.342 92.3807 171.692 92.0511 171.936 91.642C172.186 91.233 172.311 90.7869 172.311 90.304V88.7614C172.214 88.8409 172.05 88.9148 171.817 88.983C171.589 89.0511 171.334 89.1108 171.05 89.1619C170.765 89.2131 170.484 89.2585 170.206 89.2983C169.927 89.3381 169.686 89.3722 169.481 89.4006C169.021 89.4631 168.609 89.5653 168.246 89.7074C167.882 89.8494 167.595 90.0483 167.385 90.304C167.175 90.554 167.069 90.8778 167.069 91.2756C167.069 91.8438 167.277 92.2727 167.692 92.5625C168.106 92.8523 168.635 92.9972 169.277 92.9972ZM189.557 85.3693L186.744 85.6761C186.664 85.392 186.525 85.125 186.326 84.875C186.133 84.625 185.872 84.4233 185.542 84.2699C185.213 84.1165 184.809 84.0398 184.332 84.0398C183.69 84.0398 183.15 84.179 182.713 84.4574C182.281 84.7358 182.068 85.0966 182.074 85.5398C182.068 85.9205 182.207 86.2301 182.491 86.4688C182.781 86.7074 183.258 86.9034 183.923 87.0568L186.156 87.5341C187.395 87.8011 188.315 88.2244 188.917 88.804C189.525 89.3835 189.832 90.142 189.838 91.0795C189.832 91.9034 189.591 92.6307 189.113 93.2614C188.642 93.8864 187.985 94.375 187.145 94.7273C186.304 95.0795 185.338 95.2557 184.247 95.2557C182.645 95.2557 181.355 94.9205 180.378 94.25C179.4 93.5739 178.818 92.6335 178.63 91.429L181.639 91.1392C181.775 91.7301 182.065 92.1761 182.508 92.4773C182.951 92.7784 183.528 92.929 184.238 92.929C184.971 92.929 185.559 92.7784 186.003 92.4773C186.451 92.1761 186.676 91.804 186.676 91.3608C186.676 90.9858 186.531 90.6761 186.241 90.4318C185.957 90.1875 185.514 90 184.912 89.8693L182.679 89.4006C181.423 89.1392 180.494 88.6989 179.892 88.0795C179.289 87.4545 178.991 86.6648 178.997 85.7102C178.991 84.9034 179.21 84.2045 179.653 83.6136C180.102 83.017 180.724 82.5568 181.52 82.233C182.321 81.9034 183.244 81.7386 184.289 81.7386C185.824 81.7386 187.031 82.0653 187.912 82.7188C188.798 83.3722 189.346 84.2557 189.557 85.3693ZM193.102 95V81.9091H196.187V95H193.102ZM194.653 80.0511C194.164 80.0511 193.744 79.8892 193.392 79.5653C193.039 79.2358 192.863 78.8409 192.863 78.3807C192.863 77.9148 193.039 77.5199 193.392 77.196C193.744 76.8665 194.164 76.7017 194.653 76.7017C195.147 76.7017 195.568 76.8665 195.914 77.196C196.267 77.5199 196.443 77.9148 196.443 78.3807C196.443 78.8409 196.267 79.2358 195.914 79.5653C195.568 79.8892 195.147 80.0511 194.653 80.0511ZM203.165 77.5455V95H200.08V77.5455H203.165ZM209.87 90.892L209.861 87.1676H210.356L215.06 81.9091H218.665L212.878 88.3523H212.239L209.87 90.892ZM207.057 95V77.5455H210.143V95H207.057ZM215.273 95L211.012 89.0426L213.092 86.8693L218.964 95H215.273ZM225.209 95.2642C224.379 95.2642 223.632 95.1165 222.967 94.821C222.308 94.5199 221.785 94.0767 221.399 93.4915C221.018 92.9062 220.828 92.1847 220.828 91.3267C220.828 90.5881 220.964 89.9773 221.237 89.4943C221.51 89.0114 221.882 88.625 222.353 88.3352C222.825 88.0455 223.356 87.8267 223.947 87.679C224.544 87.5256 225.16 87.4148 225.797 87.3466C226.564 87.267 227.186 87.196 227.663 87.1335C228.14 87.0653 228.487 86.9631 228.703 86.8267C228.924 86.6847 229.035 86.4659 229.035 86.1705V86.1193C229.035 85.4773 228.845 84.9801 228.464 84.6278C228.084 84.2756 227.535 84.0994 226.819 84.0994C226.064 84.0994 225.464 84.2642 225.021 84.5938C224.584 84.9233 224.288 85.3125 224.135 85.7614L221.254 85.3523C221.481 84.5568 221.856 83.892 222.379 83.358C222.902 82.8182 223.541 82.4148 224.297 82.1477C225.052 81.875 225.887 81.7386 226.802 81.7386C227.433 81.7386 228.061 81.8125 228.686 81.9602C229.311 82.108 229.882 82.3523 230.399 82.6932C230.916 83.0284 231.331 83.4858 231.643 84.0653C231.961 84.6449 232.12 85.3693 232.12 86.2386V95H229.155V93.2017H229.052C228.865 93.5653 228.601 93.9062 228.26 94.2244C227.924 94.5369 227.501 94.7898 226.99 94.983C226.484 95.1705 225.89 95.2642 225.209 95.2642ZM226.01 92.9972C226.629 92.9972 227.166 92.875 227.62 92.6307C228.075 92.3807 228.424 92.0511 228.669 91.642C228.919 91.233 229.044 90.7869 229.044 90.304V88.7614C228.947 88.8409 228.782 88.9148 228.549 88.983C228.322 89.0511 228.066 89.1108 227.782 89.1619C227.498 89.2131 227.217 89.2585 226.939 89.2983C226.66 89.3381 226.419 89.3722 226.214 89.4006C225.754 89.4631 225.342 89.5653 224.978 89.7074C224.615 89.8494 224.328 90.0483 224.118 90.304C223.907 90.554 223.802 90.8778 223.802 91.2756C223.802 91.8438 224.01 92.2727 224.424 92.5625C224.839 92.8523 225.368 92.9972 226.01 92.9972ZM239.028 87.3295V95H235.943V81.9091H238.892V84.1335H239.045C239.346 83.4006 239.826 82.8182 240.485 82.3864C241.15 81.9545 241.971 81.7386 242.948 81.7386C243.852 81.7386 244.639 81.9318 245.309 82.3182C245.985 82.7045 246.508 83.2642 246.877 83.9972C247.252 84.7301 247.437 85.6193 247.431 86.6648V95H244.346V87.142C244.346 86.267 244.119 85.5824 243.664 85.0881C243.215 84.5937 242.593 84.3466 241.798 84.3466C241.258 84.3466 240.778 84.4659 240.357 84.7045C239.943 84.9375 239.616 85.2756 239.377 85.7188C239.144 86.1619 239.028 86.6989 239.028 87.3295ZM268.307 85.3693L265.495 85.6761C265.415 85.392 265.276 85.125 265.077 84.875C264.884 84.625 264.623 84.4233 264.293 84.2699C263.964 84.1165 263.56 84.0398 263.083 84.0398C262.441 84.0398 261.901 84.179 261.464 84.4574C261.032 84.7358 260.819 85.0966 260.824 85.5398C260.819 85.9205 260.958 86.2301 261.242 86.4688C261.532 86.7074 262.009 86.9034 262.674 87.0568L264.907 87.5341C266.146 87.8011 267.066 88.2244 267.668 88.804C268.276 89.3835 268.583 90.142 268.589 91.0795C268.583 91.9034 268.342 92.6307 267.864 93.2614C267.393 93.8864 266.736 94.375 265.896 94.7273C265.055 95.0795 264.089 95.2557 262.998 95.2557C261.396 95.2557 260.106 94.9205 259.128 94.25C258.151 93.5739 257.569 92.6335 257.381 91.429L260.39 91.1392C260.526 91.7301 260.816 92.1761 261.259 92.4773C261.702 92.7784 262.279 92.929 262.989 92.929C263.722 92.929 264.31 92.7784 264.753 92.4773C265.202 92.1761 265.427 91.804 265.427 91.3608C265.427 90.9858 265.282 90.6761 264.992 90.4318C264.708 90.1875 264.265 90 263.663 89.8693L261.43 89.4006C260.174 89.1392 259.245 88.6989 258.643 88.0795C258.04 87.4545 257.742 86.6648 257.748 85.7102C257.742 84.9034 257.961 84.2045 258.404 83.6136C258.853 83.017 259.475 82.5568 260.271 82.233C261.072 81.9034 261.995 81.7386 263.04 81.7386C264.574 81.7386 265.782 82.0653 266.663 82.7188C267.549 83.3722 268.097 84.2557 268.307 85.3693ZM280.196 89.4943V81.9091H283.282V95H280.29V92.6733H280.154C279.858 93.4062 279.373 94.0057 278.696 94.4716C278.026 94.9375 277.199 95.1705 276.216 95.1705C275.358 95.1705 274.6 94.9801 273.941 94.5994C273.287 94.2131 272.776 93.6534 272.407 92.9205C272.037 92.1818 271.853 91.2898 271.853 90.2443V81.9091H274.938V89.767C274.938 90.5966 275.165 91.2557 275.62 91.7443C276.074 92.233 276.671 92.4773 277.41 92.4773C277.864 92.4773 278.304 92.3665 278.731 92.1449C279.157 91.9233 279.506 91.5938 279.779 91.1562C280.057 90.7131 280.196 90.1591 280.196 89.4943ZM290.941 95.2642C290.112 95.2642 289.365 95.1165 288.7 94.821C288.041 94.5199 287.518 94.0767 287.132 93.4915C286.751 92.9062 286.561 92.1847 286.561 91.3267C286.561 90.5881 286.697 89.9773 286.97 89.4943C287.242 89.0114 287.615 88.625 288.086 88.3352C288.558 88.0455 289.089 87.8267 289.68 87.679C290.277 87.5256 290.893 87.4148 291.529 87.3466C292.296 87.267 292.919 87.196 293.396 87.1335C293.873 87.0653 294.22 86.9631 294.436 86.8267C294.657 86.6847 294.768 86.4659 294.768 86.1705V86.1193C294.768 85.4773 294.578 84.9801 294.197 84.6278C293.816 84.2756 293.268 84.0994 292.552 84.0994C291.796 84.0994 291.197 84.2642 290.754 84.5938C290.316 84.9233 290.021 85.3125 289.867 85.7614L286.987 85.3523C287.214 84.5568 287.589 83.892 288.112 83.358C288.635 82.8182 289.274 82.4148 290.029 82.1477C290.785 81.875 291.62 81.7386 292.535 81.7386C293.166 81.7386 293.794 81.8125 294.419 81.9602C295.044 82.108 295.615 82.3523 296.132 82.6932C296.649 83.0284 297.063 83.4858 297.376 84.0653C297.694 84.6449 297.853 85.3693 297.853 86.2386V95H294.887V93.2017H294.785C294.598 93.5653 294.333 93.9062 293.992 94.2244C293.657 94.5369 293.234 94.7898 292.723 94.983C292.217 95.1705 291.623 95.2642 290.941 95.2642ZM291.742 92.9972C292.362 92.9972 292.899 92.875 293.353 92.6307C293.808 92.3807 294.157 92.0511 294.402 91.642C294.652 91.233 294.777 90.7869 294.777 90.304V88.7614C294.68 88.8409 294.515 88.9148 294.282 88.983C294.055 89.0511 293.799 89.1108 293.515 89.1619C293.231 89.2131 292.95 89.2585 292.671 89.2983C292.393 89.3381 292.152 89.3722 291.947 89.4006C291.487 89.4631 291.075 89.5653 290.711 89.7074C290.348 89.8494 290.061 90.0483 289.85 90.304C289.64 90.554 289.535 90.8778 289.535 91.2756C289.535 91.8438 289.742 92.2727 290.157 92.5625C290.572 92.8523 291.1 92.9972 291.742 92.9972ZM301.676 95V81.9091H304.667V84.0909H304.803C305.042 83.3352 305.451 82.7528 306.031 82.3438C306.616 81.929 307.283 81.7216 308.033 81.7216C308.204 81.7216 308.394 81.7301 308.605 81.7472C308.82 81.7585 308.999 81.7784 309.141 81.8068V84.6449C309.011 84.5994 308.803 84.5597 308.519 84.5256C308.241 84.4858 307.971 84.4659 307.71 84.4659C307.147 84.4659 306.641 84.5881 306.193 84.8324C305.749 85.071 305.4 85.4034 305.144 85.8295C304.889 86.2557 304.761 86.7472 304.761 87.304V95H301.676ZM315.444 95.2642C314.614 95.2642 313.867 95.1165 313.202 94.821C312.543 94.5199 312.021 94.0767 311.634 93.4915C311.253 92.9062 311.063 92.1847 311.063 91.3267C311.063 90.5881 311.2 89.9773 311.472 89.4943C311.745 89.0114 312.117 88.625 312.589 88.3352C313.06 88.0455 313.592 87.8267 314.182 87.679C314.779 87.5256 315.396 87.4148 316.032 87.3466C316.799 87.267 317.421 87.196 317.898 87.1335C318.376 87.0653 318.722 86.9631 318.938 86.8267C319.16 86.6847 319.271 86.4659 319.271 86.1705V86.1193C319.271 85.4773 319.08 84.9801 318.7 84.6278C318.319 84.2756 317.771 84.0994 317.055 84.0994C316.299 84.0994 315.7 84.2642 315.256 84.5938C314.819 84.9233 314.523 85.3125 314.37 85.7614L311.489 85.3523C311.717 84.5568 312.092 83.892 312.614 83.358C313.137 82.8182 313.776 82.4148 314.532 82.1477C315.288 81.875 316.123 81.7386 317.038 81.7386C317.668 81.7386 318.296 81.8125 318.921 81.9602C319.546 82.108 320.117 82.3523 320.634 82.6932C321.151 83.0284 321.566 83.4858 321.879 84.0653C322.197 84.6449 322.356 85.3693 322.356 86.2386V95H319.39V93.2017H319.288C319.1 93.5653 318.836 93.9062 318.495 94.2244C318.16 94.5369 317.736 94.7898 317.225 94.983C316.719 95.1705 316.126 95.2642 315.444 95.2642ZM316.245 92.9972C316.864 92.9972 317.401 92.875 317.856 92.6307C318.31 92.3807 318.66 92.0511 318.904 91.642C319.154 91.233 319.279 90.7869 319.279 90.304V88.7614C319.182 88.8409 319.018 88.9148 318.785 88.983C318.557 89.0511 318.302 89.1108 318.018 89.1619C317.734 89.2131 317.452 89.2585 317.174 89.2983C316.896 89.3381 316.654 89.3722 316.45 89.4006C315.989 89.4631 315.577 89.5653 315.214 89.7074C314.85 89.8494 314.563 90.0483 314.353 90.304C314.143 90.554 314.038 90.8778 314.038 91.2756C314.038 91.8438 314.245 92.2727 314.66 92.5625C315.075 92.8523 315.603 92.9972 316.245 92.9972ZM329.127 89.8693V89.6477C329.133 88.6193 329.229 87.8011 329.417 87.1932C329.61 86.5852 329.883 86.0966 330.235 85.7273C330.587 85.3523 331.016 85.0085 331.522 84.696C331.868 84.4801 332.178 84.2443 332.451 83.9886C332.729 83.7273 332.948 83.4375 333.107 83.1193C333.266 82.7955 333.346 82.4347 333.346 82.0369C333.346 81.5881 333.241 81.1989 333.03 80.8693C332.82 80.5398 332.536 80.2841 332.178 80.1023C331.826 79.9205 331.431 79.8295 330.993 79.8295C330.59 79.8295 330.206 79.9176 329.843 80.0938C329.485 80.2642 329.187 80.5256 328.948 80.8778C328.715 81.2244 328.584 81.6648 328.556 82.1989H325.522C325.55 81.1193 325.812 80.2159 326.306 79.4886C326.806 78.7614 327.465 78.2159 328.283 77.8523C329.107 77.4886 330.016 77.3068 331.01 77.3068C332.096 77.3068 333.05 77.4972 333.874 77.8778C334.704 78.2585 335.349 78.8011 335.809 79.5057C336.275 80.2045 336.508 81.0341 336.508 81.9943C336.508 82.642 336.402 83.2216 336.192 83.733C335.988 84.2443 335.695 84.6989 335.314 85.0966C334.934 85.4943 334.482 85.8494 333.959 86.1619C333.499 86.446 333.121 86.7415 332.826 87.0483C332.536 87.3551 332.32 87.7159 332.178 88.1307C332.042 88.5398 331.971 89.0455 331.965 89.6477V89.8693H329.127ZM330.61 95.1875C330.099 95.1875 329.658 95.0057 329.289 94.642C328.92 94.2784 328.735 93.8352 328.735 93.3125C328.735 92.8011 328.92 92.3636 329.289 92C329.658 91.6364 330.099 91.4545 330.61 91.4545C331.116 91.4545 331.553 91.6364 331.922 92C332.297 92.3636 332.485 92.8011 332.485 93.3125C332.485 93.6591 332.397 93.9744 332.221 94.2585C332.05 94.5426 331.823 94.7699 331.539 94.9403C331.26 95.1051 330.951 95.1875 330.61 95.1875Z" fill="black"/>
<path d="M44.841 23.4876C47.2069 22.2456 50.1021 23.628 50.6234 26.2488L55.9094 52.8192C56.4817 55.6959 53.8658 58.1899 51.0196 57.4811L13.1072 48.0391C9.53982 47.1507 8.95951 42.3249 12.2146 40.6161L44.841 23.4876Z" fill="white"/>
</svg>
