<svg width="579" height="138" viewBox="0 0 579 138" fill="none" xmlns="http://www.w3.org/2000/svg">
<rect x="43.4141" width="535" height="138" rx="8" fill="white"/>
<path d="M77.1357 59V41.5455H83.6811C85.022 41.5455 86.147 41.7955 87.0561 42.2955C87.9709 42.7955 88.6612 43.483 89.1271 44.358C89.5987 45.2273 89.8345 46.2159 89.8345 47.3239C89.8345 48.4432 89.5987 49.4375 89.1271 50.3068C88.6555 51.1761 87.9595 51.8608 87.0391 52.3608C86.1186 52.8551 84.9851 53.1023 83.6385 53.1023H79.3004V50.5028H83.2124C83.9964 50.5028 84.6385 50.3665 85.1385 50.0938C85.6385 49.821 86.0078 49.446 86.2464 48.9688C86.4908 48.4915 86.6129 47.9432 86.6129 47.3239C86.6129 46.7045 86.4908 46.1591 86.2464 45.6875C86.0078 45.2159 85.6357 44.8494 85.13 44.5881C84.63 44.321 83.9851 44.1875 83.1953 44.1875H80.2976V59H77.1357ZM98.7726 59.2557C97.4601 59.2557 96.3265 58.983 95.372 58.4375C94.4231 57.8864 93.693 57.108 93.1816 56.1023C92.6703 55.0909 92.4146 53.9006 92.4146 52.5312C92.4146 51.1847 92.6703 50.0028 93.1816 48.9858C93.6987 47.9631 94.4203 47.1676 95.3464 46.5994C96.2726 46.0256 97.3606 45.7386 98.6106 45.7386C99.4174 45.7386 100.179 45.8693 100.895 46.1307C101.616 46.3864 102.253 46.7841 102.804 47.3239C103.361 47.8636 103.798 48.5511 104.116 49.3864C104.434 50.2159 104.594 51.2045 104.594 52.3523V53.2983H93.8635V51.2188H101.636C101.631 50.6278 101.503 50.1023 101.253 49.642C101.003 49.1761 100.653 48.8097 100.204 48.5426C99.7612 48.2756 99.2441 48.142 98.6532 48.142C98.0226 48.142 97.4686 48.2955 96.9913 48.6023C96.514 48.9034 96.1419 49.3011 95.8748 49.7955C95.6135 50.2841 95.4799 50.821 95.4743 51.4062V53.2216C95.4743 53.983 95.6135 54.6364 95.8919 55.1818C96.1703 55.7216 96.5595 56.1364 97.0595 56.4261C97.5595 56.7102 98.1447 56.8523 98.8152 56.8523C99.264 56.8523 99.6703 56.7898 100.034 56.6648C100.398 56.5341 100.713 56.3438 100.98 56.0938C101.247 55.8438 101.449 55.5341 101.585 55.1648L104.466 55.4886C104.284 56.25 103.937 56.9148 103.426 57.483C102.92 58.0455 102.273 58.483 101.483 58.7955C100.693 59.1023 99.7896 59.2557 98.7726 59.2557ZM107.924 59V45.9091H110.915V48.0909H111.052C111.29 47.3352 111.699 46.7528 112.279 46.3438C112.864 45.929 113.532 45.7216 114.282 45.7216C114.452 45.7216 114.642 45.7301 114.853 45.7472C115.069 45.7585 115.248 45.7784 115.39 45.8068V48.6449C115.259 48.5994 115.052 48.5597 114.767 48.5256C114.489 48.4858 114.219 48.4659 113.958 48.4659C113.395 48.4659 112.89 48.5881 112.441 48.8324C111.998 49.071 111.648 49.4034 111.392 49.8295C111.137 50.2557 111.009 50.7472 111.009 51.304V59H107.924ZM126.503 53.4943V45.9091H129.588V59H126.597V56.6733H126.46C126.165 57.4062 125.679 58.0057 125.003 58.4716C124.333 58.9375 123.506 59.1705 122.523 59.1705C121.665 59.1705 120.906 58.9801 120.247 58.5994C119.594 58.2131 119.083 57.6534 118.713 56.9205C118.344 56.1818 118.159 55.2898 118.159 54.2443V45.9091H121.245V53.767C121.245 54.5966 121.472 55.2557 121.926 55.7443C122.381 56.233 122.977 56.4773 123.716 56.4773C124.171 56.4773 124.611 56.3665 125.037 56.1449C125.463 55.9233 125.813 55.5938 126.085 55.1562C126.364 54.7131 126.503 54.1591 126.503 53.4943ZM133.617 59V41.5455H136.702V48.0739H136.83C136.989 47.7557 137.214 47.4176 137.504 47.0597C137.793 46.696 138.185 46.3864 138.68 46.1307C139.174 45.8693 139.805 45.7386 140.572 45.7386C141.583 45.7386 142.495 45.9972 143.308 46.5142C144.126 47.0256 144.773 47.7841 145.251 48.7898C145.734 49.7898 145.975 51.017 145.975 52.4716C145.975 53.9091 145.739 55.1307 145.268 56.1364C144.796 57.142 144.154 57.9091 143.342 58.4375C142.529 58.9659 141.609 59.2301 140.58 59.2301C139.83 59.2301 139.208 59.1051 138.714 58.8551C138.219 58.6051 137.822 58.304 137.521 57.9517C137.225 57.5937 136.995 57.2557 136.83 56.9375H136.651V59H133.617ZM136.643 52.4545C136.643 53.3011 136.762 54.0426 137.001 54.679C137.245 55.3153 137.594 55.8125 138.049 56.1705C138.509 56.5227 139.066 56.6989 139.719 56.6989C140.401 56.6989 140.972 56.517 141.433 56.1534C141.893 55.7841 142.239 55.2812 142.472 54.6449C142.711 54.0028 142.83 53.2727 142.83 52.4545C142.83 51.642 142.714 50.9205 142.481 50.2898C142.248 49.6591 141.901 49.1648 141.441 48.8068C140.981 48.4489 140.407 48.2699 139.719 48.2699C139.06 48.2699 138.501 48.4432 138.041 48.7898C137.58 49.1364 137.231 49.6222 136.992 50.2472C136.759 50.8722 136.643 51.608 136.643 52.4545ZM153.085 59.2642C152.256 59.2642 151.508 59.1165 150.844 58.821C150.185 58.5199 149.662 58.0767 149.275 57.4915C148.895 56.9062 148.704 56.1847 148.704 55.3267C148.704 54.5881 148.841 53.9773 149.113 53.4943C149.386 53.0114 149.758 52.625 150.23 52.3352C150.702 52.0455 151.233 51.8267 151.824 51.679C152.42 51.5256 153.037 51.4148 153.673 51.3466C154.44 51.267 155.062 51.196 155.54 51.1335C156.017 51.0653 156.363 50.9631 156.579 50.8267C156.801 50.6847 156.912 50.4659 156.912 50.1705V50.1193C156.912 49.4773 156.721 48.9801 156.341 48.6278C155.96 48.2756 155.412 48.0994 154.696 48.0994C153.94 48.0994 153.341 48.2642 152.898 48.5938C152.46 48.9233 152.165 49.3125 152.011 49.7614L149.131 49.3523C149.358 48.5568 149.733 47.892 150.256 47.358C150.778 46.8182 151.417 46.4148 152.173 46.1477C152.929 45.875 153.764 45.7386 154.679 45.7386C155.31 45.7386 155.937 45.8125 156.562 45.9602C157.187 46.108 157.758 46.3523 158.275 46.6932C158.792 47.0284 159.207 47.4858 159.52 48.0653C159.838 48.6449 159.997 49.3693 159.997 50.2386V59H157.031V57.2017H156.929C156.741 57.5653 156.477 57.9062 156.136 58.2244C155.801 58.5369 155.378 58.7898 154.866 58.983C154.361 59.1705 153.767 59.2642 153.085 59.2642ZM153.886 56.9972C154.506 56.9972 155.042 56.875 155.497 56.6307C155.952 56.3807 156.301 56.0511 156.545 55.642C156.795 55.233 156.92 54.7869 156.92 54.304V52.7614C156.824 52.8409 156.659 52.9148 156.426 52.983C156.199 53.0511 155.943 53.1108 155.659 53.1619C155.375 53.2131 155.094 53.2585 154.815 53.2983C154.537 53.3381 154.295 53.3722 154.091 53.4006C153.631 53.4631 153.219 53.5653 152.855 53.7074C152.491 53.8494 152.204 54.0483 151.994 54.304C151.784 54.554 151.679 54.8778 151.679 55.2756C151.679 55.8438 151.886 56.2727 152.301 56.5625C152.716 56.8523 153.244 56.9972 153.886 56.9972ZM166.905 51.3295V59H163.819V41.5455H166.836V48.1335H166.99C167.297 47.3949 167.771 46.8125 168.413 46.3864C169.061 45.9545 169.885 45.7386 170.885 45.7386C171.794 45.7386 172.586 45.929 173.262 46.3097C173.939 46.6903 174.461 47.2472 174.831 47.9801C175.206 48.7131 175.393 49.608 175.393 50.6648V59H172.308V51.142C172.308 50.2614 172.081 49.5767 171.626 49.0881C171.177 48.5937 170.547 48.3466 169.734 48.3466C169.189 48.3466 168.7 48.4659 168.268 48.7045C167.842 48.9375 167.507 49.2756 167.262 49.7188C167.024 50.1619 166.905 50.6989 166.905 51.3295ZM183.025 59.2642C182.196 59.2642 181.448 59.1165 180.784 58.821C180.125 58.5199 179.602 58.0767 179.215 57.4915C178.835 56.9062 178.644 56.1847 178.644 55.3267C178.644 54.5881 178.781 53.9773 179.053 53.4943C179.326 53.0114 179.698 52.625 180.17 52.3352C180.642 52.0455 181.173 51.8267 181.764 51.679C182.36 51.5256 182.977 51.4148 183.613 51.3466C184.38 51.267 185.002 51.196 185.48 51.1335C185.957 51.0653 186.303 50.9631 186.519 50.8267C186.741 50.6847 186.852 50.4659 186.852 50.1705V50.1193C186.852 49.4773 186.661 48.9801 186.281 48.6278C185.9 48.2756 185.352 48.0994 184.636 48.0994C183.88 48.0994 183.281 48.2642 182.838 48.5938C182.4 48.9233 182.105 49.3125 181.951 49.7614L179.071 49.3523C179.298 48.5568 179.673 47.892 180.196 47.358C180.718 46.8182 181.357 46.4148 182.113 46.1477C182.869 45.875 183.704 45.7386 184.619 45.7386C185.25 45.7386 185.877 45.8125 186.502 45.9602C187.127 46.108 187.698 46.3523 188.215 46.6932C188.732 47.0284 189.147 47.4858 189.46 48.0653C189.778 48.6449 189.937 49.3693 189.937 50.2386V59H186.971V57.2017H186.869C186.681 57.5653 186.417 57.9062 186.076 58.2244C185.741 58.5369 185.318 58.7898 184.806 58.983C184.301 59.1705 183.707 59.2642 183.025 59.2642ZM183.826 56.9972C184.446 56.9972 184.982 56.875 185.437 56.6307C185.892 56.3807 186.241 56.0511 186.485 55.642C186.735 55.233 186.86 54.7869 186.86 54.304V52.7614C186.764 52.8409 186.599 52.9148 186.366 52.983C186.139 53.0511 185.883 53.1108 185.599 53.1619C185.315 53.2131 185.034 53.2585 184.755 53.2983C184.477 53.3381 184.235 53.3722 184.031 53.4006C183.571 53.4631 183.159 53.5653 182.795 53.7074C182.431 53.8494 182.144 54.0483 181.934 54.304C181.724 54.554 181.619 54.8778 181.619 55.2756C181.619 55.8438 181.826 56.2727 182.241 56.5625C182.656 56.8523 183.184 56.9972 183.826 56.9972ZM196.845 51.3295V59H193.759V45.9091H196.708V48.1335H196.862C197.163 47.4006 197.643 46.8182 198.302 46.3864C198.967 45.9545 199.788 45.7386 200.765 45.7386C201.668 45.7386 202.455 45.9318 203.126 46.3182C203.802 46.7045 204.325 47.2642 204.694 47.9972C205.069 48.7301 205.254 49.6193 205.248 50.6648V59H202.163V51.142C202.163 50.267 201.935 49.5824 201.481 49.0881C201.032 48.5937 200.41 48.3466 199.614 48.3466C199.075 48.3466 198.595 48.4659 198.174 48.7045C197.759 48.9375 197.433 49.2756 197.194 49.7188C196.961 50.1619 196.845 50.6989 196.845 51.3295ZM221.573 59.2557C220.26 59.2557 219.127 58.983 218.172 58.4375C217.223 57.8864 216.493 57.108 215.982 56.1023C215.471 55.0909 215.215 53.9006 215.215 52.5312C215.215 51.1847 215.471 50.0028 215.982 48.9858C216.499 47.9631 217.221 47.1676 218.147 46.5994C219.073 46.0256 220.161 45.7386 221.411 45.7386C222.218 45.7386 222.979 45.8693 223.695 46.1307C224.417 46.3864 225.053 46.7841 225.604 47.3239C226.161 47.8636 226.598 48.5511 226.917 49.3864C227.235 50.2159 227.394 51.2045 227.394 52.3523V53.2983H216.664V51.2188H224.437C224.431 50.6278 224.303 50.1023 224.053 49.642C223.803 49.1761 223.454 48.8097 223.005 48.5426C222.562 48.2756 222.044 48.142 221.454 48.142C220.823 48.142 220.269 48.2955 219.792 48.6023C219.314 48.9034 218.942 49.3011 218.675 49.7955C218.414 50.2841 218.28 50.821 218.275 51.4062V53.2216C218.275 53.983 218.414 54.6364 218.692 55.1818C218.971 55.7216 219.36 56.1364 219.86 56.4261C220.36 56.7102 220.945 56.8523 221.615 56.8523C222.064 56.8523 222.471 56.7898 222.834 56.6648C223.198 56.5341 223.513 56.3438 223.78 56.0938C224.047 55.8438 224.249 55.5341 224.385 55.1648L227.266 55.4886C227.084 56.25 226.738 56.9148 226.226 57.483C225.721 58.0455 225.073 58.483 224.283 58.7955C223.493 59.1023 222.59 59.2557 221.573 59.2557ZM233.809 51.3295V59H230.724V45.9091H233.673V48.1335H233.826C234.127 47.4006 234.607 46.8182 235.267 46.3864C235.931 45.9545 236.752 45.7386 237.73 45.7386C238.633 45.7386 239.42 45.9318 240.09 46.3182C240.767 46.7045 241.289 47.2642 241.659 47.9972C242.034 48.7301 242.218 49.6193 242.213 50.6648V59H239.127V51.142C239.127 50.267 238.9 49.5824 238.446 49.0881C237.997 48.5937 237.375 48.3466 236.579 48.3466C236.039 48.3466 235.559 48.4659 235.139 48.7045C234.724 48.9375 234.397 49.2756 234.159 49.7188C233.926 50.1619 233.809 50.6989 233.809 51.3295ZM251.864 59.2557C250.552 59.2557 249.418 58.983 248.464 58.4375C247.515 57.8864 246.785 57.108 246.274 56.1023C245.762 55.0909 245.506 53.9006 245.506 52.5312C245.506 51.1847 245.762 50.0028 246.274 48.9858C246.791 47.9631 247.512 47.1676 248.438 46.5994C249.364 46.0256 250.452 45.7386 251.702 45.7386C252.509 45.7386 253.271 45.8693 253.987 46.1307C254.708 46.3864 255.345 46.7841 255.896 47.3239C256.452 47.8636 256.89 48.5511 257.208 49.3864C257.526 50.2159 257.685 51.2045 257.685 52.3523V53.2983H246.955V51.2188H254.728C254.722 50.6278 254.595 50.1023 254.345 49.642C254.095 49.1761 253.745 48.8097 253.296 48.5426C252.853 48.2756 252.336 48.142 251.745 48.142C251.114 48.142 250.56 48.2955 250.083 48.6023C249.606 48.9034 249.234 49.3011 248.967 49.7955C248.705 50.2841 248.572 50.821 248.566 51.4062V53.2216C248.566 53.983 248.705 54.6364 248.984 55.1818C249.262 55.7216 249.651 56.1364 250.151 56.4261C250.651 56.7102 251.237 56.8523 251.907 56.8523C252.356 56.8523 252.762 56.7898 253.126 56.6648C253.489 56.5341 253.805 56.3438 254.072 56.0938C254.339 55.8438 254.541 55.5341 254.677 55.1648L257.558 55.4886C257.376 56.25 257.029 56.9148 256.518 57.483C256.012 58.0455 255.364 58.483 254.575 58.7955C253.785 59.1023 252.881 59.2557 251.864 59.2557ZM261.016 59V45.9091H264.007V48.0909H264.143C264.382 47.3352 264.791 46.7528 265.371 46.3438C265.956 45.929 266.623 45.7216 267.373 45.7216C267.544 45.7216 267.734 45.7301 267.945 45.7472C268.16 45.7585 268.339 45.7784 268.481 45.8068V48.6449C268.351 48.5994 268.143 48.5597 267.859 48.5256C267.581 48.4858 267.311 48.4659 267.05 48.4659C266.487 48.4659 265.981 48.5881 265.533 48.8324C265.089 49.071 264.74 49.4034 264.484 49.8295C264.229 50.2557 264.101 50.7472 264.101 51.304V59H261.016ZM276.405 64.1818C275.297 64.1818 274.346 64.0313 273.55 63.7301C272.755 63.4347 272.116 63.0369 271.633 62.5369C271.15 62.0369 270.814 61.483 270.627 60.875L273.405 60.2017C273.53 60.4574 273.712 60.7102 273.951 60.9602C274.189 61.2159 274.51 61.4261 274.914 61.5909C275.323 61.7614 275.837 61.8466 276.456 61.8466C277.331 61.8466 278.056 61.6335 278.63 61.2074C279.204 60.7869 279.491 60.0938 279.491 59.1278V56.6477H279.337C279.178 56.9659 278.945 57.2926 278.638 57.6278C278.337 57.9631 277.937 58.2443 277.437 58.4716C276.942 58.6989 276.32 58.8125 275.57 58.8125C274.564 58.8125 273.652 58.5767 272.834 58.1051C272.022 57.6278 271.374 56.9176 270.891 55.9744C270.414 55.0256 270.175 53.8381 270.175 52.4119C270.175 50.9744 270.414 49.7614 270.891 48.7727C271.374 47.7784 272.025 47.0256 272.843 46.5142C273.661 45.9972 274.573 45.7386 275.579 45.7386C276.346 45.7386 276.976 45.8693 277.471 46.1307C277.971 46.3864 278.368 46.696 278.664 47.0597C278.959 47.4176 279.184 47.7557 279.337 48.0739H279.508V45.9091H282.55V59.2131C282.55 60.3324 282.283 61.2585 281.749 61.9915C281.215 62.7244 280.485 63.2727 279.559 63.6364C278.633 64 277.581 64.1818 276.405 64.1818ZM276.431 56.392C277.084 56.392 277.641 56.233 278.101 55.9148C278.562 55.5966 278.911 55.1392 279.15 54.5426C279.388 53.946 279.508 53.2301 279.508 52.3949C279.508 51.571 279.388 50.8494 279.15 50.2301C278.917 49.6108 278.57 49.1307 278.11 48.7898C277.655 48.4432 277.096 48.2699 276.431 48.2699C275.743 48.2699 275.169 48.4489 274.709 48.8068C274.249 49.1648 273.902 49.6562 273.669 50.2812C273.437 50.9006 273.32 51.6051 273.32 52.3949C273.32 53.196 273.437 53.8977 273.669 54.5C273.908 55.0966 274.258 55.5625 274.718 55.8977C275.184 56.2273 275.755 56.392 276.431 56.392ZM286.432 59V45.9091H289.517V59H286.432ZM287.983 44.0511C287.495 44.0511 287.074 43.8892 286.722 43.5653C286.37 43.2358 286.193 42.8409 286.193 42.3807C286.193 41.9148 286.37 41.5199 286.722 41.196C287.074 40.8665 287.495 40.7017 287.983 40.7017C288.478 40.7017 288.898 40.8665 289.245 41.196C289.597 41.5199 289.773 41.9148 289.773 42.3807C289.773 42.8409 289.597 43.2358 289.245 43.5653C288.898 43.8892 288.478 44.0511 287.983 44.0511ZM303.85 59.2642C303.021 59.2642 302.273 59.1165 301.609 58.821C300.95 58.5199 300.427 58.0767 300.04 57.4915C299.66 56.9062 299.469 56.1847 299.469 55.3267C299.469 54.5881 299.606 53.9773 299.878 53.4943C300.151 53.0114 300.523 52.625 300.995 52.3352C301.467 52.0455 301.998 51.8267 302.589 51.679C303.185 51.5256 303.802 51.4148 304.438 51.3466C305.205 51.267 305.827 51.196 306.305 51.1335C306.782 51.0653 307.129 50.9631 307.344 50.8267C307.566 50.6847 307.677 50.4659 307.677 50.1705V50.1193C307.677 49.4773 307.486 48.9801 307.106 48.6278C306.725 48.2756 306.177 48.0994 305.461 48.0994C304.705 48.0994 304.106 48.2642 303.663 48.5938C303.225 48.9233 302.93 49.3125 302.776 49.7614L299.896 49.3523C300.123 48.5568 300.498 47.892 301.021 47.358C301.543 46.8182 302.182 46.4148 302.938 46.1477C303.694 45.875 304.529 45.7386 305.444 45.7386C306.075 45.7386 306.702 45.8125 307.327 45.9602C307.952 46.108 308.523 46.3523 309.04 46.6932C309.557 47.0284 309.972 47.4858 310.285 48.0653C310.603 48.6449 310.762 49.3693 310.762 50.2386V59H307.796V57.2017H307.694C307.506 57.5653 307.242 57.9062 306.901 58.2244C306.566 58.5369 306.143 58.7898 305.631 58.983C305.126 59.1705 304.532 59.2642 303.85 59.2642ZM304.651 56.9972C305.271 56.9972 305.807 56.875 306.262 56.6307C306.717 56.3807 307.066 56.0511 307.31 55.642C307.56 55.233 307.685 54.7869 307.685 54.304V52.7614C307.589 52.8409 307.424 52.9148 307.191 52.983C306.964 53.0511 306.708 53.1108 306.424 53.1619C306.14 53.2131 305.859 53.2585 305.58 53.2983C305.302 53.3381 305.06 53.3722 304.856 53.4006C304.396 53.4631 303.984 53.5653 303.62 53.7074C303.256 53.8494 302.969 54.0483 302.759 54.304C302.549 54.554 302.444 54.8778 302.444 55.2756C302.444 55.8438 302.651 56.2727 303.066 56.5625C303.481 56.8523 304.009 56.9972 304.651 56.9972ZM314.584 63.9091V45.9091H317.618V48.0739H317.797C317.956 47.7557 318.181 47.4176 318.471 47.0597C318.76 46.696 319.152 46.3864 319.647 46.1307C320.141 45.8693 320.772 45.7386 321.539 45.7386C322.55 45.7386 323.462 45.9972 324.275 46.5142C325.093 47.0256 325.741 47.7841 326.218 48.7898C326.701 49.7898 326.942 51.017 326.942 52.4716C326.942 53.9091 326.706 55.1307 326.235 56.1364C325.763 57.142 325.121 57.9091 324.309 58.4375C323.496 58.9659 322.576 59.2301 321.547 59.2301C320.797 59.2301 320.175 59.1051 319.681 58.8551C319.187 58.6051 318.789 58.304 318.488 57.9517C318.192 57.5937 317.962 57.2557 317.797 56.9375H317.67V63.9091H314.584ZM317.61 52.4545C317.61 53.3011 317.729 54.0426 317.968 54.679C318.212 55.3153 318.562 55.8125 319.016 56.1705C319.476 56.5227 320.033 56.6989 320.687 56.6989C321.368 56.6989 321.939 56.517 322.4 56.1534C322.86 55.7841 323.206 55.2812 323.439 54.6449C323.678 54.0028 323.797 53.2727 323.797 52.4545C323.797 51.642 323.681 50.9205 323.448 50.2898C323.215 49.6591 322.868 49.1648 322.408 48.8068C321.948 48.4489 321.374 48.2699 320.687 48.2699C320.027 48.2699 319.468 48.4432 319.008 48.7898C318.547 49.1364 318.198 49.6222 317.959 50.2472C317.726 50.8722 317.61 51.608 317.61 52.4545ZM334.071 59.2642C333.242 59.2642 332.495 59.1165 331.83 58.821C331.171 58.5199 330.648 58.0767 330.262 57.4915C329.881 56.9062 329.691 56.1847 329.691 55.3267C329.691 54.5881 329.827 53.9773 330.1 53.4943C330.372 53.0114 330.745 52.625 331.216 52.3352C331.688 52.0455 332.219 51.8267 332.81 51.679C333.407 51.5256 334.023 51.4148 334.659 51.3466C335.426 51.267 336.049 51.196 336.526 51.1335C337.003 51.0653 337.35 50.9631 337.566 50.8267C337.787 50.6847 337.898 50.4659 337.898 50.1705V50.1193C337.898 49.4773 337.708 48.9801 337.327 48.6278C336.946 48.2756 336.398 48.0994 335.682 48.0994C334.926 48.0994 334.327 48.2642 333.884 48.5938C333.446 48.9233 333.151 49.3125 332.997 49.7614L330.117 49.3523C330.344 48.5568 330.719 47.892 331.242 47.358C331.765 46.8182 332.404 46.4148 333.159 46.1477C333.915 45.875 334.75 45.7386 335.665 45.7386C336.296 45.7386 336.924 45.8125 337.549 45.9602C338.174 46.108 338.745 46.3523 339.262 46.6932C339.779 47.0284 340.194 47.4858 340.506 48.0653C340.824 48.6449 340.983 49.3693 340.983 50.2386V59H338.017V57.2017H337.915C337.728 57.5653 337.463 57.9062 337.122 58.2244C336.787 58.5369 336.364 58.7898 335.853 58.983C335.347 59.1705 334.753 59.2642 334.071 59.2642ZM334.872 56.9972C335.492 56.9972 336.029 56.875 336.483 56.6307C336.938 56.3807 337.287 56.0511 337.532 55.642C337.782 55.233 337.907 54.7869 337.907 54.304V52.7614C337.81 52.8409 337.645 52.9148 337.412 52.983C337.185 53.0511 336.929 53.1108 336.645 53.1619C336.361 53.2131 336.08 53.2585 335.801 53.2983C335.523 53.3381 335.282 53.3722 335.077 53.4006C334.617 53.4631 334.205 53.5653 333.841 53.7074C333.478 53.8494 333.191 54.0483 332.98 54.304C332.77 54.554 332.665 54.8778 332.665 55.2756C332.665 55.8438 332.872 56.2727 333.287 56.5625C333.702 56.8523 334.23 56.9972 334.872 56.9972ZM353.396 63.9091C352.976 63.9091 352.587 63.875 352.229 63.8068C351.876 63.7443 351.595 63.6705 351.385 63.5852L352.101 61.1818C352.55 61.3125 352.95 61.375 353.303 61.3693C353.655 61.3636 353.964 61.2528 354.232 61.0369C354.504 60.8267 354.734 60.4744 354.922 59.9801L355.186 59.2727L350.439 45.9091H353.712L356.729 55.7955H356.865L359.891 45.9091H363.172L357.93 60.5852C357.686 61.2784 357.362 61.8722 356.959 62.3665C356.555 62.8665 356.061 63.2472 355.476 63.5085C354.896 63.7756 354.203 63.9091 353.396 63.9091ZM369.419 59.2642C368.589 59.2642 367.842 59.1165 367.177 58.821C366.518 58.5199 365.996 58.0767 365.609 57.4915C365.228 56.9062 365.038 56.1847 365.038 55.3267C365.038 54.5881 365.175 53.9773 365.447 53.4943C365.72 53.0114 366.092 52.625 366.564 52.3352C367.035 52.0455 367.567 51.8267 368.157 51.679C368.754 51.5256 369.371 51.4148 370.007 51.3466C370.774 51.267 371.396 51.196 371.873 51.1335C372.351 51.0653 372.697 50.9631 372.913 50.8267C373.135 50.6847 373.246 50.4659 373.246 50.1705V50.1193C373.246 49.4773 373.055 48.9801 372.675 48.6278C372.294 48.2756 371.746 48.0994 371.03 48.0994C370.274 48.0994 369.675 48.2642 369.231 48.5938C368.794 48.9233 368.498 49.3125 368.345 49.7614L365.464 49.3523C365.692 48.5568 366.067 47.892 366.589 47.358C367.112 46.8182 367.751 46.4148 368.507 46.1477C369.263 45.875 370.098 45.7386 371.013 45.7386C371.643 45.7386 372.271 45.8125 372.896 45.9602C373.521 46.108 374.092 46.3523 374.609 46.6932C375.126 47.0284 375.541 47.4858 375.853 48.0653C376.172 48.6449 376.331 49.3693 376.331 50.2386V59H373.365V57.2017H373.263C373.075 57.5653 372.811 57.9062 372.47 58.2244C372.135 58.5369 371.711 58.7898 371.2 58.983C370.694 59.1705 370.101 59.2642 369.419 59.2642ZM370.22 56.9972C370.839 56.9972 371.376 56.875 371.831 56.6307C372.285 56.3807 372.635 56.0511 372.879 55.642C373.129 55.233 373.254 54.7869 373.254 54.304V52.7614C373.157 52.8409 372.993 52.9148 372.76 52.983C372.532 53.0511 372.277 53.1108 371.993 53.1619C371.709 53.2131 371.427 53.2585 371.149 53.2983C370.871 53.3381 370.629 53.3722 370.425 53.4006C369.964 53.4631 369.552 53.5653 369.189 53.7074C368.825 53.8494 368.538 54.0483 368.328 54.304C368.118 54.554 368.013 54.8778 368.013 55.2756C368.013 55.8438 368.22 56.2727 368.635 56.5625C369.05 56.8523 369.578 56.9972 370.22 56.9972ZM383.238 51.3295V59H380.153V45.9091H383.102V48.1335H383.255C383.556 47.4006 384.037 46.8182 384.696 46.3864C385.36 45.9545 386.181 45.7386 387.159 45.7386C388.062 45.7386 388.849 45.9318 389.52 46.3182C390.196 46.7045 390.718 47.2642 391.088 47.9972C391.463 48.7301 391.647 49.6193 391.642 50.6648V59H388.556V51.142C388.556 50.267 388.329 49.5824 387.875 49.0881C387.426 48.5937 386.804 48.3466 386.008 48.3466C385.468 48.3466 384.988 48.4659 384.568 48.7045C384.153 48.9375 383.826 49.2756 383.588 49.7188C383.355 50.1619 383.238 50.6989 383.238 51.3295ZM401.191 64.1818C400.083 64.1818 399.132 64.0313 398.336 63.7301C397.541 63.4347 396.901 63.0369 396.418 62.5369C395.936 62.0369 395.6 61.483 395.413 60.875L398.191 60.2017C398.316 60.4574 398.498 60.7102 398.737 60.9602C398.975 61.2159 399.296 61.4261 399.7 61.5909C400.109 61.7614 400.623 61.8466 401.242 61.8466C402.117 61.8466 402.842 61.6335 403.416 61.2074C403.99 60.7869 404.276 60.0938 404.276 59.1278V56.6477H404.123C403.964 56.9659 403.731 57.2926 403.424 57.6278C403.123 57.9631 402.722 58.2443 402.222 58.4716C401.728 58.6989 401.106 58.8125 400.356 58.8125C399.35 58.8125 398.438 58.5767 397.62 58.1051C396.808 57.6278 396.16 56.9176 395.677 55.9744C395.2 55.0256 394.961 53.8381 394.961 52.4119C394.961 50.9744 395.2 49.7614 395.677 48.7727C396.16 47.7784 396.811 47.0256 397.629 46.5142C398.447 45.9972 399.359 45.7386 400.365 45.7386C401.132 45.7386 401.762 45.8693 402.257 46.1307C402.757 46.3864 403.154 46.696 403.45 47.0597C403.745 47.4176 403.97 47.7557 404.123 48.0739H404.293V45.9091H407.336V59.2131C407.336 60.3324 407.069 61.2585 406.535 61.9915C406.001 62.7244 405.271 63.2727 404.345 63.6364C403.418 64 402.367 64.1818 401.191 64.1818ZM401.217 56.392C401.87 56.392 402.427 56.233 402.887 55.9148C403.347 55.5966 403.697 55.1392 403.936 54.5426C404.174 53.946 404.293 53.2301 404.293 52.3949C404.293 51.571 404.174 50.8494 403.936 50.2301C403.703 49.6108 403.356 49.1307 402.896 48.7898C402.441 48.4432 401.882 48.2699 401.217 48.2699C400.529 48.2699 399.955 48.4489 399.495 48.8068C399.035 49.1648 398.688 49.6562 398.455 50.2812C398.222 50.9006 398.106 51.6051 398.106 52.3949C398.106 53.196 398.222 53.8977 398.455 54.5C398.694 55.0966 399.043 55.5625 399.504 55.8977C399.97 56.2273 400.541 56.392 401.217 56.392ZM424.428 45.9091V48.2955H416.903V45.9091H424.428ZM418.76 42.7727H421.846V55.0625C421.846 55.4773 421.908 55.7955 422.033 56.017C422.164 56.233 422.334 56.3807 422.545 56.4602C422.755 56.5398 422.988 56.5795 423.243 56.5795C423.437 56.5795 423.613 56.5653 423.772 56.5369C423.937 56.5085 424.062 56.483 424.147 56.4602L424.667 58.8722C424.502 58.929 424.266 58.9915 423.959 59.0597C423.658 59.1278 423.289 59.1676 422.851 59.179C422.079 59.2017 421.383 59.0852 420.763 58.8295C420.144 58.5682 419.653 58.1648 419.289 57.6193C418.931 57.0739 418.755 56.392 418.76 55.5739V42.7727ZM433.383 59.2557C432.071 59.2557 430.937 58.983 429.983 58.4375C429.034 57.8864 428.304 57.108 427.792 56.1023C427.281 55.0909 427.025 53.9006 427.025 52.5312C427.025 51.1847 427.281 50.0028 427.792 48.9858C428.309 47.9631 429.031 47.1676 429.957 46.5994C430.883 46.0256 431.971 45.7386 433.221 45.7386C434.028 45.7386 434.789 45.8693 435.505 46.1307C436.227 46.3864 436.863 46.7841 437.414 47.3239C437.971 47.8636 438.409 48.5511 438.727 49.3864C439.045 50.2159 439.204 51.2045 439.204 52.3523V53.2983H428.474V51.2188H436.247C436.241 50.6278 436.113 50.1023 435.863 49.642C435.613 49.1761 435.264 48.8097 434.815 48.5426C434.372 48.2756 433.855 48.142 433.264 48.142C432.633 48.142 432.079 48.2955 431.602 48.6023C431.125 48.9034 430.753 49.3011 430.485 49.7955C430.224 50.2841 430.091 50.821 430.085 51.4062V53.2216C430.085 53.983 430.224 54.6364 430.503 55.1818C430.781 55.7216 431.17 56.1364 431.67 56.4261C432.17 56.7102 432.755 56.8523 433.426 56.8523C433.875 56.8523 434.281 56.7898 434.645 56.6648C435.008 56.5341 435.324 56.3438 435.591 56.0938C435.858 55.8438 436.059 55.5341 436.196 55.1648L439.076 55.4886C438.895 56.25 438.548 56.9148 438.037 57.483C437.531 58.0455 436.883 58.483 436.093 58.7955C435.304 59.1023 434.4 59.2557 433.383 59.2557ZM442.534 59V45.9091H445.526V48.0909H445.662C445.901 47.3352 446.31 46.7528 446.889 46.3438C447.475 45.929 448.142 45.7216 448.892 45.7216C449.063 45.7216 449.253 45.7301 449.463 45.7472C449.679 45.7585 449.858 45.7784 450 45.8068V48.6449C449.87 48.5994 449.662 48.5597 449.378 48.5256C449.1 48.4858 448.83 48.4659 448.568 48.4659C448.006 48.4659 447.5 48.5881 447.051 48.8324C446.608 49.071 446.259 49.4034 446.003 49.8295C445.747 50.2557 445.62 50.7472 445.62 51.304V59H442.534ZM452.77 45.9091H455.855V59.75C455.855 60.6932 455.676 61.4716 455.318 62.0852C454.96 62.6989 454.443 63.1563 453.767 63.4574C453.091 63.7585 452.27 63.9091 451.304 63.9091C451.19 63.9091 451.085 63.9063 450.989 63.9006C450.892 63.9006 450.787 63.8977 450.673 63.892V61.3778C450.759 61.3835 450.835 61.3864 450.903 61.3864C450.972 61.392 451.043 61.3949 451.117 61.3949C451.707 61.3949 452.131 61.25 452.386 60.9602C452.642 60.6761 452.77 60.2585 452.77 59.7074V45.9091ZM454.304 44.0511C453.81 44.0511 453.386 43.8892 453.034 43.5653C452.688 43.2358 452.514 42.8409 452.514 42.3807C452.514 41.9148 452.688 41.5199 453.034 41.196C453.386 40.8665 453.81 40.7017 454.304 40.7017C454.793 40.7017 455.21 40.8665 455.557 41.196C455.909 41.5199 456.085 41.9148 456.085 42.3807C456.085 42.8409 455.909 43.2358 455.557 43.5653C455.21 43.8892 454.793 44.0511 454.304 44.0511ZM463.515 59.2642C462.685 59.2642 461.938 59.1165 461.273 58.821C460.614 58.5199 460.091 58.0767 459.705 57.4915C459.324 56.9062 459.134 56.1847 459.134 55.3267C459.134 54.5881 459.27 53.9773 459.543 53.4943C459.816 53.0114 460.188 52.625 460.66 52.3352C461.131 52.0455 461.663 51.8267 462.253 51.679C462.85 51.5256 463.466 51.4148 464.103 51.3466C464.87 51.267 465.492 51.196 465.969 51.1335C466.447 51.0653 466.793 50.9631 467.009 50.8267C467.231 50.6847 467.341 50.4659 467.341 50.1705V50.1193C467.341 49.4773 467.151 48.9801 466.77 48.6278C466.39 48.2756 465.841 48.0994 465.126 48.0994C464.37 48.0994 463.77 48.2642 463.327 48.5938C462.89 48.9233 462.594 49.3125 462.441 49.7614L459.56 49.3523C459.788 48.5568 460.163 47.892 460.685 47.358C461.208 46.8182 461.847 46.4148 462.603 46.1477C463.359 45.875 464.194 45.7386 465.109 45.7386C465.739 45.7386 466.367 45.8125 466.992 45.9602C467.617 46.108 468.188 46.3523 468.705 46.6932C469.222 47.0284 469.637 47.4858 469.949 48.0653C470.268 48.6449 470.427 49.3693 470.427 50.2386V59H467.461V57.2017H467.359C467.171 57.5653 466.907 57.9062 466.566 58.2244C466.231 58.5369 465.807 58.7898 465.296 58.983C464.79 59.1705 464.197 59.2642 463.515 59.2642ZM464.316 56.9972C464.935 56.9972 465.472 56.875 465.927 56.6307C466.381 56.3807 466.731 56.0511 466.975 55.642C467.225 55.233 467.35 54.7869 467.35 54.304V52.7614C467.253 52.8409 467.089 52.9148 466.856 52.983C466.628 53.0511 466.373 53.1108 466.089 53.1619C465.805 53.2131 465.523 53.2585 465.245 53.2983C464.966 53.3381 464.725 53.3722 464.52 53.4006C464.06 53.4631 463.648 53.5653 463.285 53.7074C462.921 53.8494 462.634 54.0483 462.424 54.304C462.214 54.554 462.109 54.8778 462.109 55.2756C462.109 55.8438 462.316 56.2727 462.731 56.5625C463.145 56.8523 463.674 56.9972 464.316 56.9972ZM479.107 59.2301C478.079 59.2301 477.158 58.9659 476.346 58.4375C475.533 57.9091 474.891 57.142 474.419 56.1364C473.948 55.1307 473.712 53.9091 473.712 52.4716C473.712 51.017 473.951 49.7898 474.428 48.7898C474.911 47.7841 475.561 47.0256 476.38 46.5142C477.198 45.9972 478.11 45.7386 479.115 45.7386C479.883 45.7386 480.513 45.8693 481.008 46.1307C481.502 46.3864 481.894 46.696 482.184 47.0597C482.473 47.4176 482.698 47.7557 482.857 48.0739H482.985V41.5455H486.079V59H483.044V56.9375H482.857C482.698 57.2557 482.468 57.5937 482.167 57.9517C481.865 58.304 481.468 58.6051 480.973 58.8551C480.479 59.1051 479.857 59.2301 479.107 59.2301ZM479.968 56.6989C480.621 56.6989 481.178 56.5227 481.638 56.1705C482.098 55.8125 482.448 55.3153 482.686 54.679C482.925 54.0426 483.044 53.3011 483.044 52.4545C483.044 51.608 482.925 50.8722 482.686 50.2472C482.454 49.6222 482.107 49.1364 481.647 48.7898C481.192 48.4432 480.633 48.2699 479.968 48.2699C479.28 48.2699 478.706 48.4489 478.246 48.8068C477.786 49.1648 477.439 49.6591 477.206 50.2898C476.973 50.9205 476.857 51.642 476.857 52.4545C476.857 53.2727 476.973 54.0028 477.206 54.6449C477.445 55.2812 477.794 55.7841 478.255 56.1534C478.721 56.517 479.292 56.6989 479.968 56.6989ZM490.086 59V45.9091H493.171V59H490.086ZM491.637 44.0511C491.149 44.0511 490.728 43.8892 490.376 43.5653C490.024 43.2358 489.848 42.8409 489.848 42.3807C489.848 41.9148 490.024 41.5199 490.376 41.196C490.728 40.8665 491.149 40.7017 491.637 40.7017C492.132 40.7017 492.552 40.8665 492.899 41.196C493.251 41.5199 493.427 41.9148 493.427 42.3807C493.427 42.8409 493.251 43.2358 492.899 43.5653C492.552 43.8892 492.132 44.0511 491.637 44.0511ZM76.9993 99.9091V81.9091H80.0334V84.0739H80.2124C80.3714 83.7557 80.5959 83.4176 80.8857 83.0597C81.1754 82.696 81.5675 82.3864 82.0618 82.1307C82.5561 81.8693 83.1868 81.7386 83.9538 81.7386C84.9652 81.7386 85.8771 81.9972 86.6896 82.5142C87.5078 83.0256 88.1555 83.7841 88.6328 84.7898C89.1158 85.7898 89.3572 87.017 89.3572 88.4716C89.3572 89.9091 89.1214 91.1307 88.6499 92.1364C88.1783 93.142 87.5362 93.9091 86.7237 94.4375C85.9112 94.9659 84.9908 95.2301 83.9624 95.2301C83.2124 95.2301 82.5902 95.1051 82.0959 94.8551C81.6016 94.6051 81.2038 94.304 80.9027 93.9517C80.6072 93.5937 80.3771 93.2557 80.2124 92.9375H80.0845V99.9091H76.9993ZM80.0249 88.4545C80.0249 89.3011 80.1442 90.0426 80.3828 90.679C80.6271 91.3153 80.9766 91.8125 81.4311 92.1705C81.8913 92.5227 82.4482 92.6989 83.1016 92.6989C83.7834 92.6989 84.3544 92.517 84.8146 92.1534C85.2749 91.7841 85.6214 91.2812 85.8544 90.6449C86.093 90.0028 86.2124 89.2727 86.2124 88.4545C86.2124 87.642 86.0959 86.9205 85.8629 86.2898C85.63 85.6591 85.2834 85.1648 84.8232 84.8068C84.3629 84.4489 83.7891 84.2699 83.1016 84.2699C82.4425 84.2699 81.8828 84.4432 81.4226 84.7898C80.9624 85.1364 80.6129 85.6222 80.3743 86.2472C80.1413 86.8722 80.0249 87.608 80.0249 88.4545ZM96.4863 95.2642C95.6568 95.2642 94.9096 95.1165 94.2449 94.821C93.5858 94.5199 93.063 94.0767 92.6767 93.4915C92.296 92.9062 92.1057 92.1847 92.1057 91.3267C92.1057 90.5881 92.242 89.9773 92.5147 89.4943C92.7875 89.0114 93.1596 88.625 93.6312 88.3352C94.1028 88.0455 94.6341 87.8267 95.225 87.679C95.8216 87.5256 96.438 87.4148 97.0744 87.3466C97.8414 87.267 98.4636 87.196 98.9409 87.1335C99.4182 87.0653 99.7647 86.9631 99.9807 86.8267C100.202 86.6847 100.313 86.4659 100.313 86.1705V86.1193C100.313 85.4773 100.123 84.9801 99.742 84.6278C99.3613 84.2756 98.813 84.0994 98.0971 84.0994C97.3414 84.0994 96.742 84.2642 96.2988 84.5938C95.8613 84.9233 95.5659 85.3125 95.4125 85.7614L92.5318 85.3523C92.7591 84.5568 93.1341 83.892 93.6568 83.358C94.1795 82.8182 94.8187 82.4148 95.5744 82.1477C96.3301 81.875 97.1653 81.7386 98.0801 81.7386C98.7108 81.7386 99.3386 81.8125 99.9636 81.9602C100.589 82.108 101.16 82.3523 101.677 82.6932C102.194 83.0284 102.608 83.4858 102.921 84.0653C103.239 84.6449 103.398 85.3693 103.398 86.2386V95H100.432V93.2017H100.33C100.143 93.5653 99.8784 93.9062 99.5375 94.2244C99.2022 94.5369 98.7789 94.7898 98.2676 94.983C97.7619 95.1705 97.1682 95.2642 96.4863 95.2642ZM97.2875 92.9972C97.9068 92.9972 98.4437 92.875 98.8983 92.6307C99.3528 92.3807 99.7022 92.0511 99.9466 91.642C100.197 91.233 100.322 90.7869 100.322 90.304V88.7614C100.225 88.8409 100.06 88.9148 99.8272 88.983C99.6 89.0511 99.3443 89.1108 99.0602 89.1619C98.7761 89.2131 98.4949 89.2585 98.2164 89.2983C97.938 89.3381 97.6966 89.3722 97.492 89.4006C97.0318 89.4631 96.6199 89.5653 96.2562 89.7074C95.8926 89.8494 95.6057 90.0483 95.3954 90.304C95.1852 90.554 95.0801 90.8778 95.0801 91.2756C95.0801 91.8438 95.2875 92.2727 95.7022 92.5625C96.117 92.8523 96.6454 92.9972 97.2875 92.9972ZM112.078 95.2301C111.05 95.2301 110.13 94.9659 109.317 94.4375C108.505 93.9091 107.863 93.142 107.391 92.1364C106.919 91.1307 106.684 89.9091 106.684 88.4716C106.684 87.017 106.922 85.7898 107.4 84.7898C107.882 83.7841 108.533 83.0256 109.351 82.5142C110.169 81.9972 111.081 81.7386 112.087 81.7386C112.854 81.7386 113.485 81.8693 113.979 82.1307C114.473 82.3864 114.865 82.696 115.155 83.0597C115.445 83.4176 115.669 83.7557 115.828 84.0739H115.956V77.5455H119.05V95H116.016V92.9375H115.828C115.669 93.2557 115.439 93.5937 115.138 93.9517C114.837 94.304 114.439 94.6051 113.945 94.8551C113.451 95.1051 112.828 95.2301 112.078 95.2301ZM112.939 92.6989C113.593 92.6989 114.15 92.5227 114.61 92.1705C115.07 91.8125 115.419 91.3153 115.658 90.679C115.897 90.0426 116.016 89.3011 116.016 88.4545C116.016 87.608 115.897 86.8722 115.658 86.2472C115.425 85.6222 115.078 85.1364 114.618 84.7898C114.164 84.4432 113.604 84.2699 112.939 84.2699C112.252 84.2699 111.678 84.4489 111.218 84.8068C110.757 85.1648 110.411 85.6591 110.178 86.2898C109.945 86.9205 109.828 87.642 109.828 88.4545C109.828 89.2727 109.945 90.0028 110.178 90.6449C110.417 91.2812 110.766 91.7841 111.226 92.1534C111.692 92.517 112.263 92.6989 112.939 92.6989ZM126.825 95.2642C125.995 95.2642 125.248 95.1165 124.583 94.821C123.924 94.5199 123.401 94.0767 123.015 93.4915C122.634 92.9062 122.444 92.1847 122.444 91.3267C122.444 90.5881 122.58 89.9773 122.853 89.4943C123.126 89.0114 123.498 88.625 123.97 88.3352C124.441 88.0455 124.972 87.8267 125.563 87.679C126.16 87.5256 126.776 87.4148 127.413 87.3466C128.18 87.267 128.802 87.196 129.279 87.1335C129.757 87.0653 130.103 86.9631 130.319 86.8267C130.541 86.6847 130.651 86.4659 130.651 86.1705V86.1193C130.651 85.4773 130.461 84.9801 130.08 84.6278C129.7 84.2756 129.151 84.0994 128.436 84.0994C127.68 84.0994 127.08 84.2642 126.637 84.5938C126.2 84.9233 125.904 85.3125 125.751 85.7614L122.87 85.3523C123.097 84.5568 123.472 83.892 123.995 83.358C124.518 82.8182 125.157 82.4148 125.913 82.1477C126.669 81.875 127.504 81.7386 128.419 81.7386C129.049 81.7386 129.677 81.8125 130.302 81.9602C130.927 82.108 131.498 82.3523 132.015 82.6932C132.532 83.0284 132.947 83.4858 133.259 84.0653C133.578 84.6449 133.737 85.3693 133.737 86.2386V95H130.771V93.2017H130.669C130.481 93.5653 130.217 93.9062 129.876 94.2244C129.541 94.5369 129.117 94.7898 128.606 94.983C128.1 95.1705 127.507 95.2642 126.825 95.2642ZM127.626 92.9972C128.245 92.9972 128.782 92.875 129.237 92.6307C129.691 92.3807 130.041 92.0511 130.285 91.642C130.535 91.233 130.66 90.7869 130.66 90.304V88.7614C130.563 88.8409 130.399 88.9148 130.166 88.983C129.938 89.0511 129.683 89.1108 129.399 89.1619C129.115 89.2131 128.833 89.2585 128.555 89.2983C128.276 89.3381 128.035 89.3722 127.83 89.4006C127.37 89.4631 126.958 89.5653 126.595 89.7074C126.231 89.8494 125.944 90.0483 125.734 90.304C125.524 90.554 125.419 90.8778 125.419 91.2756C125.419 91.8438 125.626 92.2727 126.041 92.5625C126.455 92.8523 126.984 92.9972 127.626 92.9972ZM155.925 81.9091L151.263 95H147.854L143.192 81.9091H146.482L149.491 91.6335H149.627L152.644 81.9091H155.925ZM158.78 95V81.9091H161.865V95H158.78ZM160.331 80.0511C159.843 80.0511 159.422 79.8892 159.07 79.5653C158.718 79.2358 158.542 78.8409 158.542 78.3807C158.542 77.9148 158.718 77.5199 159.07 77.196C159.422 76.8665 159.843 76.7017 160.331 76.7017C160.826 76.7017 161.246 76.8665 161.593 77.196C161.945 77.5199 162.121 77.9148 162.121 78.3807C162.121 78.8409 161.945 79.2358 161.593 79.5653C161.246 79.8892 160.826 80.0511 160.331 80.0511ZM170.616 95.2301C169.588 95.2301 168.667 94.9659 167.855 94.4375C167.042 93.9091 166.4 93.142 165.928 92.1364C165.457 91.1307 165.221 89.9091 165.221 88.4716C165.221 87.017 165.46 85.7898 165.937 84.7898C166.42 83.7841 167.071 83.0256 167.889 82.5142C168.707 81.9972 169.619 81.7386 170.625 81.7386C171.392 81.7386 172.022 81.8693 172.517 82.1307C173.011 82.3864 173.403 82.696 173.693 83.0597C173.982 83.4176 174.207 83.7557 174.366 84.0739H174.494V77.5455H177.588V95H174.553V92.9375H174.366C174.207 93.2557 173.977 93.5937 173.676 93.9517C173.375 94.304 172.977 94.6051 172.482 94.8551C171.988 95.1051 171.366 95.2301 170.616 95.2301ZM171.477 92.6989C172.13 92.6989 172.687 92.5227 173.147 92.1705C173.607 91.8125 173.957 91.3153 174.196 90.679C174.434 90.0426 174.553 89.3011 174.553 88.4545C174.553 87.608 174.434 86.8722 174.196 86.2472C173.963 85.6222 173.616 85.1364 173.156 84.7898C172.701 84.4432 172.142 84.2699 171.477 84.2699C170.789 84.2699 170.215 84.4489 169.755 84.8068C169.295 85.1648 168.948 85.6591 168.715 86.2898C168.482 86.9205 168.366 87.642 168.366 88.4545C168.366 89.2727 168.482 90.0028 168.715 90.6449C168.954 91.2812 169.303 91.7841 169.764 92.1534C170.23 92.517 170.801 92.6989 171.477 92.6989ZM187.391 95.2557C186.078 95.2557 184.945 94.983 183.99 94.4375C183.041 93.8864 182.311 93.108 181.8 92.1023C181.288 91.0909 181.033 89.9006 181.033 88.5312C181.033 87.1847 181.288 86.0028 181.8 84.9858C182.317 83.9631 183.038 83.1676 183.965 82.5994C184.891 82.0256 185.979 81.7386 187.229 81.7386C188.036 81.7386 188.797 81.8693 189.513 82.1307C190.234 82.3864 190.871 82.7841 191.422 83.3239C191.979 83.8636 192.416 84.5511 192.734 85.3864C193.053 86.2159 193.212 87.2045 193.212 88.3523V89.2983H182.482V87.2188H190.254C190.249 86.6278 190.121 86.1023 189.871 85.642C189.621 85.1761 189.271 84.8097 188.823 84.5426C188.379 84.2756 187.862 84.142 187.271 84.142C186.641 84.142 186.087 84.2955 185.609 84.6023C185.132 84.9034 184.76 85.3011 184.493 85.7955C184.232 86.2841 184.098 86.821 184.092 87.4062V89.2216C184.092 89.983 184.232 90.6364 184.51 91.1818C184.788 91.7216 185.178 92.1364 185.678 92.4261C186.178 92.7102 186.763 92.8523 187.433 92.8523C187.882 92.8523 188.288 92.7898 188.652 92.6648C189.016 92.5341 189.331 92.3438 189.598 92.0938C189.865 91.8438 190.067 91.5341 190.203 91.1648L193.084 91.4886C192.902 92.25 192.555 92.9148 192.044 93.483C191.538 94.0455 190.891 94.483 190.101 94.7955C189.311 95.1023 188.408 95.2557 187.391 95.2557ZM202.252 95.2557C200.974 95.2557 199.866 94.9744 198.928 94.4119C197.991 93.8494 197.263 93.0625 196.746 92.0511C196.235 91.0398 195.979 89.858 195.979 88.5057C195.979 87.1534 196.235 85.9687 196.746 84.9517C197.263 83.9347 197.991 83.1449 198.928 82.5824C199.866 82.0199 200.974 81.7386 202.252 81.7386C203.53 81.7386 204.638 82.0199 205.576 82.5824C206.513 83.1449 207.238 83.9347 207.749 84.9517C208.266 85.9687 208.525 87.1534 208.525 88.5057C208.525 89.858 208.266 91.0398 207.749 92.0511C207.238 93.0625 206.513 93.8494 205.576 94.4119C204.638 94.9744 203.53 95.2557 202.252 95.2557ZM202.269 92.7841C202.962 92.7841 203.542 92.5937 204.008 92.2131C204.474 91.8267 204.82 91.3097 205.047 90.6619C205.28 90.0142 205.397 89.2926 205.397 88.4972C205.397 87.696 205.28 86.9716 205.047 86.3239C204.82 85.6705 204.474 85.1506 204.008 84.7642C203.542 84.3778 202.962 84.1847 202.269 84.1847C201.559 84.1847 200.968 84.3778 200.496 84.7642C200.03 85.1506 199.681 85.6705 199.448 86.3239C199.221 86.9716 199.107 87.696 199.107 88.4972C199.107 89.2926 199.221 90.0142 199.448 90.6619C199.681 91.3097 200.03 91.8267 200.496 92.2131C200.968 92.5937 201.559 92.7841 202.269 92.7841ZM225.073 81.9091V84.2955H217.548V81.9091H225.073ZM219.406 78.7727H222.491V91.0625C222.491 91.4773 222.554 91.7955 222.679 92.017C222.809 92.233 222.98 92.3807 223.19 92.4602C223.4 92.5398 223.633 92.5795 223.889 92.5795C224.082 92.5795 224.258 92.5653 224.417 92.5369C224.582 92.5085 224.707 92.483 224.792 92.4602L225.312 94.8722C225.147 94.929 224.911 94.9915 224.605 95.0597C224.304 95.1278 223.934 95.1676 223.497 95.179C222.724 95.2017 222.028 95.0852 221.409 94.8295C220.789 94.5682 220.298 94.1648 219.934 93.6193C219.576 93.0739 219.4 92.392 219.406 91.5739V78.7727ZM234.028 95.2557C232.716 95.2557 231.582 94.983 230.628 94.4375C229.679 93.8864 228.949 93.108 228.438 92.1023C227.926 91.0909 227.671 89.9006 227.671 88.5312C227.671 87.1847 227.926 86.0028 228.438 84.9858C228.955 83.9631 229.676 83.1676 230.602 82.5994C231.528 82.0256 232.617 81.7386 233.867 81.7386C234.673 81.7386 235.435 81.8693 236.151 82.1307C236.872 82.3864 237.509 82.7841 238.06 83.3239C238.617 83.8636 239.054 84.5511 239.372 85.3864C239.69 86.2159 239.85 87.2045 239.85 88.3523V89.2983H229.119V87.2188H236.892C236.886 86.6278 236.759 86.1023 236.509 85.642C236.259 85.1761 235.909 84.8097 235.46 84.5426C235.017 84.2756 234.5 84.142 233.909 84.142C233.278 84.142 232.725 84.2955 232.247 84.6023C231.77 84.9034 231.398 85.3011 231.131 85.7955C230.869 86.2841 230.736 86.821 230.73 87.4062V89.2216C230.73 89.983 230.869 90.6364 231.148 91.1818C231.426 91.7216 231.815 92.1364 232.315 92.4261C232.815 92.7102 233.401 92.8523 234.071 92.8523C234.52 92.8523 234.926 92.7898 235.29 92.6648C235.653 92.5341 235.969 92.3438 236.236 92.0938C236.503 91.8438 236.705 91.5341 236.841 91.1648L239.722 91.4886C239.54 92.25 239.193 92.9148 238.682 93.483C238.176 94.0455 237.528 94.483 236.739 94.7955C235.949 95.1023 235.046 95.2557 234.028 95.2557ZM243.18 95V81.9091H246.171V84.0909H246.307C246.546 83.3352 246.955 82.7528 247.535 82.3438C248.12 81.929 248.788 81.7216 249.538 81.7216C249.708 81.7216 249.898 81.7301 250.109 81.7472C250.324 81.7585 250.503 81.7784 250.646 81.8068V84.6449C250.515 84.5994 250.307 84.5597 250.023 84.5256C249.745 84.4858 249.475 84.4659 249.214 84.4659C248.651 84.4659 248.146 84.5881 247.697 84.8324C247.253 85.071 246.904 85.4034 246.648 85.8295C246.393 86.2557 246.265 86.7472 246.265 87.304V95H243.18ZM263.762 85.3693L260.949 85.6761C260.87 85.392 260.731 85.125 260.532 84.875C260.339 84.625 260.077 84.4233 259.748 84.2699C259.418 84.1165 259.015 84.0398 258.537 84.0398C257.895 84.0398 257.356 84.179 256.918 84.4574C256.486 84.7358 256.273 85.0966 256.279 85.5398C256.273 85.9205 256.412 86.2301 256.696 86.4688C256.986 86.7074 257.464 86.9034 258.128 87.0568L260.361 87.5341C261.6 87.8011 262.52 88.2244 263.123 88.804C263.731 89.3835 264.037 90.142 264.043 91.0795C264.037 91.9034 263.796 92.6307 263.319 93.2614C262.847 93.8864 262.191 94.375 261.35 94.7273C260.509 95.0795 259.543 95.2557 258.452 95.2557C256.85 95.2557 255.56 94.9205 254.583 94.25C253.606 93.5739 253.023 92.6335 252.836 91.429L255.844 91.1392C255.981 91.7301 256.27 92.1761 256.714 92.4773C257.157 92.7784 257.733 92.929 258.444 92.929C259.177 92.929 259.765 92.7784 260.208 92.4773C260.657 92.1761 260.881 91.804 260.881 91.3608C260.881 90.9858 260.736 90.6761 260.446 90.4318C260.162 90.1875 259.719 90 259.117 89.8693L256.884 89.4006C255.628 89.1392 254.699 88.6989 254.097 88.0795C253.495 87.4545 253.196 86.6648 253.202 85.7102C253.196 84.9034 253.415 84.2045 253.858 83.6136C254.307 83.017 254.929 82.5568 255.725 82.233C256.526 81.9034 257.449 81.7386 258.495 81.7386C260.029 81.7386 261.236 82.0653 262.117 82.7188C263.003 83.3722 263.552 84.2557 263.762 85.3693ZM273.103 95.2557C271.79 95.2557 270.657 94.983 269.702 94.4375C268.753 93.8864 268.023 93.108 267.512 92.1023C267 91.0909 266.745 89.9006 266.745 88.5312C266.745 87.1847 267 86.0028 267.512 84.9858C268.029 83.9631 268.75 83.1676 269.676 82.5994C270.603 82.0256 271.691 81.7386 272.941 81.7386C273.747 81.7386 274.509 81.8693 275.225 82.1307C275.946 82.3864 276.583 82.7841 277.134 83.3239C277.691 83.8636 278.128 84.5511 278.446 85.3864C278.764 86.2159 278.924 87.2045 278.924 88.3523V89.2983H268.193V87.2188H275.966C275.961 86.6278 275.833 86.1023 275.583 85.642C275.333 85.1761 274.983 84.8097 274.534 84.5426C274.091 84.2756 273.574 84.142 272.983 84.142C272.353 84.142 271.799 84.2955 271.321 84.6023C270.844 84.9034 270.472 85.3011 270.205 85.7955C269.943 86.2841 269.81 86.821 269.804 87.4062V89.2216C269.804 89.983 269.943 90.6364 270.222 91.1818C270.5 91.7216 270.889 92.1364 271.389 92.4261C271.889 92.7102 272.475 92.8523 273.145 92.8523C273.594 92.8523 274 92.7898 274.364 92.6648C274.728 92.5341 275.043 92.3438 275.31 92.0938C275.577 91.8438 275.779 91.5341 275.915 91.1648L278.796 91.4886C278.614 92.25 278.267 92.9148 277.756 93.483C277.25 94.0455 276.603 94.483 275.813 94.7955C275.023 95.1023 274.12 95.2557 273.103 95.2557ZM282.39 95V77.5455H285.475V84.0739H285.603C285.762 83.7557 285.987 83.4176 286.276 83.0597C286.566 82.696 286.958 82.3864 287.453 82.1307C287.947 81.8693 288.578 81.7386 289.345 81.7386C290.356 81.7386 291.268 81.9972 292.08 82.5142C292.899 83.0256 293.546 83.7841 294.024 84.7898C294.507 85.7898 294.748 87.017 294.748 88.4716C294.748 89.9091 294.512 91.1307 294.041 92.1364C293.569 93.142 292.927 93.9091 292.114 94.4375C291.302 94.9659 290.382 95.2301 289.353 95.2301C288.603 95.2301 287.981 95.1051 287.487 94.8551C286.992 94.6051 286.595 94.304 286.293 93.9517C285.998 93.5937 285.768 93.2557 285.603 92.9375H285.424V95H282.39ZM285.416 88.4545C285.416 89.3011 285.535 90.0426 285.774 90.679C286.018 91.3153 286.367 91.8125 286.822 92.1705C287.282 92.5227 287.839 92.6989 288.492 92.6989C289.174 92.6989 289.745 92.517 290.205 92.1534C290.666 91.7841 291.012 91.2812 291.245 90.6449C291.484 90.0028 291.603 89.2727 291.603 88.4545C291.603 87.642 291.487 86.9205 291.254 86.2898C291.021 85.6591 290.674 85.1648 290.214 84.8068C289.754 84.4489 289.18 84.2699 288.492 84.2699C287.833 84.2699 287.274 84.4432 286.813 84.7898C286.353 85.1364 286.004 85.6222 285.765 86.2472C285.532 86.8722 285.416 87.608 285.416 88.4545ZM306.435 89.4943V81.9091H309.52V95H306.528V92.6733H306.392C306.097 93.4062 305.611 94.0057 304.935 94.4716C304.264 94.9375 303.437 95.1705 302.454 95.1705C301.597 95.1705 300.838 94.9801 300.179 94.5994C299.526 94.2131 299.014 93.6534 298.645 92.9205C298.276 92.1818 298.091 91.2898 298.091 90.2443V81.9091H301.176V89.767C301.176 90.5966 301.403 91.2557 301.858 91.7443C302.312 92.233 302.909 92.4773 303.648 92.4773C304.102 92.4773 304.543 92.3665 304.969 92.1449C305.395 91.9233 305.744 91.5938 306.017 91.1562C306.295 90.7131 306.435 90.1591 306.435 89.4943ZM319.949 81.9091V84.2955H312.424V81.9091H319.949ZM314.282 78.7727H317.367V91.0625C317.367 91.4773 317.429 91.7955 317.554 92.017C317.685 92.233 317.856 92.3807 318.066 92.4602C318.276 92.5398 318.509 92.5795 318.765 92.5795C318.958 92.5795 319.134 92.5653 319.293 92.5369C319.458 92.5085 319.583 92.483 319.668 92.4602L320.188 94.8722C320.023 94.929 319.787 94.9915 319.481 95.0597C319.179 95.1278 318.81 95.1676 318.373 95.179C317.6 95.2017 316.904 95.0852 316.285 94.8295C315.665 94.5682 315.174 94.1648 314.81 93.6193C314.452 93.0739 314.276 92.392 314.282 91.5739V78.7727ZM326.198 89.8693V89.6477C326.204 88.6193 326.301 87.8011 326.488 87.1932C326.681 86.5852 326.954 86.0966 327.306 85.7273C327.659 85.3523 328.088 85.0085 328.593 84.696C328.94 84.4801 329.25 84.2443 329.522 83.9886C329.801 83.7273 330.019 83.4375 330.179 83.1193C330.338 82.7955 330.417 82.4347 330.417 82.0369C330.417 81.5881 330.312 81.1989 330.102 80.8693C329.892 80.5398 329.608 80.2841 329.25 80.1023C328.897 79.9205 328.502 79.8295 328.065 79.8295C327.662 79.8295 327.278 79.9176 326.914 80.0938C326.556 80.2642 326.258 80.5256 326.019 80.8778C325.787 81.2244 325.656 81.6648 325.627 82.1989H322.593C322.622 81.1193 322.883 80.2159 323.377 79.4886C323.877 78.7614 324.537 78.2159 325.355 77.8523C326.179 77.4886 327.088 77.3068 328.082 77.3068C329.167 77.3068 330.122 77.4972 330.946 77.8778C331.775 78.2585 332.42 78.8011 332.88 79.5057C333.346 80.2045 333.579 81.0341 333.579 81.9943C333.579 82.642 333.474 83.2216 333.264 83.733C333.059 84.2443 332.767 84.6989 332.386 85.0966C332.005 85.4943 331.554 85.8494 331.031 86.1619C330.571 86.446 330.193 86.7415 329.897 87.0483C329.608 87.3551 329.392 87.7159 329.25 88.1307C329.113 88.5398 329.042 89.0455 329.037 89.6477V89.8693H326.198ZM327.681 95.1875C327.17 95.1875 326.73 95.0057 326.36 94.642C325.991 94.2784 325.806 93.8352 325.806 93.3125C325.806 92.8011 325.991 92.3636 326.36 92C326.73 91.6364 327.17 91.4545 327.681 91.4545C328.187 91.4545 328.625 91.6364 328.994 92C329.369 92.3636 329.556 92.8011 329.556 93.3125C329.556 93.6591 329.468 93.9744 329.292 94.2585C329.122 94.5426 328.894 94.7699 328.61 94.9403C328.332 95.1051 328.022 95.1875 327.681 95.1875Z" fill="black"/>
<path d="M43.9223 30.6865C45.9914 30.8639 47.5807 32.5952 47.5807 34.6719L47.5807 56.5845C47.5807 59.9546 43.6683 61.8142 41.055 59.6862L10.9788 35.1956C7.92577 32.7095 9.9233 27.7722 13.8462 28.1085L43.9223 30.6865Z" fill="white"/>
</svg>
